<svg width="24" height="22" viewBox="0 0 24 22" fill="none" xmlns="http://www.w3.org/2000/svg">
<g id="linkedin_symbol.svg" clip-path="url(#clip0_821_6079)">
<path id="Path 2525" d="M22.8223 19.8222C22.8738 19.8227 22.9249 19.8127 22.9723 19.7929C23.0197 19.773 23.0626 19.7437 23.0981 19.7068C23.1336 19.6699 23.1611 19.6262 23.1789 19.5783C23.1966 19.5305 23.2043 19.4795 23.2013 19.4286C23.2013 19.1495 23.0312 19.0161 22.6823 19.0161H22.1185V20.4775H22.3306V19.8405H22.5911L22.5971 19.8482L23.0015 20.4775H23.2283L22.7932 19.8262L22.8223 19.8222ZM22.5771 19.6758H22.3312V19.1817H22.6428C22.8038 19.1817 22.9874 19.2078 22.9874 19.4165C22.9874 19.6565 22.8016 19.6758 22.5758 19.6758" fill="#0A66C2"/>
<path id="Path 2520" d="M17.2909 17.9908H14.284V13.3283C14.284 12.2165 14.2639 10.7852 12.7201 10.7852C11.154 10.7852 10.9144 11.9966 10.9144 13.2473V17.9905H7.90749V8.40244H10.7941V9.71275H10.8345C11.1234 9.22369 11.5408 8.82136 12.0424 8.54862C12.5439 8.27588 13.1108 8.14293 13.6826 8.16395C16.7302 8.16395 17.2921 10.1488 17.2921 12.731L17.2909 17.9908ZM4.51472 7.09182C4.16961 7.09188 3.83221 6.99061 3.54523 6.80082C3.25824 6.61102 3.03455 6.34122 2.90243 6.02554C2.7703 5.70986 2.73567 5.36247 2.80294 5.02731C2.87021 4.69215 3.03635 4.38426 3.28034 4.14259C3.52433 3.90091 3.83522 3.73631 4.17369 3.66958C4.51216 3.60285 4.86301 3.63701 5.18188 3.76772C5.50075 3.89843 5.77331 4.11983 5.96509 4.40393C6.15688 4.68802 6.25928 5.02204 6.25935 5.36376C6.25939 5.59065 6.21429 5.81533 6.12664 6.02497C6.03898 6.2346 5.9105 6.42509 5.74849 6.58556C5.58649 6.74602 5.39414 6.87332 5.18245 6.96018C4.97076 7.04705 4.74387 7.09178 4.51472 7.09182ZM6.01816 17.9908H3.00815V8.40244H6.01816V17.9908ZM18.7899 0.871486H1.49719C1.10469 0.8671 0.726477 1.01719 0.445682 1.28876C0.164887 1.56033 0.00448503 1.93118 -0.000305176 2.31981V19.5133C0.00432108 19.9021 0.164629 20.2732 0.445415 20.545C0.7262 20.8169 1.1045 20.9673 1.49719 20.9631H18.7899C19.1834 20.968 19.5628 20.8181 19.8447 20.5462C20.1265 20.2744 20.2879 19.9029 20.2934 19.5133V2.31857C20.2878 1.92917 20.1263 1.5579 19.8444 1.28633C19.5625 1.01477 19.1832 0.865109 18.7899 0.870245" fill="#0A66C2"/>
<path id="Path 2526" d="M22.6027 18.3652C22.2369 18.3687 21.8873 18.5155 21.6305 18.7735C21.3737 19.0315 21.2305 19.3797 21.2323 19.7419C21.234 20.1042 21.3806 20.451 21.6399 20.7065C21.8992 20.962 22.2502 21.1055 22.616 21.1055C22.9819 21.1055 23.3329 20.962 23.5922 20.7065C23.8515 20.451 23.9981 20.1042 23.9998 19.7419C24.0016 19.3797 23.8584 19.0315 23.6016 18.7735C23.3448 18.5155 22.9952 18.3687 22.6293 18.3652H22.6027ZM22.6027 20.9486C22.3628 20.9526 22.127 20.886 21.9253 20.7573C21.7236 20.6286 21.5649 20.4435 21.4694 20.2255C21.3739 20.0075 21.3458 19.7664 21.3887 19.5326C21.4316 19.2988 21.5435 19.0829 21.7104 18.9121C21.8772 18.7413 22.0915 18.6233 22.326 18.573C22.5606 18.5228 22.805 18.5426 23.0282 18.6299C23.2514 18.7171 23.4435 18.868 23.5801 19.0633C23.7167 19.2587 23.7918 19.4897 23.7958 19.7273C23.7958 19.7342 23.7958 19.7407 23.7958 19.7475C23.8025 20.0592 23.6839 20.3607 23.4661 20.5859C23.2483 20.811 22.9491 20.9413 22.6344 20.948H22.603" fill="#0A66C2"/>
</g>
<defs>
<clipPath id="clip0_821_6079">
<rect width="24" height="20.2597" fill="white" transform="translate(0 0.870117)"/>
</clipPath>
</defs>
</svg>
