<svg width="24" height="24" viewBox="0 0 24 24" fill="none" xmlns="http://www.w3.org/2000/svg">
<path d="M17.5894 3.6158V4.1158H18.0894H19.8842V5.91061V5.9107V6.4107H20.3842H23.5V6.97586H20.3842H19.8842V7.47586V9.4485V9.9485H20.3842H23.5V10.5137H20.3842H19.8842V11.0137V12.9863V13.4863H20.3842H23.5V14.0515H20.3842H19.8842V14.5515V16.5242V17.0242H20.3842H23.5V17.5894H20.3842H19.8842V18.0894V19.8842H18.0893H17.5893V20.3842V23.5H17.0241V20.3842V19.8842H16.5241H14.5515H14.0515V20.3842V23.5H13.4863V20.3842V19.8842H12.9863H11.0137H10.5137V20.3842V23.5H9.94845V20.3842V19.8842H9.44845H7.47581H6.97581V20.3842V23.5H6.41061V20.3842V19.8842H5.91061H4.1158V18.0893V17.5893H3.6158H0.5V17.0241H3.6158H4.1158V16.5241V14.5515V14.0515H3.6158H0.5V13.4863H3.6158H4.1158V12.9863V11.0137V10.5137H3.6158H0.5V9.94845H3.6158H4.1158V9.44845V7.47581V6.97581H3.6158H0.5V6.41061H3.6158H4.1158V5.91061V4.1158H5.91066H6.41066V3.6158V0.5H6.97586V3.6158V4.1158H7.47586H9.4485H9.9485V3.6158V0.5H10.5137V3.6158V4.1158H11.0137H12.9863H13.4863V3.6158V0.5H14.0515V3.6158V4.1158H14.5515H16.5242H17.0242V3.6158V0.5H17.5894V3.6158ZM13.6106 18.4125C15.0513 18.4125 16.2484 17.3552 16.4678 15.9755C17.4454 15.4556 18.1144 14.4262 18.1144 13.2407C18.1144 12.8084 18.0246 12.3871 17.8548 11.9997C18.0216 11.6195 18.1143 11.1996 18.1143 10.7593C18.1143 9.58331 17.4478 8.54873 16.4679 8.02575C16.2491 6.64541 15.0516 5.58752 13.6105 5.58752C13.0148 5.58752 12.4603 5.76878 11.9999 6.07822C11.5395 5.76878 10.9851 5.58752 10.3893 5.58752C8.9482 5.58752 7.75079 6.64542 7.53188 8.02576C6.55208 8.54873 5.88555 9.58329 5.88555 10.7593C5.88555 11.1997 5.97826 11.6195 6.14507 11.9997C5.97531 12.3871 5.88555 12.8084 5.88555 13.2407C5.88555 14.4261 6.55454 15.4555 7.53213 15.9755C7.75152 17.3552 8.94863 18.4125 10.3893 18.4125C10.9851 18.4125 11.5396 18.2312 12 17.9218C12.4603 18.2312 13.0148 18.4125 13.6106 18.4125Z" stroke="#FA2609"/>
<path d="M10.5667 9.43217L10.7173 9.03075V14.1377L10.0817 13.562L9.71107 13.2263L9.48161 13.4796V13.3555V11.7903V11.2903H8.98161C8.68936 11.2903 8.45073 11.0517 8.45073 10.7594C8.45073 10.7182 8.45558 10.6779 8.46479 10.639C8.7261 10.8732 9.03232 11.0623 9.37328 11.1902L9.84143 11.3658L10.017 10.8977L10.5667 9.43217ZM10.7173 8.48083V8.95461L10.2742 8.78841C10.1482 8.74116 10.0614 8.6161 10.0614 8.48083C10.0614 8.30043 10.209 8.15283 10.3894 8.15283C10.5698 8.15283 10.7173 8.30039 10.7173 8.48078V8.48083Z" stroke="#FA2609"/>
<path d="M14.5184 13.3555V13.4796L14.289 13.2262L13.9184 13.5619L13.2827 14.1377V9.03063L13.4333 9.43217L13.983 10.8977L14.1586 11.3658L14.6268 11.1902C14.9677 11.0623 15.274 10.8732 15.5353 10.639C15.5445 10.6779 15.5493 10.7182 15.5493 10.7594C15.5493 11.0517 15.3107 11.2903 15.0184 11.2903H14.5184V11.7903V13.3555ZM13.7259 8.78841L13.2827 8.95463V8.48083C13.2827 8.30041 13.4303 8.15283 13.6107 8.15283C13.7911 8.15283 13.9387 8.30041 13.9387 8.48083C13.9387 8.6161 13.8519 8.74116 13.7259 8.78841Z" stroke="#FA2609"/>
</svg>
