<svg width="19" height="22" viewBox="0 0 19 22" fill="none" xmlns="http://www.w3.org/2000/svg">
<path d="M17.2586 20.1367V20.1367C17.2588 20.3834 17.059 20.5834 16.8124 20.5836L1.31245 20.5946C1.06584 20.5948 0.865787 20.395 0.865587 20.1484C0.865587 20.1484 0.865587 20.1484 0.865587 20.1484L0.854981 1.81342V1.81336C0.854811 1.5667 1.05461 1.36665 1.3012 1.36648H1.30121L16.8011 1.35547C17.0477 1.3553 17.2478 1.55507 17.248 1.80164C17.248 1.80166 17.248 1.80167 17.248 1.80169L17.2586 20.1367Z" stroke="#FA2609"/>
<path d="M0.847652 1.35978L0.769978 1.28229L1.31258 20.7898C0.958688 20.7898 0.670864 20.502 0.670576 20.1484L0.659849 1.81338C0.659849 1.64223 0.726514 1.48092 0.847652 1.35978ZM0.847652 1.35978C0.968791 1.23835 1.12981 1.17138 1.30154 1.17138L0.847652 1.35978ZM0.493679 1.00665L0.726149 1.23856L0.493873 1.00645C0.493808 1.00652 0.493744 1.00658 0.493679 1.00665Z" stroke="#FA2609"/>
<path d="M12.4159 13.5855L12.4159 13.5855C12.2459 13.1768 12.0016 12.8095 11.6884 12.4926C11.3753 12.1757 11.011 11.927 10.6044 11.7521C10.1838 11.5712 9.73669 11.4779 9.27335 11.4752L9.27333 11.4752C8.80995 11.4724 8.36179 11.5602 7.93902 11.7361L7.93902 11.7361C7.53029 11.906 7.16301 12.1504 6.84612 12.4635C6.52923 12.7766 6.28051 13.1409 6.10559 13.5476L12.4159 13.5855ZM12.4159 13.5855C12.5917 14.0083 12.6796 14.4565 12.6768 14.9198V14.9198C12.674 15.3832 12.5808 15.8302 12.3999 16.2509C12.225 16.6575 11.9763 17.0218 11.6593 17.3349L11.6593 17.3349C11.3424 17.6481 10.9752 17.8924 10.5664 18.0624L10.5664 18.0624C10.1437 18.2382 9.69553 18.3261 9.23217 18.3233H9.23215C8.76879 18.3205 8.32172 18.2272 7.90109 18.0463L7.70356 18.5057L7.90109 18.0463C7.49445 17.8715 7.13014 17.6227 6.817 17.3058C6.50388 16.9889 6.25956 16.6217 6.08957 16.2129L6.08957 16.2129M12.4159 13.5855L6.08957 16.2129M6.08957 16.2129C5.91374 15.7902 5.82589 15.342 5.82868 14.8787C5.83147 14.4153 5.9247 13.9682 6.10558 13.5476L6.08957 16.2129ZM9.22916 18.8232L9.22916 18.8232L9.22916 18.8232Z" stroke="#FA2609"/>
<path d="M9.27085 11.8721L9.27085 11.8721C10.9397 11.8821 12.2897 13.2484 12.2796 14.9173C12.2696 16.5862 10.9033 17.9362 9.23445 17.9261C7.56557 17.9161 6.2156 16.5498 6.22564 14.8809C6.23568 13.2121 7.60197 11.8621 9.27085 11.8721Z" stroke="#FA2609" stroke-width="0.5"/>
<path d="M9.90682 13.3679C9.88471 13.3489 9.86171 13.3308 9.83787 13.3137C9.67047 13.1936 9.46996 13.1283 9.26393 13.1269L9.2634 13.1269C9.02173 13.1254 8.79421 13.2116 8.61715 13.3601L8.6212 12.6859L9.91088 12.6937L9.90682 13.3679Z" stroke="#FA2609"/>
<path d="M11.1099 15.3297L11.0412 15.421L11.1099 15.3297ZM11.1099 15.3297C11.0909 15.3154 11.0678 15.3073 11.044 15.3067L11.1099 15.3297ZM8.69782 15.8568L8.58253 15.7692L8.65647 15.7682L8.65721 15.7682L8.7336 15.7671L9.07985 15.762L9.19683 15.436L9.23796 15.3214L9.23812 15.321L9.25062 15.286L9.2627 15.3211L9.26273 15.3212L9.30232 15.4362L9.41516 15.764L9.76171 15.7732L9.83793 15.7753L9.83871 15.7753L9.91267 15.7772L9.79634 15.8633L9.51429 16.0723L9.61498 16.4085L9.65781 16.5516L9.52715 16.4604L9.24473 16.2634L8.95996 16.457L8.82797 16.5467L8.87256 16.404L8.97722 16.0691L8.69782 15.8568ZM7.45824 15.3995L7.45819 15.3995L7.45824 15.3995ZM7.4584 15.3995L7.45849 15.3996L7.4584 15.3995ZM14.7376 4.59627C14.7376 4.60404 14.7351 4.61336 14.7245 4.62366C14.7136 4.63423 14.6966 4.64274 14.6738 4.64274H3.44026C3.41746 4.64274 3.4005 4.63423 3.38959 4.62365C3.37895 4.61335 3.37646 4.60403 3.37646 4.59627C3.37646 4.5885 3.37896 4.57918 3.38959 4.56888C3.40049 4.55832 3.41744 4.5498 3.44026 4.5498H14.6738C14.6966 4.5498 14.7136 4.55831 14.7245 4.56889C14.7351 4.5792 14.7376 4.58852 14.7376 4.59627ZM14.7376 7.68797C14.7376 7.69574 14.7351 7.70505 14.7245 7.71535C14.7136 7.72592 14.6966 7.73443 14.6738 7.73443H3.44026C3.41746 7.73443 3.4005 7.72593 3.38959 7.71535C3.37895 7.70504 3.37646 7.69572 3.37646 7.68797C3.37646 7.6802 3.37896 7.67088 3.38959 7.66058C3.40049 7.65001 3.41744 7.6415 3.44026 7.6415H14.6738C14.6966 7.6415 14.7136 7.65001 14.7245 7.66058C14.7351 7.67089 14.7376 7.68021 14.7376 7.68797Z" stroke="#FA2609"/>
</svg>
