<svg width="20" height="17" viewBox="0 0 20 17" fill="none" xmlns="http://www.w3.org/2000/svg">
<path d="M3.99988 14.9142C2.04366 14.5171 0.571289 12.7876 0.571289 10.7142C0.571289 8.6408 2.04366 6.9113 3.99988 6.5142C3.99987 6.5095 3.99986 6.5047 3.99986 6.5C3.99986 3.46243 6.4623 1 9.4999 1C12.5374 1 14.9999 3.46243 14.9999 6.5C14.9999 6.6685 14.9923 6.8353 14.9774 7H14.9999C17.209 7 18.9999 8.7909 18.9999 11C18.9999 12.8638 17.7251 14.4299 15.9999 14.874" stroke="#FA2609" stroke-linecap="round" stroke-linejoin="round"/>
<path d="M10 10.75C10.641 10.75 11.2007 11.1019 11.5002 11.6249M10 10.75C9.3589 10.75 8.7992 11.1019 8.4997 11.6249M10 10.75V9M11.5002 11.6249L13 10.75M11.5002 11.6249C11.6477 11.8823 11.732 12.1812 11.732 12.5C11.732 12.8358 11.6458 13.1298 11.5003 13.3752M8.4997 11.6249L7 10.75M8.4997 11.6249C8.3523 11.8823 8.2679 12.1812 8.2679 12.5C8.2679 12.8188 8.3523 13.1177 8.4997 13.3751M10 16V14.2209M10 14.2209C9.4229 14.2326 8.8408 13.9707 8.4997 13.3751M10 14.2209C10.5958 14.2088 11.1862 13.9049 11.5003 13.3752M7 14.25L8.4997 13.3751M13 14.25L11.5003 13.3752" stroke="#FA2609" stroke-linecap="round"/>
</svg>
