<svg width="21" height="14" viewBox="0 0 21 14" fill="none" xmlns="http://www.w3.org/2000/svg">
<path d="M2.01318 0.25C1.17693 0.25 0.5 0.926934 0.5 1.76318V12.2368C0.5 13.0731 1.17693 13.75 2.01318 13.75H19.2368C20.0731 13.75 20.75 13.0731 20.75 12.2368V1.76318C20.75 0.926934 20.0731 0.25 19.2368 0.25H2.01318ZM2 1.75H19.2368H19.25V12.25H2V1.75ZM3.5 3.25V4.75H11V3.25H3.5ZM3.5 6.25V7.75H5V6.25H3.5ZM6.5 6.25V7.75H8V6.25H6.5ZM9.5 6.25V7.75H11V6.25H9.5ZM3.5 9.25V10.75H11V9.25H3.5ZM12.5 9.25V10.75H17.75V9.25H12.5Z" fill="#FA2609"/>
</svg>
