<svg width="14" height="20" viewBox="0 0 14 20" fill="none" xmlns="http://www.w3.org/2000/svg">
<path d="M7 6.25C8.51878 6.25 9.75 5.01878 9.75 3.5C9.75 1.98122 8.51878 0.75 7 0.75C5.48122 0.75 4.25 1.98122 4.25 3.5C4.25 5.01878 5.48122 6.25 7 6.25Z" stroke="#FA2609"/>
<path d="M8.43735 9.31235L6.99985 10.7499L5.56235 9.31235C4.42323 8.17323 2.57648 8.17323 1.43735 9.31235C0.298227 10.4515 0.298227 12.2982 1.43735 13.4374L6.99985 18.9999L12.5624 13.4374C13.7015 12.2982 13.7015 10.4515 12.5624 9.31235C11.4232 8.17323 9.57648 8.17323 8.43735 9.31235Z" stroke="#FA2609" stroke-linejoin="round"/>
</svg>
