<svg width="20" height="22" viewBox="0 0 20 22" fill="none" xmlns="http://www.w3.org/2000/svg">
<path d="M-0.000488281 18.8398C-0.000488281 20.4228 1.28764 21.7109 2.87061 21.7109H17.129C18.712 21.7109 20.0001 20.4233 20.0001 18.8398V8.14154C20.0001 6.55857 18.712 5.27045 17.129 5.27045H11.8106L12.8798 4.20123C13.1433 4.32451 13.4367 4.39389 13.7465 4.39389C14.8781 4.39389 15.7992 3.47326 15.7992 2.34123C15.7992 1.20967 14.8786 0.288574 13.7465 0.288574C12.6145 0.288574 11.6939 1.2092 11.6939 2.34123C11.6939 2.61451 11.7478 2.87514 11.8453 3.1142L10.148 4.81154L8.45061 3.1142C8.54811 2.87561 8.60201 2.61451 8.60201 2.34123C8.60201 1.20967 7.68139 0.288574 6.54936 0.288574C5.41732 0.288574 4.4967 1.2092 4.4967 2.34123C4.4967 3.47279 5.41732 4.39389 6.54936 4.39389C6.85873 4.39389 7.15264 4.32451 7.41607 4.20123L8.48529 5.27045H2.87061C1.28764 5.27045 -0.000488281 6.55811 -0.000488281 8.14154V18.8398ZM13.7461 1.78904C14.0508 1.78904 14.2987 2.03701 14.2987 2.3417C14.2987 2.64639 14.0508 2.89436 13.7461 2.89436C13.4414 2.89436 13.1934 2.64639 13.1934 2.3417C13.1934 2.03701 13.4414 1.78904 13.7461 1.78904ZM5.99764 2.3417C5.99764 2.03701 6.24561 1.78904 6.55029 1.78904C6.85498 1.78904 7.10295 2.03701 7.10295 2.3417C7.10295 2.64639 6.85498 2.89436 6.55029 2.89436C6.24561 2.89436 5.99764 2.64639 5.99764 2.3417ZM1.49951 8.14154C1.49951 7.38545 2.11451 6.77045 2.87061 6.77045H17.129C17.8851 6.77045 18.5001 7.38545 18.5001 8.14154V18.8398C18.5001 19.5959 17.8851 20.2109 17.129 20.2109H2.87061C2.11451 20.2109 1.49951 19.5959 1.49951 18.8398V8.14154Z" fill="#FA2609"/>
<path d="M4.23287 19.1842H11.8543C12.7787 19.1842 13.531 18.4323 13.531 17.5075V9.4731C13.531 8.54873 12.7791 7.79639 11.8543 7.79639H4.23287C3.3085 7.79639 2.55615 8.54826 2.55615 9.4731V17.5075C2.55615 18.4323 3.3085 19.1842 4.23287 19.1842ZM4.05615 9.47357C4.05615 9.37607 4.13537 9.29686 4.23287 9.29686H11.8543C11.9518 9.29686 12.031 9.37607 12.031 9.47357V17.5079C12.031 17.6054 11.9518 17.6847 11.8543 17.6847H4.23287C4.13537 17.6847 4.05615 17.6054 4.05615 17.5079V9.47357Z" fill="#FA2609"/>
<path d="M16.0383 13.1274C17.1853 13.1274 18.1191 12.1941 18.1191 11.0466C18.1191 9.89959 17.1858 8.96631 16.0383 8.96631C14.8908 8.96631 13.9575 9.89959 13.9575 11.0466C13.9575 12.1941 14.8913 13.1274 16.0383 13.1274ZM16.0383 10.4663C16.3585 10.4663 16.6191 10.7269 16.6191 11.0466C16.6191 11.3663 16.3585 11.6274 16.0383 11.6274C15.7181 11.6274 15.4575 11.3668 15.4575 11.0466C15.4575 10.7265 15.7181 10.4663 16.0383 10.4663Z" fill="#FA2609"/>
<path d="M16.0383 18.0151C17.1853 18.0151 18.1191 17.0818 18.1191 15.9348C18.1191 14.7878 17.1858 13.854 16.0383 13.854C14.8908 13.854 13.9575 14.7873 13.9575 15.9348C13.9575 17.0818 14.8913 18.0151 16.0383 18.0151ZM16.0383 15.354C16.3585 15.354 16.6191 15.6146 16.6191 15.9348C16.6191 16.2549 16.3585 16.5151 16.0383 16.5151C15.7181 16.5151 15.4575 16.2545 15.4575 15.9348C15.4575 15.6151 15.7181 15.354 16.0383 15.354Z" fill="#FA2609"/>
</svg>
