<svg width="24" height="24" viewBox="0 0 24 24" fill="none" xmlns="http://www.w3.org/2000/svg">
<g clip-path="url(#clip0_1319_2820)">
<path d="M16.1678 1.63424C15.9742 1.40676 16.0018 1.06548 16.2293 0.871952L17.1029 0.128831C17.3304 -0.0645797 17.6717 -0.0371213 17.8652 0.190357C18.0587 0.417836 18.0312 0.759113 17.8037 0.952644L16.9301 1.69576C16.8283 1.78229 16.7038 1.82465 16.58 1.82465C16.4269 1.82465 16.2747 1.75999 16.1678 1.63424ZM17.7404 3.92224C17.4416 3.922 17.1981 4.16072 17.1961 4.45933C17.194 4.75795 17.4345 5.00358 17.7331 5.00562L18.8801 5.01523C18.8814 5.01523 18.8826 5.01523 18.8838 5.01523C19.1808 5.01523 19.4225 4.77363 19.4245 4.47622C19.4265 4.1776 19.186 3.93288 18.8874 3.93089L17.7404 3.92224ZM17.0547 2.91115C17.1347 3.13075 17.342 3.26709 17.5629 3.26709C17.6243 3.26709 17.6868 3.25657 17.7479 3.23434L19.6481 2.54271C19.9287 2.44057 20.0734 2.13029 19.9713 1.84964C19.8691 1.56893 19.5587 1.4243 19.2782 1.52645L17.378 2.21808C17.0973 2.32016 16.9525 2.63049 17.0547 2.91115ZM13.175 20.0255C13.1192 20.315 12.9854 20.6529 12.7982 20.9771C12.2794 21.8758 11.6506 22.2689 11.1487 22.0126L10.3551 21.658C10.0513 21.8875 9.72297 22.0772 9.37352 22.2251L9.28406 23.0866C9.25744 23.6511 8.60289 24 7.56235 24C6.52446 24 5.86954 23.6519 5.8407 23.0889L5.75099 22.2251C5.4016 22.0773 5.07324 21.8875 4.76946 21.658L3.97809 22.0116C3.47603 22.2707 2.84659 21.8781 2.32638 20.9771C1.80713 20.0778 1.78135 19.3363 2.25512 19.0302L2.9551 18.523C2.93167 18.3331 2.91983 18.1412 2.91983 17.9494C2.91983 17.7605 2.93131 17.5716 2.95402 17.3846L2.25392 16.8774C1.78142 16.5707 1.80761 15.8298 2.32638 14.9313C2.84659 14.0302 3.47603 13.6378 3.97815 13.8968L4.76141 14.2468C5.06772 14.0143 5.39914 13.8224 5.75213 13.6732L5.8407 12.8189C5.86996 12.2563 6.52476 11.9084 7.56235 11.9084C8.60283 11.9084 9.25732 12.2573 9.28406 12.8217L9.3725 13.6731C9.72544 13.8224 10.0569 14.0142 10.3632 14.2467L11.1483 13.8959C11.6503 13.6392 12.2794 14.0322 12.7983 14.9313C12.9854 15.2554 13.1193 15.5933 13.1751 15.8828C13.2918 16.4874 13.0481 16.7617 12.8694 16.8781L12.1706 17.3844C12.1933 17.5716 12.2048 17.7605 12.2048 17.9494C12.2048 18.1412 12.193 18.3332 12.1695 18.5232L12.8695 19.0304C13.0481 19.1467 13.2917 19.4209 13.175 20.0255ZM11.267 16.7033L12.1139 16.0897C12.0891 15.9631 12.017 15.741 11.8616 15.4719C11.7062 15.2026 11.5498 15.029 11.4526 14.9443L10.4996 15.3701C10.3059 15.4567 10.0796 15.422 9.92071 15.2814C9.56087 14.963 9.14911 14.7246 8.69686 14.5728C8.496 14.5053 8.353 14.3268 8.33113 14.116L8.22358 13.0801C8.10154 13.0383 7.8731 12.9897 7.56229 12.9897C7.25135 12.9897 7.02285 13.0383 6.90082 13.0802L6.79345 14.1159C6.77158 14.3267 6.62864 14.5053 6.42778 14.5728C5.97547 14.7247 5.56365 14.9632 5.20381 15.2815C5.04494 15.4221 4.81855 15.4567 4.6249 15.3702L3.67196 14.9444C3.57469 15.0292 3.41841 15.2027 3.26303 15.472C3.10753 15.7412 3.03537 15.9634 3.01068 16.09L3.85756 16.7035C4.0288 16.8276 4.11202 17.0401 4.07056 17.2475C4.02466 17.4769 4.0014 17.7131 4.0014 17.9493C4.0014 18.188 4.0252 18.4267 4.072 18.6586C4.11394 18.8662 4.03078 19.0792 3.85918 19.2036L3.01068 19.8183C3.03543 19.9449 3.10759 20.1671 3.26303 20.4364C3.41841 20.7056 3.57475 20.8792 3.67196 20.9639L4.63223 20.5348C4.82546 20.4485 5.05131 20.4828 5.21018 20.6227C5.5684 20.9381 5.97775 21.1746 6.42688 21.3256C6.62768 21.3931 6.77056 21.5716 6.79243 21.7823L6.90088 22.8281C7.02291 22.87 7.25135 22.9186 7.56235 22.9186C7.87316 22.9186 8.1016 22.87 8.22358 22.8281L8.33221 21.7822C8.35408 21.5715 8.49696 21.393 8.69776 21.3255C9.14701 21.1744 9.5563 20.938 9.9144 20.6226C10.0733 20.4827 10.2992 20.4484 10.4924 20.5348L11.4526 20.9639C11.5498 20.8792 11.7062 20.7057 11.8616 20.4364C12.017 20.1672 12.0892 19.945 12.114 19.8184L11.2655 19.2037C11.0939 19.0794 11.0108 18.8664 11.0526 18.6588C11.0995 18.4267 11.1232 18.188 11.1232 17.9493C11.1232 17.7132 11.1 17.477 11.0541 17.2473C11.0126 17.0399 11.0958 16.8274 11.267 16.7033ZM9.61975 17.9487C9.61975 19.0832 8.6968 20.0062 7.56229 20.0062C6.42778 20.0062 5.50477 19.0832 5.50477 17.9487C5.50477 16.8143 6.42778 15.8912 7.56229 15.8912C8.6968 15.8913 9.61975 16.8143 9.61975 17.9487ZM8.53824 17.9487C8.53824 17.4106 8.1004 16.9728 7.56229 16.9728C7.02412 16.9728 6.58628 17.4106 6.58628 17.9487C6.58628 18.4869 7.02412 18.9246 7.56229 18.9246C8.1004 18.9247 8.53824 18.4869 8.53824 17.9487ZM22.0098 21.2352L20.2739 16.4937C20.2655 16.4707 20.2556 16.4486 20.2445 16.4274C20.0756 16.0399 19.7175 15.7711 19.2951 15.7196C19.0316 15.687 18.7729 15.6727 18.5227 15.6588C18.3998 15.652 18.2769 15.6453 18.1536 15.6362C17.7306 15.6053 17.3652 15.5488 17.0364 15.4634C16.3585 15.2875 15.9137 15.0361 15.594 14.6483C15.0224 13.9552 14.1207 11.4922 14.1096 10.5939C14.1033 10.0913 14.2808 9.61209 14.6847 9.04021C14.8861 8.75511 15.1147 8.49194 15.4263 8.18677C15.5136 8.10127 15.6026 8.01734 15.6914 7.93346C15.8536 7.78036 16.0211 7.62222 16.1824 7.452C16.5374 7.12256 16.659 6.6196 16.4917 6.16302L14.7559 1.42142C14.5288 0.801473 13.8396 0.481885 13.2197 0.708763L12.0196 1.14798C11.6973 1.26532 11.5356 1.3242 11.1626 1.55156C8.9995 2.87149 7.81344 5.4324 7.82293 8.76256C7.82468 9.3595 7.86529 9.98125 7.94358 10.6105C7.98047 10.9069 8.25061 11.1173 8.54695 11.0804C8.84334 11.0435 9.0537 10.7733 9.01681 10.477C8.94386 9.89082 8.90607 9.31293 8.90445 8.75943C8.89604 5.82204 9.89806 3.5901 11.7257 2.47488C12.0067 2.30364 12.0878 2.27407 12.3896 2.16424L13.5915 1.72436C13.6515 1.70237 13.7183 1.73332 13.7403 1.79328L15.4761 6.53494C15.4961 6.58968 15.4714 6.63732 15.4442 6.66148C15.4321 6.67223 15.4205 6.68353 15.4094 6.6953C15.2656 6.8481 15.1118 6.99326 14.949 7.14702C14.8553 7.23546 14.7616 7.3239 14.6695 7.41409C14.3144 7.76198 14.0385 8.08042 13.8012 8.41629C13.2647 9.17594 13.019 9.87213 13.0281 10.6072C13.0423 11.7549 14.0293 14.451 14.7595 15.3364C15.227 15.9035 15.8642 16.2765 16.7644 16.5102C17.1572 16.6122 17.5858 16.6792 18.0746 16.7149C18.2041 16.7244 18.3335 16.7316 18.4627 16.7388C18.7057 16.7522 18.9351 16.7649 19.1632 16.7932C19.2138 16.7994 19.2443 16.8354 19.2559 16.8671C19.2621 16.8839 19.269 16.9002 19.2767 16.916L20.9941 21.6071C21.0161 21.6671 20.9851 21.7338 20.9251 21.7558L19.8336 22.1554C19.4127 22.3095 19.2857 22.3561 18.8577 22.409C17.3846 22.5913 15.9167 22.1332 14.4952 21.0471C14.2579 20.8658 13.9186 20.9111 13.7372 21.1484C13.5559 21.3858 13.6012 21.7251 13.8386 21.9064C15.2374 22.9753 16.7469 23.5283 18.2455 23.5283C18.4944 23.5283 18.7429 23.5131 18.9905 23.4824C19.5202 23.4168 19.733 23.344 20.2054 23.171L21.297 22.7714C21.917 22.5442 22.2368 21.8551 22.0098 21.2352Z" fill="#FA2609"/>
</g>
<defs>
<clipPath id="clip0_1319_2820">
<rect width="24" height="24" fill="white"/>
</clipPath>
</defs>
</svg>
