<svg width="24" height="24" viewBox="0 0 24 24" fill="none" xmlns="http://www.w3.org/2000/svg">
<g clip-path="url(#clip0_589_1806)">
<path d="M22.5 22.5H18V21H21V3H18V1.5H22.5V22.5Z" fill="#FA2609"/>
<path d="M18.6823 14.6923C18.5713 14.156 18.3318 13.6547 17.9843 13.2314C17.6368 12.8082 17.1917 12.4756 16.6873 12.2623C16.2714 12.089 15.8254 11.9998 15.3748 11.9998C14.9243 11.9998 14.4782 12.089 14.0623 12.2623C13.8961 12.3379 13.7356 12.4256 13.5823 12.5248L11.4748 10.4173C11.9213 9.71062 12.0916 8.86412 11.9531 8.03973C11.8146 7.21535 11.3771 6.47096 10.7242 5.94895C10.0713 5.42694 9.24884 5.16396 8.41419 5.21031C7.57955 5.25666 6.79128 5.60909 6.20019 6.20019C5.60909 6.79128 5.25666 7.57955 5.21031 8.41419C5.16396 9.24884 5.42694 10.0713 5.94895 10.7242C6.47096 11.3771 7.21535 11.8146 8.03973 11.9531C8.86412 12.0916 9.71062 11.9213 10.4173 11.4748L12.5248 13.5823C12.0574 14.3169 11.8934 15.2042 12.0673 16.0573C12.1783 16.5936 12.4178 17.0949 12.7653 17.5182C13.1128 17.9415 13.5579 18.274 14.0623 18.4873C14.4782 18.6606 14.9243 18.7498 15.3748 18.7498C15.8254 18.7498 16.2714 18.6606 16.6873 18.4873C17.1917 18.274 17.6368 17.9415 17.9843 17.5182C18.3318 17.0949 18.5713 16.5936 18.6823 16.0573C18.7722 15.6068 18.7722 15.1429 18.6823 14.6923ZM8.62482 10.4998C8.25398 10.4998 7.89147 10.3899 7.58312 10.1838C7.27478 9.9778 7.03446 9.68496 6.89254 9.34235C6.75063 8.99974 6.7135 8.62274 6.78585 8.25902C6.85819 7.89531 7.03677 7.56122 7.29899 7.29899C7.56122 7.03677 7.89531 6.85819 8.25902 6.78585C8.62274 6.7135 8.99974 6.75063 9.34235 6.89254C9.68496 7.03446 9.9778 7.27478 10.1838 7.58312C10.3899 7.89147 10.4998 8.25398 10.4998 8.62482C10.4998 9.1221 10.3023 9.59901 9.95064 9.95064C9.59901 10.3023 9.1221 10.4998 8.62482 10.4998Z" fill="#FA2609"/>
<path d="M6 22.5H1.5V1.5H6V3H3V21H6V22.5Z" fill="#FA2609"/>
</g>
<defs>
<clipPath id="clip0_589_1806">
<rect width="24" height="24" fill="white"/>
</clipPath>
</defs>
</svg>
