<svg width="24" height="24" viewBox="0 0 24 24" fill="none" xmlns="http://www.w3.org/2000/svg">
<g clip-path="url(#clip0_589_1835)">
<path fill-rule="evenodd" clip-rule="evenodd" d="M17.1804 12.8262C18.1471 12.8288 19.0951 13.0679 19.9248 13.5183C20.7544 13.9688 21.4351 14.6139 21.895 15.3859C22.3549 16.1578 22.5772 17.0281 22.5384 17.905C22.4995 18.7819 22.2011 19.6332 21.6744 20.3691L24 22.6699L22.3951 24L20.1535 21.7617C19.455 22.1878 18.6561 22.4592 17.821 22.554C16.986 22.6488 16.1381 22.5644 15.3456 22.3075C14.553 22.0506 13.8379 21.6285 13.2577 21.0751C12.6776 20.5216 12.2486 19.8523 12.0053 19.1209C11.7619 18.3895 11.711 17.6165 11.8566 16.864C12.0022 16.1115 12.3403 15.4005 12.8437 14.7883C13.3471 14.176 14.0017 13.6795 14.7549 13.3387C15.5081 12.998 16.3388 12.8224 17.1804 12.8262ZM4.08749 12.877C3.93284 12.8694 3.78763 12.807 3.68305 12.7033C3.57847 12.5996 3.52285 12.4628 3.52815 12.3223C3.52439 12.2524 3.53592 12.1826 3.56206 12.1168C3.5882 12.051 3.62843 11.9906 3.68044 11.9391C3.73245 11.8875 3.7952 11.8458 3.86506 11.8163C3.93493 11.7869 4.01053 11.7703 4.08749 11.7676H11.318C11.4725 11.7757 11.6174 11.8381 11.7218 11.9417C11.8263 12.0453 11.8821 12.1819 11.8774 12.3223C11.8811 12.3921 11.8696 12.4619 11.8435 12.5277C11.8173 12.5935 11.7771 12.6539 11.7251 12.7055C11.6731 12.7571 11.6103 12.7988 11.5405 12.8282C11.4706 12.8576 11.395 12.8742 11.318 12.877H4.08749ZM17.9333 3.37305H19.9383C20.3174 3.37458 20.6806 3.51186 20.9488 3.75505C21.2171 3.99824 21.3688 4.3277 21.3711 4.67188V10.707C21.3281 11.1152 20.2288 11.1191 20.1341 10.707V4.67188C20.1345 4.64765 20.1296 4.62359 20.1196 4.60112C20.1096 4.57864 20.0948 4.55821 20.076 4.54102C20.0572 4.52376 20.0347 4.51018 20.01 4.50111C19.9852 4.49204 19.9586 4.48767 19.9319 4.48828H17.9247V10.707C17.8193 11.0762 16.9028 11.1328 16.6963 10.707V1.30078C16.6951 1.25279 16.6744 1.2069 16.6382 1.17188C16.6193 1.1548 16.5968 1.14134 16.572 1.13228C16.5473 1.12323 16.5208 1.11876 16.4941 1.11914H1.43492C1.40824 1.11876 1.38174 1.12323 1.35698 1.13228C1.33223 1.14134 1.30972 1.1548 1.29079 1.17188C1.25364 1.2079 1.23289 1.25534 1.2327 1.30469V16.7559C1.23289 16.8052 1.25364 16.8527 1.29079 16.8887C1.30972 16.9057 1.33223 16.9192 1.35698 16.9283C1.38174 16.9373 1.40824 16.9418 1.43492 16.9414H9.62496C10.2445 16.998 10.2703 17.9707 9.62496 18.0566H4.65973V20.1289C4.65915 20.1532 4.66398 20.1773 4.67393 20.1998C4.68389 20.2223 4.69876 20.2428 4.71766 20.2599C4.73655 20.2771 4.75908 20.2906 4.78388 20.2996C4.80868 20.3086 4.83524 20.313 4.86196 20.3125H9.62496C10.0746 20.3594 10.2187 21.2891 9.62496 21.4277H4.87056C4.68178 21.4275 4.49497 21.3929 4.32126 21.3257C4.14755 21.2586 3.9905 21.1605 3.85945 21.0371C3.72444 20.9175 3.61689 20.7748 3.54304 20.6173C3.46918 20.4597 3.43049 20.2904 3.42919 20.1191V18.0566H1.43277C1.0533 18.0551 0.689855 17.9176 0.421525 17.6739C0.153195 17.4303 0.00169788 17.1004 0 16.7559L0 1.30078C0.00136372 1.13071 0.0401248 0.962593 0.114009 0.806301C0.187894 0.650009 0.295414 0.508687 0.430262 0.390625C0.561832 0.267877 0.718989 0.170125 0.89258 0.103061C1.06617 0.0359976 1.25273 0.000963636 1.44138 0L16.5005 0C16.6893 0.000195108 16.8761 0.0348801 17.0498 0.101989C17.2235 0.169098 17.3806 0.267259 17.5117 0.390625C17.6465 0.510338 17.7539 0.653069 17.8277 0.810609C17.9016 0.968149 17.9404 1.13739 17.9419 1.30859V3.37305H17.9333ZM4.07243 5.16406C3.91797 5.15599 3.77309 5.0935 3.66862 4.9899C3.56415 4.8863 3.50835 4.74977 3.51309 4.60938C3.50933 4.53953 3.52086 4.46971 3.547 4.40393C3.57314 4.33816 3.61337 4.27774 3.66538 4.22616C3.71739 4.17459 3.78014 4.13288 3.85001 4.10345C3.91987 4.07402 3.99547 4.05744 4.07243 4.05469H13.7383C13.8931 4.06178 14.0386 4.12397 14.1433 4.2278C14.248 4.33162 14.3035 4.46871 14.2976 4.60938C14.3014 4.67922 14.2898 4.74904 14.2637 4.81482C14.2375 4.88059 14.1973 4.94101 14.1453 4.99259C14.0933 5.04416 14.0305 5.08587 13.9607 5.1153C13.8908 5.14474 13.8152 5.16131 13.7383 5.16406H4.07243ZM4.07243 9.01953C3.91816 9.01195 3.77328 8.94988 3.66876 8.84659C3.56424 8.7433 3.50837 8.60699 3.51309 8.4668C3.50933 8.39695 3.52086 8.32713 3.547 8.26136C3.57314 8.19558 3.61337 8.13516 3.66538 8.08359C3.71739 8.03201 3.78014 7.9903 3.85001 7.96087C3.91987 7.93144 3.99547 7.91486 4.07243 7.91211H13.7383C13.8931 7.9192 14.0386 7.9814 14.1433 8.08522C14.248 8.18904 14.3035 8.32614 14.2976 8.4668C14.3014 8.53654 14.2898 8.60627 14.2636 8.67193C14.2375 8.73759 14.1972 8.79788 14.1452 8.8493C14.0931 8.90072 14.0304 8.94225 13.9605 8.97147C13.8907 9.00069 13.8151 9.01703 13.7383 9.01953H4.07243ZM16.266 17.4375C16.1778 17.3105 16.01 17.1348 16.01 16.9844C16.0125 16.9354 16.0311 16.8883 16.0633 16.849C16.0955 16.8097 16.1399 16.78 16.1908 16.7637C16.1908 16.6367 16.1757 16.5078 16.1757 16.373C16.1757 16.2969 16.1757 16.2207 16.1757 16.1465C16.1798 16.1072 16.1892 16.0685 16.2037 16.0312C16.2684 15.8389 16.4105 15.6758 16.6017 15.5742C16.6689 15.5352 16.7412 15.5037 16.8168 15.4805C16.9523 15.4355 16.8878 15.2383 17.0319 15.2363C17.4647 15.2798 17.8694 15.4522 18.1829 15.7266C18.3248 15.86 18.4063 16.0371 18.4109 16.2227L18.398 16.7793C18.4311 16.7857 18.4619 16.7996 18.4875 16.8198C18.5131 16.8399 18.5326 16.8657 18.5443 16.8945C18.5916 17.0684 18.3915 17.2852 18.299 17.4277C18.2065 17.5703 17.8838 17.9082 17.8838 17.9121C17.8855 17.9357 17.8953 17.9583 17.9118 17.9766C18.4238 18.6133 19.9233 18.1211 19.9233 19.3887H14.6289C14.6289 18.1211 16.1348 18.6074 16.6404 17.9766C16.6589 17.9578 16.6715 17.9349 16.6769 17.9102C16.6769 17.9102 16.2983 17.4805 16.2639 17.4316L16.266 17.4375ZM17.1847 13.8437C18.0295 13.8445 18.8551 14.0727 19.5572 14.4994C20.2592 14.9261 20.8061 15.5321 21.1289 16.241C21.4516 16.9498 21.5356 17.7296 21.3702 18.4818C21.2049 19.234 20.7976 19.9248 20.1999 20.4668C19.6023 21.0089 18.841 21.378 18.0123 21.5273C17.1836 21.6767 16.3248 21.5996 15.5443 21.3059C14.7639 21.0122 14.0969 20.5151 13.6276 19.8773C13.1583 19.2395 12.9079 18.4897 12.9079 17.7227C12.9079 17.2129 13.0185 16.7082 13.2335 16.2374C13.4485 15.7665 13.7636 15.3387 14.1608 14.9785C14.558 14.6182 15.0295 14.3326 15.5483 14.1379C16.0672 13.9432 16.6232 13.8432 17.1847 13.8437Z" fill="#FA2609"/>
</g>
<defs>
<clipPath id="clip0_589_1835">
<rect width="24" height="24" fill="white"/>
</clipPath>
</defs>
</svg>
