<svg width="24" height="24" viewBox="0 0 24 24" fill="none" xmlns="http://www.w3.org/2000/svg">
<g clip-path="url(#clip0_589_1786)">
<path d="M17.25 12.0073C16.12 12.0083 15.0206 12.374 14.115 13.0498L10.95 9.88477C11.6338 8.98579 12.0028 7.88676 12 6.75727C12.0029 5.57445 11.6064 4.42529 10.8746 3.49602C10.1428 2.56675 9.11862 1.91183 7.96807 1.6374C6.81752 1.36297 5.60801 1.48511 4.53556 1.98403C3.4631 2.48294 2.59055 3.32939 2.05931 4.38621C1.52807 5.44302 1.36926 6.64827 1.60864 7.80662C1.84801 8.96497 2.47154 10.0085 3.37816 10.7682C4.28479 11.5279 5.42138 11.9592 6.60375 11.9921C7.78611 12.0251 8.94496 11.6578 9.89249 10.9498L13.05 14.1148C12.3422 15.062 11.9749 16.2205 12.0076 17.4026C12.0403 18.5846 12.4712 19.721 13.2303 20.6277C13.9895 21.5343 15.0325 22.1581 16.1904 22.3981C17.3483 22.638 18.5533 22.48 19.6102 21.9497C20.6671 21.4193 21.514 20.5477 22.0137 19.476C22.5135 18.4043 22.6368 17.1952 22.3637 16.0447C22.0905 14.8942 21.437 13.8695 20.5089 13.1368C19.5808 12.404 18.4325 12.006 17.25 12.0073ZM2.99999 6.75727C2.99999 6.01559 3.21992 5.29057 3.63198 4.67388C4.04403 4.0572 4.6297 3.57655 5.31493 3.29272C6.00015 3.00889 6.75415 2.93463 7.48158 3.07933C8.20901 3.22402 8.87719 3.58117 9.40164 4.10562C9.92609 4.63007 10.2832 5.29825 10.4279 6.02568C10.5726 6.75311 10.4984 7.50711 10.2145 8.19233C9.93071 8.87756 9.45006 9.46323 8.83338 9.87528C8.21669 10.2873 7.49167 10.5073 6.74999 10.5073C5.75543 10.5073 4.8016 10.1122 4.09834 9.40892C3.39508 8.70566 2.99999 7.75183 2.99999 6.75727Z" fill="#FA2609"/>
</g>
<defs>
<clipPath id="clip0_589_1786">
<rect width="24" height="24" fill="white"/>
</clipPath>
</defs>
</svg>
