<svg width="24" height="24" viewBox="0 0 24 24" fill="none" xmlns="http://www.w3.org/2000/svg">
<g clip-path="url(#clip0_589_1813)">
<path d="M22.5 13.4998C22.5015 12.7488 22.315 12.0094 21.9576 11.3489C21.6001 10.6884 21.083 10.1279 20.4535 9.71839C19.8239 9.30893 19.1019 9.06354 18.3532 9.0046C17.6045 8.94566 16.8529 9.07504 16.167 9.38095C15.4812 9.68685 14.8827 10.1596 14.4263 10.756C13.9699 11.3524 13.67 12.0536 13.554 12.7956C13.438 13.5375 13.5095 14.2968 13.7621 15.0041C14.0147 15.7113 14.4402 16.3441 15 16.8448V22.4998L18 21.0804L21 22.4998V16.8448C21.4715 16.4244 21.8489 15.909 22.1074 15.3326C22.3659 14.7561 22.4997 14.1316 22.5 13.4998ZM19.5 20.1298L18 19.4198L16.5 20.1298V17.7373C17.4693 18.0874 18.5306 18.0874 19.5 17.7373V20.1298ZM18 16.4998C17.4066 16.4998 16.8266 16.3239 16.3333 15.9942C15.8399 15.6646 15.4554 15.196 15.2284 14.6479C15.0013 14.0997 14.9419 13.4965 15.0576 12.9145C15.1734 12.3326 15.4591 11.7981 15.8787 11.3785C16.2982 10.9589 16.8328 10.6732 17.4147 10.5575C17.9967 10.4417 18.5999 10.5011 19.148 10.7282C19.6962 10.9552 20.1648 11.3398 20.4944 11.8331C20.824 12.3265 21 12.9065 21 13.4998C20.9991 14.2952 20.6827 15.0577 20.1203 15.6202C19.5579 16.1826 18.7954 16.4989 18 16.4998Z" fill="#FA2609"/>
<path d="M12 10.5H6.75V12H12V10.5Z" fill="#FA2609"/>
<path d="M14.25 6H6.75V7.5H14.25V6Z" fill="#FA2609"/>
<path d="M4.5 22.5C4.1023 22.4996 3.72101 22.3414 3.4398 22.0602C3.15859 21.779 3.00042 21.3977 3 21V3C3.00042 2.6023 3.15859 2.22101 3.4398 1.9398C3.72101 1.65859 4.1023 1.50042 4.5 1.5H16.5C16.8977 1.50042 17.279 1.65859 17.5602 1.9398C17.8414 2.22101 17.9996 2.6023 18 3V6H16.5V3H4.5V21H12V22.5H4.5Z" fill="#FA2609"/>
</g>
<defs>
<clipPath id="clip0_589_1813">
<rect width="24" height="24" fill="white"/>
</clipPath>
</defs>
</svg>
