<svg width="24" height="24" viewBox="0 0 24 24" fill="none" xmlns="http://www.w3.org/2000/svg">
<g clip-path="url(#clip0_589_1791)">
<path d="M12 6L13.434 8.77725L16.5 9.22275L14.25 11.25L15 14.25L12 12.5625L9 14.25L9.75 11.25L7.5 9.22275L10.65 8.77725L12 6Z" fill="#FA2609"/>
<path d="M13.3018 22.5L12 21.75L15 16.5H19.5C19.6971 16.5003 19.8923 16.4618 20.0744 16.3865C20.2566 16.3112 20.4221 16.2008 20.5614 16.0614C20.7008 15.9221 20.8112 15.7566 20.8865 15.5744C20.9618 15.3923 21.0003 15.1971 21 15V6C21.0003 5.80292 20.9618 5.60772 20.8865 5.42558C20.8112 5.24344 20.7008 5.07795 20.5614 4.93859C20.4221 4.79924 20.2566 4.68876 20.0744 4.6135C19.8923 4.53823 19.6971 4.49966 19.5 4.5H4.5C4.30292 4.49966 4.10772 4.53823 3.92558 4.6135C3.74344 4.68876 3.57795 4.79924 3.43859 4.93859C3.29924 5.07795 3.18876 5.24344 3.1135 5.42558C3.03823 5.60772 2.99966 5.80292 3 6V15C2.99966 15.1971 3.03823 15.3923 3.1135 15.5744C3.18876 15.7566 3.29924 15.9221 3.43859 16.0614C3.57795 16.2008 3.74344 16.3112 3.92558 16.3865C4.10772 16.4618 4.30292 16.5003 4.5 16.5H11.25V18H4.5C4.10601 18.0001 3.71588 17.9225 3.35187 17.7718C2.98786 17.621 2.65712 17.4001 2.37853 17.1215C2.09994 16.8429 1.87896 16.5121 1.72822 16.1481C1.57748 15.7841 1.49993 15.394 1.5 15V6C1.49988 5.606 1.5774 5.21584 1.72812 4.85181C1.87884 4.48778 2.09982 4.15702 2.37842 3.87842C2.65702 3.59982 2.98778 3.37884 3.35181 3.22812C3.71584 3.0774 4.106 2.99988 4.5 3H19.5C19.894 2.99988 20.2842 3.0774 20.6482 3.22812C21.0122 3.37884 21.343 3.59982 21.6216 3.87842C21.9002 4.15702 22.1212 4.48778 22.2719 4.85181C22.4226 5.21584 22.5001 5.606 22.5 6V15C22.5001 15.394 22.4225 15.7841 22.2718 16.1481C22.121 16.5121 21.9001 16.8429 21.6215 17.1215C21.3429 17.4001 21.0121 17.621 20.6481 17.7718C20.2841 17.9225 19.894 18.0001 19.5 18H15.8735L13.3018 22.5Z" fill="#FA2609"/>
</g>
<defs>
<clipPath id="clip0_589_1791">
<rect width="24" height="24" fill="white"/>
</clipPath>
</defs>
</svg>
