<svg width="50" height="50" viewBox="0 0 50 50" fill="none" xmlns="http://www.w3.org/2000/svg">
<path fill-rule="evenodd" clip-rule="evenodd" d="M26.0704 35.1432C25.9299 35.284 25.7631 35.3957 25.5794 35.4719C25.3957 35.5482 25.1987 35.5874 24.9998 35.5874C24.8009 35.5874 24.604 35.5482 24.4203 35.4719C24.2366 35.3957 24.0697 35.284 23.9293 35.1432L5.78411 16.998C5.50018 16.7141 5.34067 16.329 5.34067 15.9274C5.34067 15.5259 5.50018 15.1408 5.78411 14.8569C6.06804 14.5729 6.45313 14.4134 6.85467 14.4134C7.25621 14.4134 7.64131 14.5729 7.92524 14.8569L24.9998 31.9345L42.0744 14.8569C42.3584 14.5729 42.7434 14.4134 43.145 14.4134C43.5465 14.4134 43.9316 14.5729 44.2156 14.8569C44.4995 15.1408 44.659 15.5259 44.659 15.9274C44.659 16.329 44.4995 16.7141 44.2156 16.998L26.0704 35.1432Z" fill="red"/>
</svg>
