<svg width="400" height="362" viewBox="0 0 400 362" fill="none" xmlns="http://www.w3.org/2000/svg">
<path d="M203.996 243.667C193.809 221.592 195.315 185.434 200.037 182.424C205.231 179.121 213.457 196.071 221.691 191.112C229.925 186.153 235.549 175.4 228.62 158.45C221.691 141.5 212.598 152.663 206.099 156.778C199.599 160.892 194.404 157.196 195.71 142.311C196.664 131.332 201.149 111.154 203.444 101.337C204.478 101.764 205.512 102.173 206.528 102.65C186.179 93.5522 163.658 90.6589 154.136 93.5522C144.614 96.4454 146.34 97.2733 151.096 108.018C161.039 130.437 123.398 138.122 112.554 120.854C106.063 110.519 115.611 104.715 113.009 97.2733C110.408 89.8311 62.3431 98.5108 56.2814 101.822C56.2814 101.822 67.9669 135.27 66.2412 147.295C64.5155 159.32 58.4451 164.663 49.3525 155.975C40.2599 147.287 28.5657 155.139 28.1277 169.622C27.6897 184.105 30.2914 195.661 40.6891 192.358C51.0869 189.055 59.3123 177.064 62.7723 192.358C66.2324 207.652 60.1444 227.479 56.7106 241.552C56.7106 241.552 83.9971 252.715 96.5498 251.887C109.102 251.059 116.907 250.65 113.009 243.208C109.111 235.765 102.611 230.807 107.377 222.537C112.142 214.267 131.194 215.094 141.154 217.16C151.114 219.225 155.45 226.258 152.419 234.11C149.388 241.962 144.185 249.822 153.716 251.469C162.694 253.033 185.531 249.446 208.026 242.455C206.694 242.865 205.31 243.266 203.996 243.667Z" stroke="#901100" stroke-opacity="0.7" stroke-miterlimit="10"/>
<path d="M212.16 241.133C210.829 241.568 209.489 241.969 208.157 242.412C209.489 241.994 210.829 241.568 212.16 241.133Z" stroke="#901100" stroke-opacity="0.7" stroke-miterlimit="10"/>
<path d="M370.229 152.246C362.003 152.246 361.565 158.45 352.902 157.213C344.239 155.975 343.38 136.951 352.473 103.47C352.473 103.47 342.513 110.494 319.992 110.912C297.471 111.33 288.378 108.838 294.011 100.986C299.643 93.1344 303.97 86.9298 299.205 80.7335C294.44 74.5372 271.489 75.3567 264.166 80.7335C256.843 86.1103 262.003 92.3066 267.197 99.3307C272.392 106.355 266.321 110.494 257.667 110.912C249.012 111.33 226.92 111.748 206.563 102.642C205.546 102.182 204.513 101.756 203.479 101.329C201.184 111.171 196.699 131.349 195.744 142.303C194.439 157.188 199.634 160.909 206.133 156.769C212.633 152.63 221.726 141.475 228.655 158.442C235.583 175.408 229.951 186.137 221.726 191.104C213.5 196.071 205.231 179.121 200.054 182.424C195.333 185.435 193.826 221.592 204.013 243.668C206.738 242.832 209.462 241.995 212.178 241.159C235.995 233.299 259.813 229.578 264.149 234.955C268.485 240.331 266.777 239.503 261.118 247.774C255.459 256.044 255.915 263.068 265.445 267.199C274.976 271.329 298.355 270.543 300.484 261.002C302.613 251.461 290.524 246.118 296.157 237.02C301.789 227.922 351.597 241.134 351.597 241.134C351.597 241.134 340.341 204.751 344.668 192.76C348.995 180.769 352.473 183.695 359.402 188.211C366.331 192.726 375.423 192.35 378.892 179.121C382.361 165.892 378.454 152.246 370.229 152.246Z" stroke="#901100" stroke-opacity="0.7" stroke-miterlimit="10"/>
<path d="M344.479 64.573C355.504 59.605 360.222 47.046 355.018 36.5217C349.813 25.9975 336.657 21.4933 325.632 26.4613C314.608 31.4294 309.889 43.9884 315.094 54.5126C320.298 65.0369 333.454 69.5411 344.479 64.573Z" fill="#901100" fill-opacity="0.7" stroke="#901100" stroke-opacity="0.7" stroke-miterlimit="10"/>
<path d="M336.913 62.7847C346.884 61.8078 354.138 53.2991 353.115 43.7802C352.092 34.2612 343.178 27.3366 333.207 28.3136C323.235 29.2905 315.981 37.7992 317.004 47.3181C318.028 56.8371 326.941 63.7617 336.913 62.7847Z" fill="white" stroke="#901100" stroke-opacity="0.7" stroke-miterlimit="10"/>
<path d="M340.737 56.9405C347.329 53.9469 350.131 46.4185 346.995 40.1253C343.859 33.8321 335.973 31.1573 329.38 34.1509C322.788 37.1445 319.986 44.6729 323.122 50.9661C326.258 57.2592 334.144 59.9341 340.737 56.9405Z" fill="#901100" fill-opacity="0.7" stroke="#901100" stroke-opacity="0.7" stroke-miterlimit="10"/>
<path d="M343.398 45.5349C343.398 43.9588 342.908 42.4181 341.991 41.1076C341.074 39.7971 339.77 38.7757 338.244 38.1725C336.719 37.5694 335.041 37.4116 333.421 37.719C331.802 38.0265 330.314 38.7855 329.147 39.9C327.979 41.0145 327.184 42.4344 326.862 43.9803C326.54 45.5261 326.705 47.1284 327.337 48.5845C327.969 50.0407 329.039 51.2853 330.412 52.1609C331.785 53.0366 333.399 53.504 335.05 53.504C336.146 53.5051 337.232 53.2997 338.246 52.8996C339.259 52.4995 340.18 51.9126 340.955 51.1723C341.731 50.4321 342.346 49.5532 342.765 48.5858C343.184 47.6185 343.399 46.5817 343.398 45.5349Z" fill="white" stroke="#901100" stroke-opacity="0.7" stroke-miterlimit="10"/>
<path d="M338.922 45.5337C338.924 44.8024 338.698 44.087 338.274 43.4781C337.849 42.8692 337.245 42.3941 336.538 42.1131C335.831 41.8321 335.052 41.7577 334.3 41.8993C333.549 42.041 332.858 42.3924 332.316 42.9089C331.773 43.4255 331.404 44.084 331.254 44.8012C331.103 45.5184 331.18 46.262 331.472 46.9378C331.765 47.6137 332.261 48.1914 332.898 48.5979C333.535 49.0044 334.284 49.2214 335.05 49.2214C336.076 49.2214 337.059 48.8331 337.785 48.1418C338.511 47.4505 338.92 46.5125 338.922 45.5337Z" fill="#901100" fill-opacity="0.7" stroke="#901100" stroke-opacity="0.7" stroke-miterlimit="10"/>
<path d="M336.653 39.7559L335.059 45.534L340.771 46.7298L336.653 39.7559Z" fill="#901100" fill-opacity="0.7" stroke="#901100" stroke-opacity="0.7" stroke-miterlimit="10"/>
<path d="M339.088 42.9731L364.202 29.9116" stroke="#901100" stroke-opacity="0.7" stroke-width="2" stroke-miterlimit="10"/>
<path d="M356.143 34.2102L356.52 27.9471L368.319 21.5083V28.6578L356.143 34.2102Z" fill="#901100" fill-opacity="0.7" stroke="#901100" stroke-opacity="0.7" stroke-miterlimit="10"/>
<path d="M373.382 32.0645L368.214 28.427L356.091 34.5062L361.933 37.7339L373.382 32.0645Z" fill="#901100" fill-opacity="0.7" stroke="#901100" stroke-opacity="0.7" stroke-miterlimit="10"/>
<path d="M219.334 46.8113H210.557V66.7631H219.334V46.8113Z" fill="#901100" fill-opacity="0.7" stroke="#901100" stroke-opacity="0.7" stroke-miterlimit="10"/>
<path d="M232.273 40.7661H223.495V66.7637H232.273V40.7661Z" fill="#901100" fill-opacity="0.7" stroke="#901100" stroke-opacity="0.7" stroke-miterlimit="10"/>
<path d="M245.21 46.8113H236.433V66.7631H245.21V46.8113Z" fill="#901100" fill-opacity="0.7" stroke="#901100" stroke-opacity="0.7" stroke-miterlimit="10"/>
<path d="M258.157 39.4521H249.38V66.7626H258.157V39.4521Z" fill="#901100" fill-opacity="0.7" stroke="#901100" stroke-opacity="0.7" stroke-miterlimit="10"/>
<path d="M271.096 29.4578H262.318V66.7608H271.096V29.4578Z" fill="#901100" fill-opacity="0.7" stroke="#901100" stroke-opacity="0.7" stroke-miterlimit="10"/>
<path d="M259.445 13.6559L262.87 15.0524L239.578 36.3923L228.453 30.5974L210.828 40.8242V43.9098L228.523 33.6412L240.033 39.6368L264.779 16.9589L266.102 20.2787L270.999 9.43311L259.445 13.6559Z" fill="#901100" fill-opacity="0.7" stroke="#901100" stroke-opacity="0.7" stroke-linecap="round" stroke-linejoin="round"/>
<path d="M157.255 65.9225C169.124 63.263 176.487 51.9223 173.701 40.5923C170.915 29.2623 159.035 22.2335 147.166 24.893C135.297 27.5525 127.934 38.8933 130.72 50.2232C133.506 61.5532 145.386 68.582 157.255 65.9225Z" fill="white" stroke="#901100" stroke-opacity="0.7" stroke-miterlimit="10"/>
<path d="M156.574 63.6751C167.139 61.3726 173.749 51.3304 171.337 41.245C168.925 31.1597 158.405 24.8504 147.84 27.1528C137.275 29.4553 130.666 39.4976 133.078 49.5829C135.49 59.6682 146.01 65.9775 156.574 63.6751Z" fill="#901100" fill-opacity="0.7" stroke="#901100" stroke-opacity="0.7" stroke-miterlimit="10"/>
<path d="M154.909 62.2136C164.57 60.7841 171.189 52.1483 169.692 42.925C168.194 33.7017 159.148 27.3835 149.486 28.813C139.824 30.2425 133.205 38.8783 134.703 48.1016C136.2 57.325 145.247 63.6431 154.909 62.2136Z" fill="white" stroke="#901100" stroke-opacity="0.7" stroke-miterlimit="10"/>
<path d="M151.937 59.9906V57.3064C151.064 57.3329 150.195 57.1767 149.391 56.8488C148.588 56.5209 147.869 56.0292 147.286 55.4082C146.252 54.2152 145.697 52.4341 145.621 50.0648L149.887 49.3708C149.901 50.1848 150.007 50.995 150.203 51.7874C150.317 52.3376 150.594 52.8452 151 53.2508C151.177 53.411 151.387 53.5357 151.615 53.6175C151.844 53.6994 152.087 53.7367 152.331 53.7274C152.58 53.7547 152.831 53.7151 153.057 53.6131C153.283 53.5111 153.475 53.3509 153.61 53.1504C153.851 52.7456 153.972 52.2861 153.961 51.8209C154.001 50.9348 153.753 50.0585 153.251 49.3123C152.695 48.5642 152.039 47.8894 151.298 47.3054L148.731 45.2065C148.172 44.7108 147.648 44.18 147.163 43.6177C146.691 43.0639 146.318 42.4395 146.059 41.7697C145.77 40.9802 145.63 40.1476 145.648 39.3113C145.607 38.5459 145.729 37.7806 146.008 37.0618C146.287 36.3431 146.715 35.6859 147.268 35.1302C148.456 34.0925 149.995 33.4987 151.604 33.4578V30.8154H153.058V33.3909C153.997 33.4047 154.917 33.6464 155.73 34.0933C156.384 34.4899 156.921 35.0398 157.289 35.6905C157.658 36.332 157.924 37.0225 158.078 37.7392C158.234 38.4501 158.333 39.1713 158.376 39.8966L154.057 40.4987C154.047 39.8651 153.986 39.2333 153.873 38.6088C153.812 38.142 153.624 37.6984 153.33 37.3211C153.179 37.1623 152.991 37.0406 152.78 36.9664C152.57 36.8921 152.344 36.8675 152.121 36.8946C151.868 36.8909 151.618 36.947 151.394 37.0579C151.169 37.1688 150.977 37.331 150.833 37.5301C150.544 37.9276 150.391 38.4009 150.395 38.8848C150.356 39.6473 150.591 40.3997 151.061 41.0171C151.522 41.5763 152.028 42.0993 152.577 42.5808L155.082 44.6546C155.747 45.2335 156.365 45.8596 156.93 46.5277C157.495 47.2076 157.952 47.9626 158.288 48.7687C158.646 49.6652 158.822 50.6189 158.805 51.5784C158.818 52.5429 158.593 53.4969 158.148 54.3629C157.715 55.1784 157.062 55.8685 156.256 56.3614C155.387 56.8918 154.394 57.2079 153.365 57.2813V59.9906H151.937Z" fill="#901100" fill-opacity="0.7"/>
<path d="M80.6685 29.1003H39.6818V65.8849H80.6685V29.1003Z" fill="white" stroke="#901100" stroke-opacity="0.7" stroke-miterlimit="10"/>
<path d="M80.6685 29.1003H39.6818V38.5578H80.6685V29.1003Z" fill="#901100" fill-opacity="0.7" stroke="#901100" stroke-opacity="0.7" stroke-linecap="round" stroke-linejoin="round"/>
<path d="M47.9157 43.8101H43.0103V48.4928H47.9157V43.8101Z" fill="#901100" fill-opacity="0.7" stroke="#901100" stroke-opacity="0.7" stroke-linecap="round" stroke-linejoin="round"/>
<path d="M55.2737 43.8101H50.3682V48.4928H55.2737V43.8101Z" fill="#901100" fill-opacity="0.7" stroke="#901100" stroke-opacity="0.7" stroke-linecap="round" stroke-linejoin="round"/>
<path d="M62.6229 43.8101H57.7175V48.4928H62.6229V43.8101Z" fill="#901100" fill-opacity="0.7" stroke="#901100" stroke-opacity="0.7" stroke-linecap="round" stroke-linejoin="round"/>
<path d="M69.9811 43.8101H65.0757V48.4928H69.9811V43.8101Z" fill="#901100" fill-opacity="0.7" stroke="#901100" stroke-opacity="0.7" stroke-linecap="round" stroke-linejoin="round"/>
<path d="M77.3393 43.8101H72.4338V48.4928H77.3393V43.8101Z" fill="#901100" fill-opacity="0.7" stroke="#901100" stroke-opacity="0.7" stroke-linecap="round" stroke-linejoin="round"/>
<path d="M47.9157 51.1685H43.0103V55.8512H47.9157V51.1685Z" fill="#901100" fill-opacity="0.7" stroke="#901100" stroke-opacity="0.7" stroke-linecap="round" stroke-linejoin="round"/>
<path d="M55.2737 51.1685H50.3682V55.8512H55.2737V51.1685Z" fill="#901100" fill-opacity="0.7" stroke="#901100" stroke-opacity="0.7" stroke-linecap="round" stroke-linejoin="round"/>
<path d="M62.6229 51.1685H57.7175V55.8512H62.6229V51.1685Z" fill="#901100" fill-opacity="0.7" stroke="#901100" stroke-opacity="0.7" stroke-linecap="round" stroke-linejoin="round"/>
<path d="M69.9811 51.1685H65.0757V55.8512H69.9811V51.1685Z" fill="#901100" fill-opacity="0.7" stroke="#901100" stroke-opacity="0.7" stroke-linecap="round" stroke-linejoin="round"/>
<path d="M77.3393 51.1685H72.4338V55.8512H77.3393V51.1685Z" fill="#901100" fill-opacity="0.7" stroke="#901100" stroke-opacity="0.7" stroke-linecap="round" stroke-linejoin="round"/>
<path d="M47.9157 58.5286H43.0103V63.2113H47.9157V58.5286Z" fill="#901100" fill-opacity="0.7" stroke="#901100" stroke-opacity="0.7" stroke-linecap="round" stroke-linejoin="round"/>
<path d="M55.2737 58.5286H50.3682V63.2113H55.2737V58.5286Z" fill="#901100" fill-opacity="0.7" stroke="#901100" stroke-opacity="0.7" stroke-linecap="round" stroke-linejoin="round"/>
<path d="M62.6229 58.5286H57.7175V63.2113H62.6229V58.5286Z" fill="#901100" fill-opacity="0.7" stroke="#901100" stroke-opacity="0.7" stroke-linecap="round" stroke-linejoin="round"/>
<path d="M69.9811 58.5286H65.0757V63.2113H69.9811V58.5286Z" fill="#901100" fill-opacity="0.7" stroke="#901100" stroke-opacity="0.7" stroke-linecap="round" stroke-linejoin="round"/>
<path d="M77.3393 58.5286H72.4338V63.2113H77.3393V58.5286Z" fill="#901100" fill-opacity="0.7" stroke="#901100" stroke-opacity="0.7" stroke-linecap="round" stroke-linejoin="round"/>
<path d="M48.7916 23.0811H45.2877V32.1121H48.7916V23.0811Z" fill="#901100" fill-opacity="0.7"/>
<path d="M57.5512 23.0811H54.0474V32.1121H57.5512V23.0811Z" fill="#901100" fill-opacity="0.7"/>
<path d="M66.3026 23.0811H62.7988V32.1121H66.3026V23.0811Z" fill="#901100" fill-opacity="0.7"/>
<path d="M75.0618 23.0811H71.5579V32.1121H75.0618V23.0811Z" fill="#901100" fill-opacity="0.7"/>
<path d="M4.03853 303.874C5.93938 304.669 10.5908 304.568 10.5908 304.568C10.5908 304.568 9.59218 301.667 9.50458 301.491C8.4797 299.451 5.25613 296.089 2.62822 296.424C2.19368 296.492 1.77902 296.647 1.41125 296.878C1.04348 297.109 0.730833 297.411 0.493671 297.766C0.256508 298.12 0.100147 298.518 0.0347622 298.933C-0.030622 299.349 -0.00356233 299.773 0.114181 300.178C0.552166 301.909 2.41798 303.205 4.03853 303.874Z" fill="#901100" fill-opacity="0.7"/>
<path d="M5.64162 316.743C7.61256 317.011 11.7734 315.865 12.0975 315.773C12.7782 318.041 13.6181 320.262 14.6116 322.421C15.1809 323.684 15.8029 324.93 16.4336 326.192C16.0569 325.657 15.7153 325.189 15.654 325.13C14.1123 323.416 10.0653 320.949 7.63008 321.978C7.22932 322.152 6.87148 322.404 6.57995 322.719C6.28843 323.034 6.06978 323.403 5.93832 323.804C5.80685 324.205 5.76553 324.628 5.81705 325.046C5.86857 325.463 6.01177 325.865 6.23729 326.226C7.11326 327.79 9.29442 328.567 11.0464 328.81C12.7983 329.052 16.381 328.149 17.3183 327.89C17.5636 328.366 17.8089 328.851 18.0629 329.328C19.263 331.611 20.4718 333.885 21.5668 336.152C21.961 336.946 22.3201 337.749 22.6792 338.551C22.3376 338.075 22.0573 337.715 22.0048 337.632C20.4543 335.959 16.4073 333.492 13.9721 334.479C13.5735 334.656 13.2182 334.911 12.9293 335.228C12.6403 335.544 12.424 335.915 12.2944 336.316C12.1648 336.717 12.1248 337.139 12.1769 337.556C12.229 337.973 12.372 338.375 12.5968 338.735C13.4728 340.299 15.6627 341.068 17.4059 341.311C19.1491 341.553 22.3989 340.734 23.5377 340.475C23.8793 341.311 24.221 342.147 24.5188 342.983C24.7027 343.544 24.9305 344.079 25.0794 344.656C25.2283 345.233 25.4123 345.776 25.57 346.328C25.8415 347.407 26.1306 348.519 26.3671 349.581C26.5423 350.317 26.6912 351.028 26.8401 351.73C26.4547 350.936 25.6751 349.389 25.5962 349.263C24.3348 347.348 20.7258 344.363 18.1592 344.982C17.7428 345.098 17.3561 345.295 17.0234 345.561C16.6906 345.826 16.419 346.155 16.2257 346.525C16.0323 346.896 15.9214 347.301 15.8999 347.715C15.8784 348.128 15.9468 348.542 16.1007 348.929C16.7402 350.601 18.7286 351.688 20.4806 352.182C22.3376 352.717 26.4547 352.223 26.9715 352.182C27.2168 353.361 27.4445 354.506 27.646 355.585C28.084 357.985 28.4169 360.125 28.6709 361.94H30.4228C30.1162 360.059 29.7221 357.826 29.1965 355.317C28.9512 354.122 28.6621 352.851 28.3205 351.546C29.5623 351.072 30.7733 350.527 31.947 349.915C33.3048 351.32 36.7736 352.959 37.2028 353.168C36.7298 354.28 36.2568 355.359 35.7925 356.363C34.829 358.478 33.9179 360.351 33.1121 361.94H34.9954C35.6874 360.468 36.4495 358.796 37.2379 356.923C37.7284 355.794 38.219 354.581 38.7183 353.336C39.2176 353.436 43.2908 354.222 45.1917 353.812C46.9436 353.444 49.0022 352.516 49.7818 350.885C49.9753 350.507 50.0834 350.094 50.0989 349.673C50.1145 349.253 50.0371 348.834 49.8719 348.443C49.7067 348.053 49.4573 347.7 49.1399 347.408C48.8226 347.115 48.4444 346.89 48.0298 346.746C45.5158 345.91 41.6878 348.669 40.2775 350.484C40.1987 350.593 39.4015 351.847 38.9635 352.65C39.165 352.14 39.3665 351.646 39.5592 351.12C39.9621 350.074 40.3301 349.021 40.733 347.892L41.2586 346.219C41.4425 345.659 41.5652 345.057 41.7316 344.463C42.0732 343.1 42.3448 341.696 42.6076 340.282C43.5711 340.617 46.9874 341.754 48.7394 341.629C50.4913 341.503 52.7163 340.893 53.7324 339.396C53.9866 339.052 54.1618 338.662 54.2467 338.249C54.3315 337.836 54.3241 337.411 54.2249 337.001C54.1256 336.592 53.9368 336.207 53.6708 335.871C53.4048 335.536 53.0676 335.258 52.6812 335.056C50.3249 333.902 46.1027 336.034 44.4296 337.632C44.3245 337.732 43.2558 339.003 42.6777 339.714C42.8178 338.878 42.9667 338.041 43.0806 337.138C43.4047 334.63 43.65 332.079 43.9566 329.537C44.0354 328.76 44.123 327.982 44.2106 327.204C44.5522 327.33 48.5905 328.759 50.5701 328.634C52.3221 328.509 54.5383 327.898 55.5632 326.401C55.816 326.057 55.9901 325.667 56.0742 325.254C56.1583 324.842 56.1505 324.417 56.0514 324.008C55.9522 323.598 55.7639 323.214 55.4987 322.878C55.2335 322.543 54.8973 322.265 54.512 322.062C52.1557 320.899 47.9335 323.032 46.2516 324.629C46.129 324.746 44.596 326.585 44.2281 327.07C44.4121 325.356 44.6223 323.659 44.8939 321.986C45.2542 319.728 45.7632 317.494 46.4181 315.297C46.5757 315.355 50.7979 316.869 52.8126 316.735C54.5646 316.618 56.7895 315.999 57.8057 314.502C58.0584 314.158 58.2326 313.767 58.3167 313.355C58.4008 312.943 58.393 312.518 58.2939 312.109C58.1947 311.699 58.0064 311.314 57.7412 310.979C57.476 310.644 57.1398 310.365 56.7545 310.162C54.3981 309 50.176 311.141 48.5029 312.729C48.3715 312.855 46.7509 314.828 46.4443 315.238C46.4443 315.113 46.5144 314.979 46.5494 314.853C47.275 312.671 48.2043 310.555 49.3263 308.532C49.9219 307.403 50.5701 306.358 51.2184 305.363C51.9717 305.722 55.423 307.319 57.2713 307.394C59.1196 307.47 61.3008 307.077 62.5271 305.722C62.8189 305.407 63.0376 305.036 63.1689 304.635C63.3002 304.233 63.3411 303.81 63.289 303.392C63.2369 302.975 63.0929 302.572 62.8665 302.211C62.6401 301.851 62.3364 301.54 61.9753 301.299C59.7678 299.894 55.3267 301.583 53.4784 302.971C53.3733 303.046 52.4447 303.933 51.779 304.585C52.0768 304.142 52.3747 303.673 52.655 303.247C53.7587 301.658 54.8799 300.262 55.8785 299.066C56.4567 298.372 56.991 297.761 57.4991 297.184C58.4276 297.184 62.1768 297.059 63.8148 296.348C65.4529 295.637 67.2486 294.3 67.6341 292.552C67.7402 292.143 67.7548 291.718 67.6772 291.304C67.5995 290.89 67.4311 290.496 67.1832 290.148C66.9352 289.8 66.6131 289.505 66.238 289.284C65.8629 289.063 65.4431 288.92 65.0061 288.864C62.3782 288.597 59.2423 292.042 58.2787 294.107C58.1999 294.283 57.2363 297.218 57.2801 297.218H57.2713C56.772 297.761 56.2377 298.347 55.6771 298.999C54.6434 300.203 53.4959 301.583 52.3484 303.18C51.0702 304.864 49.9001 306.621 48.8445 308.44C47.6644 310.464 46.6765 312.586 45.8925 314.778V314.862C45.8925 314.118 45.8925 312.044 45.8925 311.885C45.5859 309.644 43.6149 305.488 41.0133 305.028C40.5781 304.963 40.1334 304.986 39.7082 305.096C39.283 305.206 38.8868 305.4 38.5455 305.666C38.2042 305.932 37.9254 306.264 37.7272 306.639C37.5291 307.015 37.4161 307.426 37.3956 307.846C37.2466 309.627 38.5956 311.408 39.9096 312.529C41.3987 313.8 45.5246 315.037 45.8574 315.121C45.1133 317.372 44.528 319.669 44.1055 321.995C43.8515 323.349 43.6412 324.721 43.4485 326.092C43.4485 325.457 43.4485 324.88 43.4485 324.804C43.1419 322.563 41.171 318.407 38.5694 317.947C38.1348 317.882 37.6908 317.905 37.2662 318.015C36.8416 318.124 36.4459 318.318 36.1047 318.583C35.7635 318.848 35.4845 319.178 35.2859 319.553C35.0872 319.927 34.9733 320.338 34.9516 320.757C34.8027 322.538 36.1517 324.319 37.4656 325.448C38.7796 326.577 42.301 327.698 43.2295 327.957L43.0193 329.546C42.7039 332.054 42.3973 334.613 42.0207 337.071C41.8893 337.908 41.7228 338.794 41.5564 339.655C41.5564 339.087 41.5564 338.602 41.5564 338.535C41.2498 336.294 39.2877 332.129 36.6773 331.669C36.2422 331.606 35.798 331.63 35.3734 331.74C34.9488 331.851 34.5532 332.045 34.2122 332.311C33.8712 332.576 33.5924 332.907 33.3938 333.282C33.1953 333.657 33.0814 334.068 33.0595 334.487C32.9106 336.269 34.2596 338.05 35.5823 339.17C36.905 340.291 40.0673 341.319 41.171 341.679C40.9783 342.515 40.7856 343.418 40.5578 344.263C40.3914 344.823 40.2687 345.383 40.0673 345.935C39.8658 346.487 39.6906 347.056 39.5066 347.608C39.1037 348.653 38.7008 349.731 38.289 350.743L37.4131 352.784C37.5532 351.947 37.7985 350.216 37.7985 350.066C37.7664 348.08 37.2058 346.135 36.1692 344.413C36.1866 344.193 36.1866 343.973 36.1692 343.753C36.1089 343.339 35.9588 342.941 35.7285 342.586C35.4981 342.231 35.1926 341.925 34.8314 341.689C34.4703 341.453 34.0615 341.291 33.6312 341.215C33.2008 341.138 32.7585 341.148 32.3324 341.244C29.7746 341.896 28.1453 346.186 28.0227 348.444C28.0227 348.578 28.1103 350.033 28.1803 350.952C28.0577 350.417 27.9351 349.907 27.7949 349.355C27.5234 348.276 27.2255 347.206 26.9189 346.052C26.7438 345.5 26.5598 344.94 26.3846 344.38C26.2094 343.82 25.9729 343.243 25.7627 342.666C25.2634 341.344 24.6765 340.032 24.0633 338.719C25.0531 338.493 28.5658 337.64 29.9673 336.603C31.3689 335.566 32.858 333.894 32.8493 332.113C32.8604 331.692 32.779 331.275 32.6102 330.886C32.4414 330.498 32.1891 330.148 31.8695 329.858C31.5499 329.569 31.1702 329.347 30.755 329.207C30.3398 329.066 29.8984 329.011 29.4593 329.044C26.8314 329.32 24.5363 333.325 24.0633 335.541C24.0633 335.675 23.8793 337.297 23.8093 338.192C23.4326 337.406 23.0559 336.62 22.653 335.834C21.4704 333.576 20.209 331.318 18.9564 329.061L17.8176 326.987C18.1768 326.903 22.3639 325.975 23.9494 324.821C25.3597 323.792 26.8401 322.112 26.8314 320.331C26.8425 319.91 26.7611 319.492 26.5923 319.104C26.4235 318.716 26.1711 318.366 25.8515 318.076C25.532 317.787 25.1523 317.565 24.7371 317.425C24.3219 317.284 23.8804 317.229 23.4413 317.262C20.8134 317.538 18.5184 321.543 18.0454 323.759C18.0454 323.926 17.7826 326.268 17.7651 326.861C16.8891 325.331 16.1182 323.809 15.3824 322.271C14.3593 320.202 13.4814 318.07 12.7545 315.89C12.9209 315.89 17.3008 314.904 18.8863 313.725C20.2879 312.696 21.777 311.015 21.7595 309.234C21.7719 308.814 21.6916 308.397 21.5238 308.008C21.356 307.62 21.1045 307.27 20.7856 306.98C20.4667 306.691 20.0875 306.469 19.6728 306.328C19.258 306.188 18.8169 306.132 18.3782 306.165C15.7503 306.441 13.4553 310.447 12.9735 312.654C12.9735 312.83 12.7019 315.347 12.6932 315.807L12.553 315.422C11.9019 313.22 11.4534 310.967 11.2128 308.691C11.0639 307.436 11.0026 306.224 10.9588 305.053C11.8347 304.953 15.6102 304.468 17.1869 303.556C18.7637 302.645 20.3667 301.165 20.5594 299.375C20.6199 298.959 20.5878 298.535 20.4653 298.131C20.3427 297.727 20.1325 297.353 19.8482 297.032C19.5639 296.711 19.212 296.45 18.8154 296.268C18.4187 296.085 17.9862 295.984 17.5461 295.972C14.9182 295.972 12.1676 299.71 11.4143 301.825C11.4143 301.942 11.1077 303.172 10.9325 304.075C10.9325 303.54 10.9325 302.996 10.9325 302.486C10.9325 300.571 11.0639 298.815 11.1865 297.268C11.2654 296.432 11.353 295.596 11.4493 294.851C12.2114 294.35 15.2773 292.284 16.2233 290.804C17.1694 289.324 17.8965 287.284 17.2044 285.628C17.0557 285.234 16.8217 284.874 16.5177 284.572C16.2137 284.27 15.8466 284.033 15.4401 283.875C15.0336 283.717 14.5969 283.643 14.1584 283.657C13.7198 283.671 13.2893 283.773 12.8947 283.956C10.5383 285.118 9.91636 289.642 10.2667 291.866C10.2667 292.059 11.1953 295.019 11.2303 294.994H11.2829C11.1778 295.704 11.0726 296.474 10.985 297.31C10.8186 298.865 10.6522 300.613 10.6084 302.536C10.5342 304.605 10.5839 306.677 10.7573 308.741C10.9494 311.05 11.3539 313.339 11.9661 315.581V315.665C11.5457 315.037 10.3193 313.332 10.2142 313.206C8.66372 311.534 4.61674 309.067 2.18154 310.054C1.80795 310.234 1.47589 310.483 1.20495 310.788C0.934002 311.092 0.72965 311.446 0.603931 311.827C0.478213 312.208 0.433674 312.609 0.472937 313.007C0.512201 313.404 0.634472 313.791 0.832548 314.143C1.7348 315.723 3.88968 316.492 5.64162 316.743Z" fill="#901100" fill-opacity="0.7"/>
<path d="M51.087 304.853C51.087 304.853 51.963 301.901 51.963 301.709C52.2959 299.476 51.5425 294.969 49.1599 293.865C48.7585 293.692 48.3232 293.601 47.8825 293.6C47.4419 293.598 47.0059 293.685 46.6032 293.856C46.2004 294.027 45.8399 294.276 45.5453 294.589C45.2508 294.902 45.0288 295.271 44.8939 295.671C44.2545 297.344 45.0604 299.409 46.0239 300.822C47.1452 302.486 51.0783 304.853 51.087 304.853Z" fill="#901100" fill-opacity="0.7"/>
<path d="M327.368 303.874C329.269 304.669 333.92 304.568 333.92 304.568C333.92 304.568 332.922 301.667 332.834 301.491C331.809 299.451 328.586 296.089 325.958 296.424C325.523 296.492 325.108 296.647 324.741 296.878C324.373 297.109 324.06 297.411 323.823 297.766C323.586 298.12 323.43 298.518 323.364 298.933C323.299 299.349 323.326 299.773 323.444 300.178C323.882 301.909 325.747 303.205 327.368 303.874Z" fill="#901100" fill-opacity="0.7"/>
<path d="M328.971 316.745C330.942 317.012 335.103 315.867 335.427 315.775C336.112 318.041 336.952 320.261 337.941 322.422C338.511 323.685 339.133 324.931 339.763 326.194C339.387 325.658 339.045 325.19 338.984 325.132C337.442 323.417 333.395 320.951 330.96 321.979C330.559 322.153 330.201 322.405 329.91 322.72C329.618 323.035 329.399 323.405 329.268 323.806C329.136 324.207 329.095 324.63 329.147 325.047C329.198 325.464 329.341 325.866 329.567 326.227C330.443 327.791 332.624 328.568 334.376 328.811C336.128 329.053 339.711 328.15 340.648 327.891C340.893 328.368 341.139 328.853 341.393 329.329C342.593 331.612 343.801 333.887 344.896 336.153C345.291 336.947 345.65 337.75 346.009 338.553C345.667 338.076 345.387 337.717 345.334 337.633C343.784 335.96 339.746 333.494 337.302 334.48C336.902 334.656 336.545 334.91 336.254 335.225C335.963 335.541 335.745 335.912 335.614 336.313C335.482 336.714 335.441 337.137 335.492 337.555C335.543 337.972 335.685 338.375 335.909 338.737C336.785 340.3 338.975 341.07 340.718 341.312C342.461 341.555 345.711 340.735 346.85 340.476C347.191 341.312 347.542 342.148 347.831 342.985C348.015 343.545 348.243 344.08 348.392 344.657C348.54 345.234 348.724 345.778 348.882 346.329C349.154 347.408 349.443 348.52 349.679 349.582C349.854 350.318 350.003 351.029 350.152 351.731C349.767 350.937 348.987 349.39 348.908 349.264C347.647 347.35 344.038 344.364 341.471 344.983C341.048 345.099 340.655 345.299 340.318 345.569C339.981 345.839 339.707 346.173 339.514 346.551C339.32 346.928 339.212 347.34 339.197 347.76C339.181 348.18 339.257 348.599 339.422 348.989C340.061 350.661 342.05 351.748 343.801 352.241C345.659 352.777 349.776 352.283 350.292 352.241C350.538 353.42 350.765 354.566 350.967 355.645C351.405 358.045 351.738 360.185 351.992 362H353.744C353.437 360.118 353.043 357.886 352.517 355.377C352.272 354.181 351.983 352.91 351.641 351.606C352.883 351.132 354.094 350.587 355.268 349.975C356.626 351.38 360.095 353.019 360.524 353.228C360.051 354.34 359.578 355.419 359.113 356.422C358.15 358.538 357.239 360.411 356.433 362H358.316C359.008 360.528 359.77 358.856 360.559 356.983C361.049 355.854 361.54 354.641 362.039 353.395C362.538 353.496 366.612 354.282 368.513 353.872C370.265 353.504 372.323 352.576 373.103 350.945C373.296 350.567 373.404 350.154 373.42 349.733C373.435 349.313 373.358 348.893 373.193 348.503C373.028 348.113 372.778 347.76 372.461 347.468C372.143 347.175 371.765 346.95 371.351 346.806C368.837 345.97 365.009 348.729 363.598 350.544C363.52 350.653 362.722 351.907 362.284 352.71C362.486 352.2 362.687 351.706 362.889 351.179C363.283 350.134 363.651 349.081 364.054 347.952L364.579 346.279C364.763 345.719 364.886 345.117 365.052 344.523C365.394 343.16 365.666 341.755 365.928 340.342C366.892 340.677 370.308 341.814 372.06 341.688C373.812 341.563 376.037 340.953 377.053 339.456C377.307 339.112 377.483 338.721 377.568 338.309C377.652 337.896 377.645 337.471 377.546 337.061C377.447 336.651 377.258 336.266 376.992 335.931C376.726 335.596 376.388 335.318 376.002 335.116C373.646 333.962 369.424 336.094 367.75 337.691C367.645 337.792 366.577 339.063 365.999 339.774C366.139 338.937 366.288 338.101 366.401 337.198C366.726 334.689 366.971 332.139 367.234 329.597C367.312 328.819 367.4 328.042 367.488 327.264C367.829 327.389 371.868 328.819 373.847 328.694C375.599 328.568 377.815 327.958 378.84 326.461C379.093 326.117 379.267 325.726 379.351 325.314C379.435 324.902 379.428 324.477 379.328 324.067C379.229 323.658 379.041 323.273 378.776 322.938C378.511 322.603 378.174 322.324 377.789 322.121C375.433 320.959 371.211 323.091 369.529 324.688C369.406 324.806 367.873 326.645 367.505 327.13C367.689 325.416 367.899 323.718 368.171 322.046C368.531 319.788 369.04 317.554 369.695 315.356C369.853 315.415 374.075 316.929 376.09 316.795C377.842 316.678 380.067 316.059 381.083 314.562C381.336 314.218 381.51 313.827 381.594 313.415C381.678 313.002 381.67 312.578 381.571 312.168C381.472 311.759 381.283 311.374 381.018 311.039C380.753 310.704 380.417 310.425 380.032 310.222C377.675 309.06 373.453 311.201 371.78 312.789C371.649 312.915 370.028 314.888 369.721 315.298C369.721 315.172 369.791 315.039 369.827 314.913C370.552 312.731 371.481 310.615 372.603 308.592C373.199 307.463 373.847 306.417 374.495 305.422C375.249 305.782 378.7 307.379 380.548 307.454C382.397 307.53 384.578 307.137 385.804 305.782C386.096 305.467 386.315 305.096 386.446 304.695C386.577 304.293 386.618 303.87 386.566 303.452C386.514 303.035 386.37 302.632 386.144 302.271C385.917 301.91 385.614 301.599 385.252 301.358C383.045 299.954 378.604 301.643 376.755 303.031C376.659 303.106 375.722 303.992 375.056 304.645C375.354 304.201 375.652 303.733 375.932 303.307C377.045 301.718 378.157 300.322 379.156 299.126C379.734 298.432 380.268 297.821 380.776 297.244C381.705 297.244 385.454 297.119 387.092 296.408C388.73 295.697 390.526 294.359 390.911 292.612C391.017 292.203 391.032 291.778 390.954 291.364C390.877 290.949 390.708 290.555 390.46 290.207C390.212 289.859 389.89 289.565 389.515 289.344C389.14 289.123 388.72 288.98 388.283 288.924C385.655 288.656 382.511 292.102 381.547 294.167C381.468 294.343 380.505 297.278 380.548 297.278H380.61C380.11 297.821 379.576 298.407 379.015 299.059C377.982 300.263 376.834 301.643 375.687 303.24C374.424 304.925 373.268 306.681 372.227 308.5C371.047 310.524 370.059 312.645 369.275 314.838C369.279 314.866 369.279 314.894 369.275 314.922C369.275 314.177 369.275 312.104 369.275 311.945C368.968 309.704 366.997 305.548 364.396 305.088C363.96 305.023 363.516 305.046 363.09 305.156C362.665 305.266 362.269 305.46 361.928 305.726C361.586 305.992 361.308 306.323 361.109 306.699C360.911 307.075 360.798 307.486 360.778 307.906C360.629 309.687 361.978 311.468 363.292 312.589C364.781 313.86 368.907 315.097 369.24 315.181C368.496 317.432 367.91 319.728 367.488 322.054C367.234 323.409 367.023 324.78 366.831 326.152C366.831 325.516 366.831 324.939 366.831 324.864C366.524 322.623 364.553 318.467 361.952 318.007C361.517 317.942 361.073 317.965 360.648 318.075C360.224 318.184 359.828 318.378 359.487 318.643C359.146 318.907 358.867 319.238 358.668 319.613C358.469 319.987 358.356 320.397 358.334 320.817C358.185 322.598 359.534 324.379 360.848 325.508C362.162 326.637 365.683 327.757 366.612 328.017C366.55 328.543 366.472 329.07 366.401 329.605C366.086 332.114 365.78 334.673 365.403 337.131C365.271 337.967 365.105 338.854 364.939 339.715C364.939 339.146 364.939 338.661 364.939 338.595C364.632 336.353 362.67 332.189 360.059 331.729C359.624 331.666 359.18 331.69 358.756 331.8C358.331 331.911 357.935 332.105 357.594 332.371C357.253 332.636 356.975 332.967 356.776 333.342C356.577 333.717 356.464 334.128 356.442 334.547C356.293 336.328 357.642 338.11 358.965 339.23C360.287 340.351 363.458 341.379 364.553 341.739C364.36 342.575 364.168 343.478 363.94 344.323C363.774 344.883 363.651 345.443 363.449 345.995C363.248 346.547 363.073 347.115 362.889 347.667C362.486 348.713 362.083 349.791 361.671 350.803L360.795 352.843C360.935 352.007 361.181 350.276 361.181 350.126C361.153 348.14 360.592 346.193 359.551 344.473C359.554 344.252 359.54 344.031 359.508 343.812C359.447 343.399 359.297 343.001 359.067 342.646C358.837 342.291 358.531 341.985 358.17 341.749C357.809 341.513 357.4 341.351 356.97 341.275C356.539 341.198 356.097 341.208 355.671 341.304C353.113 341.956 351.484 346.246 351.361 348.504C351.361 348.637 351.449 350.092 351.519 351.012C351.396 350.477 351.273 349.967 351.133 349.415C350.862 348.336 350.564 347.266 350.257 346.112C350.082 345.56 349.898 345 349.723 344.44C349.548 343.879 349.311 343.302 349.101 342.725C348.602 341.404 348.015 340.091 347.402 338.778C348.392 338.553 351.904 337.7 353.306 336.663C354.707 335.626 356.196 333.954 356.188 332.172C356.199 331.752 356.117 331.334 355.949 330.946C355.78 330.558 355.527 330.207 355.208 329.918C354.888 329.629 354.509 329.407 354.093 329.266C353.678 329.126 353.237 329.071 352.798 329.104C350.17 329.38 347.875 333.385 347.402 335.601C347.402 335.735 347.218 337.357 347.148 338.252C346.771 337.466 346.394 336.68 345.991 335.894C344.809 333.636 343.547 331.378 342.295 329.12L341.156 327.047C341.515 326.963 345.702 326.035 347.288 324.881C348.698 323.852 350.179 322.171 350.17 320.39C350.181 319.97 350.099 319.552 349.931 319.164C349.762 318.775 349.51 318.425 349.19 318.136C348.87 317.847 348.491 317.625 348.075 317.484C347.66 317.344 347.219 317.289 346.78 317.321C344.152 317.597 341.857 321.603 341.384 323.819C341.384 323.986 341.121 326.327 341.103 326.921C340.271 325.391 339.457 323.869 338.721 322.33C337.713 320.261 336.849 318.129 336.137 315.95C336.303 315.95 340.683 314.963 342.269 313.784C343.67 312.756 345.159 311.075 345.142 309.294C345.154 308.874 345.074 308.456 344.906 308.068C344.738 307.68 344.487 307.329 344.168 307.04C343.849 306.75 343.47 306.528 343.055 306.388C342.64 306.248 342.199 306.192 341.76 306.225C339.133 306.501 336.837 310.506 336.356 312.714C336.356 312.89 336.084 315.407 336.075 315.867L335.935 315.482C335.284 313.28 334.836 311.027 334.595 308.75C334.455 307.496 334.385 306.284 334.341 305.113C335.217 305.013 338.992 304.528 340.569 303.616C342.146 302.705 343.749 301.225 343.942 299.435C344.002 299.019 343.97 298.595 343.847 298.191C343.725 297.787 343.515 297.413 343.23 297.092C342.946 296.771 342.594 296.51 342.198 296.328C341.801 296.145 341.368 296.044 340.928 296.032C338.3 296.032 335.55 299.77 334.796 301.885C334.796 302.002 334.49 303.231 334.315 304.135C334.315 303.599 334.315 303.056 334.315 302.546C334.315 300.631 334.446 298.875 334.569 297.328C334.648 296.492 334.735 295.655 334.832 294.911C335.594 294.41 338.66 292.344 339.606 290.864C340.552 289.384 341.279 287.344 340.587 285.688C340.438 285.294 340.204 284.934 339.9 284.632C339.596 284.33 339.229 284.092 338.822 283.935C338.416 283.777 337.979 283.703 337.541 283.716C337.102 283.73 336.671 283.832 336.277 284.016C333.921 285.178 333.299 289.702 333.693 291.926C333.693 292.118 334.569 295.079 334.656 295.053H334.7C334.595 295.764 334.49 296.533 334.402 297.37C334.236 298.925 334.069 300.673 334.026 302.596C333.951 304.665 334.001 306.737 334.175 308.801C334.367 311.11 334.771 313.399 335.383 315.641V315.724C334.963 315.097 333.737 313.391 333.631 313.266C332.081 311.594 328.034 309.127 325.599 310.113C325.198 310.288 324.84 310.541 324.548 310.857C324.257 311.172 324.038 311.543 323.907 311.945C323.775 312.346 323.734 312.77 323.785 313.188C323.837 313.605 323.98 314.008 324.206 314.37C325.064 315.724 327.219 316.494 328.971 316.745Z" fill="#901100" fill-opacity="0.7"/>
<path d="M374.416 304.853C374.416 304.853 375.292 301.901 375.292 301.709C375.625 299.476 374.872 294.969 372.489 293.865C372.088 293.692 371.652 293.601 371.212 293.6C370.771 293.598 370.335 293.685 369.932 293.856C369.53 294.027 369.169 294.276 368.875 294.589C368.58 294.902 368.358 295.271 368.223 295.671C367.584 297.344 368.39 299.409 369.353 300.822C370.474 302.486 374.372 304.853 374.416 304.853Z" fill="#901100" fill-opacity="0.7"/>
<path d="M290.569 129.815C290.569 129.815 290.84 120.375 296.543 117.699C302.245 115.023 302.569 123.862 302.569 123.862C302.569 123.862 315.613 115.951 318.442 121.947C321.271 127.942 317.321 130.844 317.321 130.844C317.321 130.844 328.901 130.459 329.707 136.522C330.513 142.584 324.53 145.553 324.53 145.553C324.53 145.553 331.687 151.13 329.173 153.706C326.659 156.281 321.157 156.465 321.157 156.465C321.157 156.465 324.276 162.444 318.836 164.568C313.396 166.692 307.177 162.737 307.177 162.737C307.177 162.737 308.141 165.48 304.059 164.786C299.976 164.091 295.851 162.277 293.319 156.557C290.788 150.838 287.52 134.64 290.569 129.815Z" fill="#901100" fill-opacity="0.7" stroke="#901100" stroke-opacity="0.7" stroke-linecap="round" stroke-linejoin="round"/>
<path d="M230.354 312.153C230.354 312.153 227.105 323.994 227.157 325.307C227.21 326.619 226.08 329.596 227.034 330.441C228.822 331.832 230.716 333.093 232.702 334.212C233.511 334.202 234.301 333.973 234.98 333.552C235.199 333.364 235.375 333.134 235.497 332.878C235.619 332.622 235.685 332.344 235.689 332.063C235.689 331.62 234.384 329.764 234.209 329.329C234.033 328.894 236.6 323.233 237.572 320.415C238.301 317.899 238.822 315.332 239.132 312.738L230.354 312.153Z" fill="white" stroke="#901100" stroke-opacity="0.7" stroke-miterlimit="10"/>
<path d="M233.884 320.396C233.884 320.396 232.036 324.577 231.913 325.296C231.791 326.015 229.286 328.022 229.618 329.628C229.951 331.233 233.648 330.807 235.47 326.057" fill="white"/>
<path d="M233.884 320.396C233.884 320.396 232.036 324.577 231.913 325.296C231.791 326.015 229.286 328.022 229.618 329.628C229.951 331.233 233.648 330.807 235.47 326.057" stroke="#901100" stroke-opacity="0.7" stroke-miterlimit="10"/>
<path d="M242.162 247.831C242.162 247.831 240.612 271.981 240.025 274.113C239.438 276.245 232.395 295.72 230.845 301.708C229.894 305.415 229.218 309.182 228.821 312.98L238.273 314.878L243.581 292.618C243.581 292.618 250.519 272.332 249.109 262.824C248.386 257.284 245.97 252.069 242.162 247.831Z" fill="#901100" fill-opacity="0.7" stroke="#901100" stroke-opacity="0.7" stroke-miterlimit="10"/>
<path d="M291.4 361.913C291.514 356.662 291.742 349.579 292.276 345.524C293.152 338.516 296.288 334.185 299.512 325.455C302.735 316.725 303.016 305.252 303.016 305.252L245.289 307.175C245.289 307.175 238.597 330.865 234.541 348.291C233.44 352.762 232.798 357.324 232.623 361.913" fill="#901100" fill-opacity="0.7"/>
<path d="M291.4 361.913C291.514 356.662 291.742 349.579 292.276 345.524C293.152 338.516 296.288 334.185 299.512 325.455C302.735 316.725 303.016 305.252 303.016 305.252L245.289 307.175C245.289 307.175 238.597 330.865 234.541 348.291C233.44 352.762 232.798 357.324 232.623 361.913" stroke="#901100" stroke-opacity="0.7" stroke-miterlimit="10"/>
<path d="M252.849 316.053L300.878 317.341L301.894 313.795L252.849 316.053Z" fill="#901100" fill-opacity="0.7" stroke="#901100" stroke-opacity="0.7" stroke-linecap="round" stroke-linejoin="round"/>
<path d="M250.423 361.076C250.423 361.076 249.477 332.402 249.45 316.841L250.423 361.076Z" fill="white"/>
<path d="M250.423 361.076C250.423 361.076 249.477 332.402 249.45 316.841" stroke="#901100" stroke-opacity="0.7" stroke-miterlimit="10"/>
<path d="M287.239 187.171L294.247 191.67C294.247 191.67 302.543 198.744 304.584 204.598C306.625 210.451 305.144 245.212 303.086 256.443C301.027 267.673 306.169 281.662 308 289.556C309.831 297.45 310.628 312.134 310.628 312.134C310.628 312.134 311.924 313.856 289.429 314.6C266.934 315.345 251.246 316.465 249.406 316.816C248.295 317.034 247.167 317.171 246.034 317.226L245.158 309.6L242.977 315.88L238.308 314.86C238.308 314.86 241.207 301.213 241.934 295.895C242.661 290.576 247.251 272.481 247.313 265.674C247.374 258.868 241.417 247.913 240.252 241.173C239.087 234.434 241.435 222.877 247.26 214.147C253.085 205.417 256.992 202.039 268.38 193.125C279.767 184.211 287.239 187.171 287.239 187.171Z" fill="#901100" fill-opacity="0.7" stroke="#901100" stroke-opacity="0.7" stroke-miterlimit="10"/>
<path d="M268.984 289.065L292.486 291.607L291.164 285.737L276.5 284.533" stroke="#901100" stroke-opacity="0.7" stroke-miterlimit="10"/>
<path d="M260.768 284.207L259.577 288.053L265.472 288.689" stroke="#901100" stroke-opacity="0.7" stroke-miterlimit="10"/>
<path d="M269.589 245.764C268.484 244.788 267.47 243.722 266.558 242.578" stroke="#901100" stroke-opacity="0.7" stroke-miterlimit="10"/>
<path d="M277.762 252.354C277.762 252.354 275.283 250.564 272.567 248.34" stroke="#901100" stroke-opacity="0.7" stroke-miterlimit="10"/>
<path d="M287.239 187.174C287.239 187.174 279.767 184.205 268.38 193.128C256.992 202.05 253.094 205.437 247.243 214.15C243.747 219.536 241.423 225.54 240.41 231.802C240.55 232.454 240.699 233.115 240.866 233.792C244.124 246.937 247.751 253.292 247.751 253.292C247.751 253.292 254.058 223.34 265.034 211.198C276.01 199.056 294.238 191.673 294.238 191.673L287.239 187.174Z" fill="#901100" fill-opacity="0.7" stroke="#901100" stroke-opacity="0.7" stroke-miterlimit="10"/>
<path d="M259.848 128.744C259.848 128.744 251.623 136.078 251.01 141.856C250.396 147.634 249.757 152.618 248.732 154.483C247.707 156.347 242.539 157.568 244.291 160.386C246.043 163.204 247.681 163.146 247.681 163.146C247.681 163.146 250.309 175.614 252.306 177.361C254.303 179.109 261.372 178.105 261.372 178.105L263.562 193.224C263.562 193.224 248.855 205.675 245.99 223.026C243.126 240.378 246.402 250.278 246.402 250.278C246.402 250.278 248.32 222.943 254.943 212.708C261.565 202.472 276.947 192.781 279.216 191.033C281.485 189.286 287.24 187.153 287.24 187.153C287.24 187.153 284.507 181.3 284.139 178.657C283.771 176.015 283.893 172.127 284.41 171.065C284.927 170.003 294.116 166.817 297.55 156.766C300.984 146.714 295.929 134.849 290.542 129.798C285.155 124.747 266.733 122.239 259.848 128.744Z" fill="white" stroke="#901100" stroke-opacity="0.7" stroke-miterlimit="10"/>
<path d="M297.585 156.784C301.089 146.75 295.964 134.867 290.577 129.817C285.19 124.766 266.742 122.241 259.857 128.746C259.857 128.746 259.419 129.139 258.736 129.817C261.352 129.192 264.079 129.107 266.733 129.566C272.243 130.402 272.12 134.583 270.622 138.589C269.125 142.594 270.255 143.305 273.066 145.278C275.878 147.252 272.996 151.04 274.976 152.545C276.956 154.05 278.567 145.855 282.86 151.759C287.152 157.662 284.27 160.338 281.59 161.994C280.088 162.951 278.459 163.71 276.745 164.252C276.745 164.252 280.801 168.792 284.804 170.665C286.723 169.302 294.466 165.815 297.585 156.784Z" fill="#901100" fill-opacity="0.7" stroke="#901100" stroke-opacity="0.7" stroke-linecap="round" stroke-linejoin="round"/>
<path d="M252.139 165.355C252.139 165.355 257.877 164.904 260.531 162.462" stroke="#901100" stroke-opacity="0.7" stroke-miterlimit="10"/>
<path d="M255.784 152.419C255.828 153.715 255.311 154.785 254.636 154.811C253.962 154.836 253.366 153.799 253.314 152.503C253.261 151.206 253.787 150.136 254.461 150.111C255.136 150.086 255.731 151.123 255.784 152.419Z" fill="#901100" fill-opacity="0.7"/>
<path d="M253.313 147.126C253.313 147.126 255.161 144.751 257.807 147.553" stroke="#901100" stroke-opacity="0.7" stroke-miterlimit="10"/>
<path d="M261.372 178.125L268.213 175.666L263.448 183.836L261.372 178.125Z" fill="#901100" fill-opacity="0.7" stroke="#901100" stroke-opacity="0.7" stroke-miterlimit="10"/>
<path d="M241.671 298.144L232.701 334.209L240.752 335.998L245.184 309.625L241.671 298.144Z" fill="white" stroke="#901100" stroke-opacity="0.7" stroke-miterlimit="10"/>
<path d="M249.599 211.8C247.877 215.378 246.663 219.161 245.99 223.047C243.126 240.389 246.402 250.298 246.402 250.298C246.402 250.298 248.303 223.331 254.811 212.945C253.034 212.754 251.285 212.369 249.599 211.8Z" fill="white" stroke="#901100" stroke-opacity="0.7" stroke-miterlimit="10"/>
<path d="M277.315 223.053L276.702 253.658L220.596 262.489L221.823 276.913C221.823 276.913 252.963 277.499 267.452 276.319C281.94 275.14 294.607 274.262 296.429 272.791C298.251 271.319 303.533 242.871 305.688 222.861C307.843 202.851 303.533 196.102 294.905 197.256" fill="#901100" fill-opacity="0.7"/>
<path d="M277.315 223.053L276.702 253.658L220.596 262.489L221.823 276.913C221.823 276.913 252.963 277.499 267.452 276.319C281.94 275.14 294.607 274.262 296.429 272.791C298.251 271.319 303.533 242.871 305.688 222.861C307.843 202.851 303.533 196.102 294.905 197.256" stroke="#901100" stroke-opacity="0.7" stroke-miterlimit="10"/>
<path d="M187.029 261.194L182.535 274.206L186.915 276.48C186.915 276.48 192.477 280.594 195.526 282.819C198.574 285.043 200.913 285.043 202.533 284.357C204.154 283.671 211.503 273.737 212.397 271.856C213.29 269.974 208.989 264.33 204.688 261.922C200.387 259.514 196.805 259.53 194.282 260.249C191.894 260.746 189.469 261.061 187.029 261.194Z" fill="white" stroke="#901100" stroke-opacity="0.7" stroke-miterlimit="10"/>
<path d="M220.595 262.488L213.5 261.903C211.274 261.349 209.008 260.954 206.72 260.724C204.872 260.724 202.401 262.488 201.166 263.375C199.931 264.261 186.371 278.384 186.371 278.384C186.371 278.384 187.606 280.734 189.455 280.149C191.303 279.564 194.71 278.083 194.71 278.083C194.71 278.083 191.014 281.621 192.862 283.385C194.71 285.149 197.794 285.149 197.794 285.149L199.957 283.97C200.867 284.655 201.913 285.156 203.032 285.442C204.574 285.735 207.044 285.149 209.164 283.97C211.284 282.791 216.794 276.654 216.794 276.654L221.524 274.906L220.595 262.488Z" fill="white" stroke="#901100" stroke-opacity="0.7" stroke-miterlimit="10"/>
<path d="M189.473 261.752C189.473 261.752 198.443 256.785 202.384 258.156C206.326 259.527 211.538 267.914 210.102 269.119C208.665 270.323 206.335 269.796 205.082 268.6C204.035 267.692 202.893 266.888 201.675 266.2C199.313 267.467 196.666 268.172 193.958 268.257" fill="white"/>
<path d="M189.473 261.752C189.473 261.752 198.443 256.785 202.384 258.156C206.326 259.527 211.538 267.914 210.102 269.119C208.665 270.323 206.335 269.796 205.082 268.6C204.035 267.692 202.893 266.888 201.675 266.2C199.313 267.467 196.666 268.172 193.958 268.257" stroke="#901100" stroke-opacity="0.7" stroke-miterlimit="10"/>
<path d="M216.224 281.194L213.378 279.739C213.148 279.623 212.945 279.465 212.78 279.273C212.615 279.082 212.491 278.862 212.415 278.625C212.34 278.388 212.314 278.139 212.339 277.893C212.364 277.646 212.44 277.407 212.563 277.188C212.685 276.97 212.851 276.777 213.052 276.62C213.252 276.463 213.483 276.346 213.732 276.274C213.98 276.203 214.24 276.179 214.498 276.204C214.756 276.229 215.006 276.302 215.235 276.419L218.082 277.866C218.543 278.102 218.888 278.502 219.04 278.98C219.193 279.458 219.141 279.974 218.896 280.416C218.649 280.856 218.229 281.186 217.728 281.331C217.228 281.477 216.687 281.428 216.224 281.194Z" fill="white" stroke="#901100" stroke-opacity="0.7" stroke-miterlimit="10"/>
<path d="M213.711 284.102L210.864 282.647C210.414 282.411 210.077 282.018 209.925 281.55C209.773 281.082 209.818 280.575 210.049 280.138C210.297 279.71 210.71 279.391 211.2 279.247C211.69 279.104 212.22 279.147 212.677 279.369L215.524 280.815C215.975 281.05 216.313 281.443 216.466 281.912C216.618 282.38 216.572 282.887 216.338 283.324C216.093 283.755 215.681 284.078 215.19 284.223C214.699 284.368 214.168 284.325 213.711 284.102Z" fill="white" stroke="#901100" stroke-opacity="0.7" stroke-miterlimit="10"/>
<path d="M210.837 286.672L207.991 285.217C207.761 285.102 207.558 284.943 207.393 284.752C207.228 284.561 207.105 284.34 207.03 284.103C206.955 283.866 206.93 283.617 206.957 283.37C206.983 283.124 207.061 282.885 207.185 282.667C207.307 282.449 207.473 282.256 207.674 282.099C207.874 281.942 208.105 281.825 208.353 281.753C208.601 281.682 208.862 281.658 209.12 281.683C209.378 281.707 209.628 281.78 209.856 281.898L212.703 283.353C212.932 283.469 213.134 283.628 213.298 283.819C213.463 284.011 213.586 284.231 213.66 284.468C213.735 284.705 213.76 284.954 213.735 285.2C213.709 285.446 213.632 285.685 213.509 285.903C213.387 286.121 213.221 286.314 213.02 286.471C212.82 286.628 212.589 286.745 212.34 286.817C212.092 286.888 211.832 286.912 211.574 286.888C211.316 286.863 211.066 286.79 210.837 286.672Z" fill="white" stroke="#901100" stroke-opacity="0.7" stroke-miterlimit="10"/>
<path d="M204.793 286.796L204.049 286.42C203.819 286.304 203.616 286.146 203.451 285.955C203.286 285.764 203.162 285.544 203.086 285.307C203.011 285.07 202.985 284.821 203.01 284.574C203.036 284.328 203.112 284.088 203.234 283.87C203.481 283.429 203.901 283.1 204.402 282.954C204.902 282.809 205.443 282.858 205.906 283.092L206.65 283.477C206.88 283.593 207.083 283.751 207.248 283.942C207.413 284.133 207.537 284.353 207.613 284.59C207.688 284.827 207.714 285.076 207.689 285.323C207.664 285.569 207.588 285.809 207.465 286.027C207.343 286.245 207.177 286.438 206.976 286.595C206.776 286.752 206.545 286.869 206.296 286.941C206.048 287.012 205.788 287.036 205.53 287.012C205.272 286.987 205.022 286.914 204.793 286.796Z" fill="white" stroke="#901100" stroke-opacity="0.7" stroke-miterlimit="10"/>
<path d="M187.029 261.193L149.379 246L150.772 269.806L181.86 276.605L187.029 261.193Z" fill="#901100" fill-opacity="0.7" stroke="#901100" stroke-opacity="0.7" stroke-linecap="round" stroke-linejoin="round"/>
<path d="M181.86 276.603L187.028 261.192L181.764 258.968L181.659 259.478L176.841 275.441L181.86 276.603Z" fill="white" stroke="#901100" stroke-opacity="0.7" stroke-miterlimit="10"/>
<path d="M128.225 165.965L137.86 170.238C137.86 170.238 141.907 181.184 140.558 181.501C139.209 181.819 129.092 174.101 129.092 174.101L128.225 165.965Z" fill="white" stroke="#901100" stroke-opacity="0.7" stroke-linecap="round" stroke-linejoin="round"/>
<path d="M133.822 163.775L134.497 160.088C134.497 160.088 143.431 160.673 147.005 160.648C150.579 160.623 153.698 160.188 153.672 156.567C153.645 152.946 151.56 140.596 151.56 140.596C151.56 140.596 155.572 139.718 157.123 138.003C158.673 136.289 156.431 134.174 154.407 131.623C152.384 129.073 150.571 126.322 150.334 123.336C150.098 120.351 144.667 110.584 144.667 110.584C144.667 110.584 145.543 109.088 142.626 105.91C139.709 102.732 124.747 102.18 115.173 106.746C105.598 111.312 103.417 117.901 103.461 125.143C103.505 132.384 107.841 142.594 107.841 142.594C107.841 142.594 105.011 153.691 104.792 154.301C104.573 154.911 102.033 159.669 102.033 159.669C102.033 159.669 114.008 167.638 118.379 171.217C122.75 174.796 132.622 180.917 132.683 177.606C132.745 174.295 133.139 166.819 133.139 166.819L133.822 163.775Z" fill="white" stroke="#901100" stroke-opacity="0.7" stroke-linecap="round" stroke-linejoin="round"/>
<path d="M147.023 129.189C147.076 130.427 146.778 131.439 146.349 131.456C145.92 131.472 145.517 130.494 145.473 129.256C145.429 128.019 145.709 127.007 146.147 126.99C146.585 126.973 146.962 127.952 147.023 129.189Z" fill="#901100" fill-opacity="0.7"/>
<path d="M140.742 125.102C140.742 125.102 142.731 121.891 147.882 123.781" stroke="#901100" stroke-opacity="0.7" stroke-width="2" stroke-linecap="round" stroke-linejoin="round"/>
<path d="M153.671 156.567C153.671 152.938 151.56 140.596 151.56 140.596C151.56 140.596 149.099 139.333 144.412 140.42C139.726 141.507 138.447 148.782 137.553 149.618C136.66 150.454 130.835 145.437 128.575 142C126.315 138.564 124.72 132.685 124.475 129.248C124.23 125.812 132.701 124.081 134.023 120.886C135.346 117.692 129.1 114.289 131.281 112.156C133.463 110.024 137.974 110.844 140.208 111.253C141.73 111.45 143.28 111.217 144.666 110.584C144.666 110.584 145.542 109.088 142.625 105.91C139.708 102.732 124.747 102.18 115.172 106.746C105.598 111.312 103.417 117.901 103.461 125.143C103.504 130.996 106.343 138.823 107.411 141.582C108.316 141.956 109.29 142.149 110.276 142.151C111.152 141.934 111.817 139.375 112.247 136.808C112.676 134.24 119.132 131.23 119.132 131.23C119.132 131.23 120.297 138.898 120.306 140.387C120.314 141.875 119.43 149.342 123.739 152.93C127.114 155.6 130.711 158.002 134.496 160.113C134.496 160.113 143.431 160.698 147.005 160.673C150.579 160.648 153.698 160.188 153.671 156.567Z" fill="#901100" fill-opacity="0.6" stroke="#901100" stroke-opacity="0.7" stroke-linecap="round" stroke-linejoin="round"/>
<path d="M120.507 136.515C120.507 136.515 118.65 126.296 115.532 126.74C112.413 127.183 110.644 131.029 112.238 135.938C113.832 140.846 116.96 140.386 118.738 139.952" fill="white"/>
<path d="M120.507 136.515C120.507 136.515 118.65 126.296 115.532 126.74C112.413 127.183 110.644 131.029 112.238 135.938C113.832 140.846 116.96 140.386 118.738 139.952" stroke="#901100" stroke-opacity="0.7" stroke-linecap="round" stroke-linejoin="round"/>
<path d="M142.433 144.266C142.433 144.266 144.229 146.39 148.915 146.365" stroke="white" stroke-linecap="round" stroke-linejoin="round"/>
<path d="M92.31 361.915H139.612C139.77 359.54 141.61 350.409 141.61 344.422C141.61 337.506 146.594 292.895 146.594 292.895L85.0745 292.126L87.0893 319.428L92.31 361.915Z" fill="#901100" fill-opacity="0.7" stroke="#901100" stroke-opacity="0.7" stroke-linecap="round" stroke-linejoin="round"/>
<path d="M98.4418 161.225C98.4418 161.225 87.6586 174.429 84.619 181.829C81.5793 189.23 79.223 190.517 79.8975 199.849C80.572 209.181 85.3022 246.518 85.3022 246.518L75.8593 295.126C87.0046 298.938 98.7525 300.895 110.591 300.913C130.143 300.913 138.623 299.307 139.928 298.663C141.233 298.02 153.067 295.126 153.067 295.126C153.067 295.126 153.067 240.087 149.353 221.097C145.639 202.107 140.926 187.649 139.244 184.079C137.563 180.508 132.158 168.952 132.158 168.952L98.4418 161.225Z" fill="#901100" fill-opacity="0.7" stroke="#901100" stroke-opacity="0.7" stroke-linecap="round" stroke-linejoin="round"/>
<path d="M139.271 184.079C137.58 180.541 132.184 168.952 132.184 168.952L98.4419 161.225C98.4419 161.225 96.1643 164.018 93.405 167.756C100.754 171.828 118.948 181.896 120.026 182.147C121.375 182.473 128.12 181.829 128.12 181.829L125.106 185.366C125.106 185.366 133.2 191.487 135.898 194.054C137.317 195.409 141.434 198.988 145.026 202.082C142.582 192.834 140.322 186.303 139.271 184.079Z" fill="#901100" fill-opacity="0.7" stroke="#901100" stroke-opacity="0.7" stroke-linecap="round" stroke-linejoin="round"/>
<path d="M123.757 176.033L135.223 184.721L144.658 200.818L138.596 177.321L126.122 170.564L123.757 176.033Z" fill="white" stroke="#901100" stroke-opacity="0.7" stroke-linecap="round" stroke-linejoin="round"/>
<path d="M100.833 155.113L136.135 170.298V182.206L95.7703 162.513L100.833 155.113Z" fill="white" stroke="#901100" stroke-opacity="0.7" stroke-linecap="round" stroke-linejoin="round"/>
<path d="M147.514 276.92H86.5109V324.04H147.514V276.92Z" fill="#901100" fill-opacity="0.7" stroke="#901100" stroke-opacity="0.7" stroke-miterlimit="10"/>
<path d="M120.753 299.382C120.753 299.382 125.29 305.026 127.068 305.595C128.565 306.182 129.803 307.246 130.572 308.605C131.361 309.734 132.324 318.205 132.937 318.773C133.55 319.342 133.533 320.655 131.361 319.71C129.188 318.765 127.857 315.529 127.857 315.529L128.645 323.055C128.645 323.055 130.397 323.431 129.039 324.376C127.681 325.321 126.473 326.634 125.29 326.048C124.238 325.45 123.249 324.756 122.338 323.975C120.929 324.426 119.429 324.555 117.958 324.351C115.795 323.975 116.206 324.727 114.218 323.406C112.229 322.085 112.238 323.598 111.257 321.148C109.729 316.764 108.477 312.296 107.508 307.769C107.114 305.319 106.719 301.916 106.719 301.916L120.753 299.382Z" fill="white" stroke="#901100" stroke-opacity="0.7" stroke-linecap="round" stroke-linejoin="round"/>
<path d="M121.55 295.801L122.925 301.638L105.967 303.895L105.178 298.059L121.55 295.801Z" fill="white" stroke="#901100" stroke-opacity="0.7" stroke-linecap="round" stroke-linejoin="round"/>
<path d="M99.8169 172.823C99.8169 172.823 88.0176 176.36 87.6847 181.511C87.3518 186.662 83.4362 249.135 85.1268 253.316C86.8175 257.497 103.4 299.868 103.4 299.868L122.618 297.618C122.618 297.618 112.772 248.483 112.457 247.513C112.142 246.543 119.062 191.805 119.062 191.805" fill="#901100" fill-opacity="0.7"/>
<path d="M99.8169 172.823C99.8169 172.823 88.0176 176.36 87.6847 181.511C87.3518 186.662 83.4362 249.135 85.1268 253.316C86.8175 257.497 103.4 299.868 103.4 299.868L122.618 297.618C122.618 297.618 112.772 248.483 112.457 247.513C112.142 246.543 119.062 191.805 119.062 191.805" stroke="#901100" stroke-opacity="0.7" stroke-linecap="round" stroke-linejoin="round"/>
<path d="M116.776 207.527L112.431 247.515L116.574 272.358" stroke="white" stroke-linecap="round" stroke-linejoin="round"/>
<path d="M117.442 201.404L117.214 203.528" stroke="white" stroke-linecap="round" stroke-linejoin="round"/>
<path d="M86.327 195.215L85.0306 232.761" stroke="white" stroke-linecap="round" stroke-linejoin="round"/>
<path d="M130.406 265.801L143.37 265.35L144.535 269.807L123.057 271.12" stroke="white" stroke-linecap="round" stroke-linejoin="round"/>
<path d="M119.605 266.168L126.508 265.934" stroke="white" stroke-linecap="round" stroke-linejoin="round"/>
<path d="M96.2691 168.817L120.052 182.146L128.146 181.828L125.106 185.366L140.777 197.281" stroke="white" stroke-linecap="round" stroke-linejoin="round"/>
<path d="M107.63 17.3115V73.8305" stroke="#901100" stroke-opacity="0.7" stroke-miterlimit="10"/>
<path d="M198.574 17.3115V73.8305" stroke="#901100" stroke-opacity="0.7" stroke-miterlimit="10"/>
<path d="M289.517 17.3115V73.8305" stroke="#901100" stroke-opacity="0.7" stroke-miterlimit="10"/>
</svg>
