<svg width="1440" height="250" viewBox="0 0 1440 250" fill="none" xmlns="http://www.w3.org/2000/svg">
<path d="M189.674 37.5231C222.09 49.5655 248.952 87.662 279.73 115.996C309.338 143.254 334.21 131.516 363.88 112.87C415.796 80.246 467.732 41.9709 521.116 36.8983C571.576 32.1049 621.762 25.8951 672.156 16.2076C721.243 6.77058 774.885 -16.3326 822.734 24.1189C868.182 62.5378 905.347 122.525 954.188 116.661C1003.11 110.788 1051.15 79.7824 1099.41 58.7261C1152.89 35.3984 1203.58 28.5293 1256.39 67.383C1318.51 113.077 1376.22 185.28 1441 195.618" stroke="url(#paint0_linear_821_639)" stroke-width="0.75" stroke-miterlimit="10" stroke-linecap="round" stroke-linejoin="round"/>
<path d="M182.377 48.0437C214.38 59.6255 242.3 95.6751 273.957 122.829C303.889 148.503 329.032 137.134 358.939 118.991C399.571 94.3422 440.061 66.699 479.724 52.506C492.194 48.0091 504.678 44.448 517.224 42.6083C567.079 35.2959 616.432 25.0758 666.516 15.6302C715.477 6.41191 768.011 -8.5411 815.713 31.539C859.261 68.0722 897.615 118.162 942.196 121.248C944.429 121.395 946.701 121.415 949.012 121.246C997.108 117.705 1047.48 87.0586 1095.95 66.4427C1143.18 46.2732 1188.47 34.2538 1235.02 58.1918C1241.13 61.3327 1247.25 64.9918 1253.4 69.2382C1316.99 113.199 1374.86 185.425 1441 195.622" stroke="url(#paint1_linear_821_639)" stroke-width="0.75" stroke-miterlimit="10" stroke-linecap="round" stroke-linejoin="round"/>
<path d="M175.082 58.5603C206.675 69.6814 235.626 103.687 268.189 129.655C298.418 153.763 323.862 142.757 354.002 125.106C395.648 100.713 437.005 73.7149 476.022 59.4384C488.475 54.8811 500.876 50.7959 513.334 48.3114C562.576 38.4972 611.105 24.2495 660.88 15.0428C709.717 6.04622 761.14 -0.756601 808.693 38.9463C852.514 75.4249 893.439 119.599 937.123 125.426C939.308 125.716 941.549 125.878 943.84 125.82C991.095 124.594 1043.82 94.3277 1092.48 74.1466C1139.61 54.4636 1185.03 38.1575 1231.74 60.5899C1237.95 63.5725 1244.17 67.0387 1250.41 71.0864C1315.5 113.303 1373.51 185.563 1441 195.619" stroke="url(#paint2_linear_821_639)" stroke-width="0.75" stroke-miterlimit="10" stroke-linecap="round" stroke-linejoin="round"/>
<path d="M167.787 69.0797C198.968 79.7431 228.926 111.71 262.418 136.483C292.917 159.045 318.694 148.393 349.061 131.221C391.724 107.096 433.933 80.6759 472.316 66.3706C484.749 61.7384 497.068 57.1466 509.439 54.0173C558.061 41.7186 605.773 23.426 655.238 14.4611C703.948 5.68621 754.262 7.03352 801.668 46.3622C845.763 82.7861 889.256 120.972 932.044 129.614C934.18 130.046 936.387 130.351 938.661 130.403C985.058 131.463 1040.15 101.603 1089.02 81.8591C1136.02 62.6597 1181.59 42.0496 1228.44 62.9965C1234.76 65.8207 1241.09 69.0912 1247.42 72.9403C1314 113.4 1372.15 185.707 1440.99 195.619" stroke="url(#paint3_linear_821_639)" stroke-width="0.75" stroke-miterlimit="10" stroke-linecap="round" stroke-linejoin="round"/>
<path d="M160.49 79.5958C191.258 89.7986 222.197 119.742 256.645 143.309C287.39 164.345 313.531 154.033 344.119 137.335C387.808 113.486 430.86 87.6279 468.613 73.3025C481.023 68.5926 493.261 63.4999 505.549 59.7199C553.543 44.954 600.448 22.5993 649.602 13.8762C698.188 5.32015 747.394 14.8177 794.651 53.775C839.018 90.1441 885.078 122.333 926.972 133.797C929.06 134.367 931.233 134.819 933.489 134.983C979.008 138.302 1036.48 108.874 1085.55 89.5684C1132.45 70.8555 1178.18 45.9213 1225.16 65.397C1231.58 68.06 1238 71.1405 1244.43 74.7881C1312.53 113.478 1370.81 185.845 1441 195.616" stroke="url(#paint4_linear_821_639)" stroke-width="0.75" stroke-miterlimit="10" stroke-linecap="round" stroke-linejoin="round"/>
<path d="M153.197 90.1144C183.555 99.8566 215.449 127.791 250.878 150.139C281.847 169.676 308.376 159.686 339.184 143.455C383.9 119.894 427.795 94.5853 464.913 80.2398C477.304 75.4522 489.455 69.8642 501.661 65.4279C549.023 48.2149 595.123 21.7779 643.966 13.2967C692.428 4.96228 740.522 22.6099 787.631 61.193C832.271 97.5074 880.893 123.694 921.9 137.985C923.938 138.696 926.076 139.289 928.317 139.568C972.944 145.113 1032.86 116.304 1082.09 97.2858C1128.9 79.2034 1174.77 49.7781 1221.87 67.8087C1228.41 70.3105 1234.93 73.1951 1241.44 76.6469C1311.07 113.552 1369.45 185.993 1441 195.623" stroke="url(#paint5_linear_821_639)" stroke-width="0.75" stroke-miterlimit="10" stroke-linecap="round" stroke-linejoin="round"/>
<path d="M145.904 100.634C175.849 109.918 208.68 135.86 245.109 156.968C276.28 175.03 303.224 165.346 334.245 149.569C379.994 126.305 424.721 101.532 461.211 87.1721C473.58 82.3039 485.649 76.2293 497.771 71.1337C544.498 51.4909 589.795 20.9544 638.33 12.7121C686.666 4.59939 733.65 30.3944 780.613 68.606C825.526 104.869 876.705 125.041 916.827 142.168C918.817 143.017 920.92 143.754 923.144 144.148C966.866 151.881 1029.2 123.602 1078.63 104.995C1125.33 87.4168 1171.38 53.6099 1218.58 70.2125C1225.23 72.5502 1231.85 75.2448 1238.45 78.5008C1309.62 113.606 1368.1 186.137 1441 195.626" stroke="url(#paint6_linear_821_639)" stroke-width="0.75" stroke-miterlimit="10" stroke-linecap="round" stroke-linejoin="round"/>
<path d="M138.607 111.152C168.14 119.976 201.884 143.952 239.336 163.796C270.689 180.41 298.072 171.011 329.304 155.686C376.091 132.727 421.647 108.475 457.506 94.1065C469.852 89.1577 481.836 82.5995 493.877 76.8388C539.967 54.7865 584.463 20.1303 632.688 12.1298C680.899 4.23587 726.775 38.1839 773.589 76.0212C818.773 112.229 872.512 126.382 911.748 146.353C913.689 147.34 915.754 148.218 917.966 148.728C960.771 158.614 1025.53 130.893 1075.16 112.704C1121.75 95.6295 1167.98 57.4207 1215.29 72.6127C1222.05 74.7833 1228.77 77.2851 1235.46 80.3483C1308.18 113.637 1366.75 186.275 1441 195.619" stroke="url(#paint7_linear_821_639)" stroke-width="0.75" stroke-miterlimit="10" stroke-linecap="round" stroke-linejoin="round"/>
<path d="M131.312 121.668C160.435 130.031 195.075 152.066 233.567 170.624C265.089 185.818 292.924 176.686 324.364 161.8C372.194 139.154 418.573 115.412 453.802 101.038C466.128 96.0081 478.026 88.9721 489.986 82.5406C535.441 58.0988 579.136 19.3027 627.052 11.544C675.137 3.87175 719.844 46.0937 766.569 83.4302C811.968 119.707 868.32 127.708 906.676 150.532C908.568 151.657 910.598 152.674 912.794 153.304C954.677 165.303 1021.87 138.178 1071.7 120.413C1118.18 103.839 1164.6 61.2108 1212 75.0152C1218.87 77.016 1225.69 79.3277 1232.47 82.198C1306.74 113.653 1365.4 186.414 1441 195.618" stroke="url(#paint8_linear_821_639)" stroke-width="0.75" stroke-miterlimit="10" stroke-linecap="round" stroke-linejoin="round"/>
<path d="M124.016 132.185C152.725 140.09 188.246 160.214 227.794 177.45C259.469 191.254 287.777 182.367 319.423 167.915C368.298 145.595 415.498 122.348 450.098 107.971C462.402 102.858 474.216 95.3494 486.094 88.2443C530.916 61.4302 573.809 18.477 621.415 10.9602C669.375 3.5067 712.968 53.8904 759.549 90.844C805.217 127.075 864.131 129.03 901.602 154.715C903.445 155.979 905.437 157.134 907.619 157.885C948.575 171.954 1018.21 145.468 1068.23 128.123C1114.6 112.047 1161.22 64.9827 1208.71 77.4196C1215.7 79.2477 1222.61 81.3724 1229.47 84.0497C1305.31 113.656 1364.04 186.553 1441 195.619" stroke="url(#paint9_linear_821_639)" stroke-width="0.75" stroke-miterlimit="10" stroke-linecap="round" stroke-linejoin="round"/>
<path d="M116.721 142.708C145.02 150.153 181.406 168.396 222.023 184.282C253.84 196.728 282.633 188.059 314.484 174.036C364.408 152.053 412.422 129.284 446.395 114.909C458.677 109.713 470.408 101.741 482.202 93.9566C526.394 64.7905 568.479 17.66 615.774 10.3821C663.609 3.15031 706.091 61.687 752.527 98.2635C798.465 134.448 859.939 130.346 896.525 158.905C898.319 160.307 900.274 161.596 902.443 162.469C942.469 178.568 1014.54 152.755 1064.77 135.839C1111.02 120.258 1157.85 68.7403 1205.42 79.827C1212.52 81.4824 1219.53 83.4141 1226.48 85.9043C1303.89 113.643 1362.69 186.698 1441 195.619" stroke="url(#paint10_linear_821_639)" stroke-width="0.75" stroke-miterlimit="10" stroke-linecap="round" stroke-linejoin="round"/>
<path d="M109.426 153.226C137.312 160.21 174.555 176.608 216.254 191.109C248.204 202.222 277.495 193.755 309.545 180.152C360.52 158.514 409.345 136.208 442.693 121.843C454.953 116.563 466.602 108.128 478.312 99.6607C521.879 68.1568 563.152 16.8347 610.139 9.79866C657.849 2.78566 699.219 69.4783 745.507 105.678C791.716 141.811 855.751 131.651 891.452 163.089C893.198 164.626 895.115 166.054 897.271 167.05C936.372 185.141 1010.88 160.04 1061.3 143.55C1107.44 128.461 1154.49 72.4724 1202.13 82.2318C1209.35 83.7087 1216.46 85.4562 1223.49 87.7594C1302.47 113.612 1361.34 186.842 1441 195.623" stroke="url(#paint11_linear_821_639)" stroke-width="0.75" stroke-miterlimit="10" stroke-linecap="round" stroke-linejoin="round"/>
<path d="M102.133 163.742C129.607 170.269 167.699 184.853 210.485 197.938C242.559 207.746 272.355 199.458 304.607 186.267C356.636 164.986 406.271 143.129 438.991 128.775C451.229 123.406 462.799 114.519 474.422 105.364C517.369 71.5368 557.824 16.0085 604.5 9.21433C652.084 2.423 692.346 77.2687 738.487 113.091C784.966 149.175 851.571 132.947 886.378 167.272C888.075 168.947 889.956 170.508 892.094 171.63C930.277 191.67 1007.21 167.318 1057.84 151.259C1103.86 136.66 1151.12 76.1862 1198.84 84.6358C1206.17 85.9342 1213.38 87.4945 1220.5 89.6105C1301.05 113.56 1359.98 186.984 1441 195.623" stroke="url(#paint12_linear_821_639)" stroke-width="0.75" stroke-miterlimit="10" stroke-linecap="round" stroke-linejoin="round"/>
<path d="M94.8359 174.259C121.9 180.325 160.83 193.136 204.712 204.764C236.908 213.294 267.215 205.164 299.666 192.382C352.753 171.469 403.189 150.044 435.286 135.708C447.501 130.252 458.993 120.916 470.53 111.067C512.867 74.931 552.495 15.1823 598.86 8.62704C646.32 2.05738 685.472 85.0504 731.466 120.498C778.217 156.531 847.39 134.231 881.301 171.449C882.952 173.26 884.795 174.953 886.92 176.205C924.196 198.16 1003.55 174.59 1054.37 158.966C1100.28 144.854 1147.76 79.8799 1195.55 87.034C1203 88.1481 1210.31 89.5242 1217.51 91.4559C1299.64 113.485 1358.63 187.119 1441 195.615" stroke="url(#paint13_linear_821_639)" stroke-width="0.75" stroke-miterlimit="10" stroke-linecap="round" stroke-linejoin="round"/>
<path d="M87.541 184.779C114.192 190.385 153.961 201.46 198.943 211.594C231.257 218.874 262.08 210.882 294.727 198.497C348.872 177.962 400.111 156.961 431.584 142.644C443.775 137.099 455.194 127.317 466.64 116.777C508.374 78.3465 547.169 14.3629 593.225 8.04944C640.558 1.69858 678.601 92.8417 724.446 127.918C771.47 163.896 843.216 135.521 876.229 175.639C877.83 177.585 879.638 179.407 881.745 180.789C918.125 204.627 999.879 181.866 1050.91 166.68C1096.7 153.051 1144.4 83.5602 1192.26 89.4418C1199.83 90.3716 1207.23 91.5635 1214.52 93.311C1298.23 113.406 1357.28 187.264 1441 195.618" stroke="url(#paint14_linear_821_639)" stroke-width="0.75" stroke-miterlimit="10" stroke-linecap="round" stroke-linejoin="round"/>
<path d="M80.2441 195.3C106.485 200.447 147.088 209.821 193.17 218.423C225.601 224.477 256.942 216.603 289.786 204.616C344.991 184.466 397.028 163.871 427.878 149.58C440.045 143.943 451.393 133.72 462.745 122.484C503.883 81.7644 541.838 13.5402 587.585 7.46862C634.794 1.33944 671.73 100.63 717.424 135.335C764.721 171.258 839.047 136.806 871.152 179.826C872.705 181.907 874.477 183.859 876.569 185.373C912.068 211.062 996.209 189.139 1047.44 174.393C1093.12 161.248 1141.03 87.2228 1188.97 91.8492C1196.65 92.5891 1204.15 93.5996 1211.53 95.1657C1296.82 113.306 1355.93 187.409 1441 195.622" stroke="url(#paint15_linear_821_639)" stroke-width="0.75" stroke-miterlimit="10" stroke-linecap="round" stroke-linejoin="round"/>
<path d="M72.9512 205.815C98.7792 210.502 140.219 218.217 187.403 225.25C219.954 230.101 251.811 222.328 284.848 210.732C341.116 190.98 393.95 170.776 424.179 156.513C436.321 150.782 447.6 140.127 458.857 128.188C499.409 85.1915 536.512 12.7152 581.949 6.88546C629.033 0.977957 664.861 108.413 710.406 142.749C757.979 178.615 834.886 138.086 866.082 184.013C867.588 186.229 869.325 188.308 871.399 189.958C906.035 217.471 992.547 196.409 1043.98 182.107C1089.54 169.44 1137.67 90.8716 1185.69 94.2543C1193.48 94.8042 1201.08 95.6333 1208.54 97.021C1295.41 113.189 1354.57 187.554 1441 195.623" stroke="url(#paint16_linear_821_639)" stroke-width="0.75" stroke-miterlimit="10" stroke-linecap="round" stroke-linejoin="round"/>
<path d="M65.6543 216.337C91.0698 220.563 133.35 226.658 181.63 232.082C214.303 235.753 246.673 228.063 279.907 216.85C337.239 197.506 390.865 177.679 420.473 163.446C432.591 157.622 443.804 146.533 454.963 133.894C494.936 88.6263 531.181 11.8921 576.309 6.30123C623.267 0.612522 657.99 116.192 703.382 150.16C751.23 185.965 830.726 139.361 861.003 188.193C862.463 190.545 864.164 192.75 866.22 194.532C900.014 223.851 988.875 203.667 1040.51 189.814C1085.96 177.622 1134.3 94.4993 1182.39 96.6556C1190.3 97.0097 1198 97.6603 1205.54 98.8694C1294 113.051 1353.22 187.692 1440.99 195.621" stroke="url(#paint17_linear_821_639)" stroke-width="0.75" stroke-miterlimit="10" stroke-linecap="round" stroke-linejoin="round"/>
<path d="M58.3594 226.849C83.3645 230.617 126.487 235.123 175.859 238.903C208.656 241.413 241.538 233.793 274.968 222.959C333.365 204.034 387.78 184.569 416.769 170.373C428.863 164.452 440.011 152.933 451.073 139.592C490.478 92.0587 525.853 11.0608 570.671 5.71179C617.505 0.244752 651.121 123.966 696.362 157.568C744.485 193.313 826.574 140.632 855.929 192.371C857.342 194.859 859.01 197.188 861.046 199.108C894.016 230.211 985.207 210.923 1037.05 197.519C1082.37 185.799 1130.94 100.399 1179.1 99.0544C1187.13 98.8299 1194.93 99.6849 1202.55 100.716C1292.59 112.896 1351.87 187.828 1441 195.616" stroke="url(#paint18_linear_821_639)" stroke-width="0.75" stroke-miterlimit="10" stroke-linecap="round" stroke-linejoin="round"/>
<path d="M51.0664 237.371C75.659 240.679 119.853 239.292 170.092 245.737C202.878 249.944 236.408 239.542 270.031 229.083C329.492 210.586 384.698 191.47 413.07 177.315C425.137 171.295 436.227 159.35 447.185 145.304C486.029 95.5077 520.53 10.2433 565.035 5.13613C611.742 -0.112108 644.305 131.638 689.344 164.99C737.797 200.547 822.426 141.913 850.858 196.563C852.222 199.186 853.862 201.638 855.876 203.697C888.045 236.571 981.542 218.189 1033.59 205.237C1078.8 193.989 1127.61 103.802 1175.82 101.464C1183.95 101.07 1191.85 101.718 1199.57 102.573C1291.18 112.735 1350.52 187.972 1441 195.621" stroke="url(#paint19_linear_821_639)" stroke-width="0.75" stroke-miterlimit="10" stroke-linecap="round" stroke-linejoin="round"/>
<path d="M43.7715 247.886C67.9537 250.733 112.893 248.266 164.321 252.561C197.323 255.316 231.276 245.284 265.091 235.193C325.62 217.134 381.61 198.352 409.366 184.242C421.406 178.122 432.439 165.757 443.293 151.002C481.587 98.9461 515.2 9.41224 559.397 4.5469C605.98 -0.479667 637.431 139.418 682.322 172.398C731.048 207.904 818.281 143.186 845.782 200.741C847.099 203.499 848.707 206.073 850.699 208.272C882.088 242.911 977.872 225.436 1030.12 212.945C1075.21 202.163 1124.2 105.297 1172.53 103.866C1180.78 103.621 1188.78 103.742 1196.57 104.425C1289.76 112.555 1349.17 188.114 1441 195.62" stroke="url(#paint20_linear_821_639)" stroke-width="0.75" stroke-miterlimit="10" stroke-linecap="round" stroke-linejoin="round"/>
<path d="M36.4766 258.408C60.2462 260.797 105.964 257.348 158.55 259.392C191.758 260.682 226.141 251.038 260.152 241.313C321.748 223.703 378.521 205.24 405.665 191.18C417.678 184.955 428.658 172.173 439.402 156.714C477.153 102.4 509.873 8.59401 553.759 3.96762C600.216 -0.837271 630.56 147.21 675.302 179.817C724.301 215.267 814.142 144.467 840.707 204.929C841.978 207.823 843.557 210.52 845.525 212.855C876.155 249.25 974.202 232.691 1026.66 220.657C1071.63 210.342 1120.82 108.875 1169.24 106.269C1177.61 105.82 1185.7 105.768 1193.58 106.275C1288.34 112.358 1347.81 188.255 1441 195.619" stroke="url(#paint21_linear_821_639)" stroke-width="0.75" stroke-miterlimit="10" stroke-linecap="round" stroke-linejoin="round"/>
<path d="M29.1797 268.925C52.5367 270.853 99.1244 269.365 152.779 266.218C186.149 264.261 221.007 256.79 255.211 247.428C317.873 230.275 375.43 212.121 401.959 198.112C413.943 191.784 424.874 178.582 435.508 162.417C472.722 105.846 504.541 7.76794 548.119 3.38337C594.452 -1.20272 623.685 154.998 668.28 187.227C717.552 222.623 810.004 145.745 835.633 209.11C836.857 212.138 838.41 214.957 840.351 217.433C870.245 255.584 970.534 239.934 1023.19 228.364C1068.05 218.509 1117.44 112.433 1165.95 108.671C1174.43 108.014 1182.62 107.79 1190.59 108.124C1286.92 112.148 1346.46 188.393 1441 195.616" stroke="url(#paint22_linear_821_639)" stroke-width="0.75" stroke-miterlimit="10" stroke-linecap="round" stroke-linejoin="round"/>
<path d="M21.8848 279.443C44.8315 280.911 92.3109 278.004 147.008 273.049C180.542 270.009 215.875 262.55 250.272 253.545C314.003 236.858 372.338 219.001 398.255 205.047C410.211 198.609 421.095 184.995 431.618 168.122C468.304 109.294 499.214 6.94366 542.481 2.80092C588.687 -1.5635 616.813 162.784 661.258 194.642C710.803 229.984 805.87 147.028 830.556 213.295C831.736 216.461 833.26 219.398 835.174 222.015C864.349 261.925 966.848 247.07 1019.73 236.078C1064.45 226.589 1114.05 115.988 1162.66 111.079C1171.25 110.213 1179.54 109.818 1187.6 109.98C1285.49 111.931 1345.1 188.539 1440.99 195.618" stroke="url(#paint23_linear_821_639)" stroke-width="0.75" stroke-miterlimit="10" stroke-linecap="round" stroke-linejoin="round"/>
<path d="M14.5918 289.965C37.1259 290.976 85.5125 286.675 141.241 279.881C174.948 275.769 210.745 268.316 245.336 259.665C310.135 243.457 369.249 225.878 394.558 211.987C406.485 205.441 417.323 191.415 427.732 173.833C463.899 112.749 493.891 6.12577 536.849 2.22486C582.931 -1.92076 609.946 170.58 654.245 202.064C704.062 237.351 801.82 148.274 825.488 217.486C826.626 220.785 828.121 223.846 830.006 226.601C858.483 268.273 963.188 254.348 1016.27 243.793C1060.88 234.791 1110.67 119.534 1159.37 113.489C1168.08 112.409 1176.47 111.905 1184.61 111.836C1284.06 110.998 1343.76 188.686 1441 195.624" stroke="url(#paint24_linear_821_639)" stroke-width="0.75" stroke-miterlimit="10" stroke-linecap="round" stroke-linejoin="round"/>
<path d="M7.29492 300.481C29.4187 301.031 78.7258 295.365 135.468 286.705C169.357 281.535 205.617 274.145 240.393 265.776C306.279 250.178 366.133 232.691 390.85 218.916C402.737 212.234 413.566 197.845 423.836 179.535C459.568 116.266 488.559 5.29842 531.205 1.63646C577.163 -2.28748 603.066 178.361 647.218 209.473C697.306 244.708 797.649 149.58 820.409 221.665C821.498 225.102 822.973 228.278 824.828 231.177C852.625 274.617 959.52 261.616 1012.8 251.499C1057.29 242.983 1107.27 123.06 1156.08 115.886C1164.89 114.59 1173.39 113.85 1181.62 113.683C1282.63 111.274 1342.4 188.823 1441 195.62" stroke="url(#paint25_linear_821_639)" stroke-width="0.75" stroke-miterlimit="10" stroke-linecap="round" stroke-linejoin="round"/>
<path d="M0 310.999C59.0448 311.244 329.128 258.98 387.148 225.85C439.984 195.679 470.974 5.46428 525.569 1.0538C571.401 -2.65135 596.197 186.15 640.201 216.888C690.562 252.068 793.486 150.889 815.337 225.85C831.879 282.607 952.263 269.54 1009.34 259.214C1053.72 251.184 1103.87 126.588 1152.79 118.294C1271.75 98.1275 1332.94 188.427 1441 195.624" stroke="url(#paint26_linear_821_639)" stroke-width="0.75" stroke-miterlimit="10" stroke-linecap="round" stroke-linejoin="round"/>
<defs>
<linearGradient id="paint0_linear_821_639" x1="815.335" y1="-0.026764" x2="815.335" y2="196.699" gradientUnits="userSpaceOnUse">
<stop stop-color="#FFA3A1"/>
<stop offset="0.1608" stop-color="#FF9B98"/>
<stop offset="0.4185" stop-color="#FF8681"/>
<stop offset="0.7389" stop-color="#FF645B"/>
<stop offset="1" stop-color="#FF4337"/>
</linearGradient>
<linearGradient id="paint1_linear_821_639" x1="811.686" y1="4.01522" x2="811.686" y2="196.701" gradientUnits="userSpaceOnUse">
<stop stop-color="#FFA3A1"/>
<stop offset="0.1608" stop-color="#FF9B98"/>
<stop offset="0.4185" stop-color="#FF8681"/>
<stop offset="0.7389" stop-color="#FF645B"/>
<stop offset="1" stop-color="#FF4337"/>
</linearGradient>
<linearGradient id="paint2_linear_821_639" x1="808.039" y1="7.05816" x2="808.039" y2="196.701" gradientUnits="userSpaceOnUse">
<stop stop-color="#FFA3A1"/>
<stop offset="0.1608" stop-color="#FF9B98"/>
<stop offset="0.4185" stop-color="#FF8681"/>
<stop offset="0.7389" stop-color="#FF645B"/>
<stop offset="1" stop-color="#FF4337"/>
</linearGradient>
<linearGradient id="paint3_linear_821_639" x1="804.392" y1="8.96815" x2="804.392" y2="196.7" gradientUnits="userSpaceOnUse">
<stop stop-color="#FFA3A1"/>
<stop offset="0.1608" stop-color="#FF9B98"/>
<stop offset="0.4185" stop-color="#FF8681"/>
<stop offset="0.7389" stop-color="#FF645B"/>
<stop offset="1" stop-color="#FF4337"/>
</linearGradient>
<linearGradient id="paint4_linear_821_639" x1="800.743" y1="9.89501" x2="800.743" y2="196.7" gradientUnits="userSpaceOnUse">
<stop stop-color="#FFA3A1"/>
<stop offset="0.1608" stop-color="#FF9B98"/>
<stop offset="0.4185" stop-color="#FF8681"/>
<stop offset="0.7389" stop-color="#FF645B"/>
<stop offset="1" stop-color="#FF4337"/>
</linearGradient>
<linearGradient id="paint5_linear_821_639" x1="797.098" y1="10.1886" x2="797.098" y2="196.699" gradientUnits="userSpaceOnUse">
<stop stop-color="#FFA3A1"/>
<stop offset="0.1608" stop-color="#FF9B98"/>
<stop offset="0.4185" stop-color="#FF8681"/>
<stop offset="0.7389" stop-color="#FF645B"/>
<stop offset="1" stop-color="#FF4337"/>
</linearGradient>
<linearGradient id="paint6_linear_821_639" x1="793.451" y1="10.1395" x2="793.451" y2="196.702" gradientUnits="userSpaceOnUse">
<stop stop-color="#FFA3A1"/>
<stop offset="0.1608" stop-color="#FF9B98"/>
<stop offset="0.4185" stop-color="#FF8681"/>
<stop offset="0.7389" stop-color="#FF645B"/>
<stop offset="1" stop-color="#FF4337"/>
</linearGradient>
<linearGradient id="paint7_linear_821_639" x1="789.802" y1="9.90011" x2="789.802" y2="196.701" gradientUnits="userSpaceOnUse">
<stop stop-color="#FFA3A1"/>
<stop offset="0.1608" stop-color="#FF9B98"/>
<stop offset="0.4185" stop-color="#FF8681"/>
<stop offset="0.7389" stop-color="#FF645B"/>
<stop offset="1" stop-color="#FF4337"/>
</linearGradient>
<linearGradient id="paint8_linear_821_639" x1="786.155" y1="9.55498" x2="786.155" y2="196.7" gradientUnits="userSpaceOnUse">
<stop stop-color="#FFA3A1"/>
<stop offset="0.1608" stop-color="#FF9B98"/>
<stop offset="0.4185" stop-color="#FF8681"/>
<stop offset="0.7389" stop-color="#FF645B"/>
<stop offset="1" stop-color="#FF4337"/>
</linearGradient>
<linearGradient id="paint9_linear_821_639" x1="782.506" y1="9.141" x2="782.506" y2="196.697" gradientUnits="userSpaceOnUse">
<stop stop-color="#FFA3A1"/>
<stop offset="0.1608" stop-color="#FF9B98"/>
<stop offset="0.4185" stop-color="#FF8681"/>
<stop offset="0.7389" stop-color="#FF645B"/>
<stop offset="1" stop-color="#FF4337"/>
</linearGradient>
<linearGradient id="paint10_linear_821_639" x1="778.859" y1="8.69018" x2="778.859" y2="196.701" gradientUnits="userSpaceOnUse">
<stop stop-color="#FFA3A1"/>
<stop offset="0.1608" stop-color="#FF9B98"/>
<stop offset="0.4185" stop-color="#FF8681"/>
<stop offset="0.7389" stop-color="#FF645B"/>
<stop offset="1" stop-color="#FF4337"/>
</linearGradient>
<linearGradient id="paint11_linear_821_639" x1="775.212" y1="8.20778" x2="775.212" y2="197.316" gradientUnits="userSpaceOnUse">
<stop stop-color="#FFA3A1"/>
<stop offset="0.1608" stop-color="#FF9B98"/>
<stop offset="0.4185" stop-color="#FF8681"/>
<stop offset="0.7389" stop-color="#FF645B"/>
<stop offset="1" stop-color="#FF4337"/>
</linearGradient>
<linearGradient id="paint12_linear_821_639" x1="771.565" y1="7.70147" x2="771.565" y2="203.314" gradientUnits="userSpaceOnUse">
<stop stop-color="#FFA3A1"/>
<stop offset="0.1608" stop-color="#FF9B98"/>
<stop offset="0.4185" stop-color="#FF8681"/>
<stop offset="0.7389" stop-color="#FF645B"/>
<stop offset="1" stop-color="#FF4337"/>
</linearGradient>
<linearGradient id="paint13_linear_821_639" x1="767.916" y1="7.18269" x2="767.916" y2="209.356" gradientUnits="userSpaceOnUse">
<stop stop-color="#FFA3A1"/>
<stop offset="0.1608" stop-color="#FF9B98"/>
<stop offset="0.4185" stop-color="#FF8681"/>
<stop offset="0.7389" stop-color="#FF645B"/>
<stop offset="1" stop-color="#FF4337"/>
</linearGradient>
<linearGradient id="paint14_linear_821_639" x1="764.269" y1="6.65346" x2="764.269" y2="215.446" gradientUnits="userSpaceOnUse">
<stop stop-color="#FFA3A1"/>
<stop offset="0.1608" stop-color="#FF9B98"/>
<stop offset="0.4185" stop-color="#FF8681"/>
<stop offset="0.7389" stop-color="#FF645B"/>
<stop offset="1" stop-color="#FF4337"/>
</linearGradient>
<linearGradient id="paint15_linear_821_639" x1="760.62" y1="6.11525" x2="760.62" y2="221.59" gradientUnits="userSpaceOnUse">
<stop stop-color="#FFA3A1"/>
<stop offset="0.1608" stop-color="#FF9B98"/>
<stop offset="0.4185" stop-color="#FF8681"/>
<stop offset="0.7389" stop-color="#FF645B"/>
<stop offset="1" stop-color="#FF4337"/>
</linearGradient>
<linearGradient id="paint16_linear_821_639" x1="756.975" y1="5.56808" x2="756.975" y2="227.797" gradientUnits="userSpaceOnUse">
<stop stop-color="#FFA3A1"/>
<stop offset="0.1608" stop-color="#FF9B98"/>
<stop offset="0.4185" stop-color="#FF8681"/>
<stop offset="0.7389" stop-color="#FF645B"/>
<stop offset="1" stop-color="#FF4337"/>
</linearGradient>
<linearGradient id="paint17_linear_821_639" x1="753.326" y1="5.01954" x2="753.326" y2="234.086" gradientUnits="userSpaceOnUse">
<stop stop-color="#FFA3A1"/>
<stop offset="0.1608" stop-color="#FF9B98"/>
<stop offset="0.4185" stop-color="#FF8681"/>
<stop offset="0.7389" stop-color="#FF645B"/>
<stop offset="1" stop-color="#FF4337"/>
</linearGradient>
<linearGradient id="paint18_linear_821_639" x1="749.677" y1="4.45889" x2="749.677" y2="240.464" gradientUnits="userSpaceOnUse">
<stop stop-color="#FFA3A1"/>
<stop offset="0.1608" stop-color="#FF9B98"/>
<stop offset="0.4185" stop-color="#FF8681"/>
<stop offset="0.7389" stop-color="#FF645B"/>
<stop offset="1" stop-color="#FF4337"/>
</linearGradient>
<linearGradient id="paint19_linear_821_639" x1="746.031" y1="3.90223" x2="746.031" y2="247.772" gradientUnits="userSpaceOnUse">
<stop stop-color="#FFA3A1"/>
<stop offset="0.1608" stop-color="#FF9B98"/>
<stop offset="0.4185" stop-color="#FF8681"/>
<stop offset="0.7389" stop-color="#FF645B"/>
<stop offset="1" stop-color="#FF4337"/>
</linearGradient>
<linearGradient id="paint20_linear_821_639" x1="742.384" y1="3.33747" x2="742.384" y2="254.104" gradientUnits="userSpaceOnUse">
<stop stop-color="#FFA3A1"/>
<stop offset="0.1608" stop-color="#FF9B98"/>
<stop offset="0.4185" stop-color="#FF8681"/>
<stop offset="0.7389" stop-color="#FF645B"/>
<stop offset="1" stop-color="#FF4337"/>
</linearGradient>
<linearGradient id="paint21_linear_821_639" x1="738.738" y1="2.77431" x2="738.738" y2="260.589" gradientUnits="userSpaceOnUse">
<stop stop-color="#FFA3A1"/>
<stop offset="0.1608" stop-color="#FF9B98"/>
<stop offset="0.4185" stop-color="#FF8681"/>
<stop offset="0.7389" stop-color="#FF645B"/>
<stop offset="1" stop-color="#FF4337"/>
</linearGradient>
<linearGradient id="paint22_linear_821_639" x1="735.089" y1="2.20417" x2="735.089" y2="270.864" gradientUnits="userSpaceOnUse">
<stop stop-color="#FFA3A1"/>
<stop offset="0.1608" stop-color="#FF9B98"/>
<stop offset="0.4185" stop-color="#FF8681"/>
<stop offset="0.7389" stop-color="#FF645B"/>
<stop offset="1" stop-color="#FF4337"/>
</linearGradient>
<linearGradient id="paint23_linear_821_639" x1="731.442" y1="1.63669" x2="731.442" y2="280.905" gradientUnits="userSpaceOnUse">
<stop stop-color="#FFA3A1"/>
<stop offset="0.1608" stop-color="#FF9B98"/>
<stop offset="0.4185" stop-color="#FF8681"/>
<stop offset="0.7389" stop-color="#FF645B"/>
<stop offset="1" stop-color="#FF4337"/>
</linearGradient>
<linearGradient id="paint24_linear_821_639" x1="727.794" y1="1.0684" x2="727.794" y2="291.191" gradientUnits="userSpaceOnUse">
<stop stop-color="#FFA3A1"/>
<stop offset="0.1608" stop-color="#FF9B98"/>
<stop offset="0.4185" stop-color="#FF8681"/>
<stop offset="0.7389" stop-color="#FF645B"/>
<stop offset="1" stop-color="#FF4337"/>
</linearGradient>
<linearGradient id="paint25_linear_821_639" x1="724.145" y1="0.494688" x2="724.145" y2="301.598" gradientUnits="userSpaceOnUse">
<stop stop-color="#FFA3A1"/>
<stop offset="0.1608" stop-color="#FF9B98"/>
<stop offset="0.4185" stop-color="#FF8681"/>
<stop offset="0.7389" stop-color="#FF645B"/>
<stop offset="1" stop-color="#FF4337"/>
</linearGradient>
<linearGradient id="paint26_linear_821_639" x1="720.498" y1="-0.0801981" x2="720.498" y2="312.079" gradientUnits="userSpaceOnUse">
<stop stop-color="#FFA3A1"/>
<stop offset="0.1608" stop-color="#FF9B98"/>
<stop offset="0.4185" stop-color="#FF8681"/>
<stop offset="0.7389" stop-color="#FF645B"/>
<stop offset="1" stop-color="#FF4337"/>
</linearGradient>
</defs>
</svg>
