<svg width="1440" height="328" viewBox="0 0 1440 328" fill="none" xmlns="http://www.w3.org/2000/svg">
<path d="M169.919 23.8117C250.367 14.3573 345.092 -1.66099 443.377 1.84515C543.665 5.42221 611.817 25.4254 716.533 25.8307C808.293 26.1854 866.67 11.829 949.451 5.76421C1076.36 -3.53566 1150.03 7.86688 1263.09 21.2328C1384.21 129.216 1525.14 236.186 1659 343.44C1560.95 343.574 1455.73 346.069 1357.92 343.85C1271.7 341.895 1211.97 330.593 1132.98 324.584C954.662 311.016 885.627 343.328 720.007 343.534C640.42 343.632 586.135 333.195 517.688 326.259C415.771 315.93 361.565 319.333 263.94 330.343C105.441 348.218 -43.095 345.763 -219 346.001C-87.5396 238.418 11.3627 129.474 169.919 23.8117Z" stroke="#D09188" stroke-width="0.5" stroke-miterlimit="10"/>
<path d="M-188.231 320.812C-105.256 320.698 -15.082 322.175 67.9932 320.242C159.517 318.114 219.192 308.882 299.949 300.849C481.022 282.837 553.202 319.715 719.725 319.573C861.507 319.452 945.81 288.813 1096.14 296.322C1177.27 300.376 1240.15 314.821 1322.93 318.279C1417.86 322.246 1532.07 318.466 1627.67 318.337" stroke="#D09188" stroke-width="0.5" stroke-miterlimit="10"/>
<path d="M-159.427 297.249C-79.3875 297.14 8.59016 298.675 88.6077 296.238C175.982 293.578 234.66 283.121 313.156 275.885C484.252 260.115 561.714 296.132 719.474 296.051C855.442 295.98 941.08 266.281 1083.85 271.956C1164.42 275.158 1224.58 289.593 1303.37 293.806C1394.4 298.673 1506.33 294.979 1598.37 294.852" stroke="#D09188" stroke-width="0.5" stroke-miterlimit="10"/>
<path d="M-132.415 275.133C-49.6551 275.019 39.6289 277.582 119.675 272.571C190.728 268.123 235.373 258.278 301.049 251.21C499.17 229.882 525.749 272.754 705.501 274.471C847.326 275.827 939.79 241.505 1091.46 249.414C1155.55 252.756 1209.25 264.591 1270.99 269.22C1361.9 276.035 1476.89 272.939 1570.87 272.81" stroke="#D09188" stroke-width="0.5" stroke-miterlimit="10"/>
<path d="M-107.031 254.341C-24.1637 254.227 60.2108 256.999 136.718 249.495C207.032 242.599 243.882 228.707 308.791 220.202C514.562 193.25 502.511 253.994 679.406 256.702C824.964 258.929 925.89 221.228 1080.04 227.876C1142.5 230.569 1196.32 241.705 1254.16 246.787C1347.27 254.967 1446.94 252.218 1545.03 252.084" stroke="#D09188" stroke-width="0.5" stroke-miterlimit="10"/>
<path d="M-83.123 234.77C-24.3517 234.689 63.3605 237.668 119.476 233.485C215.787 226.303 248.546 201.677 338.483 193.274C518.171 176.488 513.793 236.006 670.418 239.938C804.283 243.297 910.141 205.044 1047.62 206.406C1129.82 207.222 1195.82 222.63 1270.87 227.95C1354.94 233.911 1430.29 232.705 1520.7 232.581" stroke="#D09188" stroke-width="0.5" stroke-miterlimit="10"/>
<path d="M-60.5718 216.32C-2.08032 216.241 80.2125 218.511 135.948 213.804C222.605 206.488 260.776 183.885 348.517 177.433C513.957 165.27 539.761 217.082 689.948 218.959C823.784 220.631 913.908 181.648 1048.18 181.37C1129.83 181.2 1190.03 199.658 1257.59 206.505C1340.45 214.906 1402.43 214.323 1497.74 214.194" stroke="#D09188" stroke-width="0.5" stroke-miterlimit="10"/>
<path d="M-39.2676 198.885C24.7938 198.796 101.574 200.08 161.731 193.937C225.326 187.444 270.086 169.353 336.724 164.196C501.224 151.466 562.701 198.142 712.228 196.911C850.027 195.776 929.628 155.988 1068.58 159.007C1142.69 160.619 1177.04 173.977 1234.89 182.828C1319.91 195.837 1366.34 196.967 1476.06 196.817" stroke="#D09188" stroke-width="0.5" stroke-miterlimit="10"/>
<path d="M-19.5022 182.391C47.7246 182.3 113.501 182.677 175.402 175.63C233.93 168.967 281.813 152.637 346.592 148.444C500.992 138.453 575.633 181.254 718.406 179.759C854.087 178.338 926.905 138.972 1062.55 140.282C1137.23 141.004 1168.22 153.681 1223.43 163.272C1306.96 177.783 1341.84 180.534 1455.53 180.377" stroke="#D09188" stroke-width="0.5" stroke-miterlimit="10"/>
<path d="M-7.56348 166.776C65.6136 169.454 133.264 166.323 195.394 157.38C250.599 147.424 311.789 139.779 378.965 134.443C516.24 130.975 588.132 168.345 718.035 166.703C860.37 164.907 927.46 119.026 1073.47 122.707C1140.7 129.189 1196.31 138.9 1240.29 151.84C1294.28 164.304 1359.55 168.623 1436.1 164.798" stroke="#D09188" stroke-width="0.5" stroke-miterlimit="10"/>
<path d="M0.522461 151.965C152.095 151.041 249.547 126.751 391.329 124.491C518.024 122.472 595.694 155.134 717.874 153.088C858.464 150.734 920.939 105.798 1062.6 107.475C1130.59 112.521 1185.55 121.482 1227.51 134.356C1276.8 147.932 1340.18 153.148 1417.63 150.01" stroke="#D09188" stroke-width="0.5" stroke-miterlimit="10"/>
<path d="M11.2122 137.884C152.757 136.237 265.771 114.377 402.105 113.652C521.22 113.019 600.756 141.157 717.718 139.756C858.488 138.068 914.166 93.3197 1052.95 93.2412C1121.03 96.8056 1175.22 104.948 1215.53 117.673C1261.18 131.687 1322.7 137.782 1400.1 135.956" stroke="#D09188" stroke-width="0.5" stroke-miterlimit="10"/>
<path d="M27.0459 124.46C161.169 121.339 298.58 97.2169 431.411 100.667C537.29 103.418 608.486 125.897 717.976 124.592C850.104 123.016 899.171 88.7378 1021.29 82.6426C1093.29 81.0188 1150.52 86.8606 1192.98 100.168C1239.73 114.621 1303.21 122.089 1383.41 122.573" stroke="#D09188" stroke-width="0.5" stroke-miterlimit="10"/>
<path d="M42.6646 111.67C170.572 107.27 308.6 83.1727 438.058 87.3071C540.8 90.5852 610.496 112.01 717.689 111.186C841.182 110.236 895.395 81.3132 1008.76 75.1091C1132.9 68.3147 1252.11 102.553 1367.52 109.831" stroke="#D09188" stroke-width="0.5" stroke-miterlimit="10"/>
<path d="M57.5576 99.476C184.324 93.434 312.519 70.9405 444.388 74.4391C545.013 77.1067 611.873 98.4753 717.358 98.2777C831.534 98.0649 891.138 74.5151 995.998 68.6225C1119.87 61.6609 1239.56 89.9532 1352.35 97.6748" stroke="#D09188" stroke-width="0.5" stroke-miterlimit="10"/>
<path d="M71.7812 87.8256C197.901 79.724 338.011 55.1734 473.118 64.0046C556.674 69.4665 624.389 87.4785 717.176 87.058C814.987 86.6172 876.076 69.8465 962.575 63.0699C1097.52 52.5008 1215.86 76.6004 1337.81 86.0067" stroke="#D09188" stroke-width="0.5" stroke-miterlimit="10"/>
<path d="M85.853 76.505C211.227 67.0455 341.653 44.1315 478.397 53.1628C560.388 58.5765 625.576 76.0971 717.064 75.788C811.013 75.4713 872.656 59.7824 956.04 53.3857C1092.22 42.9383 1201.76 63.894 1324.03 74.4833" stroke="#D09188" stroke-width="0.5" stroke-miterlimit="10"/>
<path d="M103.089 65.4158C225.864 54.9227 347.47 33.4451 483.438 42.973C563.183 48.5615 627.409 65.431 716.944 65.1574C808.676 64.8762 869.888 49.8434 950.745 43.2871C1086.74 32.2595 1189.95 51.637 1310.77 63.2574" stroke="#D09188" stroke-width="0.5" stroke-miterlimit="10"/>
<path d="M122.013 54.5863C242.089 43.1787 353.531 23.2844 488.271 33.2379C565.87 38.9683 629.214 55.2221 716.832 54.9815C806.404 54.7357 867.228 40.3211 945.688 33.6381C1081.18 22.1013 1178.4 39.8701 1298.1 52.3088" stroke="#D09188" stroke-width="0.5" stroke-miterlimit="10"/>
<path d="M140.35 44.0327C224.811 35.161 331.544 17.3465 432.255 19.7329C537.653 22.2283 608.44 43.716 716.738 44.0884C812.245 44.4177 872.028 28.858 959.309 23.2644C1088.26 15.0032 1171.33 28.9239 1285.95 41.6463" stroke="#D09188" stroke-width="0.5" stroke-miterlimit="10"/>
<path d="M1202.4 14.2478C1309.99 124.544 1433.02 233.992 1554.69 343.574" stroke="#D09188" stroke-width="0.5" stroke-miterlimit="10"/>
<path d="M1142.22 7.50235C1240.33 119.942 1341.41 231.713 1450.37 343.721" stroke="#D09188" stroke-width="0.5" stroke-miterlimit="10"/>
<path d="M1082.53 3.52909C1172.36 117.499 1252.04 229.842 1346.06 343.86" stroke="#D09188" stroke-width="0.5" stroke-miterlimit="10"/>
<path d="M1022.12 2.94106C1058.18 54.1372 1127.38 100.333 1150.69 152.051C1178.62 214.018 1200.21 272.599 1240.09 334.451" stroke="#D09188" stroke-width="0.5" stroke-miterlimit="10"/>
<path d="M959.517 5.06799C987.331 52.2184 1055.46 95.9488 1072.65 143.383C1094.59 203.96 1105.43 263.843 1137.45 324.511" stroke="#D09188" stroke-width="0.5" stroke-miterlimit="10"/>
<path d="M898.757 11.0413C919.3 57.0238 974.784 102.006 988.127 148.041C1004.59 204.811 1008.91 263.734 1033.1 320.693" stroke="#D09188" stroke-width="0.5" stroke-miterlimit="10"/>
<path d="M838.007 18.0119C852.204 65.9831 893.153 115.125 896.685 163.144C898.716 190.839 878.74 216.532 891.431 244.229C903.776 271.176 920.701 300.965 928.74 328.163" stroke="#D09188" stroke-width="0.5" stroke-miterlimit="10"/>
<path d="M777.256 23.8851C784.886 74.7291 814.2 128.008 804.876 178.834C799.787 206.589 769.231 229.579 784.706 257.312C799.83 284.423 820.143 311.089 824.356 338.999" stroke="#D09188" stroke-width="0.5" stroke-miterlimit="10"/>
<path d="M716.534 25.828C717.109 78.3541 735.929 133.73 716.628 186.112C707.318 211.385 659.507 234.385 681.148 259.741C706.371 289.3 719.671 312.71 720.008 343.526" stroke="#D09188" stroke-width="0.5" stroke-miterlimit="10"/>
<path d="M655.842 23.399C649.303 74.6661 660.507 128.32 633.842 179.331C620.118 205.581 580.296 227.312 598.47 253.981C618.044 282.706 619.472 308.888 615.739 338.067" stroke="#D09188" stroke-width="0.5" stroke-miterlimit="10"/>
<path d="M595.173 17.6169C581.772 66.9485 578.736 116.974 547.434 165.987C513.311 219.417 526.145 271.617 511.517 325.561" stroke="#D09188" stroke-width="0.5" stroke-miterlimit="10"/>
<path d="M534.511 10.1494C514.305 58.26 496.785 106.023 461.327 153.688C420.78 208.19 429.343 263.827 407.25 318.806" stroke="#D09188" stroke-width="0.5" stroke-miterlimit="10"/>
<path d="M473.842 3.84903C413.584 111.404 357.641 217.971 302.825 325.648" stroke="#D09188" stroke-width="0.5" stroke-miterlimit="10"/>
<path d="M413.153 1C337.414 113.556 271.192 222.33 200.563 334.992" stroke="#D09188" stroke-width="0.5" stroke-miterlimit="10"/>
<path d="M352.439 3.29316C259.581 117.202 187.458 228.823 96.0642 342.762" stroke="#D09188" stroke-width="0.5" stroke-miterlimit="10"/>
<path d="M291.631 9.38085C178.789 121.114 95.951 233.606 -10.3657 345.711" stroke="#D09188" stroke-width="0.5" stroke-miterlimit="10"/>
<path d="M230.766 16.9842C96.4341 125.766 4.42986 236.09 -114.685 345.851" stroke="#D09188" stroke-width="0.5" stroke-miterlimit="10"/>
<path d="M1032.5 94C1040.51 94 1047 87.5081 1047 79.5C1047 71.4919 1040.51 65 1032.5 65C1024.49 65 1018 71.4919 1018 79.5C1018 87.5081 1024.49 94 1032.5 94Z" fill="url(#paint0_linear_675_3368)"/>
<path d="M653.476 103.952C658.709 103.952 662.952 99.7094 662.952 94.476C662.952 89.2425 658.709 85 653.476 85C648.243 85 644 89.2425 644 94.476C644 99.7094 648.243 103.952 653.476 103.952Z" fill="url(#paint1_linear_675_3368)"/>
<path d="M166 164C166 172.284 159.284 179 151 179C142.716 179 136 172.284 136 164C136 155.716 142.716 149 151 149C159.284 148.997 166 155.714 166 164Z" fill="url(#paint2_linear_675_3368)"/>
<path d="M1415 150L1488.5 157.5" stroke="#D09188" stroke-width="0.5"/>
<path d="M1274.28 31.2884C1160.5 18.1758 1082.36 5.51678 954.274 14.3252C869.282 20.1696 810.245 35.1163 716.626 34.7743C610.108 34.3867 540.75 13.626 437.921 10.5885C338.703 7.65743 238.538 24.5827 156.611 33.7736L86.5 36.5L58 33.7736M141 44L74 45.5L0 39M122 54.5L60 54M103.5 65.5L46.5 63L0.5 59M86.5 76.5L34.5 72M72 88L19.5 81M58 99.5L7.5 89M43 111.5L-0.5 99.5M11.5 138L-2 134M27 124.5L-2 115" stroke="#D09188" stroke-width="0.5" stroke-miterlimit="10"/>
<path d="M170 24L0 39" stroke="#D09188" stroke-width="0.5"/>
<path d="M60.5 54L-0.5 48" stroke="#D09188" stroke-width="0.5"/>
<path d="M35 72L-1 69" stroke="#D09188" stroke-width="0.5"/>
<path d="M20 81L0 76.5" stroke="#D09188" stroke-width="0.5"/>
<path d="M7.5 89L0 87" stroke="#D09188" stroke-width="0.5"/>
<path d="M1263.5 21.5L1440.5 42" stroke="#D09188" stroke-width="0.5"/>
<path d="M1273.5 31L1347.5 38.5" stroke="#D09188" stroke-width="0.5"/>
<path d="M1286 42L1362 50" stroke="#D09188" stroke-width="0.5"/>
<path d="M1298 52L1375 60" stroke="#D09188" stroke-width="0.5"/>
<path d="M1310 63L1387.5 70" stroke="#D09188" stroke-width="0.5"/>
<path d="M1323 74L1402.5 81.5" stroke="#D09188" stroke-width="0.5"/>
<path d="M1338 86L1418 93.5" stroke="#D09188" stroke-width="0.5"/>
<path d="M1352 98L1432 104.5" stroke="#D09188" stroke-width="0.5"/>
<path d="M1367 110L1440.5 117.5" stroke="#D09188" stroke-width="0.5"/>
<path d="M1381 122L1454.5 129.5" stroke="#D09188" stroke-width="0.5"/>
<path d="M1400 136L1473.5 143.5" stroke="#D09188" stroke-width="0.5"/>
<path d="M-3 96L95 31" stroke="#D09188" stroke-width="0.5"/>
<path d="M1336.5 30L1442 112.5" stroke="#D09188" stroke-width="0.5"/>
<path d="M1414 39L1440.5 61" stroke="#D09188" stroke-width="0.5"/>
<path d="M1417.5 202C1432.14 202 1444 190.136 1444 175.5C1444 160.864 1432.14 149 1417.5 149C1402.86 149 1391 160.864 1391 175.5C1391 190.136 1402.86 202 1417.5 202Z" fill="url(#paint3_linear_675_3368)"/>
<path d="M1347.5 38.5L1422 45.5" stroke="#D09188" stroke-width="0.5"/>
<path d="M1362 50L1435 56" stroke="#D09188" stroke-width="0.5"/>
<path d="M1374 60L1448.5 67" stroke="#D09188" stroke-width="0.5"/>
<path d="M1388 70L1462.5 77" stroke="#D09188" stroke-width="0.5"/>
<path d="M1402 81L1477 89" stroke="#D09188" stroke-width="0.5"/>
<path d="M1417 93L1492 101" stroke="#D09188" stroke-width="0.5"/>
<path d="M1431 104L1506 112" stroke="#D09188" stroke-width="0.5"/>
<path d="M1422 45.5L1440 47.5" stroke="#D09188" stroke-width="0.5"/>
<path d="M1434.5 56H1440" stroke="#D09188" stroke-width="0.5"/>
<defs>
<linearGradient id="paint0_linear_675_3368" x1="1022.25" y1="69.2466" x2="1042.75" y2="89.7527" gradientUnits="userSpaceOnUse">
<stop stop-color="#FFA3A1"/>
<stop offset="0.0757" stop-color="#FF9895"/>
<stop offset="0.3587" stop-color="#FF736C"/>
<stop offset="0.6168" stop-color="#FF594F"/>
<stop offset="0.8391" stop-color="#FF493D"/>
<stop offset="1" stop-color="#FA2609"/>
</linearGradient>
<linearGradient id="paint1_linear_675_3368" x1="646.775" y1="87.7751" x2="660.176" y2="101.176" gradientUnits="userSpaceOnUse">
<stop stop-color="#FFA3A1"/>
<stop offset="0.0757" stop-color="#FF9895"/>
<stop offset="0.3587" stop-color="#FF736C"/>
<stop offset="0.6168" stop-color="#FF594F"/>
<stop offset="0.8391" stop-color="#FF493D"/>
<stop offset="1" stop-color="#FF4337"/>
</linearGradient>
<linearGradient id="paint2_linear_675_3368" x1="140.391" y1="153.392" x2="161.605" y2="174.606" gradientUnits="userSpaceOnUse">
<stop stop-color="#FFA3A1"/>
<stop offset="0.0757" stop-color="#FF9895"/>
<stop offset="0.3587" stop-color="#FF736C"/>
<stop offset="0.6168" stop-color="#FF594F"/>
<stop offset="0.8391" stop-color="#FF493D"/>
<stop offset="1" stop-color="#FA2609"/>
</linearGradient>
<linearGradient id="paint3_linear_675_3368" x1="1398.76" y1="156.761" x2="1436.24" y2="194.238" gradientUnits="userSpaceOnUse">
<stop stop-color="#FFA3A1"/>
<stop offset="0.0757" stop-color="#FF9895"/>
<stop offset="0.3587" stop-color="#FF736C"/>
<stop offset="0.6168" stop-color="#FF594F"/>
<stop offset="0.8391" stop-color="#FF493D"/>
<stop offset="1" stop-color="#FA2609"/>
</linearGradient>
</defs>
</svg>
