<svg width="266" height="224" viewBox="0 0 266 224" fill="none" xmlns="http://www.w3.org/2000/svg">
<g clip-path="url(#clip0_670_3456)">
<path d="M265.256 214.775C265.201 214.835 265.096 214.92 264.916 215.023C264.528 215.246 263.91 215.486 263.041 215.733C261.313 216.225 258.736 216.707 255.38 217.169C248.677 218.093 238.96 218.926 226.935 219.627C202.891 221.028 169.664 221.895 132.957 221.895C96.2502 221.895 63.0236 221.028 38.9787 219.627C26.9539 218.926 17.2376 218.093 10.534 217.169C7.17808 216.707 4.60091 216.225 2.87302 215.733C2.00426 215.486 1.38651 215.246 0.99865 215.023C0.818323 214.92 0.713611 214.835 0.658157 214.775C0.713611 214.716 0.818323 214.631 0.99865 214.527C1.38651 214.305 2.00426 214.065 2.87302 213.817C4.60091 213.325 7.17808 212.844 10.534 212.381C17.2376 211.458 26.9539 210.624 38.9787 209.924C63.0236 208.523 96.2502 207.656 132.957 207.656C169.664 207.656 202.891 208.523 226.935 209.924C238.96 210.624 248.677 211.458 255.38 212.381C258.736 212.844 261.313 213.325 263.041 213.817C263.91 214.065 264.528 214.305 264.916 214.527C265.096 214.631 265.201 214.716 265.256 214.775ZM0.618559 214.725C0.618579 214.725 0.618797 214.725 0.619153 214.726L0.618559 214.725ZM0.618559 214.826C0.618539 214.826 0.618716 214.825 0.619152 214.825L0.618559 214.826Z" fill="#F5F5F5" stroke="#FA2609" stroke-width="1.25472"/>
<path d="M186.011 212.925H53.7943C51.8933 212.925 50.1764 211.371 49.9845 209.471L29.8734 10.3935C29.8734 10.3935 29.8734 10.3935 29.8734 10.3935C29.6864 8.54196 31.0205 7.06553 32.8717 7.06553H165.087C166.988 7.06553 168.705 8.61939 168.897 10.5196L189.008 209.597C189.196 211.449 187.862 212.925 186.011 212.925Z" fill="#F5F5F5" stroke="#FA2609" stroke-width="1.25472"/>
<path d="M187.406 212.925H55.1896C53.2879 212.925 51.5716 211.371 51.379 209.472L31.2679 10.3945C31.2679 10.3945 31.2679 10.3945 31.2679 10.3945C31.0809 8.54297 32.415 7.06654 34.2662 7.06654H166.483C168.384 7.06654 170.101 8.6204 170.293 10.5206L190.404 209.597C190.591 211.449 189.257 212.925 187.406 212.925Z" fill="#F5F5F5" stroke="#FA2609" stroke-width="1.25472"/>
<path opacity="0.4" d="M187.406 212.925H55.1896C53.2879 212.925 51.5716 211.371 51.379 209.472L31.2679 10.3945C31.2679 10.3945 31.2679 10.3945 31.2679 10.3945C31.0809 8.54297 32.415 7.06654 34.2662 7.06654H166.483C168.384 7.06654 170.101 8.6204 170.293 10.5206L190.404 209.597C190.591 211.449 189.257 212.925 187.406 212.925Z" fill="#F5F5F5" stroke="#FA2609" stroke-width="1.25472"/>
<path d="M125.834 18.3591L126.458 18.2961L125.834 18.3592C125.977 19.7734 124.963 20.8951 123.55 20.8951H80.2433C78.7797 20.8951 77.4548 19.696 77.3076 18.2333L77.3076 18.233L76.1094 6.3718H124.607C124.609 6.3728 124.613 6.37489 124.617 6.37848C124.621 6.38251 124.624 6.38639 124.625 6.38864L125.834 18.3591Z" fill="#F5F5F5" stroke="#FA2609" stroke-width="1.25472"/>
<path d="M98.1701 3.83833L98.17 3.83774C98.0603 2.74906 98.8755 1.84196 99.9713 1.84196C101.018 1.84196 101.931 2.67174 102.037 3.71128L102.037 3.71195C102.147 4.80059 101.332 5.70762 100.236 5.70771L98.1701 3.83833ZM98.1701 3.83833C98.2759 4.87817 99.1881 5.70848 100.236 5.70771L98.1701 3.83833ZM103.127 7.88992H97.9115L97.4615 3.4373C97.4615 3.43728 97.4615 3.43726 97.4615 3.43724C97.3186 2.02135 98.3343 0.897424 99.7495 0.897424C101.215 0.897424 102.542 2.09883 102.69 3.56334L102.69 3.5634L103.127 7.88992Z" fill="#F5F5F5" stroke="#FA2609" stroke-width="1.25472"/>
<path opacity="0.2" d="M125.834 18.3591L126.458 18.2961L125.834 18.3592C125.977 19.7734 124.963 20.8951 123.55 20.8951H80.2433C78.7797 20.8951 77.4548 19.696 77.3076 18.2333L77.3076 18.233L76.1094 6.3718H124.607C124.609 6.3728 124.613 6.37489 124.617 6.37848C124.621 6.38251 124.624 6.38639 124.625 6.38864L125.834 18.3591Z" fill="#F5F5F5" stroke="#FA2609" stroke-width="1.25472"/>
<path d="M186.343 207.045H56.4124L37.5389 13.5483H167.47L186.343 207.045Z" fill="#F5F5F5" stroke="#FA2609" stroke-width="1.25472"/>
<path opacity="0.3" d="M42.79 48.8192H169.098" stroke="#FA2609" stroke-width="1.25472" stroke-miterlimit="10"/>
<path opacity="0.3" d="M159.838 57.4741L160.283 62.036H54.1823L53.7374 57.4741H159.838Z" fill="#F5F5F5" stroke="#FA2609" stroke-width="1.25472"/>
<g opacity="0.3">
<path d="M161.757 71.1601H64.9053C64.6291 71.1601 64.4074 70.9369 64.4074 70.6647C64.4074 70.3926 64.6291 70.1694 64.9053 70.1694H161.757C162.033 70.1694 162.255 70.3926 162.255 70.6647C162.255 70.9374 162.034 71.1601 161.757 71.1601Z" fill="#F5F5F5" stroke="#FA2609" stroke-width="1.25472"/>
</g>
<g opacity="0.3">
<path d="M162.3 76.7591H54.9398C54.6635 76.7591 54.4418 76.5359 54.4418 76.2637C54.4418 75.9916 54.6635 75.7683 54.9398 75.7683H162.301C162.578 75.7683 162.799 75.9916 162.799 76.2637H163.427L162.799 76.263C162.799 76.5362 162.577 76.7591 162.3 76.7591Z" fill="#F5F5F5" stroke="#FA2609" stroke-width="1.25472"/>
</g>
<g opacity="0.3">
<path d="M162.849 82.359H55.4879C55.2116 82.359 54.9899 82.1357 54.9899 81.8636C54.9899 81.5914 55.2116 81.3682 55.4879 81.3682H162.849C163.126 81.3682 163.347 81.5914 163.347 81.8636C163.347 82.1353 163.125 82.359 162.849 82.359Z" fill="#F5F5F5" stroke="#FA2609" stroke-width="1.25472"/>
</g>
<g opacity="0.3">
<path d="M163.893 87.4621V87.4629C163.894 87.7342 163.673 87.9575 163.396 87.9575H56.034C55.7577 87.9575 55.536 87.7342 55.536 87.4621C55.536 87.1899 55.7578 86.9667 56.034 86.9667H163.396C163.672 86.9667 163.893 87.1899 163.893 87.4621Z" fill="#F5F5F5" stroke="#FA2609" stroke-width="1.25472"/>
</g>
<g opacity="0.3">
<path d="M164.437 93.0613V93.0621C164.437 93.3332 164.216 93.5567 163.939 93.5567H56.5772C56.301 93.5567 56.0793 93.3335 56.0793 93.0613C56.0793 92.7891 56.301 92.5659 56.5772 92.5659H163.939C164.215 92.5659 164.437 92.7891 164.437 93.0613Z" fill="#F5F5F5" stroke="#FA2609" stroke-width="1.25472"/>
</g>
<g opacity="0.3">
<path d="M164.485 99.156H57.1234C56.8471 99.156 56.6254 98.9328 56.6254 98.6606C56.6254 98.3885 56.8471 98.1652 57.1234 98.1652H164.485C164.761 98.1652 164.983 98.3885 164.983 98.6606C164.983 98.9328 164.761 99.156 164.485 99.156Z" fill="#F5F5F5" stroke="#FA2609" stroke-width="1.25472"/>
</g>
<g opacity="0.3">
<path d="M154.523 104.755H57.6712C57.395 104.755 57.1733 104.532 57.1733 104.26C57.1733 103.987 57.395 103.764 57.6712 103.764H154.523C154.799 103.764 155.021 103.987 155.021 104.26C155.021 104.532 154.8 104.755 154.523 104.755Z" fill="#F5F5F5" stroke="#FA2609" stroke-width="1.25472"/>
</g>
<path opacity="0.3" d="M165.678 117.331L166.123 121.893H60.0222L59.5773 117.331H165.678Z" fill="#F5F5F5" stroke="#FA2609" stroke-width="1.25472"/>
<g opacity="0.3">
<path d="M167.594 131.018H70.7423C70.466 131.018 70.2443 130.795 70.2443 130.523C70.2443 130.25 70.466 130.027 70.7423 130.027H167.594C167.87 130.027 168.092 130.25 168.092 130.523C168.092 130.795 167.87 131.018 167.594 131.018Z" fill="#F5F5F5" stroke="#FA2609" stroke-width="1.25472"/>
</g>
<g opacity="0.3">
<path d="M168.14 136.616H60.7786C60.5024 136.616 60.2807 136.393 60.2807 136.121C60.2807 135.849 60.5024 135.625 60.7786 135.625H168.14C168.416 135.625 168.638 135.849 168.638 136.121C168.638 136.393 168.416 136.616 168.14 136.616Z" fill="#F5F5F5" stroke="#FA2609" stroke-width="1.25472"/>
</g>
<g opacity="0.3">
<path d="M168.686 142.215H61.3245C61.0483 142.215 60.8266 141.992 60.8266 141.72C60.8266 141.448 61.0483 141.225 61.3245 141.225H168.686C168.962 141.225 169.184 141.448 169.184 141.72C169.184 141.992 168.962 142.215 168.686 142.215Z" fill="#F5F5F5" stroke="#FA2609" stroke-width="1.25472"/>
</g>
<g opacity="0.3">
<path d="M169.233 147.815H61.8709C61.5947 147.815 61.373 147.592 61.373 147.319C61.373 147.047 61.5947 146.824 61.8709 146.824H169.232C169.509 146.824 169.73 147.047 169.73 147.319C169.73 147.592 169.509 147.815 169.233 147.815Z" fill="#F5F5F5" stroke="#FA2609" stroke-width="1.25472"/>
</g>
<g opacity="0.3">
<path d="M114.228 153.414H62.4171C62.1408 153.414 61.9191 153.191 61.9191 152.918C61.9191 152.646 62.1408 152.423 62.4171 152.423H114.228C114.504 152.423 114.726 152.646 114.726 152.918C114.726 153.191 114.504 153.414 114.228 153.414Z" fill="#F5F5F5" stroke="#FA2609" stroke-width="1.25472"/>
</g>
<g opacity="0.3">
<mask id="path-24-inside-1_670_3456" fill="white">
<path d="M136.299 186.413H96.6816V187.162H136.299V186.413Z"/>
</mask>
<path d="M136.299 186.413H96.6816V187.162H136.299V186.413Z" fill="#F5F5F5"/>
<path d="M96.6816 186.413V185.158H95.4269V186.413H96.6816ZM136.299 186.413H137.554V185.158H136.299V186.413ZM136.299 187.162V188.417H137.554V187.162H136.299ZM96.6816 187.162H95.4269V188.417H96.6816V187.162ZM96.6816 187.668H136.299V185.158H96.6816V187.668ZM135.045 186.413V187.162H137.554V186.413H135.045ZM136.299 185.907H96.6816V188.417H136.299V185.907ZM97.9364 187.162V186.413H95.4269V187.162H97.9364Z" fill="#FA2609" mask="url(#path-24-inside-1_670_3456)"/>
</g>
<mask id="path-26-inside-2_670_3456" fill="white">
<path d="M98.0658 173.548C97.8765 173.336 97.6609 173.147 97.4282 172.982C97.4475 173.02 97.4715 173.056 97.4908 173.094C97.7466 173.607 97.9731 174.125 98.174 174.644C98.2328 174.404 98.3634 174.17 98.2969 173.92C98.2591 173.781 98.1648 173.659 98.0658 173.548Z"/>
</mask>
<path d="M98.0658 173.548C97.8765 173.336 97.6609 173.147 97.4282 172.982C97.4475 173.02 97.4715 173.056 97.4908 173.094C97.7466 173.607 97.9731 174.125 98.174 174.644C98.2328 174.404 98.3634 174.17 98.2969 173.92C98.2591 173.781 98.1648 173.659 98.0658 173.548Z" fill="#F5F5F5"/>
<path d="M98.0658 173.548L97.1284 174.383L97.1319 174.386L98.0658 173.548ZM97.4282 172.982L98.1519 171.957L96.3111 173.554L97.4282 172.982ZM97.4908 173.094L98.6136 172.534L98.6126 172.532L97.4908 173.094ZM98.174 174.644L97.0038 175.097L98.445 178.825L99.393 174.942L98.174 174.644ZM98.2969 173.92L99.5095 173.598L99.5079 173.592L98.2969 173.92ZM99.0033 172.714C98.7448 172.424 98.456 172.172 98.1519 171.957L96.7045 174.007C96.8657 174.121 97.0082 174.247 97.1284 174.383L99.0033 172.714ZM96.3111 173.554C96.3273 173.585 96.3422 173.612 96.3532 173.632C96.3636 173.65 96.3739 173.667 96.3778 173.674C96.3834 173.683 96.3836 173.684 96.3827 173.682C96.3813 173.68 96.376 173.67 96.3691 173.656L98.6126 172.532C98.5959 172.499 98.5805 172.471 98.5686 172.45C98.5571 172.429 98.5464 172.411 98.5412 172.402C98.538 172.397 98.5365 172.394 98.5349 172.392C98.5336 172.389 98.5333 172.389 98.5336 172.389C98.5341 172.39 98.5388 172.398 98.5454 172.411L96.3111 173.554ZM96.3681 173.654C96.6054 174.13 96.8162 174.612 97.0038 175.097L99.3443 174.192C99.13 173.638 98.8879 173.084 98.6136 172.534L96.3681 173.654ZM99.393 174.942C99.3949 174.934 99.3999 174.916 99.4202 174.854C99.4358 174.806 99.4684 174.709 99.4954 174.607C99.5515 174.395 99.6236 174.027 99.5095 173.598L97.0844 174.243C97.0367 174.064 97.0767 173.937 97.0695 173.965C97.0681 173.97 97.0651 173.981 97.059 174C97.0525 174.021 97.0457 174.041 97.0346 174.075C97.0247 174.106 97.0114 174.147 96.9981 174.19C96.9847 174.235 96.9695 174.288 96.9551 174.347L99.393 174.942ZM99.5079 173.592C99.3874 173.148 99.1149 172.839 98.9998 172.711L97.1319 174.386C97.1637 174.422 97.1654 174.427 97.1568 174.414C97.1472 174.399 97.1115 174.343 97.086 174.249L99.5079 173.592Z" fill="#FA2609" mask="url(#path-26-inside-2_670_3456)"/>
<path d="M92.5769 180.902L92.8241 180.934L92.4484 180.885M92.5769 180.902C92.5694 180.875 92.5622 180.848 92.5554 180.821C92.5184 180.841 92.482 180.862 92.4484 180.885M92.5769 180.902L92.4484 180.885M92.5769 180.902L92.4484 180.885M92.5389 181.942L92.8345 182.293L93.2586 182.118L95.619 181.142C95.4104 184.268 94.0002 187.13 91.6172 189.072L91.6888 188.726L90.7019 188.995C90.3237 189.098 89.9742 189.288 89.6852 189.548L89.479 189.734L89.4778 190.012L89.4759 190.43C89.2828 190.525 89.0872 190.614 88.8881 190.696C84.8632 192.364 80.1906 191.604 76.5265 189.053L83.0459 186.351C83.4179 186.598 83.8628 186.546 84.1464 186.482C84.4806 186.408 84.8349 186.261 85.1532 186.107C85.4773 185.951 85.7951 185.773 86.0599 185.621C86.1585 185.564 86.2462 185.513 86.324 185.467C86.4672 185.383 86.5764 185.32 86.6568 185.277L86.6572 185.277C86.661 185.275 86.6656 185.273 86.6709 185.27C86.7545 185.227 87.0098 185.095 87.1565 184.829L86.9695 184.726L87.1565 184.829C87.1945 184.76 87.2217 184.688 87.239 184.614L92.0742 182.611L92.3477 182.498L92.4331 182.218C92.4335 182.217 92.4342 182.215 92.4354 182.212C92.4377 182.205 92.445 182.184 92.4519 182.162L92.4519 182.162L92.4541 182.154C92.4773 182.075 92.4983 181.995 92.5175 181.916C92.524 181.924 92.5311 181.933 92.5389 181.942ZM91.3891 178.186L80.7509 182.593L80.7341 182.58C80.4159 182.319 80.051 182.268 79.7531 182.289C79.4653 182.309 79.198 182.4 79.0048 182.475C78.9316 182.503 78.8097 182.546 78.6555 182.599C78.2319 182.746 77.5652 182.977 76.9983 183.238C76.6003 183.421 76.1847 183.646 75.8647 183.916C75.6161 184.125 75.3271 184.445 75.2607 184.867L73.1291 185.75C72.6487 185.1 72.2169 184.408 71.8493 183.671C71.4948 182.96 71.2156 182.237 70.9988 181.51L78.7305 178.306L78.9423 178.588C79.0323 178.535 79.1102 178.475 79.1777 178.414C79.1802 178.414 79.1827 178.415 79.1852 178.416C79.4459 178.501 79.8233 178.508 80.1302 178.275C80.3643 178.097 80.4816 177.862 80.5447 177.672C80.5595 177.628 80.5722 177.583 80.5831 177.539L92.9698 172.407C93.4498 173.056 93.8814 173.748 94.249 174.485C94.6035 175.196 94.8827 175.919 95.0995 176.647L92.7849 177.606L92.426 177.754L92.3992 178.142C92.3785 178.442 92.3624 178.734 92.3465 179.02C92.3359 179.212 92.3255 179.401 92.3138 179.589C92.2746 179.326 92.2472 179.044 92.2562 178.787L92.2906 177.812L91.3891 178.186ZM75.8775 185.11L75.87 185.092L75.8756 185.092C75.8761 185.098 75.8767 185.104 75.8775 185.11ZM72.9232 186.514L75.3547 185.507L71.2878 183.951C71.7485 184.875 72.3034 185.727 72.9232 186.514ZM92.8495 180.72C92.8498 180.718 92.85 180.716 92.8502 180.714C92.8478 180.714 92.8454 180.714 92.8431 180.713C92.8287 180.715 92.8125 180.718 92.7948 180.722C92.8137 180.721 92.832 180.72 92.8495 180.72ZM92.8233 180.94L92.7791 180.958L92.8097 181.032C92.8146 181.002 92.8192 180.971 92.8233 180.94ZM86.438 184.848L86.4352 184.848C86.4369 184.848 86.4386 184.849 86.439 184.849L86.4389 184.849L86.4387 184.849L86.438 184.848Z" fill="#F5F5F5" stroke="#FA2609" stroke-width="1.25472"/>
<path d="M97.1224 188.424C99.3106 184.865 99.912 180.35 98.5881 175.918C98.8175 175.899 99.0017 175.794 99.1377 175.674M97.1224 188.424C97.2531 188.647 97.2931 189.007 97.2932 189.394C97.4832 189.116 97.6635 188.831 97.8339 188.54M97.1224 188.424L97.6568 188.752C97.7118 188.663 97.7657 188.573 97.8187 188.483M97.1224 188.424L97.6642 188.107C97.7316 188.223 97.7817 188.35 97.8187 188.483M97.8339 188.54C97.9079 188.836 97.9211 189.152 97.9205 189.41C97.9204 189.469 97.9194 189.53 97.9177 189.59C100.639 185.494 101.348 180.104 99.5448 174.903C99.5166 175.078 99.4557 175.255 99.3477 175.427M97.8339 188.54C97.8291 188.521 97.824 188.502 97.8187 188.483M97.8339 188.54L97.8187 188.483M99.3477 175.427L99.0276 175.226C99.0746 175.367 99.1196 175.509 99.1627 175.651M99.3477 175.427C99.3479 175.427 99.3481 175.427 99.3483 175.426L99.0274 175.225C99.0069 175.163 98.9859 175.101 98.9647 175.04L98.932 175.051C98.9491 175.1 98.966 175.148 98.9826 175.197L98.8166 175.093L98.9827 175.198C99.0368 175.356 99.0884 175.515 99.1377 175.674M99.3477 175.427C99.3051 175.495 99.2432 175.575 99.1627 175.651M99.1627 175.651C99.1546 175.659 99.1462 175.666 99.1377 175.674M99.1627 175.651C99.6713 177.322 99.9161 179.008 99.9126 180.657C99.9063 179.019 99.6543 177.34 99.1377 175.674M75.2559 163.54L75.0158 162.96L75.2559 163.54ZM75.2559 163.54C73.8386 164.127 72.5682 164.903 71.4586 165.829L71.5577 165.814C72.6649 164.891 73.9279 164.111 75.3459 163.523L75.346 163.523C76.1859 163.175 77.0446 162.905 77.9142 162.711C77.012 162.906 76.1228 163.181 75.2559 163.54ZM66.6326 173.646C67.0992 171.738 67.92 169.954 69.0602 168.391C69.0518 168.423 69.0437 168.455 69.0356 168.487C67.9222 170.029 67.1207 171.778 66.6531 173.639C66.6462 173.641 66.6394 173.644 66.6326 173.646ZM66.1813 177.394C66.1826 177.394 66.184 177.395 66.1854 177.396C66.1837 177.556 66.1845 177.718 66.1875 177.879C66.183 177.717 66.181 177.555 66.1813 177.394ZM97.511 170.743C97.4561 170.682 97.4 170.623 97.3427 170.567C97.0936 170.325 96.7467 170.067 96.3194 170.019L97.511 170.743Z" fill="#F5F5F5" stroke="#FA2609" stroke-width="1.25472"/>
<path d="M69.0102 188.033L69.6165 187.909C71.2007 190.123 73.2148 191.935 75.4697 193.263L75.2746 193.276L76.3187 194.261L76.5514 194.48C73.6121 193.038 70.9788 190.84 69.0102 188.033ZM69.0102 188.033L69.4742 187.708C69.3235 187.491 69.1769 187.271 69.0345 187.047L68.8572 187.059M69.0102 188.033C68.9438 187.708 68.8904 187.382 68.8572 187.059M68.8572 187.059L69.0307 187.041C68.9811 186.963 68.9319 186.885 68.8833 186.806L68.8348 186.809M68.8572 187.059C68.8518 186.979 68.8441 186.895 68.8348 186.809M68.8348 186.809L68.882 186.804C68.8646 186.775 68.8472 186.747 68.8299 186.718C68.8313 186.748 68.8329 186.779 68.8348 186.809ZM91.0813 195.193C87.1035 196.841 82.6942 196.788 78.668 195.369C78.7257 195.365 78.7832 195.359 78.8404 195.35L78.8406 195.35C79.0683 195.314 79.2981 195.216 79.4829 195.063C79.4927 195.055 79.5026 195.047 79.5124 195.038C82.2412 195.872 85.1333 196.068 87.923 195.497M91.0813 195.193C93.3443 194.256 95.2402 192.857 96.7296 191.148M91.0813 195.193L90.8412 194.614C90.8412 194.614 90.8412 194.614 90.8412 194.614M91.0813 195.193L90.8412 194.614M96.7296 191.148C96.7304 191.071 96.7296 190.994 96.7287 190.917C96.7273 190.787 96.7259 190.657 96.7327 190.528C96.7405 190.38 96.7448 190.221 96.7483 190.057C96.6299 190.21 96.5085 190.361 96.384 190.509C96.3839 190.509 96.3838 190.509 96.3838 190.51C96.2911 190.62 96.1966 190.729 96.1006 190.837M96.7296 191.148L96.1022 191.141C96.1028 191.093 96.1022 191.03 96.1015 190.961C96.1014 190.945 96.1012 190.928 96.1011 190.911M96.7296 191.148L96.2565 190.736C96.2052 190.795 96.1534 190.853 96.1011 190.911M96.1006 190.837C96.1 190.723 96.1006 190.601 96.1062 190.495L96.1062 190.495C96.1158 190.314 96.1197 190.118 96.1239 189.902C96.1244 189.88 96.1248 189.857 96.1253 189.835C94.6936 191.631 92.8095 193.099 90.5117 194.051C87.099 195.465 83.3473 195.52 79.8464 194.483C79.7996 194.704 79.6784 194.878 79.5519 195.001C82.2787 195.846 85.1575 196.045 87.923 195.497M96.1006 190.837C96.1007 190.862 96.1009 190.887 96.1011 190.911M96.1006 190.837C94.678 192.436 92.885 193.747 90.7519 194.631L90.7519 194.631C89.8282 195.013 88.8816 195.3 87.923 195.497M87.923 195.497C88.9143 195.3 89.8912 195.007 90.8412 194.614M90.8412 194.614C92.9353 193.746 94.6988 192.469 96.1011 190.911M76.6208 193.184C73.7607 191.694 71.2432 189.421 69.4522 186.533C69.4529 186.607 69.4556 186.681 69.4601 186.756C69.4689 186.84 69.4766 186.923 69.4823 187.006C69.5088 187.259 69.549 187.518 69.5996 187.78C71.2178 190.054 73.2843 191.905 75.5923 193.255L76.6208 193.184ZM79.1766 194.479L79.0556 194.84C78.9518 194.805 78.8482 194.768 78.7448 194.731C78.744 194.731 78.7432 194.73 78.7424 194.73C78.7431 194.73 78.7439 194.73 78.7446 194.73C78.915 194.703 79.0871 194.609 79.1766 194.479Z" fill="#F5F5F5" stroke="#FA2609" stroke-width="1.25472"/>
<path d="M72.016 176.376L72.4507 175.663L72.4577 175.652L72.4652 175.641C72.651 175.363 72.9231 175.23 73.1561 175.17C73.3859 175.111 73.6176 175.112 73.8083 175.133L73.739 175.756M72.016 176.376L83.532 172.176C83.3785 172.441 83.238 172.637 83.0838 172.773C83.0816 172.765 83.0794 172.757 83.0772 172.749L83.0642 172.684L83.0387 172.633L83.0343 172.622C83.0303 172.612 83.0246 172.598 83.0184 172.583C83.002 172.543 82.9796 172.496 82.9752 172.487C82.9747 172.486 82.9745 172.486 82.9744 172.485L82.7202 171.942L82.166 172.172L74.9787 175.15C74.8636 175.144 74.7648 175.157 74.6935 175.17C74.648 175.178 74.6031 175.187 74.5727 175.194C74.5688 175.195 74.5651 175.196 74.5617 175.197C74.5261 175.204 74.5079 175.208 74.494 175.21L74.4924 175.21C74.4453 175.217 74.376 175.217 74.2534 175.199C74.2288 175.196 74.1884 175.189 74.1402 175.182C74.0384 175.165 73.902 175.143 73.8069 175.133L73.739 175.756M72.016 176.376L70.4788 177.013C70.7573 172.836 73.1774 169.128 77.2098 167.458L77.2098 167.458C80.0737 166.271 83.2631 166.314 86.1906 167.359C86.214 167.705 86.3553 168.084 86.6865 168.348L86.9139 168.529L87.1992 168.473L87.5926 168.395L87.9989 168.315L88.0292 168.172C88.5593 168.449 89.0747 168.76 89.5704 169.103L84.1561 171.346L83.8959 171.454L83.8046 171.717C83.8035 171.72 83.7991 171.729 83.7883 171.747C83.7795 171.761 83.7694 171.777 83.7546 171.8L83.7511 171.806C83.7381 171.826 83.7211 171.853 83.7045 171.88L83.7033 171.882C83.6571 171.958 83.6112 172.038 83.5695 172.111C83.5565 172.133 83.544 172.155 83.532 172.176L72.016 176.376ZM73.739 175.756C73.8241 175.765 73.9096 175.78 73.995 175.794C74.0626 175.805 74.1302 175.816 74.1975 175.825L72.0573 176.323C72.343 175.989 72.7271 175.963 72.9777 175.985C72.978 175.985 72.9783 175.985 72.9786 175.985C72.9821 175.985 72.9856 175.985 72.9891 175.986C73.1402 175.766 73.4564 175.725 73.739 175.756ZM81.8379 172.888L81.838 172.902C81.8377 172.89 81.8379 172.883 81.8379 172.883L81.8379 172.883V172.884L81.8379 172.884L81.8379 172.885L81.8379 172.888ZM70.4524 177.703L72.5757 176.823L70.4524 177.703Z" fill="#F5F5F5" stroke="#FA2609" stroke-width="1.25472"/>
<path d="M100.734 184.578C100.777 184.711 100.842 184.844 100.935 184.966C100.368 187.301 99.3141 189.465 97.8271 191.311L97.8222 191.007C97.8222 191.007 97.8222 191.006 97.8222 191.006C97.8216 190.959 97.8254 190.887 97.8327 190.789C99.2316 188.96 100.213 186.843 100.734 184.578ZM74.7762 162.38C74.0728 162.671 73.4034 163.005 72.7691 163.377C72.762 163.293 72.7549 163.21 72.7478 163.126L72.7478 163.125C72.7456 163.099 72.7433 163.073 72.7411 163.047C73.3229 162.715 73.9299 162.413 74.5653 162.15L74.5655 162.15C78.2965 160.604 82.4017 160.487 86.271 161.556C86.2719 161.631 86.2805 161.702 86.2956 161.769C82.5086 160.731 78.4702 160.849 74.7762 162.38L74.7762 162.38ZM66.7299 185.791C62.6734 177.651 64.8473 168.601 71.335 163.948C71.425 164.011 71.5207 164.068 71.6216 164.118C65.078 168.757 62.9582 177.796 66.9455 185.795L66.9456 185.796C67.3104 186.527 67.7166 187.226 68.1564 187.894C68.1379 187.963 68.1154 188.037 68.0877 188.118C67.5896 187.38 67.1347 186.604 66.7299 185.791L66.7299 185.791ZM68.5254 188.741C68.443 188.628 68.3617 188.515 68.2814 188.4L68.6053 188.527C68.5766 188.6 68.5498 188.671 68.5254 188.741ZM99.153 172.357C96.7683 167.573 92.6472 164.055 87.984 162.315C88.0323 162.269 88.0758 162.217 88.1138 162.161C92.8062 163.955 96.9557 167.518 99.3701 172.362C100.829 175.291 101.478 178.338 101.414 181.256C101.308 181.349 101.22 181.452 101.148 181.552C101.291 178.534 100.656 175.373 99.153 172.357L99.153 172.357Z" fill="#F5F5F5" stroke="#FA2609" stroke-width="1.25472"/>
<path d="M80.0338 196.445C79.6988 196.357 79.3657 196.261 79.0348 196.155C78.8976 196.111 78.7609 196.066 78.6245 196.019C78.7257 195.964 78.835 195.917 78.9526 195.882C79.3633 195.758 79.7911 195.804 80.0724 195.834C80.0813 195.835 80.09 195.836 80.0986 195.837L80.0339 196.445M80.0338 196.445C80.0338 196.445 80.0339 196.445 80.0339 196.445M80.0338 196.445L80.0321 196.461L80.0339 196.445M80.0339 196.445C80.1167 196.466 80.1996 196.487 80.2826 196.508M91.3221 195.774L91.3222 195.774C93.1613 195.011 94.7696 193.955 96.1254 192.68C96.1309 192.817 96.1373 192.955 96.1445 193.092C94.8296 194.284 93.289 195.276 91.5335 196.003L91.5335 196.003C88.2503 197.364 84.6763 197.62 81.2287 196.933C81.1888 196.853 81.149 196.773 81.1091 196.693C84.5069 197.376 88.0492 197.13 91.3221 195.774Z" fill="#F5F5F5" stroke="#FA2609" stroke-width="1.25472"/>
<path d="M96.9098 187.543C98.8101 184.101 99.23 179.807 97.8337 175.608C97.7091 175.474 97.6323 175.319 97.5886 175.184C97.5414 175.037 97.52 174.878 97.5291 174.719C97.3556 174.281 97.162 173.845 96.9474 173.412C96.8585 173.353 96.7402 173.274 96.6429 173.197C96.4958 173.081 96.3204 172.916 96.1978 172.68L96.1977 172.68C96.1175 172.526 96.0673 172.357 96.039 172.262C96.0341 172.246 96.0299 172.232 96.0263 172.22C96.021 172.203 96.0162 172.188 96.0117 172.175C95.9575 172.164 95.8804 172.146 95.8036 172.116C95.6799 172.069 95.5192 171.978 95.3974 171.802L95.3968 171.801C95.2233 171.549 95.0841 171.22 95.1234 170.873C95.1334 170.784 95.1554 170.694 95.1915 170.607C90.5977 164.535 82.5004 161.917 75.8262 164.683L96.9098 187.543ZM96.9098 187.543L96.5136 187.384L96.3116 188.033C96.2437 188.251 96.2071 188.486 96.1834 188.705C94.7757 190.739 92.8115 192.404 90.3402 193.443C90.6975 193.125 90.8908 192.719 91.0073 192.34C91.1212 191.97 91.1761 191.572 91.2211 191.247L96.9098 187.543ZM69.0127 170.912C68.4886 171.925 68.0897 173.008 67.8223 174.137C67.8903 174.289 67.9037 174.434 67.903 174.539C67.9023 174.634 67.8881 174.734 67.8823 174.775L69.0127 170.912ZM69.0127 170.912L69.8427 171.073C69.9933 170.367 70.3355 169.712 70.8002 169.144C70.8217 169.117 70.8465 169.088 70.8736 169.056C71.0765 168.818 71.4122 168.422 71.5098 167.919C71.5376 167.776 71.5506 167.633 71.5575 167.505C72.7509 166.338 74.1733 165.368 75.8262 164.683L69.0127 170.912ZM89.224 193.858L89.2542 192.988C89.2673 192.614 89.2909 192.241 89.3232 191.872C84.5004 193.847 78.9394 192.674 74.8777 189.377L74.06 188.714L75.0329 188.311L83.5593 184.778C83.678 184.675 83.8115 184.562 83.9405 184.453C84.0696 184.344 84.1941 184.239 84.295 184.151C84.3 184.147 84.3051 184.142 84.3102 184.138C84.4739 183.995 84.7239 183.778 85.0475 183.65L85.0479 183.65C85.5468 183.453 86.0917 183.52 86.4421 183.562C86.4539 183.564 86.4654 183.565 86.4767 183.567L89.224 193.858ZM89.224 193.858C86.1526 194.855 82.8444 194.773 79.7401 193.795C79.6062 193.577 79.4105 193.451 79.2507 193.379C79.0659 193.296 78.8767 193.262 78.7442 193.245C78.7438 193.245 78.7435 193.245 78.7432 193.245L89.224 193.858ZM69.5778 185.512C71.5484 189.035 74.6108 191.692 78.0881 193.188L69.5778 185.512ZM69.5778 185.512C69.5808 185.501 69.584 185.49 69.5872 185.479C69.6357 185.308 69.7022 185.074 69.7328 184.864C69.7776 184.556 69.7741 184.168 69.5542 183.788L68.7049 182.32L68.5206 183.31C67.7257 181.248 67.3855 179.147 67.4439 177.12C67.549 177.048 67.6543 176.964 67.7486 176.865C67.9603 176.642 68.1407 176.313 68.098 175.894L69.5778 185.512ZM76.7316 166.3L76.7317 166.3C79.8969 164.989 83.3867 165.042 86.557 166.159C86.5635 166.148 86.5701 166.137 86.5765 166.126C86.5768 166.125 86.577 166.125 86.5772 166.125L86.6803 166.186C86.6901 166.182 86.6999 166.177 86.7097 166.173L86.726 166.213L86.7549 166.23C86.822 166.255 86.889 166.28 86.9558 166.306L86.9421 166.341L87.0614 166.412C87.08 166.254 87.0958 166.095 87.1089 165.935L87.6901 165.983C87.7045 165.984 87.7192 165.985 87.7341 165.987C87.717 166.195 87.6954 166.403 87.6693 166.61C87.7005 166.612 87.7321 166.606 87.7586 166.596C87.7791 166.588 87.7893 166.581 87.7896 166.58C87.7897 166.58 87.7887 166.581 87.7865 166.583C87.7776 166.591 87.7603 166.609 87.7355 166.642C87.7112 166.675 87.6855 166.715 87.6572 166.763L87.6561 166.765C87.653 166.77 87.6499 166.776 87.6468 166.781C87.642 166.815 87.6371 166.85 87.6321 166.884M76.7316 166.3L90.5886 168.684L90.2558 168.822C89.5119 168.277 88.7232 167.805 87.9049 167.407M76.7316 166.3C71.8851 168.309 69.1473 172.948 69.2 177.971L69.2097 178.9M76.7316 166.3L69.2097 178.9M87.6321 166.884C87.7017 166.946 87.7651 167.016 87.8122 167.1M87.6321 166.884L88.0786 166.949L87.8122 167.1M87.6321 166.884L88.0828 166.95L87.8122 167.1M87.8122 167.1C87.8655 167.194 87.8926 167.3 87.9049 167.407M87.9049 167.407L88.1241 166.956L87.9049 167.407ZM82.005 173.599L75.3881 176.341C75.2203 176.557 75.0105 176.796 74.7572 176.987C74.4358 177.23 74.01 177.418 73.4951 177.358L82.005 173.599ZM82.005 173.599C82.1115 173.81 82.2867 173.957 82.4487 174.043C82.6758 174.162 83.0058 174.228 83.3224 174.093L83.3228 174.093C83.9882 173.808 84.3642 173.249 84.6201 172.806M82.005 173.599L88.2921 166.686C88.3154 166.719 88.3379 166.755 88.3592 166.793C88.3931 166.853 88.4207 166.914 88.4431 166.974C89.4205 167.471 90.3556 168.072 91.2239 168.776L92.0423 169.44L91.0689 169.843L84.8508 172.419C84.8225 172.467 84.7987 172.503 84.7876 172.52C84.7841 172.525 84.7819 172.528 84.7811 172.53L84.7791 172.533C84.7406 172.597 84.7044 172.66 84.6644 172.729C84.6502 172.754 84.6355 172.779 84.6201 172.806M84.6201 172.806C84.62 172.806 84.62 172.806 84.6199 172.806L84.0769 172.492L84.6201 172.806ZM69.2097 178.9L70.0674 178.544M69.2097 178.9L70.0674 178.544M70.0674 178.544L73.1099 177.284M70.0674 178.544L73.1099 177.284M73.1099 177.284C73.129 177.288 73.1494 177.293 73.1715 177.298C73.2605 177.319 73.3759 177.344 73.495 177.358L73.1099 177.284ZM67.9479 175.366C67.8782 175.171 67.8568 174.97 67.8803 174.789L68.098 175.893C68.0778 175.694 67.9915 175.477 67.9589 175.395C67.9538 175.382 67.9501 175.372 67.9481 175.367L67.9479 175.366ZM91.2289 191.19C91.2458 191.071 91.2647 190.968 91.2858 190.854C94.9329 188.529 96.9462 184.497 96.901 180.181L96.8913 179.252L96.0336 179.608L93.4873 180.662C93.5434 180.12 93.574 179.568 93.6035 179.035C93.6114 178.892 93.6192 178.751 93.6274 178.612L96.0934 177.591L96.5964 177.382L96.4608 176.855C96.2081 175.872 95.8548 174.888 95.3728 173.922C94.8917 172.955 94.3129 172.068 93.6697 171.251L93.3757 170.878L92.9366 171.06L80.505 176.21C80.4515 176.119 80.3811 176.03 80.2885 175.95L80.0136 175.711L79.6699 175.831C79.261 175.974 79.0185 176.269 78.8642 176.523C78.7813 176.66 78.6955 176.841 78.6269 176.988L70.0068 180.56L69.5038 180.768L69.6394 181.296C69.8921 182.279 70.2455 183.261 70.7274 184.228C71.2091 185.194 71.7879 186.082 72.4313 186.899L72.7252 187.273L73.1643 187.091L75.9008 185.957C75.9657 185.978 76.0291 185.991 76.088 185.999C76.2861 186.024 76.4844 186 76.6533 185.964C76.9941 185.891 77.3703 185.736 77.7089 185.572C78.0552 185.404 78.3965 185.209 78.6761 185.034C78.9423 184.867 79.1904 184.694 79.329 184.567C79.3482 184.549 79.3669 184.532 79.3851 184.514L91.0596 179.677C91.0967 179.949 91.1442 180.191 91.1802 180.368L91.1803 180.368C91.1913 180.422 91.2027 180.48 91.215 180.543C91.2555 180.752 91.3046 181.004 91.3731 181.251C91.3539 181.36 91.3331 181.465 91.3097 181.567L86.4816 183.567C86.4801 183.567 86.4786 183.567 86.4772 183.567L91.2289 191.19Z" fill="#F5F5F5" stroke="#FA2609" stroke-width="1.25472"/>
<path d="M104.473 178.44C108.828 175.925 112.23 186.472 104.746 192.662C97.2625 198.851 86.9778 193.822 92.4583 181.546C97.9388 169.269 109.026 168.825 112.8 172.523C116.574 176.22 115.673 185.253 112.959 184.804C110.244 184.355 115.343 175.776 119.111 176.368C122.879 176.96 122.089 185.6 119.922 184.682C117.755 183.764 122.013 178.735 124.996 178.883C127.978 179.031 127.211 184.86 125.561 184.682C123.911 184.504 126.878 179.919 133.288 180.215" fill="#F5F5F5"/>
<path d="M104.473 178.44C108.828 175.925 112.23 186.472 104.746 192.662C97.2625 198.851 86.9778 193.822 92.4583 181.546C97.9388 169.269 109.026 168.825 112.8 172.523C116.574 176.22 115.673 185.253 112.959 184.804C110.244 184.355 115.343 175.776 119.111 176.368C122.879 176.96 122.089 185.6 119.922 184.682C117.755 183.764 122.013 178.735 124.996 178.883C127.978 179.031 127.211 184.86 125.561 184.682C123.911 184.504 126.878 179.919 133.288 180.215" stroke="#FA2609" stroke-width="1.25472" stroke-miterlimit="10"/>
<path d="M99.1504 15.7606L99.1501 15.761C98.6093 16.3227 98.3398 17.079 98.3707 17.873L98.3708 17.8742C98.3714 17.8904 98.3656 17.908 98.3516 17.9225C98.3387 17.9359 98.3204 17.9438 98.3012 17.9438H80.7677C80.7311 17.9438 80.7022 17.9169 80.6985 17.8822C80.6985 17.8821 80.6985 17.8821 80.6985 17.882L79.8237 9.21758L79.8236 9.21658C79.8219 9.20028 79.827 9.18181 79.8412 9.16609C79.8547 9.15124 79.8738 9.143 79.8928 9.143H121.42C121.456 9.143 121.485 9.16969 121.489 9.20429C121.489 9.20446 121.489 9.20463 121.489 9.2048L122.364 17.8678C122.364 17.8679 122.364 17.868 122.364 17.8682C122.366 17.8868 122.36 17.9051 122.349 17.9195C122.332 17.9357 122.312 17.943 122.295 17.943H104.759C104.725 17.943 104.696 17.9176 104.691 17.8856L104.072 17.9866L104.691 17.8861C104.419 16.2126 102.909 14.9063 101.22 14.9063C100.43 14.9063 99.6888 15.2023 99.1504 15.7606ZM104.71 17.3709L104.849 17.8074H105.307H121.524H122.218L122.148 17.117L121.413 9.84138L121.356 9.27708H120.789H80.6626H79.9687L80.0384 9.9675L80.7734 17.2431L80.8304 17.8074H81.3976H97.6451H98.1855L98.2655 17.273C98.3572 16.6607 98.6269 16.1066 99.0503 15.6677L99.0508 15.6673C99.6033 15.0933 100.37 14.7707 101.221 14.7707C102.775 14.7707 104.232 15.8758 104.71 17.3709Z" fill="#F5F5F5" stroke="#FA2609" stroke-width="1.25472"/>
<g opacity="0.6">
<path d="M99.1504 15.7606L99.1501 15.761C98.6093 16.3227 98.3398 17.079 98.3707 17.873L98.3708 17.8742C98.3714 17.8904 98.3656 17.908 98.3516 17.9225C98.3387 17.9359 98.3204 17.9438 98.3012 17.9438H80.7677C80.7311 17.9438 80.7022 17.9169 80.6985 17.8822C80.6985 17.8821 80.6985 17.8821 80.6985 17.882L79.8237 9.21758L79.8236 9.21658C79.8219 9.20028 79.827 9.18181 79.8412 9.16609C79.8547 9.15124 79.8738 9.143 79.8928 9.143H121.42C121.456 9.143 121.485 9.16969 121.489 9.20429C121.489 9.20446 121.489 9.20463 121.489 9.2048L122.364 17.8678C122.364 17.8679 122.364 17.868 122.364 17.8682C122.366 17.8868 122.36 17.9051 122.349 17.9195C122.332 17.9357 122.312 17.943 122.295 17.943H104.759C104.725 17.943 104.696 17.9176 104.691 17.8856L104.072 17.9866L104.691 17.8861C104.419 16.2126 102.909 14.9063 101.22 14.9063C100.43 14.9063 99.6888 15.2023 99.1504 15.7606ZM104.71 17.3709L104.849 17.8074H105.307H121.524H122.218L122.148 17.117L121.413 9.84138L121.356 9.27708H120.789H80.6626H79.9687L80.0384 9.9675L80.7734 17.2431L80.8304 17.8074H81.3976H97.6451H98.1855L98.2655 17.273C98.3572 16.6607 98.6269 16.1066 99.0503 15.6677L99.0508 15.6673C99.6033 15.0933 100.37 14.7707 101.221 14.7707C102.775 14.7707 104.232 15.8758 104.71 17.3709Z" fill="#F5F5F5" stroke="#FA2609" stroke-width="1.25472"/>
</g>
<path d="M83.7907 9.19298L83.7907 9.19297C83.7817 9.10369 83.7681 9.01898 83.7507 8.93871H118.63C118.677 8.99692 118.746 9.11106 118.767 9.319C118.779 9.44021 118.77 9.52179 118.757 9.57404H83.7975C83.806 9.45549 83.8044 9.32853 83.7907 9.19298Z" fill="#F5F5F5" stroke="#FA2609" stroke-width="1.25472"/>
<path opacity="0.3" d="M83.7907 9.19298L83.7907 9.19297C83.7817 9.10369 83.7681 9.01898 83.7507 8.93871H118.63C118.677 8.99692 118.746 9.11106 118.767 9.319C118.779 9.44021 118.77 9.52179 118.757 9.57404H83.7975C83.806 9.45549 83.8044 9.32853 83.7907 9.19298Z" fill="#F5F5F5" stroke="#FA2609" stroke-width="1.25472"/>
<path d="M211.875 37.8027L211.692 37.5002H211.338H197.539C194.219 37.5002 191.529 34.8148 191.529 31.5059V12.7906C191.529 9.48103 194.219 6.7963 197.539 6.7963H219.092C222.412 6.7963 225.101 9.48152 225.102 12.7906C225.102 12.7907 225.102 12.7908 225.102 12.7909V31.5059C225.102 34.8155 222.413 37.5002 219.093 37.5002H215.803H215.174L215.175 38.1293L215.189 43.2772L211.875 37.8027Z" fill="#F5F5F5" stroke="#FA2609" stroke-width="1.25472"/>
<path opacity="0.7" d="M210.639 12.3097C216.053 13.5851 219.403 18.9969 218.126 24.3952C216.848 29.7936 211.426 33.1385 206.012 31.8631C200.598 30.5876 197.248 25.1759 198.526 19.7775C199.803 14.3792 205.226 11.0343 210.639 12.3097Z" fill="#F5F5F5" stroke="#FA2609" stroke-width="1.25472"/>
<path d="M203.269 20.6923L203.268 20.6918C203.142 20.5427 202.917 20.5238 202.766 20.6511L203.269 20.6923ZM203.269 20.6923L206.716 24.7446L207.194 25.3062M203.269 20.6923L207.194 25.3062M207.194 25.3062L207.672 24.7445M207.194 25.3062L207.672 24.7445M207.672 24.7445L213.365 18.0527L213.366 18.0523M207.672 24.7445L213.366 18.0523M213.366 18.0523C213.492 17.9028 213.717 17.8847 213.866 18.0112L213.867 18.0115M213.366 18.0523L213.867 18.0115M213.867 18.0115C214.017 18.1385 214.034 18.3604 213.908 18.5089L213.908 18.5089M213.867 18.0115L213.908 18.5089M213.908 18.5089L207.465 26.0822L207.465 26.0831M213.908 18.5089L207.465 26.0831M207.465 26.0831C207.398 26.1612 207.3 26.2076 207.194 26.2076C207.088 26.2076 206.989 26.1617 206.922 26.0821M207.465 26.0831L206.922 26.0821M206.922 26.0821L202.725 21.149C202.725 21.149 202.725 21.1489 202.725 21.1489C202.599 20.9996 202.617 20.7776 202.766 20.6512L206.922 26.0821Z" fill="#F5F5F5" stroke="#FA2609" stroke-width="1.25472"/>
<path d="M69.5135 38.7979L66.7667 29.4859L68.059 29.4687L70.3643 37.6698L70.0632 37.6738L72.2368 29.4133L73.529 29.3961L75.9096 37.5962L75.596 37.6004L77.6943 29.3408L78.9866 29.3237L76.4891 38.7053L75.1216 38.7234L72.7289 30.5612L73.0551 30.5569L70.881 38.7797L69.5135 38.7979ZM82.902 38.7707C82.2496 38.7794 81.6579 38.6367 81.1269 38.3426C80.5959 38.0401 80.172 37.6233 79.8554 37.0921C79.5388 36.5609 79.376 35.9565 79.367 35.2791C79.3579 34.6016 79.5005 33.9974 79.7945 33.4664C80.097 32.9354 80.5096 32.5116 81.0324 32.1952C81.5552 31.8787 82.147 31.7161 82.8078 31.7073C83.4602 31.6987 84.0519 31.8456 84.5829 32.148C85.1139 32.4421 85.5334 32.8507 85.8416 33.3736C86.1581 33.8964 86.3209 34.5008 86.33 35.1866C86.3392 35.8725 86.1884 36.4852 85.8777 37.0247C85.5669 37.5558 85.1501 37.9796 84.6273 38.2961C84.1127 38.6041 83.5376 38.7623 82.902 38.7707ZM82.8869 37.6416C83.3051 37.636 83.6801 37.5265 84.0119 37.313C84.352 37.0993 84.6158 36.8072 84.8033 36.4366C84.9991 36.0659 85.094 35.6548 85.088 35.2031C85.0818 34.7431 84.9761 34.3388 84.7706 33.9901C84.5735 33.633 84.302 33.3522 83.9563 33.1477C83.6188 32.9346 83.241 32.8309 82.8228 32.8365C82.3962 32.8421 82.013 32.956 81.6729 33.178C81.3412 33.3915 81.0773 33.6794 80.8814 34.0418C80.6853 34.3957 80.5903 34.8027 80.5965 35.2627C80.6025 35.7144 80.7083 36.1229 80.914 36.4882C81.1196 36.8536 81.3911 37.1386 81.7285 37.3433C82.0742 37.5478 82.4603 37.6473 82.8869 37.6416ZM87.897 38.5538L87.8068 31.7915L88.9485 31.7764L88.9651 33.0184L88.8373 32.8445C88.9911 32.4576 89.2298 32.17 89.5536 31.9817C89.8772 31.785 90.2732 31.6835 90.7416 31.6773L91.1556 31.6718L91.1703 32.7758L90.5807 32.7837C90.1039 32.79 89.7212 32.9457 89.4325 33.2506C89.1436 33.5473 89.0028 33.9674 89.0101 34.5111L89.0638 38.5384L87.897 38.5538ZM92.2832 38.4956L92.1566 28.9983L93.3234 28.9828L93.4102 35.4942L92.9319 35.3876L96.4713 31.6765L97.9642 31.6567L95.4035 34.4137L98.2301 38.4167L96.85 38.435L94.2668 34.8052L94.994 34.7579L93.0517 36.8416L93.4167 35.9835L93.45 38.4801L92.2832 38.4956ZM101.586 38.3721L101.461 29.0253L104.761 28.9815C105.38 28.9733 105.925 29.0832 106.396 29.3112C106.868 29.5391 107.236 29.8689 107.501 30.3003C107.775 30.7317 107.915 31.2402 107.923 31.8256C107.931 32.4111 107.804 32.9231 107.542 33.3616C107.288 33.7916 106.929 34.131 106.464 34.3798C106.007 34.6201 105.465 34.7444 104.838 34.7527L102.768 34.7802L102.815 38.3558L101.586 38.3721ZM102.753 33.651L104.86 33.6231C105.237 33.6181 105.562 33.5426 105.836 33.3968C106.11 33.2509 106.321 33.0432 106.468 32.7735C106.615 32.5039 106.686 32.1934 106.681 31.8421C106.676 31.4825 106.597 31.174 106.443 30.9167C106.289 30.6511 106.073 30.449 105.795 30.3105C105.517 30.1719 105.19 30.1052 104.813 30.1102L102.706 30.1381L102.753 33.651ZM112.402 38.3791C111.75 38.3878 111.167 38.2408 110.652 37.9381C110.138 37.6354 109.731 37.2183 109.431 36.6869C109.131 36.1471 108.977 35.5427 108.968 34.8735C108.959 34.1961 109.093 33.592 109.37 33.0613C109.656 32.5304 110.043 32.1112 110.533 31.8035C111.031 31.4874 111.589 31.3252 112.208 31.317C112.71 31.3104 113.154 31.3965 113.541 31.5754C113.937 31.7458 114.271 31.984 114.542 32.2899C114.822 32.5873 115.036 32.9317 115.183 33.3229C115.339 33.7056 115.42 34.1061 115.425 34.5243C115.427 34.6163 115.42 34.721 115.404 34.8383C115.398 34.9471 115.386 35.0519 115.371 35.1524L109.826 35.2261L109.812 34.2224L114.68 34.1578L114.134 34.6167C114.204 34.1808 114.157 33.7924 113.993 33.4516C113.83 33.1108 113.592 32.8421 113.28 32.6455C112.968 32.4488 112.615 32.3531 112.222 32.3583C111.829 32.3636 111.47 32.4687 111.147 32.6738C110.823 32.8788 110.572 33.1708 110.393 33.5496C110.222 33.92 110.157 34.36 110.197 34.8698C110.17 35.3637 110.252 35.7976 110.441 36.1716C110.638 36.537 110.909 36.822 111.255 37.0266C111.609 37.2227 111.991 37.318 112.401 37.3125C112.852 37.3065 113.232 37.1969 113.538 36.9837C113.845 36.7705 114.092 36.4995 114.28 36.1708L115.266 36.6596C115.136 36.9709 114.931 37.258 114.65 37.5211C114.377 37.7757 114.049 37.9808 113.667 38.1365C113.292 38.292 112.871 38.3729 112.402 38.3791ZM116.996 38.1676L116.905 31.4052L118.047 31.3901L118.064 32.6321L117.936 32.4582C118.09 32.0713 118.328 31.7837 118.652 31.5954C118.976 31.3987 119.372 31.2972 119.84 31.291L120.254 31.2855L120.269 32.3895L119.679 32.3974C119.202 32.4037 118.82 32.5594 118.531 32.8644C118.242 33.161 118.101 33.5811 118.109 34.1248L118.162 38.1521L116.996 38.1676ZM121.382 38.1093L121.292 31.347L122.433 31.3319L122.452 32.7119L122.286 32.5008C122.447 32.072 122.711 31.7423 123.076 31.5115C123.441 31.2808 123.853 31.1624 124.313 31.1563C124.84 31.1493 125.315 31.2894 125.737 31.5766C126.167 31.8637 126.465 32.2445 126.63 32.7192L126.304 32.7361C126.473 32.2068 126.765 31.8056 127.179 31.5324C127.594 31.2508 128.056 31.1066 128.566 31.0999C129.035 31.0936 129.459 31.1968 129.838 31.4092C130.225 31.6216 130.535 31.9186 130.766 32.3004C130.997 32.6821 131.115 33.1156 131.122 33.6007L131.18 37.9793L130.001 37.9949L129.948 33.9927C129.943 33.6163 129.871 33.2994 129.734 33.0419C129.597 32.7844 129.41 32.5861 129.174 32.447C128.946 32.2994 128.678 32.2277 128.368 32.2318C128.067 32.2358 127.796 32.3147 127.556 32.4685C127.323 32.6138 127.138 32.8212 126.999 33.0907C126.869 33.3518 126.806 33.6663 126.811 34.0344L126.864 38.0365L125.685 38.0522L125.632 34.05C125.627 33.6736 125.556 33.3567 125.418 33.0992C125.281 32.8417 125.094 32.6434 124.858 32.5043C124.63 32.3567 124.362 32.285 124.052 32.2891C123.751 32.2931 123.48 32.372 123.24 32.5258C123.007 32.6711 122.822 32.8785 122.683 33.148C122.553 33.4091 122.49 33.7236 122.495 34.0916L122.549 38.0938L121.382 38.1093ZM132.837 37.9573L132.747 31.1949L133.914 31.1794L134.004 37.9418L132.837 37.9573ZM132.733 30.116L132.713 28.6104L133.88 28.595L133.9 30.1005L132.733 30.116ZM138.563 37.9565C137.902 37.9653 137.39 37.7839 137.025 37.4123C136.669 37.0406 136.486 36.5118 136.477 35.8259L136.429 32.2628L135.2 32.2792L135.185 31.1626L135.436 31.1592C135.737 31.1552 135.974 31.0601 136.147 30.8737C136.321 30.6874 136.405 30.4437 136.401 30.1426L136.394 29.5905L137.561 29.575L137.581 31.1308L139.099 31.1106L139.114 32.2272L137.596 32.2474L137.643 35.7728C137.646 35.9986 137.682 36.1947 137.751 36.3611C137.829 36.5274 137.952 36.6596 138.121 36.7578C138.289 36.8476 138.511 36.8906 138.787 36.887C138.846 36.8862 138.917 36.881 139 36.8716C139.092 36.862 139.176 36.8525 139.251 36.8432L139.265 37.8719C139.156 37.8985 139.035 37.9168 138.902 37.9269C138.768 37.9454 138.655 37.9553 138.563 37.9565Z" fill="#FA2609"/>
</g>
<defs>
<clipPath id="clip0_670_3456">
<rect width="266" height="223.34" fill="white"/>
</clipPath>
</defs>
</svg>
