<svg width="235" height="174" viewBox="0 0 235 174" fill="none" xmlns="http://www.w3.org/2000/svg">
<path d="M63.247 43.5046V38.6927C63.247 38.2219 62.8653 37.8407 62.395 37.8407H61.1566C60.7941 37.8407 60.473 37.5942 60.3918 37.2407C59.9632 35.3723 59.2332 33.6189 58.2483 32.0388C58.0516 31.7233 58.0892 31.3168 58.3516 31.0539L59.2224 30.183C59.5553 29.8502 59.5553 29.3108 59.2224 28.978L55.8203 25.5759C55.4875 25.243 54.9481 25.243 54.6153 25.5759L53.7454 26.4458C53.4825 26.7087 53.076 26.7457 52.7605 26.549C51.1803 25.5637 49.4265 24.8327 47.5571 24.4032C47.2036 24.322 46.9576 24.0014 46.9576 23.6389V22.4043C46.9576 21.9334 46.576 21.5522 46.1056 21.5522H41.2938C40.8229 21.5522 40.4417 21.9339 40.4417 22.4043V23.6389C40.4417 24.0014 40.1952 24.3225 39.8418 24.4037C37.9724 24.8327 36.2181 25.5637 34.6379 26.549C34.3225 26.7457 33.9159 26.7087 33.653 26.4458L32.7841 25.5768C32.4512 25.244 31.9118 25.244 31.579 25.5768L28.1769 28.9789C27.8441 29.3117 27.8441 29.8511 28.1769 30.184L29.0468 31.0539C29.3097 31.3168 29.3468 31.7233 29.1501 32.0388C28.1652 33.6194 27.4352 35.3733 27.0061 37.2417C26.9249 37.5952 26.6043 37.8416 26.2414 37.8416H25.0044C24.5335 37.8416 24.1523 38.2233 24.1523 38.6937V43.5055C24.1523 43.9764 24.534 44.3575 25.0044 44.3575H26.2419C26.6043 44.3575 26.9254 44.604 27.0061 44.957C27.4357 46.8259 28.1661 48.5798 29.1506 50.159C29.3473 50.4744 29.3102 50.881 29.0473 51.1439L28.176 52.0152C27.8431 52.348 27.8431 52.8874 28.176 53.2202L31.5781 56.6228C31.9109 56.9556 32.4508 56.9556 32.7831 56.6228L33.6549 55.751C33.9178 55.4881 34.3243 55.4511 34.6393 55.6473C36.219 56.6313 37.9719 57.3603 39.8408 57.7894C40.1943 57.8706 40.4408 58.1912 40.4408 58.5541V59.7953C40.4408 60.2662 40.8224 60.6474 41.2928 60.6474H46.1047C46.5755 60.6474 46.9567 60.2657 46.9567 59.7953V58.5541C46.9567 58.1912 47.2032 57.8706 47.5567 57.7894C49.4251 57.3608 51.178 56.6313 52.7572 55.6473C53.0727 55.4511 53.4792 55.4881 53.7416 55.751L54.6139 56.6233C54.9467 56.9561 55.4866 56.9561 55.8189 56.6233L59.221 53.2207C59.5539 52.8879 59.5539 52.348 59.221 52.0156L58.3493 51.1443C58.0864 50.8815 58.0493 50.4749 58.246 50.1594C59.2304 48.5798 59.9604 46.8268 60.3895 44.958C60.4707 44.6045 60.7913 44.358 61.1542 44.358H62.3936C62.8653 44.3566 63.247 43.9749 63.247 43.5046ZM43.6983 54.6652C36.2054 54.6652 30.1397 48.5873 30.1397 41.0944C30.1397 33.6128 36.2054 27.5354 43.6983 27.5354C51.1916 27.5354 57.2573 33.6133 57.2573 41.0944C57.2573 48.5877 51.1916 54.6652 43.6983 54.6652Z" fill="white" stroke="#FA2609" stroke-width="0.7896" stroke-miterlimit="10"/>
<path d="M70.417 45.3323H73.6953C73.7398 45.3323 73.7764 45.3688 73.7764 45.4133V46.2542C73.7764 46.6961 74.0575 47.0996 74.4854 47.2385L74.5723 47.2629H74.5732C75.64 47.5079 76.6487 47.9035 77.5742 48.429L77.9658 48.6624H77.9668C78.3436 48.8966 78.8372 48.8768 79.1875 48.5833L79.2559 48.5208L79.8486 47.928L79.8477 47.927C79.8719 47.9032 79.9075 47.8984 79.9365 47.9104L79.9629 47.928L82.2812 50.2463C82.3052 50.2705 82.3106 50.3052 82.2988 50.3342L82.2812 50.3606L81.6875 50.9543C81.3802 51.2618 81.3116 51.7095 81.4668 52.0862L81.5469 52.2424V52.2434C82.1086 53.1446 82.5439 54.1325 82.8311 55.1819L82.9443 55.636C83.0538 56.1119 83.4811 56.4329 83.9531 56.4329H84.7969C84.8414 56.4329 84.8779 56.4694 84.8779 56.5139V59.7922C84.8779 59.8371 84.8415 59.874 84.7959 59.8743H83.9521C83.5098 59.8745 83.1075 60.157 82.9688 60.5842L82.9443 60.6711V60.6721C82.6993 61.7391 82.3042 62.7479 81.7793 63.6731L81.5459 64.0637C81.3104 64.4412 81.3321 64.9355 81.626 65.2854L81.6875 65.3538L82.2822 65.9475C82.3133 65.979 82.3135 66.0304 82.2822 66.0618L79.9629 68.3801C79.9394 68.4035 79.9051 68.4093 79.876 68.3977L79.8486 68.3801L79.2549 67.7854C78.9473 67.4779 78.4989 67.4084 78.1221 67.5637L77.9658 67.6438C77.0649 68.2049 76.0769 68.6399 75.0273 68.927L74.5742 69.0403H74.5732C74.0975 69.1498 73.7764 69.5772 73.7764 70.0491V70.8948C73.7764 70.9392 73.7407 70.9757 73.6963 70.9758H70.417C70.3725 70.9758 70.3359 70.9392 70.3359 70.8948V70.0491C70.3359 69.6066 70.0543 69.2035 69.627 69.0647L69.5391 69.0403L69.0859 68.927C68.036 68.6399 67.0475 68.2049 66.1465 67.6438H66.1455C65.7677 67.4086 65.2744 67.4307 64.9258 67.7229L64.8584 67.7854L64.2637 68.3801C64.24 68.4035 64.2049 68.4096 64.1758 68.3977L64.1494 68.3801L61.8311 66.0608C61.8075 66.0372 61.8017 66.0029 61.8135 65.9739L61.8311 65.9475V65.9465L62.4248 65.3528C62.7316 65.0452 62.8008 64.5978 62.6455 64.2209L62.5654 64.0647V64.0637C62.0041 63.1629 61.5688 62.1749 61.2812 61.1252L61.167 60.6711C61.0575 60.195 60.6295 59.8743 60.1582 59.8743H59.3154C59.2709 59.8743 59.2344 59.8377 59.2344 59.7932V56.5149C59.2344 56.4704 59.2709 56.4338 59.3154 56.4338H60.1582C60.6009 56.4338 61.0039 56.1515 61.1426 55.7239L61.167 55.637C61.4116 54.5703 61.8068 53.5608 62.332 52.635L62.5645 52.2434C62.7991 51.8663 62.7783 51.3726 62.4854 51.0227L62.4238 50.9543L61.8301 50.3616H61.8311C61.807 50.3375 61.8008 50.3028 61.8125 50.2737L61.8301 50.2473L64.1484 47.929C64.1727 47.9047 64.2081 47.8984 64.2373 47.9104L64.2637 47.928L64.8555 48.5208C65.1631 48.8276 65.6114 48.8978 65.9883 48.7424L66.1445 48.6614C67.0458 48.0995 68.0348 47.6648 69.085 47.3772L69.5391 47.2629C70.0152 47.1534 70.3359 46.7254 70.3359 46.2542V45.4133C70.3359 45.3802 70.3561 45.3515 70.3848 45.3391L70.417 45.3323ZM72.0557 48.9319C66.9615 48.932 62.8371 53.0641 62.8369 58.1506C62.8369 63.2445 66.9611 67.3771 72.0557 67.3772C77.1508 67.3772 81.2754 63.2446 81.2754 58.1506C81.2752 53.064 77.1504 48.9319 72.0557 48.9319Z" fill="white" stroke="#FA2609"/>
<path d="M57.5742 143.937C58.1758 143.937 58.6631 144.425 58.6631 145.027C58.6629 145.628 58.1757 146.115 57.5742 146.115C56.9726 146.115 56.4845 145.628 56.4844 145.027C56.4844 144.425 56.9725 143.937 57.5742 143.937Z" fill="white" stroke="#FA2609"/>
<path d="M204.16 103.895C204.762 103.895 205.249 104.383 205.249 104.985C205.249 105.586 204.762 106.074 204.16 106.074C203.559 106.074 203.07 105.586 203.07 104.985C203.07 104.383 203.558 103.895 204.16 103.895Z" fill="white" stroke="#FA2609"/>
<path d="M233.41 43.7427C234.012 43.7428 234.499 44.2309 234.499 44.8325C234.499 45.434 234.012 45.9212 233.41 45.9214C232.809 45.9214 232.32 45.4341 232.32 44.8325C232.32 44.2308 232.808 43.7427 233.41 43.7427Z" fill="white" stroke="#FA2609"/>
<path d="M176.259 25.0427C176.533 25.0427 176.756 25.2653 176.756 25.5398C176.756 25.8143 176.533 26.0369 176.259 26.0369C175.984 26.0368 175.762 25.8143 175.762 25.5398C175.762 25.2653 175.984 25.0427 176.259 25.0427Z" fill="white" stroke="#FA2609"/>
<path d="M28.8604 11.7607C29.1349 11.7607 29.3574 11.9833 29.3574 12.2578C29.3574 12.5323 29.1349 12.7549 28.8604 12.7549C28.5858 12.7549 28.3633 12.5323 28.3633 12.2578C28.3633 11.9833 28.5859 11.7608 28.8604 11.7607Z" fill="white" stroke="#FA2609"/>
<path d="M50.9268 73.1624C51.2013 73.1624 51.4238 73.3849 51.4238 73.6594C51.4238 73.9339 51.2013 74.1565 50.9268 74.1565C50.6523 74.1565 50.4297 73.9339 50.4297 73.6594C50.4297 73.3849 50.6523 73.1624 50.9268 73.1624Z" fill="white" stroke="#FA2609"/>
<path d="M48.29 146.119C48.5646 146.119 48.7871 146.342 48.7871 146.616C48.7871 146.891 48.5646 147.114 48.29 147.114C48.0155 147.114 47.793 146.891 47.793 146.616C47.793 146.376 47.9631 146.176 48.1895 146.129L48.29 146.119Z" fill="white" stroke="#FA2609"/>
<path d="M180.844 148.268C181.445 148.268 181.933 148.756 181.933 149.358C181.932 149.959 181.445 150.447 180.844 150.447C180.242 150.447 179.754 149.96 179.754 149.358C179.754 148.756 180.242 148.268 180.844 148.268Z" fill="white" stroke="#FA2609"/>
<path d="M214.645 148.268C215.246 148.268 215.733 148.756 215.733 149.358C215.733 149.959 215.246 150.447 214.645 150.447C214.043 150.447 213.555 149.96 213.555 149.358C213.555 148.756 214.043 148.268 214.645 148.268Z" fill="white" stroke="#FA2609"/>
<path d="M57.2617 6.83374C57.8633 6.8339 58.3506 7.32195 58.3506 7.92358C58.3504 8.52509 57.8632 9.01229 57.2617 9.01245C56.6601 9.01245 56.172 8.52519 56.1719 7.92358C56.1719 7.32184 56.66 6.83374 57.2617 6.83374Z" fill="white" stroke="#FA2609"/>
<path d="M164.811 78.6189C165.709 78.6189 166.437 79.3474 166.438 80.2458C166.438 81.1443 165.709 81.8728 164.811 81.8728C163.912 81.8727 163.184 81.1446 163.184 80.2458C163.184 79.3471 163.912 78.619 164.811 78.6189Z" fill="white" stroke="#FA2609"/>
<path d="M7.93555 52.3176C8.83462 52.318 9.56244 53.0464 9.5625 53.9446C9.5625 54.8431 8.83436 55.5715 7.93555 55.5715C7.03718 55.5715 6.30859 54.843 6.30859 53.9446C6.30865 53.1022 6.94886 52.4096 7.76953 52.3264L7.93555 52.3176Z" fill="white" stroke="#FA2609"/>
<path d="M3.8877 19.3979V21.6958H1.58984V19.3979H3.8877Z" fill="white" stroke="#FA2609"/>
<path d="M8.29785 19.3979V21.6958H6V19.3979H8.29785Z" fill="white" stroke="#FA2609"/>
<path d="M12.7119 19.3979V21.6958H10.4141V19.3979H12.7119Z" fill="white" stroke="#FA2609"/>
<path d="M196.126 138.618V140.916H193.828V138.618H196.126Z" fill="white" stroke="#FA2609"/>
<path d="M200.536 138.618V140.916H198.238V138.618H200.536Z" fill="white" stroke="#FA2609"/>
<path d="M204.95 138.618V140.916H202.652V138.618H204.95Z" fill="white" stroke="#FA2609"/>
<path d="M29.9033 133.419V135.717H27.6055V133.419H29.9033Z" fill="white" stroke="#FA2609"/>
<path d="M34.3135 133.419V135.717H32.0156V133.419H34.3135Z" fill="white" stroke="#FA2609"/>
<path d="M38.7275 133.419V135.717H36.4297V133.419H38.7275Z" fill="white" stroke="#FA2609"/>
<path d="M80.8389 3.64038H144.355C149.615 3.64038 153.878 7.90373 153.878 13.1628V154.543C153.878 159.802 149.614 164.064 144.355 164.064H80.8389C75.5799 164.064 71.3166 159.802 71.3164 154.543V13.1628C71.3164 7.90373 75.5798 3.64038 80.8389 3.64038Z" fill="white" stroke="#FA2609"/>
<path d="M81.1572 5.05396H144.033C148.605 5.05405 152.311 8.76018 152.312 13.3323V153.491L152.301 153.918C152.078 158.292 148.462 161.771 144.032 161.771H81.1572C76.5851 161.771 72.8789 158.064 72.8789 153.491V13.3323C72.8791 8.76024 76.5852 5.05414 81.1572 5.05396Z" fill="white" stroke="#FA2609"/>
<path d="M81.8477 7.6123H92.1025C92.4346 7.6123 92.743 7.77636 92.9287 8.04492L93 8.16699L94.0898 10.3408C94.6717 11.5147 95.8697 12.248 97.1709 12.248H128.024C129.326 12.248 130.524 11.5147 131.105 10.3408L132.195 8.16699C132.366 7.82717 132.713 7.6123 133.093 7.6123H143.348C146.355 7.6123 148.793 10.05 148.793 13.0576V153.054C148.793 156.061 146.355 158.499 143.348 158.499H81.8477C78.8405 158.499 76.4023 156.061 76.4023 153.054V13.0576C76.4023 10.0504 78.8405 7.6123 81.8477 7.6123Z" fill="white" stroke="#FA2609"/>
<path d="M100.695 7.61182H125.545C125.847 7.612 126.091 7.85706 126.091 8.15869C126.091 8.4601 125.846 8.7044 125.545 8.70459H100.695C100.394 8.70459 100.149 8.46022 100.148 8.15869C100.148 7.85694 100.394 7.61182 100.695 7.61182Z" fill="white" stroke="#FA2609"/>
<path d="M139.531 154.14H84.2343C82.0617 154.14 80.3008 152.379 80.3008 150.206V130.681C80.3008 128.508 82.0617 126.747 84.2343 126.747H139.531C141.704 126.747 143.465 128.508 143.465 130.681V150.206C143.465 152.379 141.704 154.14 139.531 154.14Z" fill="white" stroke="#FA2609" stroke-miterlimit="10" stroke-linecap="round" stroke-linejoin="round" stroke-dasharray="2.84 2.84"/>
<path d="M136.73 86.9213H109.298C107.731 86.9213 106.461 85.651 106.461 84.084V70.5263C106.461 68.9593 107.731 67.689 109.298 67.689H136.73C138.297 67.689 139.567 68.9593 139.567 70.5263V84.084C139.567 85.651 138.297 86.9213 136.73 86.9213Z" fill="white" stroke="#FA2609" stroke-miterlimit="10" stroke-linecap="round" stroke-linejoin="round" stroke-dasharray="2.84 2.84"/>
<path d="M85.9824 92.0347H142.636C144.227 92.0347 145.517 93.3247 145.517 94.9155V118.81C145.517 120.401 144.227 121.691 142.636 121.691H85.9824C84.3916 121.691 83.1016 120.401 83.1016 118.81V94.9155C83.1016 93.4241 84.235 92.1968 85.6875 92.0493L85.9824 92.0347Z" fill="white" stroke="#FA2609"/>
<path d="M83.6758 89.5544H140.09C141.677 89.5546 142.965 90.8421 142.965 92.4294V116.339C142.965 117.925 141.678 119.21 140.09 119.21H83.6758C82.0875 119.21 80.8008 117.925 80.8008 116.339V92.4294L80.8154 92.1355C80.953 90.7828 82.0292 89.7067 83.3818 89.5691L83.6758 89.5544Z" fill="white" stroke="#FA2609"/>
<path d="M85.501 96.5342H102.12C103.104 96.5342 103.902 97.3321 103.902 98.3164V114.936C103.902 115.92 103.104 116.718 102.12 116.718H85.501C84.5167 116.718 83.7188 115.92 83.7188 114.936V98.3164C83.7188 97.3325 84.5167 96.5342 85.501 96.5342Z" fill="white" stroke="#FA2609"/>
<path d="M107.178 97.7737H121.814C121.936 97.7737 122.035 97.8724 122.035 97.9944V97.9954C122.035 98.1161 121.937 98.2151 121.814 98.2151H107.178C107.056 98.2151 106.957 98.1163 106.957 97.9944C106.957 97.8724 107.056 97.7737 107.178 97.7737Z" fill="white" stroke="#FA2609"/>
<path d="M107.178 100.651H115.145C115.266 100.651 115.365 100.75 115.365 100.872C115.365 100.994 115.266 101.093 115.145 101.093H107.178C107.056 101.093 106.957 100.994 106.957 100.872C106.957 100.766 107.032 100.677 107.133 100.656L107.178 100.651Z" fill="white" stroke="#FA2609"/>
<path d="M118.076 100.651H139.634C139.756 100.651 139.854 100.75 139.854 100.872C139.854 100.994 139.755 101.093 139.634 101.093H118.076C117.954 101.093 117.856 100.994 117.855 100.872C117.855 100.75 117.954 100.651 118.076 100.651Z" fill="white" stroke="#FA2609"/>
<path d="M107.178 103.529H119.504C119.626 103.529 119.725 103.627 119.725 103.749C119.725 103.871 119.626 103.97 119.504 103.97H107.178C107.056 103.97 106.957 103.871 106.957 103.749C106.957 103.627 107.056 103.529 107.178 103.529Z" fill="white" stroke="#FA2609"/>
<path d="M122.217 103.529H129.966C130.088 103.529 130.187 103.627 130.187 103.749C130.186 103.871 130.087 103.97 129.966 103.97H122.217C122.095 103.97 121.996 103.871 121.996 103.749C121.996 103.627 122.095 103.529 122.217 103.529Z" fill="white" stroke="#FA2609"/>
<path d="M132.498 103.529H139.634C139.756 103.529 139.854 103.627 139.854 103.749C139.854 103.871 139.755 103.97 139.634 103.97H132.498C132.376 103.97 132.277 103.871 132.277 103.749C132.277 103.627 132.376 103.529 132.498 103.529Z" fill="white" stroke="#FA2609"/>
<path d="M107.178 106.406H139.635C139.757 106.406 139.855 106.505 139.855 106.626C139.855 106.748 139.756 106.847 139.635 106.847H107.178C107.056 106.847 106.957 106.748 106.957 106.626C106.957 106.505 107.056 106.406 107.178 106.406Z" fill="white" stroke="#FA2609"/>
<path d="M107.178 109.283H125.041C125.163 109.283 125.261 109.382 125.261 109.504C125.261 109.625 125.162 109.724 125.041 109.725H107.178C107.056 109.725 106.957 109.626 106.957 109.504C106.957 109.382 107.056 109.283 107.178 109.283Z" fill="white" stroke="#FA2609"/>
<path d="M127.92 109.283H139.634C139.756 109.283 139.854 109.382 139.854 109.504C139.854 109.625 139.755 109.724 139.634 109.725H127.92C127.798 109.725 127.699 109.626 127.699 109.504C127.699 109.382 127.798 109.283 127.92 109.283Z" fill="white" stroke="#FA2609"/>
<path d="M107.178 112.16H117.673C117.795 112.16 117.894 112.259 117.894 112.381C117.894 112.503 117.795 112.602 117.673 112.602H107.178C107.056 112.602 106.957 112.503 106.957 112.381C106.957 112.275 107.032 112.186 107.133 112.165L107.178 112.16Z" fill="white" stroke="#FA2609"/>
<path d="M120.514 112.16H131.009C131.131 112.16 131.229 112.259 131.229 112.381C131.229 112.503 131.131 112.602 131.009 112.602H120.514C120.392 112.602 120.293 112.503 120.293 112.381C120.293 112.275 120.368 112.186 120.469 112.165L120.514 112.16Z" fill="white" stroke="#FA2609"/>
<path d="M133.545 112.16H139.635C139.757 112.16 139.855 112.259 139.855 112.381C139.855 112.503 139.756 112.602 139.635 112.602H133.545C133.423 112.602 133.324 112.503 133.324 112.381C133.324 112.259 133.423 112.16 133.545 112.16Z" fill="white" stroke="#FA2609"/>
<path d="M107.178 115.038H121.814C121.936 115.038 122.035 115.137 122.035 115.259V115.26C122.035 115.38 121.937 115.479 121.814 115.479H107.178C107.056 115.479 106.957 115.381 106.957 115.259C106.957 115.137 107.056 115.038 107.178 115.038Z" fill="white" stroke="#FA2609"/>
<path d="M124.998 97.7737H139.635C139.757 97.7737 139.855 97.8724 139.855 97.9944C139.855 98.1161 139.756 98.2151 139.635 98.2151H124.998C124.876 98.2151 124.777 98.1163 124.777 97.9944C124.777 97.8724 124.876 97.7737 124.998 97.7737Z" fill="white" stroke="#FA2609"/>
<path d="M83.6758 89.5544H140.09C141.677 89.5546 142.965 90.8421 142.965 92.4294V92.9343H80.8008V92.4294C80.8009 90.9414 81.9325 89.7165 83.3818 89.5691L83.6758 89.5544Z" fill="white" stroke="#FA2609"/>
<path d="M130.774 91.0405C130.93 91.0405 131.057 91.167 131.058 91.3228C131.058 91.479 130.931 91.606 130.774 91.606C130.618 91.6058 130.492 91.4789 130.492 91.3228C130.492 91.1671 130.619 91.0407 130.774 91.0405Z" fill="white" stroke="#FA2609"/>
<path d="M134.778 91.0405C134.934 91.0405 135.061 91.167 135.062 91.3228C135.062 91.479 134.935 91.606 134.778 91.606C134.622 91.6058 134.496 91.4789 134.496 91.3228C134.496 91.1671 134.623 91.0407 134.778 91.0405Z" fill="white" stroke="#FA2609"/>
<path d="M138.782 91.0405C138.939 91.0408 139.065 91.1677 139.065 91.3228C139.065 91.479 138.938 91.606 138.782 91.606C138.626 91.6058 138.5 91.4788 138.5 91.3228C138.5 91.1865 138.597 91.0728 138.726 91.0464L138.782 91.0405Z" fill="white" stroke="#FA2609"/>
<path d="M99.8579 86.9213H87.357C85.5032 86.9213 84 85.4181 84 83.5642V71.0633C84 69.2095 85.5032 67.7063 87.357 67.7063H99.8579C101.712 67.7063 103.215 69.209 103.215 71.0633V83.5642C103.214 85.4186 101.712 86.9213 99.8579 86.9213Z" fill="white" stroke="#FA2609" stroke-width="0.8956" stroke-miterlimit="10"/>
<path d="M90.6121 74.5349L87.8438 77.3032L90.6341 80.0932" fill="white"/>
<path d="M90.6121 74.5349L87.8438 77.3032L90.6341 80.0932" stroke="#FA2609" stroke-width="1.6716" stroke-miterlimit="10" stroke-linecap="round" stroke-linejoin="round"/>
<path d="M96.6075 74.5349L99.3759 77.3032L96.5859 80.0932" fill="white"/>
<path d="M96.6075 74.5349L99.3759 77.3032L96.5859 80.0932" stroke="#FA2609" stroke-width="1.6716" stroke-miterlimit="10" stroke-linecap="round" stroke-linejoin="round"/>
<path d="M94.9048 74.5349L92.3125 80.0932" stroke="#FA2609" stroke-width="1.6716" stroke-miterlimit="10" stroke-linecap="round" stroke-linejoin="round"/>
<path d="M84.1406 17.4661H139.625C141.471 17.4661 142.965 18.9603 142.965 20.8059V59.8967C142.965 61.7424 141.471 63.2375 139.625 63.2375H84.1406C82.2993 63.2374 80.8008 61.742 80.8008 59.8967V20.8059C80.8009 18.9607 82.2993 17.4662 84.1406 17.4661Z" fill="white" stroke="#FA2609"/>
<path d="M130.674 20.6631C135.453 20.6631 139.328 24.5378 139.328 29.3174C139.328 34.0969 135.453 37.9716 130.674 37.9717C125.894 37.9717 122.02 34.0969 122.02 29.3174C122.02 24.5378 125.894 20.6631 130.674 20.6631Z" fill="white" stroke="#FA2609"/>
<path d="M95.3008 28.7595C95.8333 27.8358 97.1183 27.7777 97.7451 28.5857L97.8613 28.7595L108.86 47.8083V47.8093L117.029 61.9587L117.03 61.9607C117.274 62.3792 117.282 62.8422 117.122 63.2371H84.1406C82.2994 63.2369 80.801 61.7424 80.8008 59.8972V53.8748L95.3008 28.7595Z" fill="white" stroke="#FA2609"/>
<path d="M114.761 39.092C115.223 38.2914 116.335 38.2412 116.878 38.9417L116.979 39.092L130.921 63.2366H100.819L109.729 47.8098L114.761 39.092Z" fill="white" stroke="#FA2609"/>
<path d="M198.095 67.1309H173.184C171.587 67.1309 170.293 68.4251 170.293 70.0217V75.9067C170.293 77.3794 171.395 78.5952 172.819 78.7746C173.028 78.8009 173.184 78.9783 173.184 79.1886V82.41C173.184 82.5963 173.423 82.6729 173.531 82.5212L176.069 78.9731C176.147 78.8628 176.275 78.7971 176.41 78.7971H198.095C199.691 78.7971 200.985 77.5028 200.985 75.9062V70.0212C200.985 68.4251 199.691 67.1309 198.095 67.1309Z" fill="white" stroke="#FA2609" stroke-width="0.8956" stroke-miterlimit="10"/>
<path d="M177.005 72.9552C177.005 73.481 176.578 73.9068 176.053 73.9068C175.527 73.9068 175.102 73.4805 175.102 72.9552C175.102 72.4295 175.528 72.0037 176.053 72.0037C176.578 72.0037 177.005 72.4295 177.005 72.9552Z" fill="white" stroke="#FA2609" stroke-width="0.8956" stroke-miterlimit="10"/>
<path d="M181.798 72.9552C181.798 73.481 181.371 73.9068 180.846 73.9068C180.32 73.9068 179.895 73.4805 179.895 72.9552C179.895 72.4295 180.321 72.0037 180.846 72.0037C181.371 72.0037 181.798 72.4295 181.798 72.9552Z" fill="white" stroke="#FA2609" stroke-width="0.8956" stroke-miterlimit="10"/>
<path d="M186.591 72.9552C186.591 73.481 186.165 73.9068 185.64 73.9068C185.114 73.9068 184.688 73.4805 184.688 72.9552C184.688 72.4295 185.114 72.0037 185.64 72.0037C186.165 72.0037 186.591 72.4295 186.591 72.9552Z" fill="white" stroke="#FA2609" stroke-width="0.8956" stroke-miterlimit="10"/>
<path d="M191.384 72.9552C191.384 73.481 190.958 73.9068 190.433 73.9068C189.907 73.9068 189.48 73.4805 189.48 72.9552C189.48 72.4295 189.907 72.0037 190.433 72.0037C190.958 72.0037 191.384 72.4295 191.384 72.9552Z" fill="white" stroke="#FA2609" stroke-width="0.8956" stroke-miterlimit="10"/>
<path d="M196.177 72.9552C196.177 73.481 195.751 73.9068 195.225 73.9068C194.699 73.9068 194.273 73.4805 194.273 72.9552C194.273 72.4295 194.7 72.0037 195.225 72.0037C195.75 72.0037 196.177 72.4295 196.177 72.9552Z" fill="white" stroke="#FA2609" stroke-width="0.8956" stroke-miterlimit="10"/>
<path d="M33.6838 89.5388H58.5946C60.1912 89.5388 61.4855 90.8331 61.4855 92.4297V98.3147C61.4855 99.7878 60.3837 101.003 58.9594 101.183C58.7504 101.209 58.5946 101.386 58.5946 101.597V104.818C58.5946 105.004 58.3556 105.081 58.2472 104.929L55.7098 101.381C55.631 101.271 55.5037 101.206 55.3681 101.206H33.6838C32.0872 101.206 30.793 99.9113 30.793 98.3147V92.4297C30.793 90.8331 32.0872 89.5388 33.6838 89.5388Z" fill="white" stroke="#FA2609" stroke-width="0.8956" stroke-miterlimit="10"/>
<path d="M54.7734 95.3632C54.7734 95.889 55.1997 96.3148 55.725 96.3148C56.2508 96.3148 56.6771 95.8885 56.6771 95.3632C56.6771 94.8374 56.2508 94.4116 55.725 94.4116C55.1997 94.4112 54.7734 94.8374 54.7734 95.3632Z" fill="white" stroke="#FA2609" stroke-width="0.8956" stroke-miterlimit="10"/>
<path d="M49.9805 95.3632C49.9805 95.889 50.4067 96.3148 50.932 96.3148C51.4578 96.3148 51.8836 95.8885 51.8836 95.3632C51.8836 94.8374 51.4574 94.4116 50.932 94.4116C50.4067 94.4112 49.9805 94.8374 49.9805 95.3632Z" fill="white" stroke="#FA2609" stroke-width="0.8956" stroke-miterlimit="10"/>
<path d="M45.1875 95.3632C45.1875 95.889 45.6138 96.3148 46.1391 96.3148C46.6648 96.3148 47.0906 95.8885 47.0906 95.3632C47.0906 94.8374 46.6644 94.4116 46.1391 94.4116C45.6138 94.4112 45.1875 94.8374 45.1875 95.3632Z" fill="white" stroke="#FA2609" stroke-width="0.8956" stroke-miterlimit="10"/>
<path d="M40.3945 95.3632C40.3945 95.889 40.8208 96.3148 41.3461 96.3148C41.8719 96.3148 42.2977 95.8885 42.2977 95.3632C42.2977 94.8374 41.8714 94.4116 41.3461 94.4116C40.8208 94.4112 40.3945 94.8374 40.3945 95.3632Z" fill="white" stroke="#FA2609" stroke-width="0.8956" stroke-miterlimit="10"/>
<path d="M35.6016 95.3632C35.6016 95.889 36.0278 96.3148 36.5536 96.3148C37.0794 96.3148 37.5052 95.8885 37.5052 95.3632C37.5052 94.8374 37.0789 94.4116 36.5536 94.4116C36.0274 94.4112 35.6016 94.8374 35.6016 95.3632Z" fill="white" stroke="#FA2609" stroke-width="0.8956" stroke-miterlimit="10"/>
<path d="M184.125 50.1628H138.721C136.217 50.1628 134.188 48.1329 134.188 45.6289C134.188 43.1249 136.217 41.095 138.721 41.095H184.125C186.629 41.095 188.658 43.1249 188.658 45.6289C188.658 48.1329 186.629 50.1628 184.125 50.1628Z" fill="white" stroke="#FA2609" stroke-width="0.8956" stroke-miterlimit="10"/>
<path d="M183.459 45.3168C183.459 46.6487 182.38 47.7279 181.048 47.7279C179.716 47.7279 178.637 46.6487 178.637 45.3168C178.637 43.985 179.716 42.9058 181.048 42.9058C182.38 42.9058 183.459 43.985 183.459 45.3168Z" fill="white" stroke="#FA2609" stroke-width="1.6716" stroke-miterlimit="10"/>
<path d="M182.75 47.0215L184.081 48.3528" stroke="#FA2609" stroke-width="1.6716" stroke-miterlimit="10" stroke-linecap="round"/>
<path d="M103.923 155.316H115.346C117.068 155.316 118.464 156.712 118.464 158.434V169.857C118.464 171.579 117.068 172.975 115.346 172.975H103.923C102.201 172.975 100.805 171.579 100.805 169.857V158.434C100.805 156.766 102.115 155.403 103.763 155.32L103.923 155.316Z" fill="white" stroke="#FA2609"/>
<path d="M100.524 155.316H111.947C113.669 155.316 115.065 156.712 115.065 158.434V169.857C115.065 171.579 113.669 172.975 111.947 172.975H100.524C98.8024 172.975 97.4065 171.579 97.4062 169.857V158.434C97.4064 156.712 98.8024 155.316 100.524 155.316Z" fill="white" stroke="#FA2609"/>
<path d="M109.132 164.145L103.789 167.23V161.059L109.132 164.145Z" fill="white" stroke="#FA2609"/>
<path d="M168.199 117.392H183.131C185.467 117.392 187.36 119.287 187.36 121.623V136.554C187.36 138.89 185.467 140.784 183.131 140.784H168.199C165.863 140.784 163.969 138.891 163.969 136.554V121.623L163.975 121.405C164.084 119.242 165.818 117.508 167.981 117.398L168.199 117.392Z" fill="white" stroke="#FA2609"/>
<path d="M163.754 117.393H178.686C181.022 117.393 182.915 119.287 182.915 121.623V136.555C182.915 138.89 181.022 140.784 178.686 140.784H163.754C161.418 140.784 159.524 138.891 159.523 136.555V121.623L159.529 121.405C159.639 119.242 161.373 117.508 163.536 117.398L163.754 117.393Z" fill="white" stroke="#FA2609"/>
<path d="M171.22 120.446C172.562 120.446 173.65 121.534 173.65 122.877C173.65 124.219 172.562 125.308 171.22 125.308C169.877 125.308 168.789 124.219 168.789 122.877C168.789 121.535 169.877 120.446 171.22 120.446Z" fill="white" stroke="#FA2609"/>
<path d="M171.219 127.19C174.318 127.19 176.829 129.701 176.829 132.799V137.125C176.829 137.24 176.736 137.333 176.621 137.333H165.817C165.703 137.333 165.609 137.24 165.609 137.125V132.799C165.609 129.798 167.966 127.347 170.93 127.197L171.219 127.19Z" fill="white" stroke="#FA2609"/>
<path d="M157.451 54.4451H167.041C167.163 54.4451 167.262 54.5438 167.262 54.6658C167.262 54.7874 167.163 54.8865 167.041 54.8865H157.451C157.329 54.8865 157.231 54.7877 157.23 54.6658C157.23 54.5438 157.329 54.4451 157.451 54.4451Z" fill="white" stroke="#FA2609"/>
<path d="M169.697 54.4451H176.638C176.76 54.4452 176.858 54.5439 176.858 54.6658V54.6667C176.858 54.7872 176.76 54.8864 176.638 54.8865H169.697C169.575 54.8865 169.477 54.7877 169.477 54.6658C169.477 54.5438 169.575 54.4451 169.697 54.4451Z" fill="white" stroke="#FA2609"/>
<path d="M157.451 57.6138H161.525C161.647 57.6138 161.746 57.7125 161.746 57.8345C161.746 57.9559 161.647 58.0552 161.525 58.0552H157.451C157.329 58.0552 157.231 57.9564 157.23 57.8345C157.23 57.7125 157.329 57.6138 157.451 57.6138Z" fill="white" stroke="#FA2609"/>
<path d="M163.943 57.6138H176.635C176.757 57.614 176.854 57.7127 176.854 57.8345V57.8354C176.854 57.9558 176.757 58.0549 176.635 58.0552H163.943C163.821 58.0552 163.723 57.9564 163.723 57.8345C163.723 57.7125 163.821 57.6138 163.943 57.6138Z" fill="white" stroke="#FA2609"/>
<path d="M157.451 60.7827H170.093C170.215 60.7827 170.313 60.8815 170.313 61.0034C170.313 61.1251 170.214 61.2241 170.093 61.2241H157.451C157.329 61.2241 157.231 61.1253 157.23 61.0034C157.23 60.8815 157.329 60.7827 157.451 60.7827Z" fill="white" stroke="#FA2609"/>
<path d="M172.561 60.7827H176.635C176.757 60.7827 176.855 60.8815 176.855 61.0034V61.0044C176.855 61.1249 176.757 61.2241 176.635 61.2241H172.561C172.439 61.2241 172.34 61.1253 172.34 61.0034C172.34 60.8815 172.439 60.7827 172.561 60.7827Z" fill="white" stroke="#FA2609"/>
<path d="M28.9043 109.002H62.3828C63.0976 109.002 63.6777 109.583 63.6777 110.297V127.198C63.6779 127.913 63.0982 128.492 62.3828 128.492H28.9043C28.1894 128.492 27.6094 127.912 27.6094 127.197V110.297C27.6094 109.582 28.1894 109.002 28.9043 109.002Z" fill="white" stroke="#FA2609"/>
<path d="M28.6836 111.27H62.6012" stroke="#FA2609" stroke-width="0.8956" stroke-miterlimit="10" stroke-linecap="round"/>
<path d="M61.7969 109.862C61.7967 109.911 61.757 109.951 61.708 109.951C61.6709 109.951 61.6385 109.929 61.625 109.896L61.6182 109.862C61.6182 109.813 61.6587 109.772 61.708 109.772L61.7422 109.779C61.7744 109.793 61.7969 109.825 61.7969 109.862Z" fill="white" stroke="#FA2609"/>
<path d="M59.6562 109.862C59.6561 109.911 59.6164 109.951 59.5674 109.951C59.5303 109.951 59.4978 109.929 59.4844 109.896L59.4775 109.862C59.4775 109.813 59.5181 109.772 59.5674 109.772L59.6016 109.779C59.6338 109.793 59.6562 109.825 59.6562 109.862Z" fill="white" stroke="#FA2609"/>
<path d="M57.5117 109.862C57.5115 109.911 57.4718 109.951 57.4229 109.951C57.3858 109.951 57.3533 109.929 57.3398 109.896L57.333 109.862C57.333 109.813 57.3736 109.772 57.4229 109.772L57.457 109.779C57.4892 109.793 57.5117 109.825 57.5117 109.862Z" fill="white" stroke="#FA2609"/>
<path d="M29.251 113.394H35.0059C35.0429 113.394 35.0732 113.425 35.0732 113.462C35.0731 113.499 35.0427 113.528 35.0059 113.528H29.251C29.2141 113.528 29.1838 113.499 29.1836 113.462C29.1836 113.434 29.2005 113.409 29.2246 113.399L29.251 113.394Z" fill="white" stroke="#FA2609"/>
<path d="M29.251 116.015H35.0059C35.0428 116.015 35.0732 116.046 35.0732 116.083C35.0731 116.12 35.043 116.149 35.0059 116.149H29.251C29.2141 116.149 29.1837 116.119 29.1836 116.083C29.1836 116.055 29.2005 116.03 29.2246 116.02L29.251 116.015Z" fill="white" stroke="#FA2609"/>
<path d="M29.251 118.637H35.0059C35.0428 118.637 35.0732 118.667 35.0732 118.704C35.0731 118.741 35.0428 118.771 35.0059 118.771H29.251C29.2141 118.771 29.1837 118.741 29.1836 118.704C29.1836 118.676 29.2005 118.652 29.2246 118.642L29.251 118.637Z" fill="white" stroke="#FA2609"/>
<path d="M29.251 121.258H35.0059C35.0429 121.258 35.0732 121.288 35.0732 121.325C35.0731 121.362 35.0427 121.391 35.0059 121.391H29.251C29.2141 121.391 29.1838 121.362 29.1836 121.325C29.1836 121.297 29.2005 121.273 29.2246 121.262L29.251 121.258Z" fill="white" stroke="#FA2609"/>
<path d="M29.251 123.878H35.0059C35.0428 123.878 35.0732 123.909 35.0732 123.946C35.0731 123.983 35.043 124.012 35.0059 124.012H29.251C29.2141 124.012 29.1837 123.983 29.1836 123.946C29.1836 123.918 29.2005 123.893 29.2246 123.883L29.251 123.878Z" fill="white" stroke="#FA2609"/>
<path d="M29.251 126.5H35.0059C35.0428 126.5 35.0732 126.53 35.0732 126.567C35.0731 126.604 35.0428 126.634 35.0059 126.634H29.251C29.2141 126.634 29.1837 126.604 29.1836 126.567C29.1836 126.539 29.2005 126.515 29.2246 126.505L29.251 126.5Z" fill="white" stroke="#FA2609"/>
<path d="M37.2314 113.394H62.0332C62.0702 113.394 62.1006 113.425 62.1006 113.462L62.0957 113.488C62.0857 113.512 62.0615 113.528 62.0332 113.528H37.2314C37.1946 113.528 37.1642 113.499 37.1641 113.462C37.1641 113.425 37.1944 113.394 37.2314 113.394Z" fill="white" stroke="#FA2609"/>
<path d="M37.2314 116.015H62.0332C62.0702 116.015 62.1006 116.046 62.1006 116.083L62.0957 116.109C62.0857 116.133 62.0617 116.149 62.0332 116.149H37.2314C37.1946 116.149 37.1642 116.119 37.1641 116.083C37.1641 116.046 37.1945 116.015 37.2314 116.015Z" fill="white" stroke="#FA2609"/>
<path d="M37.2314 118.637H62.0332C62.0702 118.637 62.1006 118.667 62.1006 118.704L62.0957 118.73C62.0857 118.754 62.0615 118.771 62.0332 118.771H37.2314C37.1945 118.771 37.1642 118.741 37.1641 118.704C37.1641 118.667 37.1945 118.637 37.2314 118.637Z" fill="white" stroke="#FA2609"/>
<path d="M37.2314 121.258H62.0332C62.0702 121.258 62.1006 121.288 62.1006 121.325L62.0957 121.351C62.0857 121.375 62.0615 121.391 62.0332 121.391H37.2314C37.1946 121.391 37.1642 121.362 37.1641 121.325C37.1641 121.288 37.1944 121.258 37.2314 121.258Z" fill="white" stroke="#FA2609"/>
<path d="M37.2314 123.878H62.0332C62.0702 123.878 62.1006 123.909 62.1006 123.946L62.0957 123.972C62.0857 123.996 62.0617 124.012 62.0332 124.012H37.2314C37.1946 124.012 37.1642 123.983 37.1641 123.946C37.1641 123.909 37.1945 123.878 37.2314 123.878Z" fill="white" stroke="#FA2609"/>
<path d="M37.2314 126.5H62.0332C62.0702 126.5 62.1006 126.53 62.1006 126.567L62.0957 126.594C62.0857 126.617 62.0615 126.634 62.0332 126.634H37.2314C37.1945 126.634 37.1642 126.604 37.1641 126.567C37.1641 126.53 37.1945 126.5 37.2314 126.5Z" fill="white" stroke="#FA2609"/>
<path d="M193.2 21.9506C195.163 13.7548 190.111 5.51897 181.915 3.55536C173.72 1.59174 165.484 6.64391 163.52 14.8397C161.557 23.0355 166.609 31.2713 174.805 33.2349C183 35.1985 191.236 30.1463 193.2 21.9506Z" fill="white" stroke="#FA2609" stroke-width="0.7896" stroke-miterlimit="10"/>
<path d="M173.194 6.73485C179.642 3.8821 187.182 6.79659 190.034 13.2445C192.887 19.6925 189.973 27.2322 183.525 30.085C177.077 32.9377 169.537 30.0232 166.684 23.5753C163.832 17.1273 166.746 9.5876 173.194 6.73485Z" fill="white" stroke="#FA2609"/>
<path d="M178.355 17.6931H178.356C178.746 17.693 179.063 18.0093 179.063 18.4001C179.063 18.791 178.746 19.1082 178.355 19.1082C177.965 19.1079 177.648 18.7906 177.648 18.4001C177.649 18.0585 177.891 17.7739 178.213 17.7078L178.355 17.6931Z" fill="white" stroke="#FA2609"/>
<mask id="path-109-inside-1_1365_44346" fill="white">
<path d="M178.224 18.1631C178.042 18.264 177.812 18.1983 177.711 18.0156L173.809 10.9782C173.708 10.7955 173.774 10.566 173.956 10.4646C174.139 10.3637 174.369 10.4294 174.47 10.6115L178.372 17.649C178.473 17.8321 178.407 18.0621 178.224 18.1631Z"/>
</mask>
<path d="M178.224 18.1631C178.042 18.264 177.812 18.1983 177.711 18.0156L173.809 10.9782C173.708 10.7955 173.774 10.566 173.956 10.4646C174.139 10.3637 174.369 10.4294 174.47 10.6115L178.372 17.649C178.473 17.8321 178.407 18.0621 178.224 18.1631Z" fill="white"/>
<path d="M177.711 18.0156L176.836 18.5005L176.836 18.5011L177.711 18.0156ZM173.809 10.9782L172.934 11.4619L172.934 11.463L173.809 10.9782ZM173.956 10.4646L173.473 9.58936L173.471 9.59032L173.956 10.4646ZM174.47 10.6115L175.345 10.1267L175.344 10.1251L174.47 10.6115ZM178.372 17.649L179.247 17.1662L179.246 17.1641L178.372 17.649ZM177.74 17.2878C178.04 17.1222 178.418 17.2303 178.585 17.5302L176.836 18.5011C177.206 19.1662 178.043 19.4058 178.708 19.0383L177.74 17.2878ZM178.585 17.5308L174.684 10.4933L172.934 11.463L176.836 18.5005L178.585 17.5308ZM174.684 10.4944C174.85 10.7942 174.742 11.1724 174.442 11.3388L173.471 9.59032C172.806 9.95961 172.566 10.7969 172.934 11.4619L174.684 10.4944ZM174.44 11.3398C174.141 11.5052 173.763 11.3977 173.596 11.0979L175.344 10.1251C174.974 9.46108 174.137 9.22207 173.473 9.58937L174.44 11.3398ZM173.595 11.0964L177.497 18.1339L179.246 17.1641L175.345 10.1267L173.595 11.0964ZM177.496 18.1318C177.332 17.8351 177.437 17.4558 177.74 17.2878L178.708 19.0383C179.377 18.6685 179.613 17.8291 179.247 17.1662L177.496 18.1318Z" fill="#FA2609" mask="url(#path-109-inside-1_1365_44346)"/>
<mask id="path-111-inside-2_1365_44346" fill="white">
<path d="M178.548 18.592C178.695 18.4446 178.935 18.4446 179.082 18.592L182.458 21.9673C182.605 22.1147 182.605 22.3542 182.458 22.5016C182.31 22.649 182.071 22.649 181.923 22.5016L178.548 19.1262C178.401 18.9788 178.401 18.7394 178.548 18.592Z"/>
</mask>
<path d="M178.548 18.592C178.695 18.4446 178.935 18.4446 179.082 18.592L182.458 21.9673C182.605 22.1147 182.605 22.3542 182.458 22.5016C182.31 22.649 182.071 22.649 181.923 22.5016L178.548 19.1262C178.401 18.9788 178.401 18.7394 178.548 18.592Z" fill="white"/>
<path d="M179.082 18.592L178.375 19.2991H178.375L179.082 18.592ZM182.458 21.9673L183.165 21.2602H183.165L182.458 21.9673ZM181.923 22.5016L181.216 23.2087V23.2087L181.923 22.5016ZM178.548 19.1262L179.255 18.4191V18.4191L178.548 19.1262ZM179.255 19.2991C179.012 19.5422 178.618 19.5422 178.375 19.2991L179.789 17.8849C179.251 17.347 178.379 17.347 177.841 17.8849L179.255 19.2991ZM178.375 19.2991L181.751 22.6744L183.165 21.2602L179.789 17.8849L178.375 19.2991ZM181.751 22.6744C181.507 22.4313 181.507 22.0376 181.751 21.7945L183.165 23.2087C183.703 22.6707 183.703 21.7982 183.165 21.2602L181.751 22.6744ZM181.751 21.7945C181.994 21.5513 182.387 21.5513 182.63 21.7945L181.216 23.2087C181.754 23.7466 182.627 23.7466 183.165 23.2087L181.751 21.7945ZM182.63 21.7945L179.255 18.4191L177.841 19.8333L181.216 23.2087L182.63 21.7945ZM179.255 18.4191C179.498 18.6622 179.498 19.056 179.255 19.2991L177.841 17.8849C177.303 18.4228 177.303 19.2954 177.841 19.8333L179.255 18.4191Z" fill="#FA2609" mask="url(#path-111-inside-2_1365_44346)"/>
<path d="M178.438 7.78156V6.25586" stroke="#FA2609" stroke-width="2" stroke-miterlimit="10" stroke-linecap="round"/>
<path d="M188.973 18.4817H190.498" stroke="#FA2609" stroke-width="2" stroke-miterlimit="10" stroke-linecap="round"/>
<path d="M178.273 29.0188V30.5445" stroke="#FA2609" stroke-width="2" stroke-miterlimit="10" stroke-linecap="round"/>
<path d="M167.737 18.3193H166.211" stroke="#FA2609" stroke-width="2" stroke-miterlimit="10" stroke-linecap="round"/>
<g opacity="0.5">
<path d="M173.114 9.16354L172.352 7.84204" stroke="#FA2609" stroke-miterlimit="10" stroke-linecap="round"/>
<path d="M187.59 13.1613L188.911 12.3984" stroke="#FA2609" stroke-miterlimit="10" stroke-linecap="round"/>
<path d="M183.594 27.6367L184.357 28.9582" stroke="#FA2609" stroke-miterlimit="10" stroke-linecap="round"/>
<path d="M169.118 23.6394L167.797 24.4023" stroke="#FA2609" stroke-miterlimit="10" stroke-linecap="round"/>
</g>
<g opacity="0.5">
<path d="M169.2 13.0207L167.879 12.2578" stroke="#FA2609" stroke-miterlimit="10" stroke-linecap="round"/>
<path d="M183.734 9.24483L184.497 7.92334" stroke="#FA2609" stroke-miterlimit="10" stroke-linecap="round"/>
<path d="M187.512 23.78L188.833 24.5429" stroke="#FA2609" stroke-miterlimit="10" stroke-linecap="round"/>
<path d="M172.978 27.5557L172.215 28.8772" stroke="#FA2609" stroke-miterlimit="10" stroke-linecap="round"/>
</g>
<path d="M6.48828 69.9529H23.2451C25.45 69.9529 27.2373 71.7402 27.2373 73.9451V90.7019C27.2373 92.9064 25.45 94.6941 23.2451 94.6941H6.48828C4.28339 94.6941 2.49609 92.9068 2.49609 90.7019V73.9451C2.49609 71.7402 4.28339 69.9529 6.48828 69.9529Z" fill="white" stroke="#FA2609"/>
<path d="M22.1424 92.9641H3.59926C1.61162 92.9641 0 91.353 0 89.3649V70.8217C0 68.834 1.61115 67.2224 3.59926 67.2224H22.1424C24.1301 67.2224 25.7417 68.8336 25.7417 70.8217V89.3649C25.7412 91.3525 24.1301 92.9641 22.1424 92.9641Z" fill="white" stroke="#FA2609" stroke-miterlimit="10"/>
<path d="M12.8066 71.7822C14.9508 71.7823 16.6953 73.5275 16.6953 75.6719V77.6465H17.3301C17.7341 77.6467 18.0615 77.9736 18.0615 78.3779V83.9346C18.0615 84.3385 17.734 84.6668 17.3301 84.667H8.3877C7.98379 84.6668 7.65625 84.3385 7.65625 83.9346V78.3779C7.65625 77.974 7.98379 77.6467 8.3877 77.6465H8.91797V75.6719C8.91797 73.5275 10.6624 71.7822 12.8066 71.7822ZM12.8066 71.8945C10.7241 71.8945 9.0293 73.5888 9.0293 75.6719V77.1455L9.02832 77.6465H16.584V75.6719C16.584 73.5888 14.8891 71.8946 12.8066 71.8945Z" fill="white" stroke="#FA2609"/>
<path d="M12.6768 79.0896C13.2818 78.9695 13.8054 79.4246 13.8057 80.0017C13.8057 80.3032 13.6613 80.5723 13.4346 80.7429L13.332 80.8093C13.1003 80.9407 12.9133 81.2093 12.9385 81.5261L12.9629 81.6648L13.21 82.574C13.2719 82.8031 13.0986 83.0291 12.8613 83.0291C12.6251 83.0288 12.4532 82.8039 12.5146 82.575L12.7637 81.655C12.8521 81.3283 12.7077 81.0382 12.498 80.8699L12.4043 80.8054H12.4033C12.1148 80.6364 11.9252 80.3198 11.9424 79.9548L11.9629 79.7957C12.026 79.4942 12.2603 79.2325 12.5498 79.1257L12.6768 79.0896Z" fill="white" stroke="#FA2609"/>
<path d="M7.68457 86.5586H18.0332C18.0484 86.5588 18.0605 86.5716 18.0605 86.5869C18.0604 86.6023 18.0487 86.6151 18.0332 86.6152H7.68457C7.66926 86.6152 7.65636 86.6022 7.65625 86.5869C7.65625 86.5715 7.66919 86.5586 7.68457 86.5586Z" fill="white" stroke="#FA2609"/>
<path d="M7.68457 88.3486H18.0332C18.0484 88.3488 18.0605 88.3617 18.0605 88.377C18.0604 88.3921 18.0484 88.4051 18.0332 88.4053H7.68457C7.66925 88.4053 7.65636 88.3923 7.65625 88.377C7.65625 88.3616 7.66919 88.3486 7.68457 88.3486Z" fill="white" stroke="#FA2609"/>
<path d="M168.004 98.0488H177.869C179.053 98.0488 180.014 99.0091 180.014 100.193V110.059C180.013 111.243 179.053 112.203 177.869 112.203H168.004C166.82 112.203 165.86 111.243 165.859 110.059V100.193C165.859 99.0092 166.819 98.049 168.004 98.0488Z" fill="white" stroke="#FA2609"/>
<path d="M177.223 111.391H166.306C165.136 111.391 164.188 110.442 164.188 109.272V98.3554C164.188 97.1851 165.136 96.2368 166.306 96.2368H177.223C178.393 96.2368 179.341 97.1856 179.341 98.3554V109.272C179.341 110.442 178.393 111.391 177.223 111.391Z" fill="white" stroke="#FA2609" stroke-miterlimit="10"/>
<mask id="path-133-inside-3_1365_44346" fill="white">
<path d="M168.701 108.338C168.658 108.338 168.615 108.333 168.572 108.321C168.323 108.251 168.178 107.991 168.248 107.742L170.54 99.6293C170.611 99.3791 170.871 99.2331 171.119 99.3054C171.369 99.3753 171.514 99.6349 171.443 99.8842L169.151 107.997C169.093 108.204 168.905 108.338 168.701 108.338Z"/>
</mask>
<path d="M168.701 108.338C168.658 108.338 168.615 108.333 168.572 108.321C168.323 108.251 168.178 107.991 168.248 107.742L170.54 99.6293C170.611 99.3791 170.871 99.2331 171.119 99.3054C171.369 99.3753 171.514 99.6349 171.443 99.8842L169.151 107.997C169.093 108.204 168.905 108.338 168.701 108.338Z" fill="white"/>
<path d="M168.572 108.321L168.847 107.359L168.842 107.358L168.572 108.321ZM168.248 107.742L169.21 108.015L169.211 108.014L168.248 107.742ZM170.54 99.6293L171.503 99.9012L171.503 99.9002L170.54 99.6293ZM171.119 99.3054L170.839 100.265L170.849 100.268L171.119 99.3054ZM171.443 99.8842L170.481 99.6107L170.481 99.6123L171.443 99.8842ZM169.151 107.997L168.189 107.725L168.188 107.728L169.151 107.997ZM168.701 107.338C168.747 107.338 168.797 107.345 168.847 107.359L168.298 109.282C168.433 109.321 168.569 109.338 168.701 109.338V107.338ZM168.842 107.358C169.126 107.437 169.291 107.733 169.21 108.015L167.287 107.468C167.064 108.25 167.519 109.064 168.303 109.284L168.842 107.358ZM169.211 108.014L171.503 99.9012L169.578 99.3574L167.286 107.47L169.211 108.014ZM171.503 99.9002C171.425 100.178 171.132 100.351 170.839 100.265L171.399 98.3454C170.61 98.1153 169.797 98.5804 169.578 99.3584L171.503 99.9002ZM170.849 100.268C170.565 100.189 170.401 99.8935 170.481 99.6107L172.405 100.158C172.627 99.3763 172.172 98.5619 171.389 98.3424L170.849 100.268ZM170.481 99.6123L168.189 107.725L170.114 108.269L172.405 100.156L170.481 99.6123ZM168.188 107.728C168.255 107.488 168.471 107.338 168.701 107.338V109.338C169.338 109.338 169.932 108.919 170.114 108.265L168.188 107.728Z" fill="#FA2609" mask="url(#path-133-inside-3_1365_44346)"/>
<mask id="path-135-inside-4_1365_44346" fill="white">
<path d="M172.532 108.338C172.489 108.338 172.447 108.333 172.404 108.321C172.155 108.251 172.01 107.991 172.08 107.742L174.373 99.6293C174.443 99.3791 174.704 99.2331 174.952 99.3054C175.201 99.3753 175.346 99.6349 175.276 99.8842L172.983 107.997C172.925 108.204 172.737 108.338 172.532 108.338Z"/>
</mask>
<path d="M172.532 108.338C172.489 108.338 172.447 108.333 172.404 108.321C172.155 108.251 172.01 107.991 172.08 107.742L174.373 99.6293C174.443 99.3791 174.704 99.2331 174.952 99.3054C175.201 99.3753 175.346 99.6349 175.276 99.8842L172.983 107.997C172.925 108.204 172.737 108.338 172.532 108.338Z" fill="white"/>
<path d="M172.404 108.321L172.682 107.36L172.674 107.358L172.404 108.321ZM172.08 107.742L173.042 108.015L173.043 108.014L172.08 107.742ZM174.373 99.6293L175.335 99.9012L175.336 99.8985L174.373 99.6293ZM174.952 99.3054L174.672 100.265L174.682 100.268L174.952 99.3054ZM175.276 99.8842L174.314 99.6107L174.313 99.6123L175.276 99.8842ZM172.983 107.997L172.021 107.725L172.021 107.726L172.983 107.997ZM172.532 107.338C172.578 107.338 172.629 107.345 172.682 107.36L172.127 109.281C172.264 109.321 172.401 109.338 172.532 109.338V107.338ZM172.674 107.358C172.958 107.437 173.123 107.733 173.042 108.015L171.119 107.468C170.896 108.25 171.351 109.064 172.135 109.284L172.674 107.358ZM173.043 108.014L175.335 99.9012L173.41 99.3574L171.118 107.47L173.043 108.014ZM175.336 99.8985C175.257 100.179 174.963 100.35 174.672 100.265L175.232 98.3454C174.444 98.1157 173.628 98.5791 173.41 99.3601L175.336 99.8985ZM174.682 100.268C174.398 100.189 174.233 99.8935 174.314 99.6107L176.237 100.158C176.46 99.3763 176.005 98.5619 175.221 98.3424L174.682 100.268ZM174.313 99.6123L172.021 107.725L173.946 108.269L176.238 100.156L174.313 99.6123ZM172.021 107.726C172.087 107.489 172.302 107.338 172.532 107.338V109.338C173.172 109.338 173.763 108.918 173.946 108.267L172.021 107.726Z" fill="#FA2609" mask="url(#path-135-inside-4_1365_44346)"/>
<mask id="path-137-inside-5_1365_44346" fill="white">
<path d="M175.82 102.444H167.708C167.448 102.444 167.238 102.234 167.238 101.975C167.238 101.715 167.448 101.505 167.708 101.505H175.82C176.08 101.505 176.29 101.715 176.29 101.975C176.29 102.234 176.08 102.444 175.82 102.444Z"/>
</mask>
<path d="M175.82 102.444H167.708C167.448 102.444 167.238 102.234 167.238 101.975C167.238 101.715 167.448 101.505 167.708 101.505H175.82C176.08 101.505 176.29 101.715 176.29 101.975C176.29 102.234 176.08 102.444 175.82 102.444Z" fill="white"/>
<path d="M175.82 101.444H167.708V103.444H175.82V101.444ZM167.708 101.444C168 101.444 168.238 101.682 168.238 101.975H166.238C166.238 102.786 166.896 103.444 167.708 103.444V101.444ZM168.238 101.975C168.238 102.267 168 102.505 167.708 102.505V100.505C166.896 100.505 166.238 101.163 166.238 101.975H168.238ZM167.708 102.505H175.82V100.505H167.708V102.505ZM175.82 102.505C175.528 102.505 175.29 102.267 175.29 101.975H177.29C177.29 101.163 176.632 100.505 175.82 100.505V102.505ZM175.29 101.975C175.29 101.682 175.528 101.444 175.82 101.444V103.444C176.632 103.444 177.29 102.786 177.29 101.975H175.29Z" fill="#FA2609" mask="url(#path-137-inside-5_1365_44346)"/>
<mask id="path-139-inside-6_1365_44346" fill="white">
<path d="M175.82 106.15H167.708C167.448 106.15 167.238 105.94 167.238 105.681C167.238 105.421 167.448 105.211 167.708 105.211H175.82C176.08 105.211 176.29 105.421 176.29 105.681C176.29 105.94 176.08 106.15 175.82 106.15Z"/>
</mask>
<path d="M175.82 106.15H167.708C167.448 106.15 167.238 105.94 167.238 105.681C167.238 105.421 167.448 105.211 167.708 105.211H175.82C176.08 105.211 176.29 105.421 176.29 105.681C176.29 105.94 176.08 106.15 175.82 106.15Z" fill="white"/>
<path d="M175.82 105.15H167.708V107.15H175.82V105.15ZM167.708 105.15C168 105.15 168.238 105.388 168.238 105.681H166.238C166.238 106.493 166.896 107.15 167.708 107.15V105.15ZM168.238 105.681C168.238 105.973 168 106.211 167.708 106.211V104.211C166.896 104.211 166.238 104.869 166.238 105.681H168.238ZM167.708 106.211H175.82V104.211H167.708V106.211ZM175.82 106.211C175.528 106.211 175.29 105.973 175.29 105.681H177.29C177.29 104.869 176.632 104.211 175.82 104.211V106.211ZM175.29 105.681C175.29 105.388 175.528 105.15 175.82 105.15V107.15C176.632 107.15 177.29 106.493 177.29 105.681H175.29Z" fill="#FA2609" mask="url(#path-139-inside-6_1365_44346)"/>
<path d="M37.1943 76.5278H43.0615C43.1403 76.5281 43.2041 76.5925 43.2041 76.6714C43.2039 76.75 43.1402 76.8137 43.0615 76.814H37.1943C37.1155 76.814 37.051 76.7502 37.0508 76.6714C37.0508 76.6121 37.0872 76.5612 37.1387 76.5396L37.1943 76.5278Z" fill="white" stroke="#FA2609"/>
<path d="M37.1943 79.3835H48.9717C49.0506 79.3837 49.1143 79.4482 49.1143 79.5271C49.114 79.6061 49.0506 79.6695 48.9717 79.6697H37.1943C37.1155 79.6697 37.051 79.6059 37.0508 79.5271C37.0508 79.4678 37.0872 79.417 37.1387 79.3953L37.1943 79.3835Z" fill="white" stroke="#FA2609"/>
<path d="M37.1943 82.2397H38.585C38.6642 82.2398 38.7285 82.3041 38.7285 82.3833C38.7283 82.4621 38.6638 82.5258 38.585 82.5259H37.1943C37.1153 82.5259 37.051 82.4623 37.0508 82.3833C37.0508 82.3043 37.1153 82.2397 37.1943 82.2397Z" fill="white" stroke="#FA2609"/>
<path d="M40.7686 82.2397H48.9688C49.048 82.2397 49.1123 82.3041 49.1123 82.3833C49.1121 82.4621 49.0476 82.5259 48.9688 82.5259H40.7686C40.6895 82.5259 40.6252 82.4623 40.625 82.3833C40.625 82.3043 40.6895 82.2397 40.7686 82.2397Z" fill="white" stroke="#FA2609"/>
<path d="M45.417 76.5278H48.9727C49.0516 76.5278 49.1162 76.5924 49.1162 76.6714C49.116 76.7502 49.0515 76.814 48.9727 76.814H45.417C45.3381 76.814 45.2737 76.7502 45.2734 76.6714C45.2734 76.5924 45.338 76.5278 45.417 76.5278Z" fill="white" stroke="#FA2609"/>
<path d="M49.0547 162.247C51.0532 162.247 52.6994 163.755 52.917 165.696L53.0039 166.467L53.6699 166.07C54.2069 165.75 54.8344 165.566 55.5059 165.566C57.4919 165.566 59.1023 167.175 59.1025 169.162C59.1025 171.148 57.4928 172.758 55.5068 172.758H44.0732C42.4989 172.758 41.2228 171.482 41.2227 169.908C41.2227 168.333 42.4988 167.057 44.0732 167.057C44.2528 167.057 44.4295 167.075 44.6025 167.107L45.2646 167.23L45.1904 166.561C45.1749 166.42 45.167 166.277 45.167 166.134C45.1671 163.987 46.9077 162.247 49.0547 162.247Z" fill="white" stroke="#FA2609"/>
</svg>
