<svg width="460" height="393" viewBox="0 0 460 393" fill="none" xmlns="http://www.w3.org/2000/svg">
<path opacity="0.5" d="M454.266 368.621C454.994 369.309 455.304 369.934 455.304 370.499C455.304 371.066 455.007 371.692 454.283 372.378C453.56 373.063 452.455 373.762 450.96 374.465C447.973 375.869 443.537 377.235 437.783 378.544C426.282 381.159 409.619 383.519 389.005 385.502C347.783 389.467 290.824 391.92 227.901 391.92C164.979 391.92 108.02 389.467 66.7988 385.502C46.1851 383.519 29.522 381.159 18.0205 378.544C12.2658 377.235 7.82966 375.869 4.84277 374.465C3.34802 373.762 2.24386 373.063 1.52051 372.378C0.79691 371.692 0.5 371.066 0.5 370.499C0.500041 369.934 0.808694 369.309 1.53809 368.621H454.266Z" fill="#FA2609" stroke="#FA2609"/>
<path d="M116.078 35.592H233.054C246.485 35.5922 257.374 46.4817 257.374 59.9133V342.883C257.374 356.315 246.486 367.203 233.055 367.203H116.078C102.647 367.203 91.7579 356.315 91.7578 342.883V59.9133C91.7578 46.4818 102.647 35.5923 116.078 35.592Z" fill="white" stroke="#FA2609"/>
<path d="M125.84 35.592H247.418C259.579 35.5921 269.437 45.4506 269.438 57.6116V345.185L269.431 345.753C269.128 357.651 259.388 367.203 247.417 367.203H125.84C113.679 367.203 103.82 357.345 103.82 345.184V57.6116C103.82 45.4506 113.679 35.5922 125.84 35.592Z" fill="white" stroke="#FA2609"/>
<path d="M133.438 42.7849H240.539C251.741 42.7849 260.821 51.8655 260.821 63.0671V327.028C260.821 338.229 251.741 347.309 240.539 347.309H133.438C122.237 347.309 113.156 338.229 113.156 327.027V63.0671C113.156 51.8655 122.237 42.7849 133.438 42.7849Z" fill="white" stroke="#FA2609"/>
<path d="M125.214 89.9725H247.869C251.883 89.9725 255.138 93.2263 255.138 97.2411V255.16L255.128 255.534C254.932 259.374 251.758 262.429 247.868 262.429H125.214C121.2 262.429 117.945 259.175 117.945 255.16V97.2411C117.945 93.2272 121.199 89.9725 125.214 89.9725Z" fill="white" stroke="#FA2609"/>
<path d="M124.949 270.888H250.947C253.572 270.888 255.701 273.016 255.701 275.642V280.471C255.7 283.097 253.572 285.224 250.947 285.224H124.949C122.325 285.224 120.196 283.097 120.195 280.471V275.642C120.195 273.017 122.324 270.888 124.949 270.888Z" fill="white" stroke="#FA2609"/>
<path d="M124.949 293.684H250.947C253.572 293.684 255.701 295.813 255.701 298.438V324.405C255.7 327.031 253.572 329.158 250.947 329.158H124.949C122.325 329.158 120.196 327.031 120.195 324.405V298.438C120.195 295.814 122.324 293.684 124.949 293.684Z" fill="white" stroke="#FA2609"/>
<path d="M125.214 89.9736H247.868C251.883 89.9736 255.137 93.2283 255.137 97.2422V115.91H117.945V97.2422C117.945 93.2274 121.2 89.9736 125.214 89.9736Z" fill="white" stroke="#FA2609"/>
<path d="M141.104 123.736V139.762H125.078V123.736H141.104Z" fill="white" stroke="#FA2609"/>
<path d="M167.831 123.736V139.762H151.805V123.736H167.831Z" fill="#FA2609" stroke="#FA2609"/>
<path d="M194.55 123.736V139.762H178.523V123.736H194.55Z" fill="white" stroke="#FA2609"/>
<path d="M221.276 123.736V139.762H205.25V123.736H221.276Z" fill="white" stroke="#FA2609"/>
<path d="M248.003 123.736V139.762H231.977V123.736H248.003Z" fill="white" stroke="#FA2609"/>
<path d="M141.104 149.482V165.508H125.078V149.482H141.104Z" fill="white" stroke="#FA2609"/>
<path d="M167.831 149.482V165.508H151.805V149.482H167.831Z" fill="white" stroke="#FA2609"/>
<path d="M194.55 149.482V165.508H178.523V149.482H194.55Z" fill="#FA2609" stroke="#FA2609"/>
<path d="M221.276 149.482V165.508H205.25V149.482H221.276Z" fill="white" stroke="#FA2609"/>
<path d="M248.003 149.482V165.508H231.977V149.482H248.003Z" fill="#FA2609" stroke="#FA2609"/>
<path d="M141.104 175.229V191.255H125.078V175.229H141.104Z" fill="white" stroke="#FA2609"/>
<path d="M167.831 175.229V191.255H151.805V175.229H167.831Z" fill="#FA2609" stroke="#FA2609"/>
<path d="M194.55 175.229V191.255H178.523V175.229H194.55Z" fill="white" stroke="#FA2609"/>
<path d="M221.276 175.229V191.255H205.25V175.229H221.276Z" fill="#FA2609" stroke="#FA2609"/>
<path d="M248.003 175.229V191.255H231.977V175.229H248.003Z" fill="#FA2609" stroke="#FA2609"/>
<path d="M141.104 200.975V217.001H125.078V200.975H141.104Z" fill="#FA2609" stroke="#FA2609"/>
<path d="M167.831 200.975V217.001H151.805V200.975H167.831Z" fill="white" stroke="#FA2609"/>
<path d="M194.55 200.975V217.001H178.523V200.975H194.55Z" fill="#FA2609" stroke="#FA2609"/>
<path d="M221.276 200.975V217.001H205.25V200.975H221.276Z" fill="white" stroke="#FA2609"/>
<path d="M248.003 200.975V217.001H231.977V200.975H248.003Z" fill="white" stroke="#FA2609"/>
<path d="M238.749 72.7559C241.048 72.756 242.911 74.6196 242.911 76.9189C242.911 79.2182 241.048 81.0809 238.749 81.0811C236.45 81.0811 234.586 79.2183 234.586 76.9189C234.586 74.6195 236.45 72.7559 238.749 72.7559Z" fill="white" stroke="#FA2609"/>
<path d="M221.772 72.7559C224.072 72.756 225.935 74.6196 225.935 76.9189C225.934 79.2182 224.072 81.0809 221.772 81.0811C219.473 81.0811 217.61 79.2183 217.609 76.9189C217.609 74.6915 219.358 72.8734 221.558 72.7617L221.772 72.7559Z" fill="white" stroke="#FA2609"/>
<path d="M204.796 72.7559C207.095 72.756 208.958 74.6196 208.958 76.9189C208.958 79.2182 207.095 81.0809 204.796 81.0811C202.497 81.0811 200.633 79.2183 200.633 76.9189C200.633 74.6195 202.496 72.7559 204.796 72.7559Z" fill="white" stroke="#FA2609"/>
<path d="M128.946 107.772L123.634 103.977L128.946 100.183V107.772Z" fill="white" stroke="#FA2609"/>
<path d="M247.633 103.977L242.32 107.772V100.183L247.633 103.977Z" fill="white" stroke="#FA2609"/>
<path d="M158.392 35.5931H215.589C220.348 35.5934 224.206 39.4519 224.206 44.2113C224.206 48.9706 220.348 52.8292 215.589 52.8295H158.392C153.632 52.8295 149.773 48.9707 149.773 44.2113L149.784 43.7679C150.007 39.3611 153.541 35.8271 157.948 35.6039L158.392 35.5931Z" fill="white" stroke="#FA2609"/>
<path d="M165.795 42.7849H191.906C193.468 42.7849 194.748 44.0649 194.748 45.6267C194.748 47.1885 193.468 48.4685 191.906 48.4685H165.795C164.233 48.4685 162.953 47.1885 162.953 45.6267C162.953 44.0649 164.233 42.7849 165.795 42.7849Z" fill="white" stroke="#FA2609"/>
<path d="M203.475 42.7849H206.117C207.679 42.7851 208.958 44.065 208.958 45.6267C208.958 47.1884 207.679 48.4683 206.117 48.4685H203.475C201.913 48.4685 200.633 47.1885 200.633 45.6267C200.633 44.1623 201.758 42.9457 203.186 42.7996L203.475 42.7849Z" fill="white" stroke="#FA2609"/>
<path d="M97.8652 132.224C93.31 131.965 89.6955 128.191 89.6953 123.571V92.6411C89.6953 88.0199 93.3099 84.2448 97.8652 83.9858V132.224Z" fill="white" stroke="#FA2609"/>
<path d="M96.8594 138.944C97.415 138.945 97.8652 139.395 97.8652 139.95V159.159C97.8652 159.715 97.415 160.165 96.8594 160.165C92.9023 160.165 89.6953 156.957 89.6953 153.001V146.109C89.6953 142.152 92.9023 138.944 96.8594 138.944Z" fill="white" stroke="#FA2609"/>
<path d="M42.627 359.163H389.277C393.826 359.163 397.544 362.719 397.803 367.204H34.1016C34.3604 362.719 38.0778 359.163 42.627 359.163Z" fill="white" stroke="#FA2609"/>
<path d="M24.7256 24.9244L1.53613 16.3014L8.74707 6.95276L24.7256 24.9244Z" fill="white" stroke="#FA2609"/>
<path d="M30.6113 14.3828L22.5156 2.69434L28.9883 0.657227L30.6113 14.3828Z" fill="white" stroke="#FA2609"/>
<path d="M19.6562 33.5897L6.29785 38.4481L5.97266 31.6718L19.6562 33.5897Z" fill="white" stroke="#FA2609"/>
<path d="M290.723 0.765503H432.895C438.915 0.765552 443.797 5.64706 443.797 11.6678V70.1786L443.783 70.7401C443.492 76.5002 438.728 81.0819 432.896 81.0819H290.723C284.702 81.0817 279.82 76.2005 279.82 70.1786V11.6678C279.821 5.64712 284.701 0.765711 290.723 0.765503Z" fill="white" stroke="#FA2609"/>
<path d="M293.924 13.3121H346.636C348.504 13.3124 350.02 14.8282 350.02 16.6969C350.019 18.5656 348.505 20.0814 346.636 20.0817H293.924C292.055 20.0817 290.539 18.5666 290.539 16.6969C290.539 14.828 292.054 13.3121 293.924 13.3121Z" fill="white" stroke="#FA2609"/>
<path d="M293.932 24.9724H330.864C332.733 24.9724 334.249 26.4874 334.249 28.3572C334.249 30.226 332.733 31.7419 330.864 31.7419H293.932C292.063 31.7419 290.547 30.2269 290.547 28.3572C290.547 26.4882 292.062 24.9724 293.932 24.9724Z" fill="white" stroke="#FA2609"/>
<path d="M56.2979 13.8806C73.5657 13.8808 87.5635 27.8793 87.5635 45.1472C87.5634 62.4151 73.5656 76.4137 56.2979 76.4138C39.03 76.4138 25.0313 62.4151 25.0312 45.1472C25.0312 27.8792 39.0299 13.8806 56.2979 13.8806Z" fill="white" stroke="#FA2609"/>
<path d="M56.2979 20.0754C70.1444 20.0754 81.3699 31.3002 81.3701 45.1467C81.3701 58.9934 70.1445 70.219 56.2979 70.219C42.4513 70.2189 31.2266 58.9933 31.2266 45.1467C31.2268 31.3003 42.4515 20.0756 56.2979 20.0754Z" fill="white" stroke="#FA2609"/>
<path d="M56.3018 25.9319C56.5676 25.9319 56.784 26.1476 56.7842 26.4133V49.8655C56.7842 50.1314 56.5677 50.3479 56.3018 50.3479C56.036 50.3477 55.8203 50.1313 55.8203 49.8655V26.4133C55.8205 26.1477 56.0361 25.9321 56.3018 25.9319Z" fill="white" stroke="#FA2609"/>
<path d="M56.3447 49.385H69.7188C69.857 49.385 69.9697 49.4977 69.9697 49.636V50.0969C69.9697 50.2351 69.857 50.3479 69.7188 50.3479H56.3447C56.2065 50.3479 56.0938 50.2351 56.0938 50.0969V49.636L56.0986 49.5852C56.1221 49.4711 56.2238 49.385 56.3447 49.385Z" fill="white" stroke="#FA2609"/>
</svg>
