<svg width="460" height="307" viewBox="0 0 460 307" fill="none" xmlns="http://www.w3.org/2000/svg">
<path d="M458.512 260.625H9.03125" stroke="#FA2609" stroke-miterlimit="10" stroke-linecap="round" stroke-linejoin="round"/>
<path d="M398.425 115.25H327.828V119.187H398.425V115.25Z" fill="white" stroke="#FA2609" stroke-miterlimit="10" stroke-linecap="round" stroke-linejoin="round"/>
<path d="M335.432 119.314H329.586V121.728H335.432V119.314Z" fill="white" stroke="#FA2609" stroke-miterlimit="10" stroke-linecap="round" stroke-linejoin="round"/>
<path d="M366.049 119.314H360.203V121.728H366.049V119.314Z" fill="white" stroke="#FA2609" stroke-miterlimit="10" stroke-linecap="round" stroke-linejoin="round"/>
<path d="M396.792 119.314H390.945V121.728H396.792V119.314Z" fill="white" stroke="#FA2609" stroke-miterlimit="10" stroke-linecap="round" stroke-linejoin="round"/>
<path d="M399.425 252.58H437.914V231.261H399.425V252.58Z" fill="white" stroke="#FA2609" stroke-miterlimit="10" stroke-linecap="round" stroke-linejoin="round"/>
<path d="M415.996 241.244H421.344V231.261H415.996V241.244Z" fill="white" stroke="#FA2609" stroke-miterlimit="10" stroke-linecap="round" stroke-linejoin="round"/>
<path d="M322.909 252.58H361.398V231.261H322.909V252.58Z" fill="white" stroke="#FA2609" stroke-miterlimit="10" stroke-linecap="round" stroke-linejoin="round"/>
<path d="M339.48 241.244H344.828V231.261H339.48V241.244Z" fill="white" stroke="#FA2609" stroke-miterlimit="10" stroke-linecap="round" stroke-linejoin="round"/>
<path d="M325.589 231.509H364.078V210.191H325.589V231.509Z" fill="white" stroke="#FA2609" stroke-miterlimit="10" stroke-linecap="round" stroke-linejoin="round"/>
<path d="M342.16 220.173H347.508V210.19H342.16V220.173Z" fill="white" stroke="#FA2609" stroke-miterlimit="10" stroke-linecap="round" stroke-linejoin="round"/>
<path d="M376.191 230.82H423.984V209.502H376.191V230.82Z" fill="white" stroke="#FA2609" stroke-miterlimit="10" stroke-linecap="round" stroke-linejoin="round"/>
<path d="M383.628 223.618H391.562V217.275H383.628V223.618Z" fill="white" stroke="#FA2609" stroke-miterlimit="10" stroke-linecap="round" stroke-linejoin="round"/>
<path d="M397.41 219.484H402.758V209.501H397.41V219.484Z" fill="white" stroke="#FA2609" stroke-miterlimit="10" stroke-linecap="round" stroke-linejoin="round"/>
<path d="M382.658 252.58H398.852V231.261H382.658V252.58Z" fill="white" stroke="#FA2609" stroke-miterlimit="10" stroke-linecap="round" stroke-linejoin="round"/>
<path d="M388.082 241.244H393.43V231.261H388.082V241.244Z" fill="white" stroke="#FA2609" stroke-miterlimit="10" stroke-linecap="round" stroke-linejoin="round"/>
<path d="M365.001 252.58H381.195V231.261H365.001V252.58Z" fill="white" stroke="#FA2609" stroke-miterlimit="10" stroke-linecap="round" stroke-linejoin="round"/>
<path d="M370.426 241.244H375.773V231.261H370.426V241.244Z" fill="white" stroke="#FA2609" stroke-miterlimit="10" stroke-linecap="round" stroke-linejoin="round"/>
<path d="M357.591 166.424H319.102V187.743H357.591V166.424Z" fill="white" stroke="#FA2609" stroke-miterlimit="10" stroke-linecap="round" stroke-linejoin="round"/>
<path d="M341.02 166.424H335.672V176.407H341.02V166.424Z" fill="white" stroke="#FA2609" stroke-miterlimit="10" stroke-linecap="round" stroke-linejoin="round"/>
<path d="M434.106 166.424H395.617V187.743H434.106V166.424Z" fill="white" stroke="#FA2609" stroke-miterlimit="10" stroke-linecap="round" stroke-linejoin="round"/>
<path d="M417.535 166.424H412.188V176.407H417.535V166.424Z" fill="white" stroke="#FA2609" stroke-miterlimit="10" stroke-linecap="round" stroke-linejoin="round"/>
<path d="M431.427 145.353H392.938V166.672H431.427V145.353Z" fill="white" stroke="#FA2609" stroke-miterlimit="10" stroke-linecap="round" stroke-linejoin="round"/>
<path d="M414.855 145.353H409.508V155.336H414.855V145.353Z" fill="white" stroke="#FA2609" stroke-miterlimit="10" stroke-linecap="round" stroke-linejoin="round"/>
<path d="M380.825 144.664H333.031V165.983H380.825V144.664Z" fill="white" stroke="#FA2609" stroke-miterlimit="10" stroke-linecap="round" stroke-linejoin="round"/>
<path d="M373.387 152.438H365.453V158.781H373.387V152.438Z" fill="white" stroke="#FA2609" stroke-miterlimit="10" stroke-linecap="round" stroke-linejoin="round"/>
<path d="M359.598 144.664H354.25V154.647H359.598V144.664Z" fill="white" stroke="#FA2609" stroke-miterlimit="10" stroke-linecap="round" stroke-linejoin="round"/>
<path d="M374.358 166.424H358.164V187.743H374.358V166.424Z" fill="white" stroke="#FA2609" stroke-miterlimit="10" stroke-linecap="round" stroke-linejoin="round"/>
<path d="M368.934 166.424H363.586V176.407H368.934V166.424Z" fill="white" stroke="#FA2609" stroke-miterlimit="10" stroke-linecap="round" stroke-linejoin="round"/>
<path d="M392.014 166.424H375.82V187.743H392.014V166.424Z" fill="white" stroke="#FA2609" stroke-miterlimit="10" stroke-linecap="round" stroke-linejoin="round"/>
<path d="M386.59 166.424H381.242V176.407H386.59V166.424Z" fill="white" stroke="#FA2609" stroke-miterlimit="10" stroke-linecap="round" stroke-linejoin="round"/>
<path d="M224.961 36.1138L259.828 36.1138V14.7951L224.961 14.7951V36.1138Z" fill="white" stroke="#FA2609" stroke-miterlimit="10" stroke-linecap="round" stroke-linejoin="round"/>
<path d="M239.968 24.7778H244.812V14.7948H239.968V24.7778Z" fill="white" stroke="#FA2609" stroke-miterlimit="10" stroke-linecap="round" stroke-linejoin="round"/>
<path d="M206.899 56.8174L241.766 56.8174V35.4987H206.899V56.8174Z" fill="white" stroke="#FA2609" stroke-miterlimit="10" stroke-linecap="round" stroke-linejoin="round"/>
<path d="M221.914 45.4814H226.758V35.4984H221.914V45.4814Z" fill="white" stroke="#FA2609" stroke-miterlimit="10" stroke-linecap="round" stroke-linejoin="round"/>
<path d="M243.368 56.8174L278.234 56.8174V35.4987H243.368V56.8174Z" fill="white" stroke="#FA2609" stroke-miterlimit="10" stroke-linecap="round" stroke-linejoin="round"/>
<path d="M258.375 45.4814H263.219V35.4984H258.375V45.4814Z" fill="white" stroke="#FA2609" stroke-miterlimit="10" stroke-linecap="round" stroke-linejoin="round"/>
<path d="M242.837 121.859H277.703V100.541H242.837V121.859Z" fill="white" stroke="#FA2609" stroke-miterlimit="10" stroke-linecap="round" stroke-linejoin="round"/>
<path d="M257.843 110.523H262.688V100.54H257.843V110.523Z" fill="white" stroke="#FA2609" stroke-miterlimit="10" stroke-linecap="round" stroke-linejoin="round"/>
<path d="M209.977 187.114H244.844V175.779H209.977V187.114Z" fill="white" stroke="#FA2609" stroke-miterlimit="10" stroke-linecap="round" stroke-linejoin="round"/>
<path d="M224.992 181.086H229.836V175.778H224.992V181.086Z" fill="white" stroke="#FA2609" stroke-miterlimit="10" stroke-linecap="round" stroke-linejoin="round"/>
<path d="M246.392 187.114H281.258V175.779H246.392V187.114Z" fill="white" stroke="#FA2609" stroke-miterlimit="10" stroke-linecap="round" stroke-linejoin="round"/>
<path d="M261.398 181.086H266.242V175.778H261.398V181.086Z" fill="white" stroke="#FA2609" stroke-miterlimit="10" stroke-linecap="round" stroke-linejoin="round"/>
<path d="M210.579 175.643H245.445V164.307H210.579V175.643Z" fill="white" stroke="#FA2609" stroke-miterlimit="10" stroke-linecap="round" stroke-linejoin="round"/>
<path d="M225.593 169.615H230.438V164.307H225.593V169.615Z" fill="white" stroke="#FA2609" stroke-miterlimit="10" stroke-linecap="round" stroke-linejoin="round"/>
<path d="M246.914 175.643H281.781V164.307H246.914V175.643Z" fill="white" stroke="#FA2609" stroke-miterlimit="10" stroke-linecap="round" stroke-linejoin="round"/>
<path d="M261.922 169.615H266.766V164.307H261.922V169.615Z" fill="white" stroke="#FA2609" stroke-miterlimit="10" stroke-linecap="round" stroke-linejoin="round"/>
<path d="M208.993 164.195H243.859V152.86H208.993V164.195Z" fill="white" stroke="#FA2609" stroke-miterlimit="10" stroke-linecap="round" stroke-linejoin="round"/>
<path d="M224 158.168H228.844V152.86H224V158.168Z" fill="white" stroke="#FA2609" stroke-miterlimit="10" stroke-linecap="round" stroke-linejoin="round"/>
<path d="M246.407 164.195H281.273V152.86H246.407V164.195Z" fill="white" stroke="#FA2609" stroke-miterlimit="10" stroke-linecap="round" stroke-linejoin="round"/>
<path d="M261.422 158.168H266.266V152.86H261.422V158.168Z" fill="white" stroke="#FA2609" stroke-miterlimit="10" stroke-linecap="round" stroke-linejoin="round"/>
<path d="M293.539 187.114V152.209H282.216V187.114H293.539Z" fill="white" stroke="#FA2609" stroke-miterlimit="10" stroke-linecap="round" stroke-linejoin="round"/>
<path d="M287.523 172.086V167.237H282.221V172.086H287.523Z" fill="white" stroke="#FA2609" stroke-miterlimit="10" stroke-linecap="round" stroke-linejoin="round"/>
<path d="M304.633 187.114V152.209H293.309V187.114H304.633Z" fill="white" stroke="#FA2609" stroke-miterlimit="10" stroke-linecap="round" stroke-linejoin="round"/>
<path d="M298.617 172.087V167.237H293.315V172.087H298.617Z" fill="white" stroke="#FA2609" stroke-miterlimit="10" stroke-linecap="round" stroke-linejoin="round"/>
<path d="M279.829 56.8174L314.695 56.8174V35.4987H279.829V56.8174Z" fill="white" stroke="#FA2609" stroke-miterlimit="10" stroke-linecap="round" stroke-linejoin="round"/>
<path d="M294.836 45.4814H299.68V35.4984H294.836V45.4814Z" fill="white" stroke="#FA2609" stroke-miterlimit="10" stroke-linecap="round" stroke-linejoin="round"/>
<path d="M361.23 56.8174L399.719 56.8174V35.4987H361.23V56.8174Z" fill="white" stroke="#FA2609" stroke-miterlimit="10" stroke-linecap="round" stroke-linejoin="round"/>
<path d="M377.801 45.4814H383.148V35.4984H377.801V45.4814Z" fill="white" stroke="#FA2609" stroke-miterlimit="10" stroke-linecap="round" stroke-linejoin="round"/>
<path d="M269.66 253.055H317.453V231.736H269.66V253.055Z" fill="white" stroke="#FA2609" stroke-miterlimit="10" stroke-linecap="round" stroke-linejoin="round"/>
<path d="M277.097 245.852H285.031V239.509H277.097V245.852Z" fill="white" stroke="#FA2609" stroke-miterlimit="10" stroke-linecap="round" stroke-linejoin="round"/>
<path d="M290.879 241.719H296.227V231.736H290.879V241.719Z" fill="white" stroke="#FA2609" stroke-miterlimit="10" stroke-linecap="round" stroke-linejoin="round"/>
<path d="M344.462 56.8174H360.656V35.4987H344.462V56.8174Z" fill="white" stroke="#FA2609" stroke-miterlimit="10" stroke-linecap="round" stroke-linejoin="round"/>
<path d="M349.887 45.4814H355.234V35.4984H349.887V45.4814Z" fill="white" stroke="#FA2609" stroke-miterlimit="10" stroke-linecap="round" stroke-linejoin="round"/>
<path d="M401.516 56.8174H417.711V35.4987H401.516V56.8174Z" fill="white" stroke="#FA2609" stroke-miterlimit="10" stroke-linecap="round" stroke-linejoin="round"/>
<path d="M406.941 45.4814H412.289V35.4984H406.941V45.4814Z" fill="white" stroke="#FA2609" stroke-miterlimit="10" stroke-linecap="round" stroke-linejoin="round"/>
<path d="M419.751 56.8174H435.945V35.4987H419.751V56.8174Z" fill="white" stroke="#FA2609" stroke-miterlimit="10" stroke-linecap="round" stroke-linejoin="round"/>
<path d="M425.176 45.4814H430.523V35.4984H425.176V45.4814Z" fill="white" stroke="#FA2609" stroke-miterlimit="10" stroke-linecap="round" stroke-linejoin="round"/>
<path d="M326.798 56.8174H342.992V35.4987H326.798V56.8174Z" fill="white" stroke="#FA2609" stroke-miterlimit="10" stroke-linecap="round" stroke-linejoin="round"/>
<path d="M332.223 45.4814H337.57V35.4984H332.223V45.4814Z" fill="white" stroke="#FA2609" stroke-miterlimit="10" stroke-linecap="round" stroke-linejoin="round"/>
<path d="M239.941 100.54H210.219V121.859H239.941V100.54Z" fill="white" stroke="#FA2609" stroke-miterlimit="10" stroke-linecap="round" stroke-linejoin="round"/>
<path d="M227.145 100.54H223.016V110.523H227.145V100.54Z" fill="white" stroke="#FA2609" stroke-miterlimit="10" stroke-linecap="round" stroke-linejoin="round"/>
<path d="M358.297 114.962H393.164V93.6437H358.297V114.962Z" fill="white" stroke="#FA2609" stroke-miterlimit="10" stroke-linecap="round" stroke-linejoin="round"/>
<path d="M373.312 103.626H378.156V93.6434H373.312V103.626Z" fill="white" stroke="#FA2609" stroke-miterlimit="10" stroke-linecap="round" stroke-linejoin="round"/>
<path d="M342.399 93.7412H377.266V72.4225H342.399V93.7412Z" fill="white" stroke="#FA2609" stroke-miterlimit="10" stroke-linecap="round" stroke-linejoin="round"/>
<path d="M357.406 82.4053H362.25V72.4223H357.406V82.4053Z" fill="white" stroke="#FA2609" stroke-miterlimit="10" stroke-linecap="round" stroke-linejoin="round"/>
<path d="M358.652 93.6436H328.93V114.962H358.652V93.6436Z" fill="white" stroke="#FA2609" stroke-miterlimit="10" stroke-linecap="round" stroke-linejoin="round"/>
<path d="M345.856 93.6436H341.727V103.627H345.856V93.6436Z" fill="white" stroke="#FA2609" stroke-miterlimit="10" stroke-linecap="round" stroke-linejoin="round"/>
<path d="M202.718 34.4629H199.047V260.625H202.718V34.4629Z" fill="white" stroke="#FA2609" stroke-miterlimit="10" stroke-linecap="round" stroke-linejoin="round"/>
<path d="M322.125 34.4629H318.453V260.625H322.125V34.4629Z" fill="white" stroke="#FA2609" stroke-miterlimit="10" stroke-linecap="round" stroke-linejoin="round"/>
<path d="M441.531 34.4629H437.859V260.625H441.531V34.4629Z" fill="white" stroke="#FA2609" stroke-miterlimit="10" stroke-linecap="round" stroke-linejoin="round"/>
<path d="M441.571 56.5771H199.039V60.0426H441.571V56.5771Z" fill="white" stroke="#FA2609" stroke-miterlimit="10" stroke-linecap="round" stroke-linejoin="round"/>
<path d="M441.571 121.832H199.039V125.297H441.571V121.832Z" fill="white" stroke="#FA2609" stroke-miterlimit="10" stroke-linecap="round" stroke-linejoin="round"/>
<path d="M441.571 187.086H199.039V190.551H441.571V187.086Z" fill="white" stroke="#FA2609" stroke-miterlimit="10" stroke-linecap="round" stroke-linejoin="round"/>
<path d="M441.571 252.341H199.039V255.806H441.571V252.341Z" fill="white" stroke="#FA2609" stroke-miterlimit="10" stroke-linecap="round" stroke-linejoin="round"/>
<path d="M420.182 114.683C420.182 114.683 424.215 121.172 424.503 122.758C424.792 124.344 424.792 127.661 424.792 127.661L419.75 122.758L420.182 114.683Z" fill="white" stroke="#FA2609" stroke-miterlimit="10" stroke-linecap="round" stroke-linejoin="round"/>
<path d="M369.159 123.354C369.159 123.354 366.165 135.08 364.734 138.858C363.302 142.637 362.652 145.373 364.083 148.63C365.515 151.887 369.159 156.838 369.159 156.838L374.755 159.704C374.755 159.704 370.721 140.161 369.94 134.949C369.159 129.738 369.159 123.354 369.159 123.354Z" fill="white" stroke="#FA2609" stroke-miterlimit="10" stroke-linecap="round" stroke-linejoin="round"/>
<path d="M369.16 123.354L364.734 138.858C364.734 138.858 365.315 143.039 367.94 142.922C370.564 142.804 373.268 142.699 373.268 142.699L369.16 123.354Z" fill="white" stroke="#FA2609" stroke-miterlimit="10" stroke-linecap="round" stroke-linejoin="round"/>
<path d="M376.591 176.636L376.822 196.044C376.822 196.044 376.13 216.839 378.207 224.926C380.284 233.013 380.053 261.664 380.053 261.664L379.361 267.209C379.361 267.209 376.821 268.365 377.515 269.52C378.207 270.675 378.207 273.217 378.207 273.217C378.207 273.217 377.515 273.679 375.207 276.451C372.899 279.224 370.591 281.072 371.744 282.228C372.899 283.383 377.284 285.001 380.515 283.383C383.746 281.766 389.055 279.917 389.055 279.917C389.055 279.917 393.44 279.455 394.594 276.914C395.748 274.372 395.517 272.754 395.517 271.137C395.517 269.52 394.825 266.054 395.055 263.05C395.286 260.046 396.21 241.562 396.671 236.941C397.133 232.32 399.902 206.211 399.902 206.211L402.902 238.79C402.902 238.79 404.057 258.198 404.287 259.585C404.518 260.971 402.672 267.209 403.364 269.289C404.057 271.369 404.518 273.217 404.518 274.372C404.518 275.528 404.056 278.069 404.748 278.3C405.441 278.531 411.211 281.997 412.134 282.459C413.057 282.922 418.827 285.232 420.674 284.077C422.52 282.921 422.752 280.611 421.367 278.532C419.982 276.452 418.366 272.293 418.366 272.293C418.366 272.293 419.751 267.903 419.751 266.517C419.751 265.13 417.905 259.354 417.905 259.354C417.905 259.354 420.675 227.237 420.905 226.313C421.136 225.389 423.213 199.741 424.136 194.658C425.06 189.575 425.06 176.636 425.06 176.636H376.591Z" fill="white" stroke="#FA2609" stroke-miterlimit="10" stroke-linecap="round" stroke-linejoin="round"/>
<path d="M384.6 114.683C384.6 114.683 370.195 117.856 369.619 118.576C369.043 119.297 367.891 127.806 368.899 134.583C369.907 141.36 374.517 158.665 374.517 158.665C374.517 158.665 375.093 179.431 375.093 179.863C375.093 180.296 383.954 187.426 397.276 187.65C404.627 187.773 413.697 186.64 420.9 182.891C428.102 179.142 428.535 173.806 428.535 173.806L426.374 150.878L418.163 150.445C418.163 150.445 418.307 142.225 418.596 138.621C418.884 135.016 420.18 114.683 420.18 114.683C420.18 114.683 407.503 112.664 403.903 111.943C400.302 111.222 397.083 111.374 397.083 111.374L384.6 114.683Z" fill="white" stroke="#FA2609" stroke-miterlimit="10" stroke-linecap="round" stroke-linejoin="round"/>
<path d="M413.365 151.596C413.365 151.596 411.948 131.019 411.948 126.407C411.948 123.119 412.128 116.769 412.231 113.392C410.547 113.114 408.83 112.826 407.337 112.568C407 117.08 406.321 127.347 406.455 135.277C406.633 145.743 408.405 156.563 408.405 156.563C408.405 156.563 409.999 158.692 395.115 159.046C380.232 159.401 376.333 158.692 376.333 158.692C376.333 158.692 373.852 143.792 375.27 135.455C376.688 127.118 377.751 116.297 377.751 116.297L376.528 116.552C375.469 116.81 374.425 117.072 373.481 117.319C373.288 118.871 371.337 134.584 370.663 141.662C370.627 142.041 370.594 142.422 370.562 142.804C372.263 150.209 374.515 158.665 374.515 158.665C374.515 158.665 374.591 161.401 374.687 164.904C381.529 165.333 400.271 166.163 411.416 163.302C419.885 161.129 424.624 159.089 427.027 157.834L426.372 150.877L420.199 150.552C418.729 150.879 417.498 151.141 416.909 151.24C414.783 151.596 413.365 151.596 413.365 151.596Z" fill="white" stroke="#FA2609" stroke-miterlimit="10" stroke-linecap="round" stroke-linejoin="round"/>
<path d="M382.586 121.028C382.586 121.028 383.883 127.229 386.187 133.574C388.492 139.919 391.805 146.264 391.805 146.264C391.805 146.264 397.135 127.662 398.575 122.759C400.016 117.856 400.592 111.656 400.592 111.656L397.086 111.375L384.603 114.684L382.586 121.028Z" fill="white" stroke="#FA2609" stroke-miterlimit="10" stroke-linecap="round" stroke-linejoin="round"/>
<path d="M376.295 100.217C376.295 100.217 375.693 107.454 376.295 108.661C376.898 109.867 376.898 110.018 376.898 110.923C376.898 111.827 377.049 113.185 377.5 114.39C377.952 115.597 381.566 121.628 382.32 122.382C383.073 123.136 385.935 123.588 385.935 123.588C385.935 123.588 388.043 130.524 389.098 132.786C390.152 135.048 390.152 135.048 390.152 135.048C390.152 135.048 394.67 123.438 394.971 121.93C395.273 120.422 397.08 116.049 397.23 114.693C397.381 113.336 397.381 112.582 397.381 112.582C397.381 112.582 399.339 109.868 400.092 107.455C400.845 105.043 399.64 103.082 399.189 101.877C398.737 100.671 400.996 97.9561 397.23 94.1868C393.465 90.4174 388.193 88.1554 382.621 90.1153C377.048 92.0758 374.638 95.9956 374.186 98.2576C373.735 100.518 376.295 100.217 376.295 100.217Z" fill="white" stroke="#FA2609" stroke-miterlimit="10" stroke-linecap="round" stroke-linejoin="round"/>
<path d="M399.189 101.875C398.737 100.669 400.996 97.9546 397.23 94.1853C393.465 90.416 388.194 88.154 382.621 90.1139C377.048 92.0738 374.638 95.9941 374.186 98.2561C373.734 100.518 376.295 100.216 376.295 100.216L379.006 97.0496C379.006 97.0496 380.361 99.0095 383.373 99.6131C386.386 100.216 389.85 97.0496 390.905 97.2007C391.959 97.3517 390.905 101.724 391.055 102.327C391.206 102.93 393.314 104.136 393.766 104.287C394.218 104.437 393.917 106.699 394.52 106.85C395.122 107.001 394.821 104.588 396.176 104.287C397.532 103.985 398.737 105.493 398.737 107.453C398.737 109.413 397.08 111.374 397.08 111.374L397.381 112.58C397.381 112.58 399.339 109.866 400.092 107.454C400.845 105.041 399.64 103.082 399.189 101.875Z" fill="white" stroke="#FA2609" stroke-miterlimit="10" stroke-linecap="round" stroke-linejoin="round"/>
<path d="M382.055 114.96C382.055 114.96 381.152 115.371 380.905 115.454C380.658 115.536 379.098 115.865 378.687 114.96C378.276 114.055 380.33 109.944 380.33 109.944" fill="white"/>
<path d="M382.055 114.96C382.055 114.96 381.152 115.371 380.905 115.454C380.658 115.536 379.098 115.865 378.687 114.96C378.276 114.055 380.33 109.944 380.33 109.944" stroke="#FA2609" stroke-miterlimit="10" stroke-linecap="round" stroke-linejoin="round"/>
<path d="M380.414 117.016C380.414 117.016 381.811 117.838 383.946 117.18L380.414 117.016Z" fill="white"/>
<path d="M380.414 117.016C380.414 117.016 381.811 117.838 383.946 117.18" stroke="#FA2609" stroke-miterlimit="10" stroke-linecap="round" stroke-linejoin="round"/>
<path d="M381.555 107.754C381.555 107.754 388.123 106.688 388.717 107.52C389.311 108.352 388.779 110.72 388.066 111.195C387.354 111.671 383.316 111.314 382.366 110.957C381.416 110.601 381.674 108.468 381.555 107.754Z" fill="white" stroke="#FA2609" stroke-miterlimit="10" stroke-linecap="round" stroke-linejoin="round"/>
<path d="M379.841 107.676C379.841 107.676 379.841 110.014 379.529 110.56C379.218 111.106 376.337 110.716 375.481 110.092C374.624 109.468 374.157 106.585 374.936 106.351C375.715 106.118 379.062 106.975 379.841 107.676Z" fill="white" stroke="#FA2609" stroke-miterlimit="10" stroke-linecap="round" stroke-linejoin="round"/>
<path d="M388.719 107.521L395.026 105.494" stroke="#FA2609" stroke-miterlimit="10" stroke-linecap="round" stroke-linejoin="round"/>
<path d="M381.557 107.754L379.844 107.676" stroke="#FA2609" stroke-miterlimit="10" stroke-linecap="round" stroke-linejoin="round"/>
<path d="M385.938 123.588C385.938 123.588 387.24 123.187 387.707 122.875C388.174 122.563 390.432 120.459 390.588 121.004C390.744 121.55 389.498 123.654 389.108 124.434C388.719 125.213 386.929 126.226 386.929 126.226L385.938 123.588Z" fill="white" stroke="#FA2609" stroke-miterlimit="10" stroke-linecap="round" stroke-linejoin="round"/>
<path d="M382.719 106.819C382.719 106.819 385.366 105.806 387.546 106.663L382.719 106.819Z" fill="white"/>
<path d="M382.719 106.819C382.719 106.819 385.366 105.806 387.546 106.663" stroke="#FA2609" stroke-miterlimit="10" stroke-linecap="round" stroke-linejoin="round"/>
<path d="M379.449 106.507C379.449 106.507 377.814 104.948 376.18 105.494L379.449 106.507Z" fill="white"/>
<path d="M379.449 106.507C379.449 106.507 377.814 104.948 376.18 105.494" stroke="#FA2609" stroke-miterlimit="10" stroke-linecap="round" stroke-linejoin="round"/>
<path d="M385.068 109.414C385.098 109.498 385.122 109.61 385.122 109.744C385.122 109.877 385.098 109.989 385.068 110.074C385.039 109.989 385.016 109.877 385.016 109.744C385.016 109.611 385.038 109.498 385.068 109.414Z" fill="white" stroke="#FA2609"/>
<path d="M378.146 109.144C378.176 109.229 378.2 109.341 378.2 109.474C378.2 109.607 378.176 109.72 378.146 109.804C378.117 109.72 378.094 109.607 378.094 109.474C378.094 109.341 378.117 109.229 378.146 109.144Z" fill="white" stroke="#FA2609"/>
<path d="M419.893 117.711L436.603 142.226C436.603 142.226 434.01 143.668 430.553 144.389C427.096 145.11 419.173 144.678 419.173 144.678L418.453 141.938L419.893 117.711Z" fill="white" stroke="#FA2609" stroke-miterlimit="10" stroke-linecap="round" stroke-linejoin="round"/>
<path d="M367.594 156.578C367.594 156.578 365.902 158.011 365.512 159.053C365.122 160.096 364.601 163.353 364.08 164.916C363.56 166.48 362.909 167.913 363.69 168.564C364.47 169.216 366.683 169.085 367.334 168.564C367.985 168.043 366.423 170.258 367.725 170.258C369.026 170.258 369.416 169.085 370.588 167.652C371.759 166.219 372.149 166.48 373.451 164.005C374.752 161.529 375.706 160.492 374.513 158.666C373.32 156.839 372.93 155.015 371.499 154.754C370.066 154.493 367.594 156.578 367.594 156.578Z" fill="white" stroke="#FA2609" stroke-miterlimit="10" stroke-linecap="round" stroke-linejoin="round"/>
<path d="M370.072 154.493C370.072 154.493 367.73 155.666 367.599 156.578C367.469 157.489 367.599 158.271 367.208 159.314C366.817 160.356 367.859 161.138 369.16 159.965C370.462 158.792 370.592 158.402 371.503 156.708C372.415 155.014 371.894 154.493 370.072 154.493Z" fill="white" stroke="#FA2609" stroke-miterlimit="10" stroke-linecap="round" stroke-linejoin="round"/>
<path d="M384.786 160.621H353.68V207.366H384.786V160.621Z" fill="white" stroke="#FA2609" stroke-miterlimit="10" stroke-linecap="round" stroke-linejoin="round"/>
<path d="M401.754 160.621H384.789V207.366H401.754V160.621Z" fill="white" stroke="#FA2609" stroke-miterlimit="10" stroke-linecap="round" stroke-linejoin="round"/>
<path d="M420.535 144.876C420.535 144.876 411.546 150.639 410.536 151.247C409.526 151.853 405.385 153.471 405.385 153.471C405.385 153.471 400.234 152.763 399.123 153.269C398.012 153.774 394.477 155.797 393.568 156.404C392.659 157.01 392.356 157.415 393.164 158.021C393.972 158.628 395.083 158.83 396.295 158.426C397.507 158.021 399.527 157.718 400.032 157.718C400.537 157.718 400.739 157.718 400.739 158.223C400.739 158.729 400.335 160.549 399.628 161.358C398.921 162.167 396.093 166.616 396.497 167.93C396.901 169.245 398.315 167.526 398.315 167.526C398.315 167.526 397.305 169.952 398.315 170.761C399.325 171.57 400.234 171.166 400.234 171.166C400.234 171.166 400.638 172.076 401.446 172.076C402.254 172.076 403.365 170.155 403.87 169.245C404.375 168.335 405.587 165.908 406.597 164.088C407.607 162.269 408.213 160.449 408.617 159.943C409.021 159.437 415.687 159.235 421.343 157.01C427 154.786 434.372 149.528 434.777 148.82C435.181 148.112 432.453 143.866 432.453 143.866C432.453 143.866 428.11 144.876 420.535 144.876Z" fill="white" stroke="#FA2609" stroke-miterlimit="10" stroke-linecap="round" stroke-linejoin="round"/>
<path d="M406.294 153.471L406.052 153.207C405.646 153.369 405.385 153.471 405.385 153.471C405.385 153.471 400.234 152.763 399.123 153.269C398.012 153.774 394.477 155.797 393.568 156.403C392.659 157.01 392.356 157.414 393.164 158.021C393.972 158.628 395.083 158.83 396.295 158.426C397.507 158.021 399.527 157.718 400.032 157.718C400.537 157.718 400.739 157.718 400.739 158.223C400.739 158.728 400.335 160.549 399.628 161.358C398.921 162.166 396.093 166.615 396.497 167.93C396.901 169.244 398.315 167.525 398.315 167.525C398.315 167.525 397.305 169.952 398.315 170.761C399.325 171.57 400.234 171.166 400.234 171.166C400.234 171.166 400.638 172.075 401.446 172.075C402.254 172.075 403.365 170.154 403.87 169.244C404.375 168.334 405.587 165.908 406.597 164.088C407.607 162.268 408.213 160.448 408.617 159.942C408.658 159.891 408.78 159.843 408.944 159.795C408.805 154.744 406.294 153.471 406.294 153.471Z" fill="white" stroke="#FA2609" stroke-miterlimit="10" stroke-linecap="round" stroke-linejoin="round"/>
<path d="M398.312 167.525C398.312 167.525 401.848 163.481 402.554 162.369L398.312 167.525Z" fill="white"/>
<path d="M398.312 167.525C398.312 167.525 401.848 163.481 402.554 162.369" stroke="#FA2609" stroke-miterlimit="10" stroke-linecap="round" stroke-linejoin="round"/>
<path d="M398.312 170.761C398.312 170.761 402.656 167.02 404.07 164.087L398.312 170.761Z" fill="white"/>
<path d="M398.312 170.761C398.312 170.761 402.656 167.02 404.07 164.087" stroke="#FA2609" stroke-miterlimit="10" stroke-linecap="round" stroke-linejoin="round"/>
<path d="M400.234 171.165C400.234 171.165 402.558 169.447 404.274 166.817L400.234 171.165Z" fill="white"/>
<path d="M400.234 171.165C400.234 171.165 402.558 169.447 404.274 166.817" stroke="#FA2609" stroke-miterlimit="10" stroke-linecap="round" stroke-linejoin="round"/>
<path d="M58.6139 93.1932C58.6139 93.1932 58.149 94.8713 58.149 96.5371C58.149 98.2029 58.2532 98.6192 57.9411 99.4517C57.6289 100.285 57.1094 102.367 57.1094 102.367L65.9487 114.131C65.9487 114.131 68.2365 115.693 69.6925 114.86C71.1486 114.027 71.3565 112.465 71.3565 112.465L74.3723 108.822C74.3723 108.822 75.6658 109.037 75.8737 108.412C76.0816 107.787 76.2441 103.096 76.2441 103.096L70.5242 96.0164L60.1251 92.2686L58.6139 93.1932Z" fill="white" stroke="#FA2609" stroke-miterlimit="10" stroke-linecap="round" stroke-linejoin="round"/>
<path d="M72.9479 108.595C72.3996 108.351 69.355 107.498 68.1976 107.864C67.0409 108.23 66.9795 109.449 66.5533 109.632C66.127 109.815 65.7007 108.962 65.3352 106.767C64.9696 104.572 65.3352 100.975 65.5787 99.5724C65.8222 98.1701 67.0403 97.8041 67.7713 97.195C68.5024 96.5853 68.8674 95.7319 68.8674 95.7319L69.1053 95.5072L60.1219 92.2695L58.6112 93.1936C58.6112 93.1936 58.1463 94.8717 58.1463 96.5374C58.1463 97.6248 58.1886 98.1787 58.1328 98.665C58.5634 98.6312 59.0571 98.42 59.4889 97.9257C60.3414 96.9501 61.7423 96.0966 62.6555 96.0966C63.5688 96.0966 63.9343 96.8279 63.9343 97.8649C63.9343 98.902 63.1425 102.986 61.9858 104.571C60.8284 106.156 61.6816 108.412 61.6816 108.412C61.6816 108.412 61.673 108.426 61.6675 108.437L65.9467 114.132C65.9467 114.132 68.2344 115.693 69.6905 114.86C71.1465 114.027 71.3544 112.466 71.3544 112.466L73.9912 109.28C73.8446 109.157 73.3987 108.795 72.9479 108.595Z" fill="white" stroke="#FA2609" stroke-miterlimit="10" stroke-linecap="round" stroke-linejoin="round"/>
<path d="M63.2684 97.4379C63.2684 97.4379 61.9981 94.2469 60.6464 94.4551C59.2946 94.6632 58.6702 97.5785 59.1903 99.0355C59.7104 100.493 60.022 101.951 61.2701 102.055C62.5183 102.159 62.6219 101.222 62.6219 101.222" fill="white"/>
<path d="M63.2684 97.4379C63.2684 97.4379 61.9981 94.2469 60.6464 94.4551C59.2946 94.6632 58.6702 97.5785 59.1903 99.0355C59.7104 100.493 60.022 101.951 61.2701 102.055C62.5183 102.159 62.6219 101.222 62.6219 101.222" stroke="#FA2609" stroke-miterlimit="10" stroke-linecap="round" stroke-linejoin="round"/>
<path d="M58.6172 93.1934C58.6172 93.1934 65.4743 95.9392 68.4912 96.4888C68.4912 96.4888 71.3715 101.98 72.8796 103.079C74.3884 104.177 76.034 104.589 76.7197 104.589C77.4054 104.589 82.7543 106.649 82.8911 105.138C83.0285 103.628 79.4626 98.4112 79.4626 98.4112C79.4626 98.4112 80.6966 94.1549 79.3252 90.5858C77.9538 87.016 74.1137 84.5446 70.2736 83.8582C66.4335 83.1717 62.3193 85.78 60.8105 87.8393C59.3029 89.8987 58.6172 93.1934 58.6172 93.1934Z" fill="white" stroke="#FA2609" stroke-miterlimit="10" stroke-linecap="round" stroke-linejoin="round"/>
<mask id="path-128-inside-1_1392_54886" fill="white">
<path d="M72.3662 103.48C72.2202 103.892 71.8976 104.153 71.6461 104.063C71.394 103.973 71.3082 103.567 71.4535 103.156C71.5995 102.745 71.9221 102.484 72.1736 102.573C72.4256 102.663 72.5115 103.069 72.3662 103.48Z"/>
</mask>
<path d="M72.3662 103.48C72.2202 103.892 71.8976 104.153 71.6461 104.063C71.394 103.973 71.3082 103.567 71.4535 103.156C71.5995 102.745 71.9221 102.484 72.1736 102.573C72.4256 102.663 72.5115 103.069 72.3662 103.48Z" fill="white"/>
<path d="M72.3662 103.48L73.3086 103.815L73.309 103.813L72.3662 103.48ZM71.6461 104.063L71.9819 103.121L71.9812 103.121L71.6461 104.063ZM71.4535 103.156L70.5111 102.822L70.5106 102.823L71.4535 103.156ZM72.1736 102.573L71.8378 103.515L71.8385 103.515L72.1736 102.573ZM71.4237 103.146C71.4022 103.207 71.3817 103.21 71.4167 103.182C71.4361 103.166 71.6553 103.004 71.9819 103.121L71.3103 105.005C71.8884 105.211 72.3946 104.963 72.6747 104.737C72.9704 104.498 73.1842 104.165 73.3086 103.815L71.4237 103.146ZM71.9812 103.121C72.3059 103.236 72.3738 103.498 72.379 103.523C72.3883 103.566 72.3748 103.55 72.3964 103.489L70.5106 102.823C70.3869 103.173 70.3436 103.566 70.4225 103.938C70.4974 104.29 70.7342 104.8 71.311 105.005L71.9812 103.121ZM72.3959 103.49C72.4175 103.43 72.438 103.426 72.403 103.454C72.3835 103.47 72.1644 103.632 71.8378 103.515L72.5094 101.631C71.9313 101.425 71.4251 101.673 71.145 101.899C70.8493 102.139 70.6355 102.471 70.5111 102.822L72.3959 103.49ZM71.8385 103.515C71.5138 103.4 71.4459 103.138 71.4407 103.114C71.4314 103.07 71.4449 103.086 71.4233 103.147L73.309 103.813C73.4328 103.463 73.476 103.071 73.3971 102.699C73.3223 102.346 73.0854 101.836 72.5086 101.631L71.8385 103.515Z" fill="#FA2609" mask="url(#path-128-inside-1_1392_54886)"/>
<path d="M73.4356 110.058C73.4356 110.058 71.8519 108.778 69.5986 108.778C67.3452 108.778 68.0763 110.058 68.4412 110.79C68.8067 111.521 71.3539 112.466 71.3539 112.466L73.4356 110.058Z" fill="white" stroke="#FA2609" stroke-miterlimit="10" stroke-linecap="round" stroke-linejoin="round"/>
<path d="M68.9297 109.509C68.9297 109.509 69.965 110.485 71.4873 110.912L68.9297 109.509Z" fill="white"/>
<path d="M68.9297 109.509C68.9297 109.509 69.965 110.485 71.4873 110.912" stroke="#FA2609" stroke-miterlimit="10" stroke-linecap="round" stroke-linejoin="round"/>
<path d="M56.8694 101.76C56.8694 101.76 56.5768 101.272 55.796 101.956C55.0153 102.64 52.9655 104.105 52.868 105.082C52.7705 106.059 61.6521 117.882 62.628 117.784C63.6038 117.686 65.9455 114.131 65.9455 114.131L56.8694 101.76Z" fill="white" stroke="#FA2609" stroke-miterlimit="10" stroke-linecap="round" stroke-linejoin="round"/>
<path d="M61.6448 145.123L70.5031 149.99L81.0911 153.559L69.8555 156.479L61.3203 149.99L61.6448 145.123Z" fill="white" stroke="#FA2609" stroke-miterlimit="10" stroke-linecap="round" stroke-linejoin="round"/>
<path d="M35.5385 268.176C35.5385 268.176 39.6147 272.017 40.734 272.417C41.8528 272.817 47.128 274.257 47.3678 275.218C47.6077 276.178 48.0873 277.138 46.8085 277.778C45.5297 278.418 39.2154 278.898 34.1799 278.818C29.1445 278.738 22.3506 277.698 21.2319 277.538C20.1131 277.378 18.8343 278.258 18.6743 276.178C18.5142 274.098 19.4734 270.897 19.4734 270.897L35.5385 268.176Z" fill="white" stroke="#FA2609" stroke-miterlimit="10" stroke-linecap="round" stroke-linejoin="round"/>
<path d="M47.4313 275.453C46.9185 275.672 46.2714 275.938 45.4502 276.258C42.573 277.378 35.5393 277.138 29.6244 276.178C25.1777 275.456 20.6862 274.779 18.7303 274.488C18.6641 275.076 18.6346 275.662 18.6739 276.178C18.834 278.258 20.1128 277.378 21.2315 277.538C22.3502 277.698 29.1441 278.738 34.1796 278.818C39.215 278.898 45.5293 278.418 46.8081 277.778C47.9833 277.19 47.6754 276.333 47.4313 275.453Z" fill="white" stroke="#FA2609" stroke-miterlimit="10" stroke-linecap="round" stroke-linejoin="round"/>
<path d="M75.7434 263.055C75.7434 263.055 83.1764 266.816 83.7363 266.896C84.2957 266.976 91.0896 268.576 91.1693 268.976C91.2491 269.376 91.8084 271.376 91.0896 272.257C90.3701 273.137 82.0576 274.977 80.539 275.057C79.0204 275.137 68.0706 274.017 67.0316 274.097C65.9926 274.177 59.1987 274.417 58.6394 273.777C58.08 273.136 59.5986 267.536 59.5986 267.536C59.5986 267.536 67.9111 267.216 70.8686 265.295C73.8255 263.375 75.7434 263.055 75.7434 263.055Z" fill="white" stroke="#FA2609" stroke-miterlimit="10" stroke-linecap="round" stroke-linejoin="round"/>
<path d="M91.4246 270.391C89.1449 271.013 82.5417 272.793 80.6993 273.056C78.4612 273.376 69.4299 272.576 64.874 271.776C62.0588 271.282 59.979 271.063 58.7984 270.967C58.5481 272.264 58.3942 273.496 58.6395 273.777C59.1989 274.416 65.9928 274.177 67.0317 274.097C68.0707 274.017 79.0206 275.137 80.5392 275.057C82.0578 274.977 90.3703 273.136 91.0897 272.256C91.4584 271.806 91.4909 271.063 91.4246 270.391Z" fill="white" stroke="#FA2609" stroke-miterlimit="10" stroke-linecap="round" stroke-linejoin="round"/>
<path d="M24.4855 167.98C24.4855 167.98 22.6492 175.488 22.6492 179.165C22.6492 182.842 23.4146 193.873 23.4146 193.873L25.8637 218.847C25.8637 218.847 24.3334 234.781 23.7213 237.846C23.1092 240.91 21.1195 247.345 20.8135 251.481C20.5074 255.618 19.4359 265.117 19.4359 265.117L18.9766 271.705C18.9766 271.705 25.0982 273.084 27.7 272.012C30.3018 270.939 36.4234 269.56 36.4234 269.56C36.4234 269.56 37.3416 266.649 36.8828 265.27C36.4234 263.891 35.3526 261.133 35.1992 260.674C35.0459 260.214 37.6483 244.28 37.6483 244.28L43.0051 224.362L44.9948 217.468L48.9741 230.797C48.9741 230.797 51.8819 244.28 53.8715 250.715C55.8612 257.149 58.6157 263.891 58.6157 263.891L58.9217 268.641C58.9217 268.641 63.6665 268.794 64.7374 268.641C65.8089 268.487 72.696 267.262 73.7669 266.036C74.8384 264.811 76.828 263.278 76.828 263.278L73.6141 259.295C73.6141 259.295 73.3081 257.15 73.1548 256.69C73.0014 256.23 72.6954 255.464 72.2366 253.166C71.7772 250.868 69.4815 234.474 68.5633 228.499C67.6452 222.523 64.8901 211.339 63.5125 206.13C62.135 200.92 58.7684 187.438 58.309 186.058C57.8496 184.679 57.2375 183.914 57.0848 183.3C56.9321 182.688 56.0133 176.866 56.0133 175.64C56.0133 174.416 24.4855 167.98 24.4855 167.98Z" fill="white" stroke="#FA2609" stroke-miterlimit="10" stroke-linecap="round" stroke-linejoin="round"/>
<path d="M45.4531 216.242C45.4531 216.242 48.2082 201.84 48.667 200.155C49.1264 198.47 50.6566 188.051 50.6566 188.051" fill="white"/>
<path d="M45.4531 216.242C45.4531 216.242 48.2082 201.84 48.667 200.155C49.1264 198.47 50.6566 188.051 50.6566 188.051" stroke="#FA2609" stroke-miterlimit="10" stroke-linecap="round" stroke-linejoin="round"/>
<path d="M24.1797 198.93C24.1797 198.93 24.333 209.654 24.333 211.953C24.333 214.251 25.2512 215.17 26.6287 215.476C28.0063 215.783 37.9539 215.63 38.8727 215.17C39.7909 214.71 40.403 213.025 40.403 210.88C40.403 208.735 39.9436 202.147 39.9436 202.147" fill="white"/>
<path d="M24.1797 198.93C24.1797 198.93 24.333 209.654 24.333 211.953C24.333 214.251 25.2512 215.17 26.6287 215.476C28.0063 215.783 37.9539 215.63 38.8727 215.17C39.7909 214.71 40.403 213.025 40.403 210.88C40.403 208.735 39.9436 202.147 39.9436 202.147" stroke="#FA2609" stroke-miterlimit="10" stroke-linecap="round" stroke-linejoin="round"/>
<path d="M22.9609 192.801V200.308C22.9609 200.308 30.7662 200.462 33.368 200.615C35.9697 200.768 39.7957 200.308 39.7957 200.308L40.2551 193.414L25.2566 192.801H22.9609Z" fill="white" stroke="#FA2609" stroke-miterlimit="10" stroke-linecap="round" stroke-linejoin="round"/>
<path d="M37.192 176.254C37.192 176.254 36.1205 178.858 34.5902 180.39C33.06 181.922 31.0703 182.842 31.0703 182.842" fill="white"/>
<path d="M37.192 176.254C37.192 176.254 36.1205 178.858 34.5902 180.39C33.06 181.922 31.0703 182.842 31.0703 182.842" stroke="#FA2609" stroke-miterlimit="10" stroke-linecap="round" stroke-linejoin="round"/>
<path d="M31.5275 175.641C31.5275 175.641 30.6094 184.374 30.6094 186.826L31.5275 175.641Z" fill="white"/>
<path d="M31.5275 175.641C31.5275 175.641 30.6094 184.374 30.6094 186.826" stroke="#FA2609" stroke-miterlimit="10" stroke-linecap="round" stroke-linejoin="round"/>
<path d="M52.8712 105.083C52.8712 105.083 46.4207 109.832 41.2933 113.499C36.1658 117.166 28.6574 142.281 27.7423 147.415C26.8266 152.548 24.2628 158.597 24.2628 158.597C24.2628 158.597 22.2486 167.764 22.6148 169.414C22.981 171.063 42.2096 176.563 46.9709 177.663C51.7322 178.763 54.4793 178.947 54.4793 178.947L55.395 177.113C55.395 177.113 55.9446 178.947 56.8603 178.58C57.776 178.213 59.6074 165.381 60.1563 163.914C60.7059 162.447 65.2838 136.598 65.2838 129.999C65.2838 123.399 62.6324 117.786 62.6324 117.786L52.8712 105.083Z" fill="white" stroke="#FA2609" stroke-miterlimit="10" stroke-linecap="round" stroke-linejoin="round"/>
<path d="M27.7356 147.414C27.2897 149.915 26.4525 152.631 25.7109 154.762L59.4277 167.33C59.7368 165.644 59.9938 164.327 60.1484 163.914C60.6979 162.447 65.2758 136.598 65.2758 129.999C65.2758 123.399 62.6244 117.786 62.6244 117.786L57.6386 111.297C57.3792 111.182 57.1191 111.082 56.8585 111.006C52.0088 109.59 46.5526 109.994 41.2859 113.5C36.1591 117.165 28.6513 142.281 27.7356 147.414ZM42.7119 114.194C47.9657 111.969 55.6747 112.102 58.7058 113.923C61.7369 115.743 62.6532 120.076 63.721 127.898C64.6251 134.519 58.8316 154.283 57.4608 160.425L30.1441 149.398C32.7164 141.233 38.2959 116.064 42.7119 114.194Z" fill="white" stroke="#FA2609" stroke-miterlimit="10" stroke-linecap="round" stroke-linejoin="round"/>
<path d="M61.8594 155.938L106.046 146.528L111.771 174.648L68.7735 184.057L61.8594 155.938Z" fill="white" stroke="#FA2609" stroke-miterlimit="10" stroke-linecap="round" stroke-linejoin="round"/>
<path d="M68.7734 184.057L72.0149 187.194L113.824 177.893L111.771 174.648L68.7734 184.057Z" fill="white" stroke="#FA2609" stroke-miterlimit="10" stroke-linecap="round" stroke-linejoin="round"/>
<path d="M106.047 146.528L108.481 150.975L113.825 177.893L111.772 174.648L106.047 146.528Z" fill="white" stroke="#FA2609" stroke-miterlimit="10" stroke-linecap="round" stroke-linejoin="round"/>
<path d="M81.4141 151.828L83.4669 161.561L88.3282 160.48L86.2753 150.854L81.4141 151.828Z" fill="white" stroke="#FA2609" stroke-miterlimit="10" stroke-linecap="round" stroke-linejoin="round"/>
<path d="M73.5222 160.047C73.5222 160.047 76.871 162.21 77.1955 162.427C77.5193 162.643 82.9216 163.508 83.8937 164.157C84.8658 164.806 87.1346 169.24 87.459 169.781C87.7829 170.322 87.7829 170.862 86.5948 170.862C85.4062 170.862 84.542 169.023 84.542 169.023C84.542 169.023 86.7028 176.378 86.9187 177.459C87.1346 178.541 87.459 179.622 86.4869 179.298C85.5148 178.973 84.8665 175.837 84.542 175.297C84.2182 174.756 82.1653 171.727 82.1653 171.727C82.1653 171.727 83.7858 176.811 84.2182 178C84.65 179.19 85.5148 181.569 84.4341 181.785C83.354 182.002 82.3812 179.406 82.3812 179.406C82.3812 179.406 82.5971 181.677 82.1653 182.002C81.7336 182.326 80.8688 181.028 80.8688 180.487C80.8688 179.946 78.8159 175.512 78.4921 174.972C78.1676 174.431 77.4114 173.35 77.4114 173.35C77.4114 173.35 78.708 178.325 78.4921 179.514C78.2762 180.704 77.4114 181.461 76.9796 180.487C76.5472 179.514 75.791 176.053 75.5751 175.404C75.3592 174.755 74.2785 171.078 74.2785 171.078L70.9297 166.427L73.5222 160.047Z" fill="white" stroke="#FA2609" stroke-miterlimit="10" stroke-linecap="round" stroke-linejoin="round"/>
<path d="M84.5388 169.024L83.2422 165.455" stroke="#FA2609" stroke-miterlimit="10" stroke-linecap="round" stroke-linejoin="round"/>
<path d="M82.383 179.407L80.8706 175.621L79.8984 171.836" fill="white"/>
<path d="M82.383 179.407L80.8706 175.621L79.8984 171.836" stroke="#FA2609" stroke-miterlimit="10" stroke-linecap="round" stroke-linejoin="round"/>
<path d="M47.5145 115.698C47.5145 115.698 42.0712 119.507 41.705 121.524C41.3389 123.54 40.9218 149.064 42.2036 151.08C43.4855 153.096 63.4464 163.73 64.1788 164.096C64.9111 164.463 69.9926 167.684 69.9926 167.684C69.9926 167.684 71.824 167.317 73.1058 164.751C74.3877 162.184 74.7539 159.251 74.7539 159.251C74.7539 159.251 66.0096 151.081 65.2773 150.53C64.5449 149.98 58.3184 141.548 58.3184 141.548C58.3184 141.548 59.2341 138.798 59.2341 138.064C59.2341 137.331 58.8679 136.781 58.8679 135.498C58.8679 134.215 62.3474 122.482 61.2483 119.365C60.1504 116.248 55.2057 113.132 47.5145 115.698Z" fill="white" stroke="#FA2609" stroke-miterlimit="10" stroke-linecap="round" stroke-linejoin="round"/>
<path d="M44.9488 119.182C44.9488 119.182 42.0189 123.765 41.8355 125.965C41.6521 128.164 41.6521 134.764 41.6521 136.048C41.6521 137.331 41.4688 145.581 41.4688 145.581" fill="white"/>
<path d="M44.9488 119.182C44.9488 119.182 42.0189 123.765 41.8355 125.965C41.6521 128.164 41.6521 134.764 41.6521 136.048C41.6521 137.331 41.4688 145.581 41.4688 145.581" stroke="#FA2609" stroke-miterlimit="10" stroke-linecap="round" stroke-linejoin="round"/>
<path d="M160.305 278.982C164.348 278.982 167.626 275.7 167.626 271.653C167.626 267.605 164.348 264.324 160.305 264.324C156.262 264.324 152.984 267.605 152.984 271.653C152.984 275.7 156.262 278.982 160.305 278.982Z" fill="white" stroke="#FA2609" stroke-miterlimit="10" stroke-linecap="round" stroke-linejoin="round"/>
<path d="M160.304 276.336C162.887 276.336 164.982 274.24 164.982 271.653C164.982 269.066 162.887 266.969 160.304 266.969C157.72 266.969 155.625 269.066 155.625 271.653C155.625 274.24 157.72 276.336 160.304 276.336Z" fill="white" stroke="#FA2609" stroke-miterlimit="10" stroke-linecap="round" stroke-linejoin="round"/>
<path d="M161.366 262.462L159.292 271.544C159.164 272.015 159.406 272.507 159.857 272.693C160.273 272.865 160.751 272.727 161.012 272.36C162.218 270.669 165.343 265.313 166.132 265.025C167.103 264.672 171.694 262.639 171.694 262.639L161.366 262.462Z" fill="white" stroke="#FA2609" stroke-miterlimit="10" stroke-linecap="round" stroke-linejoin="round"/>
<path d="M89.6879 278.981C93.7311 278.981 97.0087 275.7 97.0087 271.652C97.0087 267.605 93.7311 264.324 89.6879 264.324C85.6448 264.324 82.3672 267.605 82.3672 271.652C82.3672 275.7 85.6448 278.981 89.6879 278.981Z" fill="white" stroke="#FA2609" stroke-miterlimit="10" stroke-linecap="round" stroke-linejoin="round"/>
<path d="M89.6863 276.336C92.2702 276.336 94.3648 274.239 94.3648 271.652C94.3648 269.066 92.2702 266.969 89.6863 266.969C87.1025 266.969 85.0078 269.066 85.0078 271.652C85.0078 274.239 87.1025 276.336 89.6863 276.336Z" fill="white" stroke="#FA2609" stroke-miterlimit="10" stroke-linecap="round" stroke-linejoin="round"/>
<path d="M85.4531 262.728L88.4793 271.724C88.6762 272.265 89.1902 272.625 89.7655 272.625C90.3537 272.625 90.8756 272.249 91.0633 271.691L94.1042 262.639L85.4531 262.728Z" fill="white" stroke="#FA2609" stroke-miterlimit="10" stroke-linecap="round" stroke-linejoin="round"/>
<path d="M182.432 263.16H81.5253C80.782 263.16 80.1797 262.557 80.1797 261.813C80.1797 261.069 80.782 260.466 81.5253 260.466H182.432C183.175 260.466 183.777 261.069 183.777 261.813C183.777 262.557 183.175 263.16 182.432 263.16Z" fill="white" stroke="#FA2609" stroke-miterlimit="10" stroke-linecap="round" stroke-linejoin="round"/>
<path d="M172.045 250.917C170.86 250.917 169.898 249.954 169.898 248.768V189.542C169.898 189.359 169.922 189.177 169.968 189L179.488 152.409C179.787 151.26 180.958 150.573 182.107 150.871C183.254 151.17 183.942 152.344 183.643 153.493L174.192 189.817V248.768C174.192 249.954 173.231 250.917 172.045 250.917Z" fill="white" stroke="#FA2609" stroke-miterlimit="10" stroke-linecap="round" stroke-linejoin="round"/>
<path d="M166.547 260.41V255.514L170.083 248.66H173.933C173.933 248.66 177.093 250.844 178.523 253.556C179.953 256.267 179.953 260.41 179.953 260.41H166.547V260.41Z" fill="white" stroke="#FA2609" stroke-miterlimit="10" stroke-linecap="round" stroke-linejoin="round"/>
<path d="M158.538 189.563H88.3906V213.628H158.538V189.563Z" fill="white" stroke="#FA2609" stroke-miterlimit="10" stroke-linecap="round" stroke-linejoin="round"/>
<path d="M103.378 189.563H88.3906V204.736H103.378V189.563Z" fill="white" stroke="#FA2609" stroke-miterlimit="10" stroke-linecap="round" stroke-linejoin="round"/>
<path d="M158.538 237.56H88.3906V260.444H158.538V237.56Z" fill="white" stroke="#FA2609" stroke-miterlimit="10" stroke-linecap="round" stroke-linejoin="round"/>
<path d="M149.635 239.831H124.508V255.378H149.635V239.831Z" fill="white" stroke="#FA2609" stroke-miterlimit="10" stroke-linecap="round" stroke-linejoin="round"/>
<path d="M112.824 242.277H102.18V248.216H112.824V242.277Z" fill="white" stroke="#FA2609" stroke-miterlimit="10" stroke-linecap="round" stroke-linejoin="round"/>
<path d="M158.538 213.495H88.3906V237.56H158.538V213.495Z" fill="white" stroke="#FA2609" stroke-miterlimit="10" stroke-linecap="round" stroke-linejoin="round"/>
<path d="M122.612 217.996H112.297V230.058H122.612V217.996Z" fill="white" stroke="#FA2609" stroke-miterlimit="10" stroke-linecap="round" stroke-linejoin="round"/>
<path d="M150.16 217.297H139.516V223.236H150.16V217.297Z" fill="white" stroke="#FA2609" stroke-miterlimit="10" stroke-linecap="round" stroke-linejoin="round"/>
<path d="M195.953 169.804H147.242V207.366H195.953V169.804Z" fill="white" stroke="#FA2609" stroke-miterlimit="10" stroke-linecap="round" stroke-linejoin="round"/>
<path d="M183.651 178.424H167.227V187.855H183.651V178.424Z" fill="white" stroke="#FA2609" stroke-miterlimit="10" stroke-linecap="round" stroke-linejoin="round"/>
<path d="M166.258 190.756H157.805V195.35H166.258V190.756Z" fill="white" stroke="#FA2609" stroke-miterlimit="10" stroke-linecap="round" stroke-linejoin="round"/>
<path d="M222.52 169.804H195.953V207.366H222.52V169.804Z" fill="white" stroke="#FA2609" stroke-miterlimit="10" stroke-linecap="round" stroke-linejoin="round"/>
<path d="M288.893 211.897H134.945V213.8H288.893V211.897Z" fill="white" stroke="#FA2609" stroke-miterlimit="10" stroke-linecap="round" stroke-linejoin="round"/>
<path d="M291.3 210.912C291.3 209.317 290.009 208.024 288.416 208.024C286.822 208.024 285.531 209.317 285.531 210.912C285.531 212.507 286.823 213.8 288.416 213.8C290.009 213.8 291.3 212.507 291.3 210.912Z" fill="white" stroke="#FA2609" stroke-miterlimit="10" stroke-linecap="round" stroke-linejoin="round"/>
<path d="M278.822 213.8C280.415 213.8 281.707 212.507 281.707 210.912C281.707 209.317 280.415 208.024 278.822 208.024C277.229 208.024 275.938 209.317 275.938 210.912C275.938 212.507 277.229 213.8 278.822 213.8Z" fill="white" stroke="#FA2609" stroke-miterlimit="10" stroke-linecap="round" stroke-linejoin="round"/>
<path d="M269.228 213.8C270.821 213.8 272.113 212.507 272.113 210.912C272.113 209.317 270.821 208.024 269.228 208.024C267.635 208.024 266.344 209.317 266.344 210.912C266.344 212.507 267.635 213.8 269.228 213.8Z" fill="white" stroke="#FA2609" stroke-miterlimit="10" stroke-linecap="round" stroke-linejoin="round"/>
<path d="M259.642 213.8C261.235 213.8 262.527 212.507 262.527 210.912C262.527 209.317 261.235 208.024 259.642 208.024C258.049 208.024 256.758 209.317 256.758 210.912C256.758 212.507 258.049 213.8 259.642 213.8Z" fill="white" stroke="#FA2609" stroke-miterlimit="10" stroke-linecap="round" stroke-linejoin="round"/>
<path d="M252.933 210.912C252.933 209.317 251.641 208.024 250.049 208.024C248.456 208.024 247.164 209.317 247.164 210.912C247.164 212.507 248.456 213.8 250.049 213.8C251.641 213.8 252.933 212.507 252.933 210.912Z" fill="white" stroke="#FA2609" stroke-miterlimit="10" stroke-linecap="round" stroke-linejoin="round"/>
<path d="M240.455 213.8C242.048 213.8 243.339 212.507 243.339 210.912C243.339 209.317 242.048 208.024 240.455 208.024C238.862 208.024 237.57 209.317 237.57 210.912C237.57 212.507 238.862 213.8 240.455 213.8Z" fill="white" stroke="#FA2609" stroke-miterlimit="10" stroke-linecap="round" stroke-linejoin="round"/>
<path d="M230.861 213.8C232.454 213.8 233.746 212.507 233.746 210.912C233.746 209.317 232.454 208.024 230.861 208.024C229.268 208.024 227.977 209.317 227.977 210.912C227.977 212.507 229.268 213.8 230.861 213.8Z" fill="white" stroke="#FA2609" stroke-miterlimit="10" stroke-linecap="round" stroke-linejoin="round"/>
<path d="M224.16 210.912C224.16 209.317 222.868 208.024 221.275 208.024C219.682 208.024 218.391 209.317 218.391 210.912C218.391 212.507 219.682 213.8 221.275 213.8C222.868 213.8 224.16 212.507 224.16 210.912Z" fill="white" stroke="#FA2609" stroke-miterlimit="10" stroke-linecap="round" stroke-linejoin="round"/>
<path d="M211.681 213.8C213.274 213.8 214.566 212.507 214.566 210.912C214.566 209.317 213.274 208.024 211.681 208.024C210.088 208.024 208.797 209.317 208.797 210.912C208.797 212.507 210.088 213.8 211.681 213.8Z" fill="white" stroke="#FA2609" stroke-miterlimit="10" stroke-linecap="round" stroke-linejoin="round"/>
<path d="M202.088 213.8C203.681 213.8 204.972 212.507 204.972 210.912C204.972 209.317 203.681 208.024 202.088 208.024C200.495 208.024 199.203 209.317 199.203 210.912C199.203 212.507 200.495 213.8 202.088 213.8Z" fill="white" stroke="#FA2609" stroke-miterlimit="10" stroke-linecap="round" stroke-linejoin="round"/>
<path d="M192.494 213.8C194.087 213.8 195.378 212.507 195.378 210.912C195.378 209.317 194.087 208.024 192.494 208.024C190.901 208.024 189.609 209.317 189.609 210.912C189.609 212.507 190.901 213.8 192.494 213.8Z" fill="white" stroke="#FA2609" stroke-miterlimit="10" stroke-linecap="round" stroke-linejoin="round"/>
<path d="M185.792 210.912C185.792 209.317 184.501 208.024 182.908 208.024C181.315 208.024 180.023 209.317 180.023 210.912C180.023 212.507 181.315 213.8 182.908 213.8C184.501 213.8 185.792 212.507 185.792 210.912Z" fill="white" stroke="#FA2609" stroke-miterlimit="10" stroke-linecap="round" stroke-linejoin="round"/>
<path d="M173.314 213.8C174.907 213.8 176.199 212.507 176.199 210.912C176.199 209.317 174.907 208.024 173.314 208.024C171.721 208.024 170.43 209.317 170.43 210.912C170.43 212.507 171.721 213.8 173.314 213.8Z" fill="white" stroke="#FA2609" stroke-miterlimit="10" stroke-linecap="round" stroke-linejoin="round"/>
<path d="M163.72 213.8C165.314 213.8 166.605 212.507 166.605 210.912C166.605 209.317 165.314 208.024 163.72 208.024C162.127 208.024 160.836 209.317 160.836 210.912C160.836 212.507 162.127 213.8 163.72 213.8Z" fill="white" stroke="#FA2609" stroke-miterlimit="10" stroke-linecap="round" stroke-linejoin="round"/>
<path d="M154.127 213.8C155.72 213.8 157.011 212.507 157.011 210.912C157.011 209.317 155.72 208.024 154.127 208.024C152.534 208.024 151.242 209.317 151.242 210.912C151.242 212.507 152.534 213.8 154.127 213.8Z" fill="white" stroke="#FA2609" stroke-miterlimit="10" stroke-linecap="round" stroke-linejoin="round"/>
<path d="M147.425 210.912C147.425 209.317 146.134 208.024 144.541 208.024C142.948 208.024 141.656 209.317 141.656 210.912C141.656 212.507 142.948 213.8 144.541 213.8C146.134 213.8 147.425 212.507 147.425 210.912Z" fill="white" stroke="#FA2609" stroke-miterlimit="10" stroke-linecap="round" stroke-linejoin="round"/>
<path d="M134.947 213.8C136.54 213.8 137.832 212.507 137.832 210.912C137.832 209.317 136.54 208.024 134.947 208.024C133.354 208.024 132.062 209.317 132.062 210.912C132.062 212.507 133.354 213.8 134.947 213.8Z" fill="white" stroke="#FA2609" stroke-miterlimit="10" stroke-linecap="round" stroke-linejoin="round"/>
<path d="M294.336 215.062L289.201 209.922C288.767 209.486 288.062 209.486 287.627 209.922L283.618 213.935L279.61 209.922C279.175 209.486 278.47 209.486 278.035 209.922L274.026 213.935L270.018 209.922C269.583 209.486 268.878 209.486 268.443 209.922L264.434 213.935L260.426 209.922C259.991 209.486 259.286 209.486 258.851 209.922L254.842 213.935L250.834 209.922C250.399 209.486 249.694 209.486 249.259 209.922L245.251 213.935L241.242 209.922C240.807 209.486 240.102 209.486 239.667 209.922L235.659 213.935L231.65 209.922C231.215 209.486 230.51 209.486 230.075 209.922L226.067 213.935L222.058 209.922C221.623 209.486 220.918 209.486 220.484 209.922L216.475 213.935L212.466 209.922C212.031 209.486 211.326 209.486 210.892 209.922L206.883 213.935L202.874 209.922C202.439 209.486 201.735 209.486 201.3 209.922L197.291 213.935L193.282 209.922C192.847 209.486 192.143 209.486 191.708 209.922L187.699 213.935L183.69 209.922C183.255 209.486 182.551 209.486 182.116 209.922L178.107 213.935L174.098 209.922C173.664 209.486 172.959 209.486 172.524 209.922L168.515 213.935L164.506 209.922C164.072 209.486 163.367 209.486 162.932 209.922L158.923 213.935L154.915 209.922C154.48 209.486 153.775 209.486 153.34 209.922L149.331 213.935L145.323 209.922C144.888 209.486 144.183 209.486 143.748 209.922L139.739 213.935L135.731 209.922C135.296 209.486 134.591 209.486 134.156 209.922L129.021 215.062C128.587 215.497 128.587 216.203 129.021 216.638L134.156 221.779C134.591 222.214 135.296 222.214 135.731 221.779L139.739 217.766L143.748 221.779C144.183 222.214 144.888 222.214 145.323 221.779L149.331 217.766L153.34 221.779C153.775 222.214 154.48 222.214 154.915 221.779L158.923 217.766L162.932 221.779C163.367 222.214 164.072 222.214 164.506 221.779L168.515 217.766L172.524 221.779C172.959 222.214 173.664 222.214 174.098 221.779L178.107 217.766L182.116 221.779C182.551 222.214 183.255 222.214 183.69 221.779L187.699 217.766L191.708 221.779C192.143 222.214 192.847 222.214 193.282 221.779L197.291 217.766L201.3 221.779C201.735 222.214 202.439 222.214 202.874 221.779L206.883 217.766L210.892 221.779C211.326 222.214 212.031 222.214 212.466 221.779L216.475 217.766L220.484 221.779C220.918 222.214 221.623 222.214 222.058 221.779L226.067 217.766L230.075 221.779C230.51 222.214 231.215 222.214 231.65 221.779L235.659 217.766L239.667 221.779C240.102 222.214 240.807 222.214 241.242 221.779L245.251 217.766L249.259 221.779C249.694 222.214 250.399 222.214 250.834 221.779L254.842 217.766L258.851 221.779C259.286 222.214 259.991 222.214 260.426 221.779L264.434 217.766L268.443 221.779C268.878 222.214 269.583 222.214 270.018 221.779L274.026 217.766L278.035 221.779C278.47 222.214 279.175 222.214 279.61 221.779L283.618 217.766L287.627 221.779C288.062 222.214 288.767 222.214 289.201 221.779L294.336 216.638C294.771 216.204 294.771 215.497 294.336 215.062ZM136.99 216.639L135.734 217.896C135.299 218.332 134.594 218.332 134.159 217.896L132.903 216.639C132.468 216.204 132.468 215.498 132.903 215.063L134.159 213.805C134.594 213.37 135.299 213.37 135.734 213.805L136.99 215.063C137.425 215.497 137.425 216.204 136.99 216.639ZM146.582 216.639L145.326 217.896C144.891 218.332 144.186 218.332 143.751 217.896L142.495 216.639C142.06 216.204 142.06 215.498 142.495 215.063L143.751 213.805C144.186 213.37 144.891 213.37 145.326 213.805L146.582 215.063C147.017 215.497 147.017 216.204 146.582 216.639ZM156.174 216.639L154.918 217.896C154.483 218.332 153.778 218.332 153.343 217.896L152.087 216.639C151.652 216.204 151.652 215.498 152.087 215.063L153.343 213.805C153.778 213.37 154.483 213.37 154.918 213.805L156.174 215.063C156.608 215.497 156.608 216.204 156.174 216.639ZM165.765 216.639L164.509 217.896C164.074 218.332 163.369 218.332 162.934 217.896L161.678 216.639C161.244 216.204 161.244 215.498 161.678 215.063L162.934 213.805C163.369 213.37 164.074 213.37 164.509 213.805L165.765 215.063C166.2 215.497 166.2 216.204 165.765 216.639ZM175.357 216.639L174.101 217.896C173.666 218.332 172.961 218.332 172.526 217.896L171.27 216.639C170.835 216.204 170.835 215.498 171.27 215.063L172.526 213.805C172.961 213.37 173.666 213.37 174.101 213.805L175.357 215.063C175.792 215.497 175.792 216.204 175.357 216.639ZM184.948 216.639L183.692 217.896C183.257 218.332 182.553 218.332 182.118 217.896L180.862 216.639C180.427 216.204 180.427 215.498 180.862 215.063L182.118 213.805C182.553 213.37 183.257 213.37 183.692 213.805L184.948 215.063C185.383 215.497 185.383 216.204 184.948 216.639ZM194.54 216.639L193.284 217.896C192.849 218.332 192.144 218.332 191.71 217.896L190.454 216.639C190.019 216.204 190.019 215.498 190.454 215.063L191.71 213.805C192.144 213.37 192.849 213.37 193.284 213.805L194.54 215.063C194.975 215.497 194.975 216.204 194.54 216.639ZM204.132 216.639L202.876 217.896C202.441 218.332 201.736 218.332 201.302 217.896L200.045 216.639C199.611 216.204 199.611 215.498 200.045 215.063L201.302 213.805C201.736 213.37 202.441 213.37 202.876 213.805L204.132 215.063C204.567 215.497 204.567 216.204 204.132 216.639ZM213.723 216.639L212.467 217.896C212.032 218.332 211.328 218.332 210.893 217.896L209.637 216.639C209.202 216.204 209.202 215.498 209.637 215.063L210.893 213.805C211.328 213.37 212.032 213.37 212.467 213.805L213.723 215.063C214.158 215.497 214.158 216.204 213.723 216.639ZM223.315 216.639L222.059 217.896C221.624 218.332 220.92 218.332 220.485 217.896L219.229 216.639C218.794 216.204 218.794 215.498 219.229 215.063L220.485 213.805C220.92 213.37 221.624 213.37 222.059 213.805L223.315 215.063C223.75 215.497 223.75 216.204 223.315 216.639ZM232.907 216.639L231.651 217.896C231.216 218.332 230.511 218.332 230.076 217.896L228.82 216.639C228.385 216.204 228.385 215.498 228.82 215.063L230.076 213.805C230.511 213.37 231.216 213.37 231.651 213.805L232.907 215.063C233.341 215.497 233.341 216.204 232.907 216.639ZM242.499 216.639L241.242 217.896C240.808 218.332 240.103 218.332 239.668 217.896L238.412 216.639C237.977 216.204 237.977 215.498 238.412 215.063L239.668 213.805C240.103 213.37 240.808 213.37 241.242 213.805L242.499 215.063C242.933 215.497 242.933 216.204 242.499 216.639ZM252.09 216.639L250.834 217.896C250.4 218.332 249.695 218.332 249.26 217.896L248.004 216.639C247.569 216.204 247.569 215.498 248.004 215.063L249.26 213.805C249.695 213.37 250.4 213.37 250.834 213.805L252.09 215.063C252.525 215.497 252.525 216.204 252.09 216.639ZM261.682 216.639L260.426 217.896C259.991 218.332 259.286 218.332 258.851 217.896L257.595 216.639C257.16 216.204 257.16 215.498 257.595 215.063L258.851 213.805C259.286 213.37 259.991 213.37 260.426 213.805L261.682 215.063C262.117 215.497 262.117 216.204 261.682 216.639ZM271.274 216.639L270.018 217.896C269.583 218.332 268.878 218.332 268.443 217.896L267.187 216.639C266.752 216.204 266.752 215.498 267.187 215.063L268.443 213.805C268.878 213.37 269.583 213.37 270.018 213.805L271.274 215.063C271.709 215.497 271.709 216.204 271.274 216.639ZM280.866 216.639L279.61 217.896C279.175 218.332 278.47 218.332 278.035 217.896L276.779 216.639C276.344 216.204 276.344 215.498 276.779 215.063L278.035 213.805C278.47 213.37 279.175 213.37 279.61 213.805L280.866 215.063C281.3 215.497 281.3 216.204 280.866 216.639ZM290.457 216.639L289.201 217.896C288.766 218.332 288.061 218.332 287.626 217.896L286.37 216.639C285.935 216.204 285.935 215.498 286.37 215.063L287.626 213.805C288.061 213.37 288.766 213.37 289.201 213.805L290.457 215.063C290.892 215.497 290.892 216.204 290.457 216.639Z" fill="white" stroke="#FA2609" stroke-miterlimit="10" stroke-linecap="round" stroke-linejoin="round"/>
<path d="M451.924 211.897H297.977V213.8H451.924V211.897Z" fill="white" stroke="#FA2609" stroke-miterlimit="10" stroke-linecap="round" stroke-linejoin="round"/>
<path d="M451.447 213.8C453.04 213.8 454.332 212.507 454.332 210.912C454.332 209.317 453.04 208.024 451.447 208.024C449.854 208.024 448.562 209.317 448.562 210.912C448.562 212.507 449.854 213.8 451.447 213.8Z" fill="white" stroke="#FA2609" stroke-miterlimit="10" stroke-linecap="round" stroke-linejoin="round"/>
<path d="M444.738 210.912C444.738 209.317 443.446 208.024 441.853 208.024C440.26 208.024 438.969 209.317 438.969 210.912C438.969 212.507 440.26 213.8 441.853 213.8C443.446 213.8 444.738 212.507 444.738 210.912Z" fill="white" stroke="#FA2609" stroke-miterlimit="10" stroke-linecap="round" stroke-linejoin="round"/>
<path d="M432.26 213.8C433.853 213.8 435.144 212.507 435.144 210.912C435.144 209.317 433.853 208.024 432.26 208.024C430.666 208.024 429.375 209.317 429.375 210.912C429.375 212.507 430.666 213.8 432.26 213.8Z" fill="white" stroke="#FA2609" stroke-miterlimit="10" stroke-linecap="round" stroke-linejoin="round"/>
<path d="M422.674 213.8C424.267 213.8 425.558 212.507 425.558 210.912C425.558 209.317 424.267 208.024 422.674 208.024C421.081 208.024 419.789 209.317 419.789 210.912C419.789 212.507 421.081 213.8 422.674 213.8Z" fill="white" stroke="#FA2609" stroke-miterlimit="10" stroke-linecap="round" stroke-linejoin="round"/>
<path d="M415.964 210.912C415.964 209.317 414.673 208.024 413.08 208.024C411.486 208.024 410.195 209.317 410.195 210.912C410.195 212.507 411.487 213.8 413.08 213.8C414.673 213.8 415.964 212.507 415.964 210.912Z" fill="white" stroke="#FA2609" stroke-miterlimit="10" stroke-linecap="round" stroke-linejoin="round"/>
<path d="M403.486 213.8C405.079 213.8 406.371 212.507 406.371 210.912C406.371 209.317 405.079 208.024 403.486 208.024C401.893 208.024 400.602 209.317 400.602 210.912C400.602 212.507 401.893 213.8 403.486 213.8Z" fill="white" stroke="#FA2609" stroke-miterlimit="10" stroke-linecap="round" stroke-linejoin="round"/>
<path d="M393.892 213.8C395.485 213.8 396.777 212.507 396.777 210.912C396.777 209.317 395.485 208.024 393.892 208.024C392.299 208.024 391.008 209.317 391.008 210.912C391.008 212.507 392.299 213.8 393.892 213.8Z" fill="white" stroke="#FA2609" stroke-miterlimit="10" stroke-linecap="round" stroke-linejoin="round"/>
<path d="M384.306 213.8C385.899 213.8 387.191 212.507 387.191 210.912C387.191 209.317 385.899 208.024 384.306 208.024C382.713 208.024 381.422 209.317 381.422 210.912C381.422 212.507 382.713 213.8 384.306 213.8Z" fill="white" stroke="#FA2609" stroke-miterlimit="10" stroke-linecap="round" stroke-linejoin="round"/>
<path d="M377.597 210.912C377.597 209.317 376.305 208.024 374.713 208.024C373.119 208.024 371.828 209.317 371.828 210.912C371.828 212.507 373.12 213.8 374.713 213.8C376.306 213.8 377.597 212.507 377.597 210.912Z" fill="white" stroke="#FA2609" stroke-miterlimit="10" stroke-linecap="round" stroke-linejoin="round"/>
<path d="M365.119 213.8C366.712 213.8 368.003 212.507 368.003 210.912C368.003 209.317 366.712 208.024 365.119 208.024C363.526 208.024 362.234 209.317 362.234 210.912C362.234 212.507 363.526 213.8 365.119 213.8Z" fill="white" stroke="#FA2609" stroke-miterlimit="10" stroke-linecap="round" stroke-linejoin="round"/>
<path d="M355.525 213.8C357.118 213.8 358.41 212.507 358.41 210.912C358.41 209.317 357.118 208.024 355.525 208.024C353.932 208.024 352.641 209.317 352.641 210.912C352.641 212.507 353.932 213.8 355.525 213.8Z" fill="white" stroke="#FA2609" stroke-miterlimit="10" stroke-linecap="round" stroke-linejoin="round"/>
<path d="M345.939 213.8C347.532 213.8 348.824 212.507 348.824 210.912C348.824 209.317 347.532 208.024 345.939 208.024C344.346 208.024 343.055 209.317 343.055 210.912C343.055 212.507 344.346 213.8 345.939 213.8Z" fill="white" stroke="#FA2609" stroke-miterlimit="10" stroke-linecap="round" stroke-linejoin="round"/>
<path d="M339.23 210.912C339.23 209.317 337.938 208.024 336.345 208.024C334.752 208.024 333.461 209.317 333.461 210.912C333.461 212.507 334.753 213.8 336.345 213.8C337.938 213.8 339.23 212.507 339.23 210.912Z" fill="white" stroke="#FA2609" stroke-miterlimit="10" stroke-linecap="round" stroke-linejoin="round"/>
<path d="M326.752 213.8C328.345 213.8 329.636 212.507 329.636 210.912C329.636 209.317 328.345 208.024 326.752 208.024C325.159 208.024 323.867 209.317 323.867 210.912C323.867 212.507 325.159 213.8 326.752 213.8Z" fill="white" stroke="#FA2609" stroke-miterlimit="10" stroke-linecap="round" stroke-linejoin="round"/>
<path d="M317.158 213.8C318.751 213.8 320.042 212.507 320.042 210.912C320.042 209.317 318.751 208.024 317.158 208.024C315.565 208.024 314.273 209.317 314.273 210.912C314.273 212.507 315.565 213.8 317.158 213.8Z" fill="white" stroke="#FA2609" stroke-miterlimit="10" stroke-linecap="round" stroke-linejoin="round"/>
<path d="M310.457 210.912C310.457 209.317 309.165 208.024 307.572 208.024C305.979 208.024 304.688 209.317 304.688 210.912C304.688 212.507 305.979 213.8 307.572 213.8C309.165 213.8 310.457 212.507 310.457 210.912Z" fill="white" stroke="#FA2609" stroke-miterlimit="10" stroke-linecap="round" stroke-linejoin="round"/>
<path d="M297.978 213.8C299.571 213.8 300.863 212.507 300.863 210.912C300.863 209.317 299.571 208.024 297.978 208.024C296.385 208.024 295.094 209.317 295.094 210.912C295.094 212.507 296.385 213.8 297.978 213.8Z" fill="white" stroke="#FA2609" stroke-miterlimit="10" stroke-linecap="round" stroke-linejoin="round"/>
<path d="M457.368 215.062L452.233 209.922C451.798 209.486 451.093 209.486 450.658 209.922L446.65 213.935L442.641 209.922C442.206 209.486 441.501 209.486 441.066 209.922L437.058 213.935L433.049 209.922C432.614 209.486 431.909 209.486 431.474 209.922L427.466 213.935L423.457 209.922C423.022 209.486 422.317 209.486 421.882 209.922L417.874 213.935L413.865 209.922C413.43 209.486 412.725 209.486 412.291 209.922L408.282 213.935L404.273 209.922C403.838 209.486 403.134 209.486 402.699 209.922L398.69 213.935L394.681 209.922C394.246 209.486 393.542 209.486 393.107 209.922L389.098 213.935L385.089 209.922C384.654 209.486 383.95 209.486 383.515 209.922L379.506 213.935L375.497 209.922C375.062 209.486 374.358 209.486 373.923 209.922L369.914 213.935L365.905 209.922C365.471 209.486 364.766 209.486 364.331 209.922L360.322 213.935L356.314 209.922C355.879 209.486 355.174 209.486 354.739 209.922L350.73 213.935L346.722 209.922C346.287 209.486 345.582 209.486 345.147 209.922L341.138 213.935L337.13 209.922C336.695 209.486 335.99 209.486 335.555 209.922L331.546 213.935L327.538 209.922C327.103 209.486 326.398 209.486 325.963 209.922L321.955 213.935L317.946 209.922C317.511 209.486 316.806 209.486 316.371 209.922L312.363 213.935L308.354 209.922C307.919 209.486 307.214 209.486 306.779 209.922L302.771 213.935L298.762 209.922C298.327 209.486 297.622 209.486 297.188 209.922L292.053 215.062C291.618 215.497 291.618 216.203 292.053 216.638L297.188 221.779C297.622 222.214 298.327 222.214 298.762 221.779L302.771 217.766L306.779 221.779C307.214 222.214 307.919 222.214 308.354 221.779L312.363 217.766L316.371 221.779C316.806 222.214 317.511 222.214 317.946 221.779L321.955 217.766L325.963 221.779C326.398 222.214 327.103 222.214 327.538 221.779L331.546 217.766L335.555 221.779C335.99 222.214 336.695 222.214 337.13 221.779L341.138 217.766L345.147 221.779C345.582 222.214 346.287 222.214 346.722 221.779L350.73 217.766L354.739 221.779C355.174 222.214 355.879 222.214 356.314 221.779L360.322 217.766L364.331 221.779C364.766 222.214 365.471 222.214 365.905 221.779L369.914 217.766L373.923 221.779C374.358 222.214 375.062 222.214 375.497 221.779L379.506 217.766L383.515 221.779C383.95 222.214 384.654 222.214 385.089 221.779L389.098 217.766L393.107 221.779C393.542 222.214 394.246 222.214 394.681 221.779L398.69 217.766L402.699 221.779C403.134 222.214 403.838 222.214 404.273 221.779L408.282 217.766L412.291 221.779C412.725 222.214 413.43 222.214 413.865 221.779L417.874 217.766L421.882 221.779C422.317 222.214 423.022 222.214 423.457 221.779L427.466 217.766L431.474 221.779C431.909 222.214 432.614 222.214 433.049 221.779L437.058 217.766L441.066 221.779C441.501 222.214 442.206 222.214 442.641 221.779L446.65 217.766L450.658 221.779C451.093 222.214 451.798 222.214 452.233 221.779L457.368 216.638C457.802 216.204 457.802 215.497 457.368 215.062ZM300.021 216.639L298.765 217.896C298.33 218.332 297.625 218.332 297.191 217.896L295.934 216.639C295.5 216.204 295.5 215.498 295.934 215.063L297.191 213.805C297.625 213.37 298.33 213.37 298.765 213.805L300.021 215.063C300.456 215.497 300.456 216.204 300.021 216.639ZM309.613 216.639L308.357 217.896C307.922 218.332 307.217 218.332 306.783 217.896L305.526 216.639C305.092 216.204 305.092 215.498 305.526 215.063L306.783 213.805C307.217 213.37 307.922 213.37 308.357 213.805L309.613 215.063C310.048 215.497 310.048 216.204 309.613 216.639ZM319.204 216.639L317.948 217.896C317.513 218.332 316.809 218.332 316.374 217.896L315.118 216.639C314.683 216.204 314.683 215.498 315.118 215.063L316.374 213.805C316.809 213.37 317.513 213.37 317.948 213.805L319.204 215.063C319.639 215.497 319.639 216.204 319.204 216.639ZM328.796 216.639L327.54 217.896C327.105 218.332 326.401 218.332 325.966 217.896L324.71 216.639C324.275 216.204 324.275 215.498 324.71 215.063L325.966 213.805C326.401 213.37 327.105 213.37 327.54 213.805L328.796 215.063C329.231 215.497 329.231 216.204 328.796 216.639ZM338.388 216.639L337.132 217.896C336.697 218.332 335.993 218.332 335.558 217.896L334.302 216.639C333.867 216.204 333.867 215.498 334.302 215.063L335.558 213.805C335.993 213.37 336.697 213.37 337.132 213.805L338.388 215.063C338.823 215.497 338.823 216.204 338.388 216.639ZM347.98 216.639L346.723 217.896C346.289 218.332 345.584 218.332 345.149 217.896L343.893 216.639C343.458 216.204 343.458 215.498 343.893 215.063L345.149 213.805C345.584 213.37 346.289 213.37 346.723 213.805L347.98 215.063C348.414 215.497 348.414 216.204 347.98 216.639ZM357.571 216.639L356.315 217.896C355.88 218.332 355.176 218.332 354.741 217.896L353.485 216.639C353.05 216.204 353.05 215.498 353.485 215.063L354.741 213.805C355.176 213.37 355.88 213.37 356.315 213.805L357.571 215.063C358.006 215.497 358.006 216.204 357.571 216.639ZM367.163 216.639L365.907 217.896C365.472 218.332 364.768 218.332 364.333 217.896L363.077 216.639C362.642 216.204 362.642 215.498 363.077 215.063L364.333 213.805C364.768 213.37 365.472 213.37 365.907 213.805L367.163 215.063C367.598 215.497 367.598 216.204 367.163 216.639ZM376.755 216.639L375.499 217.896C375.064 218.332 374.359 218.332 373.924 217.896L372.668 216.639C372.233 216.204 372.233 215.498 372.668 215.063L373.924 213.805C374.359 213.37 375.064 213.37 375.499 213.805L376.755 215.063C377.19 215.497 377.19 216.204 376.755 216.639ZM386.347 216.639L385.09 217.896C384.656 218.332 383.951 218.332 383.516 217.896L382.26 216.639C381.825 216.204 381.825 215.498 382.26 215.063L383.516 213.805C383.951 213.37 384.656 213.37 385.09 213.805L386.347 215.063C386.781 215.497 386.781 216.204 386.347 216.639ZM395.938 216.639L394.682 217.896C394.247 218.332 393.542 218.332 393.107 217.896L391.851 216.639C391.416 216.204 391.416 215.498 391.851 215.063L393.107 213.805C393.542 213.37 394.247 213.37 394.682 213.805L395.938 215.063C396.373 215.497 396.373 216.204 395.938 216.639ZM405.53 216.639L404.274 217.896C403.839 218.332 403.134 218.332 402.699 217.896L401.443 216.639C401.008 216.204 401.008 215.498 401.443 215.063L402.699 213.805C403.134 213.37 403.839 213.37 404.274 213.805L405.53 215.063C405.965 215.497 405.965 216.204 405.53 216.639ZM415.122 216.639L413.866 217.896C413.431 218.332 412.726 218.332 412.291 217.896L411.035 216.639C410.6 216.204 410.6 215.498 411.035 215.063L412.291 213.805C412.726 213.37 413.431 213.37 413.866 213.805L415.122 215.063C415.557 215.497 415.557 216.204 415.122 216.639ZM424.713 216.639L423.457 217.896C423.022 218.332 422.317 218.332 421.882 217.896L420.626 216.639C420.192 216.204 420.192 215.498 420.626 215.063L421.882 213.805C422.317 213.37 423.022 213.37 423.457 213.805L424.713 215.063C425.148 215.497 425.148 216.204 424.713 216.639ZM434.305 216.639L433.049 217.896C432.614 218.332 431.909 218.332 431.474 217.896L430.218 216.639C429.783 216.204 429.783 215.498 430.218 215.063L431.474 213.805C431.909 213.37 432.614 213.37 433.049 213.805L434.305 215.063C434.74 215.497 434.74 216.204 434.305 216.639ZM443.897 216.639L442.641 217.896C442.206 218.332 441.501 218.332 441.066 217.896L439.81 216.639C439.375 216.204 439.375 215.498 439.81 215.063L441.066 213.805C441.501 213.37 442.206 213.37 442.641 213.805L443.897 215.063C444.331 215.497 444.331 216.204 443.897 216.639ZM453.488 216.639L452.232 217.896C451.797 218.332 451.092 218.332 450.658 217.896L449.402 216.639C448.967 216.204 448.967 215.498 449.402 215.063L450.658 213.805C451.092 213.37 451.797 213.37 452.232 213.805L453.488 215.063C453.923 215.497 453.923 216.204 453.488 216.639Z" fill="white" stroke="#FA2609" stroke-miterlimit="10" stroke-linecap="round" stroke-linejoin="round"/>
<path d="M295.043 229.337H291.203V276.935H295.043V229.337Z" fill="white" stroke="#FA2609" stroke-miterlimit="10" stroke-linecap="round" stroke-linejoin="round"/>
<path d="M296.748 215.062H289.5V262.659H296.748V215.062Z" fill="white" stroke="#FA2609" stroke-miterlimit="10" stroke-linecap="round" stroke-linejoin="round"/>
<path d="M294.733 288.818C298.136 287.961 300.201 284.504 299.345 281.096C298.489 277.689 295.035 275.622 291.632 276.479C288.228 277.336 286.163 280.793 287.019 284.201C287.876 287.608 291.329 289.675 294.733 288.818Z" fill="white" stroke="#FA2609" stroke-miterlimit="10" stroke-linecap="round" stroke-linejoin="round"/>
<path d="M293.179 286.704C295.422 286.704 297.24 284.883 297.24 282.638C297.24 280.392 295.422 278.572 293.179 278.572C290.936 278.572 289.117 280.392 289.117 282.638C289.117 284.883 290.936 286.704 293.179 286.704Z" fill="white" stroke="#FA2609" stroke-miterlimit="10" stroke-linecap="round" stroke-linejoin="round"/>
<path d="M289.5 274.89L292.127 282.7C292.298 283.169 292.744 283.482 293.243 283.482C293.753 283.482 294.207 283.156 294.369 282.671L297.009 274.813L289.5 274.89Z" fill="white" stroke="#FA2609" stroke-miterlimit="10" stroke-linecap="round" stroke-linejoin="round"/>
<path d="M142.113 229.337H138.273V276.935H142.113V229.337Z" fill="white" stroke="#FA2609" stroke-miterlimit="10" stroke-linecap="round" stroke-linejoin="round"/>
<path d="M143.819 215.062H136.57V262.659H143.819V215.062Z" fill="white" stroke="#FA2609" stroke-miterlimit="10" stroke-linecap="round" stroke-linejoin="round"/>
<path d="M141.714 288.808C145.13 288.001 147.245 284.574 146.439 281.155C145.632 277.736 142.209 275.618 138.794 276.426C135.378 277.233 133.263 280.66 134.07 284.079C134.876 287.498 138.299 289.616 141.714 288.808Z" fill="white" stroke="#FA2609" stroke-miterlimit="10" stroke-linecap="round" stroke-linejoin="round"/>
<path d="M140.249 286.704C142.492 286.704 144.31 284.883 144.31 282.638C144.31 280.392 142.492 278.572 140.249 278.572C138.006 278.572 136.188 280.392 136.188 282.638C136.188 284.883 138.006 286.704 140.249 286.704Z" fill="white" stroke="#FA2609" stroke-miterlimit="10" stroke-linecap="round" stroke-linejoin="round"/>
<path d="M136.57 274.89L139.197 282.7C139.368 283.169 139.814 283.482 140.313 283.482C140.824 283.482 141.277 283.156 141.44 282.671L144.079 274.813L136.57 274.89Z" fill="white" stroke="#FA2609" stroke-miterlimit="10" stroke-linecap="round" stroke-linejoin="round"/>
<path d="M448.925 229.337H445.086V276.935H448.925V229.337Z" fill="white" stroke="#FA2609" stroke-miterlimit="10" stroke-linecap="round" stroke-linejoin="round"/>
<path d="M450.631 215.062H443.383V262.659H450.631V215.062Z" fill="white" stroke="#FA2609" stroke-miterlimit="10" stroke-linecap="round" stroke-linejoin="round"/>
<path d="M452.577 285.798C454.325 282.752 453.274 278.863 450.231 277.113C447.187 275.364 443.303 276.415 441.555 279.462C439.808 282.509 440.858 286.397 443.901 288.147C446.945 289.897 450.829 288.845 452.577 285.798Z" fill="white" stroke="#FA2609" stroke-miterlimit="10" stroke-linecap="round" stroke-linejoin="round"/>
<path d="M447.061 286.704C449.305 286.704 451.123 284.883 451.123 282.638C451.123 280.392 449.305 278.572 447.061 278.572C444.818 278.572 443 280.392 443 282.638C443 284.883 444.818 286.704 447.061 286.704Z" fill="white" stroke="#FA2609" stroke-miterlimit="10" stroke-linecap="round" stroke-linejoin="round"/>
<path d="M443.383 274.89L446.01 282.7C446.181 283.169 446.627 283.482 447.126 283.482C447.636 283.482 448.09 283.156 448.252 282.671L450.892 274.813L443.383 274.89Z" fill="white" stroke="#FA2609" stroke-miterlimit="10" stroke-linecap="round" stroke-linejoin="round"/>
<path d="M256.055 274.495C256.055 274.495 256.195 287.097 256.18 287.737C256.165 288.378 258.239 290.987 259.091 291.007C259.944 291.026 275.279 292.017 278.691 292.095C282.102 292.173 285.309 291.82 285.75 291.189C286.191 290.558 286.216 289.491 285.605 288.196C284.994 286.901 277.373 284.379 276.341 282.86C275.309 281.342 269.675 275.875 269.689 275.234C269.704 274.594 271.313 269.506 271.313 269.506L269.467 266.261C269.467 266.261 270.147 255.173 269.963 253.888C269.779 252.602 272.639 230.033 273.212 223.64C273.784 217.247 274.325 184.162 274.325 184.162L229.322 183.988C229.322 183.988 228.903 211.738 229.305 212.815C229.707 213.892 228.271 230.087 227.965 234.138C227.66 238.188 229.962 277.531 229.962 277.531C229.962 277.531 229.468 280.509 229.439 281.79C229.409 283.071 230.368 287.79 230.368 287.79C230.368 287.79 229.593 293.751 230.213 294.619C230.833 295.488 234.97 301.134 237.96 300.989C240.949 300.844 242.887 300.034 243.149 297.904C243.411 295.775 244.734 293.883 244.817 290.255C244.9 286.627 244.091 284.687 244.11 283.833C244.13 282.979 244.842 279.792 245.322 277.454C245.802 275.116 245.677 271.27 245.677 271.27L248.684 232.903L252.81 211.003C252.81 211.003 254.271 231.108 254.029 232.384C253.787 233.66 251.397 244.923 251.348 247.057C251.3 249.19 256.055 274.495 256.055 274.495Z" fill="white" stroke="#FA2609" stroke-miterlimit="10" stroke-linecap="round" stroke-linejoin="round"/>
<path d="M286.321 159.419C286.321 159.419 284.97 162.812 284.27 164.071C283.571 165.33 283.356 165.929 282.686 165.914C282.016 165.899 275.159 163.728 273.792 161.952C272.424 160.176 273.208 158.113 273.208 158.113L284.24 153.599L286.321 159.419Z" fill="white" stroke="#FA2609" stroke-miterlimit="10" stroke-linecap="round" stroke-linejoin="round"/>
<path d="M245.188 102.723L232.154 110.132C232.154 110.132 229.581 111.973 228.152 114.579C226.722 117.186 225.203 119.051 225.142 126.334C225.081 133.617 226.814 187.176 227.544 187.509C228.274 187.843 268.762 188.029 269.198 187.405C269.634 186.782 270.417 184.794 270.734 184.801C271.05 184.809 271.218 186.713 271.84 187.149C272.463 187.585 275.419 187.442 275.649 186.602C275.879 185.763 273.78 143.702 273.78 143.702C273.78 143.702 273.315 122.473 271.505 118.631C269.694 114.789 262.83 110.622 262.83 110.622C262.83 110.622 254.547 103.887 245.188 102.723Z" fill="white" stroke="#FA2609" stroke-miterlimit="10" stroke-linecap="round" stroke-linejoin="round"/>
<path d="M235.651 145.185C231.152 145.004 227.625 144.7 225.547 144.49C225.609 146.563 225.677 148.72 225.749 150.918C231.561 150.977 248.479 151.044 258.912 150.006C267.346 149.168 271.865 148.069 273.96 147.421C273.847 145.114 273.776 143.701 273.776 143.701C273.776 143.701 273.755 142.774 273.708 141.285C271.476 141.43 267.913 141.686 265.716 141.973C262.33 142.416 257.659 142.309 257.659 142.309C257.659 142.309 257.008 130.986 253.086 120.758C249.165 110.53 243.797 106.768 241.733 106.201C241.097 106.027 240.449 105.876 239.856 105.752L235.844 108.033C237.541 108.035 239.835 108.456 242.293 110.113C247.28 113.477 249.733 119.771 250.856 127.466C251.979 135.16 252.548 144.401 252.548 144.401C252.548 144.401 243.045 145.484 235.651 145.185Z" fill="white" stroke="#FA2609" stroke-miterlimit="10" stroke-linecap="round" stroke-linejoin="round"/>
<path d="M252.633 110.685L259.93 121.439L265.425 135.487L264.365 121.846L262.828 110.621L259.885 109.045L252.633 110.685Z" fill="white" stroke="#FA2609" stroke-miterlimit="10" stroke-linecap="round" stroke-linejoin="round"/>
<path d="M257.195 112.498L259.358 114.764L260.167 120.906L265.423 135.487L264.363 121.846L261.049 114.592L262.06 111.871L260.469 109.441L257.195 112.498Z" fill="white" stroke="#FA2609" stroke-miterlimit="10" stroke-linecap="round" stroke-linejoin="round"/>
<path d="M247.452 99.4393C247.452 99.4393 249.451 96.8163 249.238 95.5177C249.025 94.2191 246.719 92.6295 245.818 89.6172C244.917 86.6043 245.468 80.1475 247.735 76.3984C250.001 72.6493 254.535 72.1869 254.535 72.1869C254.535 72.1869 259.341 70.437 262.461 71.802C265.58 73.1669 269.943 76.663 271.617 77.6718C273.29 78.6806 274.18 78.6198 273.739 80.2273C273.299 81.8347 271.344 82.5175 271.023 82.4297C270.703 82.3413 272.751 88.1301 272.489 89.0136C272.226 89.8972 271.081 90.5179 271.368 92.1419C271.653 93.766 273.289 96.4719 272.624 97.2652C271.96 98.0585 271.149 98.2021 271.149 98.2021C271.149 98.2021 269.001 103.814 267.916 105.326C266.832 106.837 263.059 105.781 263.059 105.781L260.472 109.441L247.452 99.4393Z" fill="white" stroke="#FA2609" stroke-miterlimit="10" stroke-linecap="round" stroke-linejoin="round"/>
<path d="M273.739 80.2273C274.18 78.6198 273.29 78.6806 271.617 77.6718C269.943 76.663 265.58 73.1669 262.461 71.802C259.341 70.437 254.535 72.1869 254.535 72.1869C254.535 72.1869 250.001 72.6493 247.735 76.3984C245.468 80.1475 244.917 86.6043 245.818 89.6172C246.719 92.6301 249.025 94.2191 249.238 95.5177C249.257 95.6387 249.253 95.7738 249.238 95.9144L249.548 96.0912C249.548 96.0912 252.104 93.8047 252.4 91.4659C252.695 89.1272 252.305 88.5525 254.011 88.1061C254.011 88.1061 255.879 87.6634 256.503 88.6483C257.127 89.6331 257.433 90.3675 257.835 90.4577C258.237 90.548 260.101 90.2668 260.353 89.8683C260.604 89.4698 260.23 88.1675 260.971 87.5369C261.712 86.907 264.065 86.4753 264.247 85.59C264.428 84.7046 261.955 83.3544 264.32 82.3566C266.686 81.3595 271.023 82.4291 271.023 82.4291C271.344 82.5175 273.298 81.8347 273.739 80.2273Z" fill="white" stroke="#FA2609" stroke-miterlimit="10" stroke-linecap="round" stroke-linejoin="round"/>
<path d="M256.229 90.0974C256.229 90.0974 255.322 87.3271 253.137 87.5199C250.952 87.7127 251.358 91.1185 251.969 92.6689C252.58 94.2192 254.404 95.7168 255.382 95.3349C256.36 94.953 256.623 94.0694 256.623 94.0694" fill="white"/>
<path d="M256.229 90.0974C256.229 90.0974 255.322 87.3271 253.137 87.5199C250.952 87.7127 251.358 91.1185 251.969 92.6689C252.58 94.2192 254.404 95.7168 255.382 95.3349C256.36 94.953 256.623 94.0694 256.623 94.0694" stroke="#FA2609" stroke-miterlimit="10" stroke-linecap="round" stroke-linejoin="round"/>
<path d="M268.791 91.3291C268.837 91.4469 268.868 91.6146 268.866 91.8135L268.853 92.0215C268.818 92.3115 268.726 92.5416 268.63 92.6797C268.611 92.7072 268.592 92.7264 268.578 92.7422C268.568 92.7236 268.555 92.7007 268.543 92.6699C268.498 92.5523 268.467 92.3844 268.469 92.1855L268.482 91.9766C268.517 91.6867 268.609 91.4565 268.705 91.3184C268.724 91.2912 268.742 91.2716 268.756 91.2559C268.766 91.2746 268.779 91.2979 268.791 91.3291Z" fill="white" stroke="#FA2609"/>
<path d="M267.547 89.5474C267.547 89.5474 269.408 89.4283 271.013 89.8691L267.547 89.5474Z" fill="white"/>
<path d="M267.547 89.5474C267.547 89.5474 269.408 89.4283 271.013 89.8691" stroke="#FA2609" stroke-miterlimit="10" stroke-linecap="round" stroke-linejoin="round"/>
<path d="M268.911 100.819C268.911 100.819 267.461 100.624 266.188 99.7861L268.911 100.819Z" fill="white"/>
<path d="M268.911 100.819C268.911 100.819 267.461 100.624 266.188 99.7861" stroke="#FA2609" stroke-miterlimit="10" stroke-linecap="round" stroke-linejoin="round"/>
<path d="M263.059 105.78C263.059 105.78 261.062 104.764 259.883 103.362L261.147 108.163L263.059 105.78Z" fill="white" stroke="#FA2609" stroke-miterlimit="10" stroke-linecap="round" stroke-linejoin="round"/>
<path d="M260.471 109.441L256.931 114.92L245.188 102.723L247.451 99.4395L260.471 109.441Z" fill="white" stroke="#FA2609" stroke-miterlimit="10" stroke-linecap="round" stroke-linejoin="round"/>
<path d="M260.469 109.441L263.274 114.115C263.274 114.115 263.217 112.002 262.826 110.621C262.436 109.24 261.144 108.163 261.144 108.163L260.469 109.441Z" fill="white" stroke="#FA2609" stroke-miterlimit="10" stroke-linecap="round" stroke-linejoin="round"/>
<path d="M272.418 139.27L278.583 143.333L279.587 142.6L272.974 138.408C272.735 138.257 272.418 138.328 272.267 138.568C272.118 138.804 272.185 139.116 272.418 139.27Z" fill="white" stroke="#FA2609" stroke-miterlimit="10" stroke-linecap="round" stroke-linejoin="round"/>
<path d="M272.992 146.288C272.992 146.288 276.216 142.522 277.214 142.079C278.212 141.637 285.946 141.464 286.52 141.768C287.095 142.072 286.9 142.999 286.89 143.406C286.881 143.813 286.635 144.389 286.635 144.389C286.635 144.389 286.712 148.638 286.575 149.565C286.438 150.493 285.547 151.345 285.077 151.568C284.607 151.789 283.029 152.161 283.029 152.161C283.029 152.161 280.561 153.326 278.396 153.975C276.231 154.624 273.167 153.914 273.167 153.914L272.992 146.288Z" fill="white" stroke="#FA2609" stroke-miterlimit="10" stroke-linecap="round" stroke-linejoin="round"/>
<path d="M269.344 146.03C269.517 146.092 272.598 146.046 272.999 146.288C273.4 146.53 273.158 154.612 273.029 155.191C272.899 155.77 269.819 155.757 269.819 155.757L269.344 146.03Z" fill="white" stroke="#FA2609" stroke-miterlimit="10" stroke-linecap="round" stroke-linejoin="round"/>
<path d="M234.986 110.83C234.986 110.83 231.577 112.335 229.606 115.562C227.634 118.79 224.944 125.801 226.445 129.319C227.947 132.836 231.17 144.099 231.572 144.953C231.974 145.807 234.917 155.48 237.195 157.327C239.473 159.174 263.492 160.144 265.914 160.305C268.336 160.466 269.721 159.864 269.721 159.864C269.721 159.864 270.447 146.475 269.928 146.146C269.408 145.818 259.485 146.33 257.063 146.169C254.641 146.008 250.141 144.533 250.141 144.533C250.141 144.533 249.956 143.368 249.559 142.303C249.161 141.239 248.033 139.841 247.942 139.205C247.851 138.57 250.482 134.196 245.558 123.527C240.634 112.858 238.469 110.698 234.986 110.83Z" fill="white" stroke="#FA2609" stroke-miterlimit="10" stroke-linecap="round" stroke-linejoin="round"/>
<path d="M285.309 159.598C285.309 159.598 283.047 161.761 282.167 162.144C281.286 162.527 280.032 161.693 279.878 159.608C279.724 157.524 279.751 156.317 280.305 155.591C280.857 154.865 285.309 159.598 285.309 159.598Z" fill="white" stroke="#FA2609" stroke-miterlimit="10" stroke-linecap="round" stroke-linejoin="round"/>
<path d="M299 142.713L258.672 159.54L272.043 160.28L310.411 143.698L299 142.713Z" fill="white" stroke="#FA2609" stroke-miterlimit="10" stroke-linecap="round" stroke-linejoin="round"/>
<path d="M292.75 154.17C292.75 154.17 294.851 152.312 294.411 151.272C293.972 150.231 291.938 149.154 291.463 149.659C290.988 150.163 291.44 150.689 291.741 151.004C292.043 151.321 292.192 151.53 292.192 151.53L290.973 153.099C290.973 153.099 286.428 151.553 286.065 151.647C285.703 151.742 284.875 151.929 285.16 152.966C285.16 152.966 283.407 153.08 283.185 153.797C282.963 154.514 282.963 154.513 282.963 154.513C282.963 154.513 281.212 154.577 280.935 155.395C280.658 156.212 282.462 158.418 282.462 158.418C282.462 158.418 283.617 159.681 284.017 160.205C284.416 160.73 287.048 160.429 288.097 159.577C289.146 158.725 290.247 157.823 291.204 156.505C292.161 155.188 292.75 154.17 292.75 154.17Z" fill="white" stroke="#FA2609" stroke-miterlimit="10" stroke-linecap="round" stroke-linejoin="round"/>
<path d="M290.977 153.1C290.977 153.1 291.837 153.738 292.295 153.954L290.977 153.1Z" fill="white"/>
<path d="M290.977 153.1C290.977 153.1 291.837 153.738 292.295 153.954" stroke="#FA2609" stroke-miterlimit="10" stroke-linecap="round" stroke-linejoin="round"/>
<path d="M285.164 152.967C285.164 152.967 288.698 155.985 289.921 156.527L285.164 152.967Z" fill="white"/>
<path d="M285.164 152.967C285.164 152.967 288.698 155.985 289.921 156.527" stroke="#FA2609" stroke-miterlimit="10" stroke-linecap="round" stroke-linejoin="round"/>
<path d="M282.961 154.514C282.961 154.514 285.327 156.835 286.743 157.949L282.961 154.514Z" fill="white"/>
<path d="M282.961 154.514C282.961 154.514 285.327 156.835 286.743 157.949" stroke="#FA2609" stroke-miterlimit="10" stroke-linecap="round" stroke-linejoin="round"/>
<path d="M280.938 155.395C280.938 155.395 283.395 158.233 284.608 159.188L280.938 155.395Z" fill="white"/>
<path d="M280.938 155.395C280.938 155.395 283.395 158.233 284.608 159.188" stroke="#FA2609" stroke-miterlimit="10" stroke-linecap="round" stroke-linejoin="round"/>
<path d="M226.409 169.061L274.909 167.247C274.819 165.292 274.727 163.314 274.635 161.378L226.164 162.804C226.244 164.947 226.327 167.046 226.409 169.061Z" fill="white" stroke="#FA2609" stroke-miterlimit="10" stroke-linecap="round" stroke-linejoin="round"/>
<path d="M270.18 122.352C272.205 128.123 273.503 136.975 273.503 136.975C273.503 136.975 273.509 136.8 273.519 136.504C273.219 129.968 272.615 120.999 271.499 118.631C270.476 116.461 267.842 114.188 265.742 112.62C266.498 113.942 268.558 117.727 270.18 122.352Z" fill="white" stroke="#FA2609" stroke-miterlimit="10" stroke-linecap="round" stroke-linejoin="round"/>
<path d="M147.631 16.7651H29.4062V21.0883H147.631V16.7651Z" fill="white" stroke="#FA2609" stroke-miterlimit="10" stroke-linecap="round" stroke-linejoin="round"/>
<path d="M147.631 18.7065H29.4062V23.0297H147.631V18.7065Z" fill="white" stroke="#FA2609" stroke-miterlimit="10" stroke-linecap="round" stroke-linejoin="round"/>
<path d="M35.1328 16.1481V1.91064" stroke="#FA2609" stroke-miterlimit="10" stroke-linecap="round" stroke-linejoin="round"/>
<path d="M87.9219 16.1481V1.91064" stroke="#FA2609" stroke-miterlimit="10" stroke-linecap="round" stroke-linejoin="round"/>
<path d="M143.086 16.1481V1.91064" stroke="#FA2609" stroke-miterlimit="10" stroke-linecap="round" stroke-linejoin="round"/>
<path d="M455.139 16.7651H336.914V21.0883H455.139V16.7651Z" fill="white" stroke="#FA2609" stroke-miterlimit="10" stroke-linecap="round" stroke-linejoin="round"/>
<path d="M455.139 18.7065H336.914V23.0297H455.139V18.7065Z" fill="white" stroke="#FA2609" stroke-miterlimit="10" stroke-linecap="round" stroke-linejoin="round"/>
<path d="M342.641 16.1481V1.91064" stroke="#FA2609" stroke-miterlimit="10" stroke-linecap="round" stroke-linejoin="round"/>
<path d="M395.43 16.1481V1.91064" stroke="#FA2609" stroke-miterlimit="10" stroke-linecap="round" stroke-linejoin="round"/>
<path d="M450.594 16.1481V1.91064" stroke="#FA2609" stroke-miterlimit="10" stroke-linecap="round" stroke-linejoin="round"/>
</svg>
