<svg width="460" height="460" viewBox="0 0 460 460" fill="none" xmlns="http://www.w3.org/2000/svg">
<g clip-path="url(#clip0_1391_54152)">
<path d="M340.465 360.34L240.01 276.288L110.461 347.093L210.91 434.806L340.465 360.34Z" fill="white" stroke="#FA2609" stroke-miterlimit="10" stroke-linecap="round" stroke-linejoin="round"/>
<path d="M442.889 120.032L361.852 166.942" stroke="#FA2609" stroke-miterlimit="10" stroke-linecap="round" stroke-linejoin="round"/>
<path d="M459.999 110.124L451.719 114.917" stroke="#FA2609" stroke-miterlimit="10" stroke-linecap="round" stroke-linejoin="round"/>
<path d="M313.633 178.212V57.8613L414.087 141.913V262.263L313.633 178.212Z" fill="white" stroke="#FA2609" stroke-miterlimit="10" stroke-linecap="round" stroke-linejoin="round"/>
<path d="M38.1172 106.453L96.8606 154.979" stroke="#FA2609" stroke-miterlimit="10" stroke-linecap="round" stroke-linejoin="round"/>
<path d="M24.8047 95.4565L31.2625 100.79" stroke="#FA2609" stroke-miterlimit="10" stroke-linecap="round" stroke-linejoin="round"/>
<path d="M183.62 56.2935V176.646L54.0703 247.45V127.098L183.62 56.2935Z" fill="white" stroke="#FA2609" stroke-miterlimit="10" stroke-linecap="round" stroke-linejoin="round"/>
<path d="M240.018 106.421L110.469 177.225V297.576L210.918 385.289L340.472 310.823V190.47L240.018 106.421Z" fill="white" stroke="#FA2609" stroke-miterlimit="10" stroke-linecap="round" stroke-linejoin="round" stroke-dasharray="3 3"/>
<path d="M110.469 177.225L210.918 264.938L338.439 191.105" fill="white"/>
<path d="M110.469 177.225L210.918 264.938L338.439 191.105" stroke="#FA2609" stroke-miterlimit="10" stroke-linecap="round" stroke-linejoin="round" stroke-dasharray="3 3"/>
<path d="M210.922 264.938V385.289" stroke="#FA2609" stroke-miterlimit="10" stroke-linecap="round" stroke-linejoin="round" stroke-dasharray="3 3"/>
<path d="M240.016 106.421V226.771L318.021 291.266" fill="white"/>
<path d="M240.016 106.421V226.771L318.021 291.266" stroke="#FA2609" stroke-miterlimit="10" stroke-linecap="round" stroke-linejoin="round" stroke-dasharray="3 3"/>
<path d="M240.021 226.771L127.906 287.44" stroke="#FA2609" stroke-miterlimit="10" stroke-linecap="round" stroke-linejoin="round" stroke-dasharray="3 3"/>
<path d="M49.375 221.084V341.437L149.824 429.15V308.797L49.375 221.084Z" fill="white" stroke="#FA2609" stroke-miterlimit="10" stroke-linecap="round" stroke-linejoin="round"/>
<path d="M6.71954 371.387L0 375.276" stroke="#FA2609" stroke-miterlimit="10" stroke-linecap="round" stroke-linejoin="round"/>
<path d="M85.1932 325.958L13.7812 367.294" stroke="#FA2609" stroke-miterlimit="10" stroke-linecap="round" stroke-linejoin="round"/>
<path d="M98.1648 318.458L91.3047 322.43" stroke="#FA2609" stroke-miterlimit="10" stroke-linecap="round" stroke-linejoin="round"/>
<path d="M266.305 444.513V324.162L395.859 249.694V370.047L266.305 444.513Z" fill="white" stroke="#FA2609" stroke-miterlimit="10" stroke-linecap="round" stroke-linejoin="round"/>
<path d="M409.203 410.826L416.684 417.034" stroke="#FA2609" stroke-miterlimit="10" stroke-linecap="round" stroke-linejoin="round"/>
<path d="M334.953 349.218L404.158 406.637" stroke="#FA2609" stroke-miterlimit="10" stroke-linecap="round" stroke-linejoin="round"/>
<path d="M340.472 126.247L240.018 42.1956L110.469 113L210.918 200.713L340.472 126.247Z" fill="white" stroke="#FA2609" stroke-miterlimit="10" stroke-linecap="round" stroke-linejoin="round"/>
<path d="M223.75 27.0365V14" stroke="#FA2609" stroke-miterlimit="10" stroke-linecap="round" stroke-linejoin="round"/>
<path d="M223.75 115.818V36.1863" stroke="#FA2609" stroke-miterlimit="10" stroke-linecap="round" stroke-linejoin="round"/>
</g>
<defs>
<clipPath id="clip0_1391_54152">
<rect width="460" height="460" fill="white"/>
</clipPath>
</defs>
</svg>
