<svg width="493" height="535" viewBox="0 0 493 535" fill="none" xmlns="http://www.w3.org/2000/svg">
<path d="M23.6183 197.038L23.6183 197.038L23.6182 197.036C23.6059 196.892 23.7122 196.762 23.8634 196.748C23.9997 196.739 24.1424 196.857 24.1543 196.995C24.1543 196.995 24.1543 196.995 24.1543 196.995L28.1699 245.251L28.17 245.252C28.1824 245.397 28.0751 245.528 27.9228 245.54L27.909 245.542L27.9011 245.542C27.8979 245.542 27.8988 245.542 27.9019 245.542C27.7639 245.542 27.6463 245.437 27.6339 245.294C27.6339 245.293 27.6339 245.293 27.6339 245.293L23.6183 197.038Z" fill="white" stroke="#FA2609"/>
<path d="M28.798 259.349L28.7979 259.348C28.7855 259.203 28.8929 259.072 29.0451 259.059L29.0559 259.058L29.0666 259.057C29.1695 259.044 29.3207 259.141 29.3338 259.304L29.3338 259.304L29.334 259.305L30.5502 273.913L30.5503 273.914C30.5627 274.059 30.4554 274.19 30.3031 274.203L30.3031 274.203L30.3002 274.203L30.2827 274.205C30.2819 274.205 30.2812 274.205 30.2808 274.205C30.1434 274.204 30.0266 274.1 30.0142 273.956C30.0142 273.956 30.0142 273.956 30.0142 273.956L28.798 259.349Z" fill="white" stroke="#FA2609"/>
<path d="M436.855 411.52H63.709C54.4501 411.52 46.2274 403.932 45.4555 394.667L24.441 142.065C24.441 142.065 24.441 142.065 24.441 142.065C23.6736 132.834 30.586 125.295 39.8138 125.295H412.96C422.219 125.295 430.441 132.884 431.213 142.148L452.229 394.75C452.997 403.981 446.083 411.52 436.855 411.52Z" fill="white" stroke="#FA2609"/>
<path d="M23.726 142.127L23.726 142.127C23.3342 137.44 24.811 133.035 27.8698 129.71C30.9143 126.401 35.1526 124.574 39.8163 124.574H412.964C422.611 124.574 431.13 132.437 431.933 142.089L452.949 394.689L453.448 394.647L452.949 394.689C453.341 399.375 451.864 403.779 448.806 407.102L449.173 407.44L448.806 407.102C445.759 410.413 441.521 412.241 436.857 412.241H63.7115C54.0621 412.241 45.5431 404.38 44.7405 394.729L23.726 142.127ZM24.1662 142.09L24.1662 142.09L45.1807 394.69L45.6789 394.649L45.1807 394.69C45.9666 404.129 54.2711 411.797 63.7133 411.797H436.859C441.385 411.797 445.516 410.028 448.482 406.805L448.114 406.466L448.482 406.805C451.462 403.565 452.889 399.273 452.511 394.727L431.495 142.127L430.996 142.168L431.495 142.127C430.709 132.688 422.406 125.018 412.966 125.018H39.8163C35.2926 125.018 31.1614 126.788 28.1965 130.01C25.215 133.248 23.7883 137.543 24.1662 142.09Z" fill="white" stroke="#FA2609"/>
<path d="M39.8138 125.297H412.96C422.038 125.297 430.119 132.592 431.158 141.609H24.4091C23.9038 132.586 30.7409 125.297 39.8138 125.297Z" fill="white" stroke="#FA2609"/>
<path d="M48.0526 133.493C48.2002 135.266 46.8957 136.686 45.128 136.686C43.3275 136.686 41.7319 135.215 41.5817 133.41C41.4341 131.638 42.7386 130.218 44.5063 130.218C46.3069 130.218 47.9024 131.689 48.0526 133.493Z" fill="white" stroke="#FA2609"/>
<path d="M63.2305 133.493C63.3781 135.266 62.0736 136.686 60.3059 136.686C58.5056 136.686 56.9117 135.215 56.7614 133.41C56.6138 131.638 57.9183 130.218 59.686 130.218C61.4863 130.218 63.0803 131.689 63.2305 133.493Z" fill="white" stroke="#FA2609"/>
<path d="M71.9411 133.411L71.9411 133.41C71.7935 131.638 73.098 130.218 74.8657 130.218C76.666 130.218 78.2599 131.689 78.4102 133.493C78.5578 135.266 77.2533 136.686 75.4856 136.686C73.685 136.686 72.0897 135.215 71.9411 133.411Z" fill="white" stroke="#FA2609"/>
<path d="M416.593 365.198L417.092 365.157L416.593 365.198C417.2 372.477 411.752 378.417 404.477 378.417H90.5886C83.2815 378.417 76.7901 372.426 76.1809 365.115L61.5225 188.93C61.5225 188.93 61.5225 188.93 61.5225 188.93C60.9176 181.651 66.3661 175.712 73.6404 175.712H387.527C394.834 175.712 401.326 181.702 401.935 189.013L416.593 365.198Z" fill="white" stroke="#FA2609"/>
<path opacity="0.1" d="M210.544 323.458L307.787 206.38C321.018 190.452 346.47 194.461 354.159 213.687L354.624 213.501L354.16 213.687L414.638 364.876C422.767 385.195 404.893 406.345 383.504 401.718L225.782 367.607C205.743 363.273 197.445 339.23 210.544 323.458Z" fill="white" stroke="#FA2609"/>
<path opacity="0.1" d="M57.565 313.854L57.0963 313.68L57.565 313.854L91.4343 222.65C96.0573 210.202 112.499 207.566 120.783 217.945C120.783 217.945 120.783 217.945 120.783 217.945L185.819 299.451C194.263 310.034 187.615 325.765 174.141 327.087L75.2336 336.786C62.6814 338.017 53.1738 325.677 57.565 313.854Z" fill="white" stroke="#FA2609"/>
<path d="M250.454 308.861L341.36 176.867C353.805 158.798 381.086 160.77 390.802 180.437L467.002 334.672C477.189 355.291 460.238 378.931 437.44 375.897L270.335 353.657C249.065 350.827 238.283 326.534 250.454 308.861Z" fill="white" stroke="#FA2609"/>
<path d="M457.153 341.839L457.601 341.618L457.153 341.839C459.852 347.301 459.53 353.319 456.335 357.959C453.143 362.592 447.73 364.905 441.829 364.121L274.304 341.825C268.396 341.04 263.254 337.312 260.556 331.85C257.858 326.389 258.179 320.37 261.372 315.731L352.507 183.404C352.507 183.404 352.507 183.404 352.507 183.404C355.699 178.77 361.112 176.457 367.013 177.242C372.922 178.029 378.063 181.754 380.762 187.216L381.21 186.995L380.762 187.216L457.153 341.839Z" fill="white" stroke="#FA2609"/>
<path d="M369.892 225.435L369.892 225.435C376.486 226.312 381.557 232.318 381.222 238.818L381.222 238.818L380.508 252.702L380.508 252.702C380.484 253.19 380.427 253.673 380.342 254.148L372.77 295.985C371.728 301.738 366.476 305.473 360.478 304.676C354.447 303.873 349.59 298.739 349.163 292.729C349.162 292.729 349.162 292.729 349.162 292.729L346.092 249.493L346.092 249.492C346.057 249.013 346.054 248.533 346.078 248.056C346.078 248.056 346.078 248.056 346.078 248.056L346.792 234.157C346.792 234.157 346.792 234.157 346.792 234.156C347.125 227.688 352.685 223.144 359.25 224.018C359.25 224.018 359.25 224.018 359.25 224.018L369.892 225.435ZM358.4 317.199L361.303 317.585C367.175 318.367 371.688 323.715 371.391 329.502C371.096 335.254 366.15 339.296 360.307 338.52C360.307 338.52 360.307 338.52 360.307 338.52L357.404 338.133C351.532 337.351 347.019 332.003 347.316 326.217C347.613 320.464 352.559 316.421 358.4 317.199Z" fill="white" stroke="#FA2609"/>
<path d="M101.447 291.538L100.964 291.411L101.447 291.538L126.407 196.887C129.816 183.955 146.096 179.789 155.3 189.491C155.3 189.491 155.3 189.491 155.3 189.491L227.156 265.252C236.423 275.023 231.257 291.175 218.04 293.754L121.223 312.645C108.864 315.057 98.2357 303.715 101.447 291.538Z" fill="white" stroke="#FA2609"/>
<path d="M109.098 292.397L109.098 292.397L134.121 197.507L134.121 197.507C134.979 194.253 137.471 191.927 140.807 191.277L140.807 191.277C144.148 190.625 147.642 191.793 150.144 194.432L150.144 194.432L222.182 270.385C224.685 273.025 225.646 276.549 224.785 279.811L224.785 279.811C223.927 283.065 221.435 285.39 218.101 286.041L218.196 286.531L218.101 286.041L121.038 304.979C117.697 305.63 114.203 304.462 111.701 301.824L111.338 302.168L111.701 301.824C109.197 299.183 108.237 295.659 109.098 292.397Z" fill="white" stroke="#FA2609"/>
<path d="M145.498 220.147L145.498 220.147L151.664 218.944C151.664 218.944 151.664 218.944 151.664 218.944C155.359 218.223 159.232 220.691 160.274 224.481L160.275 224.481L162.55 232.745C162.55 232.745 162.55 232.745 162.55 232.745C162.628 233.03 162.689 233.316 162.731 233.602L162.731 233.602L166.582 259.547C167.099 263.032 164.962 266.11 161.615 266.763C158.236 267.423 154.646 265.411 153.283 262.045L143.267 237.315C143.267 237.314 143.267 237.314 143.267 237.314C143.158 237.043 143.065 236.771 142.989 236.494L142.989 236.494L140.712 228.219C140.712 228.219 140.712 228.219 140.712 228.219C139.677 224.455 141.836 220.862 145.498 220.147ZM162.947 274.874L162.947 274.874L164.629 274.545C164.629 274.545 164.63 274.545 164.63 274.545C167.907 273.906 171.344 276.095 172.271 279.461C173.191 282.803 171.275 285.984 168.031 286.617L168.03 286.617L166.35 286.946C166.35 286.946 166.35 286.946 166.35 286.946C163.073 287.585 159.635 285.396 158.709 282.031L158.708 282.03C157.787 278.688 159.702 275.507 162.947 274.874Z" fill="white" stroke="#FA2609"/>
</svg>
