<svg width="25" height="25" viewBox="0 0 25 25" fill="none" xmlns="http://www.w3.org/2000/svg">
<path d="M12.2217 6.5C12.4207 6.5 12.6114 6.57902 12.7521 6.71967C12.8927 6.86032 12.9717 7.05109 12.9717 7.25V11.75H17.4717C17.6707 11.75 17.8614 11.829 18.0021 11.9697C18.1427 12.1103 18.2217 12.3011 18.2217 12.5C18.2217 12.6989 18.1427 12.8897 18.0021 13.0303C17.8614 13.171 17.6707 13.25 17.4717 13.25H12.9717V17.75C12.9717 17.9489 12.8927 18.1397 12.7521 18.2803C12.6114 18.421 12.4207 18.5 12.2217 18.5C12.0228 18.5 11.8321 18.421 11.6914 18.2803C11.5508 18.1397 11.4717 17.9489 11.4717 17.75V13.25H6.97174C6.77283 13.25 6.58206 13.171 6.44141 13.0303C6.30076 12.8897 6.22174 12.6989 6.22174 12.5C6.22174 12.3011 6.30076 12.1103 6.44141 11.9697C6.58206 11.829 6.77283 11.75 6.97174 11.75H11.4717V7.25C11.4717 7.05109 11.5508 6.86032 11.6914 6.71967C11.8321 6.57902 12.0228 6.5 12.2217 6.5Z" fill="white"/>
</svg>
