<svg width="462" height="375" viewBox="0 0 462 375" fill="none" xmlns="http://www.w3.org/2000/svg">
<g opacity="0.5">
<path d="M351.42 131.696C355.062 132.712 358.643 133.774 362.16 134.882V162.891C358.643 161.784 355.062 160.722 351.42 159.705V131.696Z" fill="white"/>
<path opacity="0.5" d="M326.536 132.867C330.432 133.672 334.274 134.527 338.058 135.431V156.252C334.273 155.349 330.432 154.494 326.536 153.689V132.867Z" fill="white"/>
<path d="M300.086 110.061C304.204 110.639 308.274 111.269 312.294 111.952V151.011C308.273 150.329 304.203 149.698 300.086 149.12V110.061Z" fill="white"/>
<path opacity="0.5" d="M272.272 85.4436C276.58 85.7775 280.849 86.1697 285.075 86.6165V147.274C280.849 146.827 276.58 146.435 272.272 146.101V85.4436Z" fill="white"/>
<path opacity="0.5" d="M243.276 98.4648C247.754 98.5401 252.2 98.6761 256.609 98.8704V145.148C252.2 144.953 247.754 144.817 243.276 144.741V98.4648Z" fill="white"/>
<path d="M214.004 50.0235C218.375 49.8329 222.78 49.7005 227.214 49.6289V144.739C222.779 144.81 218.375 144.943 214.004 145.133V50.0235Z" fill="white"/>
<path d="M185.692 69.6088C189.899 69.1668 194.146 68.7807 198.431 68.4517V146.071C194.146 146.4 189.898 146.786 185.692 147.228V69.6088Z" fill="white"/>
<path d="M158.57 44.2681C162.58 43.5918 166.638 42.9664 170.743 42.3945V149.052C166.639 149.624 162.58 150.249 158.57 150.925V44.2681Z" fill="white"/>
</g>
<g opacity="0.11">
<path d="M221.489 246.005C224.156 244.343 227.444 244.342 230.112 246L281.506 277.942C282.315 278.445 282.315 279.706 281.506 280.21L229.684 312.491C227.33 313.958 224.429 313.958 222.074 312.491L170.172 280.24C169.363 279.736 169.363 278.476 170.172 277.972L221.489 246.005Z" fill="url(#paint0_linear_283_29942)"/>
</g>
<g opacity="0.11">
<path d="M221.489 236.663C224.156 235.002 227.444 234.999 230.112 236.658L281.506 268.599C282.315 269.103 282.315 270.364 281.506 270.867L229.684 303.149C227.33 304.616 224.429 304.616 222.074 303.149L170.172 270.898C169.363 270.394 169.363 269.134 170.172 268.63L221.489 236.663Z" fill="url(#paint1_linear_283_29942)"/>
</g>
<g opacity="0.11">
<path d="M221.489 227.322C224.156 225.66 227.444 225.659 230.112 227.317L281.506 259.257C282.315 259.761 282.315 261.021 281.506 261.525L229.684 293.808C227.33 295.275 224.429 295.275 222.074 293.808L170.172 261.557C169.363 261.053 169.363 259.793 170.172 259.289L221.489 227.322Z" fill="url(#paint2_linear_283_29942)"/>
</g>
<g opacity="0.11">
<path d="M221.489 217.981C224.156 216.319 227.444 216.317 230.112 217.976L281.506 249.916C282.315 250.42 282.315 251.68 281.506 252.184L229.684 284.466C227.33 285.932 224.429 285.932 222.074 284.466L170.172 252.215C169.363 251.711 169.363 250.45 170.172 249.947L221.489 217.981Z" fill="url(#paint3_linear_283_29942)"/>
</g>
<path opacity="0.11" d="M170.172 249.947L221.489 217.98C224.156 216.317 227.443 216.316 230.112 217.975L281.506 249.915C281.91 250.166 282.113 250.608 282.113 251.049V279.073C282.113 279.514 281.91 279.955 281.506 280.207L229.684 312.489C227.33 313.955 224.428 313.955 222.074 312.489L170.172 280.238C169.768 279.986 169.565 279.544 169.565 279.104V251.079C169.564 250.64 169.767 250.199 170.172 249.947Z" fill="url(#paint4_linear_283_29942)"/>
<g opacity="0.11">
<path d="M220.564 195.075C223.798 193.06 227.783 193.058 231.02 195.069L293.338 233.799C294.32 234.409 294.32 235.937 293.338 236.549L230.501 275.692C227.646 277.471 224.129 277.471 221.274 275.692L158.34 236.585C157.358 235.975 157.358 234.447 158.34 233.835L220.564 195.075Z" fill="url(#paint5_linear_283_29942)"/>
</g>
<g opacity="0.11">
<path d="M220.564 183.749C223.798 181.733 227.783 181.732 231.02 183.742L293.338 222.472C294.32 223.083 294.32 224.612 293.338 225.223L230.501 264.366C227.646 266.144 224.129 266.144 221.274 264.366L158.34 225.259C157.358 224.648 157.358 223.12 158.34 222.509L220.564 183.749Z" fill="url(#paint6_linear_283_29942)"/>
</g>
<g opacity="0.11">
<path d="M220.564 172.422C223.798 170.406 227.783 170.405 231.02 172.416L293.338 211.146C294.32 211.757 294.32 213.284 293.338 213.896L230.501 253.039C227.646 254.818 224.129 254.818 221.274 253.039L158.34 213.933C157.358 213.322 157.358 211.794 158.34 211.182L220.564 172.422Z" fill="url(#paint7_linear_283_29942)"/>
</g>
<g opacity="0.11">
<path d="M220.564 161.095C223.798 159.079 227.783 159.078 231.02 161.089L293.338 199.819C294.32 200.429 294.32 201.958 293.338 202.569L230.501 241.712C227.646 243.491 224.129 243.491 221.274 241.712L158.34 202.605C157.358 201.995 157.358 200.466 158.34 199.855L220.564 161.095Z" fill="url(#paint8_linear_283_29942)"/>
</g>
<path opacity="0.5" d="M158.338 199.856L220.564 161.095C223.798 159.079 227.783 159.078 231.02 161.089L293.338 199.819C293.829 200.125 294.074 200.659 294.074 201.193V235.174C294.074 235.709 293.829 236.244 293.338 236.549L230.501 275.692C227.646 277.471 224.129 277.471 221.274 275.692L158.34 236.585C157.849 236.279 157.604 235.745 157.604 235.211V201.231C157.604 200.697 157.849 200.161 158.338 199.856Z" fill="url(#paint9_linear_283_29942)"/>
<g opacity="0.11">
<path d="M220.564 161.095C223.798 159.079 227.783 159.078 231.02 161.089L293.338 199.819C294.32 200.429 294.32 201.958 293.338 202.569L230.501 241.712C227.646 243.491 224.129 243.491 221.274 241.712L158.34 202.605C157.358 201.995 157.358 200.466 158.34 199.855L220.564 161.095Z" fill="url(#paint10_linear_283_29942)"/>
</g>
<path d="M158.339 201.041L221.273 240.148C224.128 241.927 227.645 241.927 230.5 240.148L293.337 201.005C293.579 200.854 293.761 200.647 293.883 200.412C294.258 201.129 294.077 202.109 293.337 202.57L230.5 241.713C227.645 243.492 224.128 243.492 221.273 241.713L158.339 202.606C157.599 202.146 157.418 201.166 157.793 200.449C157.917 200.683 158.097 200.891 158.339 201.041Z" fill="url(#paint11_linear_283_29942)"/>
<path opacity="0.2" d="M225.838 222.686C244.787 222.686 260.148 213.117 260.148 201.313C260.148 189.51 244.787 179.941 225.838 179.941C206.889 179.941 191.528 189.51 191.528 201.313C191.528 213.117 206.889 222.686 225.838 222.686Z" fill="#8B1100"/>
<path d="M185.304 165.991C180.893 170.851 169.278 177.347 165.678 173.543C162.078 169.739 167.855 157.074 172.267 152.214C176.678 147.354 183.173 146.499 186.773 150.303C190.373 154.107 189.716 161.13 185.304 165.991Z" fill="url(#paint12_radial_283_29942)"/>
<path d="M185.304 165.991C180.893 170.851 169.278 177.347 165.678 173.543C162.078 169.739 167.855 157.074 172.267 152.214C176.678 147.354 183.173 146.499 186.773 150.303C190.373 154.107 189.716 161.13 185.304 165.991Z" fill="url(#paint13_linear_283_29942)"/>
<path d="M185.819 152.8C185.547 152.8 185.269 152.743 185.002 152.622C183.922 152.135 183.412 150.795 183.864 149.629L190.416 132.737C190.869 131.573 192.11 131.021 193.19 131.509C194.271 131.996 194.781 133.337 194.328 134.502L187.777 151.394C187.436 152.27 186.648 152.8 185.819 152.8Z" fill="white"/>
<path d="M269.073 146.617L265.144 148.333L278.724 184.534L282.654 182.818L269.073 146.617Z" fill="white"/>
<path d="M196.696 139.184C203.973 139.184 209.871 132.82 209.871 124.97C209.871 117.119 203.973 110.755 196.696 110.755C189.42 110.755 183.521 117.119 183.521 124.97C183.521 132.82 189.42 139.184 196.696 139.184Z" fill="url(#paint14_radial_283_29942)"/>
<path d="M196.696 139.184C203.973 139.184 209.871 132.82 209.871 124.97C209.871 117.119 203.973 110.755 196.696 110.755C189.42 110.755 183.521 117.119 183.521 124.97C183.521 132.82 189.42 139.184 196.696 139.184Z" fill="url(#paint15_linear_283_29942)"/>
<path d="M262.396 150.781C262.396 178.375 247.167 200.742 228.38 200.742C209.594 200.742 194.364 178.373 194.364 150.781C194.364 123.189 209.594 114.921 228.38 114.921C247.168 114.921 262.396 123.189 262.396 150.781Z" fill="url(#paint16_radial_283_29942)"/>
<path d="M262.396 150.781C262.396 178.375 247.167 200.742 228.38 200.742C209.594 200.742 194.364 178.373 194.364 150.781C194.364 123.189 209.594 114.921 228.38 114.921C247.168 114.921 262.396 123.189 262.396 150.781Z" fill="url(#paint17_linear_283_29942)"/>
<path d="M228.382 144.216C241.203 144.216 251.596 137.742 251.596 129.755C251.596 121.768 241.203 115.293 228.382 115.293C215.561 115.293 205.167 121.768 205.167 129.755C205.167 137.742 215.561 144.216 228.382 144.216Z" fill="white"/>
<path d="M211.966 123.381C221.032 117.734 235.731 117.734 244.797 123.381C248.542 125.714 250.736 128.646 251.386 131.681C252.311 127.368 250.118 122.844 244.797 119.529C235.731 113.881 221.032 113.881 211.966 119.529C206.645 122.844 204.452 127.367 205.377 131.681C206.028 128.646 208.222 125.714 211.966 123.381Z" fill="white" fill-opacity="0.3"/>
<path d="M201.584 95.3911L205.784 87.5837C208.254 84.8189 210.229 81.1471 211.232 77.4571L215.485 69.5501L209.368 65.7605C209.172 65.6172 208.967 65.4897 208.754 65.3804L208.75 65.378C207.01 64.4892 204.7 64.7272 202.162 66.3081C196.755 69.6763 192.37 77.8687 192.37 84.6064C192.37 87.9734 193.465 90.3387 195.235 91.4437L195.239 91.4449L201.584 95.3911Z" fill="white"/>
<path d="M215.376 86.7363C219.2 79.591 219.2 71.8675 215.376 69.4856C211.552 67.1036 205.353 70.9651 201.529 78.1105C197.705 85.2559 197.705 92.9793 201.529 95.3613C205.353 97.7432 211.552 93.8817 215.376 86.7363Z" fill="#BCBEFF"/>
<path d="M229.732 132.669C248.892 132.669 264.424 115.911 264.424 95.2382C264.424 74.5657 248.892 57.8074 229.732 57.8074C210.571 57.8074 195.039 74.5657 195.039 95.2382C195.039 115.911 210.571 132.669 229.732 132.669Z" fill="url(#paint18_radial_283_29942)"/>
<path d="M229.732 132.669C248.892 132.669 264.424 115.911 264.424 95.2382C264.424 74.5657 248.892 57.8074 229.732 57.8074C210.571 57.8074 195.039 74.5657 195.039 95.2382C195.039 115.911 210.571 132.669 229.732 132.669Z" fill="url(#paint19_linear_283_29942)"/>
<path d="M249.145 120.553L253.345 112.746C255.815 109.981 257.791 106.309 258.793 102.619L263.046 94.7124L256.93 90.9228C256.734 90.7796 256.529 90.6521 256.315 90.5428L256.312 90.5404C254.572 89.6515 252.26 89.8895 249.724 91.4705C244.316 94.8387 239.932 103.031 239.932 109.769C239.932 113.136 241.027 115.501 242.797 116.606L242.8 116.607L249.145 120.553Z" fill="white"/>
<path d="M262.934 111.898C266.758 104.753 266.758 97.0294 262.934 94.6474C259.111 92.2655 252.911 96.127 249.087 103.272C245.264 110.418 245.264 118.141 249.088 120.523C252.911 122.905 259.111 119.044 262.934 111.898Z" fill="white" fill-opacity="0.4"/>
<path d="M246.68 113.772C246.68 107.035 251.064 98.8431 256.473 95.4736C258.346 94.3067 260.096 93.8733 261.585 94.0833C260.005 93.7057 258.09 94.1003 256.024 95.3874C250.616 98.7556 246.231 106.948 246.231 113.686C246.231 118.088 248.104 120.779 250.911 121.175C248.356 120.565 246.68 117.935 246.68 113.772Z" fill="white"/>
<path d="M260.961 110.67C263.694 105.563 263.694 100.042 260.961 98.3392C258.228 96.6366 253.796 99.3968 251.063 104.504C248.33 109.612 248.33 115.133 251.063 116.835C253.796 118.538 258.228 115.778 260.961 110.67Z" fill="white"/>
<path d="M260.044 97.947C260.769 98.8686 261.191 100.248 261.191 102.013C261.191 106.829 258.058 112.685 254.192 115.093C252.695 116.026 251.309 116.301 250.171 116.013C251.421 117.605 253.575 117.831 256.023 116.306C259.889 113.898 263.022 108.042 263.022 103.226C263.023 100.276 261.845 98.4024 260.044 97.947Z" fill="white"/>
<path d="M218.907 112.968C218.021 120.329 212.872 122.641 207.407 118.132C201.941 113.624 198.229 104.001 199.116 96.6406C200.003 89.28 205.152 86.9669 210.617 91.4765C216.082 95.9849 219.794 105.606 218.907 112.968Z" fill="#FA2609" fill-opacity="0.7"/>
<path d="M214.393 106.595C214.071 109.27 212.2 110.11 210.214 108.472C208.227 106.834 206.878 103.337 207.2 100.661C207.522 97.9859 209.393 97.1456 211.379 98.7836C213.367 100.423 214.716 103.92 214.393 106.595Z" fill="white"/>
<path d="M210.031 117.059C204.565 112.551 200.854 102.928 201.74 95.5676C202.101 92.5672 203.171 90.4059 204.682 89.2026C201.825 89.4928 199.662 92.1071 199.116 96.6397C198.229 104 201.942 113.623 207.407 118.131C210.645 120.803 213.77 121.078 215.966 119.331C214.183 119.513 212.13 118.792 210.031 117.059Z" fill="white" fill-opacity="0.4"/>
<path d="M207.877 117.893C202.413 113.385 198.7 103.762 199.587 96.4014C199.997 92.9943 201.322 90.6715 203.168 89.6042C201.077 90.5319 199.561 92.9506 199.116 96.6407C198.229 104.001 201.942 113.624 207.407 118.132C210.341 120.554 213.181 121 215.323 119.764C213.244 120.686 210.601 120.139 207.877 117.893Z" fill="white"/>
<path d="M280.01 150.238C278.596 157.938 271.665 162.946 264.528 161.42C257.39 159.895 252.749 152.417 254.163 144.715C255.576 137.015 262.507 132.007 269.645 133.532C276.782 135.057 281.422 142.536 280.01 150.238Z" fill="url(#paint20_radial_283_29942)"/>
<path d="M280.01 150.238C278.596 157.938 271.665 162.946 264.528 161.42C257.39 159.895 252.749 152.417 254.163 144.715C255.576 137.015 262.507 132.007 269.645 133.532C276.782 135.057 281.422 142.536 280.01 150.238Z" fill="url(#paint21_linear_283_29942)"/>
<path d="M288.097 194.572C287.35 201.327 281.821 214.12 276.818 213.475C271.814 212.831 269.23 198.993 269.976 192.239C270.724 185.484 275.385 180.531 280.39 181.175C285.393 181.821 288.845 187.818 288.097 194.572Z" fill="url(#paint22_radial_283_29942)"/>
<path d="M288.097 194.572C287.35 201.327 281.821 214.12 276.818 213.475C271.814 212.831 269.23 198.993 269.976 192.239C270.724 185.484 275.385 180.531 280.39 181.175C285.393 181.821 288.845 187.818 288.097 194.572Z" fill="url(#paint23_linear_283_29942)"/>
<g opacity="0.5">
<path opacity="0.502" d="M76.5628 68.1967C110.456 57.1862 130.628 98.6214 110.821 138.571C94.0131 172.472 53.041 196.96 42.325 161.353C36.0216 140.406 41.2435 89.0704 73.3082 69.7011C64.6674 74.5216 58.3258 81.3407 52.1024 92.5006C63.928 108.199 64.8936 109.481 75.1009 122.152C87.1899 91.3337 88.178 88.8166 97.1181 67.9721C90.1373 65.3542 83.9893 65.4222 76.5628 68.1967ZM74.1848 69.2555C73.9282 69.383 73.6717 69.5117 73.4173 69.6453C73.6717 69.5117 73.9271 69.383 74.1848 69.2555Z" fill="white"/>
<path d="M19.252 107.491C21.2338 105.249 23.3563 103.044 25.6149 100.877V207.535C23.3563 209.7 21.2338 211.906 19.252 214.148V107.491Z" fill="white"/>
<path d="M9.0918 158.894C10.4884 156.508 12.0381 154.154 13.7352 151.833V220.986C12.0381 223.305 10.4884 225.659 9.0918 228.046V158.894Z" fill="white"/>
<path opacity="0.502" d="M0 239.283L0.103539 239.53L0.226208 232.526L0 232.154V239.283ZM0 259.911V153.254C0 152.571 0.0123847 151.888 0.0371433 151.203C0.210454 146.332 0.999346 141.537 2.36557 136.834V243.491C0.999346 248.193 0.210454 252.989 0.0371433 257.86C0.0123847 258.545 0 259.23 0 259.911Z" fill="white"/>
<path d="M0 239.283L0.103539 239.532L0.225084 232.526L0 232.154V239.283Z" fill="#42E8E0"/>
<path d="M73.4168 69.6439C73.3808 69.6621 73.3436 69.6815 73.3076 69.701C73.3436 69.6827 73.3796 69.6633 73.4168 69.6439ZM76.4756 68.233C76.5048 68.222 76.533 68.2099 76.5611 68.1978C76.5341 68.2099 76.5048 68.2208 76.4756 68.233ZM75.7486 68.5353C75.7542 68.5329 75.7621 68.5292 75.7688 68.5268C75.7745 68.5244 75.7823 68.5207 75.7891 68.5183C75.7947 68.5159 75.8026 68.5122 75.8094 68.5098C75.815 68.5074 75.8229 68.5037 75.8296 68.5013C75.8364 68.4989 75.8442 68.4952 75.8499 68.4928C75.8555 68.4904 75.8645 68.4867 75.8701 68.4843C75.8758 68.4819 75.8848 68.4782 75.8904 68.4758C75.896 68.4734 75.905 68.4697 75.9106 68.4673C75.8566 68.4904 75.8026 68.5135 75.7486 68.5353Z" fill="#42E8E0"/>
<path d="M75.1011 68.8219C86.1434 63.857 94.1157 66.8464 97.1182 67.972C84.4801 98.0215 83.1589 101.163 75.1011 122.152C62.6475 106.526 60.7343 104.124 52.1025 92.5005C54.5435 88.1232 61.9722 74.7995 75.1011 68.8219Z" fill="white"/>
<path opacity="0.502" d="M264.452 294.833C264.452 280.105 253.33 268.202 239.678 268.325C236.822 268.35 233.954 268.351 231.076 268.327C102.608 267.228 0 215.873 0 153.187V232.087C9.23835 228.244 10.1904 227.785 13.9504 237.062C31.2083 276.572 34.2412 275.692 38.2622 274.668C75.0243 258.809 74.5651 259.961 83.9318 270.468C100.142 288.674 132.821 324.117 142.918 326.94C146.013 327.375 150.941 326.899 153.855 326.098C189.338 313.274 203.416 305.211 238.143 289.071L241.255 294.512C228.403 300.56 189.552 317.052 153.796 329.198L153.536 331.113C143.366 334.37 136.839 327.704 134.454 325.73C115.788 308.674 99.4352 287.871 80.703 270.89C75.1672 265.872 71.7764 267.947 69.8565 268.499C34.9288 283.448 34.9288 283.448 29.3277 274.324C19.0664 254.723 18.7097 253.139 13.9504 240.889C12.8632 238.09 9.16857 233.854 7.52212 234.08C-0.313986 236.465 0.725878 238.196 0 239.215V259.843C0 322.529 102.608 373.884 231.076 374.982C233.197 375 235.312 375.005 237.421 374.995C252.386 374.929 264.452 361.735 264.452 345.588V294.833Z" fill="white"/>
<path d="M153.536 331.181C144.386 333.709 135.744 336.096 81.9331 273.636C75.1222 266.249 75.1222 266.249 40.1743 281.28C36.2073 282.32 30.2123 283.89 13.6915 241.368C8.589 228.809 0.0821537 239.167 0 239.283V232.154C2.88888 230.383 3.0847 230.262 7.42647 228.943C8.21874 228.702 9.08642 228.745 9.81792 229.154C10.9782 229.805 12.152 231.28 14.1923 235.967C23.7098 257.845 23.7098 257.845 30.5657 269.81C34.607 276.275 34.607 276.275 67.4065 262.228C69.6472 261.577 74.3097 260.224 81.34 266.274C101.096 283.275 117.171 304.542 136.674 321.838C143.994 327.455 148.412 330.845 238.144 289.138L241.256 294.578C228.403 300.629 189.292 319.035 153.536 331.181Z" fill="white"/>
</g>
<path opacity="0.5" d="M378.381 164.266C379.542 171.35 384.412 189.154 404.506 201.471C433.108 215.721 452.92 234.456 459.558 255.372C460.027 256.744 460.677 258.57 461.284 259.877C461.997 258.609 461.997 258.609 462 255.542V220.424C461.988 199.804 460.915 195.258 459.558 189.504C452.92 168.588 433.108 149.854 404.506 135.604C381.687 127.656 376.164 150.738 378.381 164.266Z" fill="white"/>
<path opacity="0.4" d="M461.971 249.848C461.802 278.331 460.253 283.516 458.291 290.081C450.132 310.852 428.97 329.201 399.35 342.907C373.417 351.161 366.254 322.088 376.802 300.532C383.977 285.867 395.145 279.453 399.35 277.039C428.971 263.333 450.132 244.984 458.291 224.213C458.89 222.835 459.734 221.007 460.533 219.752C460.732 219.724 460.998 219.687 461.197 219.659C461.699 221.182 461.907 221.812 461.972 229.586V249.848H461.971Z" fill="white"/>
<path opacity="0.3" d="M319.531 366.457C337.325 366.457 351.749 350.01 351.749 329.721C351.749 309.432 337.325 292.985 319.531 292.985C301.738 292.985 287.313 309.432 287.313 329.721C287.313 350.01 301.738 366.457 319.531 366.457Z" fill="white"/>
<defs>
<linearGradient id="paint0_linear_283_29942" x1="282.113" y1="279.173" x2="169.565" y2="279.173" gradientUnits="userSpaceOnUse">
<stop stop-color="#5761D7"/>
<stop offset="0.0726" stop-color="#5472D8"/>
<stop offset="0.2791" stop-color="#4E9CDB"/>
<stop offset="0.4801" stop-color="#49BDDD"/>
<stop offset="0.6715" stop-color="#45D5DF"/>
<stop offset="0.8493" stop-color="#43E3E0"/>
<stop offset="1" stop-color="#42E8E0"/>
</linearGradient>
<linearGradient id="paint1_linear_283_29942" x1="282.113" y1="269.832" x2="169.565" y2="269.832" gradientUnits="userSpaceOnUse">
<stop stop-color="#5761D7"/>
<stop offset="0.0726" stop-color="#5472D8"/>
<stop offset="0.2791" stop-color="#4E9CDB"/>
<stop offset="0.4801" stop-color="#49BDDD"/>
<stop offset="0.6715" stop-color="#45D5DF"/>
<stop offset="0.8493" stop-color="#43E3E0"/>
<stop offset="1" stop-color="#42E8E0"/>
</linearGradient>
<linearGradient id="paint2_linear_283_29942" x1="282.113" y1="260.491" x2="169.565" y2="260.491" gradientUnits="userSpaceOnUse">
<stop stop-color="#5761D7"/>
<stop offset="0.0726" stop-color="#5472D8"/>
<stop offset="0.2791" stop-color="#4E9CDB"/>
<stop offset="0.4801" stop-color="#49BDDD"/>
<stop offset="0.6715" stop-color="#45D5DF"/>
<stop offset="0.8493" stop-color="#43E3E0"/>
<stop offset="1" stop-color="#42E8E0"/>
</linearGradient>
<linearGradient id="paint3_linear_283_29942" x1="282.113" y1="251.15" x2="169.565" y2="251.15" gradientUnits="userSpaceOnUse">
<stop stop-color="#5761D7"/>
<stop offset="0.0726" stop-color="#5472D8"/>
<stop offset="0.2791" stop-color="#4E9CDB"/>
<stop offset="0.4801" stop-color="#49BDDD"/>
<stop offset="0.6715" stop-color="#45D5DF"/>
<stop offset="0.8493" stop-color="#43E3E0"/>
<stop offset="1" stop-color="#42E8E0"/>
</linearGradient>
<linearGradient id="paint4_linear_283_29942" x1="282.113" y1="265.162" x2="169.565" y2="265.162" gradientUnits="userSpaceOnUse">
<stop stop-color="#FA2609"/>
<stop offset="0.0726" stop-color="#FA2609" stop-opacity="0.533333"/>
<stop offset="0.2791" stop-color="#FA2609"/>
<stop offset="0.4801" stop-color="#FA2609"/>
<stop offset="0.6715" stop-color="#FA2609"/>
<stop offset="0.8493" stop-color="#FA2609"/>
<stop offset="1" stop-color="#FA2609"/>
</linearGradient>
<linearGradient id="paint5_linear_283_29942" x1="294.074" y1="235.294" x2="157.603" y2="235.294" gradientUnits="userSpaceOnUse">
<stop stop-color="#5761D7"/>
<stop offset="0.0726" stop-color="#5472D8"/>
<stop offset="0.2791" stop-color="#4E9CDB"/>
<stop offset="0.4801" stop-color="#49BDDD"/>
<stop offset="0.6715" stop-color="#45D5DF"/>
<stop offset="0.8493" stop-color="#43E3E0"/>
<stop offset="1" stop-color="#42E8E0"/>
</linearGradient>
<linearGradient id="paint6_linear_283_29942" x1="294.074" y1="223.968" x2="157.603" y2="223.968" gradientUnits="userSpaceOnUse">
<stop stop-color="#FA2609"/>
<stop offset="0.0726" stop-color="#FA2609"/>
<stop offset="0.2791" stop-color="#FA2609"/>
<stop offset="0.4801" stop-color="#FA2609"/>
<stop offset="0.6715" stop-color="#FA2609"/>
<stop offset="0.8493" stop-color="#FA2609"/>
<stop offset="1" stop-color="#FA2609"/>
</linearGradient>
<linearGradient id="paint7_linear_283_29942" x1="294.074" y1="212.641" x2="157.603" y2="212.641" gradientUnits="userSpaceOnUse">
<stop stop-color="#5761D7"/>
<stop offset="0.0726" stop-color="#5472D8"/>
<stop offset="0.2791" stop-color="#4E9CDB"/>
<stop offset="0.4801" stop-color="#49BDDD"/>
<stop offset="0.6715" stop-color="#45D5DF"/>
<stop offset="0.8493" stop-color="#43E3E0"/>
<stop offset="1" stop-color="#42E8E0"/>
</linearGradient>
<linearGradient id="paint8_linear_283_29942" x1="294.074" y1="201.314" x2="157.603" y2="201.314" gradientUnits="userSpaceOnUse">
<stop stop-color="#FA2609"/>
<stop offset="0.0726" stop-color="#FA2609"/>
<stop offset="0.2791" stop-color="#FA2609"/>
<stop offset="0.4801" stop-color="#FA2609"/>
<stop offset="0.6715" stop-color="#FA2609"/>
<stop offset="0.8493" stop-color="#FA2609"/>
<stop offset="1" stop-color="#FA2609"/>
</linearGradient>
<linearGradient id="paint9_linear_283_29942" x1="294.074" y1="218.304" x2="157.603" y2="218.304" gradientUnits="userSpaceOnUse">
<stop stop-color="#C81800"/>
<stop offset="0.0726" stop-color="#C81800"/>
<stop offset="0.2791" stop-color="#C81800"/>
<stop offset="0.4801" stop-color="#C81800"/>
<stop offset="0.6715" stop-color="#C81800"/>
<stop offset="0.8493" stop-color="#C81800"/>
<stop offset="1" stop-color="#C81800"/>
</linearGradient>
<linearGradient id="paint10_linear_283_29942" x1="294.074" y1="201.314" x2="157.603" y2="201.314" gradientUnits="userSpaceOnUse">
<stop stop-color="#FA2609"/>
<stop offset="0.0726" stop-color="#FA2609"/>
<stop offset="0.2791" stop-color="#FA2609"/>
<stop offset="0.4801" stop-color="#FA2609"/>
<stop offset="0.6715" stop-color="#FA2609"/>
<stop offset="0.8493" stop-color="#FA2609"/>
<stop offset="1" stop-color="#FA2609"/>
</linearGradient>
<linearGradient id="paint11_linear_283_29942" x1="294.074" y1="221.729" x2="157.604" y2="221.729" gradientUnits="userSpaceOnUse">
<stop stop-color="#C81800"/>
<stop offset="0.0726" stop-color="#C81800"/>
<stop offset="0.2791" stop-color="#C81800"/>
<stop offset="0.4801" stop-color="#C81800"/>
<stop offset="0.535" stop-color="#C81800"/>
<stop offset="0.8493" stop-color="#C81800"/>
<stop offset="1" stop-color="#C81800"/>
</linearGradient>
<radialGradient id="paint12_radial_283_29942" cx="0" cy="0" r="1" gradientUnits="userSpaceOnUse" gradientTransform="translate(196.294 144.611) rotate(46.5795) scale(24.2873 39.9562)">
<stop stop-color="#C0BFF6"/>
<stop offset="1" stop-color="#393091"/>
</radialGradient>
<linearGradient id="paint13_linear_283_29942" x1="176.855" y1="178.037" x2="176.827" y2="147.927" gradientUnits="userSpaceOnUse">
<stop stop-color="#FA2609"/>
<stop offset="0.0047" stop-color="#FA2609"/>
<stop offset="0.1358" stop-color="#FA2609"/>
<stop offset="0.2707" stop-color="#FA2609"/>
<stop offset="0.4074" stop-color="#FA2609"/>
<stop offset="0.5467" stop-color="#FA2609"/>
<stop offset="0.59524" stop-color="#E61D01"/>
<stop offset="0.8375" stop-color="#901100"/>
<stop offset="1" stop-color="#630C00"/>
</linearGradient>
<radialGradient id="paint14_radial_283_29942" cx="0" cy="0" r="1" gradientUnits="userSpaceOnUse" gradientTransform="translate(259.71 79.5562) rotate(12.0565) scale(76.2852 81.8003)">
<stop stop-color="#C0BFF6"/>
<stop offset="1" stop-color="#393091"/>
</radialGradient>
<linearGradient id="paint15_linear_283_29942" x1="196.732" y1="142.742" x2="196.702" y2="110.755" gradientUnits="userSpaceOnUse">
<stop stop-color="#FA2609"/>
<stop offset="0.0047" stop-color="#FA2609"/>
<stop offset="0.1358" stop-color="#FA2609"/>
<stop offset="0.2707" stop-color="#FA2609"/>
<stop offset="0.4074" stop-color="#FA2609"/>
<stop offset="0.5467" stop-color="#FA2609"/>
<stop offset="0.59524" stop-color="#E61D01"/>
<stop offset="0.8375" stop-color="#901100"/>
<stop offset="1" stop-color="#630C00"/>
</linearGradient>
<radialGradient id="paint16_radial_283_29942" cx="0" cy="0" r="1" gradientUnits="userSpaceOnUse" gradientTransform="translate(248.451 143.295) scale(58.4579 85.8578)">
<stop stop-color="#C0BFF6"/>
<stop offset="1" stop-color="#393091"/>
</radialGradient>
<linearGradient id="paint17_linear_283_29942" x1="228.472" y1="211.482" x2="228.366" y2="114.92" gradientUnits="userSpaceOnUse">
<stop stop-color="#FA2609"/>
<stop offset="0.0047" stop-color="#FA2609"/>
<stop offset="0.1358" stop-color="#FA2609"/>
<stop offset="0.2707" stop-color="#FA2609"/>
<stop offset="0.4074" stop-color="#FA2609"/>
<stop offset="0.5467" stop-color="#FA2609"/>
<stop offset="0.59524" stop-color="#E61D01"/>
<stop offset="0.8375" stop-color="#901100"/>
<stop offset="1" stop-color="#630C00"/>
</linearGradient>
<radialGradient id="paint18_radial_283_29942" cx="0" cy="0" r="1" gradientUnits="userSpaceOnUse" gradientTransform="translate(251.382 89.6934) scale(58.6371 63.2654)">
<stop stop-color="#C0BFF6"/>
<stop offset="1" stop-color="#393091"/>
</radialGradient>
<linearGradient id="paint19_linear_283_29942" x1="229.825" y1="142.038" x2="229.746" y2="57.8072" gradientUnits="userSpaceOnUse">
<stop stop-color="#FA2609"/>
<stop offset="0.0047" stop-color="#FA2609"/>
<stop offset="0.1358" stop-color="#FA2609"/>
<stop offset="0.2707" stop-color="#FA2609"/>
<stop offset="0.4074" stop-color="#FA2609"/>
<stop offset="0.5467" stop-color="#FA2609"/>
<stop offset="0.59524" stop-color="#E61D01"/>
<stop offset="0.8375" stop-color="#901100"/>
<stop offset="1" stop-color="#630C00"/>
</linearGradient>
<radialGradient id="paint20_radial_283_29942" cx="0" cy="0" r="1" gradientUnits="userSpaceOnUse" gradientTransform="translate(274.892 138.199) rotate(12.0564) scale(27.5713 29.5646)">
<stop stop-color="#C0BFF6"/>
<stop offset="1" stop-color="#393091"/>
</radialGradient>
<linearGradient id="paint21_linear_283_29942" x1="267.121" y1="165.253" x2="267.091" y2="133.259" gradientUnits="userSpaceOnUse">
<stop stop-color="#FA2609"/>
<stop offset="0.0047" stop-color="#FA2609"/>
<stop offset="0.1358" stop-color="#FA2609"/>
<stop offset="0.2707" stop-color="#FA2609"/>
<stop offset="0.4074" stop-color="#FA2609"/>
<stop offset="0.5467" stop-color="#FA2609"/>
<stop offset="0.59524" stop-color="#E61D01"/>
<stop offset="0.8375" stop-color="#901100"/>
<stop offset="1" stop-color="#630C00"/>
</linearGradient>
<radialGradient id="paint22_radial_283_29942" cx="0" cy="0" r="1" gradientUnits="userSpaceOnUse" gradientTransform="translate(291.516 183.361) rotate(7.33416) scale(23.3934 41.4817)">
<stop stop-color="#C0BFF6"/>
<stop offset="1" stop-color="#393091"/>
</radialGradient>
<linearGradient id="paint23_linear_283_29942" x1="279.049" y1="217.551" x2="278.993" y2="181.118" gradientUnits="userSpaceOnUse">
<stop stop-color="#FA2609"/>
<stop offset="0.0047" stop-color="#FA2609"/>
<stop offset="0.1358" stop-color="#FA2609"/>
<stop offset="0.2707" stop-color="#FA2609"/>
<stop offset="0.4074" stop-color="#FA2609"/>
<stop offset="0.5467" stop-color="#FA2609"/>
<stop offset="0.59524" stop-color="#E61D01"/>
<stop offset="0.8375" stop-color="#901100"/>
<stop offset="1" stop-color="#630C00"/>
</linearGradient>
</defs>
</svg>
