<svg width="38" height="38" viewBox="0 0 38 38" fill="none" xmlns="http://www.w3.org/2000/svg">
<g clip-path="url(#clip0_607_21564)">
<path d="M31.9863 29.723L31.1364 28.8583L30.642 29.3445L30.81 30.0169L31.9863 29.723ZM33.5489 35.9734L33.255 37.1497C33.6682 37.253 34.1051 37.1317 34.4063 36.8306C34.7074 36.5297 34.8284 36.0925 34.7251 35.6793L33.5489 35.9734ZM23.8497 33.5489L22.9924 32.6914L21.4783 34.2057L23.5557 34.7249L23.8497 33.5489ZM23.9098 33.4887L24.7671 34.3459C25.1287 33.9843 25.2245 33.4349 25.0068 32.9725C24.7891 32.5098 24.3045 32.2334 23.7956 32.2816L23.9098 33.4887ZM17.7876 0.813965V6.87598H20.2124V0.813965H17.7876ZM22.6371 5.66329L15.3627 5.66333L15.3627 8.08814L22.6372 8.08809L22.6371 5.66329ZM37.1861 20.2121C37.1861 12.177 30.6723 5.66321 22.6371 5.66329L22.6372 8.08809C29.3331 8.08802 34.7613 13.5162 34.7613 20.2121H37.1861ZM32.8362 30.5874C35.5197 27.9495 37.1861 24.2743 37.1861 20.2121H34.7613C34.7613 23.5977 33.3752 26.6573 31.1364 28.8583L32.8362 30.5874ZM34.7251 35.6793L33.1626 29.4289L30.81 30.0169L32.3728 36.2675L34.7251 35.6793ZM23.5557 34.7249L33.255 37.1497L33.843 34.7971L24.1438 32.3726L23.5557 34.7249ZM23.0525 32.6313L22.9924 32.6914L24.707 34.406L24.7671 34.3459L23.0525 32.6313ZM22.6372 34.761C23.1047 34.761 23.5673 34.7389 24.0241 34.6958L23.7956 32.2816C23.4146 32.3178 23.0283 32.3362 22.6372 32.3362V34.761ZM15.3628 34.761H22.6372V32.3362H15.3628V34.761ZM0.813965 20.2121C0.813943 28.2473 7.32767 34.761 15.3628 34.761V32.3362C8.66687 32.3362 3.23875 26.908 3.23877 20.2121H0.813965ZM15.3627 5.66333C7.32763 5.66341 0.813987 12.1771 0.813965 20.2121H3.23877C3.2388 13.5163 8.66682 8.08821 15.3627 8.08814L15.3627 5.66333ZM19 20.2124C16.9912 20.2124 15.3628 18.584 15.3628 16.5752H12.938C12.938 19.9232 15.6521 22.6372 19 22.6372V20.2124ZM22.6372 16.5752C22.6372 18.584 21.0088 20.2124 19 20.2124V22.6372C22.348 22.6372 25.062 19.9232 25.062 16.5752H22.6372ZM19 12.938C21.0088 12.938 22.6372 14.5664 22.6372 16.5752H25.062C25.062 13.2273 22.348 10.5132 19 10.5132V12.938ZM19 10.5132C15.6521 10.5132 12.938 13.2273 12.938 16.5752H15.3628C15.3628 14.5664 16.9912 12.938 19 12.938V10.5132ZM19 29.9116C21.5792 29.9116 23.9525 29.0152 25.8203 27.5179L24.3036 25.626C22.8505 26.7909 21.0082 27.4868 19 27.4868V29.9116ZM12.1797 27.5179C14.0475 29.0152 16.4207 29.9116 19 29.9116V27.4868C16.9918 27.4868 15.1495 26.7909 13.6963 25.626L12.1797 27.5179Z" fill="white"/>
</g>
<defs>
<clipPath id="clip0_607_21564">
<rect width="36.3721" height="36.3721" fill="white" transform="translate(0.813965 0.813965)"/>
</clipPath>
</defs>
</svg>
