<svg width="32" height="32" viewBox="0 0 32 32" fill="none" xmlns="http://www.w3.org/2000/svg">
<g clip-path="url(#clip0_897_28678)">
<path d="M20 15H25.89C25.7041 13.7623 25.2622 12.577 24.5924 11.5198C23.9226 10.4626 23.0397 9.55672 22 8.86L20.21 7.66L21.31 6L23.1 7.2C24.6067 8.20408 25.8423 9.56456 26.6971 11.1607C27.5518 12.7569 27.9994 14.5394 28 16.35V23C28 23.5304 27.7893 24.0391 27.4142 24.4142C27.0391 24.7893 26.5304 25 26 25H20C19.4696 25 18.9609 24.7893 18.5858 24.4142C18.2107 24.0391 18 23.5304 18 23V17C18 16.4696 18.2107 15.9609 18.5858 15.5858C18.9609 15.2107 19.4696 15 20 15Z" fill="white"/>
<path d="M6 15H11.89C11.7041 13.7623 11.2622 12.577 10.5924 11.5198C9.92261 10.4626 9.03967 9.55672 8 8.86L6.21 7.66L7.3 6L9.1 7.2C10.6067 8.20408 11.8423 9.56456 12.6971 11.1607C13.5518 12.7569 13.9994 14.5394 14 16.35V23C14 23.5304 13.7893 24.0391 13.4142 24.4142C13.0391 24.7893 12.5304 25 12 25H6C5.46957 25 4.96086 24.7893 4.58579 24.4142C4.21071 24.0391 4 23.5304 4 23V17C4 16.4696 4.21071 15.9609 4.58579 15.5858C4.96086 15.2107 5.46957 15 6 15Z" fill="white"/>
</g>
<defs>
<clipPath id="clip0_897_28678">
<rect width="32" height="32" fill="white" transform="matrix(-1 0 0 1 32 0)"/>
</clipPath>
</defs>
</svg>
