<svg width="34" height="34" viewBox="0 0 34 34" fill="none" xmlns="http://www.w3.org/2000/svg">
<path fill-rule="evenodd" clip-rule="evenodd" d="M9.87276 3.4977C9.97145 3.39875 10.0887 3.32025 10.2178 3.26668C10.3469 3.21312 10.4853 3.18555 10.625 3.18555C10.7648 3.18555 10.9031 3.21312 11.0322 3.26668C11.1613 3.32025 11.2786 3.39875 11.3773 3.4977L24.1273 16.2477C24.2262 16.3464 24.3047 16.4636 24.3583 16.5927C24.4118 16.7218 24.4394 16.8602 24.4394 16.9999C24.4394 17.1397 24.4118 17.2781 24.3583 17.4072C24.3047 17.5362 24.2262 17.6535 24.1273 17.7522L11.3773 30.5022C11.1778 30.7017 10.9072 30.8138 10.625 30.8138C10.3429 30.8138 10.0723 30.7017 9.87276 30.5022C9.67325 30.3027 9.56117 30.0321 9.56117 29.7499C9.56117 29.4678 9.67325 29.1972 9.87276 28.9977L21.8726 16.9999L9.87276 5.0022C9.77381 4.9035 9.69531 4.78625 9.64174 4.65717C9.58818 4.52808 9.56061 4.3897 9.56061 4.24995C9.56061 4.11019 9.58818 3.97181 9.64174 3.84272C9.69531 3.71364 9.77381 3.59639 9.87276 3.4977Z" fill="white"/>
</svg>
