<svg width="24" height="24" viewBox="0 0 24 24" fill="none" xmlns="http://www.w3.org/2000/svg">
<path d="M21.9272 2.01535L2.59049 9.45121L8.45011 12.258L17.4231 6.48233L11.8038 15.7308L14.5383 21.4068L21.9233 2.01535H21.9272ZM0.471264 8.69141L22.8824 0.0738618C22.9731 0.0295712 23.072 0.004617 23.1729 0.000582174C23.2737 -0.00345265 23.3743 0.0135199 23.4683 0.0504234C23.651 0.120019 23.7987 0.259253 23.8789 0.437579C23.9591 0.615904 23.9653 0.818758 23.8961 1.00163L15.3117 23.528C15.2599 23.6619 15.1703 23.7778 15.0536 23.8615C14.937 23.9452 14.7985 23.9931 14.6551 23.9993C14.5117 24.0055 14.3695 23.9698 14.2461 23.8965C14.1227 23.8232 14.0233 23.7155 13.9601 23.5866L9.53219 14.4065L0.416574 10.0391C0.287243 9.97703 0.178928 9.87843 0.105004 9.75548C0.0310813 9.63253 -0.00521275 9.49062 0.000604104 9.34727C0.00642096 9.20393 0.054094 9.06543 0.137736 8.94887C0.221379 8.83232 0.337327 8.74281 0.471264 8.69141Z" fill="white"/>
</svg>
