<svg width="493" height="535" viewBox="0 0 493 535" fill="none" xmlns="http://www.w3.org/2000/svg">
<g clip-path="url(#clip0_220_37981)">
<path d="M300.527 240.777L300.588 241.274L300.527 240.777L28.9045 274.436C26.8703 274.688 25.25 273.262 25.25 271.238V128.493C25.25 126.421 26.9468 124.509 29.0275 124.251L300.65 90.5924C302.685 90.3403 304.305 91.7661 304.305 93.7906V236.535C304.305 238.608 302.609 240.52 300.527 240.777Z" fill="white" stroke="#FA2609"/>
<path d="M304.305 93.7906V104.907L25.25 139.488V128.493C25.25 126.421 26.9468 124.509 29.0275 124.251L300.65 90.5924C302.685 90.3403 304.305 91.7661 304.305 93.7906Z" fill="white" stroke="#FA2609"/>
<path d="M147.706 137.269V247.768L37.1992 261.462V150.962L147.706 137.269Z" fill="white" stroke="#FA2609"/>
<mask id="path-4-inside-1_220_37981" fill="white">
<path d="M300.433 203.337L152.685 232.82L162.91 181.829L163.959 181.62L153.895 231.804L300.595 202.531L300.433 203.337Z"/>
</mask>
<path d="M300.433 203.337L152.685 232.82L162.91 181.829L163.959 181.62L153.895 231.804L300.595 202.531L300.433 203.337Z" fill="white"/>
<path d="M300.433 203.337L300.629 204.318L301.283 204.188L301.414 203.534L300.433 203.337ZM152.685 232.82L151.705 232.624L151.41 234.094L152.881 233.801L152.685 232.82ZM162.91 181.829L162.715 180.849L162.061 180.979L161.93 181.633L162.91 181.829ZM163.959 181.62L164.939 181.817L165.234 180.346L163.763 180.639L163.959 181.62ZM153.895 231.804L152.915 231.608L152.62 233.079L154.091 232.785L153.895 231.804ZM300.595 202.531L301.576 202.728L301.871 201.257L300.399 201.55L300.595 202.531ZM300.238 202.357L152.49 231.839L152.881 233.801L300.629 204.318L300.238 202.357ZM153.666 233.017L163.891 182.026L161.93 181.633L151.705 232.624L153.666 233.017ZM163.106 182.81L164.155 182.601L163.763 180.639L162.715 180.849L163.106 182.81ZM162.978 181.423L152.915 231.608L154.876 232.001L164.939 181.817L162.978 181.423ZM154.091 232.785L300.791 203.512L300.399 201.55L153.7 230.824L154.091 232.785ZM299.615 202.334L299.453 203.141L301.414 203.534L301.576 202.728L299.615 202.334Z" fill="#FA2609" mask="url(#path-4-inside-1_220_37981)"/>
<mask id="path-6-inside-2_220_37981" fill="white">
<path d="M160.579 233.364L160.566 233.366L159.797 233.803L159.755 233.501L160.721 232.955L161.193 232.861L160.562 236.004L160.028 236.11L160.579 233.364Z"/>
</mask>
<path d="M160.579 233.364L160.566 233.366L159.797 233.803L159.755 233.501L160.721 232.955L161.193 232.861L160.562 236.004L160.028 236.11L160.579 233.364Z" fill="white"/>
<path d="M160.579 233.364L161.559 233.56L161.853 232.097L160.388 232.382L160.579 233.364ZM160.566 233.366L160.376 232.385L160.215 232.416L160.073 232.496L160.566 233.366ZM159.797 233.803L158.806 233.941L159.01 235.399L160.29 234.673L159.797 233.803ZM159.755 233.501L159.263 232.63L158.67 232.965L158.764 233.639L159.755 233.501ZM160.721 232.955L160.525 231.974L160.369 232.005L160.229 232.084L160.721 232.955ZM161.193 232.861L162.173 233.057L162.468 231.586L160.997 231.88L161.193 232.861ZM160.562 236.004L160.758 236.985L161.412 236.854L161.543 236.2L160.562 236.004ZM160.028 236.11L159.047 235.914L158.752 237.385L160.223 237.091L160.028 236.11ZM160.388 232.382L160.376 232.385L160.757 234.348L160.77 234.345L160.388 232.382ZM160.073 232.496L159.303 232.933L160.29 234.673L161.06 234.236L160.073 232.496ZM160.787 233.665L160.745 233.363L158.764 233.639L158.806 233.941L160.787 233.665ZM160.246 234.371L161.213 233.825L160.229 232.084L159.263 232.63L160.246 234.371ZM160.917 233.935L161.388 233.841L160.997 231.88L160.525 231.974L160.917 233.935ZM160.212 232.664L159.582 235.807L161.543 236.2L162.173 233.057L160.212 232.664ZM160.367 235.023L159.832 235.13L160.223 237.091L160.758 236.985L160.367 235.023ZM161.008 236.307L161.559 233.56L159.598 233.167L159.047 235.914L161.008 236.307Z" fill="#FA2609" mask="url(#path-6-inside-2_220_37981)"/>
<mask id="path-8-inside-3_220_37981" fill="white">
<path d="M171.41 233.847L171.462 233.586L171.961 233.175C173.157 232.203 173.71 231.702 173.812 231.227C173.875 230.908 173.733 230.653 173.124 230.775C172.753 230.849 172.416 231.056 172.203 231.214L172.087 230.949C172.407 230.709 172.836 230.493 173.308 230.399C174.188 230.224 174.466 230.614 174.375 231.063C174.259 231.644 173.618 232.222 172.629 233.032L172.255 233.33L172.253 233.339L174.089 232.973L174.018 233.326L171.41 233.847Z"/>
</mask>
<path d="M171.41 233.847L171.462 233.586L171.961 233.175C173.157 232.203 173.71 231.702 173.812 231.227C173.875 230.908 173.733 230.653 173.124 230.775C172.753 230.849 172.416 231.056 172.203 231.214L172.087 230.949C172.407 230.709 172.836 230.493 173.308 230.399C174.188 230.224 174.466 230.614 174.375 231.063C174.259 231.644 173.618 232.222 172.629 233.032L172.255 233.33L172.253 233.339L174.089 232.973L174.018 233.326L171.41 233.847Z" fill="white"/>
<path d="M171.41 233.847L170.429 233.65L170.134 235.121L171.605 234.827L171.41 233.847ZM171.462 233.586L170.826 232.814L170.551 233.04L170.481 233.389L171.462 233.586ZM171.961 233.175L171.33 232.399L171.325 232.403L171.961 233.175ZM173.812 231.227L174.79 231.436L174.792 231.424L173.812 231.227ZM173.124 230.775L173.319 231.756L173.32 231.756L173.124 230.775ZM172.203 231.214L171.287 231.616L171.792 232.767L172.8 232.016L172.203 231.214ZM172.087 230.949L171.486 230.15L170.853 230.626L171.171 231.351L172.087 230.949ZM173.308 230.399L173.112 229.419L173.112 229.419L173.308 230.399ZM172.629 233.032L173.252 233.814L173.263 233.806L172.629 233.032ZM172.255 233.33L171.632 232.548L171.347 232.775L171.275 233.133L172.255 233.33ZM172.253 233.339L171.273 233.142L170.978 234.613L172.449 234.32L172.253 233.339ZM174.089 232.973L175.069 233.169L175.364 231.699L173.893 231.992L174.089 232.973ZM174.018 233.326L174.214 234.307L174.868 234.176L174.999 233.523L174.018 233.326ZM172.39 234.043L172.442 233.782L170.481 233.389L170.429 233.65L172.39 234.043ZM172.098 234.358L172.596 233.947L171.325 232.403L170.826 232.814L172.098 234.358ZM172.591 233.951C173.184 233.47 173.664 233.068 174.01 232.715C174.345 232.375 174.678 231.961 174.79 231.436L172.833 231.019C172.844 230.969 172.85 231.043 172.583 231.314C172.328 231.574 171.934 231.908 171.33 232.399L172.591 233.951ZM174.792 231.424C174.852 231.126 174.884 230.514 174.369 230.075C173.901 229.677 173.31 229.718 172.928 229.794L173.32 231.756C173.406 231.738 173.418 231.747 173.378 231.742C173.334 231.737 173.206 231.711 173.072 231.597C172.93 231.476 172.862 231.325 172.838 231.208C172.816 231.104 172.83 231.038 172.831 231.031L174.792 231.424ZM172.928 229.794C172.346 229.91 171.869 230.216 171.606 230.412L172.8 232.016C172.873 231.962 172.963 231.903 173.06 231.853C173.16 231.802 173.248 231.77 173.319 231.756L172.928 229.794ZM173.119 230.812L173.003 230.548L171.171 231.351L171.287 231.616L173.119 230.812ZM172.687 231.749C172.904 231.587 173.197 231.441 173.504 231.38L173.112 229.419C172.476 229.546 171.91 229.832 171.486 230.15L172.687 231.749ZM173.503 231.38C173.649 231.351 173.719 231.356 173.732 231.358C173.742 231.359 173.676 231.352 173.589 231.284C173.495 231.211 173.434 231.11 173.407 231.014C173.383 230.929 173.393 230.874 173.395 230.867L175.356 231.26C175.448 230.798 175.382 230.148 174.822 229.71C174.315 229.313 173.666 229.308 173.112 229.419L173.503 231.38ZM173.395 230.867C173.392 230.882 173.356 231.004 173.1 231.278C172.852 231.542 172.493 231.851 171.995 232.259L173.263 233.806C173.754 233.403 174.21 233.018 174.559 232.646C174.9 232.282 175.243 231.825 175.356 231.26L173.395 230.867ZM172.006 232.25L171.632 232.548L172.878 234.112L173.252 233.814L172.006 232.25ZM171.275 233.133L171.273 233.142L173.234 233.536L173.236 233.526L171.275 233.133ZM172.449 234.32L174.285 233.953L173.893 231.992L172.058 232.358L172.449 234.32ZM173.108 232.776L173.038 233.129L174.999 233.523L175.069 233.169L173.108 232.776ZM173.822 232.345L171.214 232.866L171.605 234.827L174.214 234.307L173.822 232.345Z" fill="#FA2609" mask="url(#path-8-inside-3_220_37981)"/>
<mask id="path-10-inside-4_220_37981" fill="white">
<path d="M184.184 230.824C184.326 230.87 184.666 230.918 185.049 230.841C185.76 230.7 186.049 230.308 186.095 230.048C186.177 229.609 185.7 229.523 185.165 229.63L184.857 229.691L184.921 229.372L185.229 229.311C185.632 229.23 186.173 228.969 186.248 228.597C186.298 228.345 186.135 228.164 185.626 228.266C185.299 228.331 184.962 228.505 184.767 228.637L184.684 228.356C184.922 228.193 185.362 227.989 185.802 227.901C186.606 227.74 186.897 228.035 186.82 228.417C186.755 228.741 186.449 229.067 185.918 229.308L185.916 229.317C186.403 229.294 186.754 229.503 186.665 229.943C186.564 230.446 185.967 230.988 184.986 231.183C184.527 231.275 184.147 231.244 183.967 231.183L184.184 230.824Z"/>
</mask>
<path d="M184.184 230.824C184.326 230.87 184.666 230.918 185.049 230.841C185.76 230.7 186.049 230.308 186.095 230.048C186.177 229.609 185.7 229.523 185.165 229.63L184.857 229.691L184.921 229.372L185.229 229.311C185.632 229.23 186.173 228.969 186.248 228.597C186.298 228.345 186.135 228.164 185.626 228.266C185.299 228.331 184.962 228.505 184.767 228.637L184.684 228.356C184.922 228.193 185.362 227.989 185.802 227.901C186.606 227.74 186.897 228.035 186.82 228.417C186.755 228.741 186.449 229.067 185.918 229.308L185.916 229.317C186.403 229.294 186.754 229.503 186.665 229.943C186.564 230.446 185.967 230.988 184.986 231.183C184.527 231.275 184.147 231.244 183.967 231.183L184.184 230.824Z" fill="white"/>
<path d="M184.184 230.824L184.492 229.872L183.738 229.629L183.328 230.306L184.184 230.824ZM185.049 230.841L184.854 229.861L184.853 229.861L185.049 230.841ZM186.095 230.048L185.112 229.864L185.11 229.874L186.095 230.048ZM185.165 229.63L185.361 230.61L185.361 230.61L185.165 229.63ZM184.857 229.691L183.877 229.495L183.582 230.965L185.053 230.672L184.857 229.691ZM184.921 229.372L184.725 228.392L184.072 228.522L183.941 229.176L184.921 229.372ZM185.229 229.311L185.034 228.33L185.033 228.33L185.229 229.311ZM185.626 228.266L185.822 229.246L185.822 229.246L185.626 228.266ZM184.767 228.637L183.807 228.918L184.192 230.229L185.325 229.466L184.767 228.637ZM184.684 228.356L184.118 227.532L183.521 227.942L183.725 228.637L184.684 228.356ZM185.802 227.901L185.606 226.92L185.606 226.92L185.802 227.901ZM185.918 229.308L185.505 228.397L185.038 228.608L184.937 229.111L185.918 229.308ZM185.916 229.317L184.935 229.121L184.683 230.376L185.963 230.316L185.916 229.317ZM184.986 231.183L184.79 230.203L184.79 230.203L184.986 231.183ZM183.967 231.183L183.111 230.665L182.467 231.729L183.644 232.129L183.967 231.183ZM183.876 231.775C184.185 231.875 184.699 231.931 185.245 231.822L184.853 229.861C184.755 229.88 184.659 229.884 184.58 229.88C184.542 229.878 184.511 229.874 184.491 229.871C184.469 229.867 184.47 229.865 184.492 229.872L183.876 231.775ZM185.245 231.822C186.242 231.623 186.944 230.994 187.08 230.221L185.11 229.874C185.122 229.807 185.143 229.768 185.152 229.752C185.163 229.734 185.167 229.732 185.158 229.741C185.141 229.756 185.06 229.819 184.854 229.861L185.245 231.822ZM187.078 230.232C187.133 229.94 187.112 229.588 186.913 229.261C186.719 228.944 186.433 228.777 186.198 228.693C185.768 228.539 185.301 228.583 184.97 228.649L185.361 230.61C185.444 230.594 185.508 230.588 185.548 230.588C185.595 230.588 185.579 230.595 185.524 230.576C185.466 230.555 185.317 230.485 185.206 230.303C185.09 230.113 185.099 229.936 185.112 229.864L187.078 230.232ZM184.97 228.649L184.662 228.71L185.053 230.672L185.361 230.61L184.97 228.649ZM185.838 229.888L185.902 229.569L183.941 229.176L183.877 229.495L185.838 229.888ZM185.117 230.353L185.425 230.291L185.033 228.33L184.725 228.392L185.117 230.353ZM185.425 230.291C185.729 230.231 186.081 230.105 186.392 229.911C186.67 229.737 187.11 229.383 187.228 228.793L185.267 228.4C185.291 228.284 185.342 228.217 185.357 228.2C185.372 228.183 185.368 228.192 185.331 228.215C185.296 228.237 185.248 228.262 185.189 228.284C185.132 228.306 185.077 228.321 185.034 228.33L185.425 230.291ZM187.228 228.793C187.304 228.417 187.247 227.823 186.693 227.461C186.258 227.177 185.758 227.219 185.43 227.285L185.822 229.246C185.888 229.233 185.899 229.238 185.869 229.236C185.839 229.234 185.73 229.221 185.6 229.136C185.455 229.042 185.344 228.895 185.29 228.727C185.242 228.576 185.256 228.455 185.267 228.4L187.228 228.793ZM185.43 227.285C184.933 227.384 184.473 227.629 184.208 227.807L185.325 229.466C185.377 229.432 185.462 229.382 185.562 229.336C185.664 229.29 185.755 229.26 185.822 229.246L185.43 227.285ZM185.726 228.355L185.644 228.075L183.725 228.637L183.807 228.918L185.726 228.355ZM185.251 229.18C185.302 229.145 185.409 229.084 185.557 229.021C185.701 228.96 185.856 228.91 185.997 228.882L185.606 226.92C185.032 227.035 184.466 227.292 184.118 227.532L185.251 229.18ZM185.997 228.882C186.134 228.854 186.208 228.855 186.232 228.857C186.258 228.859 186.203 228.86 186.115 228.806C186.016 228.744 185.92 228.639 185.868 228.498C185.821 228.369 185.831 228.266 185.84 228.221L187.801 228.614C187.903 228.107 187.762 227.473 187.168 227.105C186.683 226.805 186.099 226.822 185.606 226.92L185.997 228.882ZM185.84 228.221C185.855 228.147 185.883 228.14 185.835 228.189C185.787 228.237 185.686 228.315 185.505 228.397L186.33 230.219C186.987 229.921 187.644 229.399 187.801 228.614L185.84 228.221ZM184.937 229.111L184.935 229.121L186.896 229.514L186.898 229.504L184.937 229.111ZM185.963 230.316C186.011 230.314 186.03 230.319 186.025 230.318C186.021 230.317 185.97 230.305 185.902 230.253C185.827 230.197 185.751 230.105 185.709 229.984C185.668 229.866 185.679 229.777 185.685 229.746L187.646 230.14C187.756 229.589 187.589 229.023 187.111 228.66C186.713 228.358 186.233 228.301 185.869 228.318L185.963 230.316ZM185.685 229.746C185.694 229.7 185.695 229.769 185.539 229.891C185.394 230.005 185.149 230.131 184.79 230.203L185.182 232.164C186.352 231.931 187.431 231.21 187.646 230.14L185.685 229.746ZM184.79 230.203C184.633 230.234 184.496 230.243 184.395 230.241C184.28 230.238 184.25 230.223 184.289 230.236L183.644 232.129C184.043 232.265 184.614 232.278 185.182 232.164L184.79 230.203ZM184.822 231.701L185.039 231.342L183.328 230.306L183.111 230.665L184.822 231.701Z" fill="#FA2609" mask="url(#path-10-inside-4_220_37981)"/>
<mask id="path-12-inside-5_220_37981" fill="white">
<path d="M196.894 228.756L197.066 227.9L195.167 228.279L195.223 227.999L197.449 225.628L198.046 225.509L197.654 227.463L198.227 227.348L198.16 227.682L197.587 227.796L197.416 228.652L196.894 228.756ZM197.133 227.567L197.343 226.517C197.376 226.353 197.415 226.187 197.461 226.02L197.442 226.024C197.28 226.233 197.152 226.388 197.01 226.556L195.796 227.824L195.794 227.834L197.133 227.567Z"/>
</mask>
<path d="M196.894 228.756L197.066 227.9L195.167 228.279L195.223 227.999L197.449 225.628L198.046 225.509L197.654 227.463L198.227 227.348L198.16 227.682L197.587 227.796L197.416 228.652L196.894 228.756ZM197.133 227.567L197.343 226.517C197.376 226.353 197.415 226.187 197.461 226.02L197.442 226.024C197.28 226.233 197.152 226.388 197.01 226.556L195.796 227.824L195.794 227.834L197.133 227.567Z" fill="white"/>
<path d="M196.894 228.756L195.914 228.559L195.619 230.03L197.09 229.737L196.894 228.756ZM197.066 227.9L198.046 228.097L198.341 226.626L196.87 226.919L197.066 227.9ZM195.167 228.279L194.187 228.082L193.892 229.553L195.363 229.26L195.167 228.279ZM195.223 227.999L194.494 227.314L194.299 227.522L194.243 227.802L195.223 227.999ZM197.449 225.628L197.254 224.647L196.939 224.71L196.72 224.943L197.449 225.628ZM198.046 225.509L199.027 225.705L199.322 224.235L197.851 224.528L198.046 225.509ZM197.654 227.463L196.674 227.266L196.379 228.737L197.85 228.443L197.654 227.463ZM198.227 227.348L199.207 227.545L199.502 226.074L198.031 226.368L198.227 227.348ZM198.16 227.682L198.355 228.662L199.009 228.532L199.14 227.878L198.16 227.682ZM197.587 227.796L197.392 226.815L196.738 226.946L196.607 227.599L197.587 227.796ZM197.416 228.652L197.611 229.633L198.265 229.502L198.396 228.849L197.416 228.652ZM197.133 227.567L197.328 228.547L197.982 228.417L198.113 227.763L197.133 227.567ZM197.461 226.02L198.425 226.284L198.852 224.727L197.268 225.039L197.461 226.02ZM197.442 226.024L197.249 225.043L196.882 225.115L196.652 225.41L197.442 226.024ZM197.01 226.556L197.732 227.247L197.753 227.226L197.772 227.203L197.01 226.556ZM195.796 227.824L195.073 227.132L194.872 227.342L194.815 227.627L195.796 227.824ZM195.794 227.834L194.813 227.637L194.518 229.108L195.989 228.814L195.794 227.834ZM197.875 228.953L198.046 228.097L196.085 227.703L195.914 228.559L197.875 228.953ZM196.87 226.919L194.971 227.298L195.363 229.26L197.262 228.881L196.87 226.919ZM196.148 228.475L196.204 228.195L194.243 227.802L194.187 228.082L196.148 228.475ZM195.952 228.683L198.178 226.312L196.72 224.943L194.494 227.314L195.952 228.683ZM197.645 226.608L198.242 226.489L197.851 224.528L197.254 224.647L197.645 226.608ZM197.066 225.312L196.674 227.266L198.635 227.659L199.027 225.705L197.066 225.312ZM197.85 228.443L198.422 228.329L198.031 226.368L197.459 226.482L197.85 228.443ZM197.246 227.152L197.179 227.485L199.14 227.878L199.207 227.545L197.246 227.152ZM197.964 226.701L197.392 226.815L197.783 228.777L198.355 228.662L197.964 226.701ZM196.607 227.599L196.435 228.455L198.396 228.849L198.568 227.993L196.607 227.599ZM197.22 227.671L196.699 227.775L197.09 229.737L197.611 229.633L197.22 227.671ZM198.113 227.763L198.324 226.714L196.363 226.321L196.152 227.37L198.113 227.763ZM198.324 226.714C198.352 226.572 198.386 226.429 198.425 226.284L196.497 225.756C196.445 225.945 196.4 226.133 196.363 226.321L198.324 226.714ZM197.268 225.039L197.249 225.043L197.635 227.005L197.654 227.001L197.268 225.039ZM196.652 225.41C196.5 225.606 196.382 225.75 196.247 225.908L197.772 227.203C197.922 227.026 198.059 226.859 198.232 226.637L196.652 225.41ZM196.287 225.864L195.073 227.132L196.518 228.515L197.732 227.247L196.287 225.864ZM194.815 227.627L194.813 227.637L196.774 228.03L196.776 228.021L194.815 227.627ZM195.989 228.814L197.328 228.547L196.937 226.586L195.598 226.853L195.989 228.814Z" fill="#FA2609" mask="url(#path-12-inside-5_220_37981)"/>
<mask id="path-14-inside-6_220_37981" fill="white">
<path d="M209.489 223.606L209.477 223.608L208.707 224.045L208.665 223.743L209.631 223.197L210.103 223.103L209.472 226.246L208.938 226.352L209.489 223.606Z"/>
</mask>
<path d="M209.489 223.606L209.477 223.608L208.707 224.045L208.665 223.743L209.631 223.197L210.103 223.103L209.472 226.246L208.938 226.352L209.489 223.606Z" fill="white"/>
<path d="M209.489 223.606L210.469 223.802L210.763 222.339L209.298 222.624L209.489 223.606ZM209.477 223.608L209.286 222.626L209.125 222.658L208.983 222.738L209.477 223.608ZM208.707 224.045L207.716 224.183L207.92 225.641L209.2 224.915L208.707 224.045ZM208.665 223.743L208.173 222.872L207.58 223.206L207.674 223.881L208.665 223.743ZM209.631 223.197L209.436 222.216L209.279 222.247L209.14 222.326L209.631 223.197ZM210.103 223.103L211.083 223.299L211.378 221.828L209.907 222.122L210.103 223.103ZM209.472 226.246L209.668 227.226L210.322 227.096L210.453 226.442L209.472 226.246ZM208.938 226.352L207.957 226.156L207.662 227.626L209.134 227.333L208.938 226.352ZM209.298 222.624L209.286 222.626L209.668 224.59L209.68 224.587L209.298 222.624ZM208.983 222.738L208.213 223.175L209.2 224.915L209.97 224.478L208.983 222.738ZM209.697 223.907L209.655 223.605L207.674 223.881L207.716 224.183L209.697 223.907ZM209.157 224.613L210.123 224.067L209.14 222.326L208.173 222.872L209.157 224.613ZM209.827 224.177L210.299 224.083L209.907 222.122L209.436 222.216L209.827 224.177ZM209.122 222.906L208.492 226.049L210.453 226.442L211.083 223.299L209.122 222.906ZM209.277 225.265L208.742 225.372L209.134 227.333L209.668 227.226L209.277 225.265ZM209.918 226.549L210.469 223.802L208.508 223.409L207.957 226.156L209.918 226.549Z" fill="#FA2609" mask="url(#path-14-inside-6_220_37981)"/>
<mask id="path-16-inside-7_220_37981" fill="white">
<path d="M212.731 222.964L212.719 222.966L211.949 223.403L211.907 223.1L212.874 222.555L213.345 222.46L212.715 225.604L212.18 225.71L212.731 222.964L212.731 222.964Z"/>
</mask>
<path d="M212.731 222.964L212.719 222.966L211.949 223.403L211.907 223.1L212.874 222.555L213.345 222.46L212.715 225.604L212.18 225.71L212.731 222.964L212.731 222.964Z" fill="white"/>
<path d="M212.731 222.964L212.921 223.945L212.928 221.983L212.731 222.964ZM212.719 222.966L212.529 221.984L212.368 222.015L212.225 222.096L212.719 222.966ZM211.949 223.403L210.959 223.541L211.162 224.999L212.443 224.272L211.949 223.403ZM211.907 223.1L211.415 222.23L210.823 222.564L210.917 223.238L211.907 223.1ZM212.874 222.555L212.678 221.574L212.521 221.605L212.382 221.684L212.874 222.555ZM213.345 222.46L214.325 222.657L214.62 221.186L213.149 221.48L213.345 222.46ZM212.715 225.604L212.91 226.584L213.564 226.454L213.695 225.8L212.715 225.604ZM212.18 225.71L211.2 225.514L210.905 226.984L212.376 226.691L212.18 225.71ZM212.731 222.964L212.928 221.983L211.947 221.786L211.75 222.767L212.731 222.964ZM212.541 221.982L212.529 221.984L212.909 223.948L212.921 223.945L212.541 221.982ZM212.225 222.096L211.456 222.533L212.443 224.272L213.212 223.836L212.225 222.096ZM212.94 223.265L212.897 222.962L210.917 223.238L210.959 223.541L212.94 223.265ZM212.399 223.971L213.365 223.425L212.382 221.684L211.415 222.23L212.399 223.971ZM213.069 223.535L213.541 223.441L213.149 221.48L212.678 221.574L213.069 223.535ZM212.364 222.264L211.734 225.407L213.695 225.8L214.325 222.657L212.364 222.264ZM212.519 224.623L211.985 224.73L212.376 226.691L212.91 226.584L212.519 224.623ZM213.161 225.907L213.711 223.16L211.75 222.767L211.2 225.514L213.161 225.907ZM212.534 223.944L212.535 223.944L212.928 221.983L212.928 221.983L212.534 223.944Z" fill="#FA2609" mask="url(#path-16-inside-7_220_37981)"/>
<mask id="path-18-inside-8_220_37981" fill="white">
<path d="M222.187 223.707L222.239 223.446L222.738 223.035C223.935 222.063 224.488 221.563 224.589 221.087C224.653 220.768 224.511 220.514 223.901 220.635C223.53 220.709 223.193 220.916 222.98 221.074L222.864 220.81C223.184 220.569 223.614 220.354 224.085 220.26C224.965 220.084 225.243 220.474 225.153 220.924C225.037 221.504 224.395 222.082 223.406 222.892L223.033 223.19L223.031 223.2L224.866 222.833L224.796 223.187L222.187 223.707Z"/>
</mask>
<path d="M222.187 223.707L222.239 223.446L222.738 223.035C223.935 222.063 224.488 221.563 224.589 221.087C224.653 220.768 224.511 220.514 223.901 220.635C223.53 220.709 223.193 220.916 222.98 221.074L222.864 220.81C223.184 220.569 223.614 220.354 224.085 220.26C224.965 220.084 225.243 220.474 225.153 220.924C225.037 221.504 224.395 222.082 223.406 222.892L223.033 223.19L223.031 223.2L224.866 222.833L224.796 223.187L222.187 223.707Z" fill="white"/>
<path d="M222.187 223.707L221.206 223.51L220.912 224.981L222.383 224.687L222.187 223.707ZM222.239 223.446L221.604 222.674L221.329 222.9L221.259 223.249L222.239 223.446ZM222.738 223.035L222.107 222.259L222.102 222.263L222.738 223.035ZM224.589 221.087L225.567 221.296L225.569 221.284L224.589 221.087ZM223.901 220.635L224.097 221.616L224.097 221.616L223.901 220.635ZM222.98 221.074L222.065 221.476L222.569 222.627L223.578 221.876L222.98 221.074ZM222.864 220.81L222.264 220.01L221.63 220.486L221.949 221.211L222.864 220.81ZM224.085 220.26L224.281 221.24L224.281 221.24L224.085 220.26ZM223.406 222.892L224.03 223.675L224.04 223.666L223.406 222.892ZM223.033 223.19L222.41 222.408L222.124 222.635L222.052 222.993L223.033 223.19ZM223.031 223.2L222.05 223.003L221.756 224.474L223.227 224.18L223.031 223.2ZM224.866 222.833L225.847 223.03L226.142 221.559L224.671 221.853L224.866 222.833ZM224.796 223.187L224.991 224.167L225.645 224.037L225.776 223.383L224.796 223.187ZM223.167 223.903L223.22 223.642L221.259 223.249L221.206 223.51L223.167 223.903ZM222.875 224.218L223.374 223.807L222.102 222.263L221.604 222.674L222.875 224.218ZM223.368 223.811C223.961 223.33 224.442 222.928 224.788 222.576C225.122 222.235 225.455 221.821 225.567 221.296L223.611 220.879C223.621 220.829 223.627 220.903 223.361 221.174C223.106 221.434 222.712 221.768 222.107 222.259L223.368 223.811ZM225.569 221.284C225.629 220.986 225.661 220.374 225.146 219.935C224.679 219.537 224.088 219.578 223.705 219.655L224.097 221.616C224.184 221.599 224.195 221.607 224.156 221.603C224.112 221.597 223.983 221.572 223.849 221.457C223.708 221.337 223.639 221.185 223.615 221.068C223.594 220.965 223.607 220.898 223.608 220.891L225.569 221.284ZM223.706 219.655C223.124 219.771 222.646 220.076 222.383 220.272L223.578 221.876C223.65 221.822 223.74 221.763 223.838 221.713C223.937 221.662 224.025 221.63 224.097 221.616L223.706 219.655ZM223.896 220.673L223.78 220.408L221.949 221.211L222.065 221.476L223.896 220.673ZM223.465 221.609C223.681 221.447 223.974 221.301 224.281 221.24L223.89 219.279C223.253 219.406 222.688 219.692 222.264 220.01L223.465 221.609ZM224.281 221.24C224.426 221.211 224.496 221.216 224.51 221.218C224.52 221.219 224.453 221.213 224.366 221.144C224.273 221.071 224.212 220.97 224.185 220.875C224.161 220.79 224.171 220.735 224.173 220.727L226.133 221.12C226.226 220.659 226.159 220.008 225.6 219.57C225.093 219.173 224.444 219.168 223.89 219.279L224.281 221.24ZM224.173 220.727C224.169 220.742 224.134 220.865 223.877 221.138C223.63 221.402 223.271 221.711 222.773 222.119L224.04 223.666C224.531 223.264 224.987 222.879 225.336 222.506C225.677 222.142 226.02 221.686 226.133 221.12L224.173 220.727ZM222.783 222.11L222.41 222.408L223.656 223.972L224.03 223.675L222.783 222.11ZM222.052 222.993L222.05 223.003L224.011 223.396L224.013 223.387L222.052 222.993ZM223.227 224.18L225.062 223.814L224.671 221.853L222.835 222.219L223.227 224.18ZM223.886 222.637L223.815 222.99L225.776 223.383L225.847 223.03L223.886 222.637ZM224.6 222.206L221.991 222.726L222.383 224.687L224.991 224.167L224.6 222.206Z" fill="#FA2609" mask="url(#path-18-inside-8_220_37981)"/>
<mask id="path-20-inside-9_220_37981" fill="white">
<path d="M227.132 222.723L227.304 221.867L225.405 222.245L225.462 221.965L227.687 219.594L228.285 219.475L227.893 221.429L228.465 221.315L228.398 221.648L227.826 221.762L227.654 222.618L227.132 222.723ZM227.371 221.533L227.581 220.484C227.614 220.319 227.653 220.154 227.699 219.987L227.68 219.99C227.518 220.199 227.39 220.355 227.248 220.522L226.034 221.79L226.032 221.8L227.371 221.533Z"/>
</mask>
<path d="M227.132 222.723L227.304 221.867L225.405 222.245L225.462 221.965L227.687 219.594L228.285 219.475L227.893 221.429L228.465 221.315L228.398 221.648L227.826 221.762L227.654 222.618L227.132 222.723ZM227.371 221.533L227.581 220.484C227.614 220.319 227.653 220.154 227.699 219.987L227.68 219.99C227.518 220.199 227.39 220.355 227.248 220.522L226.034 221.79L226.032 221.8L227.371 221.533Z" fill="white"/>
<path d="M227.132 222.723L226.152 222.526L225.857 223.997L227.328 223.703L227.132 222.723ZM227.304 221.867L228.285 222.063L228.579 220.592L227.108 220.886L227.304 221.867ZM225.405 222.245L224.425 222.049L224.13 223.52L225.601 223.226L225.405 222.245ZM225.462 221.965L224.733 221.281L224.537 221.489L224.481 221.769L225.462 221.965ZM227.687 219.594L227.492 218.614L227.178 218.676L226.958 218.91L227.687 219.594ZM228.285 219.475L229.265 219.672L229.56 218.201L228.089 218.494L228.285 219.475ZM227.893 221.429L226.913 221.232L226.618 222.703L228.089 222.409L227.893 221.429ZM228.465 221.315L229.445 221.511L229.74 220.041L228.269 220.334L228.465 221.315ZM228.398 221.648L228.593 222.629L229.247 222.499L229.378 221.845L228.398 221.648ZM227.826 221.762L227.631 220.782L226.977 220.912L226.846 221.566L227.826 221.762ZM227.654 222.618L227.85 223.599L228.504 223.468L228.635 222.815L227.654 222.618ZM227.371 221.533L227.567 222.514L228.22 222.383L228.351 221.73L227.371 221.533ZM227.699 219.987L228.664 220.251L229.091 218.693L227.506 219.006L227.699 219.987ZM227.68 219.99L227.487 219.009L227.12 219.082L226.89 219.377L227.68 219.99ZM227.248 220.522L227.97 221.214L227.991 221.192L228.01 221.17L227.248 220.522ZM226.034 221.79L225.311 221.099L225.111 221.309L225.053 221.594L226.034 221.79ZM226.032 221.8L225.051 221.604L224.756 223.074L226.228 222.781L226.032 221.8ZM228.113 222.919L228.285 222.063L226.324 221.67L226.152 222.526L228.113 222.919ZM227.108 220.886L225.21 221.265L225.601 223.226L227.5 222.847L227.108 220.886ZM226.386 222.442L226.442 222.162L224.481 221.769L224.425 222.049L226.386 222.442ZM226.191 222.65L228.416 220.279L226.958 218.91L224.733 221.281L226.191 222.65ZM227.883 220.575L228.481 220.456L228.089 218.494L227.492 218.614L227.883 220.575ZM227.304 219.278L226.913 221.232L228.873 221.625L229.265 219.672L227.304 219.278ZM228.089 222.409L228.66 222.295L228.269 220.334L227.697 220.448L228.089 222.409ZM227.484 221.118L227.417 221.452L229.378 221.845L229.445 221.511L227.484 221.118ZM228.202 220.668L227.631 220.782L228.022 222.743L228.593 222.629L228.202 220.668ZM226.846 221.566L226.674 222.422L228.635 222.815L228.807 221.959L226.846 221.566ZM227.459 221.638L226.936 221.742L227.328 223.703L227.85 223.599L227.459 221.638ZM228.351 221.73L228.562 220.68L226.601 220.287L226.39 221.337L228.351 221.73ZM228.562 220.68C228.59 220.539 228.624 220.396 228.664 220.251L226.735 219.722C226.683 219.912 226.638 220.1 226.601 220.287L228.562 220.68ZM227.506 219.006L227.487 219.009L227.874 220.972L227.893 220.968L227.506 219.006ZM226.89 219.377C226.739 219.573 226.62 219.717 226.486 219.875L228.01 221.17C228.16 220.993 228.298 220.826 228.47 220.604L226.89 219.377ZM226.525 219.831L225.311 221.099L226.756 222.482L227.97 221.214L226.525 219.831ZM225.053 221.594L225.051 221.604L227.012 221.997L227.014 221.987L225.053 221.594ZM226.228 222.781L227.567 222.514L227.175 220.552L225.836 220.82L226.228 222.781Z" fill="#FA2609" mask="url(#path-20-inside-9_220_37981)"/>
<mask id="path-22-inside-10_220_37981" fill="white">
<path d="M240.64 220.022L240.692 219.761L241.191 219.351C242.388 218.379 242.941 217.878 243.042 217.403C243.106 217.084 242.964 216.829 242.354 216.951C241.983 217.025 241.646 217.231 241.433 217.39L241.317 217.125C241.637 216.885 242.067 216.669 242.538 216.575C243.418 216.399 243.696 216.79 243.606 217.239C243.49 217.82 242.848 218.398 241.86 219.208L241.486 219.506L241.484 219.515L243.32 219.149L243.249 219.502L240.64 220.022Z"/>
</mask>
<path d="M240.64 220.022L240.692 219.761L241.191 219.351C242.388 218.379 242.941 217.878 243.042 217.403C243.106 217.084 242.964 216.829 242.354 216.951C241.983 217.025 241.646 217.231 241.433 217.39L241.317 217.125C241.637 216.885 242.067 216.669 242.538 216.575C243.418 216.399 243.696 216.79 243.606 217.239C243.49 217.82 242.848 218.398 241.86 219.208L241.486 219.506L241.484 219.515L243.32 219.149L243.249 219.502L240.64 220.022Z" fill="white"/>
<path d="M240.64 220.022L239.66 219.826L239.365 221.296L240.836 221.003L240.64 220.022ZM240.692 219.761L240.057 218.989L239.782 219.216L239.712 219.565L240.692 219.761ZM241.191 219.351L240.561 218.574L240.555 218.579L241.191 219.351ZM243.042 217.403L244.02 217.611L244.022 217.599L243.042 217.403ZM242.354 216.951L242.55 217.932L242.55 217.931L242.354 216.951ZM241.433 217.39L240.518 217.791L241.023 218.943L242.031 218.192L241.433 217.39ZM241.317 217.125L240.717 216.326L240.083 216.801L240.402 217.527L241.317 217.125ZM242.538 216.575L242.343 215.594L242.343 215.594L242.538 216.575ZM241.86 219.208L242.483 219.99L242.493 219.981L241.86 219.208ZM241.486 219.506L240.863 218.723L240.577 218.951L240.505 219.309L241.486 219.506ZM241.484 219.515L240.504 219.318L240.209 220.789L241.68 220.496L241.484 219.515ZM243.32 219.149L244.3 219.345L244.595 217.875L243.124 218.168L243.32 219.149ZM243.249 219.502L243.444 220.483L244.098 220.352L244.229 219.699L243.249 219.502ZM241.621 220.219L241.673 219.958L239.712 219.565L239.66 219.826L241.621 220.219ZM241.328 220.533L241.827 220.123L240.555 218.579L240.057 218.989L241.328 220.533ZM241.821 220.127C242.414 219.646 242.895 219.243 243.241 218.891C243.575 218.55 243.908 218.136 244.02 217.611L242.064 217.194C242.075 217.144 242.08 217.218 241.814 217.49C241.559 217.749 241.165 218.084 240.561 218.574L241.821 220.127ZM244.022 217.599C244.082 217.301 244.114 216.689 243.599 216.25C243.132 215.852 242.541 215.894 242.158 215.97L242.55 217.931C242.637 217.914 242.648 217.923 242.609 217.918C242.565 217.913 242.437 217.887 242.302 217.773C242.161 217.652 242.092 217.501 242.068 217.383C242.047 217.28 242.06 217.213 242.062 217.206L244.022 217.599ZM242.159 215.97C241.577 216.086 241.1 216.391 240.836 216.588L242.031 218.192C242.103 218.138 242.193 218.079 242.291 218.028C242.39 217.978 242.478 217.946 242.55 217.932L242.159 215.97ZM242.349 216.988L242.233 216.724L240.402 217.527L240.518 217.791L242.349 216.988ZM241.918 217.925C242.134 217.763 242.428 217.617 242.734 217.556L242.343 215.594C241.706 215.721 241.141 216.007 240.717 216.326L241.918 217.925ZM242.734 217.556C242.879 217.527 242.949 217.532 242.963 217.533C242.973 217.535 242.906 217.528 242.819 217.46C242.726 217.386 242.665 217.286 242.638 217.19C242.614 217.105 242.624 217.05 242.626 217.043L244.587 217.436C244.679 216.974 244.612 216.324 244.053 215.886C243.546 215.488 242.897 215.484 242.343 215.594L242.734 217.556ZM242.626 217.043C242.623 217.058 242.587 217.18 242.331 217.453C242.083 217.718 241.724 218.026 241.226 218.434L242.493 219.981C242.984 219.579 243.44 219.194 243.79 218.821C244.13 218.458 244.473 218.001 244.587 217.436L242.626 217.043ZM241.237 218.426L240.863 218.723L242.109 220.288L242.483 219.99L241.237 218.426ZM240.505 219.309L240.504 219.318L242.465 219.712L242.466 219.702L240.505 219.309ZM241.68 220.496L243.515 220.129L243.124 218.168L241.288 218.534L241.68 220.496ZM242.339 218.952L242.268 219.305L244.229 219.699L244.3 219.345L242.339 218.952ZM243.053 218.521L240.444 219.042L240.836 221.003L243.444 220.483L243.053 218.521Z" fill="#FA2609" mask="url(#path-22-inside-10_220_37981)"/>
<mask id="path-24-inside-11_220_37981" fill="white">
<path d="M246.775 216.073C246.663 216.091 246.517 216.125 246.356 216.176C245.467 216.46 244.91 217.04 244.712 217.576L244.731 217.572C244.965 217.335 245.338 217.103 245.79 217.013C246.513 216.869 246.942 217.168 246.819 217.782C246.703 218.358 246.087 218.991 245.239 219.161C244.365 219.335 243.898 218.927 244.062 218.11C244.186 217.491 244.572 216.945 245.037 216.555C245.428 216.231 245.913 215.981 246.438 215.83C246.605 215.778 246.744 215.745 246.845 215.725L246.775 216.073ZM246.254 217.918C246.345 217.468 246.066 217.264 245.556 217.366C245.223 217.432 244.884 217.653 244.687 217.911C244.639 217.966 244.602 218.034 244.586 218.112C244.495 218.627 244.726 218.947 245.305 218.832C245.783 218.736 246.164 218.368 246.254 217.918Z"/>
</mask>
<path d="M246.775 216.073C246.663 216.091 246.517 216.125 246.356 216.176C245.467 216.46 244.91 217.04 244.712 217.576L244.731 217.572C244.965 217.335 245.338 217.103 245.79 217.013C246.513 216.869 246.942 217.168 246.819 217.782C246.703 218.358 246.087 218.991 245.239 219.161C244.365 219.335 243.898 218.927 244.062 218.11C244.186 217.491 244.572 216.945 245.037 216.555C245.428 216.231 245.913 215.981 246.438 215.83C246.605 215.778 246.744 215.745 246.845 215.725L246.775 216.073ZM246.254 217.918C246.345 217.468 246.066 217.264 245.556 217.366C245.223 217.432 244.884 217.653 244.687 217.911C244.639 217.966 244.602 218.034 244.586 218.112C244.495 218.627 244.726 218.947 245.305 218.832C245.783 218.736 246.164 218.368 246.254 217.918Z" fill="white"/>
<path d="M246.775 216.073L246.928 217.062L247.618 216.955L247.756 216.27L246.775 216.073ZM246.356 216.176L246.056 215.222L246.052 215.223L246.356 216.176ZM244.712 217.576L243.774 217.23L243.156 218.902L244.905 218.557L244.712 217.576ZM244.731 217.572L244.924 218.553L245.226 218.494L245.442 218.275L244.731 217.572ZM245.79 217.013L245.986 217.993L245.986 217.993L245.79 217.013ZM245.239 219.161L245.434 220.141L245.434 220.141L245.239 219.161ZM245.037 216.555L244.399 215.785L244.394 215.789L245.037 216.555ZM246.438 215.83L246.715 216.791L246.724 216.788L246.734 216.785L246.438 215.83ZM246.845 215.725L247.825 215.922L248.12 214.451L246.649 214.744L246.845 215.725ZM245.556 217.366L245.361 216.385L245.361 216.385L245.556 217.366ZM244.687 217.911L245.447 218.561L245.465 218.539L245.482 218.517L244.687 217.911ZM244.586 218.112L243.606 217.915L243.604 217.927L243.602 217.938L244.586 218.112ZM245.305 218.832L245.501 219.812L245.501 219.812L245.305 218.832ZM246.622 215.085C246.451 215.112 246.255 215.159 246.056 215.222L246.656 217.13C246.779 217.091 246.875 217.07 246.928 217.062L246.622 215.085ZM246.052 215.223C244.913 215.586 244.093 216.364 243.774 217.23L245.65 217.922C245.726 217.716 246.02 217.333 246.66 217.128L246.052 215.223ZM244.905 218.557L244.924 218.553L244.537 216.591L244.518 216.595L244.905 218.557ZM245.442 218.275C245.547 218.169 245.744 218.042 245.986 217.993L245.595 216.032C244.932 216.164 244.383 216.501 244.019 216.869L245.442 218.275ZM245.986 217.993C246.087 217.973 246.139 217.977 246.15 217.978C246.16 217.979 246.106 217.975 246.03 217.919C245.946 217.857 245.883 217.767 245.855 217.674C245.83 217.593 245.845 217.554 245.838 217.586L247.799 217.979C247.913 217.412 247.798 216.736 247.213 216.307C246.706 215.935 246.082 215.935 245.595 216.032L245.986 217.993ZM245.838 217.586C245.831 217.621 245.784 217.744 245.628 217.886C245.482 218.021 245.279 218.133 245.043 218.18L245.434 220.141C246.609 219.907 247.591 219.016 247.799 217.979L245.838 217.586ZM245.043 218.18C244.91 218.207 244.841 218.201 244.822 218.198C244.809 218.195 244.86 218.201 244.925 218.259C244.956 218.287 244.981 218.319 245 218.351C245.018 218.383 245.026 218.408 245.028 218.42C245.033 218.441 245.021 218.41 245.042 218.306L243.081 217.913C242.962 218.509 243.022 219.244 243.597 219.755C244.141 220.237 244.858 220.256 245.434 220.141L245.043 218.18ZM245.042 218.306C245.111 217.962 245.343 217.603 245.68 217.321L244.394 215.789C243.801 216.286 243.26 217.019 243.081 217.913L245.042 218.306ZM245.675 217.325C245.951 217.096 246.31 216.907 246.715 216.791L246.161 214.869C245.516 215.055 244.905 215.365 244.399 215.785L245.675 217.325ZM246.734 216.785C246.865 216.744 246.97 216.72 247.041 216.706L246.649 214.744C246.518 214.771 246.345 214.812 246.142 214.875L246.734 216.785ZM245.865 215.529L245.795 215.877L247.756 216.27L247.825 215.922L245.865 215.529ZM247.235 218.115C247.322 217.679 247.276 217.058 246.743 216.644C246.281 216.287 245.726 216.312 245.361 216.385L245.752 218.346C245.804 218.336 245.806 218.343 245.77 218.338C245.733 218.334 245.631 218.313 245.518 218.226C245.395 218.131 245.32 218.003 245.288 217.884C245.261 217.779 245.275 217.715 245.274 217.721L247.235 218.115ZM245.361 216.385C244.78 216.501 244.23 216.86 243.892 217.304L245.482 218.517C245.537 218.445 245.667 218.363 245.752 218.346L245.361 216.385ZM243.927 217.26C243.789 217.422 243.661 217.642 243.606 217.915L245.567 218.308C245.543 218.426 245.49 218.51 245.447 218.561L243.927 217.26ZM243.602 217.938C243.533 218.329 243.533 218.919 243.956 219.382C244.409 219.879 245.04 219.904 245.501 219.812L245.109 217.851C245.058 217.861 245.079 217.848 245.146 217.863C245.224 217.88 245.337 217.928 245.433 218.034C245.525 218.135 245.555 218.236 245.563 218.283C245.571 218.325 245.563 218.331 245.571 218.286L243.602 217.938ZM245.501 219.812C246.345 219.644 247.06 218.988 247.235 218.115L245.274 217.721C245.272 217.73 245.263 217.757 245.231 217.788C245.199 217.818 245.156 217.842 245.109 217.851L245.501 219.812Z" fill="#FA2609" mask="url(#path-24-inside-11_220_37981)"/>
<mask id="path-26-inside-12_220_37981" fill="white">
<path d="M259.34 215.829C259.482 215.874 259.822 215.923 260.205 215.846C260.916 215.704 261.206 215.312 261.251 215.053C261.334 214.614 260.856 214.528 260.322 214.635L260.014 214.696L260.078 214.377L260.386 214.316C260.788 214.235 261.329 213.974 261.404 213.602C261.454 213.35 261.292 213.169 260.782 213.271C260.455 213.336 260.118 213.51 259.923 213.642L259.841 213.361C260.078 213.197 260.518 212.994 260.958 212.906C261.763 212.745 262.053 213.04 261.977 213.422C261.912 213.746 261.605 214.072 261.074 214.313L261.072 214.322C261.56 214.299 261.91 214.508 261.822 214.948C261.721 215.451 261.123 215.993 260.142 216.188C259.684 216.28 259.304 216.249 259.123 216.187L259.34 215.829Z"/>
</mask>
<path d="M259.34 215.829C259.482 215.874 259.822 215.923 260.205 215.846C260.916 215.704 261.206 215.312 261.251 215.053C261.334 214.614 260.856 214.528 260.322 214.635L260.014 214.696L260.078 214.377L260.386 214.316C260.788 214.235 261.329 213.974 261.404 213.602C261.454 213.35 261.292 213.169 260.782 213.271C260.455 213.336 260.118 213.51 259.923 213.642L259.841 213.361C260.078 213.197 260.518 212.994 260.958 212.906C261.763 212.745 262.053 213.04 261.977 213.422C261.912 213.746 261.605 214.072 261.074 214.313L261.072 214.322C261.56 214.299 261.91 214.508 261.822 214.948C261.721 215.451 261.123 215.993 260.142 216.188C259.684 216.28 259.304 216.249 259.123 216.187L259.34 215.829Z" fill="white"/>
<path d="M259.34 215.829L259.648 214.877L258.895 214.633L258.485 215.311L259.34 215.829ZM260.205 215.846L260.01 214.865L260.01 214.865L260.205 215.846ZM261.251 215.053L260.268 214.869L260.267 214.879L261.251 215.053ZM260.322 214.635L260.517 215.615L260.517 215.615L260.322 214.635ZM260.014 214.696L259.033 214.499L258.738 215.97L260.209 215.677L260.014 214.696ZM260.078 214.377L259.882 213.396L259.228 213.527L259.097 214.18L260.078 214.377ZM260.386 214.316L260.19 213.335L260.19 213.335L260.386 214.316ZM260.782 213.271L260.587 212.29L260.586 212.29L260.782 213.271ZM259.923 213.642L258.963 213.923L259.348 215.234L260.481 214.471L259.923 213.642ZM259.841 213.361L259.274 212.537L258.677 212.947L258.881 213.642L259.841 213.361ZM260.958 212.906L260.762 211.925L260.762 211.925L260.958 212.906ZM261.074 214.313L260.661 213.402L260.194 213.613L260.093 214.116L261.074 214.313ZM261.072 214.322L260.091 214.126L259.84 215.381L261.119 215.321L261.072 214.322ZM260.142 216.188L259.947 215.208L259.947 215.208L260.142 216.188ZM259.123 216.187L258.267 215.67L257.623 216.733L258.801 217.134L259.123 216.187ZM259.032 216.78C259.341 216.88 259.855 216.936 260.401 216.827L260.01 214.865C259.911 214.885 259.815 214.889 259.737 214.885C259.698 214.883 259.667 214.879 259.648 214.875C259.625 214.872 259.626 214.87 259.648 214.877L259.032 216.78ZM260.401 216.827C261.398 216.628 262.1 215.999 262.236 215.226L260.267 214.879C260.278 214.812 260.299 214.773 260.308 214.757C260.319 214.739 260.324 214.737 260.314 214.746C260.297 214.76 260.216 214.824 260.01 214.865L260.401 216.827ZM262.234 215.237C262.289 214.945 262.269 214.592 262.069 214.266C261.876 213.949 261.589 213.781 261.355 213.698C260.924 213.544 260.457 213.588 260.126 213.654L260.517 215.615C260.601 215.599 260.664 215.593 260.705 215.593C260.751 215.593 260.735 215.6 260.681 215.581C260.622 215.56 260.473 215.489 260.362 215.308C260.246 215.118 260.255 214.941 260.269 214.869L262.234 215.237ZM260.126 213.654L259.818 213.715L260.209 215.677L260.517 215.615L260.126 213.654ZM260.994 214.893L261.058 214.574L259.097 214.18L259.033 214.499L260.994 214.893ZM260.274 215.358L260.582 215.296L260.19 213.335L259.882 213.396L260.274 215.358ZM260.582 215.296C260.885 215.235 261.237 215.11 261.548 214.916C261.827 214.741 262.266 214.388 262.384 213.798L260.423 213.405C260.447 213.289 260.498 213.222 260.513 213.205C260.528 213.188 260.525 213.197 260.487 213.22C260.452 213.242 260.404 213.266 260.346 213.289C260.288 213.311 260.233 213.326 260.19 213.335L260.582 215.296ZM262.384 213.798C262.46 213.423 262.403 212.828 261.85 212.466C261.414 212.182 260.915 212.224 260.587 212.29L260.978 214.251C261.045 214.238 261.055 214.243 261.025 214.241C260.996 214.239 260.886 214.226 260.756 214.141C260.612 214.046 260.5 213.9 260.447 213.732C260.398 213.58 260.412 213.46 260.423 213.405L262.384 213.798ZM260.586 212.29C260.089 212.389 259.63 212.634 259.364 212.812L260.481 214.471C260.533 214.436 260.618 214.387 260.718 214.341C260.82 214.295 260.911 214.265 260.978 214.251L260.586 212.29ZM260.883 213.36L260.8 213.08L258.881 213.642L258.963 213.923L260.883 213.36ZM260.407 214.185C260.459 214.15 260.566 214.088 260.713 214.026C260.858 213.965 261.012 213.915 261.154 213.887L260.762 211.925C260.188 212.04 259.623 212.297 259.274 212.537L260.407 214.185ZM261.154 213.887C261.29 213.859 261.364 213.86 261.389 213.862C261.414 213.864 261.359 213.865 261.271 213.811C261.172 213.749 261.076 213.643 261.025 213.503C260.977 213.374 260.987 213.271 260.996 213.226L262.957 213.619C263.059 213.112 262.918 212.478 262.324 212.11C261.839 211.81 261.255 211.827 260.762 211.925L261.154 213.887ZM260.996 213.226C261.011 213.151 261.039 213.145 260.991 213.194C260.944 213.241 260.843 213.32 260.661 213.402L261.486 215.224C262.143 214.926 262.8 214.404 262.957 213.619L260.996 213.226ZM260.093 214.116L260.091 214.126L262.052 214.519L262.054 214.509L260.093 214.116ZM261.119 215.321C261.167 215.319 261.186 215.324 261.181 215.323C261.177 215.322 261.126 215.31 261.058 215.258C260.984 215.202 260.907 215.11 260.865 214.988C260.825 214.871 260.835 214.782 260.841 214.751L262.802 215.144C262.912 214.594 262.745 214.027 262.267 213.665C261.869 213.363 261.389 213.306 261.025 213.323L261.119 215.321ZM260.841 214.751C260.851 214.704 260.851 214.774 260.696 214.896C260.55 215.009 260.305 215.136 259.947 215.208L260.338 217.169C261.508 216.935 262.587 216.215 262.802 215.144L260.841 214.751ZM259.947 215.208C259.789 215.239 259.652 215.248 259.551 215.245C259.436 215.243 259.406 215.228 259.445 215.241L258.801 217.134C259.2 217.27 259.77 217.282 260.338 217.169L259.947 215.208ZM259.978 216.705L260.196 216.347L258.485 215.311L258.267 215.67L259.978 216.705Z" fill="#FA2609" mask="url(#path-26-inside-12_220_37981)"/>
<mask id="path-28-inside-13_220_37981" fill="white">
<path d="M262.328 215.699L262.38 215.438L262.879 215.028C264.075 214.056 264.628 213.555 264.729 213.08C264.793 212.761 264.651 212.506 264.042 212.628C263.671 212.702 263.334 212.908 263.121 213.067L263.005 212.802C263.325 212.562 263.754 212.346 264.226 212.252C265.106 212.076 265.384 212.467 265.294 212.916C265.177 213.497 264.536 214.075 263.547 214.885L263.173 215.182L263.171 215.192L265.007 214.826L264.936 215.179L262.328 215.699Z"/>
</mask>
<path d="M262.328 215.699L262.38 215.438L262.879 215.028C264.075 214.056 264.628 213.555 264.729 213.08C264.793 212.761 264.651 212.506 264.042 212.628C263.671 212.702 263.334 212.908 263.121 213.067L263.005 212.802C263.325 212.562 263.754 212.346 264.226 212.252C265.106 212.076 265.384 212.467 265.294 212.916C265.177 213.497 264.536 214.075 263.547 214.885L263.173 215.182L263.171 215.192L265.007 214.826L264.936 215.179L262.328 215.699Z" fill="white"/>
<path d="M262.328 215.699L261.347 215.503L261.052 216.973L262.523 216.68L262.328 215.699ZM262.38 215.438L261.744 214.666L261.469 214.893L261.399 215.242L262.38 215.438ZM262.879 215.028L262.248 214.251L262.243 214.256L262.879 215.028ZM264.729 213.08L265.708 213.288L265.71 213.276L264.729 213.08ZM264.042 212.628L264.237 213.609L264.238 213.608L264.042 212.628ZM263.121 213.067L262.205 213.468L262.71 214.62L263.718 213.869L263.121 213.067ZM263.005 212.802L262.404 212.003L261.771 212.478L262.089 213.204L263.005 212.802ZM264.226 212.252L264.03 211.271L264.03 211.271L264.226 212.252ZM263.547 214.885L264.17 215.667L264.181 215.658L263.547 214.885ZM263.173 215.182L262.55 214.4L262.265 214.628L262.193 214.986L263.173 215.182ZM263.171 215.192L262.191 214.995L261.896 216.466L263.367 216.173L263.171 215.192ZM265.007 214.826L265.987 215.022L266.282 213.551L264.811 213.845L265.007 214.826ZM264.936 215.179L265.132 216.16L265.785 216.029L265.917 215.376L264.936 215.179ZM263.308 215.896L263.36 215.635L261.399 215.242L261.347 215.503L263.308 215.896ZM263.016 216.21L263.514 215.8L262.243 214.256L261.744 214.666L263.016 216.21ZM263.509 215.804C264.102 215.323 264.582 214.92 264.928 214.568C265.263 214.227 265.596 213.813 265.708 213.288L263.751 212.871C263.762 212.821 263.768 212.896 263.501 213.167C263.246 213.427 262.852 213.761 262.248 214.251L263.509 215.804ZM265.71 213.276C265.77 212.978 265.802 212.366 265.287 211.927C264.819 211.529 264.228 211.571 263.846 211.647L264.238 213.608C264.324 213.591 264.336 213.6 264.296 213.595C264.253 213.59 264.124 213.564 263.99 213.45C263.848 213.329 263.78 213.178 263.756 213.06C263.734 212.957 263.748 212.89 263.749 212.883L265.71 213.276ZM263.846 211.647C263.264 211.763 262.787 212.068 262.524 212.265L263.718 213.869C263.79 213.815 263.881 213.756 263.978 213.705C264.078 213.654 264.166 213.623 264.237 213.609L263.846 211.647ZM264.037 212.665L263.921 212.401L262.089 213.204L262.205 213.468L264.037 212.665ZM263.605 213.602C263.821 213.44 264.115 213.294 264.422 213.233L264.03 211.271C263.394 211.398 262.828 211.684 262.404 212.003L263.605 213.602ZM264.422 213.233C264.567 213.204 264.637 213.209 264.65 213.21C264.661 213.212 264.594 213.205 264.507 213.137C264.413 213.063 264.352 212.963 264.325 212.867C264.302 212.782 264.312 212.727 264.313 212.72L266.274 213.113C266.367 212.651 266.3 212.001 265.74 211.563C265.233 211.165 264.585 211.161 264.03 211.271L264.422 213.233ZM264.313 212.72C264.31 212.735 264.274 212.857 264.018 213.13C263.77 213.395 263.411 213.703 262.913 214.111L264.181 215.658C264.672 215.256 265.128 214.871 265.477 214.498C265.818 214.135 266.161 213.678 266.274 213.113L264.313 212.72ZM262.924 214.103L262.55 214.4L263.796 215.965L264.17 215.667L262.924 214.103ZM262.193 214.986L262.191 214.995L264.152 215.389L264.154 215.379L262.193 214.986ZM263.367 216.173L265.203 215.806L264.811 213.845L262.976 214.211L263.367 216.173ZM264.026 214.629L263.956 214.982L265.917 215.376L265.987 215.022L264.026 214.629ZM264.74 214.198L262.132 214.719L262.523 216.68L265.132 216.16L264.74 214.198Z" fill="#FA2609" mask="url(#path-28-inside-13_220_37981)"/>
<mask id="path-30-inside-14_220_37981" fill="white">
<path d="M277.953 212.588L278.124 211.732L276.226 212.111L276.282 211.83L278.508 209.46L279.105 209.34L278.713 211.294L279.285 211.18L279.218 211.513L278.646 211.627L278.475 212.484L277.953 212.588ZM278.191 211.398L278.402 210.349C278.435 210.184 278.474 210.019 278.52 209.852L278.501 209.856C278.338 210.065 278.21 210.22 278.068 210.388L276.854 211.656L276.852 211.666L278.191 211.398Z"/>
</mask>
<path d="M277.953 212.588L278.124 211.732L276.226 212.111L276.282 211.83L278.508 209.46L279.105 209.34L278.713 211.294L279.285 211.18L279.218 211.513L278.646 211.627L278.475 212.484L277.953 212.588ZM278.191 211.398L278.402 210.349C278.435 210.184 278.474 210.019 278.52 209.852L278.501 209.856C278.338 210.065 278.21 210.22 278.068 210.388L276.854 211.656L276.852 211.666L278.191 211.398Z" fill="white"/>
<path d="M277.953 212.588L276.972 212.391L276.677 213.863L278.149 213.569L277.953 212.588ZM278.124 211.732L279.105 211.928L279.4 210.458L277.929 210.751L278.124 211.732ZM276.226 212.111L275.245 211.914L274.95 213.385L276.421 213.091L276.226 212.111ZM276.282 211.83L275.553 211.146L275.358 211.354L275.301 211.634L276.282 211.83ZM278.508 209.46L278.312 208.479L277.998 208.542L277.779 208.775L278.508 209.46ZM279.105 209.34L280.086 209.537L280.381 208.066L278.909 208.36L279.105 209.34ZM278.713 211.294L277.733 211.098L277.438 212.569L278.909 212.275L278.713 211.294ZM279.285 211.18L280.266 211.377L280.561 209.906L279.089 210.199L279.285 211.18ZM279.218 211.513L279.414 212.494L280.068 212.364L280.199 211.71L279.218 211.513ZM278.646 211.627L278.451 210.647L277.797 210.777L277.666 211.431L278.646 211.627ZM278.475 212.484L278.671 213.464L279.324 213.334L279.455 212.68L278.475 212.484ZM278.191 211.398L278.387 212.379L279.041 212.249L279.172 211.595L278.191 211.398ZM278.52 209.852L279.484 210.116L279.911 208.559L278.326 208.871L278.52 209.852ZM278.501 209.856L278.307 208.875L277.94 208.947L277.711 209.242L278.501 209.856ZM278.068 210.388L278.79 211.079L278.811 211.058L278.83 211.035L278.068 210.388ZM276.854 211.656L276.132 210.964L275.931 211.174L275.874 211.459L276.854 211.656ZM276.852 211.666L275.872 211.469L275.577 212.94L277.048 212.646L276.852 211.666ZM278.933 212.785L279.105 211.928L277.144 211.535L276.972 212.391L278.933 212.785ZM277.929 210.751L276.03 211.13L276.421 213.091L278.32 212.712L277.929 210.751ZM277.206 212.307L277.262 212.027L275.301 211.634L275.245 211.914L277.206 212.307ZM277.011 212.515L279.237 210.144L277.779 208.775L275.553 211.146L277.011 212.515ZM278.703 210.44L279.301 210.321L278.909 208.36L278.312 208.479L278.703 210.44ZM278.125 209.144L277.733 211.098L279.694 211.491L280.086 209.537L278.125 209.144ZM278.909 212.275L279.481 212.161L279.089 210.199L278.517 210.314L278.909 212.275ZM278.305 210.983L278.238 211.317L280.199 211.71L280.266 211.377L278.305 210.983ZM279.023 210.533L278.451 210.647L278.842 212.608L279.414 212.494L279.023 210.533ZM277.666 211.431L277.494 212.287L279.455 212.68L279.627 211.824L277.666 211.431ZM278.279 211.503L277.757 211.607L278.149 213.569L278.671 213.464L278.279 211.503ZM279.172 211.595L279.382 210.546L277.421 210.152L277.211 211.202L279.172 211.595ZM279.382 210.546C279.411 210.404 279.444 210.261 279.484 210.116L277.555 209.588C277.503 209.777 277.459 209.965 277.421 210.152L279.382 210.546ZM278.326 208.871L278.307 208.875L278.694 210.837L278.713 210.833L278.326 208.871ZM277.711 209.242C277.559 209.438 277.44 209.582 277.306 209.74L278.83 211.035C278.98 210.858 279.118 210.691 279.29 210.469L277.711 209.242ZM277.346 209.696L276.132 210.964L277.577 212.347L278.79 211.079L277.346 209.696ZM275.874 211.459L275.872 211.469L277.833 211.862L277.835 211.852L275.874 211.459ZM277.048 212.646L278.387 212.379L277.996 210.418L276.657 210.685L277.048 212.646Z" fill="#FA2609" mask="url(#path-30-inside-14_220_37981)"/>
<mask id="path-32-inside-15_220_37981" fill="white">
<path d="M279.433 212.279L279.485 212.018L279.984 211.608C281.181 210.636 281.734 210.135 281.835 209.66C281.899 209.341 281.757 209.086 281.147 209.208C280.776 209.282 280.439 209.488 280.226 209.647L280.11 209.382C280.43 209.142 280.86 208.926 281.331 208.832C282.211 208.656 282.489 209.046 282.399 209.496C282.283 210.076 281.641 210.655 280.653 211.465L280.279 211.762L280.277 211.772L282.113 211.406L282.042 211.759L279.433 212.279Z"/>
</mask>
<path d="M279.433 212.279L279.485 212.018L279.984 211.608C281.181 210.636 281.734 210.135 281.835 209.66C281.899 209.341 281.757 209.086 281.147 209.208C280.776 209.282 280.439 209.488 280.226 209.647L280.11 209.382C280.43 209.142 280.86 208.926 281.331 208.832C282.211 208.656 282.489 209.046 282.399 209.496C282.283 210.076 281.641 210.655 280.653 211.465L280.279 211.762L280.277 211.772L282.113 211.406L282.042 211.759L279.433 212.279Z" fill="white"/>
<path d="M279.433 212.279L278.453 212.083L278.158 213.553L279.629 213.26L279.433 212.279ZM279.485 212.018L278.85 211.246L278.575 211.473L278.505 211.822L279.485 212.018ZM279.984 211.608L279.354 210.831L279.348 210.836L279.984 211.608ZM281.835 209.66L282.813 209.868L282.815 209.856L281.835 209.66ZM281.147 209.208L281.343 210.188L281.343 210.188L281.147 209.208ZM280.226 209.647L279.311 210.048L279.815 211.2L280.824 210.449L280.226 209.647ZM280.11 209.382L279.51 208.582L278.876 209.058L279.195 209.784L280.11 209.382ZM281.331 208.832L281.136 207.851L281.136 207.851L281.331 208.832ZM280.653 211.465L281.276 212.247L281.286 212.238L280.653 211.465ZM280.279 211.762L279.656 210.98L279.37 211.208L279.298 211.566L280.279 211.762ZM280.277 211.772L279.297 211.575L279.002 213.046L280.473 212.753L280.277 211.772ZM282.113 211.406L283.093 211.602L283.388 210.131L281.917 210.425L282.113 211.406ZM282.042 211.759L282.237 212.739L282.891 212.609L283.022 211.955L282.042 211.759ZM280.413 212.476L280.466 212.215L278.505 211.822L278.453 212.083L280.413 212.476ZM280.121 212.79L280.62 212.38L279.348 210.836L278.85 211.246L280.121 212.79ZM280.614 212.384C281.207 211.903 281.688 211.5 282.034 211.148C282.368 210.807 282.701 210.393 282.813 209.868L280.857 209.451C280.868 209.401 280.873 209.476 280.607 209.747C280.352 210.006 279.958 210.341 279.354 210.831L280.614 212.384ZM282.815 209.856C282.875 209.558 282.907 208.946 282.392 208.507C281.925 208.109 281.334 208.151 280.952 208.227L281.343 210.188C281.43 210.171 281.441 210.18 281.402 210.175C281.358 210.17 281.229 210.144 281.095 210.03C280.954 209.909 280.885 209.758 280.861 209.64C280.84 209.537 280.853 209.47 280.854 209.463L282.815 209.856ZM280.952 208.227C280.37 208.343 279.893 208.648 279.629 208.845L280.824 210.449C280.896 210.395 280.986 210.335 281.084 210.285C281.183 210.234 281.271 210.203 281.343 210.188L280.952 208.227ZM281.142 209.245L281.026 208.98L279.195 209.784L279.311 210.048L281.142 209.245ZM280.711 210.182C280.927 210.019 281.22 209.874 281.527 209.813L281.136 207.851C280.499 207.978 279.934 208.264 279.51 208.582L280.711 210.182ZM281.527 209.813C281.672 209.784 281.742 209.789 281.756 209.79C281.766 209.792 281.699 209.785 281.612 209.717C281.519 209.643 281.458 209.543 281.431 209.447C281.407 209.362 281.417 209.307 281.419 209.299L283.38 209.693C283.472 209.231 283.405 208.581 282.846 208.142C282.339 207.745 281.69 207.741 281.136 207.851L281.527 209.813ZM281.419 209.299C281.416 209.315 281.38 209.437 281.123 209.71C280.876 209.974 280.517 210.283 280.019 210.691L281.286 212.238C281.777 211.836 282.233 211.451 282.582 211.078C282.923 210.715 283.266 210.258 283.38 209.693L281.419 209.299ZM280.029 210.683L279.656 210.98L280.902 212.545L281.276 212.247L280.029 210.683ZM279.298 211.566L279.297 211.575L281.258 211.968L281.259 211.959L279.298 211.566ZM280.473 212.753L282.308 212.386L281.917 210.425L280.081 210.791L280.473 212.753ZM281.132 211.209L281.061 211.562L283.022 211.955L283.093 211.602L281.132 211.209ZM281.846 210.778L279.237 211.299L279.629 213.26L282.237 212.739L281.846 210.778Z" fill="#FA2609" mask="url(#path-32-inside-15_220_37981)"/>
<mask id="path-34-inside-16_220_37981" fill="white">
<path d="M296.636 205.838L296.58 206.118L294.227 209.336L293.655 209.45L295.985 206.316L295.987 206.306L293.988 206.705L294.059 206.352L296.636 205.838Z"/>
</mask>
<path d="M296.636 205.838L296.58 206.118L294.227 209.336L293.655 209.45L295.985 206.316L295.987 206.306L293.988 206.705L294.059 206.352L296.636 205.838Z" fill="white"/>
<path d="M296.636 205.838L297.617 206.034L297.912 204.563L296.441 204.857L296.636 205.838ZM296.58 206.118L297.387 206.708L297.517 206.53L297.561 206.315L296.58 206.118ZM294.227 209.336L294.423 210.317L294.805 210.24L295.035 209.926L294.227 209.336ZM293.655 209.45L292.852 208.853L291.302 210.939L293.851 210.431L293.655 209.45ZM295.985 206.316L296.788 206.912L296.922 206.732L296.966 206.512L295.985 206.316ZM295.987 206.306L296.968 206.503L297.262 205.032L295.791 205.326L295.987 206.306ZM293.988 206.705L293.008 206.509L292.713 207.979L294.184 207.686L293.988 206.705ZM294.059 206.352L293.863 205.371L293.21 205.502L293.079 206.155L294.059 206.352ZM295.656 205.641L295.6 205.921L297.561 206.315L297.617 206.034L295.656 205.641ZM295.773 205.528L293.42 208.746L295.035 209.926L297.387 206.708L295.773 205.528ZM294.032 208.355L293.459 208.469L293.851 210.431L294.423 210.317L294.032 208.355ZM294.457 210.047L296.788 206.912L295.183 205.719L292.852 208.853L294.457 210.047ZM296.966 206.512L296.968 206.503L295.007 206.11L295.005 206.119L296.966 206.512ZM295.791 205.326L293.792 205.725L294.184 207.686L296.183 207.287L295.791 205.326ZM294.969 206.902L295.039 206.549L293.079 206.155L293.008 206.509L294.969 206.902ZM294.255 207.333L296.832 206.818L296.441 204.857L293.863 205.371L294.255 207.333Z" fill="#FA2609" mask="url(#path-34-inside-16_220_37981)"/>
<mask id="path-36-inside-17_220_37981" fill="white">
<path d="M298.317 205.878L298.305 205.88L297.535 206.317L297.493 206.015L298.459 205.469L298.931 205.375L298.301 208.518L297.766 208.625L298.317 205.878L298.317 205.878Z"/>
</mask>
<path d="M298.317 205.878L298.305 205.88L297.535 206.317L297.493 206.015L298.459 205.469L298.931 205.375L298.301 208.518L297.766 208.625L298.317 205.878L298.317 205.878Z" fill="white"/>
<path d="M298.317 205.878L298.507 206.86L298.514 204.897L298.317 205.878ZM298.305 205.88L298.115 204.898L297.954 204.93L297.811 205.011L298.305 205.88ZM297.535 206.317L296.545 206.455L296.748 207.913L298.029 207.187L297.535 206.317ZM297.493 206.015L297.001 205.144L296.409 205.479L296.502 206.153L297.493 206.015ZM298.459 205.469L298.264 204.488L298.107 204.52L297.968 204.598L298.459 205.469ZM298.931 205.375L299.911 205.571L300.206 204.1L298.735 204.394L298.931 205.375ZM298.301 208.518L298.496 209.499L299.15 209.368L299.281 208.715L298.301 208.518ZM297.766 208.625L296.786 208.428L296.491 209.899L297.962 209.605L297.766 208.625ZM298.317 205.878L298.513 204.897L297.533 204.701L297.336 205.681L298.317 205.878ZM298.128 204.896L298.115 204.898L298.494 206.862L298.507 206.86L298.128 204.896ZM297.811 205.011L297.042 205.447L298.029 207.187L298.798 206.75L297.811 205.011ZM298.525 206.179L298.483 205.877L296.502 206.153L296.545 206.455L298.525 206.179ZM297.985 206.885L298.951 206.34L297.968 204.598L297.001 205.144L297.985 206.885ZM298.655 206.45L299.127 206.355L298.735 204.394L298.264 204.488L298.655 206.45ZM297.95 205.178L297.32 208.321L299.281 208.715L299.911 205.571L297.95 205.178ZM298.105 207.537L297.57 207.644L297.962 209.605L298.496 209.499L298.105 207.537ZM298.747 208.821L299.297 206.074L297.336 205.681L296.786 208.428L298.747 208.821ZM298.12 206.858L298.12 206.858L298.514 204.897L298.513 204.897L298.12 206.858Z" fill="#FA2609" mask="url(#path-36-inside-17_220_37981)"/>
<path d="M263.257 115.983L261.947 121.108L254.822 122.174L256.133 117.049L263.257 115.983Z" fill="white" stroke="#FA2609"/>
<path d="M274.252 116.036L273.964 117.165L266.486 118.284L266.774 117.155L274.252 116.036Z" fill="white" stroke="#FA2609"/>
<path d="M286.55 114.122L285.092 119.208L277.941 120.071L279.398 114.985L286.55 114.122Z" fill="white" stroke="#FA2609"/>
<path d="M297.527 114.483L297.206 115.603L289.699 116.509L290.02 115.389L297.527 114.483Z" fill="white" stroke="#FA2609"/>
<path d="M270.859 167.951L272.493 159.805C280.185 158.335 286.567 159.419 290.705 162.271L281.735 169.8C279.214 167.912 275.371 167.196 270.859 167.951Z" fill="white" stroke="#FA2609"/>
<path d="M250.756 184.406C250.018 188.083 251.295 191.086 253.989 192.901C256.651 194.694 260.627 195.283 265.249 194.361C269.878 193.437 274.348 191.161 277.841 188.229C281.223 185.391 283.734 181.899 284.548 178.369L295.432 176.197C294.063 181.842 289.983 187.551 284.349 192.28C278.476 197.209 270.962 201.031 263.209 202.578C255.449 204.126 248.989 203.091 244.788 200.262C240.62 197.455 238.606 192.836 239.779 186.989C240.959 181.105 245.146 175.102 251.025 170.167C256.712 165.394 263.938 161.66 271.429 160.023L269.798 168.154C265.286 169.118 260.944 171.355 257.533 174.218C254.047 177.144 251.486 180.765 250.756 184.406Z" fill="white" stroke="#FA2609"/>
<path d="M284.743 177.31C285.109 174.516 284.274 172.149 282.512 170.455L291.532 162.885C294.977 165.671 296.613 169.892 295.661 175.131L284.743 177.31Z" fill="white" stroke="#FA2609"/>
<path d="M261.209 185.247L260.771 185.334L260.943 184.48L261.09 183.745L260.355 183.891L258.161 184.329L258.167 184.303L259.255 184.086L260.768 183.784L261.095 183.719L261.161 183.392L261.761 180.399L260.895 180.049L261.681 178.859L262.523 178.691L261.68 182.896L261.533 183.631L262.268 183.485L262.339 183.47L262.334 183.496L261.854 183.592L261.527 183.657L261.462 183.984L261.209 185.247ZM258.193 184.172L258.202 184.127L258.907 183.058L258.736 183.326L258.193 184.172Z" fill="white" stroke="#FA2609"/>
<path d="M267.001 180.169C267.164 180.183 267.329 180.23 267.475 180.334C267.82 180.581 267.853 180.98 267.79 181.296L267.437 183.059C267.349 183.496 267.113 183.821 266.796 184.043C267.441 183.67 267.841 183.134 267.96 182.541L268.344 180.626C268.416 180.265 268.321 180.14 268.265 180.095C268.179 180.026 267.944 179.938 267.443 180.038L267.001 180.169ZM267.001 180.169C267.138 180.115 267.287 180.069 267.443 180.038L267.001 180.169ZM265.315 180.29L265.787 180.511C265.488 180.708 265.243 180.985 265.121 181.332L264.725 181.411L265.385 178.12L268.609 177.476L268.604 177.502L266.087 178.004L265.76 178.07L265.694 178.396L265.315 180.29ZM266.087 184.351C265.939 184.398 265.783 184.438 265.619 184.471L265.618 184.471C264.926 184.609 264.54 184.524 264.367 184.403C264.253 184.325 264.136 184.162 264.202 183.755L264.67 183.629C264.699 183.838 264.785 184.041 264.974 184.197C265.288 184.459 265.706 184.428 266.005 184.369C266.032 184.363 266.06 184.357 266.087 184.351Z" fill="white" stroke="#FA2609"/>
<path d="M273.106 176.659C273.116 176.697 273.122 176.769 273.104 176.884C273.085 176.78 273.045 176.674 272.972 176.578C273.037 176.589 273.071 176.606 273.084 176.616C273.085 176.616 273.085 176.616 273.085 176.616C273.09 176.62 273.098 176.626 273.106 176.659ZM270.682 179.706C270.7 179.808 270.739 179.911 270.809 180.006C270.748 179.994 270.716 179.978 270.703 179.968C270.703 179.968 270.702 179.968 270.702 179.968C270.698 179.965 270.689 179.959 270.681 179.926C270.672 179.888 270.665 179.818 270.682 179.706ZM274.465 182.524C274.456 182.487 274.45 182.417 274.466 182.305C274.485 182.406 274.523 182.51 274.593 182.604C274.532 182.593 274.5 182.576 274.487 182.567C274.487 182.567 274.487 182.567 274.486 182.566C274.482 182.563 274.473 182.557 274.465 182.524ZM276.891 179.257C276.9 179.295 276.906 179.367 276.889 179.482C276.87 179.377 276.83 179.272 276.757 179.176C276.822 179.188 276.856 179.205 276.869 179.214C276.869 179.215 276.869 179.215 276.869 179.215C276.874 179.218 276.882 179.224 276.891 179.257Z" fill="white" stroke="#FA2609"/>
<path d="M207.078 180.675L208.711 172.529C216.403 171.059 222.786 172.143 226.924 174.994L217.954 182.523C215.433 180.636 211.59 179.92 207.078 180.675Z" fill="white" stroke="#FA2609"/>
<path d="M186.974 197.129C186.237 200.806 187.513 203.809 190.208 205.624C192.87 207.417 196.846 208.006 201.468 207.084C206.097 206.16 210.567 203.884 214.06 200.952C217.442 198.114 219.953 194.622 220.767 191.092L231.651 188.92C230.281 194.565 226.202 200.274 220.568 205.003C214.695 209.932 207.181 213.754 199.428 215.301C191.668 216.849 185.207 215.815 181.007 212.985C176.839 210.178 174.825 205.559 175.998 199.712C177.177 193.828 181.364 187.825 187.244 182.89C192.931 178.117 200.156 174.383 207.647 172.746L206.017 180.877C201.505 181.841 197.163 184.078 193.752 186.941C190.266 189.867 187.705 193.488 186.974 197.129Z" fill="white" stroke="#FA2609"/>
<path d="M220.962 190.033C221.328 187.239 220.493 184.872 218.731 183.178L227.75 175.608C231.196 178.394 232.832 182.615 231.88 187.855L220.962 190.033Z" fill="white" stroke="#FA2609"/>
<path d="M198.447 197.778L198.01 197.866L198.181 197.012L198.328 196.276L197.593 196.423L195.4 196.861L195.405 196.835L196.493 196.618L198.007 196.315L198.333 196.25L198.399 195.923L198.999 192.931L198.133 192.58L198.919 191.39L199.762 191.222L198.918 195.428L198.771 196.163L199.507 196.016L199.577 196.002L199.572 196.028L199.093 196.124L198.766 196.189L198.7 196.516L198.447 197.778ZM195.431 196.703L195.44 196.658L196.136 195.605L195.974 195.857L195.431 196.703Z" fill="white" stroke="#FA2609"/>
<path d="M204.239 192.701C204.402 192.715 204.567 192.762 204.713 192.866C205.058 193.113 205.092 193.512 205.028 193.828L204.675 195.591C204.587 196.028 204.351 196.352 204.035 196.574C204.68 196.202 205.079 195.666 205.198 195.073L205.582 193.158C205.655 192.797 205.559 192.672 205.503 192.626C205.417 192.557 205.182 192.47 204.682 192.57L204.239 192.701ZM204.239 192.701C204.376 192.647 204.525 192.601 204.682 192.57L204.239 192.701ZM202.553 192.822L203.025 193.043C202.726 193.24 202.481 193.517 202.359 193.863L201.963 193.942L202.623 190.651L205.847 190.008L205.842 190.034L203.325 190.536L202.998 190.601L202.933 190.928L202.553 192.822ZM203.243 196.901C203.27 196.895 203.297 196.889 203.324 196.883C203.176 196.93 203.02 196.97 202.857 197.003L202.857 197.003C202.165 197.141 201.779 197.055 201.605 196.935C201.491 196.857 201.374 196.694 201.44 196.287L201.908 196.161C201.937 196.37 202.024 196.572 202.212 196.729C202.526 196.991 202.945 196.96 203.243 196.901Z" fill="white" stroke="#FA2609"/>
<path d="M210.345 189.19C210.354 189.229 210.36 189.3 210.343 189.416C210.324 189.311 210.284 189.205 210.211 189.109C210.275 189.121 210.31 189.138 210.323 189.148C210.323 189.148 210.323 189.148 210.323 189.148C210.328 189.151 210.336 189.157 210.345 189.19ZM207.919 192.458C207.91 192.42 207.903 192.35 207.92 192.237C207.939 192.339 207.977 192.443 208.048 192.537C207.986 192.526 207.954 192.51 207.941 192.5C207.941 192.5 207.941 192.5 207.94 192.5C207.936 192.497 207.927 192.49 207.919 192.458ZM211.704 195.056C211.694 195.018 211.688 194.949 211.705 194.837C211.723 194.938 211.762 195.041 211.832 195.136C211.771 195.124 211.738 195.108 211.726 195.099C211.725 195.099 211.725 195.098 211.725 195.098C211.72 195.095 211.712 195.089 211.704 195.056ZM214.129 191.789C214.138 191.827 214.145 191.899 214.127 192.014C214.108 191.909 214.068 191.804 213.996 191.708C214.06 191.72 214.094 191.736 214.107 191.746C214.107 191.746 214.108 191.747 214.108 191.747C214.112 191.75 214.121 191.756 214.129 191.789Z" fill="white" stroke="#FA2609"/>
<path d="M106.866 198.699L107.239 199.026L107.569 198.655L120.298 184.35L147.706 208.591V247.767L37.1992 261.462V234.321L85.5271 180.004L106.866 198.699Z" fill="white" stroke="#FA2609"/>
<path d="M58.7057 181.715L58.7056 181.715C52.1747 182.524 46.9102 177.905 46.9102 171.385C46.9102 164.815 52.2512 158.807 58.8286 157.993C65.3596 157.185 70.6241 161.804 70.6241 168.323C70.6241 174.892 65.2831 180.901 58.7057 181.715Z" fill="white" stroke="#FA2609"/>
<path d="M124.858 147.215L124.858 147.215L147.703 144.383V160.501L109.629 165.219L109.69 165.715L109.629 165.219C106.577 165.597 104.133 163.449 104.133 160.408C104.133 157.318 106.654 154.48 109.752 154.096C109.752 154.096 109.752 154.096 109.752 154.096L119.847 152.846L120.286 152.792V152.35C120.286 149.838 122.338 147.527 124.858 147.215Z" fill="white" stroke="#FA2609"/>
<path d="M129.794 167.573L147.703 165.353V171.975L129.671 174.209L129.671 174.209C127.858 174.434 126.418 173.165 126.418 171.363C126.418 169.512 127.934 167.803 129.794 167.573Z" fill="white" stroke="#FA2609"/>
<path d="M126.867 331.83L126.867 331.83L53.9655 340.864L126.867 331.83ZM126.867 331.83C127.425 331.761 127.955 332.227 127.955 332.805V467.404C127.955 467.837 127.651 468.18 127.232 468.232L54.3316 477.265C53.7723 477.334 53.2422 476.869 53.2422 476.291V341.691M126.867 331.83L53.2422 341.691M53.2422 341.691C53.2422 341.258 53.5463 340.916 53.9652 340.864L53.2422 341.691Z" fill="white" stroke="#FA2609"/>
<path d="M120.792 395.288V401.941L60.4141 409.424V402.77L120.792 395.288Z" fill="white" stroke="#FA2609"/>
<path d="M120.792 412.532V419.186L60.4141 426.668V420.015L120.792 412.532Z" fill="white" stroke="#FA2609"/>
<path d="M120.792 429.777V436.43L60.4141 443.913V437.26L120.792 429.777Z" fill="white" stroke="#FA2609"/>
<path d="M126.867 331.829L126.867 331.829L53.9655 340.863L126.867 331.829ZM126.867 331.829C127.425 331.76 127.955 332.225 127.955 332.804V339.514M126.867 331.829L127.955 339.514M127.955 339.514L53.2422 348.772V341.69C53.2422 341.257 53.5463 340.915 53.9652 340.863L127.955 339.514Z" fill="white" stroke="#FA2609"/>
<path d="M104.618 450.068V457.552L76.5742 461.027V453.543L104.618 450.068Z" fill="white" stroke="#FA2609"/>
<path d="M38.2351 296.302L38.2351 296.302L93.4347 289.462C98.8569 288.79 103.223 292.622 103.223 298.033V353.232C103.224 358.693 98.7805 363.69 93.3117 364.368L38.1122 371.208C32.6899 371.88 28.3242 368.048 28.3242 362.638V307.438C28.3242 301.977 32.7664 296.98 38.2351 296.302Z" fill="white" stroke="#FA2609"/>
<path d="M79.8921 337.446L79.6585 337.808L79.9829 338.092L89.8812 346.765L85.1918 352.033L75.2876 343.357L74.968 343.077L74.6401 343.347C71.1969 346.185 67.0244 348.122 62.528 348.68C50.8925 350.122 41.457 341.849 41.457 330.224C41.457 318.55 50.969 307.855 62.651 306.407C74.2865 304.965 83.722 313.239 83.722 324.864C83.722 329.357 82.3027 333.705 79.8921 337.446ZM48.0301 329.288C48.0301 337.344 54.6062 343.099 62.651 342.101C70.6493 341.11 77.1489 333.81 77.1489 325.804C77.1489 317.748 70.5728 311.993 62.528 312.99C54.5297 313.982 48.0301 321.282 48.0301 329.288Z" fill="white" stroke="#FA2609"/>
<path d="M173.304 244.012L173.304 244.012L344.549 222.791L344.488 222.295L344.549 222.791C346.954 222.493 348.875 224.183 348.875 226.577V392.935C348.875 395.378 346.878 397.627 344.426 397.931L173.181 419.152C170.776 419.45 168.855 417.761 168.855 415.366V249.008C168.855 246.564 170.852 244.315 173.304 244.012Z" fill="white" stroke="#FA2609"/>
<path d="M348.875 251.655L168.855 273.963V249.009C168.855 246.565 170.852 244.316 173.304 244.013L173.304 244.013L344.549 222.793L344.488 222.297L344.549 222.793C346.954 222.494 348.875 224.184 348.875 226.578V251.655Z" fill="white" stroke="#FA2609"/>
<path d="M210.328 281.777V311.292L180.805 314.95V285.435L210.328 281.777Z" fill="white" stroke="#FA2609"/>
<path d="M252.451 276.557V306.07L222.93 309.729V280.215L252.451 276.557Z" fill="white" stroke="#FA2609"/>
<path d="M294.584 271.335V300.849L265.062 304.508V274.993L294.584 271.335Z" fill="white" stroke="#FA2609"/>
<path d="M336.726 266.113V295.628L307.203 299.287V269.773L336.726 266.113Z" fill="white" stroke="#FA2609"/>
<path d="M210.328 323.911V353.426L180.805 357.085V327.569L210.328 323.911Z" fill="white" stroke="#FA2609"/>
<path d="M252.451 318.69V348.205L222.93 351.863V322.349L252.451 318.69Z" fill="white" stroke="#FA2609"/>
<path d="M294.584 313.469V342.983L265.062 346.641V317.127L294.584 313.469Z" fill="white" stroke="#FA2609"/>
<path d="M336.726 308.247V337.763L307.203 341.421V311.906L336.726 308.247Z" fill="white" stroke="#FA2609"/>
<path d="M210.328 366.046V395.559L180.805 399.218V369.704L210.328 366.046Z" fill="white" stroke="#FA2609"/>
<path d="M252.451 360.824V390.339L222.93 393.997V364.482L252.451 360.824Z" fill="white" stroke="#FA2609"/>
<path d="M294.584 355.602V385.117L265.062 388.776V359.262L294.584 355.602Z" fill="white" stroke="#FA2609"/>
<path d="M336.726 350.382V379.896L307.203 383.555V354.04L336.726 350.382Z" fill="white" stroke="#FA2609"/>
<path d="M309.611 239.341V245.049L207.918 257.65V251.943L309.611 239.341Z" fill="white" stroke="#FA2609"/>
<path d="M236.818 388.547L236.818 388.547L291.872 381.725C293.906 381.473 295.526 382.899 295.525 384.923V384.923V421.377C295.525 423.45 293.828 425.362 291.748 425.62L250.104 430.78L249.824 430.815L249.709 431.072L244.363 443.013V432.058V431.492L243.802 431.562L236.695 432.442C234.659 432.694 233.039 431.267 233.039 429.244V392.79C233.039 390.717 234.737 388.805 236.818 388.547Z" fill="white" stroke="#FA2609"/>
<path d="M329.526 321.534L463.291 304.958C465.62 304.669 467.508 306.324 467.507 308.65V338.077C467.507 340.405 465.618 342.527 463.289 342.816L342.935 357.73L329.526 321.534ZM329.526 321.534L329.587 322.03C327.507 322.288 325.809 324.2 325.809 326.272V355.698C325.809 357.723 327.429 359.148 329.464 358.896L336.571 358.016L337.133 357.946V358.512V369.467L342.479 357.526L342.594 357.269L342.873 357.234L463.228 342.32C465.309 342.062 467.007 340.15 467.007 338.077V308.65V308.65C467.008 306.629 465.388 305.202 463.352 305.454L329.587 322.03L329.526 321.534Z" fill="white" stroke="#FA2609"/>
<path d="M339.937 330.325L339.937 330.325C338.739 330.474 337.758 331.581 337.758 332.772C337.758 333.913 338.662 334.711 339.814 334.569L452.881 320.557L339.937 330.325ZM339.937 330.325L453.004 316.314M339.937 330.325L453.004 316.314M453.004 316.314C453.004 316.314 453.005 316.314 453.005 316.314M453.004 316.314L453.005 316.314M453.005 316.314C454.157 316.171 455.061 316.97 455.061 318.111M453.005 316.314L455.061 318.111M455.061 318.111C455.061 319.3 454.08 320.407 452.882 320.557L455.061 318.111Z" fill="white" stroke="#FA2609"/>
<path d="M410.715 338.026L410.715 338.026L339.814 346.812C339.814 346.812 339.814 346.812 339.814 346.812C338.662 346.955 337.758 346.156 337.758 345.015C337.758 343.824 338.739 342.717 339.937 342.569L339.937 342.569L410.838 333.783C410.838 333.783 410.838 333.783 410.838 333.783C411.99 333.64 412.894 334.439 412.894 335.58C412.894 336.771 411.914 337.878 410.715 338.026Z" fill="white" stroke="#FA2609"/>
<path d="M458.607 230.751L458.607 230.751C459.754 230.608 460.653 231.404 460.653 232.539V283.386C460.653 284.572 459.676 285.674 458.484 285.821L458.484 285.821L363.57 297.583L363.569 297.583C362.424 297.726 361.523 296.932 361.523 295.796V244.949C361.523 243.763 362.5 242.661 363.693 242.513C363.693 242.513 363.693 242.513 363.693 242.513L458.607 230.751Z" fill="white" stroke="#FA2609"/>
<path d="M370.656 285.491V250.781L405.374 246.478V281.189L370.656 285.491Z" fill="white" stroke="#FA2609"/>
<path d="M401.788 277.766L401.788 277.766L392.779 273.69L392.485 273.558V273.235V266.705V266.187L393.002 266.205L393.337 266.217C393.337 266.217 393.337 266.217 393.337 266.217C393.916 266.236 394.521 265.852 394.784 265.248L401.788 277.766ZM401.788 277.766C403.359 278.476 404.587 279.682 405.341 281.193L370.942 285.456C371.713 283.767 372.949 282.262 374.523 281.16C374.523 281.16 374.523 281.16 374.523 281.16L383.531 274.852L383.745 274.703V274.443V267.913V267.253L383.11 267.431L382.775 267.525L382.774 267.525C382.182 267.692 381.657 267.448 381.437 266.995L380.722 265.522L380.722 265.522C380.531 265.128 380.575 264.592 380.901 264.137L381.438 263.386L381.543 263.239L381.53 263.059L381.306 259.95L381.306 259.95C381.241 259.053 381.404 258.117 381.785 257.23C382.684 255.14 384.657 253.633 386.809 253.366C386.809 253.366 386.809 253.366 386.809 253.366L389.543 253.027L389.543 253.027C391.682 252.762 393.587 253.768 394.453 255.567C394.824 256.338 394.989 257.221 394.924 258.14L394.7 261.305L394.685 261.512L394.821 261.669L395.358 262.285C395.358 262.285 395.358 262.285 395.358 262.285C395.632 262.601 395.713 263.1 395.498 263.597C395.498 263.597 395.498 263.597 395.498 263.597L394.784 265.248L401.788 277.766Z" fill="white" stroke="#FA2609"/>
<path d="M451.085 240.813V246.011L415.438 250.429V245.231L451.085 240.813Z" fill="white" stroke="#FA2609"/>
<path d="M414.938 259.777L451.585 255.235" stroke="#FA2609" stroke-width="2" stroke-miterlimit="10" stroke-linecap="round" stroke-linejoin="round"/>
<path d="M414.938 269.445L451.585 264.903" stroke="#FA2609" stroke-width="2" stroke-miterlimit="10" stroke-linecap="round" stroke-linejoin="round"/>
<path d="M414.938 279.113L423.236 278.084" stroke="#FA2609" stroke-width="2" stroke-miterlimit="10" stroke-linecap="round" stroke-linejoin="round"/>
<path d="M10.1167 127.399L10.1168 127.399C10.8467 127.308 11.5891 127.454 12.2121 127.859C17.5387 131.319 23.895 132.716 30.6043 131.884L30.6044 131.884C47.266 129.819 60.8304 114.569 60.8304 97.9166C60.8304 81.3136 47.3412 69.4896 30.726 71.5483C14.0644 73.6127 0.5 88.863 0.5 105.515C0.5 111.99 2.55296 117.915 6.42818 122.666C7.20342 123.615 7.30904 124.955 6.77219 126.125L10.1167 127.399ZM10.1167 127.399C9.57007 127.466 9.02787 127.667 8.53803 127.988L8.53592 127.989L4.78079 130.475L6.77198 126.125L10.1167 127.399Z" fill="white" stroke="#FA2609"/>
<path d="M451.221 57.507L451.221 57.507L378.321 66.5403L451.221 57.507ZM451.221 57.507C451.779 57.4377 452.309 57.9032 452.309 58.4814V193.081C452.309 193.514 452.005 193.856 451.586 193.908L378.686 202.942C378.128 203.011 377.598 202.545 377.598 201.967V67.3679M451.221 57.507L377.598 67.3679M377.598 67.3679C377.598 66.9349 377.902 66.5927 378.321 66.5404L377.598 67.3679Z" fill="white" stroke="#FA2609"/>
<path d="M452.309 66.1991V91.349L377.598 100.607V75.4562L452.309 66.1991Z" fill="white" stroke="#FA2609"/>
<path d="M445.148 103.72V110.374L384.77 117.855V111.202L445.148 103.72Z" fill="white" stroke="#FA2609"/>
<path d="M445.148 120.965V127.618L384.77 135.1V128.447L445.148 120.965Z" fill="white" stroke="#FA2609"/>
<path d="M445.148 138.21V144.863L384.77 152.344V145.691L445.148 138.21Z" fill="white" stroke="#FA2609"/>
<path d="M445.148 155.454V162.108L384.77 169.589V162.936L445.148 155.454Z" fill="white" stroke="#FA2609"/>
<path d="M451.221 57.507L451.221 57.507L378.321 66.5403L451.221 57.507ZM451.221 57.507C451.779 57.4377 452.309 57.9032 452.309 58.4814V65.1915M451.221 57.507L452.309 65.1915M452.309 65.1915L377.598 74.4499V67.3679C377.598 66.9349 377.902 66.5927 378.321 66.5404L452.309 65.1915Z" fill="white" stroke="#FA2609"/>
<path d="M428.972 175.745V183.228L400.93 186.703V179.22L428.972 175.745Z" fill="white" stroke="#FA2609"/>
<path d="M425.768 440.416L350.14 449.788C343.406 450.622 337.977 445.859 337.977 439.135V400.111C337.977 393.338 343.482 387.145 350.263 386.304L425.891 376.932C432.626 376.098 438.055 380.861 438.055 387.585V426.609C438.055 433.382 432.548 439.576 425.768 440.416Z" fill="white" stroke="#FA2609"/>
<path d="M400.96 399.592C407.625 405.857 407.34 417.137 400.139 424.797C392.938 432.457 381.698 433.439 375.033 427.174C368.368 420.909 368.653 409.629 375.854 401.969C383.055 394.309 394.295 393.327 400.96 399.592Z" fill="white" stroke="#FA2609"/>
<path d="M382.988 422.654V405.252L398.058 412.085L382.988 422.654Z" fill="white" stroke="#FA2609"/>
<path d="M337.51 106.564L341.949 114.23L342.084 114.463L342.352 114.479L351.492 115.021L345.031 122.604L344.886 122.774L344.916 122.995L346.172 132.231L337.648 129.202L337.425 129.123L337.222 129.245L328.814 134.318L330.045 124.958L330.079 124.702L329.889 124.526L323.414 118.532L332.726 115.672L332.93 115.609L333.026 115.42L337.51 106.564Z" fill="white" stroke="#FA2609"/>
<path d="M304.819 455.809L304.819 455.809C301.271 456.249 298.422 453.747 298.422 450.209C298.422 446.621 301.346 443.33 304.942 442.884C308.492 442.444 311.34 444.945 311.34 448.484C311.34 452.072 308.416 455.364 304.819 455.809Z" fill="white" stroke="#FA2609"/>
<path d="M145.501 298.463L145.501 298.463C149.049 298.023 151.898 300.525 151.898 304.063C151.898 307.65 148.974 310.943 145.378 311.388L145.378 311.388C141.829 311.828 138.98 309.326 138.98 305.788C138.98 302.201 141.904 298.909 145.501 298.463Z" fill="white" stroke="#FA2609"/>
<path d="M299.579 70.8915L299.579 70.8915C303.128 70.4515 305.976 72.9525 305.976 76.4914C305.976 80.08 303.052 83.371 299.456 83.8155L299.456 83.8155C295.906 84.2556 293.059 81.7534 293.059 78.2157C293.059 74.6283 295.983 71.3361 299.579 70.8915Z" fill="white" stroke="#FA2609"/>
<path d="M458.754 215.606C461.144 215.31 463.091 213.117 463.091 210.734C463.091 208.402 461.22 206.756 458.877 207.045L458.754 215.606ZM458.754 215.606C456.411 215.897 454.539 214.251 454.539 211.918M458.754 215.606L454.539 211.918M454.539 211.918C454.539 209.534 456.487 207.342 458.877 207.045L454.539 211.918Z" fill="white" stroke="#FA2609"/>
<path d="M354.926 174.437C357.315 174.14 359.263 171.946 359.263 169.564C359.263 167.23 357.393 165.585 355.049 165.875C352.659 166.172 350.711 168.364 350.711 170.748C350.711 173.081 352.581 174.727 354.926 174.437ZM354.926 174.437L354.987 174.933L354.926 174.437Z" fill="white" stroke="#FA2609"/>
<path d="M323.152 76.4717C325.542 76.1753 327.49 73.9825 327.49 71.5994C327.49 69.2659 325.619 67.6211 323.275 67.9105L323.152 76.4717ZM323.152 76.4717C320.808 76.7623 318.938 75.1166 318.938 72.7828C318.938 70.3997 320.885 68.207 323.275 67.9105L323.152 76.4717Z" fill="white" stroke="#FA2609"/>
<path d="M41.0048 403.216C41.0048 405.745 38.9384 408.072 36.4018 408.386C33.9118 408.695 31.9219 406.945 31.9219 404.466C31.9219 401.937 33.9882 399.61 36.5248 399.296C39.015 398.987 41.0048 400.736 41.0048 403.216Z" fill="white" stroke="#FA2609"/>
<path d="M484.583 133.139L484.583 133.139C486.45 131.043 489.398 130.742 491.162 132.288C492.921 133.832 492.984 136.767 491.119 138.861L491.118 138.861L482.452 148.591L473.83 141.027C473.83 141.027 473.83 141.027 473.83 141.027C472.07 139.483 472.008 136.548 473.873 134.453C475.74 132.357 478.689 132.056 480.452 133.603L480.452 133.603L482.166 135.106L482.539 135.433L482.869 135.063L484.583 133.139Z" stroke="#FA2609"/>
<path d="M92.6739 83.1479L92.674 83.1479C94.5404 81.0519 97.4895 80.7508 99.253 82.2976C101.013 83.8415 101.076 86.7763 99.2095 88.8697L99.2093 88.8699L90.5433 98.6002L81.9203 91.0363L81.9203 91.0363C80.1601 89.4924 80.0973 86.5588 81.964 84.4626L81.964 84.4626C83.8304 82.3667 86.7795 82.0656 88.543 83.6123L88.543 83.6124L90.257 85.1152L90.63 85.4422L90.96 85.0718L92.6739 83.1479Z" stroke="#FA2609"/>
<path d="M165.646 440.139L165.207 440.193V440.635V442.61C165.207 444.851 163.948 446.968 162.084 448.237L161.335 448.746L162.166 449.108C163.968 449.893 165.207 451.642 165.207 453.87V455.844V456.409L165.768 456.341L167.259 456.158L167.26 456.158C167.432 456.136 167.543 456.24 167.543 456.402V459.093C167.543 459.303 167.357 459.517 167.137 459.545C167.137 459.545 167.137 459.545 167.137 459.545L151.204 461.501L151.204 461.501C151.033 461.522 150.922 461.42 150.922 461.257V458.565C150.922 458.354 151.109 458.14 151.326 458.114L151.326 458.114L152.817 457.931L153.257 457.877V457.435V455.461C153.257 453.22 154.516 451.103 156.38 449.833L157.128 449.323L156.298 448.962C154.497 448.176 153.257 446.427 153.257 444.2V442.225V441.66L152.696 441.729L151.204 441.912L151.204 441.912C151.033 441.933 150.922 441.831 150.922 441.668V438.977C150.922 438.766 151.108 438.552 151.327 438.525C151.327 438.525 151.327 438.525 151.327 438.525L167.259 436.569L167.26 436.569C167.432 436.548 167.543 436.651 167.543 436.813V439.505C167.543 439.715 167.356 439.929 167.138 439.956L167.137 439.956L165.646 440.139ZM165.707 440.635L167.198 440.452V460.041C167.664 459.983 168.043 459.56 168.043 459.093V456.402C168.043 455.936 167.664 455.604 167.198 455.662L166.207 455.783V455.844H165.707L165.646 455.348L165.707 455.341V453.87C165.707 451.656 164.577 449.857 162.874 448.903C162.799 448.957 162.724 449.011 162.647 449.063L162.366 448.65L162.565 448.192C162.653 448.23 162.74 448.27 162.825 448.312C164.554 446.94 165.707 444.845 165.707 442.61V440.635ZM164.08 456.549L164.519 456.495V456.053V454.079C164.519 451.136 162.104 449.024 159.172 449.383L159.171 449.383C156.285 449.738 153.946 452.361 153.946 455.255V457.229V457.794L154.507 457.725L164.08 456.549ZM159.293 448.688L159.294 448.688C162.18 448.333 164.519 445.712 164.519 442.817V440.842V440.277L163.958 440.346L154.385 441.522L153.946 441.576V442.018V443.992C153.946 446.936 156.36 449.048 159.293 448.688Z" stroke="#FA2609"/>
<path d="M467.614 375.527L467.381 375.89L467.705 376.174L472.19 380.109L470.321 382.207L465.83 378.268L465.511 377.988L465.182 378.258C463.589 379.57 461.659 380.462 459.586 380.717C454.235 381.373 449.91 377.573 449.91 372.232C449.91 366.841 454.311 361.896 459.708 361.233L459.709 361.233C465.06 360.575 469.385 364.377 469.385 369.718C469.385 371.789 468.731 373.796 467.614 375.527ZM452.494 371.791C452.494 375.764 455.746 378.611 459.708 378.124C463.624 377.645 466.801 374.081 466.801 370.157C466.801 366.183 463.548 363.336 459.587 363.823C455.67 364.304 452.494 367.867 452.494 371.791Z" stroke="#FA2609"/>
<path d="M332.767 196.015L332.533 196.377L332.857 196.662L337.342 200.596L335.474 202.693L330.984 198.754L330.664 198.474L330.336 198.744C328.741 200.056 326.812 200.948 324.739 201.203C319.387 201.86 315.062 198.059 315.062 192.719C315.062 187.329 319.463 182.383 324.861 181.721C330.212 181.064 334.537 184.864 334.537 190.205C334.537 192.275 333.883 194.284 332.767 196.015ZM317.645 192.278C317.645 196.251 320.897 199.099 324.86 198.612C328.776 198.131 331.952 194.568 331.952 190.645C331.952 186.672 328.7 183.825 324.738 184.312C320.822 184.792 317.645 188.354 317.645 192.278Z" stroke="#FA2609"/>
</g>
<defs>
<clipPath id="clip0_220_37981">
<rect width="493" height="535" fill="white"/>
</clipPath>
</defs>
</svg>
