<svg width="493" height="535" viewBox="0 0 493 535" fill="none" xmlns="http://www.w3.org/2000/svg">
<path d="M439.742 91.1562H1.72266V481.598H439.742V91.1562Z" stroke="#FA2609" stroke-miterlimit="10"/>
<path opacity="0.77" d="M50.3906 91.1562V481.597" stroke="#FA2609" stroke-miterlimit="10"/>
<path opacity="0.77" d="M99.0625 91.1562V481.597" stroke="#FA2609" stroke-miterlimit="10"/>
<path opacity="0.77" d="M147.727 91.1562V481.597" stroke="#FA2609" stroke-miterlimit="10"/>
<path opacity="0.77" d="M196.398 91.1562V481.597" stroke="#FA2609" stroke-miterlimit="10"/>
<path opacity="0.77" d="M245.066 91.1562V481.597" stroke="#FA2609" stroke-miterlimit="10"/>
<path opacity="0.77" d="M293.734 91.1562V481.597" stroke="#FA2609" stroke-miterlimit="10"/>
<path opacity="0.77" d="M342.406 91.1562V481.597" stroke="#FA2609" stroke-miterlimit="10"/>
<path opacity="0.77" d="M391.07 91.1562V481.597" stroke="#FA2609" stroke-miterlimit="10"/>
<path opacity="0.77" d="M439.742 139.825H1.72266" stroke="#FA2609" stroke-miterlimit="10"/>
<path opacity="0.77" d="M439.742 188.494H1.72266" stroke="#FA2609" stroke-miterlimit="10"/>
<path opacity="0.77" d="M439.742 237.162H1.72266" stroke="#FA2609" stroke-miterlimit="10"/>
<path opacity="0.77" d="M439.742 285.831H1.72266" stroke="#FA2609" stroke-miterlimit="10"/>
<path opacity="0.56" d="M439.742 334.5H1.72266" stroke="#FA2609" stroke-miterlimit="10"/>
<path opacity="0.77" d="M439.742 383.168H1.72266" stroke="#FA2609" stroke-miterlimit="10"/>
<path opacity="0.77" d="M439.742 431.837H1.72266" stroke="#FA2609" stroke-miterlimit="10"/>
<path d="M439.742 75.7478V481.597" stroke="#FA2609" stroke-width="4" stroke-miterlimit="10"/>
<path d="M453.624 79.449H425.858L439.741 55.4036L453.624 79.449Z" fill="#FA2609" stroke="#FA2609"/>
<path d="M471.658 480.336H0" stroke="#FA2609" stroke-width="4" stroke-miterlimit="10"/>
<path d="M467.953 494.219V466.453L491.999 480.336L467.953 494.219Z" fill="#FA2609" stroke="#FA2609"/>
<path opacity="0.27" d="M40.9803 269.86C16.0256 237.028 22.1132 202.144 42.5658 181.691C63.0184 161.239 97.9033 155.151 130.735 180.105C130.751 180.117 130.765 180.132 130.777 180.147C155.733 212.979 149.645 247.864 129.192 268.317C108.74 288.77 73.8546 294.858 41.0226 269.902C41.0072 269.89 40.9922 269.875 40.9803 269.86Z" stroke="#FA2609"/>
<path d="M141.738 217.303C141.738 252.407 113.281 280.864 78.1778 280.864C43.0743 280.864 14.6172 252.407 14.6172 217.303C14.6172 182.2 43.0743 153.743 78.1778 153.743C113.281 153.743 141.738 182.2 141.738 217.303Z" stroke="#FA2609"/>
<path d="M134.12 217.303C134.12 248.201 109.073 273.248 78.1753 273.248C47.2778 273.248 22.2305 248.201 22.2305 217.303C22.2305 186.406 47.2778 161.358 78.1753 161.358C109.073 161.358 134.12 186.406 134.12 217.303Z" stroke="#FA2609"/>
<path opacity="0.42" d="M78.1763 256.929C100.061 256.929 117.802 239.188 117.802 217.303C117.802 195.419 100.061 177.678 78.1763 177.678C56.2917 177.678 38.5508 195.419 38.5508 217.303C38.5508 239.188 56.2917 256.929 78.1763 256.929Z" stroke="#FA2609" stroke-width="2" stroke-miterlimit="10"/>
<path d="M87.0299 203.802C87.0966 204.093 87.3469 204.306 87.646 204.306H95.3131C95.6674 204.306 95.9549 204.594 95.9549 204.948V209.713C95.9549 210.067 95.6674 210.355 95.3131 210.355H87.7782C87.4689 210.355 87.2121 210.581 87.1557 210.885C85.8797 217.84 80.5424 222.43 72.4222 223.646L87.0299 203.802ZM87.0299 203.802C86.6512 202.11 86.0017 200.59 85.089 199.249L87.0299 203.802ZM78.5922 211.333L78.5922 211.333C77.1236 215.642 72.546 217.846 65.8128 217.846H61.0442C60.966 217.846 60.9023 217.909 60.9023 217.987V223.526L61.0478 223.68C61.0478 223.68 61.0478 223.681 61.0478 223.681C68.4565 231.561 74.2473 238.455 80.5087 246L80.5089 246L80.6696 246.194H89.6859L88.9722 245.319C88.9721 245.319 88.9721 245.318 88.9721 245.318C83.2795 238.338 77.2988 231.13 71.6613 225.044L71.6613 225.044C71.0115 224.343 71.4681 223.283 72.3482 223.151L78.5922 211.333ZM78.5922 211.333C78.8524 210.569 78.2315 209.854 77.5015 209.854H61.0442C60.966 209.854 60.9023 209.79 60.9023 209.712V204.947C60.9023 204.869 60.966 204.805 61.0442 204.805H76.8019C77.7019 204.805 78.2714 203.793 77.7626 203.027C75.9242 200.26 72.2658 198.959 67.0849 198.959H61.0442C60.966 198.959 60.9023 198.896 60.9023 198.818V192.859C60.9023 192.781 60.966 192.717 61.0442 192.717H95.3106C95.3875 192.717 95.453 192.78 95.4536 192.862C95.4536 192.862 95.4536 192.862 95.4536 192.862L95.4536 197.625C95.4536 197.703 95.39 197.767 95.3118 197.767H85.6269C84.7465 197.767 84.1497 198.758 84.6758 199.53C85.5508 200.817 86.1762 202.277 86.5419 203.911L86.5425 203.914C86.6577 204.416 87.0979 204.806 87.646 204.806H95.3131C95.3913 204.806 95.4549 204.87 95.4549 204.948V209.713C95.4549 209.791 95.3913 209.855 95.3131 209.855H87.7782C87.2137 209.855 86.7619 210.267 86.6641 210.794L86.6639 210.795M78.5922 211.333L86.6639 210.795M86.6639 210.795C85.4345 217.496 80.3044 221.96 72.3484 223.151L86.6639 210.795Z" stroke="#FA2609"/>
<path opacity="0.27" d="M207.375 68.5484L207.375 68.5485L198.48 75.123C198.48 75.123 198.48 75.1231 198.48 75.1232C198.48 75.1232 198.48 75.1232 198.479 75.1232C198.008 75.4722 197.351 75.4227 196.937 75.008L186.917 64.988C186.501 64.5728 186.453 63.9177 186.801 63.4457L186.801 63.4451L193.259 54.7075C193.327 54.6158 193.298 54.487 193.213 54.433L193.213 54.4325C188.198 51.2295 182.559 48.9235 176.519 47.7266L176.518 47.7265C176.417 47.7063 176.309 47.7786 176.293 47.8885L176.293 47.8893L174.678 58.6522C174.592 59.232 174.092 59.6623 173.506 59.6623H159.336C158.75 59.6623 158.25 59.234 158.164 58.6519L156.581 48.0998L156.581 48.0997C156.564 47.988 156.453 47.9157 156.352 47.9384L156.351 47.9387C150.381 49.2624 144.825 51.6838 139.898 54.9735C139.812 55.0308 139.787 55.157 139.853 55.2464L139.853 55.2466L146.201 63.8354L146.201 63.8359C146.549 64.308 146.501 64.963 146.086 65.3782L136.066 75.3982C135.65 75.8134 134.995 75.8618 134.523 75.5139L134.523 75.5135L126.089 69.2802C125.998 69.213 125.87 69.2402 125.814 69.3273L125.814 69.3274C122.635 74.2927 120.336 79.8689 119.121 85.843C119.1 85.9451 119.173 86.0537 119.283 86.0708C119.283 86.0708 119.283 86.0708 119.284 86.0708L129.727 87.638C129.727 87.638 129.727 87.638 129.728 87.638C130.307 87.7248 130.737 88.2238 130.737 88.8102V102.98C130.737 103.566 130.309 104.066 129.727 104.152L119.385 105.704C119.275 105.721 119.201 105.83 119.224 105.934C120.504 111.892 122.867 117.445 126.103 122.377C126.161 122.464 126.288 122.49 126.378 122.423L134.91 116.116L134.911 116.116C135.383 115.768 136.038 115.817 136.453 116.232L146.473 126.252C146.888 126.667 146.937 127.322 146.589 127.794L146.589 127.795L140.303 136.3L207.375 68.5484ZM207.375 68.5484C207.464 68.4823 207.591 68.5071 207.649 68.5929C210.963 73.5712 213.389 79.1894 214.698 85.2252C214.72 85.3298 214.646 85.4394 214.536 85.4559L203.663 87.0873C203.081 87.1739 202.652 87.6738 202.652 88.2596V102.43C202.652 103.018 203.083 103.511 203.657 103.605L203.664 103.606L214.641 105.252C214.752 105.269 214.824 105.378 214.803 105.48L214.803 105.48C213.562 111.535 211.208 117.184 207.952 122.195L207.952 122.195C207.896 122.282 207.768 122.308 207.679 122.241L207.678 122.241L198.868 115.73L198.868 115.73C198.396 115.382 197.741 115.43 197.326 115.845L187.306 125.865C186.891 126.28 186.841 126.937 187.191 127.409L193.723 136.247L193.723 136.248M207.375 68.5484L193.723 136.248M193.723 136.248C193.79 136.338 193.764 136.465 193.678 136.521C188.696 139.78 183.079 142.147 177.055 143.412M193.723 136.248L177.055 143.412M177.055 143.412C176.953 143.433 176.844 143.36 176.827 143.249L177.055 143.412ZM183.251 108.688L183.256 108.684C183.347 108.614 183.432 108.529 183.502 108.438L183.506 108.433C190.613 99.0215 188.888 88.9424 182.953 83.0074C177.018 77.0727 166.94 75.3474 157.53 82.4524C157.428 82.5277 157.342 82.6173 157.273 82.708L157.272 82.7095C150.165 92.1207 151.89 102.2 157.825 108.135C163.76 114.071 173.84 115.796 183.251 108.688ZM140.348 136.575C140.263 136.519 140.235 136.392 140.303 136.3L157.114 143.249C157.097 143.36 156.988 143.433 156.885 143.412C150.896 142.155 145.309 139.806 140.348 136.575ZM158.713 132.59L157.114 143.249H176.827L175.228 132.59C175.141 132.008 174.641 131.58 174.055 131.58H159.885C159.299 131.58 158.8 132.01 158.713 132.59Z" stroke="#FA2609"/>
<path d="M166.452 50.4293L168.066 39.6664L168.066 39.6656C168.083 39.5557 168.191 39.4834 168.291 39.5036L168.292 39.5037C174.332 40.7006 179.971 43.0078 184.986 46.2097L184.987 46.2101C185.072 46.2642 185.1 46.3929 185.033 46.4846L178.575 55.2222L178.574 55.2227C178.226 55.6948 178.275 56.3499 178.69 56.7651L188.71 66.7851C189.125 67.1998 189.781 67.2493 190.253 66.9003C190.253 66.9003 190.253 66.9003 190.253 66.9003C190.253 66.9002 190.253 66.9001 190.253 66.9001L199.148 60.3256L199.149 60.3255C199.238 60.2594 199.365 60.2841 199.422 60.37C202.736 65.3484 205.162 70.9665 206.471 77.0023C206.493 77.1069 206.419 77.2165 206.309 77.233L195.436 78.8644L166.452 50.4293ZM166.452 50.4293C166.365 51.0091 165.866 51.4394 165.279 51.4394H151.109C150.524 51.4394 150.024 51.0114 149.937 50.4295L166.452 50.4293ZM138.361 119.571L138.361 119.572L132.075 128.077C132.007 128.168 132.035 128.296 132.12 128.352C137.082 131.583 142.668 133.932 148.658 135.189C148.76 135.21 148.869 135.137 148.886 135.026L138.361 119.571ZM138.361 119.571C138.709 119.099 138.661 118.444 138.245 118.029L128.225 108.009C127.811 107.594 127.154 107.545 126.683 107.894L138.361 119.571ZM185.495 128.025L185.495 128.024L178.963 119.186L185.495 128.025ZM185.495 128.025C185.562 128.115 185.536 128.242 185.45 128.299C180.468 131.557 174.851 133.924 168.827 135.189M185.495 128.025L168.827 135.189M190.64 107.507L190.641 107.507L199.45 114.018L199.451 114.018C199.54 114.085 199.668 114.059 199.724 113.972L199.725 113.972C202.98 108.959 205.334 103.312 206.574 97.2576L206.574 97.2568C206.597 97.1479 206.521 97.0408 206.413 97.0243L195.436 95.3776C194.856 95.2909 194.426 94.7919 194.426 94.2053V80.0367C194.426 79.4511 194.854 78.9513 195.436 78.8644L190.64 107.507ZM190.64 107.507C190.168 107.159 189.513 107.207 189.098 107.623L179.078 117.642C178.663 118.057 178.614 118.714 178.962 119.185L190.64 107.507ZM168.827 135.189C168.726 135.21 168.616 135.137 168.599 135.026L168.827 135.189ZM185.255 45.7882C180.189 42.5535 174.492 40.2224 168.389 39.0133C168.004 38.9362 167.63 39.2032 167.572 39.5922L185.255 45.7882ZM148.354 39.8769L149.937 50.429L126.682 107.894L118.151 114.2C118.151 114.2 118.15 114.2 118.15 114.2C118.059 114.267 117.933 114.241 117.876 114.154C114.641 109.222 112.276 103.668 110.997 97.7113C110.975 97.6075 111.048 97.4981 111.159 97.4814L121.5 95.9309C122.082 95.8442 122.511 95.3444 122.511 94.7586V80.5886C122.511 80.002 122.08 79.503 121.501 79.4164L111.057 77.8492C111.057 77.8492 111.057 77.8492 111.056 77.8491C110.946 77.8321 110.874 77.7235 110.894 77.6214C112.109 71.6462 114.408 66.0701 117.587 61.1049C117.643 61.0187 117.772 60.9913 117.863 61.0586L126.296 67.2919L126.297 67.2922C126.769 67.6402 127.424 67.5917 127.839 67.1766L137.859 57.1566C138.274 56.7414 138.323 56.0863 137.975 55.6143L137.974 55.6137L131.627 47.025L131.627 47.0248C131.559 46.934 131.585 46.8076 131.67 46.7511L131.67 46.7509C136.598 43.4611 142.154 41.0396 148.124 39.7158L148.125 39.7155C148.226 39.6928 148.338 39.7651 148.354 39.8768L148.354 39.8769ZM150.485 124.367L148.886 135.026H168.599L167 124.368C166.913 123.785 166.413 123.357 165.827 123.357H151.657C151.071 123.357 150.572 123.787 150.485 124.367ZM142.996 87.3443C142.996 96.0372 150.044 103.085 158.737 103.085C167.43 103.085 174.477 96.0372 174.477 87.3443C174.477 78.6515 167.43 71.6039 158.737 71.6039C150.044 71.6039 142.996 78.6515 142.996 87.3443Z" stroke="#FA2609"/>
<path opacity="0.35" d="M166.447 106.534C177.038 102.198 182.109 90.0967 177.772 79.5056C173.436 68.9145 161.334 63.8441 150.743 68.1806C140.152 72.5171 135.082 84.6183 139.418 95.2094C143.755 105.801 155.856 110.871 166.447 106.534Z" stroke="#FA2609" stroke-width="2.1354" stroke-miterlimit="10"/>
<path opacity="0.27" d="M327.197 421.791C326.299 421.906 325.842 422.987 326.494 423.688L326.494 423.688C337.186 435.164 348.568 448.876 359.381 462.137L359.768 461.821L359.381 462.137L361.089 464.232L361.089 464.232C361.165 464.325 361.099 464.464 360.98 464.464H343.425L342.997 463.949C342.997 463.948 342.997 463.948 342.997 463.948C331.368 449.932 320.616 437.134 306.861 422.503L306.474 422.091V411.081C306.474 411.003 306.538 410.939 306.616 410.939H316.025C328.862 410.939 337.237 406.61 339.59 398.398L339.59 398.397C339.802 397.655 339.218 396.95 338.483 396.95H306.614C306.536 396.95 306.473 396.886 306.473 396.808V386.855C306.473 386.777 306.536 386.713 306.614 386.713H337.436C338.256 386.713 338.877 385.83 338.453 385.048L338.453 385.047L355.26 397.903L355.753 397.987L355.26 397.904C353.033 411.108 342.879 419.774 327.197 421.791ZM327.197 421.791L327.26 422.287L327.197 421.791C327.197 421.791 327.197 421.791 327.197 421.791Z" stroke="#FA2609"/>
<path d="M315.169 415.373C314.272 415.488 313.815 416.568 314.466 417.269L314.467 417.27C325.157 428.746 336.539 442.458 347.352 455.719L347.739 455.403L347.352 455.719L349.061 457.814L349.061 457.814C349.136 457.907 349.071 458.045 348.951 458.045H331.396L330.969 457.53C319.339 443.514 308.587 430.716 294.832 416.085L294.445 415.673V404.663C294.445 404.584 294.509 404.521 294.587 404.521H303.996C316.833 404.521 325.208 400.192 327.561 391.979C327.775 391.237 327.191 390.532 326.456 390.532H294.587C294.509 390.532 294.445 390.468 294.445 390.39V380.437C294.445 380.359 294.509 380.295 294.587 380.295H325.408C326.228 380.295 326.848 379.411 326.424 378.63L326.424 378.629L343.233 391.485L343.726 391.568L343.232 391.486C341.006 404.69 330.851 413.356 315.169 415.373ZM315.169 415.373L315.233 415.869L315.169 415.373C315.169 415.373 315.169 415.373 315.169 415.373Z" stroke="#FA2609"/>
<path d="M392.15 163.512L369.127 165.327L382.211 184.358L392.15 163.512ZM350.451 193.713L352.357 194.318L350.451 193.713ZM352.77 190.586L351.637 188.938L352.77 190.586ZM325.589 261.002L325.279 259.026L325.589 261.002ZM330.375 256.892L328.469 256.286L330.375 256.892ZM213.583 280.922L211.842 279.939L213.583 280.922ZM180.117 332.336L179.82 334.313L180.117 332.336ZM186.234 329.353L184.493 328.369L186.234 329.353ZM109.709 325.871L111.488 326.785L109.709 325.871ZM115.938 322.68L116.235 320.703L115.938 322.68ZM65.9625 415.375L111.488 326.785L107.93 324.957L62.4047 413.546L65.9625 415.375ZM115.64 324.658L179.82 334.313L180.415 330.358L116.235 320.703L115.64 324.658ZM187.976 330.336L215.325 281.906L211.842 279.939L184.493 328.369L187.976 330.336ZM218.186 279.921L325.9 262.977L325.279 259.026L217.565 275.97L218.186 279.921ZM332.281 257.497L352.357 194.318L348.545 193.107L328.469 256.286L332.281 257.497ZM353.903 192.234L378.45 175.357L376.184 172.061L351.637 188.938L353.903 192.234ZM352.357 194.318C352.626 193.471 353.17 192.737 353.903 192.234L351.637 188.938C350.171 189.945 349.083 191.412 348.545 193.107L352.357 194.318ZM325.9 262.977C328.893 262.507 331.364 260.385 332.281 257.497L328.469 256.286C328.01 257.73 326.775 258.791 325.279 259.026L325.9 262.977ZM215.325 281.906C215.925 280.842 216.979 280.111 218.186 279.921L217.565 275.97C215.151 276.349 213.043 277.811 211.842 279.939L215.325 281.906ZM179.82 334.313C183.1 334.807 186.345 333.225 187.976 330.336L184.493 328.369C183.677 329.814 182.055 330.605 180.415 330.358L179.82 334.313ZM111.488 326.785C112.272 325.259 113.943 324.403 115.64 324.658L116.235 320.703C112.841 320.192 109.499 321.904 107.93 324.957L111.488 326.785Z" fill="#FA2609"/>
</svg>
