<svg width="460" height="307" viewBox="0 0 460 307" fill="none" xmlns="http://www.w3.org/2000/svg">
<path d="M334.796 35.5986C352.972 31.4393 375.981 42.8806 391.2 63.8955V63.8945C393.068 66.4739 395.346 71.324 397.845 77.9014C400.338 84.4637 403.035 92.7025 405.75 102.026C411.18 120.674 416.677 143.641 420.759 166.179C424.841 188.722 427.502 210.813 427.272 227.715C427.157 236.17 426.319 243.291 424.593 248.512C422.916 253.583 420.446 256.741 417.108 257.717L416.783 257.804C367.198 269.996 291.422 272.324 224.215 271.358C165.423 270.513 113.236 267.149 90.9648 265.679L83.3203 265.177C73.1884 264.535 65.1108 256.361 58.792 243.961C52.4854 231.585 48.0113 215.149 45.0254 198.306C42.0407 181.469 40.548 164.258 40.1885 150.35C40.0087 143.395 40.1123 137.273 40.4531 132.44C40.7742 127.887 41.303 124.538 41.9756 122.708L42.1123 122.362C42.8157 120.709 44.5327 118.876 47.2363 116.896C49.9264 114.927 53.5365 112.852 57.9434 110.694C66.7561 106.38 78.7006 101.763 92.7129 97.0176C120.734 87.527 156.969 77.5397 192.837 68.4395C228.702 59.3398 264.19 51.1293 290.712 45.1943C303.973 42.2269 314.992 39.8286 322.695 38.1719C326.547 37.3435 329.57 36.7004 331.63 36.2646C332.659 36.0468 333.449 35.8812 333.98 35.7695C334.246 35.7137 334.448 35.6708 334.583 35.6426L334.773 35.6035C334.778 35.6026 334.781 35.601 334.783 35.6006C334.785 35.6001 334.786 35.5975 334.685 35.1113L334.786 35.6006L334.796 35.5986Z" fill="white" stroke="#FA2609"/>
<path opacity="0.7" d="M334.796 35.5986C352.972 31.4393 375.981 42.8806 391.2 63.8955V63.8945C393.068 66.4739 395.346 71.324 397.845 77.9014C400.338 84.4637 403.035 92.7025 405.75 102.026C411.18 120.674 416.677 143.641 420.759 166.179C424.841 188.722 427.502 210.813 427.272 227.715C427.157 236.17 426.319 243.291 424.593 248.512C422.916 253.583 420.446 256.741 417.108 257.717L416.783 257.804C367.198 269.996 291.422 272.324 224.215 271.358C165.423 270.513 113.236 267.149 90.9648 265.679L83.3203 265.177C73.1884 264.535 65.1108 256.361 58.792 243.961C52.4854 231.585 48.0113 215.149 45.0254 198.306C42.0407 181.469 40.548 164.258 40.1885 150.35C40.0087 143.395 40.1123 137.273 40.4531 132.44C40.7742 127.887 41.303 124.538 41.9756 122.708L42.1123 122.362C42.8157 120.709 44.5327 118.876 47.2363 116.896C49.9264 114.927 53.5365 112.852 57.9434 110.694C66.7561 106.38 78.7006 101.763 92.7129 97.0176C120.734 87.527 156.969 77.5397 192.837 68.4395C228.702 59.3398 264.19 51.1293 290.712 45.1943C303.973 42.2269 314.992 39.8286 322.695 38.1719C326.547 37.3435 329.57 36.7004 331.63 36.2646C332.659 36.0468 333.449 35.8812 333.98 35.7695C334.246 35.7137 334.448 35.6708 334.583 35.6426L334.773 35.6035C334.778 35.6026 334.781 35.601 334.783 35.6006C334.785 35.6001 334.786 35.5975 334.685 35.1113L334.786 35.6006L334.796 35.5986Z" fill="white" stroke="#FA2609"/>
<path d="M51.8828 204.54L51.8018 207.535V207.547L51.7881 210.537L51.7627 211.975L51.7305 210.544L51.7031 207.545C51.7318 206.542 51.7919 205.554 51.8359 204.536L51.9121 203.131L51.8828 204.54Z" fill="white" stroke="#FA2609"/>
<path d="M54.7197 210.188C54.6817 211.171 54.6429 212.15 54.5869 213.126L54.5244 214.101V214.102C54.5019 214.427 54.4779 214.751 54.4551 215.076L54.4658 214.099C54.4875 212.516 54.6063 210.938 54.7529 209.354C54.742 209.632 54.7305 209.91 54.7197 210.188Z" fill="white" stroke="#FA2609"/>
<path d="M56.9863 211.228C56.8694 212.147 56.7783 213.069 56.6904 213.985L56.5049 215.873L56.5039 215.881L56.4131 216.926C56.4212 216.575 56.433 216.224 56.4473 215.873C56.5175 214.319 56.7044 212.768 56.9863 211.228Z" fill="white" stroke="#FA2609"/>
<path d="M58.4482 215.317L58.4463 215.332L58.4453 215.348C58.4199 215.675 58.3857 216.002 58.3457 216.329L58.2109 217.315L58.209 217.329C58.1906 217.482 58.1672 217.635 58.1465 217.789C58.1487 217.633 58.1502 217.476 58.1523 217.316C58.1894 216.654 58.281 215.987 58.4004 215.319L58.5 214.893C58.4824 215.039 58.4674 215.181 58.4482 215.317Z" fill="white" stroke="#FA2609"/>
<path d="M49.0742 207.509C49.3293 209.194 49.564 210.877 49.7383 212.567L49.8564 213.83C49.8866 214.232 49.9151 214.632 49.9453 215.031L49.7988 213.837V213.836L49.499 211.319C49.4032 210.48 49.3103 209.639 49.2178 208.797C49.1706 208.368 49.1217 207.938 49.0742 207.509Z" fill="white" stroke="#FA2609"/>
<path d="M47.1514 209.823H47.1523C47.3444 210.821 47.5294 211.815 47.6855 212.81L47.8311 213.806C47.8651 214.131 47.8981 214.455 47.9326 214.777L47.7754 213.82C47.7287 213.487 47.6693 213.149 47.6074 212.815L47.4258 211.831L47.1094 209.85L47.1084 209.842L47.1064 209.834L46.9521 208.993L47.1514 209.823Z" fill="white" stroke="#FA2609"/>
<path d="M45.7539 216.116C46.0444 216.99 46.3079 217.863 46.5039 218.75L46.6396 219.429L46.6416 219.438C46.6895 219.679 46.7329 219.922 46.7744 220.165L46.582 219.443C46.2967 218.364 46.0348 217.239 45.7539 216.116Z" fill="white" stroke="#FA2609"/>
<path d="M44.1426 218.094C44.4629 218.699 44.7311 219.321 44.918 219.965C44.9523 220.107 44.985 220.248 45.0166 220.39C44.9668 220.26 44.9165 220.13 44.8662 219.999L44.8613 219.987L44.8564 219.975L44.7021 219.611C44.555 219.245 44.4242 218.866 44.2812 218.471C44.2363 218.346 44.1903 218.22 44.1426 218.094Z" fill="white" stroke="#FA2609"/>
<path d="M37.7031 153.083C37.8155 153.158 38.0034 153.394 38.249 153.93C38.4244 154.313 38.6088 154.801 38.8096 155.395L39.0166 156.025C39.3136 156.954 39.8005 158 40.3701 159.18C40.9444 160.37 41.6108 161.713 42.291 163.27C43.5635 166.182 44.8806 169.833 45.6787 174.52L45.8311 175.471C46.608 180.633 46.4269 183.853 46.0664 185.761C45.8863 186.715 45.6612 187.34 45.4902 187.716C45.4543 187.795 45.42 187.863 45.3896 187.921C45.2604 187.879 45.0983 187.824 44.9111 187.75C44.398 187.547 43.6984 187.216 42.9619 186.708C41.5852 185.757 40.0794 184.189 39.3955 181.656L39.2705 181.136C38.9607 179.689 38.9857 178.798 39.1182 178.132C39.1852 177.796 39.2824 177.503 39.3926 177.207C39.4989 176.921 39.6313 176.598 39.7383 176.262C40.1715 174.904 40.2479 173.198 38.7197 169.086L38.3916 168.231C36.5461 163.541 35.8597 160.718 35.7744 158.755C35.7013 157.071 36.0689 156.001 36.584 154.868L36.8125 154.376C37.1296 153.706 37.3812 153.329 37.5703 153.154C37.6297 153.099 37.6673 153.079 37.6836 153.072C37.6878 153.074 37.6947 153.077 37.7031 153.083Z" fill="white" stroke="#FA2609"/>
<path d="M58.4717 141.408C58.5469 141.401 58.6897 141.42 58.9082 141.524C59.1224 141.626 59.3802 141.795 59.6709 142.047C60.2519 142.551 60.9278 143.349 61.6113 144.466C62.9766 146.698 64.3453 150.159 65.0488 154.949C66.4073 164.196 63.4171 170.352 60.749 173.21L60.4922 173.477C59.0628 174.908 57.9903 176.054 57.2734 176.843C56.9151 177.238 56.6451 177.543 56.4648 177.75C56.4587 177.758 56.4522 177.764 56.4463 177.771C56.3931 177.74 56.3337 177.705 56.2695 177.663C55.9607 177.46 55.5348 177.117 55.0996 176.566C54.2879 175.539 53.4175 173.755 53.2549 170.735L53.2314 170.115C53.1966 168.403 53.3452 167.23 53.585 166.299C53.8253 165.366 54.1614 164.658 54.5371 163.852C55.2571 162.307 56.0403 160.558 56.3145 156.699L56.3633 155.898C56.5768 151.55 56.8245 147.867 57.2119 145.258C57.4062 143.95 57.6315 142.943 57.8916 142.265C58.022 141.925 58.1505 141.698 58.2666 141.559C58.3518 141.458 58.4123 141.425 58.4463 141.414L58.4717 141.408Z" fill="white" stroke="#FA2609"/>
<path d="M29.3711 176.156C29.4157 176.131 29.4836 176.112 29.6201 176.157C29.7699 176.207 29.971 176.328 30.2188 176.55C30.4628 176.768 30.7301 177.065 31.0137 177.435C31.5101 178.081 32.0377 178.925 32.5615 179.902L32.7861 180.329C34.0306 182.747 35.602 184.5 37.0605 185.942C37.4247 186.302 37.7832 186.644 38.126 186.971C38.4697 187.298 38.7967 187.609 39.1055 187.912C39.6475 188.445 40.1177 188.943 40.4951 189.439L40.6514 189.652C41.4504 190.785 42.0732 192.598 42.499 194.179C42.6864 194.874 42.8305 195.511 42.9346 196.004C42.433 195.746 41.7537 195.394 40.9746 194.979C39.514 194.202 37.7048 193.208 36.0439 192.214L35.3428 191.788C33.5362 190.675 31.9291 189.301 30.7539 187.408C29.6535 185.636 28.914 183.381 28.7686 180.409L28.7471 179.805C28.7118 178.142 28.8586 177.118 29.0879 176.564C29.2005 176.293 29.3097 176.191 29.3711 176.156Z" fill="white" stroke="#FA2609"/>
<path d="M26.5332 189.235C26.7234 189.33 26.9516 189.459 27.2158 189.626C28.4406 190.398 30.2886 191.866 32.3926 193.836L33.3086 194.71C35.7639 197.098 37.8411 199.916 39.3076 202.145C40.0397 203.257 40.6176 204.219 41.0117 204.902C41.2007 205.23 41.3471 205.494 41.4482 205.679C41.4271 205.699 41.4052 205.721 41.3809 205.743C41.1875 205.916 40.9005 206.122 40.5264 206.265C39.8548 206.52 38.8081 206.603 37.3711 205.685L37.0781 205.487C35.4907 204.362 34.8611 203.084 34.3262 201.512C33.8244 200.037 33.3969 198.247 32.3232 196.224L32.0996 195.815C30.8575 193.621 29.787 192.545 28.8457 191.714C27.969 190.939 27.2939 190.443 26.668 189.457L26.543 189.253L26.5332 189.235Z" fill="white" stroke="#FA2609"/>
<path d="M30.0928 206.947C31.5733 206.868 33.651 207.189 35.835 208.252L36.2734 208.475C38.6164 209.716 39.7897 211.077 40.3975 212.146C40.7316 212.733 40.8905 213.211 40.9854 213.581C40.9773 213.58 40.9691 213.579 40.9609 213.578C40.5068 213.519 39.8695 213.427 39.1406 213.295C37.8585 213.063 36.3152 212.713 34.9834 212.215L34.4268 211.992C32.9656 211.365 31.502 210.528 30.3389 209.693C29.7575 209.276 29.2587 208.865 28.875 208.487C28.5326 208.15 28.305 207.862 28.1836 207.638L28.1377 207.545C28.1302 207.528 28.1321 207.536 28.1367 207.527C28.1539 207.496 28.2159 207.42 28.3818 207.328C28.7121 207.146 29.2952 206.99 30.0928 206.947Z" fill="white" stroke="#FA2609"/>
<path d="M72.4463 171.48C72.7195 171.463 72.9194 171.528 73.0781 171.672L73.1436 171.738C73.3015 171.916 73.4071 172.248 73.3828 172.785C73.359 173.31 73.214 173.949 72.9736 174.646C72.5532 175.863 71.8662 177.181 71.1484 178.229L70.8398 178.659V178.66C70.0261 179.746 68.9834 180.551 67.9014 181.506C66.9047 182.385 65.9084 183.369 65.2227 184.745L65.0889 185.025C64.7451 185.79 64.5318 186.654 64.3525 187.522C64.169 188.411 64.0249 189.281 63.8135 190.154C63.4214 191.773 62.8384 193.207 61.5527 194.173L61.2861 194.36C59.6798 195.409 58.396 195.998 57.5234 196.323C57.0871 196.486 56.7527 196.583 56.5322 196.639C56.529 196.639 56.5256 196.64 56.5225 196.641C56.4909 196.587 56.4556 196.525 56.418 196.454C56.2511 196.14 56.033 195.657 55.8477 194.999C55.5009 193.768 55.2633 191.914 55.6914 189.402L55.7861 188.892C56.0636 187.503 56.4203 186.585 56.8232 185.938C57.2208 185.299 57.6782 184.899 58.1992 184.564C58.4646 184.394 58.7463 184.241 59.0537 184.079C59.3567 183.92 59.6893 183.749 60.0283 183.556C60.7154 183.163 61.4518 182.663 62.2061 181.87C63.6567 180.345 64.2448 179.464 64.8252 178.574C65.3178 177.819 65.8024 177.061 66.8525 175.853L67.3389 175.306C68.7505 173.751 70.0617 172.584 71.1338 171.964C71.6713 171.653 72.1102 171.502 72.4463 171.48Z" fill="white" stroke="#FA2609"/>
<path d="M76.9668 183.538C76.9756 183.596 76.9851 183.663 76.9922 183.74L77.0088 183.974C77.0455 184.709 77.1464 185.413 77.2246 186.069C77.304 186.736 77.3624 187.37 77.3291 188.021C77.2679 189.215 76.8967 190.518 75.668 192.142L75.4102 192.471C74.7202 193.325 73.6356 194.126 72.3574 194.848C71.0857 195.566 69.656 196.188 68.3086 196.699C67.0101 197.192 65.7957 197.577 64.8867 197.846C65.4005 197.259 66.0656 196.5 66.8154 195.643C67.6875 194.645 68.6755 193.514 69.6768 192.364L72.6182 188.979C73.5536 187.898 74.344 186.882 75.0029 186.015C75.6684 185.138 76.1839 184.436 76.5918 183.949C76.7403 183.772 76.8646 183.637 76.9668 183.538Z" fill="white" stroke="#FA2609"/>
<path d="M78.5654 195.961C78.7898 195.926 78.9173 195.937 78.9785 195.951C78.9778 195.989 78.9711 196.053 78.9424 196.149L78.8877 196.304C78.706 196.758 78.368 197.242 77.873 197.782C77.3797 198.321 76.7533 198.893 76.0176 199.532C74.7386 200.643 73.1424 201.943 71.4648 203.551L70.7422 204.259C68.9213 206.082 66.4356 206.945 64.3633 207.346C63.3326 207.545 62.4177 207.628 61.7617 207.66C61.6237 207.667 61.4973 207.671 61.3838 207.674C61.5043 207.434 61.7046 207.106 62.0381 206.688C62.9122 205.59 64.6756 203.892 68.2158 201.524L68.9482 201.041C73.002 198.407 75.8437 196.866 77.5479 196.246C77.971 196.092 78.3081 196.001 78.5654 195.961Z" fill="white" stroke="#FA2609"/>
<path d="M45.953 187.902C45.953 187.902 44.0486 177.678 42.0552 170.41C40.0625 163.142 38.7812 158.724 38.7812 158.724" fill="white"/>
<path d="M45.953 187.902C45.953 187.902 44.0486 177.678 42.0552 170.41C40.0625 163.142 38.7812 158.724 38.7812 158.724" stroke="#FA2609" stroke-miterlimit="10" stroke-linecap="round" stroke-linejoin="round"/>
<path d="M56.25 178.498C56.25 178.498 59.7098 167.417 60.8488 160.719C61.9877 154.021 60.7065 149.033 60.1367 146.04" fill="white"/>
<path d="M56.25 178.498C56.25 178.498 59.7098 167.417 60.8488 160.719C61.9877 154.021 60.7065 149.033 60.1367 146.04" stroke="#FA2609" stroke-miterlimit="10" stroke-linecap="round" stroke-linejoin="round"/>
<path d="M43.1738 196.703C43.1738 196.703 41.0602 192.927 37.9286 189.221C34.7969 185.516 32.3767 183.521 30.9531 179.958" fill="white"/>
<path d="M43.1738 196.703C43.1738 196.703 41.0602 192.927 37.9286 189.221C34.7969 185.516 32.3767 183.521 30.9531 179.958" stroke="#FA2609" stroke-miterlimit="10" stroke-linecap="round" stroke-linejoin="round"/>
<path d="M56.2891 197.202C56.2891 197.202 57.428 190.361 60.1328 186.798C62.8376 183.236 68.2472 177.677 70.3829 174.115" fill="white"/>
<path d="M56.2891 197.202C56.2891 197.202 57.428 190.361 60.1328 186.798C62.8376 183.236 68.2472 177.677 70.3829 174.115" stroke="#FA2609" stroke-miterlimit="10" stroke-linecap="round" stroke-linejoin="round"/>
<path d="M41.293 214.006C41.293 214.006 36.5028 210.883 33.0859 209.173L41.293 214.006Z" fill="white"/>
<path d="M41.293 214.006C41.293 214.006 36.5028 210.883 33.0859 209.173" stroke="#FA2609" stroke-miterlimit="10" stroke-linecap="round" stroke-linejoin="round"/>
<path d="M68.7252 242.731C68.4051 234.083 58.807 228.318 58.807 228.318H52.735H50.1688H44.0968C44.0968 228.318 34.4988 234.083 34.1786 242.731C33.8585 251.378 45.0567 283.088 45.0567 283.088H50.1688H52.735H57.8471C57.8471 283.088 69.0454 251.378 68.7252 242.731Z" fill="white" stroke="#FA2609" stroke-miterlimit="10" stroke-linecap="round" stroke-linejoin="round"/>
<path d="M60.7001 219.814H41.9297L44.0954 228.317H58.5345L60.7001 219.814Z" fill="white" stroke="#FA2609" stroke-miterlimit="10" stroke-linecap="round" stroke-linejoin="round"/>
<path d="M362.764 74.3589C362.764 74.3589 362.47 74.8114 361.898 75.6225L362.764 74.3589Z" fill="white"/>
<path d="M362.764 74.3589C362.764 74.3589 362.47 74.8114 361.898 75.6225" stroke="#FA2609" stroke-linecap="round" stroke-linejoin="round"/>
<path d="M360.078 78.1104C352.586 87.9933 329.965 114.139 298.9 116.36C260.521 119.105 223.97 58.2727 185.592 40.4347C147.924 22.9271 99.6944 29.6523 58.1797 64.5023" fill="white"/>
<path d="M360.078 78.1104C352.586 87.9933 329.965 114.139 298.9 116.36C260.521 119.105 223.97 58.2727 185.592 40.4347C147.924 22.9271 99.6944 29.6523 58.1797 64.5023" stroke="#FA2609" stroke-linecap="round" stroke-linejoin="round" stroke-dasharray="5.03 5.03"/>
<path d="M56.9982 65.5029C56.6106 65.8345 56.223 66.1685 55.8359 66.5056L56.9982 65.5029Z" fill="white"/>
<path d="M56.9982 65.5029C56.6106 65.8345 56.223 66.1685 55.8359 66.5056" stroke="#FA2609" stroke-linecap="round" stroke-linejoin="round"/>
<path d="M377.901 51.9937L348.914 62.5459L361.563 67.2945L377.901 51.9937Z" fill="white" stroke="#FA2609" stroke-miterlimit="10" stroke-linecap="round" stroke-linejoin="round"/>
<path d="M361.562 67.2945L362.767 74.3586L364.927 68.412L377.901 51.9937L361.562 67.2945Z" fill="white" stroke="#FA2609" stroke-miterlimit="10" stroke-linecap="round" stroke-linejoin="round"/>
<path d="M362.766 74.3586L377.9 51.9937L364.926 68.412L362.766 74.3586Z" fill="white" stroke="#FA2609" stroke-miterlimit="10" stroke-linecap="round" stroke-linejoin="round"/>
<path d="M377.903 51.9937L364.93 68.412L376.809 73.8177L377.903 51.9937Z" fill="white" stroke="#FA2609" stroke-miterlimit="10" stroke-linecap="round" stroke-linejoin="round"/>
<path d="M61.4609 125.982C61.4609 125.982 77.7646 175.221 115.949 203.686C154.133 232.152 248.285 246.302 291.067 229.607C333.848 212.913 396.121 190.79 426.829 203.563C457.536 216.335 450.531 240.649 436.577 248.898C422.624 257.148 415.351 259.451 372.065 238.758C328.779 218.066 276.915 180.256 276.915 180.256" fill="white"/>
<path d="M61.4609 125.982C61.4609 125.982 77.7646 175.221 115.949 203.686C154.133 232.152 248.285 246.302 291.067 229.607C333.848 212.913 396.121 190.79 426.829 203.563C457.536 216.335 450.531 240.649 436.577 248.898C422.623 257.148 415.351 259.451 372.065 238.758C328.779 218.066 276.915 180.256 276.915 180.256" stroke="#FA2609" stroke-miterlimit="10" stroke-linecap="round" stroke-linejoin="round" stroke-dasharray="5 5"/>
<path d="M49.5312 97.4922L76.2842 112.859L63.0099 115.369L49.5312 97.4922Z" fill="white" stroke="#FA2609" stroke-miterlimit="10" stroke-linecap="round" stroke-linejoin="round"/>
<path d="M63.0099 115.369L60.6148 122.122L59.504 115.893L49.5312 97.4922L63.0099 115.369Z" fill="white" stroke="#FA2609" stroke-miterlimit="10" stroke-linecap="round" stroke-linejoin="round"/>
<path d="M60.6148 122.122L49.5312 97.4922L59.504 115.893L60.6148 122.122Z" fill="white" stroke="#FA2609" stroke-miterlimit="10" stroke-linecap="round" stroke-linejoin="round"/>
<path d="M49.5313 97.4922L59.5041 115.893L46.875 119.181L49.5313 97.4922Z" fill="white" stroke="#FA2609" stroke-miterlimit="10" stroke-linecap="round" stroke-linejoin="round"/>
<g opacity="0.3">
<path d="M273.607 40.3486L274.784 43.9774H278.596L275.512 46.2203L276.69 49.8497L273.607 47.6067L270.523 49.8497L271.701 46.2203L268.617 43.9774H272.429L273.607 40.3486Z" fill="white" stroke="#FA2609" stroke-miterlimit="10" stroke-linecap="round" stroke-linejoin="round"/>
<path d="M286.864 40.3486L288.043 43.9774H291.854L288.771 46.2203L289.948 49.8497L286.864 47.6067L283.781 49.8497L284.959 46.2203L281.875 43.9774H285.687L286.864 40.3486Z" fill="white" stroke="#FA2609" stroke-miterlimit="10" stroke-linecap="round" stroke-linejoin="round"/>
<path d="M300.122 40.3486L301.3 43.9774H305.112L302.029 46.2203L303.206 49.8497L300.122 47.6067L297.038 49.8497L298.217 46.2203L295.133 43.9774H298.945L300.122 40.3486Z" fill="white" stroke="#FA2609" stroke-miterlimit="10" stroke-linecap="round" stroke-linejoin="round"/>
<path d="M313.38 40.3486L314.558 43.9774H318.37L315.286 46.2203L316.464 49.8497L313.38 47.6067L310.297 49.8497L311.474 46.2203L308.391 43.9774H312.203L313.38 40.3486Z" fill="white" stroke="#FA2609" stroke-miterlimit="10" stroke-linecap="round" stroke-linejoin="round"/>
<path d="M326.638 40.3486L327.815 43.9774H331.627L328.544 46.2203L329.721 49.8497L326.638 47.6067L323.554 49.8497L324.732 46.2203L321.648 43.9774H325.46L326.638 40.3486Z" fill="white" stroke="#FA2609" stroke-miterlimit="10" stroke-linecap="round" stroke-linejoin="round"/>
</g>
<g opacity="0.3">
<path d="M269.497 251.847L270.675 255.477H274.487L271.403 257.719L272.581 261.348L269.497 259.105L266.413 261.348L267.592 257.719L264.508 255.477H268.32L269.497 251.847Z" fill="white" stroke="#FA2609" stroke-miterlimit="10" stroke-linecap="round" stroke-linejoin="round"/>
<path d="M282.755 251.847L283.933 255.477H287.745L284.661 257.719L285.839 261.348L282.755 259.105L279.672 261.348L280.849 257.719L277.766 255.477H281.577L282.755 251.847Z" fill="white" stroke="#FA2609" stroke-miterlimit="10" stroke-linecap="round" stroke-linejoin="round"/>
<path d="M296.013 251.847L297.191 255.477H301.003L297.919 257.719L299.097 261.348L296.013 259.105L292.93 261.348L294.107 257.719L291.023 255.477H294.835L296.013 251.847Z" fill="white" stroke="#FA2609" stroke-miterlimit="10" stroke-linecap="round" stroke-linejoin="round"/>
<path d="M309.271 251.847L310.449 255.477H314.261L311.177 257.719L312.355 261.348L309.271 259.105L306.187 261.348L307.365 257.719L304.281 255.477H308.093L309.271 251.847Z" fill="white" stroke="#FA2609" stroke-miterlimit="10" stroke-linecap="round" stroke-linejoin="round"/>
<path d="M322.529 251.847L323.706 255.477H327.518L324.434 257.719L325.612 261.348L322.529 259.105L319.445 261.348L320.623 257.719L317.539 255.477H321.35L322.529 251.847Z" fill="white" stroke="#FA2609" stroke-miterlimit="10" stroke-linecap="round" stroke-linejoin="round"/>
</g>
<g opacity="0.3">
<path d="M43.8332 79.9727L45.0114 83.6014H48.8227L45.7388 85.8443L46.9171 89.4737L43.8332 87.2308L40.7494 89.4737L41.9276 85.8443L38.8438 83.6014H42.6556L43.8332 79.9727Z" fill="white" stroke="#FA2609" stroke-miterlimit="10" stroke-linecap="round" stroke-linejoin="round"/>
<path d="M57.091 79.9727L58.2692 83.6014H62.0805L58.9973 85.8443L60.1749 89.4737L57.091 87.2308L54.0078 89.4737L55.1854 85.8443L52.1016 83.6014H55.9134L57.091 79.9727Z" fill="white" stroke="#FA2609" stroke-miterlimit="10" stroke-linecap="round" stroke-linejoin="round"/>
<path d="M70.3488 79.9727L71.5271 83.6014H75.3389L72.2551 85.8443L73.4327 89.4737L70.3488 87.2308L67.2656 89.4737L68.4432 85.8443L65.3594 83.6014H69.1712L70.3488 79.9727Z" fill="white" stroke="#FA2609" stroke-miterlimit="10" stroke-linecap="round" stroke-linejoin="round"/>
<path d="M83.6073 79.9727L84.7849 83.6014H88.5967L85.5129 85.8443L86.6905 89.4737L83.6073 87.2308L80.5234 89.4737L81.701 85.8443L78.6172 83.6014H82.4291L83.6073 79.9727Z" fill="white" stroke="#FA2609" stroke-miterlimit="10" stroke-linecap="round" stroke-linejoin="round"/>
<path d="M96.8645 79.9727L98.0421 83.6014H101.854L98.7701 85.8443L99.9483 89.4737L96.8645 87.2308L93.7806 89.4737L94.9582 85.8443L91.875 83.6014H95.6863L96.8645 79.9727Z" fill="white" stroke="#FA2609" stroke-miterlimit="10" stroke-linecap="round" stroke-linejoin="round"/>
</g>
<path d="M233.15 237.188V268.957C233.15 272.665 230.147 275.671 226.443 275.671H172.937C169.233 275.671 166.23 272.665 166.23 268.957V237.188H156.453V270.179C156.453 275.023 160.375 278.949 165.213 278.949H234.167C239.005 278.949 242.927 275.023 242.927 270.179V237.188H233.15Z" fill="white" stroke="#FA2609" stroke-miterlimit="10" stroke-linecap="round" stroke-linejoin="round"/>
<path d="M241.322 237.188V268.957C241.322 272.665 238.319 275.671 234.615 275.671H174.772C171.068 275.671 168.065 272.665 168.065 268.957V237.188H164.625V270.179C164.625 275.023 168.547 278.949 173.385 278.949H236.002C240.84 278.949 244.762 275.023 244.762 270.179V237.188H241.322Z" fill="white" stroke="#FA2609" stroke-miterlimit="10" stroke-linecap="round" stroke-linejoin="round"/>
<path d="M267.85 278.689H129.562V283.088H267.85V278.689Z" fill="white" stroke="#FA2609" stroke-miterlimit="10" stroke-linecap="round" stroke-linejoin="round"/>
<path d="M267.846 278.689H163.695V283.088H267.846V278.689Z" fill="white" stroke="#FA2609" stroke-miterlimit="10" stroke-linecap="round" stroke-linejoin="round"/>
<path d="M306.5 242.226H93.0075C90.1211 242.226 87.7812 239.884 87.7812 236.994V73.8213C87.7812 70.9318 90.1211 68.5894 93.0075 68.5894H306.5C309.387 68.5894 311.726 70.9318 311.726 73.8213V236.994C311.726 239.884 309.387 242.226 306.5 242.226Z" fill="white" stroke="#FA2609" stroke-miterlimit="10" stroke-linecap="round" stroke-linejoin="round"/>
<path d="M311.438 242.226H97.945C95.0586 242.226 92.7188 239.884 92.7188 236.994V73.8213C92.7188 70.9318 95.0586 68.5894 97.945 68.5894H311.438C314.324 68.5894 316.664 70.9318 316.664 73.8213V236.994C316.664 239.884 314.324 242.226 311.438 242.226Z" fill="white" stroke="#FA2609" stroke-miterlimit="10" stroke-linecap="round" stroke-linejoin="round"/>
<path d="M312.436 225.521H96.9453V77.0986C96.9453 74.2091 99.2852 71.8667 102.172 71.8667H307.211C310.097 71.8667 312.437 74.2091 312.437 77.0986V225.521H312.436Z" fill="white" stroke="#FA2609" stroke-miterlimit="10" stroke-linecap="round" stroke-linejoin="round"/>
<path d="M258.38 85.6636C267.995 84.3089 277.27 89.6105 281.069 98.519L281.246 98.9458C286.836 112.861 291.057 134.267 293.38 153.515C294.541 163.134 295.226 172.199 295.372 179.501C295.445 183.153 295.383 186.359 295.18 188.968C294.988 191.426 294.675 193.32 294.248 194.558L294.161 194.797C293.901 195.475 293.143 196.181 291.773 196.873C290.422 197.555 288.562 198.179 286.248 198.742C281.623 199.867 275.269 200.732 267.73 201.378C252.658 202.671 232.928 203.084 213.005 202.985C193.084 202.886 172.982 202.276 157.169 201.526C149.262 201.151 142.43 200.741 137.23 200.342C132.338 199.967 128.93 199.606 127.422 199.299L127.146 199.239C126.012 198.968 124.96 197.792 124.046 195.622C123.145 193.483 122.441 190.526 121.908 186.972C120.843 179.871 120.481 170.504 120.547 160.818C120.674 142.042 122.409 122.183 123.705 115.492L123.829 114.886C123.928 114.431 124.328 113.876 125.154 113.235C125.966 112.605 127.122 111.946 128.599 111.264C131.55 109.902 135.704 108.487 140.76 107.05C150.867 104.178 164.5 101.239 179.129 98.4644C204.726 93.6089 233.333 89.2637 251.348 86.6665L258.38 85.6636Z" fill="white" stroke="#FA2609"/>
<path opacity="0.7" d="M258.38 85.6636C267.995 84.3089 277.27 89.6105 281.069 98.519L281.246 98.9458C286.836 112.861 291.057 134.267 293.38 153.515C294.541 163.134 295.226 172.199 295.372 179.501C295.445 183.153 295.383 186.359 295.18 188.968C294.988 191.426 294.675 193.32 294.248 194.558L294.161 194.797C293.901 195.475 293.143 196.181 291.773 196.873C290.422 197.555 288.562 198.179 286.248 198.742C281.623 199.867 275.269 200.732 267.73 201.378C252.658 202.671 232.928 203.084 213.005 202.985C193.084 202.886 172.982 202.276 157.169 201.526C149.262 201.151 142.43 200.741 137.23 200.342C132.338 199.967 128.93 199.606 127.422 199.299L127.146 199.239C126.012 198.968 124.96 197.792 124.046 195.622C123.145 193.483 122.441 190.526 121.908 186.972C120.843 179.871 120.481 170.504 120.547 160.818C120.674 142.042 122.409 122.183 123.705 115.492L123.829 114.886C123.928 114.431 124.328 113.876 125.154 113.235C125.966 112.605 127.122 111.946 128.599 111.264C131.55 109.902 135.704 108.487 140.76 107.05C150.867 104.178 164.5 101.239 179.129 98.4644C204.726 93.6089 233.333 89.2637 251.348 86.6665L258.38 85.6636Z" fill="white" stroke="#FA2609"/>
<path d="M227.353 140.93C234.261 140.243 239.304 134.08 238.617 127.165C237.931 120.249 231.775 115.201 224.867 115.888C217.959 116.575 212.916 122.738 213.602 129.653C214.289 136.569 220.445 141.617 227.353 140.93Z" fill="white" stroke="#FA2609" stroke-miterlimit="10" stroke-linecap="round" stroke-linejoin="round"/>
<path d="M218.859 136.636C220.246 134.047 222.975 132.286 226.115 132.286C229.143 132.286 231.788 133.923 233.217 136.363" fill="white"/>
<path d="M218.859 136.636C220.246 134.047 222.975 132.286 226.115 132.286C229.143 132.286 231.788 133.923 233.217 136.363" stroke="#FA2609" stroke-miterlimit="10" stroke-linecap="round" stroke-linejoin="round"/>
<path d="M223.123 126.075C223.123 127.511 222.7 128.676 222.179 128.676C221.657 128.676 221.234 127.512 221.234 126.075C221.234 124.639 221.658 123.474 222.179 123.474C222.7 123.474 223.123 124.639 223.123 126.075Z" fill="white" stroke="#FA2609" stroke-miterlimit="10" stroke-linecap="round" stroke-linejoin="round"/>
<path d="M230.209 126.075C230.209 127.511 229.786 128.676 229.265 128.676C228.743 128.676 228.32 127.512 228.32 126.075C228.32 124.639 228.743 123.474 229.265 123.474C229.787 123.474 230.209 124.639 230.209 126.075Z" fill="white" stroke="#FA2609" stroke-miterlimit="10" stroke-linecap="round" stroke-linejoin="round"/>
<path d="M212.952 108.109C215.641 101.703 212.634 94.3262 206.235 91.6333C199.835 88.9405 192.467 91.951 189.777 98.3575C187.087 104.764 190.094 112.14 196.494 114.833C202.893 117.526 210.262 114.516 212.952 108.109Z" fill="white" stroke="#FA2609" stroke-miterlimit="10" stroke-linecap="round" stroke-linejoin="round"/>
<path d="M208.468 106.148C207.081 108.737 204.352 110.498 201.212 110.498C198.184 110.498 195.538 108.86 194.109 106.421" fill="white"/>
<path d="M208.468 106.148C207.081 108.737 204.352 110.498 201.212 110.498C198.184 110.498 195.538 108.86 194.109 106.421" stroke="#FA2609" stroke-miterlimit="10" stroke-linecap="round" stroke-linejoin="round"/>
<path d="M198.373 100.916C198.373 102.352 197.95 103.517 197.429 103.517C196.907 103.517 196.484 102.353 196.484 100.916C196.484 99.4791 196.908 98.3149 197.429 98.3149C197.951 98.3149 198.373 99.4797 198.373 100.916Z" fill="white" stroke="#FA2609" stroke-miterlimit="10" stroke-linecap="round" stroke-linejoin="round"/>
<path d="M205.459 100.916C205.459 102.352 205.036 103.517 204.515 103.517C203.993 103.517 203.57 102.353 203.57 100.916C203.57 99.4791 203.993 98.3149 204.515 98.3149C205.036 98.3149 205.459 99.4797 205.459 100.916Z" fill="white" stroke="#FA2609" stroke-miterlimit="10" stroke-linecap="round" stroke-linejoin="round"/>
<path d="M190.389 151.675C193.079 145.268 190.072 137.892 183.672 135.199C177.273 132.506 169.904 135.516 167.214 141.923C164.524 148.329 167.532 155.706 173.931 158.399C180.331 161.092 187.699 158.081 190.389 151.675Z" fill="white" stroke="#FA2609" stroke-miterlimit="10" stroke-linecap="round" stroke-linejoin="round"/>
<path d="M175.811 144.481C175.811 145.917 175.388 147.082 174.866 147.082C174.345 147.082 173.922 145.918 173.922 144.481C173.922 143.045 174.345 141.88 174.866 141.88C175.388 141.88 175.811 143.045 175.811 144.481Z" fill="white" stroke="#FA2609" stroke-miterlimit="10" stroke-linecap="round" stroke-linejoin="round"/>
<path d="M182.897 144.481C182.897 145.917 182.474 147.082 181.952 147.082C181.43 147.082 181.008 145.918 181.008 144.481C181.008 143.045 181.431 141.88 181.952 141.88C182.474 141.88 182.897 143.045 182.897 144.481Z" fill="white" stroke="#FA2609" stroke-miterlimit="10" stroke-linecap="round" stroke-linejoin="round"/>
<path d="M172.844 139.428L177.148 142.17" stroke="#FA2609" stroke-miterlimit="10" stroke-linecap="round" stroke-linejoin="round"/>
<path d="M183.991 139.428L179.688 142.17" stroke="#FA2609" stroke-miterlimit="10" stroke-linecap="round" stroke-linejoin="round"/>
<path d="M176.953 152.158H180.279" stroke="#FA2609" stroke-miterlimit="10" stroke-linecap="round" stroke-linejoin="round"/>
<path d="M186.034 163.993H170.18V213.737H186.034V163.993Z" fill="white" stroke="#FA2609" stroke-miterlimit="10" stroke-linecap="round" stroke-linejoin="round"/>
<path d="M209.065 119.973H193.211V213.736H209.065V119.973Z" fill="white" stroke="#FA2609" stroke-miterlimit="10" stroke-linecap="round" stroke-linejoin="round"/>
<path d="M232.401 144.229H216.547V213.736H232.401V144.229Z" fill="white" stroke="#FA2609" stroke-miterlimit="10" stroke-linecap="round" stroke-linejoin="round"/>
<path d="M177.177 78.7275L177.289 79.0732H179.927L178.086 80.4121L177.793 80.625L177.904 80.9707L178.606 83.1348L176.769 81.7979L176.475 81.584L176.181 81.7979L174.341 83.1348L175.044 80.9707L175.156 80.625L174.862 80.4121L173.021 79.0732H175.659L175.771 78.7275L176.474 76.5625L177.177 78.7275Z" fill="white" stroke="#FA2609"/>
<path d="M190.435 78.7275L190.547 79.0732H193.185L191.344 80.4121L191.05 80.625L191.162 80.9707L191.864 83.1348L190.026 81.7979L189.732 81.584L189.438 81.7979L187.599 83.1348L188.302 80.9707L188.414 80.625L188.12 80.4121L186.279 79.0732H188.917L189.029 78.7275L189.731 76.5625L190.435 78.7275Z" fill="white" stroke="#FA2609"/>
<path d="M203.691 78.7275L203.804 79.0732H206.441L204.601 80.4121L204.308 80.625L204.42 80.9707L205.122 83.1348L203.283 81.7979L202.989 81.584L202.695 81.7979L200.855 83.1348L201.559 80.9707L201.671 80.625L201.377 80.4121L199.537 79.0732H202.175L202.287 78.7275L202.989 76.5635L203.691 78.7275Z" fill="white" stroke="#FA2609"/>
<path d="M216.949 78.7275L217.062 79.0732H219.699L217.858 80.4121L217.565 80.625L217.678 80.9707L218.38 83.1348L216.541 81.7979L216.247 81.584L215.953 81.7979L214.114 83.1348L214.817 80.9707L214.93 80.625L214.636 80.4121L212.795 79.0732H215.433L215.545 78.7275L216.247 76.5635L216.949 78.7275Z" fill="white" stroke="#FA2609"/>
<path d="M230.207 78.7275L230.319 79.0732H232.957L231.116 80.4121L230.823 80.625L230.936 80.9707L231.638 83.1348L229.799 81.7979L229.505 81.584L229.211 81.7979L227.372 83.1348L228.075 80.9707L228.188 80.625L227.894 80.4121L226.053 79.0732H228.69L228.803 78.7275L229.505 76.5635L230.207 78.7275Z" fill="white" stroke="#FA2609"/>
<path d="M108.488 167.521L108.601 167.867H111.238L109.397 169.206L109.104 169.418L109.217 169.764L109.918 171.928L108.08 170.591L107.786 170.377L107.492 170.591L105.652 171.928L106.355 169.764L106.468 169.418L106.174 169.206L104.334 167.867H106.972L107.084 167.521L107.786 165.357L108.488 167.521Z" fill="white" stroke="#FA2609"/>
<path d="M121.746 167.521L121.858 167.867H124.496L122.655 169.206L122.362 169.418L122.475 169.764L123.177 171.928L121.338 170.591L121.044 170.377L120.75 170.591L118.91 171.928L119.613 169.764L119.726 169.418L119.432 169.206L117.592 167.867H120.229L120.342 167.521L121.044 165.357L121.746 167.521Z" fill="white" stroke="#FA2609"/>
<path opacity="0.2" d="M135.004 167.521L135.116 167.867H137.754L135.913 169.206L135.62 169.418L135.732 169.764L136.435 171.928L134.596 170.591L134.302 170.377L134.008 170.591L132.169 171.928L132.872 169.764L132.984 169.418L132.69 169.206L130.85 167.867H133.487L133.6 167.521L134.302 165.357L135.004 167.521Z" fill="white" stroke="#FA2609"/>
<path opacity="0.2" d="M148.262 167.521L148.374 167.867H151.012L149.171 169.206L148.878 169.418L148.99 169.764L149.692 171.928L147.854 170.591L147.56 170.377L147.266 170.591L145.427 171.928L146.13 169.764L146.242 169.418L145.948 169.206L144.107 167.867H146.745L146.857 167.521L147.56 165.357L148.262 167.521Z" fill="white" stroke="#FA2609"/>
<path opacity="0.2" d="M161.521 167.521L161.633 167.867H164.27L162.43 169.206L162.137 169.418L162.248 169.764L162.95 171.928L161.111 170.591L160.817 170.377L160.523 170.591L158.685 171.928L159.388 169.764L159.5 169.418L159.206 169.206L157.365 167.867H160.003L160.115 167.521L160.817 165.356L161.521 167.521Z" fill="white" stroke="#FA2609"/>
<path d="M244.699 140.877L244.812 141.223H247.449L245.608 142.562L245.315 142.775L245.428 143.121L246.13 145.285L244.291 143.948L243.997 143.734L243.703 143.948L241.863 145.285L242.566 143.121L242.679 142.775L242.385 142.562L240.545 141.223H243.183L243.295 140.877L243.997 138.713L244.699 140.877Z" fill="white" stroke="#FA2609"/>
<path d="M257.957 140.877L258.069 141.223H260.707L258.866 142.562L258.573 142.775L258.686 143.121L259.388 145.285L257.549 143.948L257.255 143.734L256.961 143.948L255.121 145.285L255.824 143.121L255.937 142.775L255.643 142.562L253.803 141.223H256.44L256.553 140.877L257.255 138.713L257.957 140.877Z" fill="white" stroke="#FA2609"/>
<path d="M271.215 140.877L271.327 141.223H273.965L272.124 142.562L271.831 142.775L271.943 143.121L272.646 145.285L270.807 143.948L270.513 143.734L270.219 143.948L268.38 145.285L269.083 143.121L269.195 142.775L268.901 142.562L267.061 141.223H269.698L269.811 140.877L270.513 138.713L271.215 140.877Z" fill="white" stroke="#FA2609"/>
<path opacity="0.2" d="M284.474 140.877L284.586 141.223H287.223L285.383 142.562L285.09 142.775L285.201 143.121L285.903 145.285L284.064 143.948L283.771 143.734L283.477 143.948L281.638 145.285L282.341 143.121L282.453 142.775L282.159 142.562L280.318 141.223H282.956L283.068 140.877L283.771 138.712L284.474 140.877Z" fill="white" stroke="#FA2609"/>
<path opacity="0.2" d="M297.731 140.877L297.844 141.223H300.48L298.641 142.562L298.348 142.775L298.459 143.121L299.161 145.285L297.322 143.948L297.028 143.734L296.734 143.948L294.896 145.285L295.599 143.121L295.711 142.775L295.417 142.562L293.576 141.223H296.214L296.326 140.877L297.028 138.712L297.731 140.877Z" fill="white" stroke="#FA2609"/>
<path d="M381.775 248.955L380.786 267.344L375.275 266.778L373.297 249.662L381.775 248.955Z" fill="white" stroke="#FA2609" stroke-miterlimit="10" stroke-linecap="round" stroke-linejoin="round"/>
<path d="M383.046 265.646L371.46 265.788L371.601 269.041C371.601 269.041 370.188 265.08 370.047 267.202C369.906 269.324 371.177 272.295 371.036 272.86C370.895 273.426 370.47 275.124 365.667 276.963C360.863 278.801 359.591 279.509 360.156 280.499C360.721 281.49 363.971 282.762 368.775 282.762C373.579 282.762 377.253 280.923 377.253 280.923L377.394 282.479L383.046 282.338C383.046 282.338 384.035 280.216 383.612 277.529C383.188 274.841 382.622 272.436 382.764 271.588C382.906 270.739 383.046 265.646 383.046 265.646Z" fill="white" stroke="#FA2609" stroke-miterlimit="10" stroke-linecap="round" stroke-linejoin="round"/>
<path d="M366.508 248.672L369.899 268.758H375.834L377.67 248.389L366.508 248.672Z" fill="white" stroke="#FA2609" stroke-miterlimit="10" stroke-linecap="round" stroke-linejoin="round"/>
<path d="M378.945 265.646L367.358 265.788L367.499 269.041C367.499 269.041 366.086 265.08 365.945 267.202C365.804 269.324 367.075 272.295 366.934 272.86C366.793 273.426 366.369 275.124 361.565 276.963C356.761 278.801 355.49 279.509 356.054 280.499C356.62 281.49 359.078 283.088 363.882 283.088C368.687 283.088 372.754 281.691 372.754 281.691L373.293 282.679L378.945 282.538C378.945 282.538 379.935 280.217 379.511 277.529C379.087 274.842 378.521 272.437 378.663 271.588C378.805 270.74 378.945 265.646 378.945 265.646Z" fill="white" stroke="#FA2609" stroke-miterlimit="10" stroke-linecap="round" stroke-linejoin="round"/>
<path d="M354.219 193.222L352.523 250.511C352.523 250.511 361.566 251.925 369.762 252.067C377.957 252.208 389.12 249.52 389.12 249.52L384.739 190.11L354.219 189.402L354.219 193.222Z" fill="white" stroke="#FA2609" stroke-miterlimit="10" stroke-linecap="round" stroke-linejoin="round"/>
<path d="M364.82 141.132C364.82 141.132 361.693 146.2 360.651 150.075C359.609 153.95 357.227 192.85 357.227 192.85L384.174 192.999C384.174 192.999 382.834 161.7 379.857 151.416C376.879 141.132 374.575 139.373 374.575 139.373L364.82 141.132Z" fill="white" stroke="#FA2609" stroke-miterlimit="10" stroke-linecap="round" stroke-linejoin="round"/>
<path d="M363.989 115.983C363.989 115.983 362.51 117.834 361.647 119.192C360.784 120.549 359.551 121.29 358.688 121.413C357.825 121.537 356.962 122.154 357.702 123.511C358.442 124.869 359.181 125.733 359.181 125.733C359.181 125.733 358.935 131.779 360.044 132.15C361.154 132.52 364.852 132.026 364.852 132.026L365.098 138.196L373.234 136.468L372.988 128.447C372.988 128.447 373.604 123.141 369.906 119.438C366.208 115.736 363.989 115.983 363.989 115.983Z" fill="white" stroke="#FA2609" stroke-miterlimit="10" stroke-linecap="round" stroke-linejoin="round"/>
<path d="M362.658 120.554C362.685 120.643 362.706 120.758 362.707 120.893L362.698 121.07C362.677 121.28 362.617 121.451 362.555 121.566C362.528 121.477 362.509 121.362 362.508 121.227L362.517 121.051C362.538 120.841 362.596 120.67 362.658 120.554Z" fill="white" stroke="#FA2609"/>
<path d="M360.383 126.148C360.383 126.148 361.456 126.685 363.143 125.764L360.383 126.148Z" fill="white"/>
<path d="M360.383 126.148C360.383 126.148 361.456 126.685 363.143 125.764" stroke="#FA2609" stroke-miterlimit="10" stroke-linecap="round" stroke-linejoin="round"/>
<path d="M362.688 118.472C362.688 118.472 363.531 117.935 364.298 119.163L362.688 118.472Z" fill="white"/>
<path d="M362.688 118.472C362.688 118.472 363.531 117.935 364.298 119.163" stroke="#FA2609" stroke-miterlimit="10" stroke-linecap="round" stroke-linejoin="round"/>
<path d="M371.078 134.367C371.078 134.367 362.078 136.369 362.078 137.27C362.078 138.171 362.978 142.275 362.978 142.275L374.577 139.372L373.478 133.867L371.078 134.367Z" fill="white" stroke="#FA2609" stroke-miterlimit="10" stroke-linecap="round" stroke-linejoin="round"/>
<path d="M374.948 136.512C374.948 136.512 360.954 147.243 358.572 153.949C356.19 160.656 352.021 194.936 353.361 195.085C354.701 195.234 363.336 197.32 372.12 197.023C380.904 196.725 388.645 194.489 389.092 194.191C389.538 193.892 388.347 183.758 386.263 170.195C384.179 156.633 380.457 147.243 378.819 143.666C377.182 140.089 374.948 136.512 374.948 136.512Z" fill="white" stroke="#FA2609" stroke-miterlimit="10" stroke-linecap="round" stroke-linejoin="round"/>
<path d="M373.251 143.048L368.214 148.691L364.233 149.596V151.77L357.719 162.096" fill="white"/>
<path d="M373.251 143.048L368.214 148.691L364.233 149.596V151.77L357.719 162.096" stroke="#FA2609" stroke-miterlimit="10" stroke-linecap="round" stroke-linejoin="round"/>
<path d="M375.821 140.176L374.539 141.612" stroke="#FA2609" stroke-miterlimit="10" stroke-linecap="round" stroke-linejoin="round"/>
<path d="M364.896 203.424C364.896 203.424 361.669 203.339 361.269 204.341C360.868 205.343 359.922 211.194 359.922 211.194L362.192 211.244C362.192 211.244 362.676 206.066 363.176 205.464C363.677 204.863 371.005 204.527 371.706 205.028C372.407 205.529 372.607 210.943 372.607 210.943H375.211C375.211 210.943 374.31 205.63 373.208 204.126C372.106 202.622 364.896 203.424 364.896 203.424Z" fill="white" stroke="#FA2609" stroke-miterlimit="10" stroke-linecap="round" stroke-linejoin="round"/>
<path d="M380.47 210.542C380.47 210.542 356.434 210.542 354.932 210.642C353.43 210.742 352.429 211.845 352.429 213.248C352.429 214.652 350.726 234.703 351.427 235.405C352.128 236.106 379.368 236.908 381.471 236.808C383.574 236.708 384.576 235.004 384.576 234.001C384.576 232.998 383.074 212.146 382.773 211.343C382.473 210.542 380.47 210.542 380.47 210.542Z" fill="white" stroke="#FA2609" stroke-miterlimit="10" stroke-linecap="round" stroke-linejoin="round"/>
<path d="M378.898 216.305C380.278 214.812 381.244 213.69 381.365 213.416C381.807 212.419 381.697 211.755 381.697 211.755" fill="white"/>
<path d="M378.898 216.305C380.278 214.812 381.244 213.69 381.365 213.416C381.807 212.419 381.697 211.755 381.697 211.755" stroke="#FA2609" stroke-miterlimit="10" stroke-linecap="round" stroke-linejoin="round"/>
<path d="M353.492 212.973C353.492 212.973 365.149 227.687 367.251 227.133C368.553 226.79 373.487 221.992 377.159 218.152" fill="white"/>
<path d="M353.492 212.973C353.492 212.973 365.149 227.687 367.251 227.133C368.553 226.79 373.487 221.992 377.159 218.152" stroke="#FA2609" stroke-miterlimit="10" stroke-linecap="round" stroke-linejoin="round"/>
<path d="M363.993 200.324C363.993 200.324 362.884 206.48 363.892 207.086C364.901 207.691 366.412 206.783 366.412 206.783C366.412 206.783 367.118 206.985 367.824 206.884C368.53 206.783 369.739 206.177 369.739 206.177C369.739 206.177 370.344 206.581 370.848 205.975C371.352 205.37 371.352 200.727 371.352 200.727L363.993 200.324Z" fill="white" stroke="#FA2609" stroke-miterlimit="10" stroke-linecap="round" stroke-linejoin="round"/>
<path d="M372.001 148.283C372.001 148.283 367.237 149.028 365.004 153.35C362.771 157.672 363.18 181.671 363.18 181.671L363.031 201.345L371.815 201.642L378.961 161.848" fill="white"/>
<path d="M372.001 148.283C372.001 148.283 367.237 149.028 365.004 153.35C362.771 157.672 363.18 181.671 363.18 181.671L363.031 201.345L371.815 201.642L378.961 161.848" stroke="#FA2609" stroke-miterlimit="10" stroke-linecap="round" stroke-linejoin="round"/>
<path d="M380.874 114.008C380.874 114.008 378.778 110.923 376.313 110.059C373.847 109.195 361.644 109.442 361.397 110.923C361.151 112.404 361.397 114.625 363.616 117.587C365.835 120.548 368.424 124.374 368.424 124.374C368.424 124.374 369.04 127.953 369.41 130.05C369.78 132.148 369.287 136.714 369.287 136.714C369.287 136.714 371.876 137.084 376.929 136.837C381.983 136.59 384.202 135.603 384.202 135.603C384.202 135.603 382.97 134.246 382.723 128.199C382.476 122.153 380.874 114.008 380.874 114.008Z" fill="white" stroke="#FA2609" stroke-miterlimit="10" stroke-linecap="round" stroke-linejoin="round"/>
<path d="M379.682 109.778C379.682 109.778 375.861 113.234 377.34 116.936C378.819 120.638 380.545 123.353 383.01 123.229C385.476 123.106 387.694 121.748 389.79 118.91C391.886 116.071 391.763 112.369 388.681 110.271C385.6 108.174 380.299 108.791 379.682 109.778Z" fill="white" stroke="#FA2609" stroke-miterlimit="10" stroke-linecap="round" stroke-linejoin="round"/>
<path d="M367.07 125.855C367.07 125.855 369.906 122.523 371.015 124.128C372.125 125.732 370.522 128.077 369.536 128.571C368.55 129.064 368.55 129.064 368.55 129.064L367.563 128.571" fill="white"/>
<path d="M367.07 125.855C367.07 125.855 369.906 122.523 371.015 124.128C372.125 125.732 370.522 128.077 369.536 128.571C368.55 129.064 368.55 129.064 368.55 129.064L367.563 128.571" stroke="#FA2609" stroke-miterlimit="10" stroke-linecap="round" stroke-linejoin="round"/>
<path d="M15.4844 283.088H439.203" stroke="#FA2609" stroke-miterlimit="10" stroke-linecap="round" stroke-linejoin="round"/>
</svg>
