<svg width="460" height="460" viewBox="0 0 460 460" fill="none" xmlns="http://www.w3.org/2000/svg">
<rect width="460" height="460" fill="white"/>
<path d="M365.033 49.9919C374.287 40.738 389.291 40.7375 398.545 49.9912C407.799 59.2453 407.799 74.2498 398.545 83.5039C389.291 92.7576 374.287 92.7571 365.033 83.5032C355.779 74.2492 355.779 59.2459 365.033 49.9919Z" fill="white" stroke="#FA2609"/>
<path d="M380.533 77.2549L380.063 77.2266C377.307 77.0606 374.659 76.3561 372.919 75.4043L374.809 71.1279C376.806 72.1895 379.311 72.8564 381.541 72.8564C382.568 72.8564 383.344 72.7514 383.878 72.5098C384.153 72.3853 384.388 72.2143 384.552 71.9814C384.718 71.7443 384.787 71.478 384.787 71.209C384.787 70.6526 384.466 70.2593 384.062 69.9922C383.672 69.735 383.151 69.5538 382.594 69.4033C382.029 69.2508 381.373 69.1169 380.695 68.9756C380.011 68.833 379.294 68.6803 378.579 68.4893C377.142 68.105 375.771 67.5755 374.764 66.7031C373.779 65.8507 373.112 64.6466 373.112 62.8232C373.112 61.2465 373.682 59.8066 374.82 58.6748C375.963 57.5387 377.71 56.6855 380.103 56.3506L380.533 56.29V53.0674H383.787V56.249L384.24 56.292C386.253 56.4826 388.196 56.9748 389.774 57.7734L388.01 62.0205C386.049 61.0953 384.173 60.6338 382.386 60.6338C381.312 60.6338 380.522 60.7872 379.985 61.0918C379.41 61.418 379.141 61.9123 379.141 62.4629C379.141 63.0156 379.475 63.3956 379.876 63.6465C380.264 63.8897 380.785 64.0609 381.341 64.2031C381.904 64.3472 382.559 64.4739 383.236 64.6094C383.92 64.7461 384.637 64.8937 385.352 65.0801C386.788 65.4551 388.159 65.9766 389.166 66.8379C390.15 67.6791 390.814 68.8676 390.814 70.666C390.814 72.1679 390.274 73.5663 389.193 74.6895C388.109 75.8159 386.457 76.6896 384.201 77.083L383.787 77.1553V80.4229H380.533V77.2549Z" fill="white" stroke="#FA2609"/>
<path d="M339.721 85.4595C347.54 85.4596 353.879 91.7985 353.879 99.6177C353.879 107.437 347.54 113.776 339.721 113.776C331.902 113.776 325.563 107.437 325.562 99.6177C325.562 91.7984 331.901 85.4595 339.721 85.4595Z" fill="white" stroke="#FA2609"/>
<path d="M339.149 105.799L338.68 105.771C337.112 105.676 335.615 105.291 334.594 104.774L335.579 102.545C336.783 103.146 338.247 103.517 339.562 103.517C340.191 103.517 340.696 103.454 341.06 103.29C341.249 103.204 341.422 103.08 341.547 102.903C341.674 102.722 341.726 102.52 341.726 102.322C341.726 101.897 341.477 101.605 341.198 101.421C340.935 101.247 340.593 101.13 340.251 101.038C339.902 100.944 339.499 100.861 339.091 100.776C338.676 100.69 338.246 100.599 337.819 100.484C336.957 100.254 336.162 99.9422 335.586 99.4434C335.033 98.9646 334.653 98.2897 334.653 97.2422C334.653 96.3373 334.979 95.5162 335.63 94.8691C336.285 94.2177 337.3 93.7151 338.718 93.5166L339.148 93.4561V91.5293H340.726V93.4385L341.179 93.4814C342.311 93.5887 343.398 93.8556 344.296 94.2783L343.378 96.4902C342.236 95.9773 341.134 95.7188 340.074 95.7188C339.41 95.7188 338.892 95.8122 338.522 96.0215C338.115 96.2524 337.911 96.6157 337.911 97.0234C337.911 97.4517 338.174 97.736 338.449 97.9082C338.712 98.0725 339.052 98.1816 339.392 98.2686C339.739 98.3575 340.143 98.436 340.551 98.5176C340.965 98.6004 341.394 98.6885 341.82 98.7998C342.682 99.0247 343.477 99.3319 344.053 99.8242C344.605 100.296 344.983 100.961 344.983 101.993C344.983 102.853 344.675 103.651 344.057 104.294C343.435 104.94 342.475 105.454 341.141 105.687L340.727 105.759V107.707H339.149V105.799Z" fill="white" stroke="#FA2609"/>
<path d="M368.3 106.597C369.649 100.781 375.457 97.1597 381.273 98.5084C387.088 99.8571 390.71 105.665 389.361 111.481C388.012 117.297 382.204 120.918 376.388 119.569C370.573 118.221 366.951 112.413 368.3 106.597Z" fill="white" stroke="#FA2609"/>
<path d="M378.515 113.68L378.044 113.652C376.894 113.582 375.801 113.306 375.034 112.941L375.702 111.43C376.625 111.871 377.724 112.141 378.719 112.141C379.208 112.141 379.618 112.093 379.922 111.956C380.082 111.883 380.234 111.777 380.345 111.62C380.459 111.458 380.503 111.278 380.503 111.105C380.503 110.725 380.278 110.469 380.044 110.314C379.825 110.169 379.546 110.075 379.28 110.003C379.007 109.93 378.692 109.866 378.378 109.8C378.058 109.734 377.729 109.664 377.403 109.577C376.743 109.4 376.15 109.165 375.726 108.797C375.324 108.45 375.046 107.96 375.046 107.185C375.046 106.516 375.286 105.912 375.766 105.435C376.25 104.954 377.008 104.574 378.084 104.423L378.515 104.363V102.891H379.503V104.354L379.956 104.397C380.778 104.475 381.565 104.664 382.224 104.958L381.602 106.456C380.747 106.086 379.917 105.895 379.114 105.895C378.595 105.895 378.171 105.968 377.86 106.144C377.556 106.317 377.378 106.581 377.339 106.884L377.331 107.016L377.341 107.154C377.389 107.462 377.598 107.669 377.8 107.795C378.018 107.932 378.295 108.02 378.56 108.087C378.831 108.157 379.146 108.218 379.459 108.281C379.778 108.345 380.107 108.413 380.433 108.498C381.092 108.67 381.686 108.901 382.11 109.264C382.511 109.607 382.788 110.089 382.788 110.851L382.777 111.086C382.728 111.631 382.504 112.132 382.104 112.547C381.645 113.025 380.928 113.412 379.917 113.588L379.503 113.661V115.146H378.515V113.68Z" fill="white" stroke="#FA2609"/>
<path d="M332.818 60.2241V71.0786H332.164V60.2241H332.818Z" fill="white" stroke="#FA2609"/>
<path d="M337.917 65.3247V65.979H327.062V65.3247H337.917Z" fill="white" stroke="#FA2609"/>
<path d="M347.562 28.5V45.3057H346.078V28.5H347.562Z" fill="white" stroke="#FA2609"/>
<path d="M355.228 36.1606V37.645H338.422V36.1606H355.228Z" fill="white" stroke="#FA2609"/>
<path d="M403.404 119.557V132.04H402.523V119.557H403.404Z" fill="white" stroke="#FA2609"/>
<path d="M409.209 125.358V126.239H396.727V125.358H409.209Z" fill="white" stroke="#FA2609"/>
<path opacity="0.4" d="M164.86 57.3866C173.237 49.0098 186.818 49.0103 195.195 57.3873C203.572 65.7642 203.572 79.3452 195.195 87.7221C186.818 96.099 173.237 96.0996 164.86 87.7228C156.483 79.3458 156.483 65.7636 164.86 57.3866Z" fill="#FA2609" stroke="#FA2609"/>
<path opacity="0.4" d="M232.416 313.161C245.784 313.161 256.62 323.998 256.62 337.366C256.62 350.733 245.784 361.57 232.416 361.57C219.048 361.57 208.211 350.734 208.211 337.366C208.211 323.998 219.048 313.161 232.416 313.161Z" fill="#FA2609" stroke="#FA2609"/>
<mask id="path-15-inside-1_1384_42832" fill="white">
<path d="M186.67 373.6C186.411 373.6 186.152 373.598 185.893 373.594L185.905 372.883C187.076 372.902 188.267 372.876 189.434 372.808L189.476 373.518C188.548 373.573 187.604 373.6 186.67 373.6ZM182.316 373.403C181.129 373.295 179.933 373.14 178.763 372.944L178.881 372.242C180.034 372.436 181.212 372.588 182.381 372.694L182.316 373.403ZM193.041 373.175L192.947 372.47C194.109 372.314 195.279 372.111 196.424 371.868L196.571 372.564C195.409 372.811 194.221 373.017 193.041 373.175ZM175.255 372.217C174.098 371.931 172.939 371.597 171.811 371.225L172.034 370.549C173.145 370.916 174.286 371.245 175.425 371.526L175.255 372.217ZM200.045 371.688L199.845 371.005C200.969 370.675 202.095 370.297 203.191 369.883L203.442 370.548C202.33 370.969 201.187 371.352 200.045 371.688ZM168.45 369.973C167.352 369.515 166.256 369.009 165.195 368.469L165.518 367.835C166.563 368.367 167.642 368.865 168.724 369.316L168.45 369.973ZM206.74 369.155L206.439 368.511C207.5 368.014 208.554 367.471 209.574 366.896L209.924 367.516C208.888 368.1 207.817 368.652 206.74 369.155ZM162.063 366.723C161.048 366.105 160.042 365.44 159.073 364.746L159.488 364.168C160.442 364.852 161.433 365.507 162.433 366.115L162.063 366.723ZM212.975 365.64L212.579 365.048C213.554 364.396 214.516 363.701 215.438 362.979L215.876 363.539C214.941 364.272 213.965 364.978 212.975 365.64ZM156.241 362.549C155.329 361.785 154.434 360.976 153.583 360.146L154.079 359.637C154.918 360.454 155.799 361.251 156.698 362.004L156.241 362.549ZM218.612 361.227L218.133 360.701C218.997 359.912 219.844 359.079 220.649 358.226L221.167 358.714C220.35 359.58 219.49 360.426 218.612 361.227ZM151.112 357.551C150.324 356.659 149.561 355.726 148.844 354.778L149.411 354.348C150.118 355.282 150.87 356.201 151.645 357.08L151.112 357.551ZM223.526 356.017L222.974 355.569C223.713 354.656 224.426 353.705 225.092 352.743L225.677 353.149C225.001 354.125 224.277 355.09 223.526 356.017ZM146.79 351.843C146.145 350.841 145.531 349.805 144.965 348.762L145.591 348.423C146.148 349.45 146.753 350.471 147.388 351.457L146.79 351.843ZM227.605 350.126L226.991 349.767C227.584 348.754 228.146 347.708 228.66 346.654L229.299 346.967C228.777 348.036 228.207 349.099 227.605 350.126ZM143.378 345.551C142.892 344.466 142.442 343.349 142.04 342.232L142.71 341.991C143.106 343.091 143.549 344.192 144.028 345.26L143.378 345.551ZM230.75 343.686L230.088 343.423C230.521 342.334 230.918 341.214 231.267 340.093L231.946 340.305C231.592 341.443 231.189 342.581 230.75 343.686ZM140.957 338.816C140.641 337.669 140.365 336.496 140.137 335.328L140.836 335.191C141.06 336.341 141.332 337.497 141.643 338.627L140.957 338.816ZM232.881 336.846L232.187 336.687C232.449 335.546 232.671 334.38 232.846 333.22L233.55 333.326C233.372 334.504 233.147 335.688 232.881 336.846ZM139.584 331.789C139.445 330.609 139.349 329.408 139.299 328.218L140.01 328.188C140.059 329.36 140.153 330.543 140.29 331.705L139.584 331.789ZM233.951 329.766L233.241 329.713C233.328 328.548 233.372 327.361 233.372 326.186H234.084C234.084 327.379 234.039 328.584 233.951 329.766ZM233.369 325.711C233.358 324.537 233.302 323.351 233.203 322.186L233.912 322.125C234.013 323.308 234.069 324.512 234.081 325.704L233.369 325.711ZM139.993 324.657L139.281 324.635C139.32 323.443 139.403 322.241 139.53 321.061L140.238 321.137C140.112 322.299 140.03 323.484 139.993 324.657ZM232.773 318.684C232.586 317.526 232.352 316.362 232.078 315.224L232.771 315.057C233.049 316.213 233.286 317.395 233.476 318.57L232.773 318.684ZM140.747 317.645L140.047 317.516C140.264 316.344 140.528 315.168 140.832 314.02L141.52 314.202C141.22 315.333 140.96 316.491 140.747 317.645ZM231.122 311.826C230.763 310.712 230.356 309.597 229.911 308.512L230.57 308.242C231.021 309.344 231.435 310.477 231.8 311.608L231.122 311.826ZM142.552 310.827L141.88 310.593C142.272 309.469 142.712 308.345 143.187 307.254L143.84 307.538C143.371 308.613 142.938 309.719 142.552 310.827ZM228.453 305.301C227.93 304.256 227.358 303.216 226.755 302.21L227.366 301.844C227.978 302.865 228.558 303.921 229.089 304.983L228.453 305.301ZM145.373 304.356L144.744 304.023C145.302 302.971 145.907 301.927 146.541 300.921L147.143 301.301C146.518 302.292 145.923 303.32 145.373 304.356ZM224.828 299.254C224.151 298.297 223.43 297.354 222.684 296.452L223.233 295.998C223.99 296.914 224.722 297.871 225.409 298.843L224.828 299.254ZM149.139 298.388L148.567 297.964C149.276 297.008 150.031 296.067 150.81 295.168L151.348 295.634C150.58 296.519 149.837 297.446 149.139 298.388ZM220.335 293.817C219.523 292.973 218.668 292.148 217.794 291.367L218.269 290.837C219.155 291.63 220.023 292.467 220.848 293.324L220.335 293.817ZM153.757 293.053L153.255 292.549C154.099 291.71 154.986 290.893 155.89 290.121L156.352 290.662C155.462 291.422 154.589 292.227 153.757 293.053ZM215.076 289.114C214.147 288.401 213.178 287.713 212.196 287.071L212.586 286.476C213.583 287.128 214.566 287.825 215.51 288.549L215.076 289.114ZM159.12 288.472L158.7 287.898C159.659 287.195 160.658 286.521 161.668 285.893L162.044 286.497C161.049 287.116 160.065 287.78 159.12 288.472ZM209.17 285.252C208.142 284.685 207.08 284.152 206.014 283.666L206.309 283.019C207.391 283.512 208.469 284.054 209.513 284.629L209.17 285.252ZM165.108 284.749L164.779 284.118C165.835 283.568 166.923 283.052 168.014 282.584L168.294 283.239C167.22 283.699 166.148 284.207 165.108 284.749ZM202.746 282.325C201.646 281.921 200.516 281.556 199.389 281.237L199.582 280.552C200.727 280.876 201.874 281.247 202.991 281.657L202.746 282.325ZM171.585 281.974L171.355 281.301C172.481 280.917 173.635 280.571 174.788 280.274L174.966 280.963C173.831 281.256 172.693 281.596 171.585 281.974ZM195.959 280.408C194.814 280.177 193.642 279.986 192.476 279.842L192.564 279.136C193.748 279.283 194.937 279.476 196.1 279.711L195.959 280.408ZM178.413 280.212L178.289 279.511C179.456 279.303 180.649 279.136 181.837 279.016L181.909 279.724C180.739 279.843 179.563 280.007 178.413 280.212ZM188.96 279.539C187.787 279.483 186.598 279.47 185.431 279.501L185.412 278.789C186.598 278.759 187.804 278.771 188.994 278.828L188.96 279.539Z"/>
</mask>
<path d="M186.67 373.6C186.411 373.6 186.152 373.598 185.893 373.594L185.905 372.883C187.076 372.902 188.267 372.876 189.434 372.808L189.476 373.518C188.548 373.573 187.604 373.6 186.67 373.6ZM182.316 373.403C181.129 373.295 179.933 373.14 178.763 372.944L178.881 372.242C180.034 372.436 181.212 372.588 182.381 372.694L182.316 373.403ZM193.041 373.175L192.947 372.47C194.109 372.314 195.279 372.111 196.424 371.868L196.571 372.564C195.409 372.811 194.221 373.017 193.041 373.175ZM175.255 372.217C174.098 371.931 172.939 371.597 171.811 371.225L172.034 370.549C173.145 370.916 174.286 371.245 175.425 371.526L175.255 372.217ZM200.045 371.688L199.845 371.005C200.969 370.675 202.095 370.297 203.191 369.883L203.442 370.548C202.33 370.969 201.187 371.352 200.045 371.688ZM168.45 369.973C167.352 369.515 166.256 369.009 165.195 368.469L165.518 367.835C166.563 368.367 167.642 368.865 168.724 369.316L168.45 369.973ZM206.74 369.155L206.439 368.511C207.5 368.014 208.554 367.471 209.574 366.896L209.924 367.516C208.888 368.1 207.817 368.652 206.74 369.155ZM162.063 366.723C161.048 366.105 160.042 365.44 159.073 364.746L159.488 364.168C160.442 364.852 161.433 365.507 162.433 366.115L162.063 366.723ZM212.975 365.64L212.579 365.048C213.554 364.396 214.516 363.701 215.438 362.979L215.876 363.539C214.941 364.272 213.965 364.978 212.975 365.64ZM156.241 362.549C155.329 361.785 154.434 360.976 153.583 360.146L154.079 359.637C154.918 360.454 155.799 361.251 156.698 362.004L156.241 362.549ZM218.612 361.227L218.133 360.701C218.997 359.912 219.844 359.079 220.649 358.226L221.167 358.714C220.35 359.58 219.49 360.426 218.612 361.227ZM151.112 357.551C150.324 356.659 149.561 355.726 148.844 354.778L149.411 354.348C150.118 355.282 150.87 356.201 151.645 357.08L151.112 357.551ZM223.526 356.017L222.974 355.569C223.713 354.656 224.426 353.705 225.092 352.743L225.677 353.149C225.001 354.125 224.277 355.09 223.526 356.017ZM146.79 351.843C146.145 350.841 145.531 349.805 144.965 348.762L145.591 348.423C146.148 349.45 146.753 350.471 147.388 351.457L146.79 351.843ZM227.605 350.126L226.991 349.767C227.584 348.754 228.146 347.708 228.66 346.654L229.299 346.967C228.777 348.036 228.207 349.099 227.605 350.126ZM143.378 345.551C142.892 344.466 142.442 343.349 142.04 342.232L142.71 341.991C143.106 343.091 143.549 344.192 144.028 345.26L143.378 345.551ZM230.75 343.686L230.088 343.423C230.521 342.334 230.918 341.214 231.267 340.093L231.946 340.305C231.592 341.443 231.189 342.581 230.75 343.686ZM140.957 338.816C140.641 337.669 140.365 336.496 140.137 335.328L140.836 335.191C141.06 336.341 141.332 337.497 141.643 338.627L140.957 338.816ZM232.881 336.846L232.187 336.687C232.449 335.546 232.671 334.38 232.846 333.22L233.55 333.326C233.372 334.504 233.147 335.688 232.881 336.846ZM139.584 331.789C139.445 330.609 139.349 329.408 139.299 328.218L140.01 328.188C140.059 329.36 140.153 330.543 140.29 331.705L139.584 331.789ZM233.951 329.766L233.241 329.713C233.328 328.548 233.372 327.361 233.372 326.186H234.084C234.084 327.379 234.039 328.584 233.951 329.766ZM233.369 325.711C233.358 324.537 233.302 323.351 233.203 322.186L233.912 322.125C234.013 323.308 234.069 324.512 234.081 325.704L233.369 325.711ZM139.993 324.657L139.281 324.635C139.32 323.443 139.403 322.241 139.53 321.061L140.238 321.137C140.112 322.299 140.03 323.484 139.993 324.657ZM232.773 318.684C232.586 317.526 232.352 316.362 232.078 315.224L232.771 315.057C233.049 316.213 233.286 317.395 233.476 318.57L232.773 318.684ZM140.747 317.645L140.047 317.516C140.264 316.344 140.528 315.168 140.832 314.02L141.52 314.202C141.22 315.333 140.96 316.491 140.747 317.645ZM231.122 311.826C230.763 310.712 230.356 309.597 229.911 308.512L230.57 308.242C231.021 309.344 231.435 310.477 231.8 311.608L231.122 311.826ZM142.552 310.827L141.88 310.593C142.272 309.469 142.712 308.345 143.187 307.254L143.84 307.538C143.371 308.613 142.938 309.719 142.552 310.827ZM228.453 305.301C227.93 304.256 227.358 303.216 226.755 302.21L227.366 301.844C227.978 302.865 228.558 303.921 229.089 304.983L228.453 305.301ZM145.373 304.356L144.744 304.023C145.302 302.971 145.907 301.927 146.541 300.921L147.143 301.301C146.518 302.292 145.923 303.32 145.373 304.356ZM224.828 299.254C224.151 298.297 223.43 297.354 222.684 296.452L223.233 295.998C223.99 296.914 224.722 297.871 225.409 298.843L224.828 299.254ZM149.139 298.388L148.567 297.964C149.276 297.008 150.031 296.067 150.81 295.168L151.348 295.634C150.58 296.519 149.837 297.446 149.139 298.388ZM220.335 293.817C219.523 292.973 218.668 292.148 217.794 291.367L218.269 290.837C219.155 291.63 220.023 292.467 220.848 293.324L220.335 293.817ZM153.757 293.053L153.255 292.549C154.099 291.71 154.986 290.893 155.89 290.121L156.352 290.662C155.462 291.422 154.589 292.227 153.757 293.053ZM215.076 289.114C214.147 288.401 213.178 287.713 212.196 287.071L212.586 286.476C213.583 287.128 214.566 287.825 215.51 288.549L215.076 289.114ZM159.12 288.472L158.7 287.898C159.659 287.195 160.658 286.521 161.668 285.893L162.044 286.497C161.049 287.116 160.065 287.78 159.12 288.472ZM209.17 285.252C208.142 284.685 207.08 284.152 206.014 283.666L206.309 283.019C207.391 283.512 208.469 284.054 209.513 284.629L209.17 285.252ZM165.108 284.749L164.779 284.118C165.835 283.568 166.923 283.052 168.014 282.584L168.294 283.239C167.22 283.699 166.148 284.207 165.108 284.749ZM202.746 282.325C201.646 281.921 200.516 281.556 199.389 281.237L199.582 280.552C200.727 280.876 201.874 281.247 202.991 281.657L202.746 282.325ZM171.585 281.974L171.355 281.301C172.481 280.917 173.635 280.571 174.788 280.274L174.966 280.963C173.831 281.256 172.693 281.596 171.585 281.974ZM195.959 280.408C194.814 280.177 193.642 279.986 192.476 279.842L192.564 279.136C193.748 279.283 194.937 279.476 196.1 279.711L195.959 280.408ZM178.413 280.212L178.289 279.511C179.456 279.303 180.649 279.136 181.837 279.016L181.909 279.724C180.739 279.843 179.563 280.007 178.413 280.212ZM188.96 279.539C187.787 279.483 186.598 279.47 185.431 279.501L185.412 278.789C186.598 278.759 187.804 278.771 188.994 278.828L188.96 279.539Z" fill="white" stroke="#FA2609" stroke-width="2" mask="url(#path-15-inside-1_1384_42832)"/>
<mask id="path-16-inside-2_1384_42832" fill="white">
<path d="M148.139 92.3072L148.133 91.5956C149.304 91.585 150.483 91.5048 151.637 91.3565L151.727 92.0621C150.546 92.2141 149.339 92.2966 148.139 92.3072ZM144.547 92.1264C143.357 91.9952 142.164 91.7903 141.002 91.5176L141.164 90.8247C142.299 91.0909 143.464 91.2907 144.625 91.4188L144.547 92.1264ZM155.262 91.3892L155.087 90.6995C156.218 90.4123 157.344 90.0528 158.432 89.6312L158.689 90.2947C157.574 90.7265 156.421 91.0949 155.262 91.3892ZM137.553 90.4852C136.431 90.0736 135.321 89.5888 134.254 89.0437L134.578 88.4098C135.619 88.9418 136.702 89.4152 137.798 89.8168L137.553 90.4852ZM161.96 88.7947L161.625 88.167C162.653 87.6182 163.659 87.0003 164.617 86.3305L165.025 86.9137C164.044 87.5997 163.013 88.2325 161.96 88.7947ZM131.154 87.2163C130.162 86.5491 129.201 85.8142 128.295 85.0317L128.76 84.4928C129.644 85.2571 130.584 85.9747 131.551 86.6263L131.154 87.2163ZM167.843 84.679L167.369 84.1487C168.238 83.3705 169.07 82.5314 169.842 81.6544L170.376 82.1243C169.586 83.0224 168.734 83.882 167.843 84.679ZM125.717 82.5217C124.912 81.6379 124.151 80.6963 123.457 79.7234L124.037 79.3101C124.714 80.2602 125.457 81.1793 126.243 82.0426L125.717 82.5217ZM172.587 79.285L172 78.8822C172.662 77.9184 173.271 76.9057 173.811 75.8718L174.442 76.2012C173.889 77.2603 173.264 78.2979 172.587 79.285ZM121.549 76.6751C120.976 75.6251 120.461 74.5303 120.02 73.4208L120.681 73.1575C121.112 74.2406 121.614 75.3094 122.173 76.3341L121.549 76.6751ZM175.913 72.9161L175.247 72.6651C175.66 71.572 176.009 70.4426 176.286 69.308L176.977 69.4768C176.693 70.6392 176.335 71.7963 175.913 72.9161ZM118.894 70.0036C118.589 68.8483 118.352 67.6613 118.189 66.4758L118.894 66.3784C119.053 67.5358 119.285 68.6943 119.582 69.822L118.894 70.0036ZM177.618 65.9369L176.911 65.8524C177.05 64.6976 177.119 63.5177 177.119 62.3462C177.119 61.9935 177.113 61.636 177.1 61.2842L177.811 61.2585C177.824 61.6192 177.831 61.9849 177.831 62.3462C177.831 63.5459 177.759 64.754 177.618 65.9369ZM117.911 62.8904C117.908 62.7094 117.906 62.5278 117.906 62.3459C117.906 61.3286 117.958 60.3024 118.06 59.2968L118.768 59.3685C118.668 60.3505 118.618 61.3525 118.618 62.3462C118.618 62.5241 118.619 62.7011 118.623 62.8776L117.911 62.8904ZM176.766 57.7879C176.586 56.6331 176.333 55.4791 176.015 54.3573L176.7 54.1632C177.025 55.3126 177.284 56.495 177.469 57.6777L176.766 57.7879ZM119.33 55.9015L118.636 55.7453C118.899 54.5771 119.236 53.4135 119.637 52.2871L120.307 52.526C119.915 53.6255 119.586 54.7613 119.33 55.9015ZM174.855 51.0424C174.404 49.9673 173.883 48.9078 173.305 47.8934L173.924 47.5413C174.515 48.5802 175.05 49.6656 175.512 50.7671L174.855 51.0424ZM121.684 49.2935L121.048 48.9756C121.582 47.907 122.187 46.8581 122.847 45.8585L123.441 46.2504C122.796 47.2265 122.206 48.2503 121.684 49.2935ZM171.388 44.9519C170.693 44.0145 169.934 43.1088 169.132 42.2597L169.649 41.771C170.471 42.6406 171.248 43.5679 171.96 44.528L171.388 44.9519ZM125.548 43.4404L125.006 42.9801C125.779 42.0684 126.615 41.1937 127.492 40.3799L127.976 40.9014C127.12 41.6958 126.303 42.55 125.548 43.4404ZM166.571 39.855C165.673 39.1076 164.721 38.4071 163.742 37.7729L164.129 37.1754C165.132 37.825 166.107 38.5423 167.027 39.308L166.571 39.855ZM130.688 38.6704L130.27 38.0945C131.238 37.3912 132.257 36.7393 133.3 36.1578L133.647 36.7795C132.628 37.3473 131.633 37.9835 130.688 38.6704ZM160.683 36.0445C159.633 35.5319 158.541 35.0784 157.438 34.6967L157.671 34.0244C158.801 34.4155 159.919 34.88 160.995 35.4052L160.683 36.0445ZM136.81 35.2583L136.541 34.5997C137.648 34.1471 138.794 33.7577 139.948 33.4426L140.135 34.1289C139.009 34.4366 137.891 34.8166 136.81 35.2583ZM154.054 33.7509C152.915 33.5058 151.747 33.327 150.582 33.2197L150.648 32.5112C151.84 32.6211 153.037 32.8039 154.204 33.0552L154.054 33.7509ZM143.572 33.4087L143.469 32.7045C144.648 32.5312 145.853 32.4267 147.052 32.3945L147.071 33.1059C145.901 33.1374 144.723 33.2394 143.572 33.4087Z"/>
</mask>
<path d="M148.139 92.3072L148.133 91.5956C149.304 91.585 150.483 91.5048 151.637 91.3565L151.727 92.0621C150.546 92.2141 149.339 92.2966 148.139 92.3072ZM144.547 92.1264C143.357 91.9952 142.164 91.7903 141.002 91.5176L141.164 90.8247C142.299 91.0909 143.464 91.2907 144.625 91.4188L144.547 92.1264ZM155.262 91.3892L155.087 90.6995C156.218 90.4123 157.344 90.0528 158.432 89.6312L158.689 90.2947C157.574 90.7265 156.421 91.0949 155.262 91.3892ZM137.553 90.4852C136.431 90.0736 135.321 89.5888 134.254 89.0437L134.578 88.4098C135.619 88.9418 136.702 89.4152 137.798 89.8168L137.553 90.4852ZM161.96 88.7947L161.625 88.167C162.653 87.6182 163.659 87.0003 164.617 86.3305L165.025 86.9137C164.044 87.5997 163.013 88.2325 161.96 88.7947ZM131.154 87.2163C130.162 86.5491 129.201 85.8142 128.295 85.0317L128.76 84.4928C129.644 85.2571 130.584 85.9747 131.551 86.6263L131.154 87.2163ZM167.843 84.679L167.369 84.1487C168.238 83.3705 169.07 82.5314 169.842 81.6544L170.376 82.1243C169.586 83.0224 168.734 83.882 167.843 84.679ZM125.717 82.5217C124.912 81.6379 124.151 80.6963 123.457 79.7234L124.037 79.3101C124.714 80.2602 125.457 81.1793 126.243 82.0426L125.717 82.5217ZM172.587 79.285L172 78.8822C172.662 77.9184 173.271 76.9057 173.811 75.8718L174.442 76.2012C173.889 77.2603 173.264 78.2979 172.587 79.285ZM121.549 76.6751C120.976 75.6251 120.461 74.5303 120.02 73.4208L120.681 73.1575C121.112 74.2406 121.614 75.3094 122.173 76.3341L121.549 76.6751ZM175.913 72.9161L175.247 72.6651C175.66 71.572 176.009 70.4426 176.286 69.308L176.977 69.4768C176.693 70.6392 176.335 71.7963 175.913 72.9161ZM118.894 70.0036C118.589 68.8483 118.352 67.6613 118.189 66.4758L118.894 66.3784C119.053 67.5358 119.285 68.6943 119.582 69.822L118.894 70.0036ZM177.618 65.9369L176.911 65.8524C177.05 64.6976 177.119 63.5177 177.119 62.3462C177.119 61.9935 177.113 61.636 177.1 61.2842L177.811 61.2585C177.824 61.6192 177.831 61.9849 177.831 62.3462C177.831 63.5459 177.759 64.754 177.618 65.9369ZM117.911 62.8904C117.908 62.7094 117.906 62.5278 117.906 62.3459C117.906 61.3286 117.958 60.3024 118.06 59.2968L118.768 59.3685C118.668 60.3505 118.618 61.3525 118.618 62.3462C118.618 62.5241 118.619 62.7011 118.623 62.8776L117.911 62.8904ZM176.766 57.7879C176.586 56.6331 176.333 55.4791 176.015 54.3573L176.7 54.1632C177.025 55.3126 177.284 56.495 177.469 57.6777L176.766 57.7879ZM119.33 55.9015L118.636 55.7453C118.899 54.5771 119.236 53.4135 119.637 52.2871L120.307 52.526C119.915 53.6255 119.586 54.7613 119.33 55.9015ZM174.855 51.0424C174.404 49.9673 173.883 48.9078 173.305 47.8934L173.924 47.5413C174.515 48.5802 175.05 49.6656 175.512 50.7671L174.855 51.0424ZM121.684 49.2935L121.048 48.9756C121.582 47.907 122.187 46.8581 122.847 45.8585L123.441 46.2504C122.796 47.2265 122.206 48.2503 121.684 49.2935ZM171.388 44.9519C170.693 44.0145 169.934 43.1088 169.132 42.2597L169.649 41.771C170.471 42.6406 171.248 43.5679 171.96 44.528L171.388 44.9519ZM125.548 43.4404L125.006 42.9801C125.779 42.0684 126.615 41.1937 127.492 40.3799L127.976 40.9014C127.12 41.6958 126.303 42.55 125.548 43.4404ZM166.571 39.855C165.673 39.1076 164.721 38.4071 163.742 37.7729L164.129 37.1754C165.132 37.825 166.107 38.5423 167.027 39.308L166.571 39.855ZM130.688 38.6704L130.27 38.0945C131.238 37.3912 132.257 36.7393 133.3 36.1578L133.647 36.7795C132.628 37.3473 131.633 37.9835 130.688 38.6704ZM160.683 36.0445C159.633 35.5319 158.541 35.0784 157.438 34.6967L157.671 34.0244C158.801 34.4155 159.919 34.88 160.995 35.4052L160.683 36.0445ZM136.81 35.2583L136.541 34.5997C137.648 34.1471 138.794 33.7577 139.948 33.4426L140.135 34.1289C139.009 34.4366 137.891 34.8166 136.81 35.2583ZM154.054 33.7509C152.915 33.5058 151.747 33.327 150.582 33.2197L150.648 32.5112C151.84 32.6211 153.037 32.8039 154.204 33.0552L154.054 33.7509ZM143.572 33.4087L143.469 32.7045C144.648 32.5312 145.853 32.4267 147.052 32.3945L147.071 33.1059C145.901 33.1374 144.723 33.2394 143.572 33.4087Z" fill="white" stroke="#FA2609" stroke-width="2" mask="url(#path-16-inside-2_1384_42832)"/>
<path d="M28.3887 225.229C33.802 225.23 38.207 229.635 38.207 235.048C38.207 240.461 33.802 244.866 28.3887 244.866C22.9754 244.866 18.5703 240.461 18.5703 235.048C18.5703 229.635 22.9754 225.229 28.3887 225.229ZM28.3887 225.652C23.2078 225.652 18.9932 229.867 18.9932 235.048C18.9932 240.229 23.2078 244.443 28.3887 244.443C33.5695 244.443 37.7842 240.229 37.7842 235.048C37.7842 229.867 33.5695 225.652 28.3887 225.652Z" fill="white" stroke="#FA2609"/>
<path d="M373.024 113.317V330.971H78.2812V113.317H373.024Z" fill="white" stroke="#FA2609"/>
<path d="M373.736 112.606V331.682H77.5703V112.606H373.736ZM77.9932 331.259H373.313V113.029H77.9932V331.259Z" fill="white" stroke="#FA2609"/>
<path d="M121.968 260.954V306.775H98.7734V260.954H121.968Z" fill="white" stroke="#FA2609"/>
<path d="M160.397 237.606V306.776H137.203V237.606H160.397Z" fill="white" stroke="#FA2609"/>
<path d="M198.819 189.449V306.776H175.625V189.449H198.819Z" fill="white" stroke="#FA2609"/>
<path d="M237.249 223.638V306.775H214.055V223.638H237.249Z" fill="white" stroke="#FA2609"/>
<path d="M275.679 186.531V306.775H252.484V186.531H275.679Z" fill="white" stroke="#FA2609"/>
<path d="M314.101 192.865V306.776H290.906V192.865H314.101Z" fill="white" stroke="#FA2609"/>
<path d="M352.53 150.88V306.775H329.336V150.88H352.53Z" fill="white" stroke="#FA2609"/>
<path d="M340.974 172.586L302.802 216.413L264.964 211.816L264.722 211.787L264.55 211.959L225.146 251.36L187.513 211.969L187.101 211.537L186.748 212.018L145.947 267.591L105.785 288.024L105.594 287.646L145.56 267.313L145.665 267.26L145.735 267.164L187.058 210.88L224.801 250.386L225.154 250.756L225.516 250.395L264.567 211.342L302.367 215.935L302.63 215.966L302.805 215.767L340.654 172.308L340.974 172.586Z" fill="white" stroke="#FA2609"/>
<path d="M284.686 140.311V140.734H166.609V140.311H284.686Z" fill="white" stroke="#FA2609"/>
<path d="M244.493 155.966V156.389H206.805V155.966H244.493Z" fill="white" stroke="#FA2609"/>
<path d="M151.73 77.1748V184.074H15.3672V77.1748H151.73Z" fill="white" stroke="#FA2609"/>
<path d="M152.443 76.4634V184.786H14.6562V76.4634H152.443ZM15.0791 184.363H152.021V76.8862H15.0791V184.363Z" fill="white" stroke="#FA2609"/>
<path d="M64.0127 94.8516V111.395H34.0312V94.8516H64.0127Z" fill="white" stroke="#FA2609"/>
<mask id="path-33-inside-3_1384_42832" fill="white">
<path d="M133.942 96.0435H77.5781V96.7901H133.942V96.0435Z"/>
</mask>
<path d="M133.942 96.0435H77.5781V96.7901H133.942V96.0435Z" fill="white"/>
<path d="M77.5781 96.0435V95.0435H76.5781V96.0435H77.5781ZM133.942 96.0435H134.942V95.0435H133.942V96.0435ZM133.942 96.7901V97.7901H134.942V96.7901H133.942ZM77.5781 96.7901H76.5781V97.7901H77.5781V96.7901ZM77.5781 97.0435H133.942V95.0435H77.5781V97.0435ZM132.942 96.0435V96.7901H134.942V96.0435H132.942ZM133.942 95.7901H77.5781V97.7901H133.942V95.7901ZM78.5781 96.7901V96.0435H76.5781V96.7901H78.5781Z" fill="#FA2609" mask="url(#path-33-inside-3_1384_42832)"/>
<mask id="path-35-inside-4_1384_42832" fill="white">
<path d="M133.942 102.75H77.5781V103.497H133.942V102.75Z"/>
</mask>
<path d="M133.942 102.75H77.5781V103.497H133.942V102.75Z" fill="white"/>
<path d="M77.5781 102.75V101.75H76.5781V102.75H77.5781ZM133.942 102.75H134.942V101.75H133.942V102.75ZM133.942 103.497V104.497H134.942V103.497H133.942ZM77.5781 103.497H76.5781V104.497H77.5781V103.497ZM77.5781 103.75H133.942V101.75H77.5781V103.75ZM132.942 102.75V103.497H134.942V102.75H132.942ZM133.942 102.497H77.5781V104.497H133.942V102.497ZM78.5781 103.497V102.75H76.5781V103.497H78.5781Z" fill="#FA2609" mask="url(#path-35-inside-4_1384_42832)"/>
<mask id="path-37-inside-5_1384_42832" fill="white">
<path d="M133.942 109.458H77.5781V110.204H133.942V109.458Z"/>
</mask>
<path d="M133.942 109.458H77.5781V110.204H133.942V109.458Z" fill="white"/>
<path d="M77.5781 109.458V108.458H76.5781V109.458H77.5781ZM133.942 109.458H134.942V108.458H133.942V109.458ZM133.942 110.204V111.204H134.942V110.204H133.942ZM77.5781 110.204H76.5781V111.204H77.5781V110.204ZM77.5781 110.458H133.942V108.458H77.5781V110.458ZM132.942 109.458V110.204H134.942V109.458H132.942ZM133.942 109.204H77.5781V111.204H133.942V109.204ZM78.5781 110.204V109.458H76.5781V110.204H78.5781Z" fill="#FA2609" mask="url(#path-37-inside-5_1384_42832)"/>
<path d="M54.0635 147.396V166.44H48.5938V147.396H54.0635Z" fill="white" stroke="#FA2609"/>
<path d="M60.5322 137.643V166.439H55.0625V137.643H60.5322Z" fill="white" stroke="#FA2609"/>
<path d="M78.2041 134.27V166.314H72.7344V134.27H78.2041Z" fill="white" stroke="#FA2609"/>
<path d="M84.6729 155.084V166.314H79.2031V155.084H84.6729Z" fill="white" stroke="#FA2609"/>
<path d="M102.345 144.53V166.412H96.875V144.53H102.345Z" fill="white" stroke="#FA2609"/>
<path d="M108.813 139.471V166.412H103.344V139.471H108.813Z" fill="white" stroke="#FA2609"/>
<path d="M126.478 151.308V166.266H121.008V151.308H126.478Z" fill="white" stroke="#FA2609"/>
<path d="M132.946 129.193V166.266H127.477V129.193H132.946Z" fill="white" stroke="#FA2609"/>
<mask id="path-47-inside-6_1384_42832" fill="white">
<path d="M133.444 167.139H33.8438V126.951H34.5904V166.393H133.444V167.139Z"/>
</mask>
<path d="M133.444 167.139H33.8438V126.951H34.5904V166.393H133.444V167.139Z" fill="white"/>
<path d="M133.444 167.139V168.139H134.444V167.139H133.444ZM33.8438 167.139H32.8438V168.139H33.8438V167.139ZM33.8438 126.951V125.951H32.8438V126.951H33.8438ZM34.5904 126.951H35.5904V125.951H34.5904V126.951ZM34.5904 166.393H33.5904V167.393H34.5904V166.393ZM133.444 166.393H134.444V165.393H133.444V166.393ZM133.444 166.139H33.8438V168.139H133.444V166.139ZM34.8438 167.139V126.951H32.8438V167.139H34.8438ZM33.8438 127.951H34.5904V125.951H33.8438V127.951ZM33.5904 126.951V166.393H35.5904V126.951H33.5904ZM34.5904 167.393H133.444V165.393H34.5904V167.393ZM132.444 166.393V167.139H134.444V166.393H132.444Z" fill="#FA2609" mask="url(#path-47-inside-6_1384_42832)"/>
<path d="M417.61 411.823L421.662 429.938L394.631 429.886L405.713 420.322L405.908 420.153L405.884 419.897L405.05 410.997L417.61 411.823Z" fill="white" stroke="#FA2609"/>
<path d="M405.779 420.209L409.817 423.602L409.774 423.653L405.736 420.26L405.779 420.209Z" fill="white" stroke="#FA2609"/>
<path d="M360.461 411.525L362.488 429.938H333.435L346.443 420.345L346.646 420.195V410.859L360.461 411.525Z" fill="white" stroke="#FA2609"/>
<path d="M346.545 420.209L350.583 423.602L350.539 423.654L346.501 420.261L346.545 420.209Z" fill="white" stroke="#FA2609"/>
<path d="M397.106 266.434C397.265 267.928 397.427 269.423 397.595 270.922L398.155 275.81C403.281 319.745 412.022 365.905 422.56 413.169L418.549 413.226L404.822 413.41L397.581 413.512C390.617 389.431 384.073 365.804 378.593 343.346L377.506 338.848V338.847C376.663 335.332 375.848 331.845 375.067 328.396L374.298 324.958L373.602 321.792C370.394 307.067 367.786 292.996 365.995 279.815L365.624 277.005V277.004C365.315 274.6 365.034 272.229 364.784 269.89L364.544 267.562V267.561L364.364 265.719C364.211 264.099 364.076 262.495 363.954 260.907L397.106 266.434Z" fill="white" stroke="#FA2609"/>
<path d="M377.833 276.502L373.471 323.241L373.307 325.02L365.08 413.162H340.544C341.047 362.893 342.687 315.139 349.115 279.494L349.426 277.8V277.799C349.894 275.266 350.396 272.804 350.917 270.4L364.127 268.103L378.854 265.539L377.833 276.502Z" fill="white" stroke="#FA2609"/>
<mask id="path-55-inside-7_1384_42832" fill="white">
<path d="M368.23 292.028L367.531 292.164L377.254 342.212L377.953 342.076L368.23 292.028Z"/>
</mask>
<path d="M368.23 292.028L367.531 292.164L377.254 342.212L377.953 342.076L368.23 292.028Z" fill="white"/>
<path d="M367.531 292.164L367.341 291.182L366.359 291.373L366.55 292.355L367.531 292.164ZM368.23 292.028L369.211 291.838L369.021 290.856L368.039 291.047L368.23 292.028ZM377.953 342.076L378.143 343.057L379.125 342.867L378.934 341.885L377.953 342.076ZM377.254 342.212L376.273 342.402L376.463 343.384L377.445 343.193L377.254 342.212ZM367.722 293.146L368.42 293.01L368.039 291.047L367.341 291.182L367.722 293.146ZM367.248 292.219L376.971 342.267L378.934 341.885L369.211 291.838L367.248 292.219ZM377.762 341.094L377.064 341.23L377.445 343.193L378.143 343.057L377.762 341.094ZM378.236 342.021L368.513 291.973L366.55 292.355L376.273 342.402L378.236 342.021Z" fill="#FA2609" mask="url(#path-55-inside-7_1384_42832)"/>
<path opacity="0.3" d="M397.104 266.434C397.416 269.37 397.745 272.313 398.092 275.272L378.314 276.049L365.107 276.568H365.106L349.545 277.184C349.98 274.867 350.441 272.609 350.92 270.4L364.131 268.104L364.589 268.023L364.542 267.561C364.315 265.313 364.12 263.095 363.952 260.907L397.104 266.434Z" fill="white" stroke="#FA2609"/>
<path d="M400.559 216.064L400.715 264.907C400.718 266.043 400.281 267.134 399.501 267.951L399.34 268.111C398.58 268.829 397.59 269.251 396.551 269.304L396.342 269.31L350.873 269.464L342.206 243.304L350.601 218.441L360.826 212.052L373.72 210.439L400.559 216.064Z" fill="white" stroke="#FA2609"/>
<mask id="path-59-inside-8_1384_42832" fill="white">
<path d="M376.979 222.361C374.154 222.361 371.414 221.357 369.281 219.349L369.647 218.96C373.712 222.786 380.099 222.78 384.833 218.947L385.169 219.362C382.7 221.361 379.797 222.361 376.979 222.361Z"/>
</mask>
<path d="M376.979 222.361C374.154 222.361 371.414 221.357 369.281 219.349L369.647 218.96C373.712 222.786 380.099 222.78 384.833 218.947L385.169 219.362C382.7 221.361 379.797 222.361 376.979 222.361Z" fill="white"/>
<path d="M369.281 219.349L368.553 218.663L367.868 219.392L368.596 220.077L369.281 219.349ZM369.647 218.96L370.332 218.232L369.604 217.547L368.919 218.275L369.647 218.96ZM384.833 218.947L385.61 218.318L384.981 217.541L384.204 218.17L384.833 218.947ZM385.169 219.362L385.798 220.139L386.576 219.51L385.946 218.733L385.169 219.362ZM376.979 221.361C374.394 221.361 371.904 220.444 369.967 218.621L368.596 220.077C370.925 222.27 373.914 223.361 376.979 223.361V221.361ZM370.009 220.034L370.375 219.646L368.919 218.275L368.553 218.663L370.009 220.034ZM368.962 219.689C373.439 223.902 380.393 223.828 385.462 219.725L384.204 218.17C379.804 221.731 373.985 221.67 370.332 218.232L368.962 219.689ZM384.056 219.577L384.392 219.991L385.946 218.733L385.61 218.318L384.056 219.577ZM384.54 218.585C382.242 220.445 379.56 221.361 376.979 221.361V223.361C380.034 223.361 383.157 222.277 385.798 220.139L384.54 218.585Z" fill="#FA2609" mask="url(#path-59-inside-8_1384_42832)"/>
<path d="M396.918 211.374C401.134 211.953 404.57 215.015 405.646 219.105L405.742 219.503L409.192 235.052L393.723 237.234L390.583 226.37L390.565 226.309L390.534 226.255L380.498 209.116L396.918 211.374Z" fill="white" stroke="#FA2609"/>
<path d="M412.669 250.736C412.838 252.036 412.891 253.208 412.842 254.271L412.814 254.722L412.813 254.726C412.614 257.672 411.63 259.726 410.171 261.173C408.794 262.538 406.956 263.4 404.846 263.933L404.42 264.035C402.034 264.578 399.368 264.718 396.722 264.722C395.4 264.723 394.09 264.691 392.825 264.659C391.563 264.627 390.343 264.595 389.216 264.599H387.839C380.954 264.58 374.067 264.276 367.178 263.902L367.162 263.901H367.146L348.741 264.076L346.942 261.275C349.404 258.048 355.731 253.918 366.736 256.526L366.849 256.554L366.962 256.527L396.793 249.768L397.31 249.65L397.162 249.141L393.999 238.201L409.409 236.033L412.669 250.736Z" fill="white" stroke="#FA2609"/>
<path d="M348.274 240.756L346.609 257.016L345.198 256.664L333.758 242.275L337.028 235.45L348.274 240.756Z" fill="white" stroke="#FA2609"/>
<path d="M349.744 227.735L349.599 227.865L349.579 228.058L348.386 239.701L337.465 234.547L344.719 219.413C346.662 215.358 350.416 212.48 354.816 211.644L355.244 211.57L370.702 209.123L349.744 227.735Z" fill="white" stroke="#FA2609"/>
<path opacity="0.2" d="M409.671 254.17C410.808 254.17 411.874 254.485 412.789 255.023C412.545 257.811 411.583 259.775 410.173 261.172C408.771 262.562 406.89 263.431 404.731 263.96C403.982 262.939 403.531 261.678 403.531 260.31C403.531 257.027 406.113 254.343 409.354 254.178L409.671 254.17Z" fill="white" stroke="#FA2609"/>
<mask id="path-66-inside-9_1384_42832" fill="white">
<path d="M349.846 228.07L346.094 261.217L346.624 261.277L350.377 228.13L349.846 228.07Z"/>
</mask>
<path d="M349.846 228.07L346.094 261.217L346.624 261.277L350.377 228.13L349.846 228.07Z" fill="white"/>
<path d="M346.094 261.217L345.1 261.104L344.988 262.098L345.981 262.21L346.094 261.217ZM349.846 228.07L349.959 227.076L348.965 226.964L348.853 227.958L349.846 228.07ZM350.377 228.13L351.37 228.243L351.483 227.249L350.489 227.136L350.377 228.13ZM346.624 261.277L346.512 262.271L347.505 262.383L347.618 261.389L346.624 261.277ZM347.087 261.329L350.84 228.183L348.853 227.958L345.1 261.104L347.087 261.329ZM349.734 229.064L350.264 229.124L350.489 227.136L349.959 227.076L349.734 229.064ZM349.383 228.018L345.63 261.164L347.618 261.389L351.37 228.243L349.383 228.018ZM346.737 260.283L346.206 260.223L345.981 262.21L346.512 262.271L346.737 260.283Z" fill="#FA2609" mask="url(#path-66-inside-9_1384_42832)"/>
<mask id="path-68-inside-10_1384_42832" fill="white">
<path d="M390.372 226.439L389.859 226.587L396.442 249.359L396.955 249.211L390.372 226.439Z"/>
</mask>
<path d="M390.372 226.439L389.859 226.587L396.442 249.359L396.955 249.211L390.372 226.439Z" fill="white"/>
<path d="M389.859 226.587L389.582 225.626L388.621 225.904L388.899 226.865L389.859 226.587ZM390.372 226.439L391.333 226.161L391.055 225.2L390.094 225.478L390.372 226.439ZM396.955 249.211L397.232 250.172L398.193 249.894L397.915 248.933L396.955 249.211ZM396.442 249.359L395.481 249.637L395.759 250.597L396.72 250.32L396.442 249.359ZM390.137 227.548L390.65 227.399L390.094 225.478L389.582 225.626L390.137 227.548ZM389.411 226.716L395.994 249.489L397.915 248.933L391.333 226.161L389.411 226.716ZM396.677 248.25L396.164 248.398L396.72 250.32L397.232 250.172L396.677 248.25ZM397.403 249.081L390.82 226.309L388.899 226.865L395.481 249.637L397.403 249.081Z" fill="#FA2609" mask="url(#path-68-inside-10_1384_42832)"/>
<mask id="path-70-inside-11_1384_42832" fill="white">
<path d="M383.405 169.407C383.314 168.204 383.371 166.968 383.741 165.788C384.103 164.616 384.867 163.519 385.959 162.873C386.502 162.554 387.103 162.337 387.72 162.232C388.337 162.124 388.967 162.124 389.583 162.195C390.818 162.34 392.004 162.788 393.044 163.46C394.084 164.131 394.976 165.063 395.526 166.196C396.087 167.32 396.209 168.668 395.858 169.871C395.514 171.08 394.79 172.122 393.954 173.003C393.098 173.874 392.125 174.609 391.098 175.241L390.984 175.066C391.958 174.378 392.892 173.628 393.68 172.748C394.467 171.877 395.123 170.867 395.408 169.749C395.696 168.639 395.592 167.441 395.069 166.418C394.563 165.388 393.722 164.537 392.755 163.903C391.787 163.266 390.672 162.835 389.523 162.692C388.378 162.543 387.186 162.705 386.186 163.263C385.184 163.823 384.462 164.803 384.083 165.904C383.886 166.454 383.764 167.032 383.69 167.618C383.62 168.206 383.608 168.8 383.614 169.396L383.405 169.407Z"/>
</mask>
<path d="M383.405 169.407C383.314 168.204 383.371 166.968 383.741 165.788C384.103 164.616 384.867 163.519 385.959 162.873C386.502 162.554 387.103 162.337 387.72 162.232C388.337 162.124 388.967 162.124 389.583 162.195C390.818 162.34 392.004 162.788 393.044 163.46C394.084 164.131 394.976 165.063 395.526 166.196C396.087 167.32 396.209 168.668 395.858 169.871C395.514 171.08 394.79 172.122 393.954 173.003C393.098 173.874 392.125 174.609 391.098 175.241L390.984 175.066C391.958 174.378 392.892 173.628 393.68 172.748C394.467 171.877 395.123 170.867 395.408 169.749C395.696 168.639 395.592 167.441 395.069 166.418C394.563 165.388 393.722 164.537 392.755 163.903C391.787 163.266 390.672 162.835 389.523 162.692C388.378 162.543 387.186 162.705 386.186 163.263C385.184 163.823 384.462 164.803 384.083 165.904C383.886 166.454 383.764 167.032 383.69 167.618C383.62 168.206 383.608 168.8 383.614 169.396L383.405 169.407Z" fill="white"/>
<path d="M383.405 169.407L382.408 169.482L382.482 170.456L383.457 170.405L383.405 169.407ZM383.741 165.788L384.695 166.087L384.696 166.083L383.741 165.788ZM385.959 162.873L385.452 162.011L385.45 162.012L385.959 162.873ZM387.72 162.232L387.888 163.218L387.891 163.217L387.72 162.232ZM389.583 162.195L389.699 161.202L389.697 161.202L389.583 162.195ZM393.044 163.46L392.501 164.3L392.502 164.301L393.044 163.46ZM395.526 166.196L394.627 166.633L394.631 166.642L395.526 166.196ZM395.858 169.871L394.898 169.591L394.897 169.597L395.858 169.871ZM393.954 173.003L394.667 173.703L394.673 173.698L394.679 173.692L393.954 173.003ZM391.098 175.241L390.261 175.788L390.793 176.602L391.622 176.093L391.098 175.241ZM390.984 175.066L390.407 174.249L389.619 174.805L390.147 175.613L390.984 175.066ZM393.68 172.748L392.938 172.078L392.936 172.081L393.68 172.748ZM395.408 169.749L394.44 169.498L394.439 169.502L395.408 169.749ZM395.069 166.418L394.172 166.859L394.175 166.866L394.179 166.873L395.069 166.418ZM392.755 163.903L392.205 164.738L392.206 164.739L392.755 163.903ZM389.523 162.692L389.394 163.684L389.4 163.685L389.523 162.692ZM386.186 163.263L385.699 162.389L385.698 162.39L386.186 163.263ZM384.083 165.904L385.025 166.241L385.029 166.229L384.083 165.904ZM383.69 167.618L382.698 167.493L382.697 167.499L383.69 167.618ZM383.614 169.396L383.666 170.395L384.624 170.345L384.614 169.385L383.614 169.396ZM384.403 169.331C384.317 168.206 384.376 167.106 384.695 166.087L382.786 165.489C382.367 166.829 382.311 168.202 382.408 169.482L384.403 169.331ZM384.696 166.083C384.998 165.107 385.624 164.233 386.468 163.734L385.45 162.012C384.11 162.805 383.208 164.124 382.785 165.493L384.696 166.083ZM386.465 163.735C386.902 163.479 387.388 163.303 387.888 163.218L387.552 161.246C386.817 161.371 386.101 161.63 385.452 162.011L386.465 163.735ZM387.891 163.217C388.396 163.129 388.927 163.127 389.469 163.189L389.697 161.202C389.006 161.122 388.278 161.12 387.549 161.247L387.891 163.217ZM389.467 163.189C390.539 163.314 391.58 163.705 392.501 164.3L393.587 162.62C392.427 161.871 391.097 161.366 389.699 161.202L389.467 163.189ZM392.502 164.301C393.41 164.886 394.168 165.687 394.627 166.633L396.426 165.759C395.785 164.439 394.757 163.375 393.586 162.62L392.502 164.301ZM394.631 166.642C395.08 167.542 395.178 168.631 394.898 169.591L396.818 170.151C397.24 168.705 397.094 167.098 396.421 165.749L394.631 166.642ZM394.897 169.597C394.612 170.599 393.999 171.503 393.228 172.314L394.679 173.692C395.581 172.741 396.417 171.562 396.82 170.144L394.897 169.597ZM393.24 172.302C392.453 173.104 391.548 173.791 390.574 174.389L391.622 176.093C392.703 175.428 393.744 174.644 394.667 173.703L393.24 172.302ZM391.935 174.694L391.821 174.519L390.147 175.613L390.261 175.788L391.935 174.694ZM391.56 175.883C392.565 175.174 393.566 174.374 394.425 173.416L392.936 172.081C392.218 172.882 391.352 173.583 390.407 174.249L391.56 175.883ZM394.422 173.419C395.274 172.475 396.038 171.325 396.377 169.997L394.439 169.502C394.207 170.409 393.66 171.278 392.938 172.078L394.422 173.419ZM396.376 170.001C396.722 168.669 396.601 167.218 395.959 165.963L394.179 166.873C394.583 167.663 394.671 168.608 394.44 169.498L396.376 170.001ZM395.967 165.977C395.364 164.751 394.384 163.776 393.304 163.067L392.206 164.739C393.06 165.299 393.761 166.024 394.172 166.859L395.967 165.977ZM393.305 163.068C392.218 162.353 390.959 161.863 389.646 161.7L389.4 163.685C390.386 163.807 391.356 164.179 392.205 164.738L393.305 163.068ZM389.652 161.701C388.336 161.529 386.92 161.709 385.699 162.389L386.672 164.136C387.451 163.702 388.419 163.557 389.394 163.684L389.652 161.701ZM385.698 162.39C384.442 163.092 383.58 164.292 383.137 165.579L385.029 166.229C385.343 165.313 385.927 164.553 386.674 164.136L385.698 162.39ZM383.142 165.567C382.914 166.201 382.778 166.854 382.698 167.493L384.682 167.744C384.749 167.211 384.858 166.706 385.025 166.241L383.142 165.567ZM382.697 167.499C382.619 168.15 382.608 168.794 382.614 169.406L384.614 169.385C384.608 168.807 384.62 168.261 384.683 167.737L382.697 167.499ZM383.562 168.397L383.354 168.408L383.457 170.405L383.666 170.395L383.562 168.397Z" fill="#FA2609" mask="url(#path-70-inside-11_1384_42832)"/>
<path d="M389.229 164.475C392.104 164.475 394.435 166.806 394.435 169.681C394.434 172.556 392.104 174.886 389.229 174.886C386.355 174.886 384.024 172.556 384.023 169.681C384.023 166.806 386.354 164.475 389.229 164.475Z" fill="white" stroke="#FA2609"/>
<path d="M373.519 168.835C376.725 168.385 379.995 168.628 382.985 169.758L383.579 169.997C393.081 174.016 396.448 184.643 397.395 199.713L393.771 200.669L390.91 196.29L390.004 196.674L391.077 201.383L381.035 204.036L361.828 204.814L363.371 189.64L363.406 189.293L363.095 189.14C361.981 188.593 360.873 187.248 360.149 185.416C359.432 183.598 359.123 181.368 359.54 179.137C359.956 176.914 361.095 174.681 363.291 172.834C365.353 171.101 368.371 169.689 372.646 168.97L373.519 168.835Z" fill="white" stroke="#FA2609"/>
<path d="M384.313 193.859V210.159C384.313 214.163 381.068 217.409 377.063 217.41C373.059 217.41 369.812 214.163 369.812 210.159V193.859H384.313Z" fill="white" stroke="#FA2609"/>
<path d="M379.054 200.999C377.42 204.966 374.113 207.006 369.812 208.186V201.991L379.054 200.999Z" fill="white" stroke="#FA2609"/>
<path d="M383.492 198.549C383.438 198.586 383.375 198.632 383.301 198.683C383.043 198.858 382.667 199.106 382.194 199.399C381.249 199.986 379.923 200.748 378.402 201.45C375.424 202.825 371.823 203.91 368.861 203.158L368.577 203.079H368.576C367.644 202.801 366.825 202.122 366.108 201.108C365.481 200.221 364.949 199.101 364.5 197.835L364.312 197.283C363.91 196.044 363.585 194.693 363.321 193.316L363.212 192.725C362.715 189.888 362.479 187.016 362.366 184.85C362.31 183.767 362.284 182.863 362.273 182.229C362.269 181.999 362.268 181.804 362.267 181.65L383.974 177.653L383.492 198.549Z" fill="white" stroke="#FA2609"/>
<path d="M364.898 189.764C364.942 189.764 365.023 189.787 365.11 189.905C365.197 190.022 365.266 190.209 365.266 190.436C365.266 190.663 365.197 190.85 365.11 190.967C365.023 191.085 364.942 191.108 364.898 191.108C364.854 191.108 364.774 191.085 364.688 190.967C364.6 190.85 364.531 190.664 364.531 190.436C364.531 190.209 364.6 190.022 364.688 189.905C364.774 189.787 364.854 189.764 364.898 189.764Z" fill="white" stroke="#FA2609"/>
<path d="M371.486 189.063C371.555 189.063 371.663 189.101 371.772 189.253C371.882 189.404 371.965 189.639 371.965 189.92C371.965 190.201 371.882 190.436 371.772 190.587C371.663 190.739 371.555 190.776 371.486 190.776C371.417 190.776 371.31 190.739 371.2 190.587C371.091 190.436 371.008 190.201 371.008 189.92C371.008 189.639 371.091 189.404 371.2 189.253C371.31 189.101 371.417 189.064 371.486 189.063Z" fill="white" stroke="#FA2609"/>
<path d="M371.047 186.342C371.304 186.316 371.644 186.341 372.059 186.401L372.498 186.471C373.05 186.568 373.52 186.766 373.84 186.963C373.56 186.98 373.205 186.969 372.815 186.922L372.385 186.859C372.065 186.803 371.752 186.764 371.493 186.728C371.222 186.69 371.014 186.656 370.857 186.611C370.764 186.584 370.714 186.559 370.69 186.544L370.697 186.495C370.707 186.454 370.72 186.44 370.747 186.422C370.789 186.395 370.879 186.359 371.047 186.342Z" fill="white" stroke="#FA2609"/>
<path d="M365.668 186.798C365.796 186.801 365.846 186.826 365.857 186.833C365.861 186.836 365.862 186.837 365.863 186.838L365.881 186.885L365.882 186.886C365.895 186.938 365.895 186.967 365.894 186.981C365.883 186.992 365.849 187.021 365.763 187.059C365.64 187.113 365.473 187.162 365.244 187.221C365.136 187.249 365.015 187.28 364.887 187.314L364.487 187.425C364.065 187.553 363.673 187.62 363.374 187.638C363.379 187.634 363.384 187.63 363.389 187.625C363.616 187.433 363.937 187.234 364.315 187.095L364.481 187.04C365.004 186.881 365.4 186.792 365.668 186.798Z" fill="white" stroke="#FA2609"/>
<path opacity="0.2" d="M376.395 190.716C377.518 190.716 378.43 191.627 378.43 192.751C378.43 193.875 377.518 194.786 376.395 194.786C375.271 194.786 374.359 193.875 374.359 192.751C374.359 191.627 375.271 190.716 376.395 190.716Z" fill="white" stroke="#FA2609"/>
<path opacity="0.2" d="M363.36 193.521C364.018 193.858 364.468 194.544 364.468 195.333C364.468 195.779 364.323 196.188 364.079 196.522C363.8 195.563 363.563 194.55 363.36 193.521Z" fill="white" stroke="#FA2609"/>
<mask id="path-83-inside-12_1384_42832" fill="white">
<path d="M367.775 191.47C367.802 191.695 367.749 191.929 367.662 192.133C367.574 192.338 367.457 192.516 367.34 192.678C367.107 193.004 366.879 193.288 366.82 193.544C366.789 193.667 366.799 193.796 366.831 193.926C366.86 194.052 366.931 194.166 367.032 194.276C367.239 194.496 367.563 194.663 367.916 194.792L367.89 195.069C367.471 195.118 367.015 195.039 366.623 194.748C366.428 194.605 366.262 194.391 366.172 194.144C366.097 193.902 366.061 193.629 366.133 193.372C366.281 192.862 366.613 192.556 366.875 192.288C367.148 192.015 367.38 191.782 367.497 191.452L367.775 191.47Z"/>
</mask>
<path d="M367.775 191.47C367.802 191.695 367.749 191.929 367.662 192.133C367.574 192.338 367.457 192.516 367.34 192.678C367.107 193.004 366.879 193.288 366.82 193.544C366.789 193.667 366.799 193.796 366.831 193.926C366.86 194.052 366.931 194.166 367.032 194.276C367.239 194.496 367.563 194.663 367.916 194.792L367.89 195.069C367.471 195.118 367.015 195.039 366.623 194.748C366.428 194.605 366.262 194.391 366.172 194.144C366.097 193.902 366.061 193.629 366.133 193.372C366.281 192.862 366.613 192.556 366.875 192.288C367.148 192.015 367.38 191.782 367.497 191.452L367.775 191.47Z" fill="white"/>
<path d="M367.775 191.47L368.767 191.347L368.665 190.529L367.842 190.473L367.775 191.47ZM367.662 192.133L368.581 192.528L368.584 192.522L367.662 192.133ZM367.34 192.678L366.528 192.095L366.527 192.096L367.34 192.678ZM366.82 193.544L367.789 193.79L367.792 193.78L367.794 193.769L366.82 193.544ZM366.831 193.926L367.805 193.699L367.803 193.691L367.801 193.683L366.831 193.926ZM367.032 194.276L366.294 194.951L366.304 194.961L367.032 194.276ZM367.916 194.792L368.911 194.885L368.983 194.117L368.258 193.852L367.916 194.792ZM367.89 195.069L368.006 196.062L368.81 195.968L368.886 195.162L367.89 195.069ZM366.623 194.748L367.219 193.945L367.216 193.943L366.623 194.748ZM366.172 194.144L365.218 194.442L365.224 194.463L365.232 194.484L366.172 194.144ZM366.133 193.372L365.173 193.093L365.17 193.101L366.133 193.372ZM366.875 192.288L366.167 191.581L366.158 191.59L366.875 192.288ZM367.497 191.452L367.565 190.454L366.808 190.403L366.555 191.117L367.497 191.452ZM366.782 191.594C366.781 191.587 366.784 191.597 366.778 191.627C366.772 191.657 366.761 191.697 366.741 191.744L368.584 192.522C368.712 192.218 368.823 191.803 368.767 191.347L366.782 191.594ZM366.744 191.737C366.698 191.843 366.631 191.952 366.528 192.095L368.152 193.262C368.283 193.08 368.45 192.833 368.581 192.528L366.744 191.737ZM366.527 192.096C366.432 192.228 366.286 192.423 366.176 192.592C366.066 192.761 365.916 193.015 365.846 193.318L367.794 193.769C367.783 193.817 367.776 193.801 367.853 193.683C367.93 193.564 368.014 193.454 368.153 193.261L366.527 192.096ZM365.851 193.298C365.765 193.634 365.804 193.94 365.861 194.168L367.801 193.683C367.793 193.652 367.812 193.7 367.789 193.79L365.851 193.298ZM365.857 194.152C365.938 194.501 366.123 194.764 366.294 194.951L367.77 193.601C367.739 193.567 367.782 193.602 367.805 193.699L365.857 194.152ZM366.304 194.961C366.672 195.353 367.175 195.586 367.573 195.731L368.258 193.852C367.952 193.74 367.805 193.638 367.761 193.591L366.304 194.961ZM366.92 194.699L366.894 194.976L368.886 195.162L368.911 194.885L366.92 194.699ZM367.774 194.075C367.558 194.101 367.369 194.057 367.219 193.945L366.028 195.552C366.66 196.021 367.383 196.135 368.006 196.062L367.774 194.075ZM367.216 193.943C367.198 193.93 367.177 193.91 367.156 193.883C367.136 193.856 367.122 193.829 367.113 193.804L365.232 194.484C365.391 194.924 365.682 195.297 366.031 195.554L367.216 193.943ZM367.127 193.846C367.107 193.782 367.097 193.73 367.095 193.692C367.092 193.655 367.096 193.64 367.096 193.642L365.17 193.101C365.026 193.614 365.11 194.098 365.218 194.442L367.127 193.846ZM367.094 193.65C367.159 193.425 367.286 193.299 367.591 192.986L366.158 191.59C365.94 191.814 365.403 192.299 365.173 193.093L367.094 193.65ZM367.582 192.995C367.826 192.751 368.234 192.364 368.439 191.786L366.555 191.117C366.525 191.2 366.469 191.279 366.167 191.581L367.582 192.995ZM367.429 192.449L367.707 192.468L367.842 190.473L367.565 190.454L367.429 192.449Z" fill="#FA2609" mask="url(#path-83-inside-12_1384_42832)"/>
<path d="M371.652 196.601C371.305 197.414 370.583 198.029 369.812 198.266C369.324 198.416 368.856 198.403 368.479 198.231C368.224 198.114 367.982 197.911 367.792 197.583L371.652 196.601Z" fill="white" stroke="#FA2609"/>
<path d="M385.808 176.196L388.365 184.529L383.534 188.555C382.452 188.012 381.521 187.281 380.786 186.236C379.986 185.097 379.396 183.559 379.119 181.433L379.029 180.745L378.404 181.048C373.327 183.517 367.926 184.158 361.45 184.197L361.018 180.808L371.789 175.421L385.808 176.196Z" fill="white" stroke="#FA2609"/>
<path d="M383.044 188.983C383.714 188.031 384.578 187.376 385.411 187.072C386.246 186.768 387.001 186.828 387.544 187.209C388.086 187.591 388.398 188.282 388.393 189.17C388.389 190.057 388.064 191.091 387.394 192.044C386.724 192.996 385.861 193.65 385.028 193.954C384.193 194.259 383.437 194.198 382.895 193.817C382.353 193.436 382.041 192.745 382.046 191.856C382.05 190.969 382.374 189.935 383.044 188.983Z" fill="white" stroke="#FA2609"/>
<mask id="path-88-inside-13_1384_42832" fill="white">
<path d="M383.96 191.989C383.858 191.62 383.826 191.229 383.872 190.833C383.915 190.437 384.05 190.031 384.293 189.682C384.537 189.333 384.885 189.062 385.261 188.904C385.636 188.743 386.034 188.68 386.419 188.705L386.467 188.979C386.135 189.135 385.823 189.28 385.551 189.457C385.28 189.635 385.051 189.843 384.872 190.09C384.689 190.338 384.566 190.633 384.467 190.952C384.37 191.272 384.309 191.616 384.238 191.976L383.96 191.989Z"/>
</mask>
<path d="M383.96 191.989C383.858 191.62 383.826 191.229 383.872 190.833C383.915 190.437 384.05 190.031 384.293 189.682C384.537 189.333 384.885 189.062 385.261 188.904C385.636 188.743 386.034 188.68 386.419 188.705L386.467 188.979C386.135 189.135 385.823 189.28 385.551 189.457C385.28 189.635 385.051 189.843 384.872 190.09C384.689 190.338 384.566 190.633 384.467 190.952C384.37 191.272 384.309 191.616 384.238 191.976L383.96 191.989Z" fill="white"/>
<path d="M383.96 191.989L382.997 192.256L383.21 193.026L384.008 192.988L383.96 191.989ZM383.872 190.833L384.865 190.946L384.866 190.942L383.872 190.833ZM384.293 189.682L385.113 190.255L385.113 190.254L384.293 189.682ZM385.261 188.904L385.649 189.825L385.655 189.823L385.261 188.904ZM386.419 188.705L387.404 188.533L387.269 187.757L386.483 187.707L386.419 188.705ZM386.467 188.979L386.892 189.884L387.583 189.56L387.452 188.807L386.467 188.979ZM385.551 189.457L385.005 188.62L385.003 188.621L385.551 189.457ZM384.872 190.09L385.677 190.684L385.681 190.677L384.872 190.09ZM384.467 190.952L383.512 190.655L383.51 190.662L384.467 190.952ZM384.238 191.976L384.285 192.975L385.068 192.938L385.219 192.169L384.238 191.976ZM384.924 191.722C384.856 191.478 384.834 191.216 384.865 190.946L382.878 190.719C382.818 191.243 382.86 191.763 382.997 192.256L384.924 191.722ZM384.866 190.942C384.893 190.69 384.978 190.448 385.113 190.255L383.473 189.11C383.121 189.614 382.937 190.185 382.878 190.723L384.866 190.942ZM385.113 190.254C385.243 190.068 385.438 189.914 385.649 189.825L384.873 187.982C384.332 188.21 383.83 188.598 383.473 189.11L385.113 190.254ZM385.655 189.823C385.881 189.726 386.121 189.688 386.356 189.703L386.483 187.707C385.947 187.673 385.392 187.759 384.866 187.985L385.655 189.823ZM385.434 188.877L385.482 189.151L387.452 188.807L387.404 188.533L385.434 188.877ZM386.042 188.074C385.728 188.221 385.347 188.396 385.005 188.62L386.098 190.295C386.3 190.163 386.542 190.049 386.892 189.884L386.042 188.074ZM385.003 188.621C384.648 188.853 384.324 189.141 384.062 189.504L385.681 190.677C385.778 190.544 385.912 190.417 386.1 190.293L385.003 188.621ZM384.066 189.497C383.79 189.873 383.626 190.287 383.512 190.655L385.422 191.249C385.506 190.979 385.589 190.803 385.677 190.684L384.066 189.497ZM383.51 190.662C383.395 191.043 383.322 191.453 383.257 191.783L385.219 192.169C385.296 191.779 385.346 191.5 385.424 191.241L383.51 190.662ZM384.191 190.977L383.913 190.99L384.008 192.988L384.285 192.975L384.191 190.977Z" fill="#FA2609" mask="url(#path-88-inside-13_1384_42832)"/>
<path d="M385.412 170.145C385.545 170.19 385.679 170.238 385.811 170.292V170.292C386.451 170.56 387.049 170.924 387.596 171.351L387.827 171.538C388.36 171.983 388.841 172.484 389.267 173.027L389.445 173.261C389.525 173.372 389.602 173.485 389.678 173.597L389.35 173.341L387.556 171.862C386.964 171.37 386.371 170.88 385.754 170.406H385.753C385.64 170.318 385.526 170.231 385.412 170.145Z" fill="white" stroke="#FA2609"/>
<path d="M365.295 264.96V269.535H347.438V264.96H365.295Z" fill="white" stroke="#FA2609"/>
<path d="M333.924 230.061L352.199 269.537H310.605L292.33 230.061H333.924Z" fill="white" stroke="#FA2609"/>
<path d="M330.501 262.528C331.104 262.588 331.594 263.158 331.594 263.838V265.618L332.593 265.642C332.624 264.99 333.159 264.475 333.817 264.481L333.95 264.489C334.547 264.557 335.024 265.122 335.024 265.792V270.206L336.024 270.229C336.06 269.496 336.468 268.927 337.126 268.749L337.261 268.718C337.534 268.669 337.697 268.714 337.799 268.775C337.905 268.839 338.005 268.956 338.081 269.151C338.24 269.557 338.245 270.174 338.108 270.773C337.888 271.524 337.708 272.081 337.533 272.501C337.356 272.926 337.198 273.177 337.039 273.338C336.779 273.601 336.443 273.707 335.659 273.777L335.295 273.804C332.463 273.997 329.661 274.028 326.892 273.881L325.706 273.807C324.685 273.734 324.091 273.606 323.656 273.201C323.266 272.837 322.934 272.181 322.672 270.895L322.564 270.305C322.564 270.302 322.564 270.299 322.563 270.295C322.561 270.274 322.558 270.242 322.555 270.2C322.548 270.116 322.539 269.994 322.534 269.848C322.525 269.554 322.533 269.174 322.593 268.808C322.654 268.433 322.762 268.127 322.914 267.935C323.026 267.793 323.17 267.698 323.408 267.696L323.516 267.701C323.79 267.726 324.078 267.911 324.319 268.241C324.529 268.528 324.667 268.877 324.71 269.189L324.723 269.321L325.722 269.294V265.792C325.722 265.163 326.142 264.628 326.687 264.507L326.797 264.489C327.514 264.407 328.12 264.947 328.154 265.642L329.153 265.618V263.741C329.153 263.07 329.694 262.526 330.365 262.521L330.501 262.528Z" fill="white" stroke="#FA2609"/>
<mask id="path-94-inside-14_1384_42832" fill="white">
<path d="M325.268 266.889C325.41 267.607 325.461 268.328 325.488 269.049C325.5 269.41 325.501 269.771 325.487 270.132C325.473 270.494 325.447 270.856 325.387 271.218L325.178 271.224C325.098 270.865 325.052 270.505 325.018 270.145C324.984 269.785 324.966 269.424 324.957 269.064C324.945 268.342 324.956 267.62 325.059 266.895L325.268 266.889Z"/>
</mask>
<path d="M325.268 266.889C325.41 267.607 325.461 268.328 325.488 269.049C325.5 269.41 325.501 269.771 325.487 270.132C325.473 270.494 325.447 270.856 325.387 271.218L325.178 271.224C325.098 270.865 325.052 270.505 325.018 270.145C324.984 269.785 324.966 269.424 324.957 269.064C324.945 268.342 324.956 267.62 325.059 266.895L325.268 266.889Z" fill="white"/>
<path d="M325.268 266.889L326.249 266.695L326.084 265.866L325.24 265.89L325.268 266.889ZM325.488 269.049L326.488 269.018L326.487 269.012L325.488 269.049ZM325.487 270.132L324.488 270.093L324.487 270.095L325.487 270.132ZM325.387 271.218L325.414 272.218L326.238 272.195L326.373 271.382L325.387 271.218ZM325.178 271.224L324.202 271.442L324.381 272.246L325.205 272.224L325.178 271.224ZM325.018 270.145L326.014 270.053L326.014 270.051L325.018 270.145ZM324.957 269.064L323.957 269.082L323.958 269.087L324.957 269.064ZM325.059 266.895L325.032 265.895L324.188 265.918L324.069 266.755L325.059 266.895ZM324.287 267.084C324.414 267.725 324.463 268.384 324.489 269.086L326.487 269.012C326.46 268.272 326.406 267.49 326.249 266.695L324.287 267.084ZM324.489 269.081C324.499 269.423 324.501 269.76 324.488 270.093L326.486 270.172C326.501 269.782 326.5 269.396 326.488 269.018L324.489 269.081ZM324.487 270.095C324.475 270.434 324.451 270.75 324.4 271.055L326.373 271.382C326.443 270.962 326.472 270.554 326.486 270.169L324.487 270.095ZM325.359 270.219L325.151 270.224L325.205 272.224L325.414 272.218L325.359 270.219ZM326.154 271.006C326.087 270.705 326.045 270.391 326.014 270.053L324.022 270.237C324.058 270.62 324.109 271.026 324.202 271.442L326.154 271.006ZM326.014 270.051C325.982 269.719 325.965 269.383 325.957 269.041L323.958 269.087C323.966 269.466 323.986 269.851 324.023 270.24L326.014 270.051ZM325.957 269.046C325.945 268.344 325.958 267.683 326.049 267.035L324.069 266.755C323.955 267.557 323.944 268.341 323.957 269.082L325.957 269.046ZM325.087 267.894L325.295 267.889L325.24 265.89L325.032 265.895L325.087 267.894Z" fill="#FA2609" mask="url(#path-94-inside-14_1384_42832)"/>
<mask id="path-96-inside-15_1384_42832" fill="white">
<path d="M328.756 265.615C328.9 266.377 328.953 267.142 328.981 267.908C328.994 268.291 328.995 268.674 328.982 269.058C328.969 269.441 328.943 269.825 328.884 270.21L328.675 270.215C328.594 269.835 328.547 269.453 328.513 269.07C328.479 268.688 328.459 268.305 328.45 267.922C328.436 267.156 328.447 266.39 328.548 265.62L328.756 265.615Z"/>
</mask>
<path d="M328.756 265.615C328.9 266.377 328.953 267.142 328.981 267.908C328.994 268.291 328.995 268.674 328.982 269.058C328.969 269.441 328.943 269.825 328.884 270.21L328.675 270.215C328.594 269.835 328.547 269.453 328.513 269.07C328.479 268.688 328.459 268.305 328.45 267.922C328.436 267.156 328.447 266.39 328.548 265.62L328.756 265.615Z" fill="white"/>
<path d="M328.756 265.615L329.739 265.43L329.581 264.592L328.729 264.615L328.756 265.615ZM328.981 267.908L329.981 267.876L329.981 267.871L328.981 267.908ZM328.982 269.058L327.982 269.022L327.982 269.024L328.982 269.058ZM328.884 270.21L328.911 271.209L329.744 271.187L329.872 270.363L328.884 270.21ZM328.675 270.215L327.697 270.423L327.87 271.238L328.702 271.215L328.675 270.215ZM328.513 269.07L329.509 268.982L329.509 268.98L328.513 269.07ZM328.45 267.922L327.451 267.941L327.451 267.945L328.45 267.922ZM328.548 265.62L328.521 264.621L327.668 264.644L327.557 265.49L328.548 265.62ZM327.774 265.8C327.904 266.49 327.954 267.197 327.982 267.945L329.981 267.871C329.952 267.087 329.897 266.265 329.739 265.43L327.774 265.8ZM327.982 267.94C327.993 268.305 327.995 268.665 327.982 269.022L329.981 269.093C329.996 268.682 329.994 268.276 329.981 267.876L327.982 267.94ZM327.982 269.024C327.97 269.387 327.946 269.727 327.895 270.057L329.872 270.363C329.94 269.923 329.968 269.496 329.981 269.091L327.982 269.024ZM328.856 269.21L328.648 269.216L328.702 271.215L328.911 271.209L328.856 269.21ZM329.653 270.008C329.584 269.681 329.541 269.343 329.509 268.982L327.517 269.159C327.553 269.562 327.604 269.988 327.697 270.423L329.653 270.008ZM329.509 268.98C329.477 268.624 329.459 268.264 329.45 267.899L327.451 267.945C327.46 268.347 327.48 268.752 327.517 269.161L329.509 268.98ZM329.45 267.904C329.436 267.156 329.448 266.447 329.539 265.751L327.557 265.49C327.446 266.332 327.436 267.157 327.451 267.941L329.45 267.904ZM328.575 266.62L328.784 266.614L328.729 264.615L328.521 264.621L328.575 266.62Z" fill="#FA2609" mask="url(#path-96-inside-15_1384_42832)"/>
<mask id="path-98-inside-16_1384_42832" fill="white">
<path d="M332.196 265.613C332.349 266.334 332.412 267.059 332.45 267.785C332.467 268.148 332.474 268.512 332.465 268.876C332.458 269.24 332.437 269.605 332.382 269.971L332.174 269.98C332.088 269.62 332.036 269.258 331.997 268.896C331.958 268.534 331.933 268.171 331.92 267.808C331.896 267.081 331.896 266.353 331.988 265.622L332.196 265.613Z"/>
</mask>
<path d="M332.196 265.613C332.349 266.334 332.412 267.059 332.45 267.785C332.467 268.148 332.474 268.512 332.465 268.876C332.458 269.24 332.437 269.605 332.382 269.971L332.174 269.98C332.088 269.62 332.036 269.258 331.997 268.896C331.958 268.534 331.933 268.171 331.92 267.808C331.896 267.081 331.896 266.353 331.988 265.622L332.196 265.613Z" fill="white"/>
<path d="M332.196 265.613L333.174 265.405L332.998 264.58L332.155 264.614L332.196 265.613ZM332.45 267.785L333.449 267.738L333.449 267.733L332.45 267.785ZM332.465 268.876L331.466 268.852L331.466 268.854L332.465 268.876ZM332.382 269.971L332.424 270.97L333.249 270.935L333.371 270.119L332.382 269.971ZM332.174 269.98L331.201 270.211L331.392 271.014L332.216 270.979L332.174 269.98ZM331.997 268.896L332.991 268.789L332.991 268.787L331.997 268.896ZM331.92 267.808L330.92 267.84L330.92 267.846L331.92 267.808ZM331.988 265.622L331.947 264.623L331.1 264.657L330.995 265.498L331.988 265.622ZM331.218 265.821C331.355 266.466 331.414 267.13 331.452 267.838L333.449 267.733C333.41 266.988 333.344 266.202 333.174 265.405L331.218 265.821ZM331.451 267.832C331.467 268.177 331.474 268.516 331.466 268.852L333.465 268.899C333.474 268.507 333.467 268.12 333.449 267.738L331.451 267.832ZM331.466 268.854C331.458 269.196 331.439 269.515 331.393 269.823L333.371 270.119C333.434 269.695 333.457 269.283 333.465 268.898L331.466 268.854ZM332.34 268.972L332.132 268.981L332.216 270.979L332.424 270.97L332.34 268.972ZM333.147 269.748C333.074 269.445 333.028 269.129 332.991 268.789L331.003 269.003C331.044 269.386 331.102 269.794 331.201 270.211L333.147 269.748ZM332.991 268.787C332.955 268.453 332.932 268.114 332.919 267.769L330.92 267.846C330.935 268.228 330.961 268.615 331.003 269.004L332.991 268.787ZM332.919 267.775C332.896 267.067 332.898 266.4 332.98 265.746L330.995 265.498C330.894 266.307 330.896 267.095 330.92 267.84L332.919 267.775ZM332.029 266.621L332.237 266.612L332.155 264.614L331.947 264.623L332.029 266.621Z" fill="#FA2609" mask="url(#path-98-inside-16_1384_42832)"/>
<mask id="path-100-inside-17_1384_42832" fill="white">
<path d="M336.654 268.445C336.494 268.65 336.382 268.901 336.273 269.157C336.167 269.415 336.066 269.679 335.967 269.946C335.868 270.213 335.767 270.481 335.657 270.749C335.548 271.016 335.432 271.284 335.287 271.545L335.086 271.489C335.096 271.188 335.144 270.896 335.21 270.608C335.276 270.319 335.364 270.035 335.471 269.757C335.581 269.479 335.705 269.204 335.87 268.945C336.033 268.691 336.23 268.426 336.535 268.273L336.654 268.445Z"/>
</mask>
<path d="M336.654 268.445C336.494 268.65 336.382 268.901 336.273 269.157C336.167 269.415 336.066 269.679 335.967 269.946C335.868 270.213 335.767 270.481 335.657 270.749C335.548 271.016 335.432 271.284 335.287 271.545L335.086 271.489C335.096 271.188 335.144 270.896 335.21 270.608C335.276 270.319 335.364 270.035 335.471 269.757C335.581 269.479 335.705 269.204 335.87 268.945C336.033 268.691 336.23 268.426 336.535 268.273L336.654 268.445Z" fill="white"/>
<path d="M336.654 268.445L337.443 269.059L337.894 268.48L337.476 267.876L336.654 268.445ZM336.273 269.157L335.352 268.766L335.347 268.778L336.273 269.157ZM335.967 269.946L336.904 270.297L336.906 270.292L335.967 269.946ZM335.657 270.749L334.732 270.368L334.731 270.371L335.657 270.749ZM335.287 271.545L335.021 272.509L335.78 272.718L336.161 272.03L335.287 271.545ZM335.086 271.489L334.087 271.455L334.06 272.243L334.82 272.453L335.086 271.489ZM335.21 270.608L336.185 270.833L336.185 270.831L335.21 270.608ZM335.471 269.757L334.541 269.389L334.539 269.396L335.471 269.757ZM335.87 268.945L335.029 268.403L335.025 268.409L335.87 268.945ZM336.535 268.273L337.358 267.705L336.864 266.991L336.088 267.379L336.535 268.273ZM335.865 267.831C335.615 268.152 335.458 268.517 335.353 268.766L337.193 269.548C337.305 269.284 337.374 269.148 337.443 269.059L335.865 267.831ZM335.347 268.778C335.236 269.05 335.131 269.326 335.029 269.6L336.906 270.292C337.001 270.033 337.098 269.78 337.198 269.536L335.347 268.778ZM335.031 269.595C334.93 269.865 334.835 270.118 334.732 270.368L336.582 271.129C336.699 270.845 336.805 270.561 336.904 270.297L335.031 269.595ZM334.731 270.371C334.627 270.627 334.528 270.851 334.412 271.06L336.161 272.03C336.335 271.716 336.469 271.405 336.583 271.127L334.731 270.371ZM335.553 270.581L335.352 270.525L334.82 272.453L335.021 272.509L335.553 270.581ZM336.085 271.523C336.093 271.305 336.128 271.079 336.185 270.833L334.236 270.382C334.16 270.713 334.1 271.072 334.087 271.455L336.085 271.523ZM336.185 270.831C336.24 270.59 336.313 270.352 336.404 270.117L334.539 269.396C334.414 269.718 334.313 270.048 334.236 270.384L336.185 270.831ZM336.401 270.124C336.5 269.874 336.598 269.664 336.714 269.482L335.025 268.409C334.813 268.744 334.662 269.085 334.541 269.389L336.401 270.124ZM336.71 269.488C336.782 269.376 336.835 269.303 336.885 269.249C336.932 269.198 336.963 269.178 336.983 269.168L336.088 267.379C335.525 267.661 335.206 268.13 335.029 268.403L336.71 269.488ZM335.713 268.842L335.832 269.014L337.476 267.876L337.358 267.705L335.713 268.842Z" fill="#FA2609" mask="url(#path-100-inside-17_1384_42832)"/>
<path d="M458.318 177.645V202.591H417.84L425.576 197.094L425.787 196.945V177.645H458.318Z" fill="white" stroke="#FA2609"/>
<mask id="path-103-inside-18_1384_42832" fill="white">
<path d="M459.172 203.447H415.156L424.929 196.503V176.789H459.172V203.447ZM417.386 202.735H458.46V177.501H425.641V196.87L417.386 202.735Z"/>
</mask>
<path d="M459.172 203.447H415.156L424.929 196.503V176.789H459.172V203.447ZM417.386 202.735H458.46V177.501H425.641V196.87L417.386 202.735Z" fill="white"/>
<path d="M459.172 203.447V204.447H460.172V203.447H459.172ZM415.156 203.447L414.577 202.632L412.022 204.447H415.156V203.447ZM424.929 196.503L425.508 197.318L425.929 197.019V196.503H424.929ZM424.929 176.789V175.789H423.929V176.789H424.929ZM459.172 176.789H460.172V175.789H459.172V176.789ZM417.386 202.735L416.807 201.92L414.252 203.735H417.386V202.735ZM458.46 202.735V203.735H459.46V202.735H458.46ZM458.46 177.501H459.46V176.501H458.46V177.501ZM425.641 177.501V176.501H424.641V177.501H425.641ZM425.641 196.87L426.22 197.686L426.641 197.387V196.87H425.641ZM459.172 202.447H415.156V204.447H459.172V202.447ZM415.735 204.262L425.508 197.318L424.35 195.688L414.577 202.632L415.735 204.262ZM425.929 196.503V176.789H423.929V196.503H425.929ZM424.929 177.789H459.172V175.789H424.929V177.789ZM458.172 176.789V203.447H460.172V176.789H458.172ZM417.386 203.735H458.46V201.735H417.386V203.735ZM459.46 202.735V177.501H457.46V202.735H459.46ZM458.46 176.501H425.641V178.501H458.46V176.501ZM424.641 177.501V196.87H426.641V177.501H424.641ZM425.062 196.055L416.807 201.92L417.965 203.551L426.22 197.686L425.062 196.055Z" fill="#FA2609" mask="url(#path-103-inside-18_1384_42832)"/>
<path d="M448.832 182.698L441.467 196.201L436.823 191.73L437.117 191.426L440.889 195.058L441.361 195.513L441.675 194.937L448.46 182.495L448.832 182.698Z" fill="white" stroke="#FA2609"/>
<path d="M459.5 430.584V430.651H0.5V430.584H459.5Z" fill="white" stroke="#FA2609"/>
</svg>
