<svg width="460" height="460" viewBox="0 0 460 460" fill="none" xmlns="http://www.w3.org/2000/svg">
<rect width="460" height="460" fill="white"/>
<path d="M191.235 249.85C192.315 249.83 193.351 250.035 194.134 250.44L194.287 250.523C195.093 250.989 195.897 251.836 196.529 252.851C197.082 253.737 197.481 254.715 197.641 255.62L197.694 256.003L203.384 311.885C203.506 313.083 204.032 314.379 204.763 315.509C205.448 316.568 206.338 317.523 207.306 318.135L207.5 318.252L233.067 333.026C233.935 333.528 234.745 334.38 235.338 335.366C235.932 336.354 236.28 337.428 236.28 338.351C236.28 339.273 235.931 340.347 235.337 341.335C234.781 342.259 234.035 343.067 233.229 343.577L233.066 343.675L162.007 384.74C161.145 385.238 159.983 385.502 158.794 385.502C157.679 385.502 156.588 385.271 155.745 384.831L155.58 384.74L122.333 365.525C121.482 365.034 120.755 364.179 120.286 363.177C119.846 362.237 119.652 361.205 119.768 360.281L119.795 360.098L132.608 286.044H132.609C132.782 285.047 133.302 283.905 134.023 282.87C134.655 281.964 135.417 281.175 136.185 280.653L136.513 280.446L188.075 250.648C188.944 250.146 190.086 249.871 191.235 249.85Z" fill="white" stroke="#FA2609"/>
<path d="M235.159 335.097C235.858 336.153 236.286 337.341 236.286 338.353C236.286 339.274 235.937 340.348 235.343 341.336C234.787 342.26 234.04 343.068 233.233 343.578L233.071 343.677L162.013 384.741C161.271 385.17 160.308 385.423 159.297 385.486V372.442L223.922 335.097H235.159Z" fill="white" stroke="#FA2609"/>
<path d="M194.572 254.404C195.425 253.912 196.153 253.907 196.662 254.168C197.14 254.413 197.541 254.95 197.671 255.824L197.692 256.004L203.382 311.886C203.504 313.085 204.03 314.38 204.761 315.51C205.446 316.569 206.336 317.524 207.304 318.136L207.498 318.253L233.066 333.028C233.931 333.528 234.251 334.113 234.251 334.597C234.251 335.05 233.969 335.592 233.222 336.07L233.066 336.165L162.007 377.23C161.145 377.729 159.983 377.992 158.794 377.992C157.679 377.992 156.588 377.761 155.745 377.321L155.58 377.23L130.013 362.456C129.162 361.964 128.435 361.108 127.966 360.105C127.526 359.165 127.332 358.134 127.447 357.21L127.475 357.026L139.106 289.802C139.279 288.804 139.8 287.661 140.521 286.626C141.153 285.721 141.915 284.932 142.682 284.41L143.011 284.203L194.572 254.404Z" fill="white" stroke="#FA2609"/>
<path d="M205.062 315.943C205.698 316.826 206.472 317.609 207.306 318.136L207.497 318.252L233.064 333.025V333.026C233.93 333.527 234.249 334.113 234.249 334.596C234.249 335.048 233.968 335.591 233.22 336.069L233.063 336.164L162.005 377.229C161.143 377.727 159.981 377.99 158.792 377.99C157.677 377.99 156.586 377.759 155.743 377.319L155.578 377.229L130.01 362.454C129.247 362.013 128.589 361.277 128.123 360.406L205.062 315.943Z" fill="white" stroke="#FA2609"/>
<path d="M296.055 1.0293C297.641 1.03121 299.203 1.36172 300.418 1.99609L300.656 2.12695L303.175 3.58105C304.42 4.30089 305.576 5.5561 306.421 7.02148C307.266 8.48687 307.774 10.116 307.774 11.5557V233.2C307.774 234.64 307.266 236.269 306.421 237.734C305.628 239.109 304.562 240.298 303.406 241.034L303.175 241.175L33.4199 397.068C32.1749 397.788 30.5117 398.162 28.8213 398.162C27.2366 398.162 25.6753 397.833 24.46 397.199L24.2217 397.068L20.9209 395.16C19.6759 394.44 18.5201 393.185 17.6748 391.72C16.8296 390.254 16.3213 388.625 16.3213 387.186L16.3203 165.54L16.3262 165.268C16.3852 163.898 16.8823 162.382 17.6758 161.01C18.4692 159.638 19.535 158.451 20.6924 157.718L20.9258 157.577L291.45 2.11523C292.697 1.39844 294.363 1.02728 296.055 1.0293Z" fill="white" stroke="#FA2609"/>
<path d="M34.8174 171.491V396.261L33.4199 397.069C32.175 397.789 30.5118 398.163 28.8213 398.163C27.2363 398.163 25.6748 397.834 24.46 397.2L24.2217 397.069L20.9209 395.162C19.6758 394.442 18.5202 393.187 17.6748 391.722C16.8294 390.256 16.3213 388.626 16.3213 387.187L16.3203 165.541L16.3262 165.27C16.379 164.043 16.7837 162.7 17.4365 161.447L34.8174 171.491Z" fill="white" stroke="#FA2609"/>
<path d="M303.673 9.18652C304.921 8.46518 305.933 8.46046 306.602 8.84668C307.27 9.233 307.772 10.1137 307.772 11.5566V233.201C307.772 234.641 307.264 236.271 306.419 237.736C305.626 239.11 304.561 240.299 303.405 241.035L303.173 241.176L33.4199 397.068C32.1722 397.79 31.1595 397.794 30.4912 397.408C29.8228 397.022 29.3204 396.141 29.3203 394.698V173.054C29.3203 171.615 29.8285 169.985 30.6738 168.52C31.5191 167.054 32.6741 165.798 33.9189 165.078L33.9199 165.079L303.673 9.18652Z" fill="white" stroke="#FA2609"/>
<path d="M181.304 297.741C182.178 297.236 182.857 297.227 183.277 297.439C183.681 297.644 184.019 298.143 184.019 299.062C184.019 299.985 183.669 301.059 183.075 302.047C182.519 302.971 181.772 303.778 180.966 304.288L180.804 304.387L155.237 319.161C154.363 319.666 153.685 319.676 153.265 319.464C152.861 319.259 152.524 318.76 152.523 317.841C152.523 316.919 152.872 315.845 153.467 314.857C154.023 313.933 154.77 313.125 155.576 312.614L155.738 312.516L181.304 297.741Z" fill="white" stroke="#FA2609"/>
<path d="M295.55 24.626C296.224 24.2356 296.717 24.2626 297.008 24.4307C297.299 24.599 297.568 25.0122 297.568 25.791V218.967C297.568 219.743 297.293 220.637 296.823 221.45C296.413 222.162 295.874 222.776 295.296 223.179L295.047 223.338L40.998 370.152C40.3236 370.542 39.8302 370.516 39.5381 370.348C39.2459 370.179 38.9767 369.764 38.9766 368.984V176.232L38.9893 175.937C39.0488 175.234 39.3112 174.46 39.7217 173.747C40.1322 173.034 40.6703 172.419 41.248 172.016L41.498 171.856L295.55 24.626Z" fill="white" stroke="#FA2609"/>
<path d="M284.062 40.8721C286.085 39.7035 287.809 39.6586 288.995 40.3438C290.181 41.0292 291.006 42.5461 291.006 44.8838V212.61C291.006 213.637 290.638 214.816 290.022 215.883C289.445 216.883 288.674 217.744 287.849 218.271L287.683 218.371L49.0879 356.235C48.1985 356.749 47.5049 356.734 47.0654 356.48C46.6258 356.226 46.2656 355.633 46.2656 354.604V183.71C46.2656 182.245 46.7879 180.579 47.6533 179.079C48.4648 177.673 49.5532 176.454 50.7305 175.704L50.9668 175.561L284.062 40.8721Z" fill="white" stroke="#FA2609"/>
<path d="M274.252 97.1289L146.797 170.787V146.12L274.252 72.4639V97.1289Z" fill="white" stroke="#FA2609"/>
<path d="M274.252 172.04L146.797 245.695V182.167L274.252 108.509V172.04Z" fill="white" stroke="#FA2609"/>
<path d="M284.062 40.8721C286.084 39.7028 287.808 39.6584 288.994 40.3438C290.18 41.0294 291.004 42.547 291.004 44.8848V48.6123L46.2656 190.032V183.709L46.2715 183.433C46.3319 182.038 46.8412 180.486 47.6523 179.079C48.4636 177.673 49.5529 176.455 50.7295 175.705L50.9658 175.562L284.062 40.8721Z" fill="white" stroke="#FA2609"/>
<path d="M259.493 58.4912C260.134 58.121 260.596 58.1496 260.866 58.3057C261.136 58.4618 261.393 58.849 261.393 59.5898C261.393 60.3272 261.131 61.1788 260.684 61.9541C260.292 62.6324 259.78 63.2162 259.23 63.5986L258.993 63.75C258.353 64.1201 257.89 64.0924 257.62 63.9365C257.35 63.7804 257.094 63.393 257.094 62.6523C257.094 61.9149 257.356 61.0634 257.803 60.2881C258.194 59.6096 258.707 59.025 259.256 58.6426L259.493 58.4912Z" fill="white" stroke="#FA2609"/>
<path d="M270.009 52.416C270.649 52.0458 271.112 52.0744 271.382 52.2305C271.652 52.3866 271.908 52.7738 271.908 53.5146C271.908 54.2521 271.646 55.1036 271.199 55.8789C270.808 56.5572 270.295 57.141 269.746 57.5234L269.509 57.6748C268.868 58.0449 268.406 58.0172 268.136 57.8613C267.866 57.7052 267.609 57.3178 267.609 56.5771C267.609 55.8398 267.871 54.9882 268.318 54.2129C268.71 53.5344 269.222 52.9498 269.771 52.5674L270.009 52.416Z" fill="white" stroke="#FA2609"/>
<path d="M280.524 46.3408C281.164 45.9713 281.627 45.9992 281.897 46.1553C282.168 46.3114 282.424 46.6983 282.424 47.4385C282.424 48.1758 282.162 49.0274 281.715 49.8027C281.324 50.4812 280.811 51.0658 280.262 51.4482L280.024 51.5996C279.384 51.9697 278.921 51.9411 278.651 51.7852C278.381 51.629 278.125 51.2418 278.125 50.501C278.125 49.7636 278.387 48.912 278.834 48.1367C279.225 47.4584 279.738 46.8746 280.287 46.4922L280.524 46.3408Z" fill="white" stroke="#FA2609"/>
<path d="M128.986 154.688C129.225 154.551 129.511 154.534 129.76 154.636L129.864 154.687C130.134 154.842 130.302 155.133 130.302 155.445V239.431C130.302 239.705 130.174 239.96 129.962 240.124L129.866 240.188H129.865L57.3779 282.146C57.2388 282.226 57.0863 282.266 56.9375 282.266C56.7871 282.266 56.6359 282.227 56.499 282.148H56.5C56.2294 281.992 56.0626 281.702 56.0625 281.39V197.474C56.0626 197.161 56.229 196.873 56.499 196.716L128.986 154.688ZM127.799 157.4L58.0615 197.834L57.8125 197.979V279.87L58.5625 279.437L128.3 239.069L128.55 238.925V156.965L127.799 157.4Z" fill="white" stroke="#FA2609"/>
<path d="M92.7393 188.471C99.5999 184.492 106.023 183.839 110.958 186.421L111.431 186.681C116.435 189.569 119.268 195.602 119.269 203.825C119.269 211.991 116.399 221.09 111.74 229.183C107.227 237.023 101.063 243.875 94.2754 248.004L93.6162 248.395C89.482 250.788 85.4997 251.978 81.9131 251.978C79.5208 251.978 77.3002 251.449 75.3145 250.392L74.9209 250.173C69.9193 247.285 67.0859 241.255 67.0859 233.041C67.086 224.882 69.9561 215.788 74.6143 207.694C79.1269 199.854 85.292 192.998 92.0801 188.862L92.7393 188.471ZM104.443 186.637C101.327 186.637 97.8916 187.638 94.3311 189.586L93.6172 189.988C86.7601 193.964 80.5712 200.777 76.0977 208.55C71.6241 216.323 68.838 225.103 68.8379 233.041C68.8379 240.19 71.1027 245.677 75.377 248.399L75.7969 248.654C80.1917 251.193 86.0025 250.602 92.1455 247.215L92.7412 246.878C99.5987 242.909 105.788 236.098 110.262 228.325C114.735 220.552 117.521 211.769 117.521 203.825C117.52 196.668 115.255 191.176 110.979 188.454L110.56 188.199C108.742 187.152 106.675 186.637 104.443 186.637Z" fill="white" stroke="#FA2609"/>
<path d="M346.1 270.661C346.329 270.316 346.799 270.188 347.172 270.355L347.244 270.393H347.245L353.832 274.199C354.191 274.407 354.349 274.869 354.206 275.252L354.174 275.328L348.104 287.578C347.898 287.995 347.834 288.491 347.866 288.951C347.894 289.355 347.998 289.77 348.181 290.123L348.264 290.271C348.959 291.406 349.556 292.675 350.042 294.072L350.243 294.68C350.54 295.62 351.509 296.109 352.442 295.688V295.688L361.547 291.579L361.548 291.58C361.746 291.491 361.849 291.525 361.887 291.547L362.389 291.832L366.661 294.298L366.482 298.147L362.124 303.379L362.008 303.518V303.698C362.008 303.95 361.922 304.273 361.759 304.587C361.616 304.862 361.435 305.093 361.254 305.244L361.176 305.304L351.83 311.89C351.454 312.154 351.154 312.557 350.952 312.975C350.775 313.341 350.655 313.756 350.637 314.156L350.635 314.326C350.709 316.852 350.547 320.313 349.858 323.081L349.714 323.625C349.59 324.063 349.603 324.552 349.721 324.994C349.823 325.381 350.014 325.765 350.302 326.063L350.431 326.186L353.895 329.173V329.174C354.225 329.459 354.336 330.009 354.156 330.409L354.117 330.487H354.116L346.595 343.527L346.594 343.528C346.377 343.905 345.86 344.116 345.436 344.014L345.352 343.988L341.319 342.568C340.87 342.41 340.374 342.426 339.933 342.547C339.546 342.653 339.17 342.849 338.872 343.122L338.749 343.243V343.244C336.854 345.294 334.189 347.245 331.512 348.468L330.976 348.702C330.557 348.878 330.179 349.195 329.898 349.56C329.653 349.878 329.459 350.262 329.386 350.667L329.361 350.842V350.843L328.337 362.238C328.315 362.489 328.199 362.802 328.009 363.101C327.819 363.399 327.583 363.635 327.365 363.762L327.266 363.819L327.202 363.913L321.421 372.412L317.356 370.066L317.365 370.059L316.79 369.736C316.764 369.721 316.71 369.678 316.676 369.564L316.649 369.425L315.651 359.476C315.556 358.521 314.754 357.937 313.859 358.044L313.68 358.074C312.002 358.445 310.396 358.603 308.875 358.563C308.426 358.551 307.949 358.675 307.533 358.878C307.17 359.055 306.82 359.309 306.566 359.629L306.464 359.77V359.771L298.899 371.156C298.67 371.501 298.2 371.63 297.827 371.463L297.755 371.426L297.754 371.425L291.167 367.619C290.808 367.411 290.65 366.948 290.793 366.565L290.825 366.49H290.826L296.896 354.239L296.895 354.238C297.101 353.822 297.165 353.327 297.133 352.867C297.105 352.463 297.001 352.049 296.818 351.695L296.735 351.548C296.411 351.018 296.112 350.449 295.828 349.853L295.614 349.402L295.163 349.615L287.914 353.049L283.405 350.446L283.109 350.271C283.077 350.252 282.992 350.178 282.992 349.942V338.118C282.992 337.866 283.079 337.544 283.242 337.229C283.385 336.955 283.566 336.724 283.747 336.573L283.824 336.514L293.171 329.928L293.17 329.927C293.525 329.677 293.854 329.3 294.112 328.907C294.371 328.514 294.585 328.063 294.679 327.644C295.192 325.351 295.864 323.044 296.673 320.751L297.027 319.77L297.028 319.769C297.192 319.327 297.192 318.83 297.08 318.385C296.982 317.995 296.79 317.609 296.503 317.311L296.374 317.188V317.188L291.104 312.643V312.642L291.04 312.582C290.759 312.286 290.674 311.782 290.841 311.409L290.881 311.331L298.403 298.29C298.636 297.887 299.21 297.674 299.648 297.826V297.827L306.215 300.123C306.664 300.28 307.162 300.265 307.604 300.139C307.99 300.028 308.367 299.824 308.657 299.531L308.775 299.4C310.331 297.52 311.97 295.75 313.678 294.118L314.413 293.428C314.729 293.137 315.012 292.726 315.224 292.305C315.408 291.937 315.555 291.528 315.615 291.142L315.636 290.978V290.977L316.66 279.581H316.661C316.683 279.33 316.798 279.017 316.988 278.719C317.155 278.458 317.356 278.244 317.55 278.11L317.633 278.058L327.864 272.144C328.065 272.027 328.174 272.061 328.207 272.079L328.231 272.092L332.994 274.841V283.438L333.551 283.376C334.434 283.277 335.294 283.233 336.124 283.255V283.254C336.573 283.266 337.05 283.143 337.466 282.94C337.829 282.763 338.179 282.509 338.433 282.189L338.535 282.048L346.1 270.661ZM335.968 299.528C333.179 297.739 329.283 298.14 324.654 300.703L324.204 300.958C319.337 303.77 314.922 308.601 311.725 314.104C308.527 319.606 306.52 325.829 306.52 331.456C306.52 337.026 308.013 340.994 310.915 342.803C313.739 344.563 317.667 344.14 322.299 341.575L322.749 341.32C327.616 338.508 331.993 333.701 335.153 328.223C338.313 322.744 340.282 316.546 340.282 310.921C340.282 305.355 338.828 301.363 335.968 299.528Z" fill="white" stroke="#FA2609"/>
<path opacity="0.1" d="M346.1 270.661C346.329 270.316 346.799 270.188 347.172 270.355L347.244 270.393H347.245L353.832 274.199C354.191 274.407 354.349 274.869 354.206 275.252L354.174 275.328L348.104 287.578C347.898 287.995 347.834 288.491 347.866 288.951C347.894 289.355 347.998 289.77 348.181 290.123L348.264 290.271C348.959 291.406 349.556 292.675 350.042 294.072L350.243 294.68C350.54 295.62 351.509 296.109 352.442 295.688V295.688L361.547 291.579L361.548 291.58C361.746 291.491 361.849 291.525 361.887 291.547L362.389 291.832L366.661 294.298L366.482 298.147L362.124 303.379L362.008 303.518V303.698C362.008 303.95 361.922 304.273 361.759 304.587C361.616 304.862 361.435 305.093 361.254 305.244L361.176 305.304L351.83 311.89C351.454 312.154 351.154 312.557 350.952 312.975C350.775 313.341 350.655 313.756 350.637 314.156L350.635 314.326C350.709 316.852 350.547 320.313 349.858 323.081L349.714 323.625C349.59 324.063 349.603 324.552 349.721 324.994C349.823 325.381 350.014 325.765 350.302 326.063L350.431 326.186L353.895 329.173V329.174C354.225 329.459 354.336 330.009 354.156 330.409L354.117 330.487H354.116L346.595 343.527L346.594 343.528C346.377 343.905 345.86 344.116 345.436 344.014L345.352 343.988L341.319 342.568C340.87 342.41 340.374 342.426 339.933 342.547C339.546 342.653 339.17 342.849 338.872 343.122L338.749 343.243V343.244C336.854 345.294 334.189 347.245 331.512 348.468L330.976 348.702C330.557 348.878 330.179 349.195 329.898 349.56C329.653 349.878 329.459 350.262 329.386 350.667L329.361 350.842V350.843L328.337 362.238C328.315 362.489 328.199 362.802 328.009 363.101C327.819 363.399 327.583 363.635 327.365 363.762L327.266 363.819L327.202 363.913L321.421 372.412L317.356 370.066L317.365 370.059L316.79 369.736C316.764 369.721 316.71 369.678 316.676 369.564L316.649 369.425L315.651 359.476C315.556 358.521 314.754 357.937 313.859 358.044L313.68 358.074C312.002 358.445 310.396 358.603 308.875 358.563C308.426 358.551 307.949 358.675 307.533 358.878C307.17 359.055 306.82 359.309 306.566 359.629L306.464 359.77V359.771L298.899 371.156C298.67 371.501 298.2 371.63 297.827 371.463L297.755 371.426L297.754 371.425L291.167 367.619C290.808 367.411 290.65 366.948 290.793 366.565L290.825 366.49H290.826L296.896 354.239L296.895 354.238C297.101 353.822 297.165 353.327 297.133 352.867C297.105 352.463 297.001 352.049 296.818 351.695L296.735 351.548C296.411 351.018 296.112 350.449 295.828 349.853L295.614 349.402L295.163 349.615L287.914 353.049L283.405 350.446L283.109 350.271C283.077 350.252 282.992 350.178 282.992 349.942V338.118C282.992 337.866 283.079 337.544 283.242 337.229C283.385 336.955 283.566 336.724 283.747 336.573L283.824 336.514L293.171 329.928L293.17 329.927C293.525 329.677 293.854 329.3 294.112 328.907C294.371 328.514 294.585 328.063 294.679 327.644C295.192 325.351 295.864 323.044 296.673 320.751L297.027 319.77L297.028 319.769C297.192 319.327 297.192 318.83 297.08 318.385C296.982 317.995 296.79 317.609 296.503 317.311L296.374 317.188V317.188L291.104 312.643V312.642L291.04 312.582C290.759 312.286 290.674 311.782 290.841 311.409L290.881 311.331L298.403 298.29C298.636 297.887 299.21 297.674 299.648 297.826V297.827L306.215 300.123C306.664 300.28 307.162 300.265 307.604 300.139C307.99 300.028 308.367 299.824 308.657 299.531L308.775 299.4C310.331 297.52 311.97 295.75 313.678 294.118L314.413 293.428C314.729 293.137 315.012 292.726 315.224 292.305C315.408 291.937 315.555 291.528 315.615 291.142L315.636 290.978V290.977L316.66 279.581H316.661C316.683 279.33 316.798 279.017 316.988 278.719C317.155 278.458 317.356 278.244 317.55 278.11L317.633 278.058L327.864 272.144C328.065 272.027 328.174 272.061 328.207 272.079L328.231 272.092L332.994 274.841V283.438L333.551 283.376C334.434 283.277 335.294 283.233 336.124 283.255V283.254C336.573 283.266 337.05 283.143 337.466 282.94C337.829 282.763 338.179 282.509 338.433 282.189L338.535 282.048L346.1 270.661ZM335.968 299.528C333.179 297.739 329.283 298.14 324.654 300.703L324.204 300.958C319.337 303.77 314.922 308.601 311.725 314.104C308.527 319.606 306.52 325.829 306.52 331.456C306.52 337.026 308.013 340.994 310.915 342.803C313.739 344.563 317.667 344.14 322.299 341.575L322.749 341.32C327.616 338.508 331.993 333.701 335.153 328.223C338.313 322.744 340.282 316.546 340.282 310.921C340.282 305.355 338.828 301.363 335.968 299.528Z" fill="white" stroke="#FA2609"/>
<path d="M346.1 270.662C346.329 270.317 346.8 270.189 347.173 270.356L347.245 270.394H347.246L353.833 274.2C354.192 274.408 354.35 274.87 354.207 275.253L354.175 275.329H354.174L352.196 279.321L345.976 286.511L338.449 282.161C338.479 282.124 338.511 282.088 338.537 282.048L338.536 282.047L346.1 270.662Z" fill="white" stroke="#FA2609"/>
<path d="M300.028 333.038L288.627 339.53L283.659 336.66C283.676 336.643 283.691 336.626 283.707 336.61L283.825 336.513L293.172 329.927C293.374 329.784 293.56 329.597 293.73 329.397L300.028 333.038Z" fill="white" stroke="#FA2609"/>
<path d="M306.326 301.987L296.625 315.123L290.77 311.739C290.775 311.642 290.791 311.551 290.819 311.468L290.882 311.331V311.33L298.404 298.29C298.552 298.035 298.848 297.843 299.173 297.792L306.326 301.987Z" fill="white" stroke="#FA2609"/>
<path d="M327.871 272.146C328.071 272.031 328.179 272.063 328.213 272.081L328.221 272.085L333.001 274.843V277.939L324.389 282.918L317.039 278.669C317.184 278.449 317.354 278.261 317.524 278.135L317.638 278.061L317.64 278.06L327.871 272.146Z" fill="white" stroke="#FA2609"/>
<path d="M361.552 291.58C361.749 291.492 361.856 291.528 361.889 291.547L362.64 291.982V291.973L365.744 293.765L357.064 297.679H357.063C356.757 297.817 356.448 297.72 356.29 297.424L356.231 297.285C355.921 296.289 355.554 295.354 355.131 294.475L361.552 291.58Z" fill="white" stroke="#FA2609"/>
<g opacity="0.4">
<path d="M346.1 270.662C346.329 270.317 346.8 270.189 347.173 270.356L347.245 270.394H347.246L353.833 274.2C354.192 274.408 354.35 274.87 354.207 275.253L354.175 275.329H354.174L352.196 279.321L345.976 286.511L338.449 282.161C338.479 282.124 338.511 282.088 338.537 282.048L338.536 282.047L346.1 270.662Z" fill="white" stroke="#FA2609"/>
<path d="M300.028 333.038L288.627 339.53L283.659 336.66C283.676 336.643 283.691 336.626 283.707 336.61L283.825 336.513L293.172 329.927C293.374 329.784 293.56 329.597 293.73 329.397L300.028 333.038Z" fill="white" stroke="#FA2609"/>
<path d="M306.326 301.987L296.625 315.123L290.77 311.739C290.775 311.642 290.791 311.551 290.819 311.468L290.882 311.331V311.33L298.404 298.29C298.552 298.035 298.848 297.843 299.173 297.792L306.326 301.987Z" fill="white" stroke="#FA2609"/>
<path d="M327.871 272.146C328.071 272.031 328.179 272.063 328.213 272.081L328.221 272.085L333.001 274.843V277.939L324.389 282.918L317.039 278.669C317.184 278.449 317.354 278.261 317.524 278.135L317.638 278.061L317.64 278.06L327.871 272.146Z" fill="white" stroke="#FA2609"/>
<path d="M361.552 291.58C361.749 291.492 361.856 291.528 361.889 291.547L362.64 291.982V291.973L365.744 293.765L357.064 297.679H357.063C356.757 297.817 356.448 297.72 356.29 297.424L356.231 297.285C355.921 296.289 355.554 295.354 355.131 294.475L361.552 291.58Z" fill="white" stroke="#FA2609"/>
</g>
<path d="M351.129 273.564C351.358 273.219 351.829 273.092 352.201 273.259L352.274 273.296L358.862 277.103C359.22 277.31 359.379 277.772 359.235 278.155L359.202 278.231L353.133 290.481C352.926 290.898 352.864 291.394 352.896 291.854C352.924 292.258 353.027 292.673 353.209 293.026L353.292 293.174C353.988 294.31 354.585 295.578 355.071 296.976L355.272 297.583C355.569 298.524 356.538 299.012 357.471 298.591L357.472 298.592L366.578 294.482V294.483C366.79 294.388 366.894 294.43 366.925 294.45C366.956 294.47 367.037 294.547 367.037 294.78V306.605C367.037 306.858 366.95 307.182 366.787 307.495C366.645 307.769 366.465 307.998 366.285 308.146L366.208 308.205L366.206 308.207L356.859 314.793C356.505 315.043 356.176 315.42 355.918 315.812C355.692 316.157 355.5 316.545 355.393 316.918L355.352 317.076C354.838 319.368 354.168 321.675 353.358 323.968L353.003 324.949L353.002 324.95C352.839 325.392 352.839 325.888 352.95 326.334C353.048 326.724 353.24 327.11 353.527 327.408L353.656 327.53V327.531L358.927 332.076C359.257 332.36 359.368 332.91 359.189 333.31L359.149 333.388L351.627 346.428C351.394 346.831 350.819 347.045 350.381 346.892H350.382L343.813 344.597H343.814C343.365 344.439 342.867 344.456 342.426 344.582C342.039 344.693 341.662 344.897 341.372 345.189L341.254 345.32H341.253C339.698 347.199 338.06 348.97 336.353 350.602L335.617 351.292C335.302 351.583 335.018 351.994 334.807 352.415C334.622 352.783 334.474 353.192 334.414 353.579L334.395 353.743L333.37 365.139L333.369 365.14C333.347 365.39 333.232 365.703 333.042 366.001C332.876 366.262 332.674 366.476 332.48 366.61L332.397 366.662L322.166 372.576C321.965 372.693 321.858 372.66 321.825 372.644C321.801 372.631 321.745 372.589 321.709 372.472L321.681 372.327L320.683 362.378C320.587 361.424 319.785 360.839 318.891 360.945L318.711 360.977C317.244 361.3 315.831 361.462 314.481 361.471L313.907 361.465C313.459 361.453 312.981 361.578 312.565 361.781C312.203 361.958 311.854 362.212 311.6 362.532L311.496 362.673V362.674L303.931 374.06C303.701 374.405 303.231 374.534 302.858 374.366L302.786 374.329L302.785 374.328L296.198 370.522C295.839 370.315 295.681 369.851 295.824 369.469L295.856 369.394H295.857L301.927 357.143L301.926 357.142C302.132 356.725 302.196 356.23 302.164 355.771C302.136 355.367 302.032 354.952 301.85 354.599L301.767 354.451C301.071 353.315 300.474 352.046 299.988 350.648L299.787 350.042C299.509 349.16 298.64 348.675 297.764 348.965L297.588 349.033L288.481 353.142C288.27 353.237 288.167 353.195 288.136 353.175C288.105 353.155 288.024 353.078 288.023 352.845V341.019C288.023 340.767 288.111 340.444 288.273 340.13C288.416 339.855 288.597 339.624 288.778 339.474L288.855 339.414L298.202 332.828L298.201 332.827C298.557 332.577 298.887 332.201 299.145 331.808C299.371 331.463 299.563 331.075 299.67 330.702L299.71 330.544C300.297 327.925 301.089 325.287 302.059 322.672C302.223 322.23 302.223 321.733 302.111 321.287C302.014 320.897 301.822 320.512 301.534 320.214L301.405 320.092V320.091L296.135 315.546V315.545L296.071 315.485C295.791 315.189 295.705 314.686 295.872 314.312L295.912 314.234L303.435 301.193C303.653 300.815 304.172 300.605 304.596 300.706L304.68 300.73L311.248 303.026C311.697 303.183 312.195 303.167 312.637 303.041C313.023 302.931 313.4 302.726 313.689 302.434L313.809 302.303C315.364 300.423 317.003 298.653 318.71 297.021L319.446 296.329C319.762 296.038 320.044 295.628 320.256 295.207C320.441 294.839 320.588 294.429 320.648 294.043L320.669 293.879L321.693 282.484C321.716 282.234 321.831 281.92 322.021 281.622C322.188 281.361 322.389 281.148 322.583 281.014L322.665 280.961L332.896 275.049C333.097 274.933 333.205 274.964 333.237 274.98C333.262 274.993 333.318 275.035 333.354 275.152L333.382 275.298L334.381 285.246C334.477 286.2 335.278 286.784 336.172 286.678L336.352 286.646C338.029 286.275 339.634 286.119 341.155 286.158V286.157C341.603 286.17 342.081 286.047 342.496 285.844C342.858 285.667 343.208 285.413 343.462 285.093L343.565 284.951L351.129 273.564ZM340 302.192C336.767 300.324 332.424 300.575 327.733 303.147L327.278 303.404C322.412 306.217 318.034 311.024 314.874 316.502C311.714 321.981 309.744 328.179 309.744 333.804C309.744 339.425 311.719 343.508 315.057 345.437C318.394 347.365 322.915 347.036 327.779 344.225C332.646 341.412 337.024 336.605 340.184 331.127C343.344 325.648 345.312 319.45 345.312 313.825C345.312 308.203 343.337 304.121 340 302.192Z" fill="white" stroke="#FA2609"/>
<path d="M306.478 378.486L306.566 378.501V378.502L309.812 379.228C309.876 379.242 309.939 379.269 310.009 379.31L310.392 379.53L310.396 379.524L314.405 381.841L308.261 385.739L308.118 385.83L308.06 385.988C307.893 386.438 307.908 386.932 308.023 387.371C308.124 387.756 308.31 388.13 308.561 388.434L308.672 388.56C308.883 388.781 309.084 389.018 309.275 389.271L309.464 389.529C309.998 390.291 311.028 390.611 311.878 390.05L311.877 390.049L316.183 387.214C316.288 387.144 316.37 387.122 316.424 387.118C316.475 387.114 316.512 387.125 316.542 387.144L317.443 387.684L317.438 387.653L321.009 389.718L317.681 392.316L317.522 392.439L317.493 392.637C317.432 393.052 317.254 393.457 317.034 393.714L316.938 393.814L312.628 397.78C312.308 398.075 312.031 398.493 311.826 398.914C311.646 399.284 311.504 399.691 311.439 400.068L311.417 400.228V400.229C311.33 400.989 311.207 401.76 311.051 402.539L310.884 403.32C310.677 404.231 311.161 405.256 312.042 405.632V405.633L314.568 406.712C314.936 406.868 315.114 407.271 314.991 407.643L314.963 407.717L312.023 414.312C311.929 414.524 311.734 414.737 311.477 414.896C311.251 415.034 311.01 415.111 310.798 415.12L310.709 415.119L307.583 414.966C306.978 414.937 306.555 415.336 306.288 415.669C306.147 415.845 306.022 416.038 305.913 416.211L305.615 416.68C305.312 417.125 304.893 417.47 304.403 417.847C303.991 418.164 303.516 418.512 303.107 418.948L302.938 419.142H302.937C302.661 419.472 302.435 419.914 302.283 420.359C302.151 420.748 302.062 421.174 302.061 421.567L302.065 421.734L302.355 426.365C302.371 426.617 302.304 426.943 302.16 427.264C302.035 427.545 301.867 427.784 301.695 427.943L301.621 428.007L300.046 429.246L299.815 429.428L299.861 429.717L300.597 434.378L296.919 432.256L296.926 432.25L296.36 431.927C296.318 431.903 296.262 431.854 296.216 431.76L296.173 431.649L295.076 428.004C294.8 427.084 293.901 426.67 293.046 426.923L292.876 426.982C292.382 427.183 291.896 427.352 291.417 427.492L290.941 427.622C290.525 427.728 290.088 427.953 289.713 428.229C289.34 428.505 288.989 428.862 288.779 429.262L288.768 429.284L288.758 429.308L286.775 434.239L286.772 434.246L286.77 434.254L285.575 437.521L281.124 434.948L280.978 434.857C280.777 434.733 280.668 434.509 280.72 434.249L280.752 434.135L282.947 428.191C283.114 427.741 283.098 427.247 282.983 426.809C282.883 426.423 282.697 426.05 282.447 425.747L282.337 425.621C282.125 425.398 281.924 425.161 281.732 424.907L281.544 424.649C281.011 423.887 279.981 423.569 279.132 424.129L278.91 424.275L278.907 424.541L278.849 429.574L274.715 427.187L274.469 427.036C274.433 427.015 274.381 426.967 274.344 426.864L274.312 426.742L274.312 426.741L273.502 422.036C273.46 421.791 273.493 421.466 273.604 421.139C273.702 420.852 273.846 420.604 274.003 420.434L274.07 420.365L278.38 416.399C278.7 416.105 278.976 415.688 279.182 415.267C279.362 414.896 279.503 414.49 279.568 414.112L279.591 413.952C279.678 413.191 279.801 412.419 279.957 411.64L280.123 410.858H280.124C280.217 410.448 280.164 410.031 280.021 409.667L279.956 409.504L279.806 409.417L276.638 407.587L276.349 407.413C276.022 407.217 275.889 406.815 276.047 406.461L276.046 406.46L278.986 399.866L278.985 399.865C279.08 399.653 279.276 399.439 279.533 399.281C279.758 399.143 279.999 399.067 280.211 399.058H280.3L283.426 399.213H283.427C283.888 399.235 284.37 399.099 284.782 398.888C285.144 398.703 285.488 398.442 285.74 398.128L285.843 397.99C286.366 397.222 286.916 396.475 287.489 395.752L288.07 395.037H288.071C288.346 394.707 288.572 394.263 288.724 393.818C288.856 393.43 288.946 393.004 288.947 392.61L288.942 392.444L288.651 387.813H288.652C288.637 387.562 288.704 387.236 288.848 386.915C288.973 386.634 289.14 386.395 289.312 386.235L289.387 386.172L294.249 382.345V382.344C294.454 382.182 294.585 382.216 294.647 382.252L295.675 382.852L295.671 382.839L299.481 385.04C299.476 385.079 299.471 385.121 299.464 385.165C299.422 385.426 299.36 385.732 299.28 385.967L298.978 386.856L299.885 386.61C299.926 386.599 299.967 386.587 299.994 386.578L300.062 386.559L300.065 386.558C300.482 386.451 300.918 386.228 301.293 385.951C301.619 385.71 301.93 385.406 302.143 385.065L302.228 384.918L305.278 379.098L305.279 379.099C305.488 378.701 306.027 378.432 306.478 378.486ZM301.508 394.594C299.591 394.33 297.26 395.25 294.781 397.094L294.284 397.475C291.598 399.589 289.156 402.438 287.505 405.471C285.909 408.401 285.023 411.556 285.427 414.407L285.471 414.682C285.973 417.601 287.586 419.468 289.869 419.979C291.971 420.45 294.502 419.738 297.035 417.896L297.541 417.513C300.249 415.381 302.488 412.311 303.931 409.074C305.281 406.044 305.954 402.821 305.622 400.041L305.543 399.491C305.295 398.051 304.826 396.902 304.141 396.07C303.447 395.229 302.55 394.737 301.508 394.594Z" fill="white" stroke="#FA2609"/>
<path opacity="0.1" d="M306.478 378.486L306.566 378.501V378.502L309.812 379.228C309.876 379.242 309.939 379.269 310.009 379.31L310.392 379.53L310.396 379.524L314.405 381.841L308.261 385.739L308.118 385.83L308.06 385.988C307.893 386.438 307.908 386.932 308.023 387.371C308.124 387.756 308.31 388.13 308.561 388.434L308.672 388.56C308.883 388.781 309.084 389.018 309.275 389.271L309.464 389.529C309.998 390.291 311.028 390.611 311.878 390.05L311.877 390.049L316.183 387.214C316.288 387.144 316.37 387.122 316.424 387.118C316.475 387.114 316.512 387.125 316.542 387.144L317.443 387.684L317.438 387.653L321.009 389.718L317.681 392.316L317.522 392.439L317.493 392.637C317.432 393.052 317.254 393.457 317.034 393.714L316.938 393.814L312.628 397.78C312.308 398.075 312.031 398.493 311.826 398.914C311.646 399.284 311.504 399.691 311.439 400.068L311.417 400.228V400.229C311.33 400.989 311.207 401.76 311.051 402.539L310.884 403.32C310.677 404.231 311.161 405.256 312.042 405.632V405.633L314.568 406.712C314.936 406.868 315.114 407.271 314.991 407.643L314.963 407.717L312.023 414.312C311.929 414.524 311.734 414.737 311.477 414.896C311.251 415.034 311.01 415.111 310.798 415.12L310.709 415.119L307.583 414.966C306.978 414.937 306.555 415.336 306.288 415.669C306.147 415.845 306.022 416.038 305.913 416.211L305.615 416.68C305.312 417.125 304.893 417.47 304.403 417.847C303.991 418.164 303.516 418.512 303.107 418.948L302.938 419.142H302.937C302.661 419.472 302.435 419.914 302.283 420.359C302.151 420.748 302.062 421.174 302.061 421.567L302.065 421.734L302.355 426.365C302.371 426.617 302.304 426.943 302.16 427.264C302.035 427.545 301.867 427.784 301.695 427.943L301.621 428.007L300.046 429.246L299.815 429.428L299.861 429.717L300.597 434.378L296.919 432.256L296.926 432.25L296.36 431.927C296.318 431.903 296.262 431.854 296.216 431.76L296.173 431.649L295.076 428.004C294.8 427.084 293.901 426.67 293.046 426.923L292.876 426.982C292.382 427.183 291.896 427.352 291.417 427.492L290.941 427.622C290.525 427.728 290.088 427.953 289.713 428.229C289.34 428.505 288.989 428.862 288.779 429.262L288.768 429.284L288.758 429.308L286.775 434.239L286.772 434.246L286.77 434.254L285.575 437.521L281.124 434.948L280.978 434.857C280.777 434.733 280.668 434.509 280.72 434.249L280.752 434.135L282.947 428.191C283.114 427.741 283.098 427.247 282.983 426.809C282.883 426.423 282.697 426.05 282.447 425.747L282.337 425.621C282.125 425.398 281.924 425.161 281.732 424.907L281.544 424.649C281.011 423.887 279.981 423.569 279.132 424.129L278.91 424.275L278.907 424.541L278.849 429.574L274.715 427.187L274.469 427.036C274.433 427.015 274.381 426.967 274.344 426.864L274.312 426.742L274.312 426.741L273.502 422.036C273.46 421.791 273.493 421.466 273.604 421.139C273.702 420.852 273.846 420.604 274.003 420.434L274.07 420.365L278.38 416.399C278.7 416.105 278.976 415.688 279.182 415.267C279.362 414.896 279.503 414.49 279.568 414.112L279.591 413.952C279.678 413.191 279.801 412.419 279.957 411.64L280.123 410.858H280.124C280.217 410.448 280.164 410.031 280.021 409.667L279.956 409.504L279.806 409.417L276.638 407.587L276.349 407.413C276.022 407.217 275.889 406.815 276.047 406.461L276.046 406.46L278.986 399.866L278.985 399.865C279.08 399.653 279.276 399.439 279.533 399.281C279.758 399.143 279.999 399.067 280.211 399.058H280.3L283.426 399.213H283.427C283.888 399.235 284.37 399.099 284.782 398.888C285.144 398.703 285.488 398.442 285.74 398.128L285.843 397.99C286.366 397.222 286.916 396.475 287.489 395.752L288.07 395.037H288.071C288.346 394.707 288.572 394.263 288.724 393.818C288.856 393.43 288.946 393.004 288.947 392.61L288.942 392.444L288.651 387.813H288.652C288.637 387.562 288.704 387.236 288.848 386.915C288.973 386.634 289.14 386.395 289.312 386.235L289.387 386.172L294.249 382.345V382.344C294.454 382.182 294.585 382.216 294.647 382.252L295.675 382.852L295.671 382.839L299.481 385.04C299.476 385.079 299.471 385.121 299.464 385.165C299.422 385.426 299.36 385.732 299.28 385.967L298.978 386.856L299.885 386.61C299.926 386.599 299.967 386.587 299.994 386.578L300.062 386.559L300.065 386.558C300.482 386.451 300.918 386.228 301.293 385.951C301.619 385.71 301.93 385.406 302.143 385.065L302.228 384.918L305.278 379.098L305.279 379.099C305.488 378.701 306.027 378.432 306.478 378.486ZM301.508 394.594C299.591 394.33 297.26 395.25 294.781 397.094L294.284 397.475C291.598 399.589 289.156 402.438 287.505 405.471C285.909 408.401 285.023 411.556 285.427 414.407L285.471 414.682C285.973 417.601 287.586 419.468 289.869 419.979C291.971 420.45 294.502 419.738 297.035 417.896L297.541 417.513C300.249 415.381 302.488 412.311 303.931 409.074C305.281 406.044 305.954 402.821 305.622 400.041L305.543 399.491C305.295 398.051 304.826 396.902 304.141 396.07C303.447 395.229 302.55 394.737 301.508 394.594Z" fill="white" stroke="#FA2609"/>
<path d="M286.242 421.416L281.241 424.306C280.675 423.804 279.843 423.66 279.135 424.127L279.118 424.138L273.676 420.992C273.762 420.774 273.871 420.585 273.993 420.446L274.073 420.363H274.074L278.064 416.69L286.242 421.416Z" fill="white" stroke="#FA2609"/>
<path d="M280.302 399.055L283.428 399.21C283.728 399.225 284.026 399.161 284.298 399.07L289.669 402.177C289.26 402.709 288.872 403.255 288.509 403.812L288.399 403.863L280.101 399.066C280.13 399.062 280.16 399.059 280.188 399.057L280.302 399.055Z" fill="white" stroke="#FA2609"/>
<path d="M316.174 387.218C316.397 387.075 316.508 387.122 316.536 387.139L317.298 387.604V387.568L320.567 389.457L316.447 392.172C316.161 392.359 315.789 392.32 315.514 392.043L315.402 391.91C315.128 391.52 314.84 391.16 314.514 390.823C314.335 390.635 314.186 390.365 314.109 390.072C314.033 389.779 314.038 389.502 314.117 389.288L314.468 388.342L316.174 387.218Z" fill="white" stroke="#FA2609"/>
<path d="M306.483 378.485L306.572 378.501L309.818 379.227C309.882 379.241 309.944 379.268 310.014 379.309L310.398 379.53L310.402 379.524L314.41 381.84L308.266 385.738L308.124 385.829L308.065 385.987C307.899 386.437 307.913 386.931 308.028 387.37C308.119 387.715 308.277 388.05 308.489 388.334L307.925 388.835L301.921 385.366C302.041 385.226 302.149 385.076 302.232 384.916L302.233 384.917L305.285 379.097L305.284 379.096C305.494 378.698 306.033 378.431 306.483 378.485Z" fill="white" stroke="#FA2609"/>
<path d="M294.256 382.343C294.461 382.181 294.591 382.215 294.653 382.251L295.681 382.851L295.677 382.838L299.488 385.039C299.486 385.053 299.485 385.068 299.482 385.083C299.455 385.261 299.413 385.472 299.364 385.674L294.544 390.097L288.901 386.836C289.012 386.603 289.149 386.4 289.297 386.255L289.393 386.171L294.255 382.344L294.256 382.343Z" fill="white" stroke="#FA2609"/>
<g opacity="0.4">
<path d="M286.242 421.416L281.241 424.306C280.675 423.804 279.843 423.66 279.135 424.127L279.118 424.138L273.676 420.992C273.762 420.774 273.871 420.585 273.993 420.446L274.073 420.363H274.074L278.064 416.69L286.242 421.416Z" fill="white" stroke="#FA2609"/>
<path d="M280.302 399.055L283.428 399.21C283.728 399.225 284.026 399.161 284.298 399.07L289.669 402.177C289.26 402.709 288.872 403.255 288.509 403.812L288.399 403.863L280.101 399.066C280.13 399.062 280.16 399.059 280.188 399.057L280.302 399.055Z" fill="white" stroke="#FA2609"/>
<path d="M316.174 387.218C316.397 387.075 316.508 387.122 316.536 387.139L317.298 387.604V387.568L320.567 389.457L316.447 392.172C316.161 392.359 315.789 392.32 315.514 392.043L315.402 391.91C315.128 391.52 314.84 391.16 314.514 390.823C314.335 390.635 314.186 390.365 314.109 390.072C314.033 389.779 314.038 389.502 314.117 389.288L314.468 388.342L316.174 387.218Z" fill="white" stroke="#FA2609"/>
<path d="M306.483 378.485L306.572 378.501L309.818 379.227C309.882 379.241 309.944 379.268 310.014 379.309L310.398 379.53L310.402 379.524L314.41 381.84L308.266 385.738L308.124 385.829L308.065 385.987C307.899 386.437 307.913 386.931 308.028 387.37C308.119 387.715 308.277 388.05 308.489 388.334L307.925 388.835L301.921 385.366C302.041 385.226 302.149 385.076 302.232 384.916L302.233 384.917L305.285 379.097L305.284 379.096C305.494 378.698 306.033 378.431 306.483 378.485Z" fill="white" stroke="#FA2609"/>
<path d="M294.256 382.343C294.461 382.181 294.591 382.215 294.653 382.251L295.681 382.851L295.677 382.838L299.488 385.039C299.486 385.053 299.485 385.068 299.482 385.083C299.455 385.261 299.413 385.472 299.364 385.674L294.544 390.097L288.901 386.836C289.012 386.603 289.149 386.4 289.297 386.255L289.393 386.171L294.255 382.344L294.256 382.343Z" fill="white" stroke="#FA2609"/>
</g>
<path d="M311.593 381.442L311.683 381.458L314.928 382.184C315.271 382.26 315.46 382.538 315.408 382.859L315.371 383L313.175 388.944C313.008 389.394 313.024 389.888 313.139 390.327C313.24 390.712 313.425 391.086 313.676 391.39L313.787 391.516C313.998 391.737 314.199 391.974 314.391 392.228L314.579 392.485C315.114 393.247 316.143 393.567 316.993 393.006L316.992 393.005L321.298 390.17C321.491 390.042 321.604 390.066 321.643 390.083C321.671 390.096 321.731 390.136 321.775 390.251L321.813 390.394L322.624 395.098C322.666 395.343 322.633 395.669 322.521 395.996C322.424 396.283 322.28 396.532 322.124 396.702L322.056 396.77L317.747 400.734V400.735C317.427 401.03 317.15 401.448 316.945 401.869C316.765 402.239 316.624 402.645 316.559 403.022L316.536 403.183C316.449 403.943 316.326 404.715 316.17 405.494L316.004 406.274C315.81 407.129 316.223 408.084 317.002 408.51L317.162 408.588L319.688 409.665C320.054 409.821 320.232 410.224 320.109 410.596L320.081 410.67L317.141 417.265C317.046 417.477 316.851 417.691 316.594 417.85C316.369 417.988 316.128 418.064 315.916 418.073H315.827L312.701 417.918H312.7C312.239 417.896 311.757 418.032 311.345 418.243C310.983 418.428 310.639 418.689 310.387 419.003L310.284 419.141C309.761 419.909 309.211 420.656 308.637 421.379L308.056 422.094H308.055C307.78 422.424 307.553 422.866 307.401 423.312C307.269 423.7 307.18 424.126 307.179 424.52L307.184 424.687L307.474 429.317C307.489 429.569 307.422 429.895 307.278 430.216C307.153 430.497 306.986 430.736 306.813 430.896L306.739 430.959L301.877 434.786C301.698 434.927 301.575 434.921 301.519 434.903C301.477 434.89 301.407 434.849 301.348 434.738L301.293 434.602L300.195 430.956C299.919 430.036 299.02 429.622 298.165 429.875L297.995 429.935C297.501 430.135 297.015 430.304 296.536 430.444L296.061 430.574C295.644 430.681 295.207 430.905 294.832 431.182C294.506 431.423 294.196 431.726 293.983 432.066L293.898 432.214V432.215L290.847 438.033C290.637 438.431 290.099 438.7 289.647 438.646L289.559 438.631L286.314 437.904C285.971 437.828 285.782 437.55 285.834 437.229L285.871 437.088L288.066 431.145V431.144C288.232 430.694 288.216 430.2 288.102 429.762C288.001 429.377 287.815 429.003 287.565 428.7L287.454 428.574C287.244 428.353 287.043 428.115 286.852 427.862L286.663 427.604C286.162 426.889 285.227 426.565 284.411 426.989L284.25 427.084L279.944 429.919C279.751 430.046 279.639 430.023 279.601 430.007C279.572 429.994 279.512 429.954 279.467 429.838L279.429 429.695L278.619 424.991C278.578 424.746 278.61 424.421 278.722 424.094C278.819 423.807 278.963 423.558 279.12 423.388L279.188 423.32L283.496 419.354C283.816 419.06 284.093 418.642 284.298 418.221C284.478 417.85 284.62 417.444 284.685 417.066L284.708 416.907V416.906C284.795 416.146 284.917 415.374 285.073 414.596L285.24 413.814C285.434 412.96 285.022 412.005 284.242 411.579L284.082 411.502L281.556 410.424C281.188 410.268 281.01 409.864 281.133 409.493L281.162 409.42L284.102 402.825C284.196 402.613 284.391 402.399 284.648 402.24C284.873 402.102 285.114 402.026 285.326 402.017H285.415L288.541 402.172H288.542C289.003 402.194 289.486 402.057 289.898 401.846C290.26 401.661 290.604 401.401 290.855 401.087L290.958 400.949C291.482 400.181 292.031 399.433 292.604 398.71L293.186 397.996H293.187C293.462 397.666 293.688 397.222 293.84 396.777C293.973 396.389 294.061 395.963 294.062 395.569L294.058 395.403L293.768 390.771C293.752 390.52 293.82 390.195 293.963 389.874C294.089 389.593 294.255 389.353 294.428 389.193L294.502 389.13L299.364 385.303C299.543 385.162 299.667 385.169 299.723 385.187C299.765 385.2 299.834 385.24 299.894 385.352L299.948 385.488L301.046 389.133C301.322 390.052 302.22 390.466 303.075 390.213L303.246 390.153C303.74 389.953 304.226 389.784 304.704 389.645L305.181 389.514C305.597 389.407 306.034 389.183 306.409 388.906C306.736 388.665 307.045 388.361 307.258 388.021L307.343 387.874L310.394 382.054L310.395 382.055C310.604 381.657 311.141 381.388 311.593 381.442ZM306.26 397.151C304.159 396.681 301.627 397.394 299.095 399.235L298.588 399.619C295.879 401.751 293.641 404.821 292.198 408.058C290.848 411.087 290.175 414.31 290.507 417.09L290.587 417.64C291.089 420.559 292.703 422.426 294.986 422.938C297.088 423.408 299.619 422.695 302.151 420.854L302.658 420.471C305.366 418.339 307.605 415.269 309.048 412.032C310.398 409.003 311.071 405.779 310.739 402.999L310.659 402.449C310.157 399.53 308.543 397.662 306.26 397.151Z" fill="white" stroke="#FA2609"/>
<path d="M253.865 354.719C254.095 354.374 254.565 354.246 254.938 354.413L255.01 354.45H255.011L261.598 358.257C261.957 358.464 262.115 358.927 261.972 359.31L261.939 359.386L255.87 371.636C255.663 372.052 255.6 372.549 255.632 373.009C255.66 373.413 255.764 373.827 255.946 374.181L256.029 374.328C256.725 375.464 257.322 376.732 257.808 378.13L258.009 378.737C258.306 379.678 259.275 380.167 260.208 379.745V379.746L269.312 375.637L269.313 375.638C269.512 375.549 269.614 375.583 269.652 375.604L270.154 375.89L274.427 378.355L274.247 382.209L269.889 387.44L269.772 387.579V387.76C269.772 388.012 269.685 388.334 269.522 388.648C269.38 388.923 269.199 389.155 269.018 389.306L268.94 389.365L259.595 395.95C259.219 396.214 258.919 396.617 258.717 397.035C258.514 397.453 258.386 397.934 258.399 398.385V398.386C258.473 400.912 258.311 404.373 257.623 407.141L257.479 407.685V407.686C257.354 408.124 257.368 408.612 257.485 409.055C257.588 409.441 257.778 409.825 258.065 410.123L258.195 410.246L261.659 413.234H261.66C261.991 413.518 262.101 414.068 261.922 414.468L261.883 414.546L254.36 427.586L254.359 427.587C254.142 427.964 253.626 428.174 253.201 428.072L253.117 428.048L249.085 426.627C248.636 426.469 248.139 426.485 247.698 426.606C247.312 426.712 246.935 426.908 246.638 427.181L246.515 427.303C244.619 429.353 241.955 431.305 239.277 432.526L238.742 432.761H238.741C238.322 432.937 237.944 433.253 237.663 433.618C237.418 433.936 237.223 434.321 237.15 434.727L237.127 434.901L236.103 446.297V446.298C236.08 446.548 235.965 446.861 235.774 447.159C235.584 447.457 235.349 447.694 235.131 447.82L235.031 447.878L234.968 447.973L229.187 456.472L225.118 454.125L225.127 454.117L224.555 453.795C224.528 453.78 224.475 453.737 224.44 453.623L224.414 453.484V453.483L223.415 443.534H223.416C223.32 442.58 222.518 441.996 221.624 442.103L221.444 442.133C219.768 442.504 218.162 442.661 216.641 442.622C216.192 442.61 215.714 442.734 215.299 442.937C214.936 443.114 214.586 443.368 214.332 443.688L214.229 443.829L206.665 455.216C206.436 455.561 205.965 455.689 205.593 455.521L205.521 455.484H205.52L198.933 451.678L198.863 451.633C198.553 451.409 198.424 450.982 198.559 450.624L198.591 450.549H198.592L204.661 438.298L204.66 438.297C204.866 437.881 204.93 437.386 204.898 436.926C204.87 436.522 204.766 436.107 204.584 435.754L204.501 435.606C204.177 435.077 203.877 434.507 203.594 433.911L203.38 433.461L202.929 433.675L195.681 437.107L191.194 434.52L190.876 434.331C190.844 434.312 190.758 434.238 190.758 434.001V422.176C190.758 421.924 190.845 421.601 191.008 421.287C191.15 421.012 191.332 420.782 191.513 420.631L191.59 420.571L200.937 413.985L200.936 413.984C201.291 413.734 201.621 413.357 201.879 412.964C202.137 412.57 202.351 412.12 202.444 411.701C202.958 409.408 203.629 407.102 204.438 404.809L204.793 403.827L204.794 403.826C204.957 403.384 204.957 402.887 204.846 402.441C204.748 402.051 204.556 401.665 204.269 401.367L204.14 401.245L198.869 396.7V396.699L198.806 396.64C198.525 396.343 198.439 395.84 198.606 395.467L198.646 395.389L206.169 382.348C206.388 381.969 206.906 381.759 207.33 381.86L207.414 381.885L213.98 384.181C214.429 384.338 214.928 384.322 215.369 384.196C215.756 384.086 216.133 383.881 216.423 383.589L216.541 383.458C218.097 381.578 219.736 379.807 221.443 378.176L222.179 377.485C222.494 377.194 222.777 376.783 222.989 376.362C223.174 375.995 223.322 375.585 223.382 375.198L223.401 375.034L224.426 363.639H224.427C224.449 363.388 224.564 363.074 224.754 362.776C224.92 362.515 225.122 362.302 225.316 362.168L225.398 362.115L235.63 356.201C235.831 356.085 235.939 356.119 235.973 356.137L235.997 356.149L240.76 358.897V367.496L241.316 367.434C242.2 367.334 243.059 367.291 243.89 367.312V367.312C244.338 367.324 244.816 367.201 245.231 366.998C245.594 366.821 245.944 366.567 246.198 366.247L246.301 366.105L253.865 354.719ZM243.733 383.586C240.944 381.797 237.049 382.197 232.42 384.761L231.97 385.016C227.103 387.828 222.688 392.658 219.49 398.161C216.293 403.664 214.285 409.887 214.285 415.514C214.285 421.084 215.779 425.052 218.681 426.86C221.505 428.62 225.433 428.198 230.064 425.633L230.515 425.378C235.381 422.566 239.759 417.759 242.919 412.28C246.079 406.802 248.048 400.604 248.048 394.979C248.048 389.412 246.594 385.421 243.733 383.586Z" fill="white" stroke="#FA2609"/>
<path opacity="0.1" d="M253.865 354.719C254.095 354.374 254.565 354.246 254.938 354.413L255.01 354.45H255.011L261.598 358.257C261.957 358.464 262.115 358.927 261.972 359.31L261.939 359.386L255.87 371.636C255.663 372.052 255.6 372.549 255.632 373.009C255.66 373.413 255.764 373.827 255.946 374.181L256.029 374.328C256.725 375.464 257.322 376.732 257.808 378.13L258.009 378.737C258.306 379.678 259.275 380.167 260.208 379.745V379.746L269.312 375.637L269.313 375.638C269.512 375.549 269.614 375.583 269.652 375.604L270.154 375.89L274.427 378.355L274.247 382.209L269.889 387.44L269.772 387.579V387.76C269.772 388.012 269.685 388.334 269.522 388.648C269.38 388.923 269.199 389.155 269.018 389.306L268.94 389.365L259.595 395.95C259.219 396.214 258.919 396.617 258.717 397.035C258.514 397.453 258.386 397.934 258.399 398.385V398.386C258.473 400.912 258.311 404.373 257.623 407.141L257.479 407.685V407.686C257.354 408.124 257.368 408.612 257.485 409.055C257.588 409.441 257.778 409.825 258.065 410.123L258.195 410.246L261.659 413.234H261.66C261.991 413.518 262.101 414.068 261.922 414.468L261.883 414.546L254.36 427.586L254.359 427.587C254.142 427.964 253.626 428.174 253.201 428.072L253.117 428.048L249.085 426.627C248.636 426.469 248.139 426.485 247.698 426.606C247.312 426.712 246.935 426.908 246.638 427.181L246.515 427.303C244.619 429.353 241.955 431.305 239.277 432.526L238.742 432.761H238.741C238.322 432.937 237.944 433.253 237.663 433.618C237.418 433.936 237.223 434.321 237.15 434.727L237.127 434.901L236.103 446.297V446.298C236.08 446.548 235.965 446.861 235.774 447.159C235.584 447.457 235.349 447.694 235.131 447.82L235.031 447.878L234.968 447.973L229.187 456.472L225.118 454.125L225.127 454.117L224.555 453.795C224.528 453.78 224.475 453.737 224.44 453.623L224.414 453.484V453.483L223.415 443.534H223.416C223.32 442.58 222.518 441.996 221.624 442.103L221.444 442.133C219.768 442.504 218.162 442.661 216.641 442.622C216.192 442.61 215.714 442.734 215.299 442.937C214.936 443.114 214.586 443.368 214.332 443.688L214.229 443.829L206.665 455.216C206.436 455.561 205.965 455.689 205.593 455.521L205.521 455.484H205.52L198.933 451.678L198.863 451.633C198.553 451.409 198.424 450.982 198.559 450.624L198.591 450.549H198.592L204.661 438.298L204.66 438.297C204.866 437.881 204.93 437.386 204.898 436.926C204.87 436.522 204.766 436.107 204.584 435.754L204.501 435.606C204.177 435.077 203.877 434.507 203.594 433.911L203.38 433.461L202.929 433.675L195.681 437.107L191.194 434.52L190.876 434.331C190.844 434.312 190.758 434.238 190.758 434.001V422.176C190.758 421.924 190.845 421.601 191.008 421.287C191.15 421.012 191.332 420.782 191.513 420.631L191.59 420.571L200.937 413.985L200.936 413.984C201.291 413.734 201.621 413.357 201.879 412.964C202.137 412.57 202.351 412.12 202.444 411.701C202.958 409.408 203.629 407.102 204.438 404.809L204.793 403.827L204.794 403.826C204.957 403.384 204.957 402.887 204.846 402.441C204.748 402.051 204.556 401.665 204.269 401.367L204.14 401.245L198.869 396.7V396.699L198.806 396.64C198.525 396.343 198.439 395.84 198.606 395.467L198.646 395.389L206.169 382.348C206.388 381.969 206.906 381.759 207.33 381.86L207.414 381.885L213.98 384.181C214.429 384.338 214.928 384.322 215.369 384.196C215.756 384.086 216.133 383.881 216.423 383.589L216.541 383.458C218.097 381.578 219.736 379.807 221.443 378.176L222.179 377.485C222.494 377.194 222.777 376.783 222.989 376.362C223.174 375.995 223.322 375.585 223.382 375.198L223.401 375.034L224.426 363.639H224.427C224.449 363.388 224.564 363.074 224.754 362.776C224.92 362.515 225.122 362.302 225.316 362.168L225.398 362.115L235.63 356.201C235.831 356.085 235.939 356.119 235.973 356.137L235.997 356.149L240.76 358.897V367.496L241.316 367.434C242.2 367.334 243.059 367.291 243.89 367.312V367.312C244.338 367.324 244.816 367.201 245.231 366.998C245.594 366.821 245.944 366.567 246.198 366.247L246.301 366.105L253.865 354.719ZM243.733 383.586C240.944 381.797 237.049 382.197 232.42 384.761L231.97 385.016C227.103 387.828 222.688 392.658 219.49 398.161C216.293 403.664 214.285 409.887 214.285 415.514C214.285 421.084 215.779 425.052 218.681 426.86C221.505 428.62 225.433 428.198 230.064 425.633L230.515 425.378C235.381 422.566 239.759 417.759 242.919 412.28C246.079 406.802 248.048 400.604 248.048 394.979C248.048 389.412 246.594 385.421 243.733 383.586Z" fill="white" stroke="#FA2609"/>
<path d="M253.865 354.719C254.095 354.374 254.566 354.247 254.938 354.414L255.011 354.451H255.012L261.599 358.258C261.958 358.465 262.116 358.928 261.973 359.311L261.94 359.387H261.939L259.962 363.379L253.742 370.567L246.216 366.219C246.245 366.182 246.276 366.145 246.303 366.105L246.302 366.104L253.866 354.72L253.865 354.719Z" fill="white" stroke="#FA2609"/>
<path d="M207.794 417.096L196.393 423.588L191.425 420.718C191.441 420.701 191.456 420.683 191.473 420.668L191.591 420.57L200.937 413.985C201.14 413.843 201.325 413.655 201.496 413.455L207.794 417.096Z" fill="white" stroke="#FA2609"/>
<path d="M214.092 386.045L204.391 399.181L198.535 395.797C198.541 395.7 198.556 395.608 198.585 395.525L198.647 395.389V395.388L206.17 382.348C206.317 382.092 206.614 381.901 206.938 381.85L214.092 386.045Z" fill="white" stroke="#FA2609"/>
<path d="M235.637 356.203C235.837 356.087 235.945 356.12 235.979 356.138L235.986 356.142L240.767 358.899V361.996L232.154 366.975L224.805 362.727C224.95 362.506 225.119 362.319 225.29 362.192L225.404 362.117L225.405 362.116L235.637 356.203Z" fill="white" stroke="#FA2609"/>
<path d="M269.317 375.638C269.514 375.55 269.621 375.585 269.654 375.604L270.405 376.04V376.028L273.511 377.822L264.83 381.736H264.829C264.523 381.875 264.214 381.778 264.056 381.481L263.997 381.343C263.687 380.347 263.32 379.412 262.896 378.532L269.317 375.638Z" fill="white" stroke="#FA2609"/>
<g opacity="0.4">
<path d="M253.865 354.719C254.095 354.374 254.566 354.247 254.938 354.414L255.011 354.451H255.012L261.599 358.258C261.958 358.465 262.116 358.928 261.973 359.311L261.94 359.387H261.939L259.962 363.379L253.742 370.567L246.216 366.219C246.245 366.182 246.276 366.145 246.303 366.105L246.302 366.104L253.866 354.72L253.865 354.719Z" fill="white" stroke="#FA2609"/>
<path d="M207.794 417.096L196.393 423.588L191.425 420.718C191.441 420.701 191.456 420.683 191.473 420.668L191.591 420.57L200.937 413.985C201.14 413.843 201.325 413.655 201.496 413.455L207.794 417.096Z" fill="white" stroke="#FA2609"/>
<path d="M214.092 386.045L204.391 399.181L198.535 395.797C198.541 395.7 198.556 395.608 198.585 395.525L198.647 395.389V395.388L206.17 382.348C206.317 382.092 206.614 381.901 206.938 381.85L214.092 386.045Z" fill="white" stroke="#FA2609"/>
<path d="M235.637 356.203C235.837 356.087 235.945 356.12 235.979 356.138L235.986 356.142L240.767 358.899V361.996L232.154 366.975L224.805 362.727C224.95 362.506 225.119 362.319 225.29 362.192L225.404 362.117L225.405 362.116L235.637 356.203Z" fill="white" stroke="#FA2609"/>
<path d="M269.317 375.638C269.514 375.55 269.621 375.585 269.654 375.604L270.405 376.04V376.028L273.511 377.822L264.83 381.736H264.829C264.523 381.875 264.214 381.778 264.056 381.481L263.997 381.343C263.687 380.347 263.32 379.412 262.896 378.532L269.317 375.638Z" fill="white" stroke="#FA2609"/>
</g>
<path d="M258.896 357.625C259.126 357.28 259.596 357.152 259.969 357.319L260.041 357.356H260.042L266.629 361.163C266.988 361.371 267.146 361.833 267.003 362.216L266.971 362.292L260.899 374.542C260.693 374.958 260.63 375.455 260.662 375.915C260.69 376.319 260.794 376.733 260.977 377.087L261.06 377.234C261.756 378.37 262.353 379.639 262.839 381.036L263.04 381.644C263.318 382.524 264.187 383.009 265.063 382.719L265.239 382.65L274.346 378.542L274.345 378.541C274.557 378.446 274.661 378.49 274.691 378.51C274.722 378.53 274.804 378.607 274.804 378.84V390.665C274.804 390.917 274.716 391.24 274.554 391.554C274.411 391.828 274.231 392.059 274.05 392.209L273.972 392.269L264.625 398.854C264.27 399.104 263.94 399.482 263.683 399.875C263.457 400.22 263.264 400.608 263.157 400.98L263.117 401.139C262.604 403.43 261.932 405.736 261.123 408.029L260.769 409.012C260.605 409.453 260.604 409.95 260.716 410.396C260.813 410.785 261.005 411.171 261.293 411.469L261.422 411.592L266.692 416.137C267.023 416.421 267.134 416.97 266.955 417.37L266.915 417.448L259.393 430.488C259.174 430.867 258.656 431.078 258.231 430.977L258.147 430.952L251.579 428.657H251.58C251.131 428.5 250.632 428.516 250.19 428.643C249.804 428.753 249.427 428.958 249.138 429.251L249.019 429.381C247.464 431.26 245.825 433.031 244.118 434.662L243.383 435.353C243.067 435.644 242.784 436.055 242.572 436.476C242.387 436.843 242.241 437.253 242.181 437.64L242.16 437.803V437.804L241.136 449.199V449.2C241.113 449.451 240.998 449.764 240.808 450.062C240.641 450.322 240.44 450.537 240.246 450.671L240.163 450.723L229.932 456.637C229.73 456.753 229.623 456.721 229.591 456.704C229.566 456.692 229.511 456.65 229.475 456.532L229.446 456.388L228.448 446.438C228.353 445.484 227.551 444.899 226.656 445.006L226.477 445.037C225.009 445.361 223.596 445.522 222.247 445.531L221.673 445.525C221.224 445.514 220.747 445.639 220.331 445.842C219.969 446.019 219.619 446.273 219.365 446.593L219.262 446.734L211.696 458.12C211.467 458.465 210.997 458.594 210.624 458.427L210.552 458.39L210.551 458.389L203.964 454.583C203.605 454.375 203.447 453.912 203.59 453.529L203.622 453.454H203.623L209.692 441.203L209.691 441.202C209.898 440.786 209.962 440.291 209.93 439.831C209.902 439.427 209.797 439.013 209.615 438.659L209.532 438.512C208.837 437.375 208.24 436.106 207.754 434.708L207.553 434.101C207.274 433.219 206.406 432.734 205.529 433.024L205.354 433.093L196.247 437.201C196.035 437.296 195.932 437.253 195.901 437.233C195.871 437.213 195.789 437.136 195.789 436.903V425.079C195.789 424.827 195.876 424.504 196.039 424.19C196.182 423.916 196.363 423.685 196.544 423.534L196.621 423.475L205.968 416.889L205.967 416.888C206.322 416.638 206.652 416.261 206.91 415.868C207.168 415.475 207.382 415.024 207.476 414.604C207.989 412.313 208.661 410.007 209.47 407.714L209.824 406.731H209.825C209.989 406.29 209.988 405.793 209.877 405.348C209.779 404.958 209.587 404.573 209.3 404.274L209.171 404.152V404.151L203.9 399.606V399.605L203.837 399.546C203.556 399.25 203.471 398.746 203.638 398.373L203.678 398.295L211.2 385.253C211.419 384.875 211.937 384.663 212.361 384.765L212.445 384.789V384.79L219.013 387.085V387.086C219.461 387.243 219.96 387.228 220.401 387.102C220.788 386.991 221.165 386.787 221.455 386.494L221.573 386.363H221.574C223.13 384.483 224.769 382.712 226.476 381.081L227.212 380.391V380.39C227.527 380.099 227.81 379.688 228.021 379.268C228.206 378.9 228.354 378.49 228.414 378.104L228.435 377.939L229.459 366.544V366.543C229.481 366.292 229.597 365.979 229.787 365.681C229.954 365.42 230.155 365.206 230.349 365.072L230.431 365.021L240.661 359.107L240.662 359.108C240.863 358.993 240.97 359.024 241.003 359.041C241.027 359.054 241.084 359.095 241.12 359.213L241.147 359.358L242.146 369.307C242.242 370.26 243.044 370.845 243.938 370.738L244.117 370.707C245.794 370.336 247.4 370.18 248.921 370.219V370.218C249.369 370.23 249.846 370.107 250.262 369.904C250.624 369.727 250.973 369.473 251.228 369.153L251.331 369.012L258.896 357.625ZM247.768 386.25C244.535 384.382 240.191 384.633 235.501 387.206L235.046 387.462C230.179 390.275 225.801 395.081 222.641 400.56C219.48 406.038 217.511 412.236 217.511 417.861C217.511 423.482 219.486 427.566 222.823 429.494C226.056 431.362 230.4 431.112 235.091 428.539L235.546 428.282C240.412 425.469 244.79 420.663 247.95 415.185C251.11 409.706 253.079 403.508 253.079 397.883C253.079 392.261 251.104 388.178 247.768 386.25Z" fill="white" stroke="#FA2609"/>
<path d="M371.561 123.313C372.335 123.314 373.089 123.464 373.688 123.746L373.936 123.875L374.842 124.398C375.473 124.763 376.073 125.41 376.516 126.178C376.958 126.945 377.218 127.788 377.218 128.518V222.08C377.218 222.81 376.958 223.652 376.516 224.42C376.128 225.092 375.62 225.67 375.076 226.049L374.842 226.199L254.782 295.571C254.152 295.935 253.294 296.132 252.408 296.132C251.633 296.132 250.879 295.981 250.28 295.699L250.033 295.57L249.126 295.046C248.495 294.681 247.895 294.035 247.452 293.268C247.009 292.5 246.75 291.657 246.75 290.928V197.366C246.75 196.637 247.009 195.794 247.452 195.026C247.84 194.355 248.347 193.776 248.891 193.397L249.126 193.247L369.186 123.875C369.817 123.51 370.675 123.313 371.561 123.313Z" fill="white" stroke="#FA2609"/>
<path opacity="0.4" d="M371.562 123.313C372.338 123.313 373.091 123.464 373.687 123.746L373.932 123.875L373.934 123.876L374.839 124.396V124.397C375.414 124.733 375.968 125.304 376.4 125.991C376.433 126.044 376.464 126.098 376.495 126.151C376.057 126.101 375.588 126.196 375.123 126.413L374.843 126.559L374.842 126.56L254.779 195.942C254.086 196.335 253.483 196.964 253.007 197.66L247.724 194.607C248.122 194.029 248.614 193.548 249.132 193.245L249.131 193.244L369.182 123.876L369.181 123.875C369.816 123.509 370.677 123.314 371.562 123.313Z" fill="white" stroke="#FA2609"/>
<path opacity="0.1" d="M252.51 198.526C252.142 199.294 251.904 200.136 251.904 200.92V294.491C251.905 295.13 252.059 295.7 252.374 296.125C252.303 296.125 252.231 296.125 252.16 296.122C251.464 296.094 250.798 295.944 250.264 295.688L250.043 295.57L250.039 295.568L249.117 295.046C248.491 294.68 247.896 294.036 247.456 293.27C247.015 292.501 246.758 291.657 246.758 290.925V197.369L246.77 197.089C246.813 196.569 246.973 196.008 247.227 195.474L252.51 198.526Z" fill="white" stroke="#FA2609"/>
<path d="M263.844 203.595C263.843 203.323 263.942 202.988 264.125 202.67C264.285 202.392 264.49 202.163 264.696 202.02L264.784 201.963L273.815 196.744C274.053 196.607 274.151 196.657 274.156 196.66C274.164 196.665 274.255 196.726 274.255 196.999L274.253 207.157L274.249 207.262C274.228 207.511 274.131 207.801 273.971 208.077C273.81 208.353 273.605 208.579 273.398 208.721L273.311 208.775L264.294 213.877C264.058 214.01 263.957 213.963 263.946 213.957C263.936 213.951 263.844 213.888 263.844 213.614V203.595Z" fill="white" stroke="#FA2609"/>
<path d="M279.039 192.473H279.04C279.041 192.473 279.042 192.475 279.043 192.477C279.052 192.489 279.073 192.527 279.084 192.604C279.101 192.724 279.088 192.898 279.022 193.103L278.938 193.317L272.771 206.586C272.617 206.916 272.386 207.181 272.17 207.315L272.158 207.322L272.154 207.325L272.144 207.331C272.046 207.387 271.977 207.402 271.94 207.404H271.917L271.916 207.403L269.124 205.29L269.123 205.289L269.122 205.287C269.121 205.286 269.119 205.284 269.116 205.28C269.111 205.273 269.103 205.258 269.095 205.234C269.078 205.185 269.066 205.106 269.072 204.997C269.082 204.833 269.134 204.632 269.233 204.424L269.349 204.215H269.35C269.527 203.935 269.733 203.756 269.897 203.675C269.978 203.635 270.034 203.625 270.062 203.625C270.07 203.625 270.075 203.625 270.078 203.626L270.079 203.627L272.024 205.1L272.519 205.474L272.779 204.911L278.183 193.289C278.32 192.993 278.516 192.757 278.705 192.614C278.858 192.499 278.962 192.475 279.01 192.472L279.039 192.473Z" fill="white" stroke="#FA2609"/>
<path d="M263.844 225.738C263.843 225.467 263.942 225.132 264.125 224.814C264.285 224.537 264.49 224.308 264.696 224.164L264.784 224.107L273.815 218.889C274.053 218.751 274.151 218.801 274.156 218.805C274.164 218.809 274.255 218.871 274.255 219.144L274.253 229.302L274.249 229.406C274.228 229.656 274.131 229.946 273.971 230.222C273.81 230.498 273.605 230.724 273.398 230.865L273.311 230.92L264.294 236.021C264.057 236.156 263.956 236.107 263.946 236.102C263.936 236.096 263.844 236.032 263.844 235.758V225.738Z" fill="white" stroke="#FA2609"/>
<path d="M279.039 214.617H279.04C279.041 214.618 279.042 214.62 279.043 214.621C279.052 214.634 279.073 214.672 279.084 214.749C279.101 214.869 279.088 215.042 279.022 215.247L278.938 215.462L272.771 228.73C272.617 229.06 272.386 229.325 272.17 229.46L272.158 229.467L272.154 229.47L272.143 229.477C272.046 229.533 271.977 229.548 271.941 229.55L271.917 229.549L271.916 229.548L269.124 227.435L269.123 227.434L269.122 227.432C269.121 227.43 269.119 227.428 269.116 227.425C269.111 227.417 269.103 227.402 269.095 227.379C269.078 227.33 269.066 227.25 269.072 227.142C269.082 226.977 269.134 226.776 269.233 226.568L269.349 226.359H269.35C269.527 226.079 269.733 225.9 269.897 225.819C269.978 225.779 270.034 225.77 270.062 225.77C270.07 225.769 270.075 225.77 270.078 225.771L270.079 225.771L272.024 227.244L272.519 227.618L272.779 227.056L278.183 215.434C278.32 215.138 278.516 214.902 278.705 214.759C278.858 214.643 278.962 214.619 279.01 214.616L279.039 214.617Z" fill="white" stroke="#FA2609"/>
<path d="M263.844 247.884C263.843 247.613 263.942 247.278 264.125 246.96C264.285 246.682 264.49 246.454 264.696 246.31L264.784 246.253L273.815 241.034C274.053 240.897 274.151 240.947 274.156 240.95C274.164 240.955 274.255 241.016 274.255 241.289L274.253 251.447L274.249 251.552C274.228 251.801 274.131 252.091 273.971 252.367C273.81 252.643 273.605 252.869 273.398 253.011L273.311 253.065L264.294 258.167C264.058 258.301 263.957 258.253 263.946 258.247C263.936 258.241 263.844 258.178 263.844 257.904V247.884Z" fill="white" stroke="#FA2609"/>
<path d="M279.039 236.763H279.04C279.041 236.764 279.042 236.765 279.043 236.767C279.052 236.779 279.073 236.817 279.084 236.895C279.101 237.014 279.088 237.188 279.022 237.393L278.938 237.607L272.771 250.876C272.617 251.206 272.386 251.471 272.17 251.605L272.158 251.612L272.154 251.615L272.143 251.622C272.046 251.678 271.976 251.694 271.94 251.695C271.91 251.697 271.909 251.69 271.915 251.694H271.916L269.124 249.581L269.123 249.58L269.122 249.578C269.121 249.577 269.119 249.575 269.116 249.571C269.111 249.564 269.103 249.549 269.095 249.525C269.078 249.476 269.066 249.398 269.072 249.289C269.082 249.124 269.134 248.923 269.233 248.715L269.349 248.506H269.35C269.527 248.226 269.733 248.047 269.897 247.966C269.978 247.926 270.034 247.917 270.062 247.917C270.07 247.917 270.075 247.916 270.078 247.917L270.079 247.918L272.024 249.391L272.519 249.765L272.779 249.203L278.183 237.579C278.32 237.284 278.516 237.047 278.705 236.904C278.858 236.789 278.962 236.765 279.01 236.762L279.039 236.763Z" fill="white" stroke="#FA2609"/>
<path d="M263.844 270.089C263.843 269.816 263.942 269.481 264.125 269.163C264.285 268.885 264.49 268.657 264.695 268.514L264.783 268.458L264.784 268.457L273.815 263.238C274.053 263.101 274.151 263.151 274.156 263.154C274.164 263.159 274.255 263.22 274.255 263.493L274.253 273.651L274.249 273.756C274.228 274.005 274.131 274.295 273.971 274.571C273.81 274.847 273.605 275.073 273.398 275.215L273.311 275.27L264.294 280.371C264.058 280.505 263.957 280.457 263.946 280.451C263.936 280.445 263.844 280.382 263.844 280.108V270.089Z" fill="white" stroke="#FA2609"/>
<path d="M279.039 258.969H279.04C279.041 258.97 279.042 258.971 279.043 258.973C279.052 258.985 279.073 259.023 279.084 259.101C279.101 259.22 279.088 259.394 279.022 259.599L278.938 259.813L272.771 273.082C272.62 273.406 272.394 273.666 272.181 273.803C272.178 273.804 272.176 273.806 272.174 273.808C272.165 273.812 272.158 273.817 272.154 273.819C272.149 273.823 272.148 273.823 272.147 273.823C272.147 273.823 272.15 273.822 272.154 273.82L272.143 273.827C272.046 273.883 271.976 273.898 271.94 273.899C271.928 273.9 271.92 273.9 271.916 273.899L269.124 271.786L269.123 271.785L269.122 271.783C269.121 271.782 269.119 271.78 269.116 271.776C269.111 271.769 269.103 271.754 269.095 271.73C269.078 271.681 269.066 271.602 269.072 271.493C269.082 271.329 269.134 271.128 269.233 270.92L269.349 270.711H269.35C269.527 270.431 269.733 270.252 269.897 270.171C269.978 270.131 270.034 270.121 270.062 270.121C270.07 270.121 270.075 270.122 270.078 270.122L270.079 270.123L272.024 271.596L272.519 271.97L272.779 271.407L278.183 259.785C278.32 259.49 278.516 259.253 278.705 259.11C278.858 258.995 278.962 258.971 279.01 258.968L279.039 258.969Z" fill="white" stroke="#FA2609"/>
<path d="M322.895 168.986C323.487 168.644 323.923 168.619 324.159 168.703C324.344 168.769 324.525 168.946 324.525 169.404C324.525 169.888 324.309 170.503 323.91 171.106C323.565 171.629 323.107 172.104 322.609 172.439L322.394 172.574L288.061 192.414C287.468 192.757 287.032 192.782 286.795 192.697C286.61 192.631 286.43 192.455 286.43 191.998L286.439 191.811C286.487 191.361 286.696 190.824 287.045 190.296C287.39 189.773 287.849 189.299 288.347 188.963L288.562 188.827L322.895 168.986Z" fill="white" stroke="#FA2609"/>
<path d="M361.988 153.916C362.581 153.573 363.017 153.548 363.254 153.633C363.439 153.699 363.619 153.876 363.619 154.334C363.619 154.818 363.403 155.433 363.005 156.036C362.66 156.559 362.202 157.034 361.704 157.369L361.488 157.504L288.061 199.877V199.878C287.468 200.22 287.032 200.245 286.795 200.16C286.61 200.094 286.43 199.918 286.43 199.461L286.439 199.274C286.487 198.825 286.696 198.288 287.045 197.76C287.39 197.237 287.849 196.762 288.347 196.427L288.562 196.292L361.988 153.916Z" fill="white" stroke="#FA2609"/>
<path d="M322.895 190.649C323.487 190.307 323.923 190.282 324.159 190.366C324.344 190.432 324.525 190.609 324.525 191.067C324.525 191.551 324.309 192.166 323.91 192.77C323.565 193.292 323.107 193.767 322.609 194.103L322.394 194.237L288.061 214.077C287.468 214.42 287.032 214.445 286.795 214.36C286.61 214.294 286.43 214.118 286.43 213.661L286.439 213.474C286.487 213.024 286.696 212.487 287.045 211.959C287.39 211.436 287.849 210.962 288.347 210.626L288.562 210.49L322.895 190.649Z" fill="white" stroke="#FA2609"/>
<path d="M361.988 175.579C362.581 175.236 363.017 175.211 363.254 175.296C363.439 175.362 363.619 175.539 363.619 175.997C363.619 176.481 363.403 177.096 363.005 177.699C362.66 178.222 362.202 178.697 361.704 179.032L361.488 179.167L288.061 221.54V221.541C287.468 221.883 287.032 221.908 286.795 221.823C286.61 221.757 286.43 221.581 286.43 221.124L286.439 220.938C286.487 220.488 286.696 219.951 287.045 219.423C287.439 218.826 287.98 218.289 288.56 217.953L288.561 217.954L361.988 175.579Z" fill="white" stroke="#FA2609"/>
<path d="M322.895 213.691C323.487 213.348 323.923 213.323 324.159 213.407C324.344 213.473 324.525 213.65 324.525 214.108C324.525 214.592 324.309 215.207 323.91 215.811C323.565 216.333 323.107 216.808 322.609 217.144L322.394 217.278L288.061 237.118C287.468 237.461 287.032 237.486 286.795 237.401C286.61 237.335 286.43 237.159 286.43 236.702C286.43 236.219 286.646 235.603 287.045 235C287.391 234.477 287.848 234.002 288.347 233.667L288.562 233.532L322.895 213.691Z" fill="white" stroke="#FA2609"/>
<path d="M361.988 198.619C362.581 198.277 363.017 198.251 363.254 198.336C363.439 198.402 363.619 198.579 363.619 199.037C363.619 199.521 363.403 200.136 363.005 200.739C362.66 201.262 362.202 201.737 361.704 202.072L361.488 202.207L288.061 244.58V244.581C287.468 244.924 287.032 244.948 286.795 244.863C286.61 244.797 286.43 244.621 286.43 244.164L286.439 243.978C286.487 243.528 286.696 242.991 287.045 242.463C287.439 241.866 287.98 241.329 288.56 240.993L288.561 240.994L361.988 198.619Z" fill="white" stroke="#FA2609"/>
<path d="M322.895 236.73C323.487 236.388 323.923 236.363 324.159 236.447C324.344 236.513 324.525 236.69 324.525 237.148C324.525 237.632 324.309 238.247 323.91 238.851C323.565 239.373 323.107 239.848 322.609 240.184L322.394 240.318L288.061 260.158C287.468 260.501 287.032 260.526 286.795 260.441C286.61 260.375 286.43 260.199 286.43 259.742L286.439 259.555C286.487 259.105 286.696 258.568 287.045 258.04C287.39 257.518 287.849 257.043 288.347 256.707L288.562 256.571L322.895 236.73Z" fill="white" stroke="#FA2609"/>
<path d="M361.988 221.659C362.581 221.317 363.017 221.291 363.254 221.376C363.439 221.442 363.619 221.619 363.619 222.077C363.619 222.561 363.403 223.176 363.005 223.779C362.66 224.302 362.202 224.777 361.704 225.112L361.488 225.247L288.061 267.62V267.621C287.468 267.964 287.032 267.988 286.795 267.903C286.61 267.837 286.43 267.661 286.43 267.204L286.439 267.018C286.487 266.568 286.696 266.031 287.045 265.503C287.439 264.906 287.979 264.37 288.56 264.033L288.561 264.034L361.988 221.659Z" fill="white" stroke="#FA2609"/>
<path d="M201.528 223.988C202.303 223.988 203.058 224.139 203.657 224.421L203.903 224.55L204.81 225.073C205.441 225.438 206.04 226.085 206.483 226.853C206.926 227.62 207.186 228.463 207.186 229.192V322.755C207.186 323.484 206.926 324.327 206.483 325.095C206.096 325.767 205.589 326.345 205.045 326.724L204.81 326.874L123.861 373.653C123.23 374.018 122.372 374.214 121.486 374.214C120.711 374.214 119.957 374.064 119.358 373.782L119.111 373.653V373.652L118.204 373.129C117.573 372.764 116.973 372.118 116.53 371.351C116.087 370.583 115.828 369.739 115.828 369.01V275.449C115.828 274.72 116.087 273.876 116.53 273.108C116.918 272.437 117.425 271.858 117.969 271.479L118.204 271.33L199.153 224.55C199.784 224.185 200.643 223.988 201.528 223.988Z" fill="white" stroke="#FA2609"/>
<path d="M163.308 262.704C170.231 258.703 176.381 258.387 180.769 260.923C185.156 263.459 187.958 268.948 187.958 276.95C187.958 284.949 185.149 293.846 180.585 301.76C176.163 309.426 170.119 316.125 163.454 320.173L162.807 320.557C155.883 324.558 149.733 324.873 145.346 322.338C140.958 319.802 138.156 314.312 138.156 306.31C138.156 298.311 140.965 289.413 145.529 281.499C149.951 273.833 155.995 267.134 162.66 263.087L163.308 262.704Z" fill="white" stroke="#FA2609"/>
<path d="M163.132 275.465C165.316 274.202 167.177 274.146 168.459 274.887C169.741 275.628 170.622 277.269 170.622 279.794C170.622 282.316 169.734 285.144 168.275 287.674C166.907 290.046 165.061 292.114 163.038 293.401L162.632 293.648C160.447 294.911 158.587 294.966 157.305 294.226C156.023 293.485 155.141 291.844 155.141 289.318L155.151 288.842C155.254 286.444 156.119 283.81 157.487 281.438C158.855 279.067 160.701 277 162.725 275.712L163.132 275.465Z" fill="white" stroke="#FA2609"/>
<path d="M165.831 295.689C169.477 293.581 172.662 293.445 174.902 294.74C177.143 296.035 178.619 298.865 178.619 303.081V304.935C174.422 311.291 169.127 316.751 163.369 320.225L162.808 320.557C157.12 323.844 151.959 324.617 147.867 323.39V321.431C147.867 317.217 149.348 312.515 151.766 308.323C154.108 304.263 157.304 300.725 160.814 298.593L161.155 298.391L165.831 295.689Z" fill="white" stroke="#FA2609"/>
<path d="M201.531 223.988C202.306 223.988 203.059 224.139 203.654 224.421L203.9 224.55L203.902 224.551L204.807 225.071V225.072C205.382 225.408 205.937 225.98 206.369 226.667C206.402 226.719 206.433 226.773 206.464 226.826C206.026 226.776 205.557 226.871 205.092 227.088L204.812 227.233L204.81 227.234L123.854 274.026C123.162 274.419 122.561 275.048 122.085 275.743L116.801 272.69C117.2 272.112 117.692 271.63 118.21 271.327L118.209 271.326L199.149 224.551C199.785 224.185 200.646 223.988 201.531 223.988Z" fill="white" stroke="#FA2609"/>
<path d="M121.59 276.61C121.222 277.378 120.983 278.22 120.983 279.004V372.574C120.983 373.214 121.138 373.784 121.453 374.209C121.382 374.209 121.31 374.209 121.238 374.206C120.542 374.178 119.877 374.028 119.342 373.771L119.121 373.654L119.117 373.652L118.195 373.13C117.569 372.764 116.974 372.12 116.534 371.354C116.094 370.585 115.836 369.741 115.836 369.009V275.453C115.836 274.859 116.005 274.19 116.306 273.558L121.59 276.61Z" fill="white" stroke="#FA2609"/>
<path d="M187.064 316.508C188.125 315.895 188.967 315.9 189.512 316.215C190.056 316.53 190.482 317.258 190.482 318.483V318.531C190.482 319.753 190.05 321.142 189.328 322.394C188.651 323.567 187.742 324.579 186.761 325.204L186.563 325.324L139.05 352.783C137.99 353.396 137.148 353.391 136.604 353.076C136.059 352.761 135.633 352.034 135.633 350.809V350.759C135.633 349.537 136.064 348.149 136.786 346.897C137.463 345.724 138.371 344.711 139.352 344.086L139.549 343.966L187.064 316.508Z" fill="white" stroke="#FA2609"/>
</svg>
