<svg width="493" height="535" viewBox="0 0 493 535" fill="none" xmlns="http://www.w3.org/2000/svg">
<g clip-path="url(#clip0_220_37422)">
<path d="M37.5522 318.934L37.554 318.935C38.5089 319.859 39.0889 321.137 39.0889 322.547V427.296C37.4263 426.835 35.6621 426.585 33.8527 426.585C32.0318 426.585 30.2741 426.836 28.6055 427.297V322.547C28.6055 319.744 30.9598 317.426 33.8527 317.426C35.3008 317.426 36.6028 318.006 37.5522 318.934Z" stroke="#FA2609"/>
<path d="M28.6055 344.029V341.572H39.0889V344.029H28.6055Z" stroke="#FA2609"/>
<path d="M28.6055 359.475V357.018H39.0889V359.475H28.6055Z" stroke="#FA2609"/>
<path d="M28.6055 374.923V372.466H39.0889V374.923H28.6055Z" stroke="#FA2609"/>
<path d="M28.6055 390.37V387.913H39.0889V390.37H28.6055Z" stroke="#FA2609"/>
<path d="M28.6055 405.818V403.36H39.0889V405.818H28.6055Z" stroke="#FA2609"/>
<path d="M28.6055 421.265V418.808H39.0889V421.265H28.6055Z" stroke="#FA2609"/>
<path d="M39.5103 413.269L39.5109 413.269C55.247 415.897 67.203 429.293 67.203 445.41C67.203 447.808 66.9217 450.141 66.4159 452.394H51.702C52.5878 450.235 53.0824 447.88 53.0824 445.41C53.0824 437.015 47.4779 429.915 39.7432 427.489C37.8937 426.906 35.9044 426.585 33.8571 426.585C31.7983 426.585 29.8203 426.905 27.9601 427.489C20.2253 429.916 14.6205 437.015 14.6205 445.41C14.6205 447.879 15.1142 450.234 16.0007 452.394H1.28815C0.782199 450.141 0.5 447.808 0.5 445.41C0.5 429.293 12.4559 415.897 28.1921 413.269L28.1922 413.269C30.0357 412.961 31.9247 412.796 33.8571 412.796C35.7785 412.796 37.6784 412.961 39.5103 413.269Z" stroke="#FA2609"/>
<path d="M39.4924 419.821C39.4924 422.849 36.9799 425.323 33.8556 425.323C30.7322 425.323 28.2188 422.849 28.2188 419.821C28.2188 416.793 30.7321 414.32 33.8556 414.32C36.979 414.32 39.4924 416.793 39.4924 419.821Z" stroke="#FA2609"/>
<path d="M186.207 314.877C187.153 313.984 188.02 313.014 188.818 311.977C191.406 308.631 193.196 304.671 193.926 300.366C194.154 298.972 194.28 297.543 194.28 296.083V266.795C194.28 265.691 194.406 264.62 194.634 263.583M186.207 314.877L167.3 311.319C168.714 311.319 170.082 311.13 171.382 310.784L171.508 311.268C171.508 311.268 171.508 311.268 171.508 311.268C172.793 310.934 174.017 310.438 175.159 309.805C177.923 308.286 180.183 305.984 181.62 303.22C182.492 301.559 183.07 299.715 183.282 297.779L183.283 297.777C183.341 297.227 183.377 296.663 183.377 296.085V266.797C183.377 265.725 183.444 264.664 183.577 263.627L183.577 263.625C183.723 262.466 183.946 261.341 184.248 260.238L184.249 260.234C185.512 255.479 188.14 251.256 191.699 247.994L191.704 247.989C192.664 247.083 193.692 246.263 194.786 245.532L194.79 245.53C199.065 242.617 204.247 240.91 209.847 240.91H231.641M186.207 314.877C183.094 317.888 179.227 320.163 174.917 321.401L186.207 314.877ZM194.634 263.583C194.895 262.367 195.306 261.208 195.854 260.126M194.634 263.583L194.145 263.477C194.145 263.477 194.145 263.477 194.145 263.476M194.634 263.583L194.145 263.475C194.145 263.476 194.145 263.476 194.145 263.476M195.854 260.126C197.564 256.679 200.575 253.957 204.259 252.575M195.854 260.126L195.406 259.903C195.406 259.903 195.406 259.902 195.407 259.902M195.854 260.126L195.407 259.9C195.407 259.9 195.407 259.901 195.407 259.902M204.259 252.575C205.993 251.916 207.873 251.559 209.847 251.559H231.641V251.059M204.259 252.575L204.081 252.107C204.081 252.107 204.082 252.107 204.082 252.107M204.259 252.575L204.083 252.107C204.083 252.107 204.082 252.107 204.082 252.107M231.641 251.059H232.141V240.91H231.641M231.641 251.059H209.847C207.813 251.059 205.872 251.427 204.082 252.107M231.641 251.059V240.91M231.641 240.91L125.047 311.819V321.972H167.3C168.666 321.972 169.998 321.873 171.308 321.676L171.309 321.676C172.495 321.501 173.647 321.249 174.777 320.921L174.779 320.92C179.009 319.706 182.804 317.473 185.859 314.517L185.863 314.513C186.789 313.64 187.638 312.69 188.421 311.672L188.422 311.671C190.962 308.388 192.717 304.505 193.433 300.284C193.657 298.915 193.78 297.514 193.78 296.083V266.795C193.78 265.653 193.91 264.546 194.145 263.476M194.145 263.476C194.416 262.22 194.84 261.021 195.407 259.902M195.407 259.902C197.174 256.342 200.282 253.533 204.082 252.107" stroke="#FA2609"/>
<path d="M160.023 321.971V311.818H162.558V321.971H160.023Z" stroke="#FA2609"/>
<path d="M171.883 311.164C172.76 310.913 173.607 310.586 174.418 310.191V321.023C173.587 321.251 172.743 321.438 171.883 321.585V311.164Z" stroke="#FA2609"/>
<path d="M188.241 311.902C187.659 312.642 187.04 313.345 186.381 314.008L181.727 303.008C182.284 301.907 182.712 300.728 182.992 299.497L188.241 311.902Z" stroke="#FA2609"/>
<path d="M183.375 285.832L193.779 296.026V296.084C193.779 297.181 193.707 298.261 193.572 299.321L183.375 289.338V285.832Z" stroke="#FA2609"/>
<path d="M183.375 278.133L193.779 282.367V285.046L183.375 280.813V278.133Z" stroke="#FA2609"/>
<path d="M183.375 273.639V271.182H193.778V273.639H183.375Z" stroke="#FA2609"/>
<path d="M184.147 260.604L195.062 260.624C194.717 261.411 194.439 262.232 194.232 263.082L183.651 263.062C183.775 262.228 183.94 261.41 184.147 260.604Z" stroke="#FA2609"/>
<path d="M204.264 252.041L192.299 247.448C193.021 246.81 193.78 246.219 194.575 245.675L208.702 251.1C207.151 251.206 205.663 251.529 204.264 252.041Z" stroke="#FA2609"/>
<path d="M215.469 240.906L226.702 251.06H222.97L211.747 240.906H215.469Z" stroke="#FA2609"/>
<path d="M223.222 239.583L223.222 239.583C222.907 241.373 222.738 243.229 222.738 245.107C222.738 246.995 222.907 248.84 223.222 250.642L223.222 250.642C225.905 266.013 239.595 277.72 256.096 277.72C258.552 277.72 260.941 277.443 263.248 276.947V262.576C261.037 263.446 258.625 263.933 256.096 263.933C247.533 263.933 240.271 258.462 237.786 250.885C237.188 249.063 236.861 247.125 236.861 245.108C236.861 243.102 237.189 241.153 237.786 239.342L223.222 239.583ZM223.222 239.583C225.905 224.211 239.595 212.505 256.096 212.505C258.552 212.505 260.941 212.781 263.248 213.277V227.651C261.037 226.78 258.626 226.294 256.096 226.294C247.534 226.294 240.271 231.764 237.786 239.342L223.222 239.583Z" stroke="#FA2609"/>
<path d="M235.576 245.113C235.576 248.141 233.063 250.614 229.94 250.614C226.817 250.614 224.305 248.141 224.305 245.113C224.305 242.086 226.817 239.612 229.94 239.612C233.063 239.612 235.576 242.086 235.576 245.113Z" stroke="#FA2609"/>
<path d="M174.712 317.226C174.712 329.158 164.475 338.877 151.788 338.877C139.1 338.877 128.863 329.158 128.863 317.226C128.863 305.295 139.1 295.575 151.788 295.575C164.475 295.575 174.712 305.295 174.712 317.226Z" stroke="#FA2609"/>
<path d="M70.0946 317.226C70.0946 329.158 59.8578 338.877 47.1704 338.877C34.4829 338.877 24.2461 329.158 24.2461 317.226C24.2461 305.295 34.4829 295.575 47.1704 295.575C59.8578 295.575 70.0946 305.295 70.0946 317.226Z" stroke="#FA2609"/>
<path d="M76.2109 288.932V252.08H122.737V288.932H76.2109Z" stroke="#FA2609"/>
<path d="M76.2109 288.931V278.498H122.737V288.931H76.2109Z" stroke="#FA2609"/>
<path d="M76.2109 268.294V252.08H122.737V268.294H76.2109Z" stroke="#FA2609"/>
<path d="M28.7344 205.14V167.087H30.775V205.14H28.7344Z" stroke="#FA2609"/>
<path d="M37.1527 169.071C37.1527 173.051 33.8507 176.296 29.7541 176.296C25.6574 176.296 22.3555 173.051 22.3555 169.071C22.3555 165.091 25.6574 161.846 29.7541 161.846C33.8507 161.846 37.1527 165.091 37.1527 169.071Z" stroke="#FA2609"/>
<path d="M168.18 205.14V167.087H170.22V205.14H168.18Z" stroke="#FA2609"/>
<path d="M169.199 176.296C173.296 176.296 176.598 173.05 176.598 169.071C176.598 165.092 173.296 161.847 169.199 161.846V176.296ZM169.199 176.296C165.103 176.296 161.801 173.051 161.801 169.071M169.199 176.296L161.801 169.071M161.801 169.071C161.801 165.092 165.102 161.846 169.199 161.846L161.801 169.071Z" stroke="#FA2609"/>
<path d="M180.009 207.547V237.52C180.009 242.093 176.216 245.813 171.518 245.813H154.25V199.253H171.518C171.518 199.253 171.518 199.253 171.518 199.253C176.214 199.255 180.009 202.98 180.009 207.547Z" stroke="#FA2609"/>
<path d="M27.4357 199.255H27.4358L44.7106 199.254V245.814H27.4357C22.7384 245.814 18.9453 242.094 18.9453 237.521V207.548C18.9453 202.981 22.7387 199.255 27.4357 199.255Z" stroke="#FA2609"/>
<path d="M28.1953 220.346V220.345C28.1942 212.95 29.6063 205.857 32.2029 199.254H44.7031V245.814H28.6328C28.3461 244.525 28.1953 243.185 28.1953 241.819V220.346Z" stroke="#FA2609"/>
<path d="M170.758 220.346V241.819C170.758 243.185 170.607 244.525 170.32 245.814H154.25V199.254H166.75C169.347 205.857 170.758 212.95 170.758 220.346Z" stroke="#FA2609"/>
<path d="M126.18 470.073V412.551C126.18 398.145 114.237 386.449 99.4806 386.447L126.18 470.073ZM126.18 470.073C126.18 477.274 123.193 483.798 118.362 488.523M126.18 470.073L118.362 488.523M118.362 488.523C113.53 493.249 106.854 496.174 99.4806 496.174M118.362 488.523L99.4806 496.174M99.4806 496.174C84.7237 496.174 72.7812 484.479 72.7812 470.072M99.4806 496.174L72.7812 470.072M72.7812 470.072V412.549M72.7812 470.072V412.549M72.7812 412.549C72.7812 398.144 84.7236 386.447 99.4806 386.447L72.7812 412.549Z" stroke="#FA2609"/>
<path d="M72.7812 447.348V413.488H126.181V447.348H72.7812Z" stroke="#FA2609"/>
<path d="M80.9955 459.402H121.288C122.124 459.402 122.792 460.07 122.792 460.862C122.792 461.654 122.124 462.322 121.288 462.322H80.9955C80.1595 462.322 79.4922 461.654 79.4922 460.862C79.4922 460.07 80.1595 459.402 80.9955 459.402Z" stroke="#FA2609"/>
<path d="M82.9676 468.331H119.308C119.989 468.331 120.615 468.949 120.615 469.791C120.615 470.632 119.988 471.251 119.308 471.251H82.9676C82.2874 471.251 81.6602 470.631 81.6602 469.791C81.6602 468.949 82.2872 468.331 82.9676 468.331Z" stroke="#FA2609"/>
<path d="M86.247 477.258H116.03C116.245 477.258 116.479 477.374 116.677 477.635C116.874 477.897 117.011 478.279 117.011 478.719C117.011 479.158 116.874 479.541 116.677 479.802C116.479 480.063 116.245 480.179 116.03 480.179H86.247C86.0318 480.179 85.7974 480.063 85.5997 479.802C85.4022 479.541 85.2656 479.158 85.2656 478.719C85.2656 478.279 85.4022 477.897 85.5997 477.635C85.7974 477.374 86.0318 477.258 86.247 477.258Z" stroke="#FA2609"/>
<path d="M145.932 422.732L145.932 422.733L143.113 434.06L143.598 434.181L143.113 434.061C142.128 438.018 138.5 440.815 134.32 440.815H64.6311C60.4453 440.815 56.8166 438.018 55.8309 434.06C55.8309 434.06 55.8309 434.06 55.8309 434.06L53.0118 422.733L53.0117 422.732L51.8032 417.892C51.8032 417.892 51.8031 417.892 51.8031 417.892C50.4228 412.335 54.7216 406.956 60.6033 406.956H138.348C144.23 406.956 148.529 412.335 147.141 417.892L147.626 418.013L147.141 417.892L145.932 422.732Z" stroke="#FA2609"/>
<path d="M147.141 417.892L147.626 418.013L147.141 417.892L146.014 422.405C145.424 422.481 144.823 422.517 144.206 422.517H54.7447C54.1275 422.517 53.5217 422.481 52.93 422.405L51.8032 417.892C51.8032 417.892 51.8031 417.892 51.8031 417.892C50.4228 412.335 54.7216 406.956 60.6033 406.956H138.348C144.23 406.956 148.529 412.335 147.141 417.892Z" stroke="#FA2609"/>
<path d="M134.197 418.597H64.759C51.1951 418.597 40.2188 407.846 40.2188 394.607V307.061C40.2188 293.822 51.1951 283.071 64.759 283.071H134.197C147.761 283.071 158.737 293.822 158.737 307.061V394.608C158.737 407.846 147.761 418.597 134.197 418.597Z" stroke="#FA2609"/>
<path d="M34.3516 220.347C34.3516 185.186 63.4979 156.665 99.4767 156.665C135.455 156.665 164.602 185.187 164.601 220.347V241.819C164.601 253.119 155.231 262.3 143.649 262.3H55.3037C43.7219 262.3 34.3516 253.12 34.3516 241.819V220.347Z" stroke="#FA2609"/>
<path d="M72.8295 186.363H126.116C138.383 186.363 148.403 196.179 148.403 208.149C148.403 220.12 138.384 229.935 126.116 229.935H72.8295C60.5622 229.935 50.543 220.12 50.543 208.149C50.543 196.178 60.5622 186.363 72.8295 186.363Z" stroke="#FA2609"/>
<path d="M84.6572 204.671L84.657 204.671C82.7398 203.292 80.1909 202.521 77.4766 202.521C76.3855 202.521 75.2987 202.647 74.2444 202.894L84.6572 204.671ZM84.6572 204.671C85.9308 205.586 86.9361 206.823 87.5631 208.246L87.5633 208.246C88.2845 209.879 87.5177 211.791 85.8316 212.504L85.8312 212.504C85.41 212.682 84.9666 212.772 84.5093 212.772C83.1743 212.772 81.9766 211.997 81.4532 210.812L81.4531 210.811M84.6572 204.671L81.4531 210.811M68.6406 212.402L68.6409 212.402C69.1018 212.628 69.6196 212.748 70.1334 212.748C71.407 212.748 72.5439 212.059 73.1108 210.955C73.4267 210.339 73.9854 209.934 74.4897 209.674C75.0004 209.41 75.5104 209.266 75.8036 209.197L75.8043 209.197C76.3306 209.073 76.8831 209.01 77.4465 209.01C78.6868 209.01 79.9112 209.316 80.7076 209.889L68.6406 212.402ZM68.6406 212.402C66.9984 211.597 66.3438 209.646 67.1592 208.056L68.6406 212.402ZM81.4531 210.811C81.2899 210.442 81.0332 210.123 80.7077 209.889L81.4531 210.811ZM67.1593 208.056C68.4652 205.511 70.9651 203.665 74.2443 202.894L67.1593 208.056Z" stroke="#FA2609"/>
<path d="M128.965 204.671L128.965 204.671C127.048 203.292 124.499 202.521 121.786 202.521C120.695 202.521 119.607 202.647 118.554 202.894L128.965 204.671ZM128.965 204.671C130.238 205.586 131.244 206.823 131.873 208.247C132.594 209.881 131.827 211.793 130.143 212.505L130.143 212.505C129.722 212.683 129.278 212.773 128.821 212.773C127.486 212.773 126.288 211.999 125.765 210.813L125.765 210.813M128.965 204.671L125.765 210.813M112.951 212.403L112.952 212.403C113.412 212.63 113.93 212.749 114.445 212.749C115.719 212.749 116.856 212.059 117.421 210.956C117.737 210.34 118.296 209.936 118.8 209.675C119.311 209.411 119.821 209.267 120.114 209.198L120.115 209.198C120.642 209.074 121.194 209.011 121.757 209.011C122.998 209.011 124.222 209.317 125.019 209.89L112.951 212.403ZM112.951 212.403C112.154 212.012 111.565 211.345 111.287 210.524C111.009 209.704 111.074 208.829 111.47 208.056M112.951 212.403L111.47 208.056M125.765 210.813C125.602 210.443 125.345 210.124 125.019 209.89L125.765 210.813ZM111.47 208.056C112.776 205.511 115.275 203.665 118.554 202.894L111.47 208.056Z" stroke="#FA2609"/>
<path d="M76.8688 300.927H122.087C134.96 300.927 145.474 311.227 145.475 323.79V354.965C145.475 367.528 134.96 377.829 122.087 377.829H76.8688C63.9961 377.829 53.4805 367.528 53.4805 354.965V323.79C53.4805 311.227 63.9961 300.927 76.8688 300.927Z" stroke="#FA2609"/>
<path d="M81.4512 347.895C80.7332 347.895 80.2005 347.825 79.8531 347.686C79.5057 347.547 79.332 347.362 79.332 347.13C79.332 347.038 79.3436 346.945 79.3668 346.852C79.4131 346.737 79.4478 346.621 79.471 346.505L87.1138 324.167C87.2064 323.912 87.4149 323.727 87.7391 323.611C88.0634 323.496 88.515 323.438 89.094 323.438H90.9005C91.5026 323.438 91.9542 323.496 92.2553 323.611C92.5796 323.727 92.788 323.912 92.8806 324.167L100.523 346.505C100.57 346.621 100.593 346.737 100.593 346.852C100.616 346.945 100.628 347.038 100.628 347.13C100.628 347.362 100.489 347.547 100.211 347.686C99.9329 347.825 99.4928 347.895 98.8907 347.895H97.3621C96.8526 347.895 96.4241 347.848 96.0767 347.756C95.7293 347.64 95.5093 347.443 95.4167 347.165L90.5531 332.157C90.4373 331.787 90.333 331.416 90.2404 331.046C90.1709 330.675 90.1014 330.305 90.032 329.934H89.893C89.8235 330.305 89.7425 330.675 89.6498 331.046C89.5803 331.416 89.4877 331.787 89.3719 332.157L84.4388 347.165C84.3462 347.42 84.1609 347.605 83.883 347.721C83.6051 347.837 83.2577 347.895 82.8408 347.895H81.4512ZM84.0567 342.718V338.515H95.9378V342.718H84.0567ZM104.98 347.895C104.262 347.895 103.729 347.802 103.382 347.617C103.058 347.408 102.896 347.119 102.896 346.748V324.584C102.896 324.214 103.058 323.936 103.382 323.75C103.729 323.542 104.262 323.438 104.98 323.438H106.196C106.937 323.438 107.47 323.542 107.794 323.75C108.118 323.936 108.28 324.214 108.28 324.584V346.748C108.28 347.119 108.118 347.408 107.794 347.617C107.47 347.802 106.937 347.895 106.196 347.895H104.98Z" fill="#FA2609"/>
<path d="M288.021 102.469C288.021 102.469 283.5 100.865 282.48 104.948C281.46 109.03 287.438 110.489 288.166 110.489C288.895 110.489 290.062 109.468 289.333 107.135C288.603 104.802 288.021 102.469 288.021 102.469Z" stroke="#FA2609" stroke-miterlimit="10" stroke-linecap="round" stroke-linejoin="round"/>
<path d="M313.685 92.5538C313.685 92.5538 313.248 98.3864 313.248 100.719C313.248 103.052 315.727 103.926 316.894 103.926C318.061 103.926 318.644 106.697 317.914 109.612C317.186 112.528 314.707 114.278 308.728 114.278C302.75 114.278 299.104 111.654 298.959 109.759C298.814 107.863 300.271 99.6984 302.75 97.5114C305.229 95.3243 313.685 92.5538 313.685 92.5538Z" stroke="#FA2609" stroke-miterlimit="10" stroke-linecap="round" stroke-linejoin="round"/>
<path d="M291.812 110.488V112.683C291.812 113.408 292.235 114.062 292.895 114.362C293.591 114.678 294.656 115.015 296.187 115.154C298.465 115.362 301.332 114.318 302.802 113.696C303.39 113.447 303.768 112.867 303.768 112.228V109.867C303.768 109.214 303.081 108.79 302.496 109.081L302.018 109.321C302.018 109.321 294.875 110.343 291.812 110.488Z" stroke="#FA2609" stroke-miterlimit="10" stroke-linecap="round" stroke-linejoin="round"/>
<path d="M288.6 91.3883C288.6 91.3883 287.433 95.7625 286.996 101.157C286.559 106.551 286.996 111.509 289.183 111.655C291.37 111.801 293.412 110.489 293.412 110.489C293.412 110.489 298.515 111.072 300.265 110.197C302.015 109.322 302.015 109.322 302.015 109.322L303.327 100.719C303.327 100.719 303.472 87.4499 300.995 86.576C298.515 85.701 288.6 91.3883 288.6 91.3883Z" stroke="#FA2609" stroke-miterlimit="10" stroke-linecap="round" stroke-linejoin="round"/>
<path d="M292.534 97.3662L291.368 100.428C291.368 100.428 289.035 101.012 289.326 102.179C289.618 103.345 291.163 103.16 291.163 103.16" stroke="#FA2609" stroke-miterlimit="10" stroke-linecap="round" stroke-linejoin="round"/>
<path d="M295.817 98.5143C295.72 98.7739 295.584 98.9647 295.467 99.0692C295.454 99.0805 295.443 99.0902 295.432 99.0984C295.429 99.0855 295.427 99.0708 295.425 99.0543C295.405 98.8986 295.427 98.6657 295.524 98.4063C295.621 98.1467 295.756 97.9559 295.874 97.8514C295.887 97.8398 295.898 97.8301 295.909 97.8218C295.912 97.8345 295.914 97.8488 295.916 97.8651C295.936 98.0206 295.914 98.2539 295.817 98.5143ZM295.458 99.1804C295.461 99.1832 295.462 99.185 295.462 99.1852C295.462 99.1853 295.46 99.184 295.458 99.1804ZM295.353 99.1442C295.353 99.144 295.355 99.1434 295.358 99.143C295.355 99.1443 295.353 99.1444 295.353 99.1442ZM295.988 97.7764C295.988 97.7766 295.986 97.7772 295.982 97.7776C295.986 97.7763 295.988 97.7762 295.988 97.7764ZM295.883 97.7405C295.881 97.7376 295.879 97.7357 295.88 97.7355C295.88 97.7352 295.881 97.7367 295.883 97.7405Z" stroke="#FA2609"/>
<path d="M290.323 97.0465C290.226 97.3059 290.091 97.4966 289.973 97.6011C289.961 97.612 289.95 97.6214 289.94 97.6294C289.937 97.6167 289.935 97.6023 289.933 97.586C289.912 97.4304 289.935 97.1974 290.031 96.9381C290.128 96.6784 290.264 96.4875 290.382 96.383C290.394 96.3721 290.405 96.3628 290.415 96.3548C290.417 96.3672 290.42 96.3811 290.422 96.3969C290.442 96.5527 290.42 96.7861 290.323 97.0465ZM289.86 97.676C289.86 97.6758 289.862 97.6751 289.866 97.6748C289.862 97.6761 289.86 97.6762 289.86 97.676ZM289.966 97.7121C289.969 97.7149 289.97 97.7167 289.97 97.7169C289.97 97.7171 289.968 97.7157 289.966 97.7121ZM290.495 96.3081C290.495 96.3083 290.493 96.3089 290.489 96.3093C290.493 96.308 290.495 96.3078 290.495 96.3081ZM290.389 96.2716C290.386 96.2687 290.385 96.2669 290.385 96.2666C290.385 96.2664 290.387 96.2679 290.389 96.2716Z" stroke="#FA2609"/>
<path d="M295.164 94.5958C295.164 94.5958 297.935 93.8672 298.226 96.4912" stroke="#FA2609" stroke-miterlimit="10" stroke-linecap="round" stroke-linejoin="round"/>
<path d="M291.516 93.8671C291.516 93.8671 289.037 92.992 288.309 95.0338" stroke="#FA2609" stroke-miterlimit="10" stroke-linecap="round" stroke-linejoin="round"/>
<path d="M293.414 110.489L297.351 108.885" stroke="#FA2609" stroke-miterlimit="10" stroke-linecap="round" stroke-linejoin="round"/>
<path d="M290.5 84.6806C290.5 84.6806 285.834 79.1397 282.335 83.2221C278.836 87.3046 279.856 93.4289 286.126 93.7206C292.395 94.0123 299.395 87.888 299.395 87.888C299.395 87.888 298.666 95.9076 300.415 98.6781C302.165 101.449 303.477 103.344 303.477 103.344C303.477 103.344 305.956 104.948 310.038 101.74C314.121 98.5329 315.141 90.8049 312.226 85.5556C309.31 80.3064 304.206 77.3907 298.083 79.4314C291.957 81.4732 290.5 84.6806 290.5 84.6806Z" stroke="#FA2609" stroke-miterlimit="10" stroke-linecap="round" stroke-linejoin="round"/>
<path d="M300.562 103.199C300.562 103.199 305.812 98.3876 305.812 101.157C305.812 103.927 303.333 106.406 301.438 105.823" stroke="#FA2609" stroke-miterlimit="10" stroke-linecap="round" stroke-linejoin="round"/>
<path d="M289.324 105.409C289.324 105.409 291.627 107.17 294.066 105.409" stroke="#FA2609" stroke-miterlimit="10" stroke-linecap="round" stroke-linejoin="round"/>
<path d="M316.417 114.657C325.737 104.739 325.253 89.1437 315.335 79.8234C305.417 70.503 289.821 70.9874 280.501 80.9052C271.181 90.8231 271.665 106.419 281.583 115.739C291.501 125.059 307.096 124.575 316.417 114.657Z" stroke="#FA2609" stroke-miterlimit="10" stroke-linecap="round" stroke-linejoin="round"/>
<path d="M466.136 298.187C480.143 294.912 488.842 280.902 485.567 266.896C482.291 252.889 468.281 244.19 454.275 247.465C440.269 250.741 431.569 264.75 434.845 278.757C438.12 292.763 452.13 301.463 466.136 298.187Z" stroke="#FA2609" stroke-miterlimit="10" stroke-linecap="round" stroke-linejoin="round"/>
<path d="M469.111 280.534C469.111 285.318 465.232 289.197 460.448 289.197C455.664 289.197 451.785 285.318 451.785 280.534C451.785 275.75 455.664 271.871 460.448 271.871C465.232 271.871 469.111 275.75 469.111 280.534Z" stroke="#FA2609" stroke-miterlimit="10" stroke-linecap="round" stroke-linejoin="round"/>
<path d="M472.832 286.303C474.998 283.592 476.296 280.158 476.296 276.419C476.296 267.665 469.2 260.57 460.447 260.57C451.693 260.57 444.598 267.665 444.598 276.419C444.598 280.158 445.896 283.592 448.061 286.303H472.832Z" stroke="#FA2609" stroke-miterlimit="10" stroke-linecap="round" stroke-linejoin="round"/>
<path d="M466.635 281.809H453.858C450.718 281.809 448.172 279.263 448.172 276.123C448.172 272.983 450.718 270.437 453.858 270.437H466.635C469.775 270.437 472.321 272.983 472.321 276.123C472.321 279.263 469.775 281.809 466.635 281.809Z" stroke="#FA2609" stroke-miterlimit="10" stroke-linecap="round" stroke-linejoin="round"/>
<path d="M450.781 275.662C451.316 274.17 452.741 273.104 454.417 273.104C456.017 273.104 457.389 274.076 457.975 275.462" stroke="#FA2609" stroke-width="2" stroke-miterlimit="10" stroke-linecap="round" stroke-linejoin="round"/>
<path d="M462.723 275.662C463.257 274.17 464.683 273.104 466.358 273.104C467.957 273.104 469.33 274.076 469.916 275.462" stroke="#FA2609" stroke-width="2" stroke-miterlimit="10" stroke-linecap="round" stroke-linejoin="round"/>
<path d="M458.355 278.299C458.493 279.377 459.412 280.209 460.527 280.209C461.642 280.209 462.56 279.376 462.698 278.299H458.355Z" stroke="#FA2609" stroke-miterlimit="10" stroke-linecap="round" stroke-linejoin="round"/>
<path d="M480.955 279.2C480.039 279.2 479.297 278.457 479.297 277.541V273.771C479.297 272.855 480.04 272.113 480.955 272.113C481.872 272.113 482.614 272.856 482.614 273.771V277.541C482.614 278.457 481.872 279.2 480.955 279.2Z" stroke="#FA2609" stroke-miterlimit="10" stroke-linecap="round" stroke-linejoin="round"/>
<path d="M439.483 279.2C438.566 279.2 437.824 278.457 437.824 277.541V273.771C437.824 272.855 438.566 272.113 439.483 272.113C440.399 272.113 441.141 272.856 441.141 273.771V277.541C441.141 278.457 440.399 279.2 439.483 279.2Z" stroke="#FA2609" stroke-miterlimit="10" stroke-linecap="round" stroke-linejoin="round"/>
<path d="M443.76 261.488L443.76 261.488C444.143 260.92 444.916 260.77 445.486 261.154C446.054 261.539 446.204 262.311 445.82 262.88C444.492 264.845 443.792 267.143 443.792 269.524V272.261C443.79 272.949 443.234 273.505 442.547 273.505C441.861 273.505 441.305 272.949 441.305 272.262V269.524C441.305 266.643 442.154 263.865 443.76 261.488Z" stroke="#FA2609"/>
<path d="M475.952 262.402L475.952 262.401C473.573 258.873 469.616 256.767 465.367 256.767H455.679C451.435 256.767 447.481 258.87 445.101 262.391C444.986 262.562 444.755 262.606 444.586 262.492L444.586 262.491C444.415 262.376 444.371 262.145 444.485 261.977L444.486 261.976C447.004 258.249 451.188 256.024 455.679 256.024H465.367C469.864 256.024 474.05 258.253 476.568 261.986C476.683 262.157 476.637 262.388 476.468 262.502L476.466 262.503C476.404 262.545 476.334 262.565 476.261 262.565C476.14 262.565 476.023 262.507 475.952 262.402Z" stroke="#FA2609"/>
<path d="M475.232 262.889L475.232 262.888C474.848 262.319 474.999 261.548 475.568 261.164C476.139 260.779 476.91 260.931 477.293 261.499L477.293 261.5C478.894 263.875 479.741 266.649 479.741 269.524L479.741 272.261C479.741 272.261 479.741 272.261 479.741 272.261C479.74 272.949 479.184 273.504 478.497 273.504C477.81 273.504 477.254 272.948 477.254 272.262V269.524C477.254 267.146 476.555 264.852 475.232 262.889Z" stroke="#FA2609"/>
<path d="M442.773 281.669C440.872 281.669 439.332 280.129 439.332 278.23V272.753C439.332 270.853 440.872 269.313 442.773 269.313C444.673 269.313 446.213 270.853 446.213 272.753V278.23C446.212 280.129 444.672 281.669 442.773 281.669Z" stroke="#FA2609" stroke-miterlimit="10" stroke-linecap="round" stroke-linejoin="round"/>
<path d="M443.124 269.313H442.422V281.669H443.124V269.313Z" stroke="#FA2609" stroke-miterlimit="10" stroke-linecap="round" stroke-linejoin="round"/>
<path d="M477.87 281.669C475.97 281.669 474.43 280.129 474.43 278.23V272.753C474.43 270.853 475.97 269.313 477.869 269.313C479.769 269.313 481.309 270.853 481.309 272.753V278.23C481.309 280.129 479.769 281.669 477.87 281.669Z" stroke="#FA2609" stroke-miterlimit="10" stroke-linecap="round" stroke-linejoin="round"/>
<path d="M478.221 269.313H477.52V281.669H478.221V269.313Z" stroke="#FA2609" stroke-miterlimit="10" stroke-linecap="round" stroke-linejoin="round"/>
<path d="M460.501 268.19C462.968 268.19 465.266 266.94 466.606 264.869L468.11 262.546C465.838 261.288 463.226 260.57 460.445 260.57C457.579 260.57 454.894 261.334 452.574 262.664L454.831 265.473C456.212 267.191 458.297 268.19 460.501 268.19Z" stroke="#FA2609" stroke-miterlimit="10" stroke-linecap="round" stroke-linejoin="round"/>
<path d="M460.38 282.962C460.38 282.827 460.489 282.718 460.623 282.718C460.758 282.718 460.867 282.827 460.867 282.962C460.867 283.096 460.758 283.205 460.623 283.205C460.489 283.205 460.38 283.096 460.38 282.962Z" stroke="#FA2609"/>
<path d="M460.62 284.101C460.485 284.101 460.376 283.992 460.376 283.857C460.376 283.723 460.485 283.614 460.62 283.614C460.754 283.614 460.863 283.723 460.863 283.857C460.863 283.992 460.754 284.101 460.62 284.101Z" stroke="#FA2609"/>
<path d="M459.787 283.473L459.787 283.473L459.618 283.525L459.618 283.525L459.618 283.525L459.554 283.545C459.554 283.545 459.554 283.545 459.554 283.545C459.515 283.417 459.587 283.28 459.716 283.24C459.716 283.24 459.716 283.24 459.716 283.24L459.787 283.473ZM459.787 283.473L460.02 283.401C459.981 283.274 459.847 283.2 459.716 283.24L459.787 283.473ZM459.787 283.474L459.787 283.474L459.554 283.545C459.594 283.674 459.731 283.746 459.859 283.707C459.859 283.707 459.859 283.707 459.859 283.707M459.787 283.474L459.859 283.707M459.787 283.474L460.021 283.402C460.06 283.53 459.988 283.667 459.859 283.707M459.787 283.474L459.859 283.707" stroke="#FA2609"/>
<path d="M461.152 283.545L461.384 283.471L461.385 283.471L461.385 283.471L461.616 283.397C461.578 283.275 461.447 283.2 461.314 283.24C461.314 283.24 461.314 283.24 461.314 283.24C461.314 283.24 461.313 283.24 461.313 283.241M461.152 283.545L461.313 283.241M461.152 283.545C461.113 283.417 461.185 283.281 461.313 283.241M461.152 283.545L461.313 283.241M461.313 283.241C461.313 283.241 461.313 283.241 461.313 283.241M461.313 283.241C461.313 283.24 461.314 283.24 461.314 283.24L461.313 283.241ZM461.152 283.545C461.152 283.545 461.152 283.545 461.152 283.545L461.158 283.543L461.158 283.543L461.386 283.476L461.386 283.475L461.386 283.475L461.619 283.406C461.656 283.531 461.586 283.667 461.457 283.707C461.457 283.707 461.457 283.707 461.457 283.707C461.457 283.707 461.457 283.707 461.457 283.707C461.329 283.746 461.192 283.674 461.152 283.545Z" stroke="#FA2609"/>
<path d="M428.215 139.77H331.113V96.5157V85.0396L342.589 96.5157H428.215V139.77Z" stroke="#FA2609" stroke-miterlimit="10" stroke-linecap="round" stroke-linejoin="round"/>
<path d="M428.215 202.45H331.113V159.195V147.719L342.589 159.195H428.215V202.45Z" stroke="#FA2609" stroke-miterlimit="10" stroke-linecap="round" stroke-linejoin="round"/>
<path d="M395.949 111.402H418.801" stroke="#FA2609" stroke-miterlimit="10" stroke-linecap="round" stroke-linejoin="round"/>
<path d="M363.965 111.402H390.082" stroke="#FA2609" stroke-miterlimit="10" stroke-linecap="round" stroke-linejoin="round"/>
<path d="M344.371 111.402H359.388" stroke="#FA2609" stroke-miterlimit="10" stroke-linecap="round" stroke-linejoin="round"/>
<path d="M385.504 118.584H418.803" stroke="#FA2609" stroke-miterlimit="10" stroke-linecap="round" stroke-linejoin="round"/>
<path d="M344.371 118.584H379.628" stroke="#FA2609" stroke-miterlimit="10" stroke-linecap="round" stroke-linejoin="round"/>
<path d="M412.273 125.765H418.803" stroke="#FA2609" stroke-miterlimit="10" stroke-linecap="round" stroke-linejoin="round"/>
<path d="M375.711 125.765H407.05" stroke="#FA2609" stroke-miterlimit="10" stroke-linecap="round" stroke-linejoin="round"/>
<path d="M344.371 125.765H370.488" stroke="#FA2609" stroke-miterlimit="10" stroke-linecap="round" stroke-linejoin="round"/>
<path d="M395.949 172.122H418.801" stroke="#FA2609" stroke-miterlimit="10" stroke-linecap="round" stroke-linejoin="round"/>
<path d="M363.965 172.122H390.082" stroke="#FA2609" stroke-miterlimit="10" stroke-linecap="round" stroke-linejoin="round"/>
<path d="M344.371 172.122H359.388" stroke="#FA2609" stroke-miterlimit="10" stroke-linecap="round" stroke-linejoin="round"/>
<path d="M385.504 179.305H418.803" stroke="#FA2609" stroke-miterlimit="10" stroke-linecap="round" stroke-linejoin="round"/>
<path d="M344.371 179.305H379.628" stroke="#FA2609" stroke-miterlimit="10" stroke-linecap="round" stroke-linejoin="round"/>
<path d="M412.273 186.486H418.803" stroke="#FA2609" stroke-miterlimit="10" stroke-linecap="round" stroke-linejoin="round"/>
<path d="M375.711 186.486H407.05" stroke="#FA2609" stroke-miterlimit="10" stroke-linecap="round" stroke-linejoin="round"/>
<path d="M344.371 186.486H370.488" stroke="#FA2609" stroke-miterlimit="10" stroke-linecap="round" stroke-linejoin="round"/>
<path d="M331.113 378.689H428.215V274.061V262.586L416.74 274.061H331.113V378.689Z" stroke="#FA2609" stroke-miterlimit="10" stroke-linecap="round" stroke-linejoin="round"/>
<path d="M395.949 288.34H418.801" stroke="#FA2609" stroke-miterlimit="10" stroke-linecap="round" stroke-linejoin="round"/>
<path d="M363.965 288.34H390.082" stroke="#FA2609" stroke-miterlimit="10" stroke-linecap="round" stroke-linejoin="round"/>
<path d="M344.371 288.34H359.388" stroke="#FA2609" stroke-miterlimit="10" stroke-linecap="round" stroke-linejoin="round"/>
<path d="M385.504 295.522H418.803" stroke="#FA2609" stroke-miterlimit="10" stroke-linecap="round" stroke-linejoin="round"/>
<path d="M344.371 295.522H379.628" stroke="#FA2609" stroke-miterlimit="10" stroke-linecap="round" stroke-linejoin="round"/>
<path d="M412.273 302.705H418.803" stroke="#FA2609" stroke-miterlimit="10" stroke-linecap="round" stroke-linejoin="round"/>
<path d="M375.711 302.705H407.05" stroke="#FA2609" stroke-miterlimit="10" stroke-linecap="round" stroke-linejoin="round"/>
<path d="M344.371 302.705H370.488" stroke="#FA2609" stroke-miterlimit="10" stroke-linecap="round" stroke-linejoin="round"/>
<path d="M395.949 308.58H418.801" stroke="#FA2609" stroke-miterlimit="10" stroke-linecap="round" stroke-linejoin="round"/>
<path d="M363.965 308.58H390.082" stroke="#FA2609" stroke-miterlimit="10" stroke-linecap="round" stroke-linejoin="round"/>
<path d="M344.371 308.58H359.388" stroke="#FA2609" stroke-miterlimit="10" stroke-linecap="round" stroke-linejoin="round"/>
<path d="M385.504 315.763H418.803" stroke="#FA2609" stroke-miterlimit="10" stroke-linecap="round" stroke-linejoin="round"/>
<path d="M344.371 315.763H379.628" stroke="#FA2609" stroke-miterlimit="10" stroke-linecap="round" stroke-linejoin="round"/>
<path d="M412.273 322.945H418.803" stroke="#FA2609" stroke-miterlimit="10" stroke-linecap="round" stroke-linejoin="round"/>
<path d="M375.711 322.945H407.05" stroke="#FA2609" stroke-miterlimit="10" stroke-linecap="round" stroke-linejoin="round"/>
<path d="M344.371 322.945H370.488" stroke="#FA2609" stroke-miterlimit="10" stroke-linecap="round" stroke-linejoin="round"/>
<path d="M395.949 328.82H418.801" stroke="#FA2609" stroke-miterlimit="10" stroke-linecap="round" stroke-linejoin="round"/>
<path d="M363.965 328.82H390.082" stroke="#FA2609" stroke-miterlimit="10" stroke-linecap="round" stroke-linejoin="round"/>
<path d="M344.371 328.82H359.388" stroke="#FA2609" stroke-miterlimit="10" stroke-linecap="round" stroke-linejoin="round"/>
<path d="M385.504 336.003H418.803" stroke="#FA2609" stroke-miterlimit="10" stroke-linecap="round" stroke-linejoin="round"/>
<path d="M344.371 336.003H379.628" stroke="#FA2609" stroke-miterlimit="10" stroke-linecap="round" stroke-linejoin="round"/>
<path d="M412.273 343.185H418.803" stroke="#FA2609" stroke-miterlimit="10" stroke-linecap="round" stroke-linejoin="round"/>
<path d="M375.711 343.185H407.05" stroke="#FA2609" stroke-miterlimit="10" stroke-linecap="round" stroke-linejoin="round"/>
<path d="M344.371 343.185H370.488" stroke="#FA2609" stroke-miterlimit="10" stroke-linecap="round" stroke-linejoin="round"/>
<path d="M395.949 349.061H418.801" stroke="#FA2609" stroke-miterlimit="10" stroke-linecap="round" stroke-linejoin="round"/>
<path d="M363.965 349.061H390.082" stroke="#FA2609" stroke-miterlimit="10" stroke-linecap="round" stroke-linejoin="round"/>
<path d="M344.371 349.061H359.388" stroke="#FA2609" stroke-miterlimit="10" stroke-linecap="round" stroke-linejoin="round"/>
<path d="M385.504 356.243H418.803" stroke="#FA2609" stroke-miterlimit="10" stroke-linecap="round" stroke-linejoin="round"/>
<path d="M344.371 356.243H379.628" stroke="#FA2609" stroke-miterlimit="10" stroke-linecap="round" stroke-linejoin="round"/>
<path d="M412.273 363.426H418.803" stroke="#FA2609" stroke-miterlimit="10" stroke-linecap="round" stroke-linejoin="round"/>
<path d="M375.711 363.426H407.05" stroke="#FA2609" stroke-miterlimit="10" stroke-linecap="round" stroke-linejoin="round"/>
<path d="M344.371 363.426H370.488" stroke="#FA2609" stroke-miterlimit="10" stroke-linecap="round" stroke-linejoin="round"/>
<path d="M460.222 436.877C474.606 436.877 486.268 425.216 486.268 410.831C486.268 396.446 474.606 384.785 460.222 384.785C445.837 384.785 434.176 396.446 434.176 410.831C434.176 425.216 445.837 436.877 460.222 436.877Z" stroke="#FA2609" stroke-miterlimit="10" stroke-linecap="round" stroke-linejoin="round"/>
<path d="M469.115 418.511C469.115 423.295 465.236 427.174 460.452 427.174C455.668 427.174 451.789 423.295 451.789 418.511C451.789 413.727 455.668 409.848 460.452 409.848C465.236 409.848 469.115 413.727 469.115 418.511Z" stroke="#FA2609" stroke-miterlimit="10" stroke-linecap="round" stroke-linejoin="round"/>
<path d="M472.836 424.281C475.002 421.57 476.299 418.135 476.299 414.396C476.299 405.643 469.204 398.547 460.451 398.547C451.697 398.547 444.602 405.643 444.602 414.396C444.602 418.135 445.9 421.57 448.065 424.281H472.836Z" stroke="#FA2609" stroke-miterlimit="10" stroke-linecap="round" stroke-linejoin="round"/>
<path d="M466.639 419.787H453.862C450.722 419.787 448.176 417.241 448.176 414.1C448.176 410.96 450.722 408.414 453.862 408.414H466.639C469.779 408.414 472.325 410.96 472.325 414.1C472.325 417.241 469.779 419.787 466.639 419.787Z" stroke="#FA2609" stroke-miterlimit="10" stroke-linecap="round" stroke-linejoin="round"/>
<path d="M450.785 413.639C451.32 412.148 452.745 411.081 454.421 411.081C456.021 411.081 457.393 412.054 457.979 413.439" stroke="#FA2609" stroke-width="2" stroke-miterlimit="10" stroke-linecap="round" stroke-linejoin="round"/>
<path d="M462.727 413.639C463.261 412.148 464.687 411.081 466.362 411.081C467.961 411.081 469.334 412.054 469.92 413.439" stroke="#FA2609" stroke-width="2" stroke-miterlimit="10" stroke-linecap="round" stroke-linejoin="round"/>
<path d="M458.359 416.277C458.497 417.354 459.416 418.187 460.531 418.187C461.646 418.187 462.564 417.353 462.702 416.277H458.359Z" stroke="#FA2609" stroke-miterlimit="10" stroke-linecap="round" stroke-linejoin="round"/>
<path d="M480.959 417.177C480.043 417.177 479.301 416.435 479.301 415.519V411.749C479.301 410.832 480.044 410.09 480.959 410.09C481.876 410.09 482.618 410.833 482.618 411.749V415.519C482.618 416.434 481.876 417.177 480.959 417.177Z" stroke="#FA2609" stroke-miterlimit="10" stroke-linecap="round" stroke-linejoin="round"/>
<path d="M439.487 417.177C438.57 417.177 437.828 416.435 437.828 415.519V411.749C437.828 410.832 438.57 410.09 439.487 410.09C440.403 410.09 441.145 410.833 441.145 411.749V415.519C441.145 416.434 440.403 417.177 439.487 417.177Z" stroke="#FA2609" stroke-miterlimit="10" stroke-linecap="round" stroke-linejoin="round"/>
<path d="M445.824 400.857C444.496 402.822 443.795 405.12 443.795 407.501V410.239C443.794 410.926 443.238 411.482 442.551 411.482C441.865 411.482 441.309 410.926 441.309 410.239V407.501C441.309 404.62 442.158 401.843 443.764 399.465L443.764 399.465C444.148 398.897 444.921 398.746 445.49 399.131L445.49 399.131C446.058 399.514 446.208 400.287 445.824 400.857ZM445.824 400.857C445.824 400.857 445.824 400.857 445.824 400.857L446.238 401.137M445.824 400.857C445.824 400.857 445.824 400.857 445.824 400.857L446.238 401.137M446.238 401.137C446.777 400.339 446.567 399.255 445.77 398.717L443.35 399.185C441.687 401.646 440.809 404.521 440.809 407.501V410.239C440.809 411.202 441.588 411.982 442.551 411.982C443.514 411.982 444.294 411.202 444.295 410.239V407.501C444.295 405.219 444.967 403.019 446.238 401.137Z" stroke="#FA2609"/>
<path d="M475.956 400.379L475.956 400.379C473.577 396.852 469.62 394.744 465.371 394.744H455.683C451.439 394.744 447.485 396.847 445.105 400.369C444.989 400.54 444.759 400.583 444.59 400.469L444.59 400.469C444.419 400.353 444.375 400.122 444.489 399.954L444.49 399.953C447.007 396.227 451.192 394.002 455.683 394.002H465.371C469.868 394.002 474.054 396.23 476.572 399.963C476.687 400.134 476.641 400.364 476.472 400.478L476.47 400.479C476.406 400.523 476.336 400.543 476.265 400.543C476.144 400.543 476.027 400.485 475.956 400.379Z" stroke="#FA2609"/>
<path d="M475.236 400.866L475.236 400.866C474.852 400.297 475.003 399.525 475.572 399.141C476.143 398.757 476.914 398.908 477.297 399.476L477.297 399.477C478.898 401.852 479.745 404.626 479.745 407.501L479.745 410.238C479.745 410.238 479.745 410.239 479.745 410.239C479.744 410.926 479.188 411.482 478.501 411.482C477.814 411.482 477.258 410.926 477.258 410.239V407.501C477.258 405.124 476.559 402.829 475.236 400.866Z" stroke="#FA2609"/>
<path d="M442.776 419.646C440.876 419.646 439.336 418.106 439.336 416.206V410.73C439.336 408.829 440.876 407.289 442.776 407.289C444.677 407.289 446.217 408.829 446.217 410.73V416.206C446.216 418.106 444.675 419.646 442.776 419.646Z" stroke="#FA2609" stroke-miterlimit="10" stroke-linecap="round" stroke-linejoin="round"/>
<path d="M443.128 407.29H442.426V419.646H443.128V407.29Z" stroke="#FA2609" stroke-miterlimit="10" stroke-linecap="round" stroke-linejoin="round"/>
<path d="M477.874 419.646C475.974 419.646 474.434 418.106 474.434 416.206V410.73C474.434 408.829 475.974 407.289 477.873 407.289C479.773 407.289 481.313 408.829 481.313 410.73V416.206C481.313 418.106 479.773 419.646 477.874 419.646Z" stroke="#FA2609" stroke-miterlimit="10" stroke-linecap="round" stroke-linejoin="round"/>
<path d="M478.225 407.29H477.523V419.646H478.225V407.29Z" stroke="#FA2609" stroke-miterlimit="10" stroke-linecap="round" stroke-linejoin="round"/>
<path d="M460.505 406.168C462.972 406.168 465.27 404.918 466.61 402.847L468.113 400.523C465.842 399.265 463.23 398.547 460.449 398.547C457.583 398.547 454.898 399.311 452.578 400.641L454.835 403.451C456.216 405.168 458.301 406.168 460.505 406.168Z" stroke="#FA2609" stroke-miterlimit="10" stroke-linecap="round" stroke-linejoin="round"/>
<path d="M460.384 420.939C460.384 420.804 460.493 420.695 460.627 420.695C460.762 420.695 460.871 420.804 460.871 420.939C460.871 421.073 460.762 421.182 460.627 421.182C460.493 421.182 460.384 421.073 460.384 420.939Z" stroke="#FA2609"/>
<path d="M460.384 421.835C460.384 421.7 460.493 421.591 460.627 421.591C460.762 421.591 460.871 421.7 460.871 421.835C460.871 421.969 460.762 422.078 460.627 422.078C460.493 422.078 460.384 421.969 460.384 421.835Z" stroke="#FA2609"/>
<path d="M459.558 421.522C459.598 421.651 459.735 421.723 459.863 421.684C459.863 421.684 459.863 421.684 459.863 421.684C459.992 421.644 460.064 421.507 460.025 421.379L459.791 421.451M459.558 421.522L459.791 421.451L459.791 421.451M459.558 421.522L459.791 421.451L459.791 421.451M459.558 421.522L459.791 421.451M459.558 421.522C459.519 421.394 459.591 421.257 459.72 421.217C459.72 421.217 459.72 421.217 459.72 421.217C459.85 421.177 459.985 421.251 460.024 421.378L459.791 421.45L459.791 421.45L459.629 421.5L459.629 421.5L459.558 421.522C459.558 421.522 459.558 421.522 459.558 421.522Z" stroke="#FA2609"/>
<path d="M461.156 421.522L461.388 421.448L461.389 421.448L461.389 421.448L461.62 421.374C461.581 421.253 461.451 421.177 461.318 421.217L461.156 421.522ZM461.156 421.522C461.117 421.394 461.189 421.258 461.317 421.218L461.156 421.522ZM461.156 421.522C461.156 421.522 461.156 421.522 461.156 421.522L461.16 421.521L461.156 421.522ZM461.317 421.218C461.317 421.218 461.318 421.217 461.318 421.217L461.317 421.218ZM461.156 421.522L461.16 421.521L461.39 421.453L461.39 421.452L461.39 421.452L461.623 421.383C461.66 421.508 461.59 421.644 461.461 421.684C461.461 421.684 461.461 421.684 461.461 421.684C461.461 421.684 461.461 421.684 461.461 421.684C461.333 421.723 461.196 421.651 461.156 421.522Z" stroke="#FA2609"/>
<path d="M331.113 473.788H428.215V412.039V400.563L416.74 412.039H331.113V473.788Z" stroke="#FA2609" stroke-miterlimit="10" stroke-linecap="round" stroke-linejoin="round"/>
<path d="M395.949 426.317H418.801" stroke="#FA2609" stroke-miterlimit="10" stroke-linecap="round" stroke-linejoin="round"/>
<path d="M363.965 426.317H390.082" stroke="#FA2609" stroke-miterlimit="10" stroke-linecap="round" stroke-linejoin="round"/>
<path d="M344.371 426.317H359.388" stroke="#FA2609" stroke-miterlimit="10" stroke-linecap="round" stroke-linejoin="round"/>
<path d="M385.504 433.5H418.803" stroke="#FA2609" stroke-miterlimit="10" stroke-linecap="round" stroke-linejoin="round"/>
<path d="M344.371 433.5H379.628" stroke="#FA2609" stroke-miterlimit="10" stroke-linecap="round" stroke-linejoin="round"/>
<path d="M412.273 440.682H418.803" stroke="#FA2609" stroke-miterlimit="10" stroke-linecap="round" stroke-linejoin="round"/>
<path d="M375.711 440.682H407.05" stroke="#FA2609" stroke-miterlimit="10" stroke-linecap="round" stroke-linejoin="round"/>
<path d="M344.371 440.682H370.488" stroke="#FA2609" stroke-miterlimit="10" stroke-linecap="round" stroke-linejoin="round"/>
<path d="M395.949 446.557H418.801" stroke="#FA2609" stroke-miterlimit="10" stroke-linecap="round" stroke-linejoin="round"/>
<path d="M363.965 446.557H390.082" stroke="#FA2609" stroke-miterlimit="10" stroke-linecap="round" stroke-linejoin="round"/>
<path d="M344.371 446.557H359.388" stroke="#FA2609" stroke-miterlimit="10" stroke-linecap="round" stroke-linejoin="round"/>
<path d="M385.504 453.74H418.803" stroke="#FA2609" stroke-miterlimit="10" stroke-linecap="round" stroke-linejoin="round"/>
<path d="M344.371 453.74H379.628" stroke="#FA2609" stroke-miterlimit="10" stroke-linecap="round" stroke-linejoin="round"/>
<path d="M412.273 460.922H418.803" stroke="#FA2609" stroke-miterlimit="10" stroke-linecap="round" stroke-linejoin="round"/>
<path d="M375.711 460.922H407.05" stroke="#FA2609" stroke-miterlimit="10" stroke-linecap="round" stroke-linejoin="round"/>
<path d="M344.371 460.922H370.488" stroke="#FA2609" stroke-miterlimit="10" stroke-linecap="round" stroke-linejoin="round"/>
<path d="M477.119 39H426.797C425.741 44.6556 420.787 48.9395 414.825 48.9395H342.703C336.741 48.9395 331.787 44.6556 330.73 39H280.408C271.638 39 264.527 46.1092 264.527 54.8807V480.828C264.527 489.598 271.637 496.709 280.408 496.709H477.119C485.889 496.709 493 489.598 493 480.828V54.8807C492.999 46.1104 485.889 39 477.119 39Z" stroke="#FA2609" stroke-width="2" stroke-miterlimit="10" stroke-linecap="round" stroke-linejoin="round"/>
<path d="M493 67.7493V54.8807C493 46.1104 485.889 39 477.119 39H426.797C425.741 44.6556 420.787 48.9395 414.825 48.9395H342.703C336.741 48.9395 331.787 44.6556 330.73 39H280.408C271.638 39 264.527 46.1092 264.527 54.8807V67.7493H493Z" stroke="#FA2609" stroke-width="2" stroke-miterlimit="10" stroke-linecap="round" stroke-linejoin="round"/>
<path d="M281.451 57.1235H281.451V57.1263V57.2886V57.7886H281.951H284.855V57.8395H281.312V57.451C281.312 55.989 282.059 55.1172 282.933 54.1753C282.971 54.1336 283.01 54.0918 283.05 54.0496C283.875 53.1636 284.82 52.1495 284.82 50.5407C284.82 49.9698 284.728 49.4363 284.441 49.0363C284.13 48.6021 283.656 48.4138 283.107 48.4138C282.551 48.4138 282.088 48.6222 281.782 49.0331C281.495 49.4196 281.393 49.9231 281.393 50.4369V50.8547H281.312V50.5114C281.312 49.7871 281.479 49.2588 281.76 48.9196C282.027 48.5962 282.454 48.3776 283.135 48.3776C283.828 48.3776 284.257 48.5951 284.525 48.9147C284.805 49.2493 284.972 49.7723 284.972 50.4967C284.972 51.8497 284.225 52.7843 283.346 53.7535C283.288 53.8179 283.229 53.8829 283.169 53.9483C282.794 54.3589 282.4 54.7902 282.093 55.2445C281.729 55.7833 281.455 56.3961 281.451 57.1235Z" stroke="#FA2609"/>
<path d="M290.264 52.0282C290.418 51.7295 290.488 51.3789 290.488 51.0008V50.526C290.488 49.9523 290.392 49.4211 290.101 49.0246C289.787 48.5965 289.314 48.4138 288.774 48.4138C288.232 48.4138 287.77 48.6097 287.46 49.0142C287.167 49.3964 287.061 49.899 287.061 50.4223V50.4556H286.981C286.985 49.7472 287.153 49.2365 287.43 48.9089C287.698 48.5913 288.126 48.3776 288.803 48.3776C289.491 48.3776 289.922 48.5924 290.192 48.9099C290.473 49.2412 290.643 49.7599 290.643 50.4821V50.7482C290.643 51.322 290.506 51.7411 290.264 52.0282ZM288.565 52.9202H288.566L288.663 52.9564H288.565V52.9202ZM290.045 53.5289C290.041 53.5242 290.037 53.5196 290.033 53.5149C290.192 53.6262 290.313 53.7657 290.405 53.93C290.557 54.2006 290.643 54.5646 290.643 55.0247V55.8241C290.643 56.5463 290.473 57.0697 290.191 57.4052C289.92 57.7264 289.489 57.9432 288.804 57.9432C288.129 57.9432 287.702 57.7274 287.433 57.4062C287.151 57.0703 286.982 56.5463 286.982 55.8241V55.6138H287.062V55.8973C287.062 56.4205 287.168 56.9214 287.463 57.3011C287.774 57.7027 288.237 57.8924 288.775 57.8924C289.315 57.8924 289.787 57.7092 290.101 57.2843C290.392 56.8898 290.489 56.3622 290.489 55.7948V54.9954C290.489 54.4258 290.371 53.91 290.045 53.5289Z" stroke="#FA2609"/>
<path d="M292.88 51.7668V52.2021H292.77V51.7668H292.88ZM292.88 57.4042V57.8395H292.77V57.4042H292.88Z" stroke="#FA2609"/>
<path d="M295.219 52.1738L295.676 52.3092C295.421 52.5499 295.263 52.8705 295.184 53.2383H295.09L295.322 48.4813H298.429V48.5175H295.88H295.405L295.381 48.992L295.219 52.1738ZM298.126 52.4821C297.822 52.0897 297.373 51.8996 296.851 51.8912C296.973 51.858 297.108 51.8413 297.257 51.8413C297.785 51.8413 298.107 52.0258 298.315 52.31C298.541 52.6195 298.68 53.1124 298.68 53.7981V55.8253C298.68 56.5453 298.508 57.0691 298.224 57.4055C297.951 57.7284 297.519 57.9444 296.843 57.9444C296.167 57.9444 295.74 57.7285 295.471 57.4073C295.189 57.0714 295.02 56.5475 295.02 55.8253V55.6296H295.1V55.8985C295.1 56.422 295.206 56.9229 295.501 57.3026C295.813 57.704 296.276 57.8936 296.814 57.8936C297.352 57.8936 297.814 57.7039 298.126 57.3023C298.421 56.9226 298.527 56.4217 298.527 55.8985V53.8859C298.527 53.3628 298.421 52.8619 298.126 52.4821Z" stroke="#FA2609"/>
<path d="M303.985 48.9042C304.223 49.1828 304.382 49.5971 304.423 50.1604H304.347C304.318 49.7238 304.203 49.3145 303.948 48.9937C303.631 48.5954 303.164 48.4151 302.626 48.4151C302.072 48.4151 301.589 48.6011 301.267 49.0389C300.968 49.4451 300.868 49.9916 300.868 50.5871V52.9097L301.241 52.9807C300.967 53.3558 300.868 53.8406 300.868 54.3449V55.8986C300.868 56.4216 300.974 56.9237 301.272 57.3042C301.587 57.7061 302.054 57.8937 302.596 57.8937C303.133 57.8937 303.598 57.7046 303.913 57.3059C304.213 56.9268 304.324 56.4254 304.324 55.8986V54.3449C304.324 53.8181 304.213 53.3167 303.913 52.9376C303.603 52.5455 303.149 52.3562 302.623 52.35C302.744 52.3181 302.882 52.3003 303.04 52.3003C303.571 52.3003 303.892 52.4831 304.099 52.7645C304.325 53.0714 304.465 53.5633 304.465 54.2571V55.8254C304.465 56.5409 304.287 57.0643 303.996 57.4019C303.714 57.728 303.273 57.9445 302.597 57.9445C301.912 57.9445 301.467 57.7269 301.184 57.4012C300.892 57.064 300.715 56.5412 300.715 55.8254V50.542C300.715 49.786 300.886 49.2543 301.172 48.9178C301.445 48.5958 301.885 48.3789 302.597 48.3789L302.598 48.3789C303.286 48.3784 303.717 48.5906 303.985 48.9042Z" stroke="#FA2609"/>
<path d="M430.422 57.7346V51.4228H432.346V57.7346H430.422Z" stroke="#FA2609"/>
<path d="M434.32 57.7357V49.9581H436.245V57.7357H434.32Z" stroke="#FA2609"/>
<path d="M438.223 57.7358V48.9184H440.147V57.7358H438.223Z" stroke="#FA2609"/>
<path d="M442.117 57.7358V47.1096H444.041V57.7358H442.117Z" stroke="#FA2609"/>
<mask id="path-184-inside-1_220_37422" fill="white">
<path d="M480.748 58.0342H463.199V47.3099H480.748V58.0342ZM464.174 57.059H479.773V48.2851H464.174V57.059Z"/>
</mask>
<path d="M480.748 58.0342V59.0342H481.748V58.0342H480.748ZM463.199 58.0342H462.199V59.0342H463.199V58.0342ZM463.199 47.3099V46.3099H462.199V47.3099H463.199ZM480.748 47.3099H481.748V46.3099H480.748V47.3099ZM464.174 57.059H463.174V58.059H464.174V57.059ZM479.773 57.059V58.059H480.773V57.059H479.773ZM479.773 48.2851H480.773V47.2851H479.773V48.2851ZM464.174 48.2851V47.2851H463.174V48.2851H464.174ZM480.748 57.0342H463.199V59.0342H480.748V57.0342ZM464.199 58.0342V47.3099H462.199V58.0342H464.199ZM463.199 48.3099H480.748V46.3099H463.199V48.3099ZM479.748 47.3099V58.0342H481.748V47.3099H479.748ZM464.174 58.059H479.773V56.059H464.174V58.059ZM480.773 57.059V48.2851H478.773V57.059H480.773ZM479.773 47.2851H464.174V49.2851H479.773V47.2851ZM463.174 48.2851V57.059H465.174V48.2851H463.174Z" fill="#FA2609" mask="url(#path-184-inside-1_220_37422)"/>
<path d="M466.125 55.4983V49.8456H474.387V55.4983H466.125Z" stroke="#FA2609"/>
<path d="M480.637 53.4348V51.9084H481.843V53.4348H480.637Z" stroke="#FA2609"/>
<path d="M449.526 54.5523L449.856 54.9286C449.887 54.9013 450.604 54.2809 451.821 53.9752C453.021 53.6737 454.744 53.6679 456.835 54.9102L456.836 54.9106C456.909 54.9537 456.934 55.0487 456.889 55.1226L456.888 55.1243C456.859 55.1739 456.809 55.2008 456.755 55.2008C456.727 55.2008 456.7 55.1934 456.678 55.1802L456.678 55.1802L456.675 55.1782C454.778 54.0506 453.164 53.9932 451.992 54.2586C450.835 54.5206 450.149 55.0874 450.068 55.1555L450.068 55.1555L450.061 55.1613C449.999 55.2152 449.901 55.2101 449.844 55.1444C449.786 55.0778 449.794 54.9826 449.856 54.928L449.526 54.5523ZM449.526 54.5523C449.653 54.4413 452.671 51.8551 457.091 54.4803L450.389 55.5385C450.117 55.7753 449.703 55.7447 449.467 55.4726C449.23 55.2004 449.255 54.7903 449.526 54.5523Z" stroke="#FA2609"/>
<path d="M458.001 52.9771L458.001 52.9771L457.998 52.9753C455.3 51.371 453.007 51.3292 451.368 51.7206C450.555 51.9148 449.912 52.2129 449.468 52.4663C449.245 52.5931 449.072 52.7091 448.951 52.7961C448.83 52.8831 448.757 52.9449 448.761 52.9412L448.75 52.9498L448.74 52.959C448.679 53.0134 448.581 53.0098 448.523 52.9435C448.466 52.8791 448.473 52.7815 448.536 52.7269L448.536 52.727L448.544 52.7195C448.543 52.7204 448.544 52.7196 448.547 52.7173C448.61 52.6657 449.582 51.8654 451.207 51.4526C452.886 51.026 455.289 51.0048 458.157 52.7084L458.158 52.7087C458.231 52.752 458.255 52.848 458.211 52.92L458.21 52.9233C458.182 52.9707 458.133 52.9978 458.078 52.9978C458.049 52.9978 458.023 52.9904 458.001 52.9771Z" stroke="#FA2609"/>
<path d="M447.324 50.3934L447.323 50.3925C447.268 50.3292 447.274 50.2325 447.337 50.1766L447.337 50.1767L447.343 50.1718C447.342 50.1722 447.343 50.1717 447.345 50.1702C447.401 50.123 448.624 49.105 450.681 48.5852C452.783 48.0542 455.784 48.0346 459.357 50.1588L459.358 50.1592C459.43 50.2023 459.455 50.2972 459.411 50.371C459.382 50.4198 459.331 50.447 459.277 50.447C459.248 50.447 459.22 50.4395 459.196 50.4254L458.941 50.8555L459.197 50.4257C455.813 48.4142 452.959 48.3386 450.908 48.8161C448.874 49.2898 447.67 50.2978 447.543 50.4091L447.871 50.7859L447.543 50.4087C447.48 50.464 447.38 50.4574 447.324 50.3934Z" stroke="#FA2609"/>
<path d="M454.28 56.7992C454.28 57.4311 453.768 57.9431 453.136 57.9431C452.504 57.9431 451.992 57.4311 451.992 56.7992C451.992 56.1673 452.504 55.6552 453.136 55.6552C453.768 55.6552 454.28 56.1673 454.28 56.7992Z" stroke="#FA2609"/>
</g>
<defs>
<clipPath id="clip0_220_37422">
<rect width="493" height="535" fill="white"/>
</clipPath>
</defs>
</svg>
