<svg width="460" height="460" viewBox="0 0 460 460" fill="none" xmlns="http://www.w3.org/2000/svg">
<rect width="460" height="460" fill="white"/>
<g clip-path="url(#clip0_1384_43321)">
<mask id="path-1-inside-1_1384_43321" fill="white">
<path d="M217.408 384.781H6.46211C3.02426 384.781 0.226562 381.976 0.226562 378.53V81.2898C0.226562 77.8436 3.02426 75.0391 6.46211 75.0391H217.408C220.845 75.0391 223.642 77.8436 223.642 81.2898V378.53C223.642 381.976 220.845 384.781 217.408 384.781ZM6.46211 75.3139C3.17392 75.3139 0.499668 77.9947 0.499668 81.2909V378.531C0.499668 381.827 3.17392 384.508 6.46211 384.508H217.408C220.695 384.508 223.369 381.827 223.369 378.531V81.2898C223.369 77.9947 220.695 75.3128 217.408 75.3128L6.46211 75.3139Z"/>
</mask>
<path d="M217.408 384.781H6.46211C3.02426 384.781 0.226562 381.976 0.226562 378.53V81.2898C0.226562 77.8436 3.02426 75.0391 6.46211 75.0391H217.408C220.845 75.0391 223.642 77.8436 223.642 81.2898V378.53C223.642 381.976 220.845 384.781 217.408 384.781ZM6.46211 75.3139C3.17392 75.3139 0.499668 77.9947 0.499668 81.2909V378.531C0.499668 381.827 3.17392 384.508 6.46211 384.508H217.408C220.695 384.508 223.369 381.827 223.369 378.531V81.2898C223.369 77.9947 220.695 75.3128 217.408 75.3128L6.46211 75.3139Z" fill="white"/>
<path d="M223.642 378.53H222.642H223.642ZM6.46211 75.3139V76.3139H6.46211L6.46211 75.3139ZM217.408 75.3128V74.3128V75.3128ZM217.408 383.781H6.46211V385.781H217.408V383.781ZM6.46211 383.781C3.57883 383.781 1.22656 381.426 1.22656 378.53H-0.773438C-0.773438 382.526 2.46969 385.781 6.46211 385.781V383.781ZM1.22656 378.53V81.2898H-0.773438V378.53H1.22656ZM1.22656 81.2898C1.22656 78.3936 3.57883 76.0391 6.46211 76.0391V74.0391C2.46968 74.0391 -0.773438 77.2936 -0.773438 81.2898H1.22656ZM6.46211 76.0391H217.408V74.0391H6.46211V76.0391ZM217.408 76.0391C220.29 76.0391 222.642 78.3934 222.642 81.2898H224.642C224.642 77.2937 221.399 74.0391 217.408 74.0391V76.0391ZM222.642 81.2898V378.53H224.642V81.2898H222.642ZM222.642 378.53C222.642 381.426 220.29 383.781 217.408 383.781V385.781C221.399 385.781 224.642 382.526 224.642 378.53H222.642ZM6.46211 74.3139C2.61934 74.3139 -0.500332 77.4447 -0.500332 81.2909H1.49967C1.49967 78.5447 3.72849 76.3139 6.46211 76.3139V74.3139ZM-0.500332 81.2909V378.531H1.49967V81.2909H-0.500332ZM-0.500332 378.531C-0.500332 382.377 2.61934 385.508 6.46211 385.508V383.508C3.7285 383.508 1.49967 381.277 1.49967 378.531H-0.500332ZM6.46211 385.508H217.408V383.508H6.46211V385.508ZM217.408 385.508C221.25 385.508 224.369 382.377 224.369 378.531H222.369C222.369 381.277 220.14 383.508 217.408 383.508V385.508ZM224.369 378.531V81.2898H222.369V378.531H224.369ZM224.369 81.2898C224.369 77.4449 221.25 74.3128 217.408 74.3128V76.3128C220.14 76.3128 222.369 78.5444 222.369 81.2898H224.369ZM217.408 74.3128L6.4621 74.3139L6.46211 76.3139L217.408 76.3128V74.3128Z" fill="#FA2609" mask="url(#path-1-inside-1_1384_43321)"/>
<mask id="path-3-inside-2_1384_43321" fill="white">
<path d="M453.695 384.781H242.75C239.312 384.781 236.516 381.976 236.516 378.53V81.2898C236.516 77.8436 239.313 75.0391 242.75 75.0391H453.695C457.134 75.0391 459.93 77.8436 459.93 81.2898V378.53C459.931 381.976 457.134 384.781 453.695 384.781ZM242.75 75.3139C239.463 75.3139 236.789 77.9947 236.789 81.2909V378.531C236.789 381.827 239.463 384.508 242.75 384.508H453.695C456.983 384.508 459.657 381.827 459.657 378.531V81.2898C459.657 77.9947 456.983 75.3128 453.695 75.3128L242.75 75.3139Z"/>
</mask>
<path d="M453.695 384.781H242.75C239.312 384.781 236.516 381.976 236.516 378.53V81.2898C236.516 77.8436 239.313 75.0391 242.75 75.0391H453.695C457.134 75.0391 459.93 77.8436 459.93 81.2898V378.53C459.931 381.976 457.134 384.781 453.695 384.781ZM242.75 75.3139C239.463 75.3139 236.789 77.9947 236.789 81.2909V378.531C236.789 381.827 239.463 384.508 242.75 384.508H453.695C456.983 384.508 459.657 381.827 459.657 378.531V81.2898C459.657 77.9947 456.983 75.3128 453.695 75.3128L242.75 75.3139Z" fill="white"/>
<path d="M459.93 378.53H458.93V378.53L459.93 378.53ZM242.75 75.3139V76.3139H242.75L242.75 75.3139ZM453.695 75.3128V74.3128H453.695L453.695 75.3128ZM453.695 383.781H242.75V385.781H453.695V383.781ZM242.75 383.781C239.867 383.781 237.516 381.427 237.516 378.53H235.516C235.516 382.526 238.757 385.781 242.75 385.781V383.781ZM237.516 378.53V81.2898H235.516V378.53H237.516ZM237.516 81.2898C237.516 78.3934 239.868 76.0391 242.75 76.0391V74.0391C238.759 74.0391 235.516 77.2937 235.516 81.2898H237.516ZM242.75 76.0391H453.695V74.0391H242.75V76.0391ZM453.695 76.0391C456.579 76.0391 458.93 78.3934 458.93 81.2898H460.93C460.93 77.2937 457.688 74.0391 453.695 74.0391V76.0391ZM458.93 81.2898V378.53H460.93V81.2898H458.93ZM458.93 378.53C458.931 381.426 456.579 383.781 453.695 383.781V385.781C457.688 385.781 460.931 382.526 460.93 378.53L458.93 378.53ZM242.75 74.3139C238.908 74.3139 235.789 77.4448 235.789 81.2909H237.789C237.789 78.5446 240.018 76.3139 242.75 76.3139V74.3139ZM235.789 81.2909V378.531H237.789V81.2909H235.789ZM235.789 378.531C235.789 382.377 238.908 385.508 242.75 385.508V383.508C240.018 383.508 237.789 381.277 237.789 378.531H235.789ZM242.75 385.508H453.695V383.508H242.75V385.508ZM453.695 385.508C457.537 385.508 460.657 382.377 460.657 378.531H458.657C458.657 381.277 456.428 383.508 453.695 383.508V385.508ZM460.657 378.531V81.2898H458.657V378.531H460.657ZM460.657 81.2898C460.657 77.4448 457.538 74.3128 453.695 74.3128V76.3128C456.428 76.3128 458.657 78.5446 458.657 81.2898H460.657ZM453.695 74.3128L242.75 74.3139L242.75 76.3139L453.695 76.3128L453.695 74.3128Z" fill="#FA2609" mask="url(#path-3-inside-2_1384_43321)"/>
<path d="M92.0625 176.312C97.1131 176.312 101.582 179.234 105.866 183.854C109.613 187.895 113.158 193.169 116.776 198.751L118.333 201.161C121.356 205.849 124.769 211.143 128.151 215.264C129.843 217.325 131.542 219.111 133.195 220.386C134.84 221.654 136.5 222.463 138.103 222.463H331.621C333.224 222.463 334.883 221.654 336.528 220.386C338.182 219.111 339.881 217.325 341.572 215.264C344.109 212.173 346.663 208.422 349.058 204.762L351.392 201.161C355.557 194.702 359.575 188.474 363.857 183.855C368.141 179.235 372.61 176.312 377.66 176.312H394.115V184.073H377.66C376.057 184.073 374.398 184.881 372.753 186.149C371.099 187.424 369.4 189.21 367.709 191.271C365.172 194.362 362.618 198.113 360.224 201.773L357.89 205.375C354.032 211.356 350.3 217.139 346.364 221.633L345.638 222.463H368.407V230.224H349.667L350.469 231.068C355.216 236.067 359.72 242.749 364.317 249.84L366.295 252.901C370.32 259.143 374.635 265.837 378.916 270.968C381.057 273.534 383.205 275.729 385.32 277.286C387.431 278.839 389.556 279.791 391.64 279.792H423.28V287.552H391.641C385.609 287.552 380.211 283.956 375.009 278.294C370.46 273.344 366.124 266.887 361.7 260.06L359.798 257.115C355.773 250.874 351.457 244.18 347.176 239.048C345.035 236.482 342.887 234.287 340.771 232.73C338.661 231.176 336.535 230.224 334.451 230.224H148.931C146.847 230.224 144.722 231.177 142.611 232.73C140.496 234.287 138.349 236.482 136.208 239.048C132.462 243.539 128.689 249.225 125.108 254.757L123.586 257.115C118.494 265.011 113.574 272.638 108.375 278.295C103.172 283.957 97.7731 287.552 91.7412 287.552H60.1025V279.792H91.7402C93.8245 279.792 95.9497 278.839 98.0605 277.286C100.176 275.729 102.324 273.534 104.465 270.967C108.211 266.477 111.984 260.791 115.564 255.258L117.087 252.901C122.381 244.692 127.488 236.783 132.913 231.068L133.714 230.224H44.9375V222.463H124.085L123.358 221.633C119.915 217.701 116.627 212.782 113.274 207.607L111.833 205.375C108.81 200.687 105.396 195.392 102.014 191.271C100.323 189.211 98.6244 187.424 96.9707 186.149C95.3257 184.881 93.6656 184.073 92.0625 184.073H75.6074V176.312H92.0625Z" fill="white" stroke="#FA2609"/>
<g opacity="0.4">
<mask id="path-6-inside-3_1384_43321" fill="white">
<path d="M342.715 228.633L342.25 229.309C348.688 233.76 354.777 242.735 361.5 253.138L362.188 252.691C355.417 242.212 349.279 233.169 342.715 228.633Z"/>
</mask>
<path d="M342.715 228.633L342.25 229.309C348.688 233.76 354.777 242.735 361.5 253.138L362.188 252.691C355.417 242.212 349.279 233.169 342.715 228.633Z" fill="white"/>
<path d="M342.715 228.633L343.284 227.811L342.46 227.241L341.892 228.066L342.715 228.633ZM342.25 229.309L341.426 228.742L340.86 229.564L341.681 230.131L342.25 229.309ZM361.5 253.138L360.66 253.681L361.204 254.522L362.044 253.977L361.5 253.138ZM362.188 252.691L362.732 253.53L363.569 252.987L363.028 252.148L362.188 252.691ZM341.892 228.066L341.426 228.742L343.074 229.876L343.539 229.201L341.892 228.066ZM341.681 230.131C344.776 232.271 347.833 235.534 350.976 239.603C354.115 243.666 357.298 248.478 360.66 253.681L362.339 252.595C358.978 247.394 355.755 242.518 352.559 238.38C349.368 234.249 346.162 230.798 342.819 228.486L341.681 230.131ZM362.044 253.977L362.732 253.53L361.643 251.852L360.955 252.299L362.044 253.977ZM363.028 252.148C359.643 246.91 356.395 241.997 353.165 237.822C349.939 233.652 346.689 230.164 343.284 227.811L342.147 229.456C345.305 231.638 348.406 234.94 351.583 239.046C354.755 243.146 357.962 247.994 361.348 253.234L363.028 252.148Z" fill="#FA2609" mask="url(#path-6-inside-3_1384_43321)"/>
<mask id="path-8-inside-4_1384_43321" fill="white">
<path d="M370.702 265.596L370.031 266.067C373.795 271.463 376.932 275.276 379.905 278.068L380.465 277.469C377.534 274.717 374.433 270.944 370.702 265.596Z"/>
</mask>
<path d="M370.702 265.596L370.031 266.067C373.795 271.463 376.932 275.276 379.905 278.068L380.465 277.469C377.534 274.717 374.433 270.944 370.702 265.596Z" fill="white"/>
<path d="M370.702 265.596L371.522 265.024L370.948 264.201L370.127 264.777L370.702 265.596ZM370.031 266.067L369.457 265.248L368.641 265.821L369.211 266.639L370.031 266.067ZM379.905 278.068L379.22 278.797L379.95 279.482L380.635 278.751L379.905 278.068ZM380.465 277.469L381.195 278.152L381.877 277.423L381.149 276.74L380.465 277.469ZM370.127 264.777L369.457 265.248L370.606 266.885L371.277 266.414L370.127 264.777ZM369.211 266.639C372.993 272.062 376.176 275.938 379.22 278.797L380.589 277.339C377.688 274.615 374.596 270.864 370.851 265.495L369.211 266.639ZM380.635 278.751L381.195 278.152L379.735 276.785L379.174 277.384L380.635 278.751ZM381.149 276.74C378.29 274.055 375.234 270.346 371.522 265.024L369.882 266.168C373.631 271.543 376.778 275.378 379.78 278.198L381.149 276.74Z" fill="#FA2609" mask="url(#path-8-inside-4_1384_43321)"/>
<mask id="path-10-inside-5_1384_43321" fill="white">
<path d="M363.594 256.377C365.007 258.567 366.421 260.745 367.839 262.861L368.519 262.403C367.104 260.291 365.692 258.116 364.282 255.93L363.594 256.377Z"/>
</mask>
<path d="M363.594 256.377C365.007 258.567 366.421 260.745 367.839 262.861L368.519 262.403C367.104 260.291 365.692 258.116 364.282 255.93L363.594 256.377Z" fill="white"/>
<path d="M363.594 256.377L363.049 255.538L362.213 256.081L362.754 256.919L363.594 256.377ZM367.839 262.861L367.008 263.418L367.566 264.25L368.397 263.691L367.839 262.861ZM368.519 262.403L369.078 263.233L369.906 262.676L369.35 261.846L368.519 262.403ZM364.282 255.93L365.122 255.388L364.579 254.545L363.737 255.091L364.282 255.93ZM362.754 256.919C364.168 259.11 365.585 261.294 367.008 263.418L368.67 262.304C367.257 260.196 365.847 258.024 364.434 255.835L362.754 256.919ZM368.397 263.691L369.078 263.233L367.961 261.573L367.281 262.031L368.397 263.691ZM369.35 261.846C367.939 259.742 366.532 257.573 365.122 255.388L363.442 256.472C364.853 258.659 366.268 260.84 367.689 262.96L369.35 261.846ZM363.737 255.091L363.049 255.538L364.138 257.216L364.826 256.769L363.737 255.091Z" fill="#FA2609" mask="url(#path-10-inside-5_1384_43321)"/>
<mask id="path-12-inside-6_1384_43321" fill="white">
<path d="M383.387 279.912L382.906 280.576C385.933 282.775 388.79 283.843 391.639 283.843H413.317V283.022H391.639C388.968 283.023 386.269 282.004 383.387 279.912Z"/>
</mask>
<path d="M383.387 279.912L382.906 280.576C385.933 282.775 388.79 283.843 391.639 283.843H413.317V283.022H391.639C388.968 283.023 386.269 282.004 383.387 279.912Z" fill="white"/>
<path d="M383.387 279.912L383.975 279.102L383.164 278.514L382.577 279.326L383.387 279.912ZM382.906 280.576L382.096 279.99L381.511 280.799L382.319 281.385L382.906 280.576ZM413.317 283.843V284.843H414.317V283.843H413.317ZM413.317 283.022H414.317V282.022H413.317V283.022ZM391.639 283.022V282.022L391.639 282.022L391.639 283.022ZM382.577 279.326L382.096 279.99L383.717 281.162L384.197 280.498L382.577 279.326ZM382.319 281.385C385.463 283.67 388.522 284.843 391.639 284.843V282.843C389.058 282.843 386.403 281.881 383.494 279.767L382.319 281.385ZM391.639 284.843H413.317V282.843H391.639V284.843ZM414.317 283.843V283.022H412.317V283.843H414.317ZM413.317 282.022H391.639V284.022H413.317V282.022ZM391.639 282.022C389.24 282.023 386.742 281.112 383.975 279.102L382.799 280.721C385.795 282.896 388.697 284.023 391.639 284.022L391.639 282.022Z" fill="#FA2609" mask="url(#path-12-inside-6_1384_43321)"/>
<mask id="path-14-inside-7_1384_43321" fill="white">
<path d="M423.781 283.023H417.227V283.844H423.781V283.023Z"/>
</mask>
<path d="M423.781 283.023H417.227V283.844H423.781V283.023Z" fill="white"/>
<path d="M417.227 283.023V282.023H416.227V283.023H417.227ZM423.781 283.023H424.781V282.023H423.781V283.023ZM423.781 283.844V284.844H424.781V283.844H423.781ZM417.227 283.844H416.227V284.844H417.227V283.844ZM417.227 284.023H423.781V282.023H417.227V284.023ZM422.781 283.023V283.844H424.781V283.023H422.781ZM423.781 282.844H417.227V284.844H423.781V282.844ZM418.227 283.844V283.023H416.227V283.844H418.227Z" fill="#FA2609" mask="url(#path-14-inside-7_1384_43321)"/>
<mask id="path-16-inside-8_1384_43321" fill="white">
<path d="M50.992 225.694H44.4375V226.516H50.992V225.694Z"/>
</mask>
<path d="M50.992 225.694H44.4375V226.516H50.992V225.694Z" fill="white"/>
<path d="M44.4375 225.694V224.694H43.4375V225.694H44.4375ZM50.992 225.694H51.992V224.694H50.992V225.694ZM50.992 226.516V227.516H51.992V226.516H50.992ZM44.4375 226.516H43.4375V227.516H44.4375V226.516ZM44.4375 226.694H50.992V224.694H44.4375V226.694ZM49.992 225.694V226.516H51.992V225.694H49.992ZM50.992 225.516H44.4375V227.516H50.992V225.516ZM45.4375 226.516V225.694H43.4375V226.516H45.4375Z" fill="#FA2609" mask="url(#path-16-inside-8_1384_43321)"/>
<mask id="path-18-inside-9_1384_43321" fill="white">
<path d="M82.7611 225.694H57.3438V226.516H82.7611V225.694Z"/>
</mask>
<path d="M82.7611 225.694H57.3438V226.516H82.7611V225.694Z" fill="white"/>
<path d="M57.3438 225.694V224.694H56.3438V225.694H57.3438ZM82.7611 225.694H83.7611V224.694H82.7611V225.694ZM82.7611 226.516V227.516H83.7611V226.516H82.7611ZM57.3438 226.516H56.3438V227.516H57.3438V226.516ZM57.3438 226.694H82.7611V224.694H57.3438V226.694ZM81.7611 225.694V226.516H83.7611V225.694H81.7611ZM82.7611 225.516H57.3438V227.516H82.7611V225.516ZM58.3438 226.516V225.694H56.3438V226.516H58.3438Z" fill="#FA2609" mask="url(#path-18-inside-9_1384_43321)"/>
<path d="M134.357 225.411C135.017 225.683 135.672 225.885 136.325 226.015H134.236L134.357 225.411Z" fill="white" stroke="#FA2609"/>
<mask id="path-21-inside-10_1384_43321" fill="white">
<path d="M298.808 225.694H273.391V226.516H298.808V225.694Z"/>
</mask>
<path d="M298.808 225.694H273.391V226.516H298.808V225.694Z" fill="white"/>
<path d="M273.391 225.694V224.694H272.391V225.694H273.391ZM298.808 225.694H299.808V224.694H298.808V225.694ZM298.808 226.516V227.516H299.808V226.516H298.808ZM273.391 226.516H272.391V227.516H273.391V226.516ZM273.391 226.694H298.808V224.694H273.391V226.694ZM297.808 225.694V226.516H299.808V225.694H297.808ZM298.808 225.516H273.391V227.516H298.808V225.516ZM274.391 226.516V225.694H272.391V226.516H274.391Z" fill="#FA2609" mask="url(#path-21-inside-10_1384_43321)"/>
<path d="M338.695 226.194L338.588 226.79C337.863 226.522 337.137 226.323 336.416 226.194H338.695ZM335.496 226.066C335.146 226.032 334.797 226.014 334.45 226.014H333.396C334.05 225.884 334.705 225.682 335.365 225.409L335.496 226.066Z" fill="white" stroke="#FA2609"/>
<mask id="path-24-inside-11_1384_43321" fill="white">
<path d="M267.036 225.694H254.328V226.516H267.036V225.694Z"/>
</mask>
<path d="M267.036 225.694H254.328V226.516H267.036V225.694Z" fill="white"/>
<path d="M254.328 225.694V224.694H253.328V225.694H254.328ZM267.036 225.694H268.036V224.694H267.036V225.694ZM267.036 226.516V227.516H268.036V226.516H267.036ZM254.328 226.516H253.328V227.516H254.328V226.516ZM254.328 226.694H267.036V224.694H254.328V226.694ZM266.036 225.694V226.516H268.036V225.694H266.036ZM267.036 225.516H254.328V227.516H267.036V225.516ZM255.328 226.516V225.694H253.328V226.516H255.328Z" fill="#FA2609" mask="url(#path-24-inside-11_1384_43321)"/>
<mask id="path-26-inside-12_1384_43321" fill="white">
<path d="M247.975 225.694H197.141V226.516H247.975V225.694Z"/>
</mask>
<path d="M247.975 225.694H197.141V226.516H247.975V225.694Z" fill="white"/>
<path d="M197.141 225.694V224.694H196.141V225.694H197.141ZM247.975 225.694H248.975V224.694H247.975V225.694ZM247.975 226.516V227.516H248.975V226.516H247.975ZM197.141 226.516H196.141V227.516H197.141V226.516ZM197.141 226.694H247.975V224.694H197.141V226.694ZM246.975 225.694V226.516H248.975V225.694H246.975ZM247.975 225.516H197.141V227.516H247.975V225.516ZM198.141 226.516V225.694H196.141V226.516H198.141Z" fill="#FA2609" mask="url(#path-26-inside-12_1384_43321)"/>
<mask id="path-28-inside-13_1384_43321" fill="white">
<path d="M368.906 225.694H362.352V226.516H368.906V225.694Z"/>
</mask>
<path d="M368.906 225.694H362.352V226.516H368.906V225.694Z" fill="white"/>
<path d="M362.352 225.694V224.694H361.352V225.694H362.352ZM368.906 225.694H369.906V224.694H368.906V225.694ZM368.906 226.516V227.516H369.906V226.516H368.906ZM362.352 226.516H361.352V227.516H362.352V226.516ZM362.352 226.694H368.906V224.694H362.352V226.694ZM367.906 225.694V226.516H369.906V225.694H367.906ZM368.906 225.516H362.352V227.516H368.906V225.516ZM363.352 226.516V225.694H361.352V226.516H363.352Z" fill="#FA2609" mask="url(#path-28-inside-13_1384_43321)"/>
<mask id="path-30-inside-14_1384_43321" fill="white">
<path d="M353.154 206.086L352.467 205.638C349.063 210.878 345.098 216.797 341.109 220.722L341.683 221.308C345.73 217.326 349.726 211.363 353.154 206.086Z"/>
</mask>
<path d="M353.154 206.086L352.467 205.638C349.063 210.878 345.098 216.797 341.109 220.722L341.683 221.308C345.73 217.326 349.726 211.363 353.154 206.086Z" fill="white"/>
<path d="M353.154 206.086L353.993 206.63L354.537 205.793L353.7 205.248L353.154 206.086ZM352.467 205.638L353.013 204.8L352.174 204.253L351.629 205.093L352.467 205.638ZM341.109 220.722L340.408 220.01L339.697 220.709L340.395 221.422L341.109 220.722ZM341.683 221.308L340.968 222.008L341.67 222.724L342.384 222.021L341.683 221.308ZM353.7 205.248L353.013 204.8L351.921 206.475L352.608 206.923L353.7 205.248ZM351.629 205.093C348.215 210.349 344.306 216.173 340.408 220.01L341.811 221.435C345.89 217.42 349.912 211.407 353.306 206.182L351.629 205.093ZM340.395 221.422L340.968 222.008L342.397 220.609L341.824 220.023L340.395 221.422ZM342.384 222.021C346.522 217.949 350.575 211.892 353.993 206.63L352.316 205.541C348.878 210.833 344.938 216.702 340.981 220.596L342.384 222.021Z" fill="#FA2609" mask="url(#path-30-inside-14_1384_43321)"/>
<mask id="path-32-inside-15_1384_43321" fill="white">
<path d="M377.66 180.364H383.323V179.543H377.66C369.317 179.543 361.735 191.286 355.047 201.644L355.735 202.09C362.309 191.906 369.762 180.363 377.66 180.364Z"/>
</mask>
<path d="M377.66 180.364H383.323V179.543H377.66C369.317 179.543 361.735 191.286 355.047 201.644L355.735 202.09C362.309 191.906 369.762 180.363 377.66 180.364Z" fill="white"/>
<path d="M377.66 180.364L377.66 181.364H377.66V180.364ZM383.323 180.364V181.364H384.323V180.364H383.323ZM383.323 179.543H384.323V178.543H383.323V179.543ZM355.047 201.644L354.207 201.101L353.665 201.94L354.503 202.483L355.047 201.644ZM355.735 202.09L355.192 202.929L356.032 203.473L356.575 202.632L355.735 202.09ZM377.66 181.364H383.323V179.364H377.66V181.364ZM384.323 180.364V179.543H382.323V180.364H384.323ZM383.323 178.543H377.66V180.543H383.323V178.543ZM377.66 178.543C373.027 178.543 368.788 181.783 364.987 186.043C361.15 190.343 357.54 195.939 354.207 201.101L355.887 202.186C359.242 196.99 362.766 191.536 366.479 187.375C370.227 183.175 373.95 180.543 377.66 180.543V178.543ZM354.503 202.483L355.192 202.929L356.279 201.25L355.59 200.805L354.503 202.483ZM356.575 202.632C359.873 197.524 363.338 192.161 366.951 188.07C370.604 183.932 374.182 181.364 377.66 181.364L377.66 179.364C373.24 179.364 369.142 182.567 365.451 186.746C361.72 190.972 358.171 196.472 354.895 201.547L356.575 202.632Z" fill="#FA2609" mask="url(#path-32-inside-15_1384_43321)"/>
<mask id="path-34-inside-16_1384_43321" fill="white">
<path d="M394.617 179.543H388.062V180.364H394.617V179.543Z"/>
</mask>
<path d="M394.617 179.543H388.062V180.364H394.617V179.543Z" fill="white"/>
<path d="M388.062 179.543V178.543H387.062V179.543H388.062ZM394.617 179.543H395.617V178.543H394.617V179.543ZM394.617 180.364V181.364H395.617V180.364H394.617ZM388.062 180.364H387.062V181.364H388.062V180.364ZM388.062 180.543H394.617V178.543H388.062V180.543ZM393.617 179.543V180.364H395.617V179.543H393.617ZM394.617 179.364H388.062V181.364H394.617V179.364ZM389.062 180.364V179.543H387.062V180.364H389.062Z" fill="#FA2609" mask="url(#path-34-inside-16_1384_43321)"/>
<mask id="path-36-inside-17_1384_43321" fill="white">
<path d="M128.616 220.722C124.628 216.797 120.663 210.878 117.257 205.638L116.57 206.086C119.998 211.362 123.994 217.326 128.042 221.308L128.616 220.722Z"/>
</mask>
<path d="M128.616 220.722C124.628 216.797 120.663 210.878 117.257 205.638L116.57 206.086C119.998 211.362 123.994 217.326 128.042 221.308L128.616 220.722Z" fill="white"/>
<path d="M128.616 220.722L129.33 221.423L130.029 220.71L129.318 220.01L128.616 220.722ZM117.257 205.638L118.096 205.093L117.55 204.253L116.711 204.8L117.257 205.638ZM116.57 206.086L116.024 205.248L115.188 205.793L115.732 206.63L116.57 206.086ZM128.042 221.308L127.34 222.021L128.054 222.724L128.756 222.009L128.042 221.308ZM129.318 220.01C125.42 216.173 121.511 210.349 118.096 205.093L116.419 206.183C119.814 211.407 123.836 217.42 127.915 221.435L129.318 220.01ZM116.711 204.8L116.024 205.248L117.116 206.923L117.804 206.475L116.711 204.8ZM115.732 206.63C119.15 211.891 123.202 217.949 127.34 222.021L128.743 220.596C124.786 216.702 120.847 210.832 117.409 205.541L115.732 206.63ZM128.756 222.009L129.33 221.423L127.903 220.022L127.328 220.608L128.756 222.009Z" fill="#FA2609" mask="url(#path-36-inside-17_1384_43321)"/>
<mask id="path-38-inside-18_1384_43321" fill="white">
<path d="M113.988 202.09L114.676 201.644C107.987 191.284 100.405 179.542 92.0616 179.543H86.3984V180.364H92.0616C99.9598 180.363 107.412 191.906 113.988 202.09Z"/>
</mask>
<path d="M113.988 202.09L114.676 201.644C107.987 191.284 100.405 179.542 92.0616 179.543H86.3984V180.364H92.0616C99.9598 180.363 107.412 191.906 113.988 202.09Z" fill="white"/>
<path d="M113.988 202.09L113.147 202.632L113.691 203.473L114.531 202.929L113.988 202.09ZM114.676 201.644L115.219 202.483L116.058 201.94L115.516 201.101L114.676 201.644ZM92.0616 179.543V180.543H92.0617L92.0616 179.543ZM86.3984 179.543V178.543H85.3984V179.543H86.3984ZM86.3984 180.364H85.3984V181.364H86.3984V180.364ZM92.0616 180.364V181.364L92.0617 181.364L92.0616 180.364ZM114.531 202.929L115.219 202.483L114.132 200.805L113.444 201.25L114.531 202.929ZM115.516 201.101C112.183 195.939 108.572 190.342 104.735 186.042C100.934 181.782 96.6949 178.542 92.0614 178.543L92.0617 180.543C95.7721 180.542 99.4956 183.174 103.243 187.374C106.956 191.535 110.48 196.989 113.836 202.186L115.516 201.101ZM92.0616 178.543H86.3984V180.543H92.0616V178.543ZM85.3984 179.543V180.364H87.3984V179.543H85.3984ZM86.3984 181.364H92.0616V179.364H86.3984V181.364ZM92.0617 181.364C95.5398 181.364 99.1171 183.932 102.771 188.07C106.384 192.161 109.849 197.524 113.147 202.632L114.828 201.547C111.551 196.472 108.002 190.972 104.27 186.746C100.58 182.567 96.4815 179.364 92.0614 179.364L92.0617 181.364Z" fill="#FA2609" mask="url(#path-38-inside-18_1384_43321)"/>
<mask id="path-40-inside-19_1384_43321" fill="white">
<path d="M81.6639 179.543H75.1094V180.364H81.6639V179.543Z"/>
</mask>
<path d="M81.6639 179.543H75.1094V180.364H81.6639V179.543Z" fill="white"/>
<path d="M75.1094 179.543V178.543H74.1094V179.543H75.1094ZM81.6639 179.543H82.6639V178.543H81.6639V179.543ZM81.6639 180.364V181.364H82.6639V180.364H81.6639ZM75.1094 180.364H74.1094V181.364H75.1094V180.364ZM75.1094 180.543H81.6639V178.543H75.1094V180.543ZM80.6639 179.543V180.364H82.6639V179.543H80.6639ZM81.6639 179.364H75.1094V181.364H81.6639V179.364ZM76.1094 180.364V179.543H74.1094V180.364H76.1094Z" fill="#FA2609" mask="url(#path-40-inside-19_1384_43321)"/>
<mask id="path-42-inside-20_1384_43321" fill="white">
<path d="M165.371 225.694H163.438V226.516H165.371H169.992H190.787V225.694H169.992H165.371Z"/>
</mask>
<path d="M165.371 225.694H163.438V226.516H165.371H169.992H190.787V225.694H169.992H165.371Z" fill="white"/>
<path d="M163.438 225.694V224.694H162.438V225.694H163.438ZM163.438 226.516H162.438V227.516H163.438V226.516ZM190.787 226.516V227.516H191.787V226.516H190.787ZM190.787 225.694H191.787V224.694H190.787V225.694ZM165.371 224.694H163.438V226.694H165.371V224.694ZM162.438 225.694V226.516H164.438V225.694H162.438ZM163.438 227.516H165.371V225.516H163.438V227.516ZM165.371 227.516H169.992V225.516H165.371V227.516ZM169.992 227.516H190.787V225.516H169.992V227.516ZM191.787 226.516V225.694H189.787V226.516H191.787ZM190.787 224.694H169.992V226.694H190.787V224.694ZM169.992 224.694H165.371V226.694H169.992V224.694Z" fill="#FA2609" mask="url(#path-42-inside-20_1384_43321)"/>
<mask id="path-44-inside-21_1384_43321" fill="white">
<path d="M121.188 252.69L121.876 253.137C128.597 242.735 134.685 233.762 141.125 229.309L140.66 228.633C134.097 233.171 127.958 242.213 121.188 252.69Z"/>
</mask>
<path d="M121.188 252.69L121.876 253.137C128.597 242.735 134.685 233.762 141.125 229.309L140.66 228.633C134.097 233.171 127.958 242.213 121.188 252.69Z" fill="white"/>
<path d="M121.188 252.69L120.348 252.147L119.806 252.985L120.643 253.529L121.188 252.69ZM121.876 253.137L121.331 253.976L122.172 254.521L122.716 253.68L121.876 253.137ZM141.125 229.309L141.694 230.131L142.515 229.564L141.949 228.742L141.125 229.309ZM140.66 228.633L141.483 228.066L140.915 227.241L140.091 227.811L140.66 228.633ZM120.643 253.529L121.331 253.976L122.42 252.298L121.732 251.851L120.643 253.529ZM122.716 253.68C126.077 248.478 129.259 243.666 132.398 239.603C135.541 235.534 138.599 232.272 141.694 230.131L140.557 228.486C137.212 230.799 134.006 234.249 130.815 238.38C127.619 242.518 124.396 247.394 121.036 252.594L122.716 253.68ZM141.949 228.742L141.483 228.066L139.836 229.201L140.302 229.876L141.949 228.742ZM140.091 227.811C136.686 230.165 133.437 233.653 130.211 237.823C126.98 241.997 123.733 246.91 120.348 252.147L122.027 253.233C125.413 247.994 128.62 243.147 131.792 239.047C134.969 234.941 138.071 231.639 141.229 229.456L140.091 227.811Z" fill="#FA2609" mask="url(#path-44-inside-21_1384_43321)"/>
<path d="M146.969 226.194C146.916 226.203 146.863 226.213 146.811 226.223V226.194H146.969Z" fill="white" stroke="#FA2609"/>
<mask id="path-47-inside-22_1384_43321" fill="white">
<path d="M91.7405 283.023H70.0625V283.844H91.7405C94.5885 283.844 97.4452 282.775 100.473 280.577L99.9916 279.913C97.1098 282.004 94.4104 283.023 91.7405 283.023Z"/>
</mask>
<path d="M91.7405 283.023H70.0625V283.844H91.7405C94.5885 283.844 97.4452 282.775 100.473 280.577L99.9916 279.913C97.1098 282.004 94.4104 283.023 91.7405 283.023Z" fill="white"/>
<path d="M70.0625 283.023V282.023H69.0625V283.023H70.0625ZM70.0625 283.844H69.0625V284.844H70.0625V283.844ZM100.473 280.577L101.061 281.387L101.869 280.8L101.283 279.99L100.473 280.577ZM99.9916 279.913L100.801 279.326L100.214 278.516L99.4042 279.103L99.9916 279.913ZM91.7405 282.023H70.0625V284.023H91.7405V282.023ZM69.0625 283.023V283.844H71.0625V283.023H69.0625ZM70.0625 284.844H91.7405V282.844H70.0625V284.844ZM91.7405 284.844C94.857 284.844 97.9151 283.67 101.061 281.387L99.886 279.768C96.9752 281.881 94.3199 282.844 91.7405 282.844V284.844ZM101.283 279.99L100.801 279.326L99.1819 280.499L99.6636 281.164L101.283 279.99ZM99.4042 279.103C96.6365 281.112 94.1388 282.023 91.7405 282.023V284.023C94.6821 284.023 97.5831 282.896 100.579 280.722L99.4042 279.103Z" fill="#FA2609" mask="url(#path-47-inside-22_1384_43321)"/>
<mask id="path-49-inside-23_1384_43321" fill="white">
<path d="M114.859 262.405L115.54 262.862C116.958 260.747 118.371 258.567 119.785 256.378L119.097 255.933C117.687 258.117 116.275 260.292 114.859 262.405Z"/>
</mask>
<path d="M114.859 262.405L115.54 262.862C116.958 260.747 118.371 258.567 119.785 256.378L119.097 255.933C117.687 258.117 116.275 260.292 114.859 262.405Z" fill="white"/>
<path d="M114.859 262.405L114.029 261.848L113.473 262.677L114.301 263.234L114.859 262.405ZM115.54 262.862L114.982 263.692L115.813 264.251L116.371 263.419L115.54 262.862ZM119.785 256.378L120.625 256.921L121.167 256.082L120.329 255.539L119.785 256.378ZM119.097 255.933L119.64 255.093L118.8 254.549L118.257 255.39L119.097 255.933ZM114.301 263.234L114.982 263.692L116.098 262.033L115.417 261.575L114.301 263.234ZM116.371 263.419C117.794 261.296 119.211 259.11 120.625 256.921L118.945 255.836C117.532 258.025 116.122 260.198 114.709 262.306L116.371 263.419ZM120.329 255.539L119.64 255.093L118.553 256.772L119.242 257.218L120.329 255.539ZM118.257 255.39C116.847 257.574 115.439 259.743 114.029 261.848L115.69 262.961C117.111 260.841 118.526 258.66 119.937 256.475L118.257 255.39Z" fill="#FA2609" mask="url(#path-49-inside-23_1384_43321)"/>
<mask id="path-51-inside-24_1384_43321" fill="white">
<path d="M102.922 277.469L103.482 278.068C106.455 275.276 109.591 271.463 113.356 266.067L112.685 265.596C108.952 270.944 105.851 274.717 102.922 277.469Z"/>
</mask>
<path d="M102.922 277.469L103.482 278.068C106.455 275.276 109.591 271.463 113.356 266.067L112.685 265.596C108.952 270.944 105.851 274.717 102.922 277.469Z" fill="white"/>
<path d="M102.922 277.469L102.237 276.74L101.51 277.423L102.192 278.152L102.922 277.469ZM103.482 278.068L102.752 278.751L103.437 279.482L104.167 278.797L103.482 278.068ZM113.356 266.067L114.176 266.639L114.746 265.821L113.93 265.248L113.356 266.067ZM112.685 265.596L113.259 264.777L112.439 264.201L111.865 265.023L112.685 265.596ZM102.192 278.152L102.752 278.751L104.213 277.384L103.652 276.785L102.192 278.152ZM104.167 278.797C107.211 275.938 110.393 272.062 114.176 266.639L112.535 265.494C108.79 270.864 105.699 274.615 102.798 277.339L104.167 278.797ZM113.93 265.248L113.259 264.777L112.11 266.414L112.781 266.885L113.93 265.248ZM111.865 265.023C108.15 270.346 105.094 274.055 102.237 276.74L103.607 278.197C106.607 275.378 109.754 271.543 113.505 266.168L111.865 265.023Z" fill="#FA2609" mask="url(#path-51-inside-24_1384_43321)"/>
<mask id="path-53-inside-25_1384_43321" fill="white">
<path d="M66.1561 283.023H59.6016V283.844H66.1561V283.023Z"/>
</mask>
<path d="M66.1561 283.023H59.6016V283.844H66.1561V283.023Z" fill="white"/>
<path d="M59.6016 283.023V282.023H58.6016V283.023H59.6016ZM66.1561 283.023H67.1561V282.023H66.1561V283.023ZM66.1561 283.844V284.844H67.1561V283.844H66.1561ZM59.6016 283.844H58.6016V284.844H59.6016V283.844ZM59.6016 284.023H66.1561V282.023H59.6016V284.023ZM65.1561 283.023V283.844H67.1561V283.023H65.1561ZM66.1561 282.844H59.6016V284.844H66.1561V282.844ZM60.6016 283.844V283.023H58.6016V283.844H60.6016Z" fill="#FA2609" mask="url(#path-53-inside-25_1384_43321)"/>
</g>
<path d="M84.1035 263.011H92.1143C93.8271 263.011 95.2848 264.243 95.585 265.92L95.6104 266.084L96.0176 269.159V304.332H50.4297V272.488C50.4297 270.905 51.7088 269.624 53.2852 269.624H73.9502C75.7292 269.624 77.3959 268.785 78.46 267.374L78.665 267.085V267.084L79.8369 265.31C80.7844 263.874 82.3874 263.011 84.1035 263.011Z" fill="white" stroke="#FA2609"/>
<path opacity="0.2" d="M84.1035 263.011H92.1143C93.8271 263.011 95.2848 264.243 95.585 265.92L95.6104 266.084L96.0176 269.159V304.332H50.4297V272.488C50.4297 270.905 51.7088 269.624 53.2852 269.624H73.9502C75.7292 269.624 77.3959 268.785 78.46 267.374L78.665 267.085V267.084L79.8369 265.31C80.7844 263.874 82.3874 263.011 84.1035 263.011Z" fill="white" stroke="#FA2609"/>
<path d="M92.5293 273.711V299.855H53.9297V273.711H92.5293Z" fill="white" stroke="#FA2609"/>
<path opacity="0.9" d="M92.5293 273.711V299.855H53.9297V273.711H92.5293Z" fill="white" stroke="#FA2609"/>
<path d="M45.9551 276.629H84.1348C86.5043 276.63 88.5928 278.168 89.3105 280.416L89.375 280.635L95.8652 304.333H50.3145L43.582 279.752C43.151 278.179 44.3323 276.629 45.9551 276.629Z" fill="white" stroke="#FA2609"/>
<path opacity="0.6" d="M45.9551 276.629H84.1348C86.5043 276.63 88.5928 278.168 89.3105 280.416L89.375 280.635L95.8652 304.333H50.3145L43.582 279.752C43.151 278.179 44.3323 276.629 45.9551 276.629Z" fill="white" stroke="#FA2609"/>
<path d="M40.6328 144.107H49.2744C51.0228 144.107 52.6635 144.931 53.71 146.319L53.9111 146.604L55.1758 148.519C56.2983 150.218 58.1965 151.241 60.2305 151.241H82.5225C84.2443 151.241 85.6426 152.641 85.6426 154.37V186.298C85.6426 187.66 84.5414 188.763 83.1855 188.763H38.8398C37.484 188.763 36.3828 187.66 36.3828 186.298V150.774L36.8213 147.455C37.0749 145.539 38.7053 144.107 40.6328 144.107Z" fill="white" stroke="#FA2609"/>
<path opacity="0.6" d="M40.6328 144.107H49.2744C51.0228 144.107 52.6635 144.931 53.71 146.319L53.9111 146.604L55.1758 148.519C56.2983 150.218 58.1965 151.241 60.2305 151.241H82.5225C84.2443 151.241 85.6426 152.641 85.6426 154.37V186.298C85.6426 187.66 84.5414 188.763 83.1855 188.763H38.8398C37.484 188.763 36.3828 187.66 36.3828 186.298V150.774L36.8213 147.455C37.0749 145.539 38.7053 144.107 40.6328 144.107Z" fill="white" stroke="#FA2609"/>
<path d="M76.6055 151.241V181.271H73.1406V151.241H76.6055Z" fill="white" stroke="#FA2609"/>
<path opacity="0.5" d="M76.6055 151.241V181.271H73.1406V151.241H76.6055Z" fill="white" stroke="#FA2609"/>
<path d="M74.5039 152.714V154.269H72.0781V152.714H74.5039Z" fill="white" stroke="#FA2609"/>
<path d="M74.5039 158.278V159.833H72.0781V158.278H74.5039Z" fill="white" stroke="#FA2609"/>
<path d="M74.5039 163.841V165.396H72.0781V163.841H74.5039Z" fill="white" stroke="#FA2609"/>
<path d="M74.5039 169.405V170.96H72.0781V169.405H74.5039Z" fill="white" stroke="#FA2609"/>
<path d="M74.5039 174.97V176.524H72.0781V174.97H74.5039Z" fill="white" stroke="#FA2609"/>
<path opacity="0.7" d="M74.5039 152.714V154.269H72.0781V152.714H74.5039Z" fill="white" stroke="#FA2609"/>
<path opacity="0.7" d="M74.5039 158.278V159.833H72.0781V158.278H74.5039Z" fill="white" stroke="#FA2609"/>
<path opacity="0.7" d="M74.5039 163.841V165.396H72.0781V163.841H74.5039Z" fill="white" stroke="#FA2609"/>
<path opacity="0.7" d="M74.5039 169.406V170.96H72.0781V169.406H74.5039Z" fill="white" stroke="#FA2609"/>
<path opacity="0.7" d="M74.5039 174.97V176.524H72.0781V174.97H74.5039Z" fill="white" stroke="#FA2609"/>
<path d="M77.8242 155.269V156.824H75.3984V155.269H77.8242Z" fill="white" stroke="#FA2609"/>
<path d="M77.8242 160.833V162.388H75.3984V160.833H77.8242Z" fill="white" stroke="#FA2609"/>
<path d="M77.8242 166.397V167.952H75.3984V166.397H77.8242Z" fill="white" stroke="#FA2609"/>
<path d="M77.8242 171.96V173.515H75.3984V171.96H77.8242Z" fill="white" stroke="#FA2609"/>
<path d="M77.8242 177.524V179.079H75.3984V177.524H77.8242Z" fill="white" stroke="#FA2609"/>
<g opacity="0.8">
<path d="M77.8242 155.269V156.824H75.3984V155.269H77.8242Z" fill="white" stroke="#FA2609"/>
<path d="M77.8242 160.833V162.388H75.3984V160.833H77.8242Z" fill="white" stroke="#FA2609"/>
<path d="M77.8242 166.397V167.952H75.3984V166.397H77.8242Z" fill="white" stroke="#FA2609"/>
<path d="M77.8242 171.96V173.515H75.3984V171.96H77.8242Z" fill="white" stroke="#FA2609"/>
<path d="M77.8242 177.524V179.079H75.3984V177.524H77.8242Z" fill="white" stroke="#FA2609"/>
</g>
<path d="M79.418 180.079V189.255H70.5938V180.079H79.418ZM71.3262 188.409H78.8379V180.927H71.3262V188.409Z" fill="white" stroke="#FA2609"/>
<path opacity="0.7" d="M79.418 180.079V189.255H70.5938V180.079H79.418ZM71.3262 188.409H78.8379V180.927H71.3262V188.409Z" fill="white" stroke="#FA2609"/>
<path d="M72.6514 202.784L82.4941 212.651V222.121H37.6631L27.8203 212.253V202.784H72.6514Z" fill="white" stroke="#FA2609"/>
<path opacity="0.3" d="M72.6514 202.784L82.4941 212.651V222.121H37.6631L27.8203 212.253V202.784H72.6514Z" fill="white" stroke="#FA2609"/>
<path d="M82.4922 223.113V232.289H37.9531V223.113H82.4922Z" fill="white" stroke="#FA2609"/>
<path opacity="0.3" d="M82.4922 223.113V232.289H37.9531V223.113H82.4922Z" fill="white" stroke="#FA2609"/>
<path d="M82.4922 233.281V242.457H37.9531V233.281H82.4922Z" fill="white" stroke="#FA2609"/>
<path opacity="0.6" d="M82.4922 233.281V242.457H37.9531V233.281H82.4922Z" fill="white" stroke="#FA2609"/>
<path d="M82.4922 212.945V222.121H37.9531V212.945H82.4922Z" fill="white" stroke="#FA2609"/>
<path d="M55.1367 212.238L54.9902 212.092L45.7051 202.784H54.5146L64.3574 212.652V242.458H55.1367V212.238Z" fill="white" stroke="#FA2609"/>
<path opacity="0.2" d="M55.1367 212.238L54.9902 212.092L45.7051 202.784H54.5146L64.3574 212.652V242.458H55.1367V212.238Z" fill="white" stroke="#FA2609"/>
<path d="M66.835 220.214V235.187H52.4141V220.214H66.835ZM54.1328 233.289H65.3545V222.113H54.1328V233.289Z" fill="white" stroke="#FA2609"/>
<path opacity="0.5" d="M66.835 220.214V235.187H52.4141V220.214H66.835ZM54.1328 233.289H65.3545V222.113H54.1328V233.289Z" fill="white" stroke="#FA2609"/>
<path d="M36.9561 212.652V221.411L27.8203 212.253V203.493L36.9561 212.652Z" fill="white" stroke="#FA2609"/>
<path opacity="0.5" d="M36.9561 212.652V221.411L27.8203 212.253V203.493L36.9561 212.652Z" fill="white" stroke="#FA2609"/>
<path d="M36.9561 222.82V231.579L27.8203 222.421V213.662L36.9561 222.82Z" fill="white" stroke="#FA2609"/>
<path opacity="0.6" d="M36.9561 222.82V231.579L27.8203 222.421V213.662L36.9561 222.82Z" fill="white" stroke="#FA2609"/>
<path d="M36.9561 232.988V241.748L27.8203 232.589V223.83L36.9561 232.988Z" fill="white" stroke="#FA2609"/>
<path opacity="0.8" d="M36.9561 232.988V241.748L27.8203 232.589V223.83L36.9561 232.988Z" fill="white" stroke="#FA2609"/>
<path d="M432.032 249.587V315.582H383.367V249.587H432.032Z" fill="white" stroke="#FA2609"/>
<path opacity="0.7" d="M432.032 249.587V315.582H383.367V249.587H432.032Z" fill="white" stroke="#FA2609"/>
<path opacity="0.7" d="M428.785 252.839V269.279H386.609V252.839H428.785Z" fill="white" stroke="#FA2609"/>
<path opacity="0.7" d="M428.785 274.365V290.805H386.609V274.365H428.785Z" fill="white" stroke="#FA2609"/>
<path d="M419.871 263.19L420.248 263.734L420.668 263.221L425.256 257.616L428.785 261.927V262.911L425.644 259.074L425.256 258.601L424.869 259.074L420.208 264.769L415.499 257.983L415.157 257.491L414.734 257.915L410.225 262.434L405.678 259.872L405.254 259.632L405.004 260.049L400.145 268.135L395.288 260.05L395.037 259.633L394.613 259.873L390.089 262.434L386.609 260.463V259.745L389.843 261.577L390.089 261.716L390.335 261.577L395.256 258.79L399.716 266.213L400.145 266.926L400.573 266.213L405.033 258.79L409.788 261.469L410.119 261.657L410.388 261.387L415.242 256.52L419.871 263.19Z" fill="white" stroke="#FA2609"/>
<path opacity="0.5" d="M419.871 263.19L420.248 263.734L420.668 263.221L425.256 257.616L428.785 261.927V262.911L425.644 259.074L425.256 258.601L424.869 259.074L420.208 264.769L415.499 257.983L415.157 257.491L414.734 257.915L410.225 262.434L405.678 259.872L405.254 259.632L405.004 260.049L400.145 268.135L395.288 260.05L395.037 259.633L394.613 259.873L390.089 262.434L386.609 260.463V259.745L389.843 261.577L390.089 261.716L390.335 261.577L395.256 258.79L399.716 266.213L400.145 266.926L400.573 266.213L405.033 258.79L409.788 261.469L410.119 261.657L410.388 261.387L415.242 256.52L419.871 263.19Z" fill="white" stroke="#FA2609"/>
<path d="M404.929 281.704L405.197 281.974L405.528 281.787L410.282 279.106L414.741 286.529L415.17 287.242L415.599 286.529L420.06 279.105L424.98 281.893L425.227 282.032L425.473 281.893L428.785 280.017V280.736L425.227 282.75L420.703 280.189L420.279 279.95L420.028 280.367L415.17 288.453L410.312 280.366L410.062 279.949L409.639 280.188L405.091 282.751L400.582 278.23L400.158 277.807L399.817 278.299L395.107 285.084L390.446 279.391L390.06 278.918L389.673 279.391L386.609 283.132V282.147L390.06 277.931L394.647 283.537L395.067 284.05L395.445 283.506L400.072 276.836L404.929 281.704Z" fill="white" stroke="#FA2609"/>
<path opacity="0.5" d="M404.929 281.704L405.197 281.974L405.528 281.787L410.282 279.106L414.741 286.529L415.17 287.242L415.599 286.529L420.06 279.105L424.98 281.893L425.227 282.032L425.473 281.893L428.785 280.017V280.736L425.227 282.75L420.703 280.189L420.279 279.95L420.028 280.367L415.17 288.453L410.312 280.366L410.062 279.949L409.639 280.188L405.091 282.751L400.582 278.23L400.158 277.807L399.817 278.299L395.107 285.084L390.446 279.391L390.06 278.918L389.673 279.391L386.609 283.132V282.147L390.06 277.931L394.647 283.537L395.067 284.05L395.445 283.506L400.072 276.836L404.929 281.704Z" fill="white" stroke="#FA2609"/>
<path d="M403.939 295.077H428.679C428.798 295.077 428.854 295.117 428.887 295.156C428.929 295.205 428.962 295.288 428.962 295.389C428.962 295.491 428.928 295.574 428.886 295.624C428.852 295.662 428.797 295.703 428.679 295.703H403.939C403.82 295.703 403.764 295.662 403.731 295.624C403.689 295.574 403.656 295.492 403.656 295.39C403.656 295.288 403.69 295.205 403.732 295.156C403.766 295.117 403.821 295.077 403.939 295.077Z" fill="white" stroke="#FA2609"/>
<path d="M403.939 299.504H425.434C425.553 299.504 425.609 299.544 425.643 299.583C425.685 299.632 425.718 299.715 425.718 299.816C425.718 299.918 425.684 300.001 425.642 300.051C425.608 300.09 425.552 300.13 425.434 300.13H403.939C403.82 300.13 403.764 300.089 403.731 300.051C403.689 300.002 403.656 299.919 403.656 299.817C403.656 299.716 403.69 299.632 403.732 299.583C403.766 299.544 403.821 299.504 403.939 299.504Z" fill="white" stroke="#FA2609"/>
<path d="M403.939 303.93H425.434C425.553 303.93 425.609 303.971 425.643 304.009C425.685 304.058 425.718 304.141 425.718 304.243C425.718 304.344 425.684 304.428 425.642 304.477C425.608 304.516 425.552 304.556 425.434 304.556H403.939C403.82 304.556 403.764 304.516 403.731 304.477C403.689 304.428 403.656 304.345 403.656 304.244C403.656 304.142 403.69 304.059 403.732 304.009C403.766 303.97 403.821 303.93 403.939 303.93Z" fill="white" stroke="#FA2609"/>
<path d="M403.939 308.358H426.516C426.635 308.358 426.69 308.398 426.724 308.437C426.766 308.486 426.799 308.569 426.799 308.67C426.799 308.772 426.766 308.855 426.724 308.905C426.69 308.944 426.634 308.984 426.516 308.984H403.939C403.82 308.984 403.764 308.943 403.731 308.905C403.689 308.856 403.656 308.773 403.656 308.671C403.656 308.57 403.69 308.486 403.732 308.437C403.766 308.398 403.821 308.358 403.939 308.358Z" fill="white" stroke="#FA2609"/>
<g opacity="0.4">
<path d="M403.939 295.077H428.679C428.798 295.077 428.854 295.117 428.887 295.156C428.929 295.205 428.962 295.288 428.962 295.389C428.962 295.491 428.928 295.574 428.886 295.624C428.852 295.662 428.797 295.703 428.679 295.703H403.939C403.82 295.703 403.764 295.662 403.731 295.624C403.689 295.574 403.656 295.492 403.656 295.39C403.656 295.288 403.69 295.205 403.732 295.156C403.766 295.117 403.821 295.077 403.939 295.077Z" fill="white" stroke="#FA2609"/>
<path d="M403.939 299.504H425.434C425.553 299.504 425.609 299.544 425.643 299.583C425.685 299.632 425.718 299.715 425.718 299.816C425.718 299.918 425.684 300.001 425.642 300.051C425.608 300.09 425.552 300.13 425.434 300.13H403.939C403.82 300.13 403.764 300.089 403.731 300.051C403.689 300.002 403.656 299.919 403.656 299.817C403.656 299.716 403.69 299.632 403.732 299.583C403.766 299.544 403.821 299.504 403.939 299.504Z" fill="white" stroke="#FA2609"/>
<path d="M403.939 303.93H425.434C425.553 303.93 425.609 303.971 425.643 304.009C425.685 304.058 425.718 304.141 425.718 304.243C425.718 304.344 425.684 304.428 425.642 304.477C425.608 304.516 425.552 304.556 425.434 304.556H403.939C403.82 304.556 403.764 304.516 403.731 304.477C403.689 304.428 403.656 304.345 403.656 304.244C403.656 304.142 403.69 304.059 403.732 304.009C403.766 303.97 403.821 303.93 403.939 303.93Z" fill="white" stroke="#FA2609"/>
<path d="M403.939 308.358H426.516C426.635 308.358 426.69 308.398 426.724 308.437C426.766 308.486 426.799 308.569 426.799 308.67C426.799 308.772 426.766 308.855 426.724 308.905C426.69 308.944 426.634 308.984 426.516 308.984H403.939C403.82 308.984 403.764 308.943 403.731 308.905C403.689 308.856 403.656 308.773 403.656 308.671C403.656 308.57 403.69 308.486 403.732 308.437C403.766 308.398 403.821 308.358 403.939 308.358Z" fill="white" stroke="#FA2609"/>
</g>
<path d="M429.493 146.537V206.441H385.344V146.537H429.493Z" fill="white" stroke="#FA2609"/>
<path opacity="0.6" d="M429.493 146.537V206.441H385.344V146.537H429.493Z" fill="white" stroke="#FA2609"/>
<path opacity="0.7" d="M426.548 149.493V164.347H388.297V149.493H426.548Z" fill="white" stroke="#FA2609"/>
<path d="M404.118 168.632H426.608C426.704 168.632 426.741 168.664 426.763 168.689C426.793 168.724 426.82 168.788 426.82 168.872C426.82 168.955 426.793 169.019 426.763 169.054C426.741 169.079 426.703 169.111 426.608 169.111H404.118C404.023 169.111 403.985 169.079 403.964 169.054C403.934 169.019 403.906 168.955 403.906 168.872C403.906 168.789 403.934 168.725 403.964 168.689C403.98 168.67 404.006 168.647 404.058 168.637L404.118 168.632Z" fill="white" stroke="#FA2609"/>
<path d="M404.118 172.657H423.659C423.754 172.657 423.792 172.689 423.813 172.713C423.844 172.749 423.871 172.813 423.871 172.896C423.871 172.979 423.844 173.043 423.813 173.079C423.792 173.104 423.754 173.135 423.659 173.135H404.118C404.023 173.135 403.985 173.103 403.964 173.079C403.934 173.043 403.906 172.979 403.906 172.896C403.906 172.813 403.934 172.749 403.964 172.713C403.985 172.688 404.024 172.657 404.118 172.657Z" fill="white" stroke="#FA2609"/>
<path d="M404.118 176.681H423.659C423.754 176.681 423.792 176.713 423.813 176.738C423.844 176.773 423.871 176.837 423.871 176.92C423.871 177.003 423.844 177.068 423.813 177.103C423.792 177.128 423.754 177.16 423.659 177.16H404.118C404.023 177.16 403.985 177.128 403.964 177.103C403.934 177.068 403.906 177.003 403.906 176.92C403.906 176.838 403.934 176.773 403.964 176.738C403.985 176.713 404.024 176.681 404.118 176.681Z" fill="white" stroke="#FA2609"/>
<path d="M404.118 180.706H424.642C424.737 180.706 424.776 180.737 424.797 180.762C424.827 180.798 424.855 180.862 424.854 180.945C424.854 181.028 424.827 181.092 424.797 181.127C424.775 181.152 424.737 181.184 424.642 181.184H404.118C404.023 181.184 403.985 181.152 403.964 181.127C403.934 181.092 403.906 181.028 403.906 180.945C403.906 180.862 403.934 180.798 403.964 180.762C403.985 180.737 404.024 180.706 404.118 180.706Z" fill="white" stroke="#FA2609"/>
<path d="M404.118 184.73H420.709C420.804 184.73 420.843 184.762 420.864 184.787C420.894 184.822 420.922 184.886 420.922 184.969C420.922 185.052 420.894 185.116 420.863 185.152C420.842 185.177 420.804 185.208 420.709 185.208H404.118C404.023 185.208 403.985 185.177 403.964 185.152C403.934 185.116 403.906 185.052 403.906 184.969C403.906 184.886 403.934 184.822 403.964 184.787C403.985 184.762 404.024 184.73 404.118 184.73Z" fill="white" stroke="#FA2609"/>
<path d="M404.118 188.754H426.608C426.704 188.754 426.741 188.786 426.763 188.811C426.793 188.846 426.82 188.911 426.82 188.994C426.82 189.077 426.793 189.141 426.763 189.176C426.741 189.201 426.703 189.233 426.608 189.233H404.118C404.023 189.233 403.985 189.201 403.964 189.176C403.934 189.141 403.906 189.077 403.906 188.994C403.906 188.911 403.934 188.847 403.964 188.811C403.98 188.792 404.006 188.769 404.058 188.759L404.118 188.754Z" fill="white" stroke="#FA2609"/>
<path d="M404.118 192.779H423.659C423.754 192.779 423.792 192.811 423.813 192.835C423.844 192.871 423.871 192.935 423.871 193.018C423.871 193.101 423.844 193.165 423.813 193.201C423.792 193.226 423.754 193.257 423.659 193.257H404.118C404.023 193.257 403.985 193.225 403.964 193.201C403.934 193.165 403.906 193.101 403.906 193.018C403.906 192.935 403.934 192.871 403.964 192.835C403.985 192.811 404.024 192.779 404.118 192.779Z" fill="white" stroke="#FA2609"/>
<path d="M404.118 196.803H423.659C423.754 196.803 423.792 196.835 423.813 196.86C423.844 196.895 423.871 196.96 423.871 197.042C423.871 197.125 423.844 197.19 423.813 197.225C423.792 197.25 423.754 197.282 423.659 197.282H404.118C404.023 197.282 403.985 197.25 403.964 197.225C403.934 197.19 403.906 197.125 403.906 197.042C403.906 196.96 403.934 196.895 403.964 196.86C403.985 196.835 404.024 196.803 404.118 196.803Z" fill="white" stroke="#FA2609"/>
<path d="M404.118 200.828H424.642C424.737 200.828 424.776 200.859 424.797 200.884C424.827 200.92 424.855 200.984 424.854 201.067C424.854 201.15 424.827 201.214 424.797 201.25C424.775 201.274 424.737 201.306 424.642 201.306H404.118C404.023 201.306 403.985 201.274 403.964 201.25C403.934 201.214 403.906 201.15 403.906 201.067C403.906 200.984 403.934 200.92 403.964 200.884C403.985 200.859 404.024 200.828 404.118 200.828Z" fill="white" stroke="#FA2609"/>
<g opacity="0.4">
<path d="M404.118 168.632H426.608C426.704 168.632 426.741 168.664 426.763 168.689C426.793 168.724 426.82 168.788 426.82 168.872C426.82 168.955 426.793 169.019 426.763 169.054C426.741 169.079 426.703 169.111 426.608 169.111H404.118C404.023 169.111 403.985 169.079 403.964 169.054C403.934 169.019 403.906 168.955 403.906 168.872C403.906 168.789 403.934 168.725 403.964 168.689C403.98 168.67 404.006 168.647 404.058 168.637L404.118 168.632Z" fill="white" stroke="#FA2609"/>
</g>
<g opacity="0.4">
<path d="M404.118 172.657H423.659C423.754 172.657 423.792 172.689 423.813 172.713C423.844 172.749 423.871 172.813 423.871 172.896C423.871 172.979 423.844 173.043 423.813 173.079C423.792 173.104 423.754 173.135 423.659 173.135H404.118C404.023 173.135 403.985 173.103 403.964 173.079C403.934 173.043 403.906 172.979 403.906 172.896C403.906 172.813 403.934 172.749 403.964 172.713C403.985 172.688 404.024 172.657 404.118 172.657Z" fill="white" stroke="#FA2609"/>
</g>
<g opacity="0.4">
<path d="M404.118 176.681H423.659C423.754 176.681 423.792 176.713 423.813 176.738C423.844 176.773 423.871 176.837 423.871 176.92C423.871 177.003 423.844 177.068 423.813 177.103C423.792 177.128 423.754 177.16 423.659 177.16H404.118C404.023 177.16 403.985 177.128 403.964 177.103C403.934 177.068 403.906 177.003 403.906 176.92C403.906 176.838 403.934 176.773 403.964 176.738C403.985 176.713 404.024 176.681 404.118 176.681Z" fill="white" stroke="#FA2609"/>
</g>
<g opacity="0.4">
<path d="M404.118 180.706H424.642C424.737 180.706 424.776 180.737 424.797 180.762C424.827 180.798 424.855 180.862 424.854 180.945C424.854 181.028 424.827 181.092 424.797 181.127C424.775 181.152 424.737 181.184 424.642 181.184H404.118C404.023 181.184 403.985 181.152 403.964 181.127C403.934 181.092 403.906 181.028 403.906 180.945C403.906 180.862 403.934 180.798 403.964 180.762C403.985 180.737 404.024 180.706 404.118 180.706Z" fill="white" stroke="#FA2609"/>
</g>
<g opacity="0.4">
<path d="M404.118 184.73H420.709C420.804 184.73 420.843 184.762 420.864 184.787C420.894 184.822 420.922 184.886 420.922 184.969C420.922 185.052 420.894 185.116 420.863 185.152C420.842 185.177 420.804 185.208 420.709 185.208H404.118C404.023 185.208 403.985 185.177 403.964 185.152C403.934 185.116 403.906 185.052 403.906 184.969C403.906 184.886 403.934 184.822 403.964 184.787C403.985 184.762 404.024 184.73 404.118 184.73Z" fill="white" stroke="#FA2609"/>
</g>
<g opacity="0.4">
<path d="M404.118 188.754H426.608C426.704 188.754 426.741 188.786 426.763 188.811C426.793 188.846 426.82 188.911 426.82 188.994C426.82 189.077 426.793 189.141 426.763 189.176C426.741 189.201 426.703 189.233 426.608 189.233H404.118C404.023 189.233 403.985 189.201 403.964 189.176C403.934 189.141 403.906 189.077 403.906 188.994C403.906 188.911 403.934 188.847 403.964 188.811C403.98 188.792 404.006 188.769 404.058 188.759L404.118 188.754Z" fill="white" stroke="#FA2609"/>
</g>
<g opacity="0.4">
<path d="M404.118 192.779H423.659C423.754 192.779 423.792 192.811 423.813 192.835C423.844 192.871 423.871 192.935 423.871 193.018C423.871 193.101 423.844 193.165 423.813 193.201C423.792 193.226 423.754 193.257 423.659 193.257H404.118C404.023 193.257 403.985 193.225 403.964 193.201C403.934 193.165 403.906 193.101 403.906 193.018C403.906 192.935 403.934 192.871 403.964 192.835C403.985 192.811 404.024 192.779 404.118 192.779Z" fill="white" stroke="#FA2609"/>
</g>
<g opacity="0.4">
<path d="M404.118 196.803H423.659C423.754 196.803 423.792 196.835 423.813 196.86C423.844 196.895 423.871 196.96 423.871 197.042C423.871 197.125 423.844 197.19 423.813 197.225C423.792 197.25 423.754 197.282 423.659 197.282H404.118C404.023 197.282 403.985 197.25 403.964 197.225C403.934 197.19 403.906 197.125 403.906 197.042C403.906 196.96 403.934 196.895 403.964 196.86C403.985 196.835 404.024 196.803 404.118 196.803Z" fill="white" stroke="#FA2609"/>
</g>
<g opacity="0.4">
<path d="M404.118 200.828H424.642C424.737 200.828 424.776 200.859 424.797 200.884C424.827 200.92 424.855 200.984 424.854 201.067C424.854 201.15 424.827 201.214 424.797 201.25C424.775 201.274 424.737 201.306 424.642 201.306H404.118C404.023 201.306 403.985 201.274 403.964 201.25C403.934 201.214 403.906 201.15 403.906 201.067C403.906 200.984 403.934 200.92 403.964 200.884C403.985 200.859 404.024 200.828 404.118 200.828Z" fill="white" stroke="#FA2609"/>
</g>
<path d="M398.361 169.371V179.461H388.297V169.371H398.361Z" fill="white" stroke="#FA2609"/>
<path opacity="0.3" d="M398.361 169.371V179.461H388.297V169.371H398.361Z" fill="white" stroke="#FA2609"/>
<path d="M399.433 157.905V162.909H397.438V157.905H399.433Z" fill="white" stroke="#FA2609"/>
<path d="M405.425 154.902V162.909H403.43V154.902H405.425Z" fill="white" stroke="#FA2609"/>
<path d="M411.417 156.403V162.909H409.422V156.403H411.417Z" fill="white" stroke="#FA2609"/>
<path d="M417.401 151.9V162.91H415.406V151.9H417.401Z" fill="white" stroke="#FA2609"/>
<path d="M407.384 197.136V257.04H363.234V197.136H407.384Z" fill="white" stroke="#FA2609"/>
<path opacity="0.8" d="M407.384 197.136V257.04H363.234V197.136H407.384Z" fill="white" stroke="#FA2609"/>
<path d="M382.009 202.185H404.499C404.594 202.185 404.632 202.217 404.653 202.242C404.684 202.277 404.711 202.341 404.711 202.424C404.711 202.507 404.684 202.571 404.653 202.607C404.632 202.632 404.594 202.664 404.499 202.664H382.009C381.914 202.663 381.876 202.632 381.854 202.607C381.824 202.572 381.797 202.507 381.797 202.424C381.797 202.342 381.824 202.277 381.854 202.242C381.876 202.217 381.914 202.185 382.009 202.185Z" fill="white" stroke="#FA2609"/>
<path d="M382.009 206.209H401.55C401.645 206.21 401.683 206.241 401.704 206.266C401.734 206.302 401.762 206.366 401.762 206.449C401.762 206.532 401.734 206.596 401.704 206.631C401.683 206.656 401.645 206.688 401.55 206.688H382.009C381.914 206.688 381.876 206.656 381.854 206.631C381.824 206.596 381.797 206.532 381.797 206.449C381.797 206.366 381.824 206.302 381.854 206.266C381.871 206.247 381.896 206.224 381.948 206.214L382.009 206.209Z" fill="white" stroke="#FA2609"/>
<path d="M382.009 210.234H401.55C401.645 210.234 401.683 210.266 401.704 210.291C401.734 210.326 401.762 210.39 401.762 210.473C401.762 210.556 401.734 210.62 401.704 210.656C401.683 210.681 401.645 210.712 401.55 210.712H382.009C381.914 210.712 381.876 210.681 381.854 210.656C381.824 210.62 381.797 210.556 381.797 210.473C381.797 210.39 381.824 210.326 381.854 210.291C381.876 210.266 381.914 210.234 382.009 210.234Z" fill="white" stroke="#FA2609"/>
<path d="M382.009 214.258H402.532C402.628 214.258 402.666 214.29 402.688 214.315C402.718 214.35 402.745 214.415 402.745 214.498C402.745 214.58 402.718 214.645 402.688 214.68C402.666 214.705 402.627 214.737 402.532 214.737H382.009C381.914 214.737 381.876 214.705 381.854 214.68C381.824 214.645 381.797 214.581 381.797 214.498C381.797 214.415 381.824 214.351 381.854 214.315C381.876 214.29 381.914 214.258 382.009 214.258Z" fill="white" stroke="#FA2609"/>
<path d="M382.009 218.283H398.6C398.695 218.283 398.734 218.315 398.755 218.339C398.785 218.375 398.813 218.439 398.812 218.522C398.812 218.605 398.784 218.669 398.754 218.705C398.732 218.73 398.694 218.761 398.6 218.761H382.009C381.914 218.761 381.876 218.729 381.854 218.705C381.824 218.669 381.797 218.605 381.797 218.522C381.797 218.439 381.824 218.375 381.854 218.339C381.876 218.314 381.914 218.283 382.009 218.283Z" fill="white" stroke="#FA2609"/>
<path d="M382.009 222.307H404.499C404.594 222.307 404.632 222.339 404.653 222.364C404.684 222.399 404.711 222.463 404.711 222.546C404.711 222.629 404.684 222.694 404.653 222.729C404.632 222.754 404.594 222.786 404.499 222.786H382.009C381.914 222.786 381.876 222.754 381.854 222.729C381.824 222.694 381.797 222.629 381.797 222.546C381.797 222.464 381.824 222.399 381.854 222.364C381.876 222.339 381.914 222.307 382.009 222.307Z" fill="white" stroke="#FA2609"/>
<path d="M382.009 226.332H401.55C401.645 226.332 401.683 226.363 401.704 226.388C401.734 226.424 401.762 226.488 401.762 226.571C401.762 226.654 401.734 226.718 401.704 226.753C401.683 226.778 401.645 226.81 401.55 226.81H382.009C381.914 226.81 381.876 226.778 381.854 226.753C381.824 226.718 381.797 226.654 381.797 226.571C381.797 226.488 381.824 226.424 381.854 226.388C381.871 226.369 381.896 226.346 381.948 226.336L382.009 226.332Z" fill="white" stroke="#FA2609"/>
<path d="M382.009 230.356H401.55C401.645 230.356 401.683 230.388 401.704 230.413C401.734 230.448 401.762 230.512 401.762 230.595C401.762 230.678 401.734 230.742 401.704 230.778C401.683 230.803 401.645 230.834 401.55 230.834H382.009C381.914 230.834 381.876 230.803 381.854 230.778C381.824 230.742 381.797 230.678 381.797 230.595C381.797 230.512 381.824 230.448 381.854 230.413C381.876 230.388 381.914 230.356 382.009 230.356Z" fill="white" stroke="#FA2609"/>
<path d="M382.009 238.409H398.6C398.695 238.409 398.734 238.441 398.755 238.466C398.785 238.501 398.813 238.566 398.812 238.648C398.812 238.731 398.784 238.796 398.754 238.831C398.732 238.856 398.694 238.888 398.6 238.888H382.009C381.914 238.888 381.876 238.856 381.854 238.831C381.824 238.796 381.797 238.731 381.797 238.648C381.797 238.566 381.824 238.501 381.854 238.466C381.876 238.441 381.914 238.409 382.009 238.409Z" fill="white" stroke="#FA2609"/>
<path d="M382.009 242.434H404.499C404.594 242.434 404.632 242.465 404.653 242.49C404.684 242.526 404.711 242.59 404.711 242.673C404.711 242.756 404.684 242.82 404.653 242.855C404.632 242.88 404.594 242.912 404.499 242.912H382.009C381.914 242.912 381.876 242.88 381.854 242.855C381.824 242.82 381.797 242.756 381.797 242.673C381.797 242.59 381.824 242.526 381.854 242.49C381.876 242.465 381.914 242.434 382.009 242.434Z" fill="white" stroke="#FA2609"/>
<path d="M382.009 246.458H401.55C401.645 246.458 401.683 246.49 401.704 246.515C401.734 246.55 401.762 246.614 401.762 246.697C401.762 246.78 401.734 246.844 401.704 246.88C401.683 246.905 401.645 246.936 401.55 246.937H382.009C381.914 246.936 381.876 246.905 381.854 246.88C381.824 246.844 381.797 246.78 381.797 246.697C381.797 246.614 381.824 246.55 381.854 246.515C381.876 246.49 381.914 246.458 382.009 246.458Z" fill="white" stroke="#FA2609"/>
<path d="M382.009 250.482H401.55C401.645 250.483 401.683 250.514 401.704 250.539C401.734 250.574 401.762 250.639 401.762 250.722C401.762 250.805 401.734 250.869 401.704 250.904C401.683 250.929 401.645 250.961 401.55 250.961H382.009C381.914 250.961 381.876 250.929 381.854 250.904C381.824 250.869 381.797 250.805 381.797 250.722C381.797 250.639 381.824 250.575 381.854 250.539C381.871 250.52 381.896 250.497 381.948 250.487L382.009 250.482Z" fill="white" stroke="#FA2609"/>
<path d="M382.009 234.38H402.532C402.628 234.38 402.666 234.412 402.688 234.437C402.718 234.472 402.745 234.537 402.745 234.62C402.745 234.702 402.718 234.767 402.688 234.802C402.666 234.827 402.627 234.859 402.532 234.859H382.009C381.914 234.859 381.876 234.827 381.854 234.802C381.824 234.767 381.797 234.703 381.797 234.62C381.797 234.537 381.824 234.473 381.854 234.437C381.876 234.412 381.914 234.38 382.009 234.38Z" fill="white" stroke="#FA2609"/>
<g opacity="0.4">
<path d="M382.009 202.185H404.499C404.594 202.185 404.632 202.217 404.653 202.242C404.684 202.277 404.711 202.341 404.711 202.424C404.711 202.507 404.684 202.571 404.653 202.607C404.632 202.632 404.594 202.664 404.499 202.664H382.009C381.914 202.663 381.876 202.632 381.854 202.607C381.824 202.572 381.797 202.507 381.797 202.424C381.797 202.342 381.824 202.277 381.854 202.242C381.876 202.217 381.914 202.185 382.009 202.185Z" fill="white" stroke="#FA2609"/>
<path d="M382.009 206.209H401.55C401.645 206.21 401.683 206.241 401.704 206.266C401.734 206.302 401.762 206.366 401.762 206.449C401.762 206.532 401.734 206.596 401.704 206.631C401.683 206.656 401.645 206.688 401.55 206.688H382.009C381.914 206.688 381.876 206.656 381.854 206.631C381.824 206.596 381.797 206.532 381.797 206.449C381.797 206.366 381.824 206.302 381.854 206.266C381.871 206.247 381.896 206.224 381.948 206.214L382.009 206.209Z" fill="white" stroke="#FA2609"/>
<path d="M382.009 210.234H401.55C401.645 210.234 401.683 210.266 401.704 210.291C401.734 210.326 401.762 210.39 401.762 210.473C401.762 210.556 401.734 210.62 401.704 210.656C401.683 210.681 401.645 210.712 401.55 210.712H382.009C381.914 210.712 381.876 210.681 381.854 210.656C381.824 210.62 381.797 210.556 381.797 210.473C381.797 210.39 381.824 210.326 381.854 210.291C381.876 210.266 381.914 210.234 382.009 210.234Z" fill="white" stroke="#FA2609"/>
<path d="M382.009 214.258H402.532C402.628 214.258 402.666 214.29 402.688 214.315C402.718 214.35 402.745 214.415 402.745 214.498C402.745 214.58 402.718 214.645 402.688 214.68C402.666 214.705 402.627 214.737 402.532 214.737H382.009C381.914 214.737 381.876 214.705 381.854 214.68C381.824 214.645 381.797 214.581 381.797 214.498C381.797 214.415 381.824 214.351 381.854 214.315C381.876 214.29 381.914 214.258 382.009 214.258Z" fill="white" stroke="#FA2609"/>
<path d="M382.009 218.283H398.6C398.695 218.283 398.734 218.315 398.755 218.339C398.785 218.375 398.813 218.439 398.812 218.522C398.812 218.605 398.784 218.669 398.754 218.705C398.732 218.73 398.694 218.761 398.6 218.761H382.009C381.914 218.761 381.876 218.729 381.854 218.705C381.824 218.669 381.797 218.605 381.797 218.522C381.797 218.439 381.824 218.375 381.854 218.339C381.876 218.314 381.914 218.283 382.009 218.283Z" fill="white" stroke="#FA2609"/>
<path d="M382.009 222.307H404.499C404.594 222.307 404.632 222.339 404.653 222.364C404.684 222.399 404.711 222.463 404.711 222.546C404.711 222.629 404.684 222.694 404.653 222.729C404.632 222.754 404.594 222.786 404.499 222.786H382.009C381.914 222.786 381.876 222.754 381.854 222.729C381.824 222.694 381.797 222.629 381.797 222.546C381.797 222.464 381.824 222.399 381.854 222.364C381.876 222.339 381.914 222.307 382.009 222.307Z" fill="white" stroke="#FA2609"/>
<path d="M382.009 226.332H401.55C401.645 226.332 401.683 226.363 401.704 226.388C401.734 226.424 401.762 226.488 401.762 226.571C401.762 226.654 401.734 226.718 401.704 226.753C401.683 226.778 401.645 226.81 401.55 226.81H382.009C381.914 226.81 381.876 226.778 381.854 226.753C381.824 226.718 381.797 226.654 381.797 226.571C381.797 226.488 381.824 226.424 381.854 226.388C381.871 226.369 381.896 226.346 381.948 226.336L382.009 226.332Z" fill="white" stroke="#FA2609"/>
<path d="M382.009 230.356H401.55C401.645 230.356 401.683 230.388 401.704 230.413C401.734 230.448 401.762 230.512 401.762 230.595C401.762 230.678 401.734 230.742 401.704 230.778C401.683 230.803 401.645 230.834 401.55 230.834H382.009C381.914 230.834 381.876 230.803 381.854 230.778C381.824 230.742 381.797 230.678 381.797 230.595C381.797 230.512 381.824 230.448 381.854 230.413C381.876 230.388 381.914 230.356 382.009 230.356Z" fill="white" stroke="#FA2609"/>
<path d="M382.009 238.409H398.6C398.695 238.409 398.734 238.441 398.755 238.466C398.785 238.501 398.813 238.566 398.812 238.648C398.812 238.731 398.784 238.796 398.754 238.831C398.732 238.856 398.694 238.888 398.6 238.888H382.009C381.914 238.888 381.876 238.856 381.854 238.831C381.824 238.796 381.797 238.731 381.797 238.648C381.797 238.566 381.824 238.501 381.854 238.466C381.876 238.441 381.914 238.409 382.009 238.409Z" fill="white" stroke="#FA2609"/>
<path d="M382.009 242.434H404.499C404.594 242.434 404.632 242.465 404.653 242.49C404.684 242.526 404.711 242.59 404.711 242.673C404.711 242.756 404.684 242.82 404.653 242.855C404.632 242.88 404.594 242.912 404.499 242.912H382.009C381.914 242.912 381.876 242.88 381.854 242.855C381.824 242.82 381.797 242.756 381.797 242.673C381.797 242.59 381.824 242.526 381.854 242.49C381.876 242.465 381.914 242.434 382.009 242.434Z" fill="white" stroke="#FA2609"/>
<path d="M382.009 246.458H401.55C401.645 246.458 401.683 246.49 401.704 246.515C401.734 246.55 401.762 246.614 401.762 246.697C401.762 246.78 401.734 246.844 401.704 246.88C401.683 246.905 401.645 246.936 401.55 246.937H382.009C381.914 246.936 381.876 246.905 381.854 246.88C381.824 246.844 381.797 246.78 381.797 246.697C381.797 246.614 381.824 246.55 381.854 246.515C381.876 246.49 381.914 246.458 382.009 246.458Z" fill="white" stroke="#FA2609"/>
<path d="M382.009 250.482H401.55C401.645 250.483 401.683 250.514 401.704 250.539C401.734 250.574 401.762 250.639 401.762 250.722C401.762 250.805 401.734 250.869 401.704 250.904C401.683 250.929 401.645 250.961 401.55 250.961H382.009C381.914 250.961 381.876 250.929 381.854 250.904C381.824 250.869 381.797 250.805 381.797 250.722C381.797 250.639 381.824 250.575 381.854 250.539C381.871 250.52 381.896 250.497 381.948 250.487L382.009 250.482Z" fill="white" stroke="#FA2609"/>
<path d="M382.009 234.38H402.532C402.628 234.38 402.666 234.412 402.688 234.437C402.718 234.472 402.745 234.537 402.745 234.62C402.745 234.702 402.718 234.767 402.688 234.802C402.666 234.827 402.627 234.859 402.532 234.859H382.009C381.914 234.859 381.876 234.827 381.854 234.802C381.824 234.767 381.797 234.703 381.797 234.62C381.797 234.537 381.824 234.473 381.854 234.437C381.876 234.412 381.914 234.38 382.009 234.38Z" fill="white" stroke="#FA2609"/>
</g>
<path d="M368.979 223.57C368.415 224.268 368.043 225.13 367.945 226.072H366.42C366.527 224.71 367.065 223.47 367.899 222.489L368.979 223.57Z" fill="white" stroke="#FA2609"/>
<path d="M367.945 227.072C368.178 229.306 369.947 231.082 372.178 231.315V232.847C369.109 232.604 366.661 230.151 366.42 227.072H367.945Z" fill="white" stroke="#FA2609"/>
<path opacity="0.3" d="M367.945 227.072C368.178 229.306 369.947 231.082 372.178 231.315V232.847C369.109 232.604 366.661 230.151 366.42 227.072H367.945Z" fill="white" stroke="#FA2609"/>
<path d="M372.177 221.827C371.238 221.925 370.38 222.298 369.684 222.863L368.604 221.781C369.582 220.944 370.818 220.403 372.177 220.295V221.827Z" fill="white" stroke="#FA2609"/>
<path opacity="0.5" d="M372.177 221.827C371.238 221.925 370.38 222.298 369.684 222.863L368.604 221.781C369.582 220.944 370.818 220.403 372.177 220.295V221.827Z" fill="white" stroke="#FA2609"/>
<path d="M373.18 220.295C376.413 220.551 378.959 223.262 378.959 226.571C378.959 229.88 376.413 232.59 373.18 232.845V231.314C375.574 231.064 377.439 229.035 377.439 226.571C377.439 224.107 375.574 222.077 373.18 221.827V220.295Z" fill="white" stroke="#FA2609"/>
<path opacity="0.2" d="M378.934 227.071C378.827 228.433 378.287 229.672 377.453 230.653L376.374 229.572C376.938 228.874 377.31 228.013 377.408 227.071H378.934Z" fill="white" stroke="#FA2609"/>
<path d="M369.684 211.409C370.38 211.974 371.238 212.346 372.178 212.444V213.976C370.818 213.868 369.582 213.328 368.604 212.491L369.684 211.409Z" fill="white" stroke="#FA2609"/>
<path d="M378.938 208.201C378.696 211.28 376.249 213.733 373.18 213.976V212.444C375.41 212.211 377.18 210.435 377.412 208.201H378.938Z" fill="white" stroke="#FA2609"/>
<path opacity="0.3" d="M378.938 208.201C378.696 211.28 376.249 213.733 373.18 213.976V212.444C375.41 212.211 377.18 210.435 377.412 208.201H378.938Z" fill="white" stroke="#FA2609"/>
<path d="M367.945 208.201C368.043 209.143 368.414 210.003 368.979 210.701L367.899 211.783C367.065 210.802 366.527 209.563 366.42 208.201H367.945Z" fill="white" stroke="#FA2609"/>
<path opacity="0.5" d="M367.945 208.201C368.043 209.143 368.414 210.003 368.979 210.701L367.899 211.783C367.065 210.802 366.527 209.563 366.42 208.201H367.945Z" fill="white" stroke="#FA2609"/>
<path d="M372.678 201.405C375.976 201.405 378.681 203.956 378.936 207.201H377.411C377.162 204.803 375.139 202.932 372.678 202.932C370.216 202.932 368.194 204.803 367.945 207.201H366.42C366.674 203.957 369.379 201.405 372.678 201.405Z" fill="white" stroke="#FA2609"/>
<path opacity="0.2" d="M373.18 201.426C374.538 201.533 375.774 202.074 376.752 202.911L375.673 203.993C374.977 203.429 374.119 203.055 373.18 202.957V201.426Z" fill="white" stroke="#FA2609"/>
<path d="M377.453 241.357C378.288 242.338 378.827 243.578 378.934 244.941H377.408C377.31 243.999 376.939 243.138 376.375 242.44L377.453 241.357Z" fill="white" stroke="#FA2609"/>
<path d="M378.938 245.941C378.696 249.02 376.248 251.473 373.18 251.715V250.184C375.411 249.951 377.18 248.174 377.412 245.941H378.938Z" fill="white" stroke="#FA2609"/>
<path opacity="0.3" d="M378.938 245.941C378.696 249.02 376.248 251.473 373.18 251.715V250.184C375.411 249.951 377.18 248.174 377.412 245.941H378.938Z" fill="white" stroke="#FA2609"/>
<path d="M373.18 239.166C374.538 239.273 375.773 239.814 376.752 240.651L375.672 241.733C374.976 241.168 374.119 240.795 373.18 240.697V239.166Z" fill="white" stroke="#FA2609"/>
<path opacity="0.5" d="M373.18 239.166C374.538 239.273 375.773 239.814 376.752 240.651L375.672 241.733C374.976 241.168 374.119 240.795 373.18 240.697V239.166Z" fill="white" stroke="#FA2609"/>
<path d="M372.178 240.697C369.784 240.947 367.919 242.977 367.919 245.441C367.919 247.906 369.784 249.933 372.178 250.184V251.715C368.944 251.46 366.398 248.75 366.398 245.441C366.399 242.132 368.945 239.421 372.178 239.166V240.697Z" fill="white" stroke="#FA2609"/>
<path opacity="0.2" d="M367.945 245.94C368.043 246.882 368.415 247.743 368.979 248.441L367.899 249.522C367.065 248.541 366.527 247.302 366.42 245.94H367.945Z" fill="white" stroke="#FA2609"/>
<path d="M271.612 318.41C272.933 318.41 274.005 319.483 274.005 320.809V322.423C274.005 323.751 272.932 324.825 271.612 324.825H245.688V318.41H271.612Z" fill="white" stroke="#FA2609"/>
<path d="M193.528 318.41H249.758C250.967 318.41 251.951 319.394 251.951 320.609V322.625C251.951 323.841 250.967 324.825 249.758 324.825H193.528C192.319 324.824 191.336 323.841 191.336 322.625V320.609C191.336 319.394 192.319 318.41 193.528 318.41Z" fill="white" stroke="#FA2609"/>
<path opacity="0.5" d="M193.528 318.41H249.758C250.967 318.41 251.951 319.394 251.951 320.609V322.625C251.951 323.841 250.967 324.825 249.758 324.825H193.528C192.319 324.824 191.336 323.841 191.336 322.625V320.609C191.336 319.394 192.319 318.41 193.528 318.41Z" fill="white" stroke="#FA2609"/>
<path d="M242.147 284.252L251.003 317.41H237.906V284.252H242.147Z" fill="white" stroke="#FA2609"/>
<path d="M240.068 284.252L248.924 317.41H220.956L218.146 284.252H240.068Z" fill="white" stroke="#FA2609"/>
<path opacity="0.3" d="M240.068 284.252L248.924 317.41H220.956L218.146 284.252H240.068Z" fill="white" stroke="#FA2609"/>
<path d="M322.818 186.07C325.211 186.07 326.995 187.941 326.907 190.318L326.893 190.55L317.536 297.755C317.316 300.274 315.091 302.322 312.586 302.322H299.913L310.059 186.07H322.818Z" fill="white" stroke="#FA2609"/>
<path d="M159.755 186.069H319.771C322.164 186.069 323.947 187.94 323.858 190.317L323.845 190.549L314.487 297.754C314.268 300.273 312.043 302.321 309.537 302.321H149.521C147.128 302.321 145.344 300.45 145.433 298.073L145.447 297.841L154.804 190.636C155.024 188.118 157.25 186.069 159.755 186.069Z" fill="white" stroke="#FA2609"/>
<path opacity="0.7" d="M159.755 186.069H319.771C322.164 186.069 323.947 187.94 323.858 190.317L323.845 190.549L314.487 297.754C314.268 300.273 312.043 302.321 309.537 302.321H149.521C147.128 302.321 145.344 300.45 145.433 298.073L145.447 297.841L154.804 190.636C155.024 188.118 157.25 186.069 159.755 186.069Z" fill="white" stroke="#FA2609"/>
<path opacity="0.9" d="M164.713 191.847H313.798C315.836 191.847 317.353 193.439 317.278 195.463L317.267 195.661L309.492 284.736C309.305 286.886 307.402 288.637 305.264 288.637H156.179C154.14 288.637 152.623 287.044 152.698 285.02L152.71 284.823L160.484 195.748C160.672 193.597 162.575 191.847 164.713 191.847Z" fill="white" stroke="#FA2609"/>
<path d="M266.606 212.843L265.78 222.299H261.569L262.395 212.843H266.606Z" fill="white" stroke="#FA2609"/>
<path opacity="0.2" d="M266.606 212.843L265.78 222.299H261.569L262.395 212.843H266.606Z" fill="white" stroke="#FA2609"/>
<path d="M277.491 207.615L276.21 222.299H271.999L273.28 207.615H277.491Z" fill="white" stroke="#FA2609"/>
<path d="M287.693 210.229L286.641 222.298H282.429L283.482 210.229H287.693Z" fill="white" stroke="#FA2609"/>
<path d="M298.808 202.387L297.07 222.299H292.858L294.596 202.387H298.808Z" fill="white" stroke="#FA2609"/>
<path opacity="0.4" d="M298.808 202.387L297.07 222.299H292.858L294.596 202.387H298.808Z" fill="white" stroke="#FA2609"/>
<path d="M257.717 201.462C257.857 201.462 257.961 201.507 258.019 201.56C258.052 201.59 258.089 201.64 258.1 201.734V201.844C257.518 208.493 256.938 215.142 256.358 221.791L256.312 222.334H302.747C302.915 222.334 303.008 222.394 303.065 222.461C303.132 222.539 303.177 222.659 303.177 222.799C303.177 222.939 303.131 223.06 303.064 223.138C303.007 223.205 302.914 223.265 302.747 223.265H255.811C255.713 223.265 255.58 223.215 255.474 223.114C255.396 223.04 255.359 222.966 255.348 222.902L255.345 222.843L257.17 201.931C257.196 201.635 257.427 201.462 257.717 201.462Z" fill="white" stroke="#FA2609"/>
<path opacity="0.5" d="M257.717 201.462C257.857 201.462 257.961 201.507 258.019 201.56C258.052 201.59 258.089 201.64 258.1 201.734V201.844C257.518 208.493 256.938 215.142 256.358 221.791L256.312 222.334H302.747C302.915 222.334 303.008 222.394 303.065 222.461C303.132 222.539 303.177 222.659 303.177 222.799C303.177 222.939 303.131 223.06 303.064 223.138C303.007 223.205 302.914 223.265 302.747 223.265H255.811C255.713 223.265 255.58 223.215 255.474 223.114C255.396 223.04 255.359 222.966 255.348 222.902L255.345 222.843L257.17 201.931C257.196 201.635 257.427 201.462 257.717 201.462Z" fill="white" stroke="#FA2609"/>
<path d="M180.188 217.833C181.376 218.967 182.959 219.69 184.752 219.811L184.451 223.251C181.686 223.141 179.274 222.039 177.519 220.293L180.188 217.833Z" fill="white" stroke="#FA2609"/>
<path opacity="0.5" d="M180.188 217.833C181.376 218.967 182.959 219.69 184.752 219.811L184.451 223.251C181.686 223.141 179.274 222.039 177.519 220.293L180.188 217.833Z" fill="white" stroke="#FA2609"/>
<path d="M197.28 212.344C196.491 218.238 191.351 222.974 185.452 223.251L185.752 219.818C189.796 219.59 193.284 216.371 193.862 212.344H197.28Z" fill="white" stroke="#FA2609"/>
<path opacity="0.1" d="M197.28 212.344C196.491 218.238 191.351 222.974 185.452 223.251L185.752 219.818C189.796 219.59 193.284 216.371 193.862 212.344H197.28Z" fill="white" stroke="#FA2609"/>
<path d="M177.95 212.344C177.914 214.152 178.491 215.803 179.511 217.095L176.842 219.556C175.269 217.643 174.389 215.127 174.523 212.344H177.95Z" fill="white" stroke="#FA2609"/>
<path d="M186.986 200.421C193.106 200.421 197.662 205.26 197.369 211.342H193.943C194.028 207.169 190.84 203.853 186.6 203.853C182.365 203.853 178.631 207.164 178.031 211.342H174.614C175.428 205.267 180.862 200.422 186.986 200.421Z" fill="white" stroke="#FA2609"/>
<path opacity="0.2" d="M186.986 200.421C193.106 200.421 197.662 205.26 197.369 211.342H193.943C194.028 207.169 190.84 203.853 186.6 203.853C182.365 203.853 178.631 207.164 178.031 211.342H174.614C175.428 205.267 180.862 200.422 186.986 200.421Z" fill="white" stroke="#FA2609"/>
<path opacity="0.6" d="M187.445 200.433C190.211 200.543 192.623 201.647 194.379 203.392L191.709 205.852C190.521 204.719 188.938 203.996 187.145 203.875L187.445 200.433Z" fill="white" stroke="#FA2609"/>
<path d="M213.312 217.833C214.501 218.967 216.084 219.69 217.877 219.811L217.576 223.251C214.811 223.141 212.399 222.039 210.644 220.293L213.312 217.833Z" fill="white" stroke="#FA2609"/>
<path opacity="0.5" d="M213.312 217.833C214.501 218.967 216.084 219.69 217.877 219.811L217.576 223.251C214.811 223.141 212.399 222.039 210.644 220.293L213.312 217.833Z" fill="white" stroke="#FA2609"/>
<path d="M230.405 212.344C229.616 218.238 224.476 222.974 218.577 223.251L218.877 219.818C222.921 219.59 226.409 216.371 226.987 212.344H230.405Z" fill="white" stroke="#FA2609"/>
<path opacity="0.1" d="M230.405 212.344C229.616 218.238 224.476 222.974 218.577 223.251L218.877 219.818C222.921 219.59 226.409 216.371 226.987 212.344H230.405Z" fill="white" stroke="#FA2609"/>
<path d="M211.075 212.344C211.039 214.152 211.615 215.803 212.636 217.095L209.967 219.556C208.394 217.643 207.514 215.127 207.648 212.344H211.075Z" fill="white" stroke="#FA2609"/>
<path d="M220.111 200.421C226.231 200.421 230.787 205.26 230.494 211.342H227.068C227.153 207.169 223.965 203.853 219.725 203.853C215.49 203.853 211.756 207.164 211.156 211.342H207.739C208.553 205.267 213.987 200.422 220.111 200.421Z" fill="white" stroke="#FA2609"/>
<path opacity="0.2" d="M220.111 200.421C226.231 200.421 230.787 205.26 230.494 211.342H227.068C227.153 207.169 223.965 203.853 219.725 203.853C215.49 203.853 211.756 207.164 211.156 211.342H207.739C208.553 205.267 213.987 200.422 220.111 200.421Z" fill="white" stroke="#FA2609"/>
<path opacity="0.6" d="M220.57 200.433C223.336 200.543 225.748 201.647 227.504 203.392L224.834 205.852C223.646 204.719 222.063 203.996 220.27 203.875L220.57 200.433Z" fill="white" stroke="#FA2609"/>
<path d="M263.079 255.846L262.622 261.084H257.397L257.854 255.846H263.079ZM258.135 256.656L257.827 260.188L257.779 260.73H262.301L262.341 260.274L262.649 256.743L262.696 256.199H258.175L258.135 256.656Z" fill="white" stroke="#FA2609"/>
<path d="M262.25 265.348L261.793 270.586H256.569L257.025 265.348H262.25ZM257.306 266.158L256.998 269.689L256.95 270.232H261.472L261.512 269.776L261.819 266.245L261.867 265.701H257.346L257.306 266.158Z" fill="white" stroke="#FA2609"/>
<path d="M261.424 274.85L260.966 280.088H255.741L256.198 274.85H261.424ZM256.479 275.661L256.171 279.192L256.123 279.736H260.645L260.685 279.279L260.993 275.748L261.04 275.204H256.519L256.479 275.661Z" fill="white" stroke="#FA2609"/>
<path d="M267.665 257.584H288.497C289.039 257.585 289.433 258.011 289.385 258.563C289.334 259.148 288.809 259.628 288.231 259.628H267.4C266.892 259.628 266.514 259.254 266.508 258.752L266.512 258.65C266.563 258.065 267.088 257.585 267.665 257.584Z" fill="white" stroke="#FA2609"/>
<path opacity="0.7" d="M267.665 257.584H288.497C289.039 257.585 289.433 258.011 289.385 258.563C289.334 259.148 288.809 259.628 288.231 259.628H267.4C266.892 259.628 266.514 259.254 266.508 258.752L266.512 258.65C266.563 258.065 267.088 257.585 267.665 257.584Z" fill="white" stroke="#FA2609"/>
<path d="M266.017 276.449H283.473C283.981 276.449 284.36 276.824 284.365 277.326L284.361 277.427C284.31 278.012 283.784 278.493 283.207 278.493H265.752C265.209 278.493 264.815 278.066 264.863 277.514C264.914 276.929 265.439 276.449 266.017 276.449Z" fill="white" stroke="#FA2609"/>
<path opacity="0.4" d="M266.017 276.449H283.473C283.981 276.449 284.36 276.824 284.365 277.326L284.361 277.427C284.31 278.012 283.784 278.493 283.207 278.493H265.752C265.209 278.493 264.815 278.066 264.863 277.514C264.914 276.929 265.439 276.449 266.017 276.449Z" fill="white" stroke="#FA2609"/>
<path d="M266.853 266.945H282.959C283.501 266.946 283.895 267.372 283.847 267.924C283.796 268.509 283.271 268.989 282.693 268.989H266.588C266.079 268.989 265.701 268.615 265.695 268.113L265.699 268.011C265.75 267.426 266.275 266.946 266.853 266.945Z" fill="white" stroke="#FA2609"/>
<path opacity="0.2" d="M266.853 266.945H282.959C283.501 266.946 283.895 267.372 283.847 267.924C283.796 268.509 283.271 268.989 282.693 268.989H266.588C266.079 268.989 265.701 268.615 265.695 268.113L265.699 268.011C265.75 267.426 266.275 266.946 266.853 266.945Z" fill="white" stroke="#FA2609"/>
<path d="M230.028 263.196C230.247 262.994 230.545 263.011 230.723 263.196L230.791 263.285H230.792C232.101 265.442 233.409 267.599 234.718 269.756L235.065 270.331L235.516 269.833L240.508 264.321L240.509 264.32C240.609 264.209 240.722 264.181 240.851 264.206C240.961 264.226 241.078 264.287 241.175 264.377L241.264 264.477C242.049 265.551 242.834 266.626 243.619 267.7L245.975 270.921C246.077 271.061 246.07 271.151 246.054 271.206C246.032 271.278 245.965 271.371 245.84 271.444C245.614 271.575 245.354 271.567 245.173 271.399L245.101 271.318C243.784 269.518 242.469 267.718 241.152 265.917L240.79 265.421L240.378 265.876L235.308 271.475C235.222 271.569 235.096 271.612 234.945 271.589C234.828 271.571 234.72 271.515 234.643 271.438L234.576 271.354C233.248 269.164 231.919 266.974 230.591 264.784L230.274 264.26L229.825 264.675L224.993 269.128C224.835 269.274 224.632 269.31 224.472 269.25L224.406 269.218C222.994 268.38 221.58 267.543 220.166 266.706L219.765 266.467L219.499 266.852L214.052 274.769C213.949 274.918 213.764 275.018 213.586 275.027C213.448 275.034 213.335 274.989 213.257 274.876L213.226 274.825C212.554 273.517 211.883 272.21 211.212 270.903C210.541 269.596 209.87 268.287 209.198 266.98L208.945 266.488L208.481 266.79C207.673 267.314 206.783 267.943 205.886 268.458C204.976 268.979 204.175 269.312 203.572 269.313L203.454 269.308C203.171 269.285 202.825 269.178 202.424 268.989C201.971 268.776 201.486 268.478 200.993 268.144C200.501 267.81 200.017 267.45 199.557 267.114C199.217 266.866 198.887 266.626 198.585 266.428L198.294 266.246C198.147 266.158 198.094 266.055 198.077 265.962C198.058 265.856 198.081 265.725 198.152 265.602C198.224 265.479 198.325 265.397 198.422 265.364C198.505 265.335 198.617 265.33 198.765 265.417V265.418C199.605 265.92 200.446 266.421 201.286 266.921V266.92C201.431 267.007 201.895 267.254 202.308 267.488C202.525 267.611 202.741 267.737 202.923 267.851C203.113 267.971 203.24 268.061 203.298 268.114L203.61 268.401L203.944 268.138C204.135 267.988 204.621 267.712 205.166 267.419C205.429 267.278 205.694 267.139 205.925 267.019L206.48 266.728L208.886 265.43C209.113 265.308 209.374 265.374 209.494 265.507L209.536 265.569C210.791 268.012 212.046 270.455 213.3 272.897L213.683 273.642L214.156 272.952L219.198 265.624C219.36 265.388 219.595 265.318 219.785 265.383L219.863 265.42H219.864L222.713 267.109C223.202 267.399 223.743 267.747 224.276 268.04L224.583 268.208L224.847 267.977C225.731 267.203 226.599 266.401 227.46 265.596L230.028 263.196Z" fill="white" stroke="#FA2609"/>
<path d="M199.257 258.029C199.4 258.029 199.507 258.075 199.566 258.129C199.601 258.161 199.64 258.213 199.65 258.309V258.421C199.063 265.145 198.476 271.87 197.89 278.593L197.842 279.137H244.798C244.969 279.137 245.065 279.198 245.124 279.267C245.192 279.347 245.238 279.47 245.238 279.613C245.238 279.755 245.192 279.878 245.123 279.958C245.063 280.028 244.968 280.089 244.798 280.089H197.328C197.228 280.089 197.092 280.039 196.984 279.937C196.905 279.862 196.867 279.785 196.855 279.719L196.853 279.658L198.698 258.508C198.725 258.206 198.962 258.029 199.257 258.029Z" fill="white" stroke="#FA2609"/>
<path opacity="0.5" d="M199.257 258.029C199.4 258.029 199.507 258.075 199.566 258.129C199.601 258.161 199.64 258.213 199.65 258.309V258.421C199.063 265.145 198.476 271.87 197.89 278.593L197.842 279.137H244.798C244.969 279.137 245.065 279.198 245.124 279.267C245.192 279.347 245.238 279.47 245.238 279.613C245.238 279.755 245.192 279.878 245.123 279.958C245.063 280.028 244.968 280.089 244.798 280.089H197.328C197.228 280.089 197.092 280.039 196.984 279.937C196.905 279.862 196.867 279.785 196.855 279.719L196.853 279.658L198.698 258.508C198.725 258.206 198.962 258.029 199.257 258.029Z" fill="white" stroke="#FA2609"/>
<path d="M296.638 229.28L294.876 249.466H213.046L214.807 229.28H296.638Z" fill="white" stroke="#FA2609"/>
<path opacity="0.9" d="M296.638 229.28L294.876 249.466H213.046L214.807 229.28H296.638Z" fill="white" stroke="#FA2609"/>
<path d="M298.392 227.666L296.349 251.08H211.296L213.34 227.666H298.392ZM215.323 230.351L213.755 248.307L213.708 248.851H294.325L294.365 248.394L295.933 230.438L295.98 229.895H215.362L215.323 230.351Z" fill="white" stroke="#FA2609"/>
</g>
<defs>
<clipPath id="clip0_1384_43321">
<rect width="460" height="310" fill="white" transform="translate(0 75)"/>
</clipPath>
</defs>
</svg>
