<svg width="493" height="535" viewBox="0 0 493 535" fill="none" xmlns="http://www.w3.org/2000/svg">
<path d="M284.407 408.139L284.398 408.139C282.73 408.17 281.075 407.844 279.543 407.185C278.012 406.525 276.638 405.547 275.514 404.314C274.39 403.082 273.541 401.624 273.025 400.038C272.509 398.452 272.337 396.775 272.52 395.117L272.52 395.117L272.521 395.105L280.706 301.499C280.706 301.498 280.706 301.497 280.706 301.496C281.069 297.939 282.722 294.637 285.352 292.215C287.983 289.793 291.409 288.419 294.984 288.35L446.972 288.35L446.982 288.35C448.652 288.32 450.31 288.646 451.844 289.306C453.379 289.967 454.755 290.947 455.881 292.181C457.007 293.416 457.857 294.876 458.374 296.464C458.891 298.053 459.064 299.733 458.881 301.394L458.88 301.394L458.879 301.405L450.674 394.991C450.674 394.992 450.674 394.993 450.674 394.994C450.315 398.553 448.664 401.857 446.032 404.28C443.401 406.702 439.972 408.075 436.396 408.139L284.407 408.139Z" fill="white" stroke="#FA2609"/>
<path d="M285.094 340.743L285.094 340.74C286.117 330.718 290.778 321.419 298.193 314.601C305.472 307.909 314.911 304.062 324.782 303.753L323.761 315.435C317.065 315.684 310.67 318.31 305.728 322.849C300.675 327.49 297.487 333.813 296.761 340.635C296.404 343.861 296.739 347.127 297.744 350.213C298.749 353.3 300.4 356.137 302.588 358.536C304.776 360.934 307.45 362.838 310.432 364.121C313.414 365.405 316.636 366.037 319.881 365.977C326.753 365.858 333.342 363.224 338.401 358.573C343.349 354.024 346.497 347.854 347.283 341.189H358.875C357.744 351.004 353.122 360.093 345.842 366.79C338.426 373.612 328.766 377.479 318.691 377.66C313.971 377.732 309.289 376.8 304.957 374.925C300.625 373.05 296.741 370.274 293.563 366.783C290.385 363.292 287.987 359.164 286.526 354.674C285.066 350.185 284.578 345.436 285.094 340.743Z" fill="white" stroke="#FA2609"/>
<path d="M362.028 321.225C363.442 325.574 363.945 330.166 363.506 334.714L351.912 334.813C352.17 331.769 351.815 328.703 350.867 325.796C349.861 322.711 348.209 319.875 346.022 317.478C343.835 315.08 341.162 313.176 338.182 311.892C335.371 310.68 332.348 310.047 329.292 310.026L330.313 298.236C334.881 298.227 339.403 299.159 343.597 300.974C347.93 302.849 351.814 305.625 354.992 309.116C358.169 312.608 360.568 316.735 362.028 321.225Z" fill="white" stroke="#FA2609"/>
<path opacity="0.7" d="M362.028 321.225C363.442 325.574 363.945 330.166 363.506 334.714L351.912 334.813C352.17 331.769 351.815 328.703 350.867 325.796C349.861 322.711 348.209 319.875 346.022 317.478C343.835 315.08 341.162 313.176 338.182 311.892C335.371 310.68 332.348 310.047 329.292 310.026L330.313 298.236C334.881 298.227 339.403 299.159 343.597 300.974C347.93 302.849 351.814 305.625 354.992 309.116C358.169 312.608 360.568 316.735 362.028 321.225Z" fill="white" stroke="#FA2609"/>
<path d="M320.647 352.486L320.648 352.486C323.844 352.426 326.907 351.198 329.259 349.034C331.499 346.973 332.947 344.198 333.359 341.191L338.109 341.208C337.544 345.496 335.491 349.456 332.3 352.391C328.972 355.45 324.638 357.183 320.119 357.262C318.007 357.298 315.913 356.884 313.974 356.048C312.035 355.211 310.297 353.971 308.874 352.41C307.452 350.85 306.379 349.004 305.725 346.996C305.072 344.988 304.854 342.864 305.086 340.765L305.086 340.761C305.542 336.267 307.629 332.096 310.952 329.037C314.139 326.103 318.251 324.387 322.565 324.177L322.16 328.929C319.131 329.085 316.244 330.293 314.003 332.351C311.65 334.512 310.172 337.459 309.847 340.636C309.682 342.143 309.839 343.668 310.309 345.11C310.779 346.552 311.55 347.877 312.572 348.998C313.593 350.119 314.841 351.01 316.234 351.611C317.626 352.212 319.13 352.51 320.647 352.486Z" fill="white" stroke="#FA2609"/>
<path opacity="0.7" d="M320.647 352.486L320.648 352.486C323.844 352.426 326.907 351.198 329.259 349.034C331.499 346.973 332.947 344.198 333.359 341.191L338.109 341.208C337.544 345.496 335.491 349.456 332.3 352.391C328.972 355.45 324.638 357.183 320.119 357.262C318.007 357.298 315.913 356.884 313.974 356.048C312.035 355.211 310.297 353.971 308.874 352.41C307.452 350.85 306.379 349.004 305.725 346.996C305.072 344.988 304.854 342.864 305.086 340.765L305.086 340.761C305.542 336.267 307.629 332.096 310.952 329.037C314.139 326.103 318.251 324.387 322.565 324.177L322.16 328.929C319.131 329.085 316.244 330.293 314.003 332.351C311.65 334.512 310.172 337.459 309.847 340.636C309.682 342.143 309.839 343.668 310.309 345.11C310.779 346.552 311.55 347.877 312.572 348.998C313.593 350.119 314.841 351.01 316.234 351.611C317.626 352.212 319.13 352.51 320.647 352.486Z" fill="white" stroke="#FA2609"/>
<path d="M339.559 331.905C340.167 333.77 340.399 335.736 340.243 337.689L335.399 337.618C335.473 336.291 335.299 334.961 334.885 333.695C334.414 332.256 333.642 330.933 332.621 329.815C331.599 328.696 330.352 327.808 328.962 327.208C327.743 326.682 326.438 326.388 325.115 326.34L325.59 321.642C327.553 321.664 329.493 322.075 331.299 322.851C333.24 323.687 334.981 324.926 336.405 326.487C337.83 328.048 338.905 329.895 339.559 331.905Z" fill="white" stroke="#FA2609"/>
<path d="M373.531 340.744L373.531 340.744C373.015 345.436 373.504 350.185 374.964 354.675C376.424 359.164 378.823 363.292 382 366.783C385.178 370.275 389.062 373.05 393.395 374.925C397.727 376.8 402.408 377.733 407.128 377.66M373.531 340.744L407.137 378.16M373.531 340.744L373.532 340.737C374.49 330.855 379.037 321.673 386.303 314.924M373.531 340.744L386.303 314.924M407.128 377.66C407.129 377.66 407.129 377.66 407.13 377.66L407.137 378.16M407.128 377.66C407.128 377.66 407.128 377.66 407.128 377.66L407.137 378.16M407.128 377.66C417.202 377.475 426.859 373.606 434.275 366.785C441.69 359.963 446.349 350.662 447.372 340.638L447.372 340.635C447.885 335.943 447.394 331.197 445.933 326.71C444.471 322.223 442.072 318.098 438.895 314.609C435.717 311.12 431.834 308.346 427.503 306.472C423.31 304.658 418.79 303.727 414.225 303.735M407.137 378.16C417.334 377.973 427.108 374.057 434.613 367.153C442.118 360.248 446.834 350.834 447.869 340.689C448.39 335.927 447.892 331.11 446.408 326.555C444.925 322.001 442.489 317.814 439.264 314.272C436.039 310.731 432.098 307.916 427.702 306.013C423.306 304.111 418.556 303.166 413.766 303.239M414.225 303.735L414.264 303.283L413.766 303.239M414.225 303.735C414.075 303.736 413.924 303.737 413.774 303.739L413.766 303.239M414.225 303.735L413.204 315.418M413.766 303.239L412.702 315.421C412.869 315.418 413.037 315.417 413.204 315.418M413.204 315.418L413.16 315.918C416.162 315.93 419.133 316.548 421.894 317.736C424.809 318.989 427.424 320.85 429.564 323.193C431.703 325.537 433.319 328.309 434.304 331.326C435.288 334.343 435.618 337.534 435.273 340.689M413.204 315.418C416.259 315.436 419.282 316.067 422.092 317.276C425.072 318.558 427.745 320.46 429.933 322.856C432.12 325.252 433.772 328.087 434.779 331.171C435.785 334.254 436.123 337.517 435.77 340.741M435.77 340.741C435.77 340.741 435.77 340.74 435.77 340.739L435.273 340.689M435.77 340.741C435.77 340.742 435.77 340.743 435.77 340.743L435.273 340.689M435.77 340.741C435.075 347.574 431.901 353.916 426.846 358.566C421.792 363.217 415.208 365.853 408.34 365.978L408.331 365.478C415.076 365.356 421.543 362.766 426.508 358.198C431.472 353.63 434.591 347.401 435.273 340.689M385.716 340.689C386.357 334.002 389.452 327.791 394.403 323.255L394.129 323.505L393.794 323.138M385.716 340.689H373.034C374.004 330.683 378.609 321.387 385.966 314.554L386.303 314.924M385.716 340.689L385.22 340.633C385.219 340.635 385.219 340.636 385.219 340.637M385.716 340.689L385.219 340.641C385.219 340.64 385.219 340.639 385.219 340.637M393.794 323.138C393.915 323.024 394.038 322.911 394.161 322.799L386.335 314.216M393.794 323.138L386.303 314.924M393.794 323.138C388.911 327.734 385.86 333.952 385.219 340.637M386.335 314.216C386.272 314.273 386.209 314.331 386.146 314.388L386.335 314.216ZM386.335 314.216L386.67 314.587C386.547 314.698 386.425 314.811 386.303 314.924M386.303 314.924L385.219 340.637" fill="white" stroke="#FA2609"/>
<path opacity="0.7" d="M373.531 340.744L373.531 340.744C373.015 345.436 373.504 350.185 374.964 354.675C376.424 359.164 378.823 363.292 382 366.783C385.178 370.275 389.062 373.05 393.395 374.925C397.727 376.8 402.408 377.733 407.128 377.66M373.531 340.744L407.137 378.16M373.531 340.744L373.532 340.737C374.49 330.855 379.037 321.673 386.303 314.924M373.531 340.744L386.303 314.924M407.128 377.66C407.129 377.66 407.129 377.66 407.13 377.66L407.137 378.16M407.128 377.66C407.128 377.66 407.128 377.66 407.128 377.66L407.137 378.16M407.128 377.66C417.202 377.475 426.859 373.606 434.275 366.785C441.69 359.963 446.349 350.662 447.372 340.638L447.372 340.635C447.885 335.943 447.394 331.197 445.933 326.71C444.471 322.223 442.072 318.098 438.895 314.609C435.717 311.12 431.834 308.346 427.503 306.472C423.31 304.658 418.79 303.727 414.225 303.735M407.137 378.16C417.334 377.973 427.108 374.057 434.613 367.153C442.118 360.248 446.834 350.834 447.869 340.689C448.39 335.927 447.892 331.11 446.408 326.555C444.925 322.001 442.489 317.814 439.264 314.272C436.039 310.731 432.098 307.916 427.702 306.013C423.306 304.111 418.556 303.166 413.766 303.239M414.225 303.735L414.264 303.283L413.766 303.239M414.225 303.735C414.075 303.736 413.924 303.737 413.774 303.739L413.766 303.239M414.225 303.735L413.204 315.418M413.766 303.239L412.702 315.421C412.869 315.418 413.037 315.417 413.204 315.418M413.204 315.418L413.16 315.918C416.162 315.93 419.133 316.548 421.894 317.736C424.809 318.989 427.424 320.85 429.564 323.193C431.703 325.537 433.319 328.309 434.304 331.326C435.288 334.343 435.618 337.534 435.273 340.689M413.204 315.418C416.259 315.436 419.282 316.067 422.092 317.276C425.072 318.558 427.745 320.46 429.933 322.856C432.12 325.252 433.772 328.087 434.779 331.171C435.785 334.254 436.123 337.517 435.77 340.741M435.77 340.741C435.77 340.741 435.77 340.74 435.77 340.739L435.273 340.689M435.77 340.741C435.77 340.742 435.77 340.743 435.77 340.743L435.273 340.689M435.77 340.741C435.075 347.574 431.901 353.916 426.846 358.566C421.792 363.217 415.208 365.853 408.34 365.978L408.331 365.478C415.076 365.356 421.543 362.766 426.508 358.198C431.472 353.63 434.591 347.401 435.273 340.689M385.716 340.689C386.357 334.002 389.452 327.791 394.403 323.255L394.129 323.505L393.794 323.138M385.716 340.689H373.034C374.004 330.683 378.609 321.387 385.966 314.554L386.303 314.924M385.716 340.689L385.22 340.633C385.219 340.635 385.219 340.636 385.219 340.637M385.716 340.689L385.219 340.641C385.219 340.64 385.219 340.639 385.219 340.637M393.794 323.138C393.915 323.024 394.038 322.911 394.161 322.799L386.335 314.216M393.794 323.138L386.303 314.924M393.794 323.138C388.911 327.734 385.86 333.952 385.219 340.637M386.335 314.216C386.272 314.273 386.209 314.331 386.146 314.388L386.335 314.216ZM386.335 314.216L386.67 314.587C386.547 314.698 386.425 314.811 386.303 314.924M386.303 314.924L385.219 340.637" fill="white" stroke="#FA2609"/>
<path d="M409.765 308.481C403.221 308.644 396.951 311.146 392.095 315.534L384.583 307.299C391.766 300.757 401.074 297.035 410.786 296.821L409.765 308.481Z" fill="white" stroke="#FA2609"/>
<path opacity="0.3" d="M409.765 308.481C403.221 308.644 396.951 311.146 392.095 315.534L384.583 307.299C391.766 300.757 401.074 297.035 410.786 296.821L409.765 308.481Z" fill="white" stroke="#FA2609"/>
<path d="M409.571 352.805L409.573 352.805C412.901 352.725 416.086 351.434 418.53 349.173C420.973 346.913 422.508 343.84 422.847 340.529C423.025 338.95 422.864 337.351 422.374 335.839C421.883 334.327 421.075 332.937 420.004 331.762C418.933 330.587 417.623 329.655 416.162 329.028C414.871 328.473 413.49 328.169 412.089 328.127L412.535 323.067C414.615 323.074 416.675 323.498 418.593 324.313C420.647 325.187 422.491 326.49 424 328.136C425.508 329.781 426.647 331.731 427.339 333.854C428.032 335.976 428.261 338.222 428.013 340.441L428.012 340.446C427.53 345.17 425.333 349.552 421.837 352.765C418.341 355.978 413.788 357.798 409.041 357.88L409.04 357.88C406.82 357.923 404.616 357.491 402.575 356.615C400.535 355.738 398.705 354.436 397.208 352.796C395.711 351.156 394.58 349.216 393.893 347.104C393.205 344.993 392.975 342.759 393.22 340.552L393.22 340.552L393.22 340.546C393.671 335.965 395.757 331.706 399.088 328.544L402.313 332.07C400.014 334.279 398.572 337.239 398.257 340.423C398.083 342.001 398.247 343.597 398.738 345.106C399.23 346.615 400.039 348.003 401.11 349.175C402.18 350.347 403.489 351.278 404.948 351.904C406.408 352.529 407.984 352.837 409.571 352.805Z" fill="white" stroke="#FA2609"/>
<path d="M409.937 324.706C406.915 324.843 404.027 325.991 401.737 327.965L398.508 324.436C401.788 321.519 405.979 319.829 410.364 319.654L409.937 324.706Z" fill="white" stroke="#FA2609"/>
<path opacity="0.3" d="M409.937 324.706C406.915 324.843 404.027 325.991 401.737 327.965L398.508 324.436C401.788 321.519 405.979 319.829 410.364 319.654L409.937 324.706Z" fill="white" stroke="#FA2609"/>
<path d="M298.354 390.618L298.354 390.615C298.45 389.667 298.886 388.787 299.581 388.136C300.276 387.487 301.182 387.111 302.132 387.079C302.571 387.071 303.006 387.157 303.408 387.331C303.813 387.504 304.175 387.762 304.472 388.087C304.769 388.411 304.993 388.795 305.13 389.213C305.267 389.631 305.314 390.074 305.267 390.511L305.267 390.512C305.167 391.459 304.73 392.337 304.035 392.987C303.341 393.636 302.437 394.014 301.488 394.05C301.049 394.057 300.615 393.972 300.212 393.798C299.808 393.625 299.446 393.367 299.149 393.042C298.852 392.717 298.628 392.333 298.49 391.916C298.353 391.498 298.307 391.055 298.354 390.618Z" fill="white" stroke="#FA2609"/>
<path d="M342.388 392.089H342.387H312.547H312.539L312.531 392.09C312.343 392.095 312.155 392.06 311.981 391.987C311.807 391.914 311.651 391.804 311.524 391.664C311.397 391.525 311.301 391.36 311.243 391.181C311.185 391.001 311.167 390.811 311.189 390.624L311.192 390.594V390.564C311.192 390.132 311.364 389.717 311.67 389.411C311.976 389.105 312.391 388.933 312.824 388.933H342.664H342.674L342.684 388.933C342.88 388.925 343.075 388.961 343.256 389.039L343.454 388.58L343.256 389.039C343.436 389.117 343.596 389.234 343.725 389.382L344.102 389.054L343.725 389.382C343.854 389.531 343.948 389.706 344 389.895C344.052 390.084 344.061 390.283 344.026 390.476L344.021 390.507L344.019 390.539C343.998 390.958 343.817 391.352 343.513 391.641C343.21 391.929 342.806 392.09 342.388 392.089Z" fill="white" stroke="#FA2609"/>
<path d="M311.879 400.082V400.082L311.866 400.082C311.67 400.087 311.475 400.049 311.296 399.97C311.116 399.891 310.956 399.773 310.827 399.625C310.699 399.477 310.604 399.302 310.55 399.113C310.497 398.924 310.486 398.726 310.518 398.532L310.522 398.506L310.524 398.478C310.548 398.046 310.73 397.638 311.036 397.331C311.34 397.028 311.743 396.846 312.171 396.819H334.472V396.82L334.485 396.819C334.681 396.814 334.876 396.853 335.055 396.932C335.235 397.011 335.395 397.129 335.524 397.277C335.653 397.425 335.747 397.6 335.801 397.789C335.854 397.977 335.865 398.176 335.833 398.369L335.829 398.394L335.828 398.419C335.8 398.854 335.613 399.264 335.303 399.57L335.655 399.926L335.303 399.57C334.997 399.874 334.59 400.056 334.16 400.082H311.879Z" fill="white" stroke="#FA2609"/>
<path d="M384.74 390.618L384.741 390.615C384.836 389.667 385.272 388.787 385.968 388.136C386.662 387.487 387.569 387.111 388.519 387.079C388.957 387.071 389.392 387.157 389.795 387.331C390.199 387.504 390.562 387.762 390.859 388.087C391.155 388.411 391.38 388.795 391.517 389.213C391.654 389.631 391.701 390.074 391.654 390.511L391.654 390.512C391.555 391.456 391.12 392.332 390.429 392.982C389.739 393.63 388.839 394.009 387.893 394.051C387.453 394.06 387.016 393.976 386.611 393.804C386.205 393.632 385.84 393.374 385.542 393.049C385.243 392.724 385.017 392.339 384.879 391.92C384.74 391.501 384.693 391.057 384.74 390.618Z" fill="white" stroke="#FA2609"/>
<path d="M428.787 392.089H428.787H398.946V392.089L398.938 392.089C398.749 392.093 398.562 392.056 398.388 391.981L398.191 392.441L398.388 391.981C398.215 391.907 398.059 391.796 397.932 391.657C397.805 391.518 397.708 391.353 397.649 391.174C397.59 390.994 397.57 390.805 397.589 390.617L397.591 390.604L397.591 390.592C397.615 390.16 397.798 389.751 398.104 389.445C398.407 389.142 398.811 388.96 399.238 388.933H429.064H429.074L429.083 388.933C429.28 388.925 429.475 388.961 429.655 389.039C429.835 389.117 429.996 389.234 430.125 389.382L430.502 389.054L430.125 389.382C430.254 389.531 430.348 389.706 430.4 389.895C430.452 390.084 430.461 390.283 430.426 390.476L430.42 390.507L430.419 390.539C430.398 390.958 430.217 391.352 429.913 391.641C429.609 391.929 429.206 392.09 428.787 392.089ZM428.787 392.589H398.946H428.787Z" fill="white" stroke="#FA2609"/>
<path d="M398.289 400.082V400.082L398.277 400.082C398.08 400.087 397.885 400.049 397.706 399.97C397.526 399.891 397.366 399.773 397.238 399.625C397.109 399.477 397.014 399.302 396.961 399.113C396.907 398.924 396.896 398.726 396.928 398.532L396.932 398.506L396.934 398.478C396.958 398.046 397.14 397.638 397.447 397.331C397.75 397.028 398.153 396.846 398.581 396.819H420.882V396.82L420.895 396.819C421.091 396.814 421.286 396.853 421.466 396.932C421.645 397.011 421.805 397.129 421.934 397.277L422.308 396.951L421.934 397.277C422.063 397.425 422.157 397.6 422.211 397.789C422.264 397.977 422.275 398.176 422.243 398.369L422.239 398.394L422.238 398.419C422.21 398.854 422.023 399.264 421.714 399.57C421.407 399.874 421 400.056 420.57 400.082H398.289Z" fill="white" stroke="#FA2609"/>
<path d="M12.4767 459.188L12.4677 459.188C10.7992 459.218 9.14343 458.893 7.6105 458.233C6.07756 457.574 4.70258 456.596 3.57698 455.364C2.45139 454.132 1.60098 452.674 1.0823 451.088C0.563619 449.502 0.388538 447.824 0.568743 446.165H0.568852L0.569763 446.154L13.2299 301.5C13.23 301.499 13.2301 301.498 13.2302 301.497C13.5931 297.939 15.2459 294.638 17.8768 292.216C20.5073 289.794 23.9334 288.419 27.5081 288.351L255.227 288.351L255.235 288.351C256.904 288.323 258.559 288.651 260.092 289.313C261.624 289.975 262.997 290.956 264.121 292.19C265.244 293.424 266.093 294.883 266.609 296.47C267.125 298.057 267.297 299.736 267.114 301.395L267.113 301.406L254.474 446.142C254.474 446.144 254.474 446.145 254.474 446.147C254.086 449.689 252.421 452.967 249.788 455.368C247.156 457.769 243.738 459.127 240.175 459.188L12.4767 459.188Z" fill="white" stroke="#FA2609"/>
<path opacity="0.7" d="M12.4767 459.188L12.4677 459.188C10.7992 459.218 9.14343 458.893 7.6105 458.233C6.07756 457.574 4.70258 456.596 3.57698 455.364C2.45139 454.132 1.60098 452.674 1.0823 451.088C0.563619 449.502 0.388538 447.824 0.568743 446.165H0.568852L0.569763 446.154L13.2299 301.5C13.23 301.499 13.2301 301.498 13.2302 301.497C13.5931 297.939 15.2459 294.638 17.8768 292.216C20.5073 289.794 23.9334 288.419 27.5081 288.351L255.227 288.351L255.235 288.351C256.904 288.323 258.559 288.651 260.092 289.313C261.624 289.975 262.997 290.956 264.121 292.19C265.244 293.424 266.093 294.883 266.609 296.47C267.125 298.057 267.297 299.736 267.114 301.395L267.113 301.406L254.474 446.142C254.474 446.144 254.474 446.145 254.474 446.147C254.086 449.689 252.421 452.967 249.788 455.368C247.156 457.769 243.738 459.127 240.175 459.188L12.4767 459.188Z" fill="white" stroke="#FA2609"/>
<path d="M29.1747 328.528L21.5251 415.941H16.7527L24.4023 328.528H29.1747Z" fill="white" stroke="#FA2609"/>
<path d="M35.3335 351.911L29.73 415.941H24.9363L30.5397 351.911H35.3335Z" fill="white" stroke="#FA2609"/>
<path d="M46.3574 374.439L42.7359 415.94H37.9635L41.585 374.439H46.3574Z" fill="white" stroke="#FA2609"/>
<path d="M55.2656 366.255L50.9196 415.941H46.1472L50.4931 366.255H55.2656Z" fill="white" stroke="#FA2609"/>
<path d="M70.457 341.402L63.937 415.941H59.1433L65.6633 341.402H70.457Z" fill="white" stroke="#FA2609"/>
<path d="M77.7319 351.911L72.1284 415.941H67.3349L72.9594 351.911H77.7319Z" fill="white" stroke="#FA2609"/>
<path d="M90.7301 351.911L85.1267 415.941H80.3543L85.9577 351.911H90.7301Z" fill="white" stroke="#FA2609"/>
<path d="M100.342 335.52L93.3102 415.941H88.5378L95.5694 335.52H100.342Z" fill="white" stroke="#FA2609"/>
<path d="M110.106 372.734L106.335 415.941H101.542L105.333 372.734H110.106Z" fill="white" stroke="#FA2609"/>
<path d="M120.125 351.911L114.521 415.941H109.749L115.352 351.911H120.125Z" fill="white" stroke="#FA2609"/>
<path d="M134.041 341.402L127.521 415.941H122.749L129.269 341.402H134.041Z" fill="white" stroke="#FA2609"/>
<path d="M143.657 325.288L135.73 415.94H130.936L138.863 325.288H143.657Z" fill="white" stroke="#FA2609"/>
<path d="M150.751 392.877L148.728 415.941H143.955L145.957 392.877H150.751Z" fill="white" stroke="#FA2609"/>
<path d="M160.725 372.394L156.912 415.941H152.139L155.952 372.394H160.725Z" fill="white" stroke="#FA2609"/>
<path d="M173.562 374.439L169.92 415.94H165.147L168.79 374.439H173.562Z" fill="white" stroke="#FA2609"/>
<path d="M185.327 333.473L178.124 415.941H173.331L180.554 333.473H185.327Z" fill="white" stroke="#FA2609"/>
<path d="M195.831 362.163L191.123 415.941H186.35L191.059 362.163H195.831Z" fill="white" stroke="#FA2609"/>
<path d="M208.495 310.944L199.31 415.941H194.538L203.722 310.944H208.495Z" fill="white" stroke="#FA2609"/>
<path d="M218.468 345.772L212.332 415.941H207.538L213.674 345.772H218.468Z" fill="white" stroke="#FA2609"/>
<path d="M226.117 351.911L220.513 415.941H215.741L221.344 351.911H226.117Z" fill="white" stroke="#FA2609"/>
<path d="M241.273 327.334L233.517 415.941H228.745L236.501 327.334H241.273Z" fill="white" stroke="#FA2609"/>
<path d="M246.242 364.209L241.705 415.941H236.932L241.47 364.209H246.242Z" fill="white" stroke="#FA2609"/>
<path d="M17.8407 439.701C18.4449 439.958 19.0971 440.084 19.7537 440.069C21.1734 440.031 22.5316 439.481 23.5782 438.521C24.6251 437.561 25.29 436.254 25.4505 434.843L17.8407 439.701ZM17.8407 439.701C17.2361 439.443 16.6936 439.059 16.2494 438.575M17.8407 439.701L16.2494 438.575M16.2494 438.575C15.8051 438.09 15.4694 437.517 15.2647 436.892M16.2494 438.575L15.2647 436.892M15.2647 436.892C15.0601 436.268 14.9911 435.607 15.0624 434.954M15.2647 436.892L15.0624 434.954M15.0624 434.954C15.2186 433.539 15.8815 432.228 16.9288 431.264C17.9759 430.3 19.3365 429.747 20.7592 429.708C21.4177 429.693 22.0717 429.819 22.6774 430.078C23.2834 430.337 23.827 430.722 24.2716 431.209C24.7161 431.695 25.0513 432.271 25.2547 432.898C25.458 433.525 25.5248 434.188 25.4505 434.843L15.0624 434.954Z" fill="white" stroke="#FA2609"/>
<path d="M35.5368 437.276V437.276L35.5257 437.277C35.2271 437.283 34.9305 437.226 34.6558 437.109C34.3811 436.992 34.1344 436.818 33.9324 436.598C33.7303 436.378 33.5775 436.117 33.4842 435.833C33.3908 435.55 33.359 435.249 33.3909 434.952L33.391 434.952C33.4611 434.288 33.7707 433.673 34.2618 433.222C34.7517 432.772 35.3887 432.515 36.0537 432.5L78.4428 432.5L78.4496 432.5C78.7496 432.496 79.0471 432.556 79.3224 432.675C79.5976 432.794 79.8445 432.971 80.0466 433.192C80.2488 433.414 80.4016 433.676 80.495 433.961C80.5884 434.246 80.6203 434.548 80.5886 434.846C80.5183 435.507 80.2083 436.119 79.7174 436.567C79.2273 437.014 78.5907 437.266 77.9275 437.276H35.5368Z" fill="white" stroke="#FA2609"/>
<path d="M34.5377 448.659V448.658L34.5287 448.659C34.2251 448.664 33.9238 448.604 33.6457 448.481C33.3676 448.359 33.1193 448.178 32.918 447.95C32.7167 447.723 32.5672 447.455 32.4797 447.164C32.3922 446.873 32.3688 446.566 32.4112 446.266L32.4128 446.254L32.4139 446.242C32.4758 445.581 32.7798 444.965 33.2676 444.514C33.7545 444.064 34.3902 443.808 35.0534 443.797H66.7865V443.797L66.798 443.797C67.0983 443.79 67.3965 443.848 67.6725 443.966C67.9486 444.084 68.1962 444.26 68.3985 444.482C68.6008 444.703 68.7532 444.966 68.8454 445.252C68.9375 445.538 68.9674 445.84 68.9328 446.138L68.9318 446.147L68.9311 446.156C68.8778 446.827 68.5777 447.454 68.0889 447.916C67.6014 448.377 66.9607 448.642 66.2902 448.659H34.5377Z" fill="white" stroke="#FA2609"/>
<path opacity="0.3" d="M35.5368 437.276V437.276L35.5257 437.277C35.2271 437.283 34.9305 437.226 34.6558 437.109C34.3811 436.992 34.1344 436.818 33.9324 436.598C33.7303 436.378 33.5775 436.117 33.4842 435.833C33.3908 435.55 33.359 435.249 33.3909 434.952L33.391 434.952C33.4611 434.288 33.7707 433.673 34.2618 433.222C34.7517 432.772 35.3887 432.515 36.0537 432.5L78.4428 432.5L78.4496 432.5C78.7496 432.496 79.0471 432.556 79.3224 432.675C79.5976 432.794 79.8445 432.971 80.0466 433.192C80.2488 433.414 80.4016 433.676 80.495 433.961C80.5884 434.246 80.6203 434.548 80.5886 434.846C80.5183 435.507 80.2083 436.119 79.7174 436.567C79.2273 437.014 78.5907 437.266 77.9275 437.276H35.5368Z" fill="white" stroke="#FA2609"/>
<path opacity="0.3" d="M34.5377 448.659V448.658L34.5287 448.659C34.2251 448.664 33.9238 448.604 33.6457 448.481C33.3676 448.359 33.1193 448.178 32.918 447.95C32.7167 447.723 32.5672 447.455 32.4797 447.164C32.3922 446.873 32.3688 446.566 32.4112 446.266L32.4128 446.254L32.4139 446.242C32.4758 445.581 32.7798 444.965 33.2676 444.514C33.7545 444.064 34.3902 443.808 35.0534 443.797H66.7865V443.797L66.798 443.797C67.0983 443.79 67.3965 443.848 67.6725 443.966C67.9486 444.084 68.1962 444.26 68.3985 444.482C68.6008 444.703 68.7532 444.966 68.8454 445.252C68.9375 445.538 68.9674 445.84 68.9328 446.138L68.9318 446.147L68.9311 446.156C68.8778 446.827 68.5777 447.454 68.0889 447.916C67.6014 448.377 66.9607 448.642 66.2902 448.659H34.5377Z" fill="white" stroke="#FA2609"/>
<path d="M107.427 438.521C106.381 439.481 105.023 440.03 103.604 440.069C102.948 440.08 102.298 439.953 101.695 439.694C101.092 439.435 100.55 439.051 100.107 438.567C99.6628 438.084 99.3268 437.511 99.1208 436.888C98.915 436.265 98.8437 435.605 98.9117 434.953C99.068 433.538 99.7309 432.228 100.778 431.264C101.825 430.3 103.186 429.747 104.608 429.708C105.267 429.693 105.921 429.819 106.527 430.078C107.133 430.337 107.676 430.722 108.121 431.209C108.565 431.695 108.9 432.271 109.104 432.898C109.307 433.525 109.374 434.188 109.3 434.843C109.139 436.254 108.474 437.561 107.427 438.521Z" fill="white" stroke="#FA2609"/>
<path opacity="0.3" d="M107.427 438.521C106.381 439.481 105.023 440.03 103.604 440.069C102.948 440.08 102.298 439.953 101.695 439.694C101.092 439.435 100.55 439.051 100.107 438.567C99.6628 438.084 99.3268 437.511 99.1208 436.888C98.915 436.265 98.8437 435.605 98.9117 434.953C99.068 433.538 99.7309 432.228 100.778 431.264C101.825 430.3 103.186 429.747 104.608 429.708C105.267 429.693 105.921 429.819 106.527 430.078C107.133 430.337 107.676 430.722 108.121 431.209C108.565 431.695 108.9 432.271 109.104 432.898C109.307 433.525 109.374 434.188 109.3 434.843C109.139 436.254 108.474 437.561 107.427 438.521Z" fill="white" stroke="#FA2609"/>
<path d="M119.373 437.276V437.276L119.362 437.277C119.063 437.283 118.766 437.226 118.492 437.109C118.217 436.992 117.97 436.818 117.768 436.598C117.566 436.378 117.413 436.117 117.32 435.833C117.227 435.55 117.195 435.249 117.227 434.952L117.227 434.952C117.297 434.288 117.607 433.673 118.098 433.222C118.588 432.772 119.225 432.515 119.89 432.5L162.279 432.5L162.286 432.5C162.586 432.496 162.883 432.556 163.158 432.675C163.434 432.794 163.68 432.971 163.883 433.192C164.085 433.414 164.238 433.676 164.331 433.961C164.424 434.246 164.456 434.548 164.425 434.846C164.354 435.507 164.044 436.119 163.553 436.567C163.063 437.014 162.427 437.266 161.763 437.276H119.373Z" fill="white" stroke="#FA2609"/>
<path d="M118.389 448.659H118.376L118.364 448.659C118.054 448.675 117.745 448.622 117.459 448.504C117.172 448.387 116.915 448.207 116.706 447.978L116.337 448.316L116.706 447.978C116.497 447.75 116.341 447.477 116.25 447.181C116.158 446.885 116.134 446.573 116.177 446.266L116.179 446.254L116.18 446.242C116.242 445.581 116.546 444.965 117.034 444.514C117.521 444.064 118.156 443.808 118.819 443.797H150.553V443.797L150.564 443.797C150.864 443.79 151.163 443.848 151.439 443.966C151.715 444.084 151.962 444.26 152.165 444.482C152.367 444.703 152.519 444.966 152.611 445.252C152.704 445.538 152.733 445.84 152.699 446.138L152.698 446.149L152.697 446.159C152.649 446.822 152.358 447.443 151.88 447.904C151.404 448.363 150.777 448.632 150.117 448.659H118.389Z" fill="white" stroke="#FA2609"/>
<path opacity="0.3" d="M119.373 437.276V437.276L119.362 437.277C119.063 437.283 118.766 437.226 118.492 437.109C118.217 436.992 117.97 436.818 117.768 436.598C117.566 436.378 117.413 436.117 117.32 435.833C117.227 435.55 117.195 435.249 117.227 434.952L117.227 434.952C117.297 434.288 117.607 433.673 118.098 433.222C118.588 432.772 119.225 432.515 119.89 432.5L162.279 432.5L162.286 432.5C162.586 432.496 162.883 432.556 163.158 432.675C163.434 432.794 163.68 432.971 163.883 433.192C164.085 433.414 164.238 433.676 164.331 433.961C164.424 434.246 164.456 434.548 164.425 434.846C164.354 435.507 164.044 436.119 163.553 436.567C163.063 437.014 162.427 437.266 161.763 437.276H119.373Z" fill="white" stroke="#FA2609"/>
<path opacity="0.3" d="M118.389 448.659H118.376L118.364 448.659C118.054 448.675 117.745 448.622 117.459 448.504C117.172 448.387 116.915 448.207 116.706 447.978L116.337 448.316L116.706 447.978C116.497 447.75 116.341 447.477 116.25 447.181C116.158 446.885 116.134 446.573 116.177 446.266L116.179 446.254L116.18 446.242C116.242 445.581 116.546 444.965 117.034 444.514C117.521 444.064 118.156 443.808 118.819 443.797H150.553V443.797L150.564 443.797C150.864 443.79 151.163 443.848 151.439 443.966C151.715 444.084 151.962 444.26 152.165 444.482C152.367 444.703 152.519 444.966 152.611 445.252C152.704 445.538 152.733 445.84 152.699 446.138L152.698 446.149L152.697 446.159C152.649 446.822 152.358 447.443 151.88 447.904C151.404 448.363 150.777 448.632 150.117 448.659H118.389Z" fill="white" stroke="#FA2609"/>
<path d="M191.26 438.521C190.214 439.481 188.856 440.03 187.437 440.069C186.782 440.081 186.132 439.953 185.531 439.695C184.928 439.436 184.388 439.051 183.946 438.567C183.504 438.083 183.17 437.511 182.966 436.888C182.763 436.265 182.694 435.606 182.765 434.954C182.922 433.539 183.585 432.228 184.632 431.264C185.679 430.3 187.039 429.748 188.461 429.708C189.118 429.696 189.769 429.824 190.372 430.084C190.976 430.344 191.517 430.73 191.96 431.216C192.402 431.703 192.736 432.278 192.938 432.903C193.14 433.528 193.206 434.19 193.132 434.843C192.972 436.254 192.307 437.561 191.26 438.521Z" fill="white" stroke="#FA2609"/>
<path d="M203.198 437.276V437.276L203.186 437.277C202.889 437.284 202.593 437.227 202.32 437.11C202.046 436.993 201.801 436.818 201.601 436.598C201.401 436.378 201.25 436.118 201.159 435.835C201.067 435.552 201.038 435.252 201.073 434.957L201.073 434.957L201.074 434.946C201.136 434.284 201.44 433.669 201.928 433.217C202.414 432.767 203.05 432.512 203.713 432.5L246.104 432.5L246.111 432.5C246.411 432.496 246.708 432.556 246.983 432.675C247.259 432.794 247.505 432.971 247.708 433.192C247.91 433.414 248.063 433.676 248.156 433.961C248.249 434.246 248.281 434.548 248.249 434.846L248.249 434.847C248.181 435.492 247.884 436.093 247.412 436.538C246.943 436.982 246.331 437.243 245.686 437.276H203.198Z" fill="white" stroke="#FA2609"/>
<path d="M233.957 448.659H233.952H202.215V448.658L202.203 448.659C201.903 448.666 201.605 448.608 201.329 448.49C201.053 448.372 200.805 448.196 200.603 447.974C200.401 447.752 200.248 447.489 200.156 447.204C200.064 446.918 200.034 446.616 200.069 446.317L200.069 446.317L200.07 446.306C200.132 445.645 200.436 445.029 200.924 444.578C201.41 444.128 202.046 443.872 202.709 443.861H234.464H234.475L234.486 443.861C234.786 443.847 235.085 443.898 235.363 444.009C235.642 444.121 235.893 444.291 236.1 444.508L236.462 444.163L236.1 444.508C236.307 444.725 236.466 444.984 236.564 445.267C236.663 445.55 236.7 445.852 236.673 446.15L236.673 446.15L236.672 446.159C236.622 446.843 236.313 447.482 235.809 447.946C235.304 448.41 234.642 448.665 233.957 448.659Z" fill="white" stroke="#FA2609"/>
<path opacity="0.3" d="M203.198 437.276V437.276L203.186 437.277C202.889 437.284 202.593 437.227 202.32 437.11C202.046 436.993 201.801 436.818 201.601 436.598C201.401 436.378 201.25 436.118 201.159 435.835C201.067 435.552 201.038 435.252 201.073 434.957L201.073 434.957L201.074 434.946C201.136 434.284 201.44 433.669 201.928 433.217C202.414 432.767 203.05 432.512 203.713 432.5L246.104 432.5L246.111 432.5C246.411 432.496 246.708 432.556 246.983 432.675C247.259 432.794 247.505 432.971 247.708 433.192C247.91 433.414 248.063 433.676 248.156 433.961C248.249 434.246 248.281 434.548 248.249 434.846L248.249 434.847C248.181 435.492 247.884 436.093 247.412 436.538C246.943 436.982 246.331 437.243 245.686 437.276H203.198Z" fill="white" stroke="#FA2609"/>
<path opacity="0.3" d="M233.957 448.659H233.952H202.215V448.658L202.203 448.659C201.903 448.666 201.605 448.608 201.329 448.49C201.053 448.372 200.805 448.196 200.603 447.974C200.401 447.752 200.248 447.489 200.156 447.204C200.064 446.918 200.034 446.616 200.069 446.317L200.069 446.317L200.07 446.306C200.132 445.645 200.436 445.029 200.924 444.578C201.41 444.128 202.046 443.872 202.709 443.861H234.464H234.475L234.486 443.861C234.786 443.847 235.085 443.898 235.363 444.009C235.642 444.121 235.893 444.291 236.1 444.508L236.462 444.163L236.1 444.508C236.307 444.725 236.466 444.984 236.564 445.267C236.663 445.55 236.7 445.852 236.673 446.15L236.673 446.15L236.672 446.159C236.622 446.843 236.313 447.482 235.809 447.946C235.304 448.41 234.642 448.665 233.957 448.659Z" fill="white" stroke="#FA2609"/>
<path d="M338.715 273.752L338.706 273.752C337.038 273.783 335.382 273.457 333.849 272.798C332.316 272.138 330.941 271.16 329.815 269.928C328.69 268.696 327.839 267.239 327.321 265.652C326.802 264.066 326.627 262.388 326.807 260.729L326.807 260.729L326.808 260.719L333.841 180.306C333.841 180.305 333.841 180.304 333.841 180.303C334.205 176.748 335.858 173.449 338.489 171.03C341.12 168.612 344.546 167.242 348.119 167.178L480.52 167.178L480.529 167.178C482.198 167.148 483.853 167.474 485.386 168.133C486.919 168.792 488.294 169.771 489.42 171.003C490.545 172.235 491.396 173.692 491.915 175.278C492.433 176.864 492.608 178.543 492.428 180.202L492.428 180.202L492.427 180.212L485.394 260.707C485.394 260.708 485.394 260.71 485.394 260.712C485.011 264.252 483.35 267.53 480.721 269.931C478.092 272.333 474.676 273.691 471.116 273.752L338.715 273.752Z" fill="white" stroke="#FA2609"/>
<path d="M395.448 215.242L395.447 215.246C394.779 221.755 391.753 227.796 386.939 232.228C382.125 236.661 375.856 239.179 369.314 239.308C366.247 239.362 363.203 238.762 360.386 237.548C357.569 236.334 355.042 234.534 352.975 232.267C350.907 230.001 349.346 227.32 348.396 224.403C347.445 221.487 347.126 218.401 347.461 215.351L347.461 215.347C348.121 208.834 351.144 202.789 355.96 198.355C360.776 193.921 367.05 191.405 373.595 191.285C376.662 191.231 379.706 191.831 382.523 193.045C385.34 194.259 387.867 196.06 389.934 198.326C392.001 200.593 393.562 203.273 394.513 206.19C395.464 209.107 395.782 212.193 395.448 215.242Z" fill="white" stroke="#FA2609"/>
<path opacity="0.7" d="M395.448 215.242L395.447 215.246C394.779 221.755 391.753 227.796 386.939 232.228C382.125 236.661 375.856 239.179 369.314 239.308C366.247 239.362 363.203 238.762 360.386 237.548C357.569 236.334 355.042 234.534 352.975 232.267C350.907 230.001 349.346 227.32 348.396 224.403C347.445 221.487 347.126 218.401 347.461 215.351L347.461 215.347C348.121 208.834 351.144 202.789 355.96 198.355C360.776 193.921 367.05 191.405 373.595 191.285C376.662 191.231 379.706 191.831 382.523 193.045C385.34 194.259 387.867 196.06 389.934 198.326C392.001 200.593 393.562 203.273 394.513 206.19C395.464 209.107 395.782 212.193 395.448 215.242Z" fill="white" stroke="#FA2609"/>
<path d="M378.351 210.905C378.12 213.553 377.504 215.88 376.336 217.534C375.189 219.158 373.488 220.168 370.963 220.168C369.686 220.168 368.686 219.915 367.905 219.48C367.128 219.046 366.541 218.417 366.112 217.618C365.244 216 365.027 213.689 365.258 210.991C365.49 208.301 366.111 205.975 367.283 204.333C368.433 202.721 370.139 201.729 372.668 201.729C373.943 201.729 374.941 201.987 375.719 202.427C376.495 202.867 377.08 203.504 377.507 204.309C378.371 205.939 378.583 208.251 378.351 210.905Z" fill="white" stroke="#FA2609"/>
<path d="M369.273 239.308L369.273 239.308C365.639 239.361 362.051 238.497 358.839 236.797C355.736 235.154 353.081 232.78 351.102 229.883C353.926 226.552 359.796 224.194 370.687 224.194C381.593 224.194 386.993 226.55 389.209 229.818C386.807 232.696 383.819 235.032 380.443 236.667C376.958 238.355 373.145 239.257 369.273 239.308Z" fill="white" stroke="#FA2609"/>
<path d="M413.889 187.429L413.879 187.429C413.519 187.436 413.161 187.367 412.83 187.224L412.633 187.684L412.83 187.224C412.499 187.082 412.203 186.871 411.96 186.605L411.59 186.942L411.96 186.605C411.717 186.339 411.534 186.024 411.424 185.681C411.313 185.338 411.276 184.976 411.317 184.618L411.317 184.618L411.318 184.612C411.399 183.821 411.767 183.088 412.352 182.55C412.937 182.013 413.697 181.708 414.491 181.694H454.28V181.694L454.291 181.693C454.651 181.686 455.008 181.756 455.339 181.898C455.67 182.04 455.967 182.251 456.21 182.518C456.452 182.784 456.635 183.099 456.746 183.442C456.857 183.784 456.893 184.147 456.853 184.505L456.853 184.505L456.852 184.513C456.775 185.304 456.408 186.04 455.822 186.578C455.237 187.115 454.475 187.418 453.68 187.429H413.889V187.429Z" fill="white" stroke="#FA2609"/>
<path d="M411.718 212.302V212.302L411.707 212.302C411.347 212.31 410.99 212.24 410.659 212.098C410.328 211.956 410.031 211.745 409.788 211.478C409.545 211.212 409.363 210.897 409.252 210.554C409.141 210.212 409.104 209.849 409.145 209.491L409.145 209.491L409.146 209.485C409.227 208.692 409.594 207.955 410.18 207.414C410.764 206.874 411.525 206.565 412.32 206.546L464.897 206.546L464.904 206.546C465.265 206.541 465.624 206.613 465.955 206.757C466.287 206.902 466.583 207.115 466.826 207.383C467.069 207.651 467.252 207.967 467.363 208.312C467.474 208.656 467.51 209.019 467.47 209.379L467.469 209.379L467.469 209.386C467.392 210.178 467.025 210.913 466.439 211.451C465.854 211.989 465.091 212.292 464.297 212.302H411.718Z" fill="white" stroke="#FA2609"/>
<path d="M410.632 224.729L410.621 224.729C410.261 224.736 409.904 224.666 409.573 224.524L409.375 224.984L409.573 224.524C409.242 224.382 408.945 224.171 408.702 223.905L408.333 224.241L408.702 223.905C408.46 223.638 408.277 223.323 408.166 222.981C408.055 222.638 408.018 222.275 408.059 221.917L408.059 221.917L408.06 221.912C408.141 221.121 408.509 220.387 409.094 219.85C409.679 219.313 410.44 219.008 411.233 218.993L474.468 218.993L474.479 218.993C474.839 218.986 475.196 219.056 475.527 219.198C475.858 219.34 476.155 219.551 476.398 219.817C476.64 220.084 476.823 220.399 476.934 220.741C477.045 221.084 477.082 221.447 477.041 221.805L477.041 221.805L477.04 221.812C476.963 222.604 476.596 223.34 476.01 223.878C475.425 224.415 474.663 224.718 473.868 224.729H410.632V224.729Z" fill="white" stroke="#FA2609"/>
<path d="M409.542 237.177V237.177L409.535 237.177C409.173 237.182 408.815 237.109 408.484 236.965C408.152 236.821 407.855 236.607 407.613 236.339C407.37 236.072 407.187 235.755 407.076 235.411C406.965 235.067 406.929 234.703 406.969 234.344L406.969 234.341C407.055 233.551 407.424 232.819 408.009 232.282C408.593 231.745 409.352 231.439 410.144 231.42H469.116V231.42L469.126 231.42C469.486 231.413 469.843 231.482 470.174 231.624C470.505 231.767 470.802 231.978 471.045 232.244C471.288 232.51 471.471 232.825 471.581 233.168C471.692 233.511 471.729 233.873 471.688 234.231L471.688 234.231L471.687 234.24C471.61 235.034 471.244 235.772 470.658 236.314C470.073 236.854 469.31 237.161 468.514 237.177H409.542Z" fill="white" stroke="#FA2609"/>
<path d="M408.456 249.603V249.603L408.446 249.603C408.085 249.611 407.728 249.541 407.397 249.399C407.066 249.257 406.769 249.045 406.526 248.779C406.284 248.513 406.101 248.198 405.99 247.855C405.879 247.512 405.843 247.15 405.883 246.792L405.883 246.792L405.884 246.784C405.961 245.989 406.327 245.251 406.913 244.71C407.498 244.169 408.261 243.862 409.057 243.846L461.635 243.847L461.642 243.846C462.004 243.842 462.362 243.914 462.693 244.058C463.025 244.203 463.322 244.416 463.564 244.684C463.807 244.952 463.99 245.268 464.101 245.612C464.212 245.956 464.248 246.32 464.208 246.679L464.207 246.684C464.125 247.485 463.749 248.226 463.152 248.765C462.555 249.304 461.779 249.603 460.975 249.603C460.975 249.603 460.974 249.603 460.974 249.603H408.456Z" fill="white" stroke="#FA2609"/>
<path d="M407.37 262.029L407.36 262.03C406.999 262.037 406.642 261.967 406.311 261.825L406.114 262.285L406.311 261.825C405.98 261.683 405.683 261.472 405.44 261.205L405.071 261.542L405.44 261.205C405.198 260.939 405.015 260.624 404.904 260.281C404.793 259.939 404.757 259.576 404.797 259.218L404.797 259.218L404.798 259.21C404.875 258.419 405.242 257.683 405.828 257.145C406.413 256.608 407.176 256.305 407.97 256.294H466.944V256.294L466.954 256.294C467.314 256.287 467.672 256.356 468.003 256.498C468.334 256.641 468.631 256.852 468.873 257.118C469.116 257.384 469.299 257.699 469.41 258.042C469.521 258.385 469.557 258.747 469.516 259.105L469.516 259.108C469.431 259.898 469.061 260.63 468.476 261.168C467.892 261.704 467.134 262.01 466.341 262.029H407.37V262.029Z" fill="white" stroke="#FA2609"/>
<path d="M71.2384 273.752L71.2294 273.752C69.5609 273.782 67.9052 273.457 66.3722 272.798C64.8393 272.138 63.4643 271.16 62.3387 269.928C61.2131 268.696 60.3627 267.239 59.844 265.652C59.3253 264.066 59.1503 262.388 59.3305 260.729H59.3306L59.3315 260.719L71.9916 116.043C71.9917 116.042 71.9918 116.041 71.992 116.04C72.3552 112.484 74.0087 109.186 76.6398 106.767C79.2707 104.349 82.6966 102.978 86.2695 102.915L313.904 102.915L313.913 102.915C315.58 102.885 317.235 103.21 318.767 103.87C320.299 104.529 321.673 105.508 322.797 106.74C323.921 107.972 324.769 109.43 325.285 111.016C325.801 112.602 325.974 114.28 325.79 115.937L325.789 115.949L313.236 260.706C313.236 260.708 313.236 260.71 313.235 260.712C312.849 264.246 311.189 267.519 308.566 269.919C305.942 272.319 302.534 273.682 298.978 273.752L71.2384 273.752Z" fill="white" stroke="#FA2609"/>
<path opacity="0.7" d="M71.2384 273.752L71.2294 273.752C69.5609 273.782 67.9052 273.457 66.3722 272.798C64.8393 272.138 63.4643 271.16 62.3387 269.928C61.2131 268.696 60.3627 267.239 59.844 265.652C59.3253 264.066 59.1503 262.388 59.3305 260.729H59.3306L59.3315 260.719L71.9916 116.043C71.9917 116.042 71.9918 116.041 71.992 116.04C72.3552 112.484 74.0087 109.186 76.6398 106.767C79.2707 104.349 82.6966 102.978 86.2695 102.915L313.904 102.915L313.913 102.915C315.58 102.885 317.235 103.21 318.767 103.87C320.299 104.529 321.673 105.508 322.797 106.74C323.921 107.972 324.769 109.43 325.285 111.016C325.801 112.602 325.974 114.28 325.79 115.937L325.789 115.949L313.236 260.706C313.236 260.708 313.236 260.71 313.235 260.712C312.849 264.246 311.189 267.519 308.566 269.919C305.942 272.319 302.534 273.682 298.978 273.752L71.2384 273.752Z" fill="white" stroke="#FA2609"/>
<path d="M319.561 188.487C317.583 178.559 314.883 168.321 311.742 160.267C309.985 155.76 308.08 151.911 306.07 149.179C304.079 146.471 301.89 144.735 299.543 144.735C295.843 144.735 292.525 146.639 289.517 149.838C286.511 153.035 283.771 157.569 281.216 162.941C276.106 173.685 271.673 187.918 267.328 201.868L267.328 201.869C262.389 217.784 257.607 233.188 251.672 244.618C245.723 256.073 238.725 263.329 229.44 263.329C223.859 263.329 219.375 261.113 215.684 257.171C211.978 253.214 209.067 247.511 206.691 240.554C201.935 226.636 199.372 207.882 196.727 188.521C196.727 188.521 196.727 188.521 196.727 188.521L196.232 188.589C191.521 153.974 186.64 118.251 168.843 118.251C151.045 118.251 139.812 153.974 129.155 188.482L319.561 188.487ZM319.561 188.487L321.097 170.689C318.899 162.772 316.075 154.892 312.56 148.995C309.014 143.046 304.865 139.277 300.076 139.277C290.79 139.277 283.792 146.533 277.843 157.988C271.908 169.418 267.126 184.822 262.187 200.737L262.187 200.738C257.842 214.687 253.409 228.921 248.301 239.665C245.748 245.037 243.011 249.571 240.008 252.767C237.003 255.966 233.688 257.871 229.994 257.871C225.348 257.871 221.573 255.531 218.474 251.56C215.385 247.603 212.937 241.993 210.913 235.349C206.865 222.061 204.463 204.458 202.109 187.207C199.464 167.847 196.901 149.092 192.146 135.174C189.769 128.217 186.859 122.515 183.153 118.557C179.461 114.615 174.977 112.399 169.397 112.399C158.239 112.399 149.791 121.286 142.585 135.242C135.414 149.13 129.584 167.827 123.565 187.128L123.515 187.288L123.463 187.457C118.101 204.656 112.638 222.182 106.29 235.42C103.106 242.061 99.6844 247.656 95.9165 251.598C92.1456 255.543 87.9885 257.871 83.3502 257.871C81.0202 257.871 78.8477 256.157 76.8699 253.483C74.8741 250.784 72.9815 246.98 71.2337 242.521C68.1071 234.546 65.4111 224.392 63.418 214.505L61.881 232.172C64.0898 240.024 66.9077 247.814 70.404 253.636C73.9306 259.509 78.048 263.222 82.796 263.222C93.9541 263.222 102.408 254.336 109.616 240.38C116.809 226.453 122.652 207.691 128.677 188.335" fill="white" stroke="#FA2609"/>
<path d="M176.827 107.681C179.979 110.973 179.66 116.493 175.986 120.011C172.311 123.529 166.782 123.606 163.631 120.314C160.48 117.022 160.798 111.502 164.473 107.985C168.148 104.467 173.676 104.39 176.827 107.681Z" fill="white" stroke="#FA2609"/>
<path d="M173.279 110.983C174.739 112.508 174.617 115.089 172.883 116.75C171.149 118.411 168.564 118.42 167.105 116.896C165.645 115.372 165.767 112.79 167.501 111.13C169.235 109.469 171.82 109.459 173.279 110.983Z" fill="white" stroke="#FA2609"/>
<path d="M189.599 75.5046H189.609L189.619 75.5041C190.344 75.4747 191.067 75.6021 191.738 75.8776C192.409 76.1531 193.013 76.5701 193.508 77.1003C194.003 77.6305 194.378 78.2613 194.607 78.9496C194.836 79.638 194.914 80.3677 194.835 81.0889L194.835 81.0889L194.834 81.0995L194.323 86.9358C194.164 88.474 193.447 89.901 192.309 90.9482C191.172 91.9951 189.69 92.5903 188.145 92.6218H177.492H177.259L177.109 92.8013L173.101 97.597L173.093 97.6077L173.084 97.6189C172.92 97.8386 172.708 98.0171 172.463 98.1401C172.218 98.263 171.948 98.327 171.673 98.327C171.399 98.327 171.129 98.263 170.884 98.1401C170.643 98.019 170.433 97.8443 170.27 97.6292L167.103 92.8458L166.954 92.6218H166.686H156.029V92.6218L156.02 92.6219C155.305 92.6343 154.595 92.4944 153.938 92.2115C153.281 91.9285 152.692 91.509 152.209 90.9807C151.727 90.4525 151.363 89.8277 151.14 89.1478C150.918 88.4678 150.843 87.7484 150.92 87.0372L150.92 87.0372L150.921 87.0269L151.432 81.1914C151.596 79.6513 152.317 78.224 153.458 77.1771C154.6 76.1302 156.084 75.5356 157.632 75.5046H189.599Z" fill="white" stroke="#FA2609"/>
<path d="M158.053 82.2202V82.22L158.042 82.2203C157.909 82.2232 157.777 82.1976 157.655 82.145C157.533 82.0925 157.424 82.0143 157.334 81.9158C157.245 81.8173 157.178 81.7007 157.138 81.574C157.098 81.4491 157.085 81.3171 157.1 81.1869C157.144 80.8901 157.29 80.6178 157.513 80.4169C157.735 80.2167 158.021 80.1001 158.319 80.0869L187.339 80.0869L187.342 80.0869C187.475 80.0862 187.607 80.1136 187.729 80.1673L187.931 79.7096L187.729 80.1673C187.852 80.221 187.961 80.2998 188.051 80.3986C188.14 80.4974 188.208 80.614 188.249 80.7406C188.29 80.8659 188.305 80.9983 188.292 81.1295C188.255 81.4239 188.114 81.6954 187.895 81.8954C187.676 82.0949 187.393 82.2099 187.097 82.2202H158.053Z" fill="white" stroke="#FA2609"/>
<path d="M157.564 88.0183V88.0182L157.554 88.0184C157.42 88.0211 157.286 87.9952 157.163 87.9424C157.039 87.8895 156.928 87.811 156.837 87.712C156.746 87.613 156.677 87.4958 156.634 87.3681C156.592 87.2404 156.577 87.1052 156.591 86.9713L156.591 86.9679C156.622 86.6556 156.766 86.3655 156.998 86.1537C157.229 85.9423 157.53 85.8239 157.843 85.8211H171.099V85.8213L171.11 85.821C171.243 85.8181 171.375 85.8438 171.497 85.8963L171.695 85.4369L171.497 85.8963C171.619 85.9488 171.729 86.027 171.818 86.1255C171.907 86.224 171.975 86.3406 172.015 86.4673C172.055 86.594 172.068 86.7279 172.052 86.8599L172.052 86.8599L172.051 86.8666C172.018 87.1741 171.876 87.4595 171.651 87.6709C171.428 87.8801 171.137 88.0032 170.832 88.0183H157.564Z" fill="white" stroke="#FA2609"/>
<path d="M235.167 250.16C238.319 253.452 238 258.972 234.325 262.489C230.651 266.007 225.122 266.084 221.971 262.793C218.82 259.501 219.138 253.981 222.813 250.463C226.487 246.946 232.016 246.868 235.167 250.16Z" fill="white" stroke="#FA2609"/>
<path d="M232.646 256.44L232.646 256.44L232.646 256.447C232.533 257.564 232.015 258.601 231.19 259.363C230.365 260.124 229.289 260.557 228.167 260.58L228.167 260.58L228.155 260.58C227.633 260.603 227.112 260.511 226.629 260.313C226.145 260.115 225.71 259.814 225.355 259.431C224.999 259.048 224.73 258.593 224.567 258.096C224.404 257.6 224.351 257.074 224.411 256.554L224.411 256.554L224.411 256.547C224.524 255.43 225.042 254.393 225.867 253.631C226.692 252.87 227.768 252.437 228.89 252.414L228.89 252.414L228.902 252.414C229.424 252.392 229.945 252.483 230.428 252.681C230.912 252.879 231.347 253.18 231.703 253.563C232.059 253.946 232.327 254.401 232.49 254.898C232.653 255.394 232.706 255.92 232.646 256.44Z" fill="white" stroke="#FA2609"/>
<path d="M247.959 217.97L247.966 217.97C248.679 217.961 249.387 218.102 250.041 218.387C250.696 218.671 251.283 219.091 251.763 219.619C252.243 220.147 252.606 220.771 252.827 221.449C253.048 222.128 253.123 222.845 253.046 223.555L253.046 223.555L253.045 223.565L252.534 229.378C252.534 229.379 252.534 229.38 252.534 229.381C252.379 230.926 251.662 232.361 250.519 233.413C249.376 234.465 247.887 235.06 246.335 235.088H235.788H235.555L235.405 235.267L231.398 240.063L231.391 240.07L231.385 240.078C231.217 240.296 231.001 240.473 230.754 240.594C230.506 240.716 230.234 240.779 229.959 240.779C229.683 240.779 229.411 240.716 229.164 240.594C228.922 240.475 228.71 240.303 228.543 240.091L225.377 235.311L225.229 235.088H224.961H214.41V235.087L214.401 235.088C213.684 235.1 212.972 234.96 212.314 234.676C211.655 234.392 211.065 233.97 210.582 233.44C210.1 232.91 209.736 232.282 209.515 231.6C209.294 230.918 209.221 230.196 209.301 229.483L209.301 229.484L209.302 229.471L209.813 223.656C209.973 222.118 210.689 220.691 211.827 219.644C212.965 218.597 214.446 218.002 215.992 217.97L247.959 217.97Z" fill="white" stroke="#FA2609"/>
<path d="M216.413 224.686L216.402 224.687C216.269 224.69 216.137 224.664 216.015 224.611C215.892 224.559 215.783 224.481 215.694 224.382L215.335 224.707L215.694 224.382C215.604 224.284 215.537 224.167 215.497 224.04C215.457 223.914 215.444 223.78 215.46 223.648L215.46 223.648L215.461 223.636C215.491 223.326 215.634 223.038 215.862 222.827C216.089 222.616 216.386 222.496 216.695 222.489L245.699 222.489L245.702 222.489C245.835 222.489 245.967 222.516 246.089 222.57C246.211 222.623 246.32 222.702 246.41 222.801C246.499 222.9 246.567 223.016 246.609 223.143C246.65 223.27 246.665 223.404 246.651 223.536L246.651 223.536L246.65 223.545C246.624 223.85 246.487 224.134 246.266 224.345C246.046 224.553 245.758 224.675 245.455 224.686H216.413V224.686Z" fill="white" stroke="#FA2609"/>
<path d="M215.858 230.42V230.42L215.847 230.42C215.714 230.423 215.582 230.398 215.46 230.345C215.338 230.292 215.228 230.214 215.139 230.116C215.05 230.017 214.983 229.901 214.942 229.774C214.902 229.647 214.889 229.513 214.905 229.381L214.905 229.381L214.906 229.375C214.939 229.065 215.083 228.777 215.312 228.566C215.539 228.355 215.834 228.234 216.143 228.223H229.435V228.223L229.445 228.223C229.58 228.22 229.713 228.246 229.837 228.299C229.961 228.352 230.072 228.43 230.163 228.529C230.254 228.628 230.323 228.745 230.366 228.873C230.408 229.001 230.423 229.136 230.409 229.27L230.408 229.274C230.379 229.581 230.238 229.867 230.013 230.078C229.79 230.287 229.498 230.409 229.192 230.42H215.858Z" fill="white" stroke="#FA2609"/>
<path d="M308.631 141.345L308.631 141.349C308.393 143.726 307.291 145.932 305.535 147.55C303.779 149.168 301.49 150.086 299.102 150.128L299.101 150.129C297.99 150.15 296.887 149.933 295.867 149.494C294.846 149.055 293.93 148.404 293.181 147.583C292.433 146.762 291.867 145.79 291.524 144.734C291.18 143.677 291.066 142.559 291.188 141.454L291.189 141.451C291.436 139.08 292.541 136.881 294.296 135.267C296.051 133.654 298.335 132.738 300.719 132.691C301.828 132.671 302.929 132.886 303.948 133.324C304.967 133.762 305.882 134.412 306.63 135.231C307.379 136.049 307.944 137.018 308.289 138.072C308.635 139.127 308.751 140.242 308.631 141.345Z" fill="white" stroke="#FA2609"/>
<path d="M303.982 141.344L303.982 141.349C303.869 142.466 303.351 143.503 302.526 144.265C301.701 145.026 300.625 145.459 299.503 145.482L299.503 145.482L299.491 145.482C298.969 145.504 298.448 145.413 297.965 145.215C297.481 145.017 297.046 144.716 296.69 144.333C296.334 143.95 296.066 143.495 295.903 142.998C295.74 142.502 295.687 141.976 295.747 141.456L295.747 141.456L295.747 141.451C295.864 140.337 296.384 139.305 297.209 138.547C298.033 137.79 299.106 137.36 300.226 137.338L300.226 137.338L300.237 137.337C300.758 137.315 301.277 137.406 301.759 137.603C302.241 137.8 302.675 138.1 303.03 138.48C303.386 138.861 303.655 139.314 303.819 139.808C303.984 140.302 304.039 140.826 303.982 141.344Z" fill="white" stroke="#FA2609"/>
<path d="M319.294 102.915V102.915L319.307 102.915C320.025 102.897 320.739 103.033 321.401 103.313L321.596 102.853L321.401 103.313C322.063 103.594 322.657 104.013 323.143 104.541C323.63 105.07 323.998 105.697 324.223 106.38C324.447 107.063 324.523 107.785 324.445 108.5L324.445 108.5L324.444 108.51L323.933 114.347C323.773 115.888 323.054 117.318 321.912 118.365C320.77 119.413 319.284 120.006 317.734 120.033H307.188H306.954L306.804 120.212L302.797 125.008L302.788 125.018L302.78 125.03C302.616 125.249 302.403 125.428 302.158 125.551C301.913 125.674 301.643 125.738 301.369 125.738C301.095 125.738 300.824 125.674 300.58 125.551C300.338 125.43 300.128 125.255 299.966 125.04L296.798 120.257L296.65 120.033H296.381H285.724V120.033L285.715 120.033C285 120.045 284.29 119.905 283.633 119.622C282.976 119.339 282.387 118.92 281.905 118.391C281.422 117.863 281.058 117.238 280.836 116.559C280.613 115.879 280.538 115.159 280.615 114.448L280.615 114.448L280.616 114.438L281.128 108.601C281.288 107.06 282.007 105.63 283.149 104.583C284.291 103.535 285.777 102.942 287.327 102.915H319.294Z" fill="white" stroke="#FA2609"/>
<path d="M287.753 109.631L287.742 109.631C287.609 109.634 287.477 109.608 287.354 109.556L287.167 109.993L287.354 109.556C287.232 109.503 287.123 109.425 287.034 109.326C286.944 109.228 286.877 109.111 286.837 108.985C286.796 108.858 286.784 108.724 286.8 108.592L286.8 108.592L286.801 108.58C286.831 108.271 286.974 107.983 287.202 107.771C287.429 107.561 287.725 107.441 288.035 107.434L317.081 107.434L317.084 107.434C317.217 107.433 317.349 107.46 317.471 107.514C317.593 107.568 317.703 107.647 317.792 107.745C317.882 107.844 317.95 107.961 317.991 108.087C318.033 108.214 318.047 108.348 318.033 108.481L318.033 108.481L318.033 108.49C318.006 108.799 317.865 109.088 317.637 109.299C317.41 109.509 317.112 109.628 316.802 109.631H287.753V109.631Z" fill="white" stroke="#FA2609"/>
<path d="M300.539 115.928H287.238C287.035 115.929 286.833 115.887 286.647 115.805C286.461 115.723 286.294 115.603 286.157 115.452C286.02 115.301 285.917 115.123 285.853 114.93C285.79 114.736 285.768 114.532 285.789 114.329C285.831 113.894 286.033 113.49 286.356 113.194C286.679 112.899 287.099 112.734 287.537 112.731M300.539 115.928C300.975 115.92 301.393 115.753 301.715 115.459C302.036 115.165 302.24 114.763 302.286 114.329M300.539 115.928V115.428H300.534M300.539 115.928L300.53 115.428C300.531 115.428 300.532 115.428 300.534 115.428M302.286 114.329C302.308 114.125 302.285 113.919 302.22 113.724C302.156 113.529 302.05 113.35 301.911 113.199C301.772 113.047 301.603 112.927 301.414 112.847M302.286 114.329L301.789 114.276C301.789 114.276 301.789 114.276 301.789 114.277M302.286 114.329L301.789 114.278C301.789 114.277 301.789 114.277 301.789 114.277M301.414 112.847C301.225 112.766 301.021 112.727 300.816 112.731H287.537M301.414 112.847L301.217 113.307C301.094 113.254 300.96 113.228 300.826 113.231L300.816 113.231V113.231H287.539M301.414 112.847L301.217 113.307C301.341 113.36 301.452 113.438 301.543 113.537C301.634 113.636 301.704 113.753 301.746 113.881C301.788 114.008 301.803 114.143 301.789 114.277M287.537 112.731V113.231H287.539M287.537 112.731L287.54 113.231C287.54 113.231 287.539 113.231 287.539 113.231M287.539 113.231C287.226 113.233 286.924 113.352 286.693 113.563C286.462 113.775 286.317 114.065 286.287 114.378L286.286 114.381C286.273 114.513 286.287 114.647 286.328 114.774C286.37 114.901 286.438 115.018 286.527 115.116C286.617 115.215 286.726 115.294 286.848 115.348L286.659 115.777L286.848 115.348C286.97 115.401 287.102 115.429 287.236 115.428L287.238 115.428V115.428H300.534M301.789 114.277C301.755 114.589 301.609 114.878 301.377 115.09C301.146 115.301 300.846 115.421 300.534 115.428" fill="white" stroke="#FA2609"/>
<path d="M94.3773 257.465L94.3769 257.469C94.1343 259.842 93.0307 262.044 91.2747 263.658C89.5189 265.271 87.2325 266.186 84.848 266.228C83.7407 266.246 82.6422 266.028 81.6255 265.589C80.6086 265.15 79.6968 264.5 78.9504 263.681C78.204 262.863 77.6401 261.895 77.2963 260.842C76.9524 259.789 76.8363 258.675 76.9557 257.574L76.9561 257.57C77.1941 255.194 78.2957 252.987 80.0521 251.369C81.8084 249.751 84.0973 248.834 86.485 248.791C87.5942 248.773 88.6946 248.991 89.7129 249.432C90.7313 249.872 91.6442 250.524 92.3909 251.345C93.1377 252.165 93.701 253.136 94.0435 254.191C94.386 255.246 94.4998 256.362 94.3773 257.465Z" fill="white" stroke="#FA2609"/>
<path d="M89.7521 257.468L89.7524 257.466C89.8092 256.947 89.7536 256.422 89.5894 255.926L90.064 255.769L89.5894 255.926C89.4251 255.431 89.156 254.976 88.8005 254.594C88.4449 254.212 88.0111 253.911 87.5287 253.711C87.0463 253.512 86.5266 253.418 86.0049 253.438L85.9963 253.438L85.9963 253.438C84.871 253.46 83.7926 253.892 82.9639 254.654C82.1352 255.415 81.6132 256.453 81.4962 257.572L89.7521 257.468ZM89.7521 257.468C89.6348 258.585 89.1123 259.62 88.2835 260.378C87.4548 261.136 86.377 261.564 85.254 261.582L85.254 261.582M89.7521 257.468L85.254 261.582M85.254 261.582L85.2436 261.582M85.254 261.582L85.2436 261.582M85.2436 261.582C84.7236 261.601 84.2057 261.508 83.7248 261.31M85.2436 261.582L83.7248 261.31M83.7248 261.31C83.2438 261.111 82.8111 260.812 82.4558 260.431M83.7248 261.31L82.4558 260.431M82.4558 260.431C82.1006 260.051 81.8311 259.599 81.6655 259.106M82.4558 260.431L81.6655 259.106M81.6655 259.106C81.4999 258.613 81.4422 258.09 81.4962 257.572L81.6655 259.106Z" fill="white" stroke="#FA2609"/>
<path d="M105.022 219.015H105.035L105.048 219.014C105.777 218.975 106.505 219.096 107.182 219.368C107.859 219.639 108.469 220.055 108.969 220.587C109.469 221.118 109.847 221.752 110.077 222.445L110.552 222.287L110.077 222.445C110.307 223.137 110.384 223.871 110.301 224.596L110.3 224.604L110.3 224.611L109.81 230.446C109.645 231.986 108.925 233.413 107.784 234.459C106.642 235.506 105.158 236.101 103.61 236.132H92.9576H92.7246L92.5747 236.31L88.5463 241.106L88.5369 241.117L88.5282 241.129C88.3644 241.349 88.1516 241.527 87.9067 241.65C87.6618 241.773 87.3915 241.837 87.1174 241.837C86.8434 241.837 86.5731 241.773 86.3281 241.65C86.0871 241.529 85.8771 241.354 85.7144 241.139L82.5467 236.356L82.3984 236.132H82.1298H71.4726V236.132L71.4617 236.132C70.7458 236.148 70.0349 236.01 69.3767 235.728C68.7184 235.446 68.1281 235.027 67.6452 234.498C67.1624 233.969 66.7982 233.344 66.5772 232.662C66.3562 231.981 66.2834 231.261 66.3637 230.549L66.3645 230.542L66.3651 230.535L66.8549 224.7C67.0194 223.161 67.7397 221.734 68.881 220.687C70.0224 219.64 71.5064 219.046 73.0548 219.015H105.022Z" fill="white" stroke="#FA2609"/>
<path d="M102.557 225.752L102.557 225.752H102.548H73.5175V225.752L73.5075 225.752C73.373 225.755 73.2394 225.729 73.1157 225.676C72.9919 225.623 72.8808 225.545 72.7897 225.446C72.6987 225.347 72.6297 225.23 72.5873 225.102C72.545 224.974 72.5302 224.839 72.5441 224.705L72.5445 224.702C72.5747 224.389 72.7196 224.099 72.9511 223.888C73.1823 223.676 73.4834 223.558 73.7966 223.555H102.889V223.555L102.899 223.555C103.033 223.552 103.167 223.578 103.291 223.631C103.414 223.684 103.525 223.762 103.617 223.861C103.708 223.96 103.777 224.078 103.819 224.205C103.861 224.333 103.876 224.468 103.862 224.601C103.828 224.921 103.674 225.217 103.433 225.43C103.192 225.643 102.879 225.758 102.557 225.752Z" fill="white" stroke="#FA2609"/>
<path d="M86.3068 231.529H86.3045H73.0469V231.529L73.0443 231.529C72.9109 231.529 72.7789 231.502 72.6569 231.448C72.5348 231.395 72.4254 231.316 72.3359 231.217C72.2463 231.118 72.1786 231.002 72.137 230.875C72.0955 230.748 72.0812 230.614 72.0949 230.481L72.095 230.481L72.0957 230.473C72.1222 230.163 72.2632 229.875 72.4912 229.664C72.7186 229.453 73.0164 229.335 73.3263 229.331H86.6242V229.332L86.6353 229.331C86.7682 229.328 86.9003 229.354 87.0224 229.407C87.1445 229.459 87.254 229.537 87.3433 229.636L87.7137 229.3L87.3433 229.636C87.4327 229.734 87.4998 229.851 87.5401 229.978C87.5805 230.104 87.5931 230.238 87.5772 230.37L87.5771 230.37L87.5759 230.382C87.5454 230.697 87.3984 230.989 87.1636 231.201C86.9288 231.413 86.6233 231.53 86.3068 231.529Z" fill="white" stroke="#FA2609"/>
</svg>
