<svg width="703" height="609" viewBox="0 0 703 609" fill="none" xmlns="http://www.w3.org/2000/svg">
<path d="M0.779719 187.051H101.041L351.769 609L0.289915 188.098C-0.0546356 187.682 0.239247 187.051 0.779719 187.051Z" fill="#C12F1B" fill-opacity="0.6"/>
<path d="M602.137 187.051H701.491C702.531 187.051 703.102 188.267 702.433 189.064L351.769 608.997L602.137 187.051Z" fill="#8F372B"/>
<path d="M132.125 1.88353L352.244 185.787L563.746 1.86751C564.508 1.20443 564.013 0 562.977 0H132.877C131.831 0.00320328 131.34 1.22686 132.125 1.88353Z" fill="#8F372B"/>
<path d="M101.033 187.051H351.757V609L101.033 187.051Z" fill="#FA2609" fill-opacity="0.69"/>
<path d="M602.497 187.051H351.769V609L602.497 187.051Z" fill="#FA2609" fill-opacity="0.55"/>
<path d="M128.751 1.66862L0.11547 186.05C-0.178411 186.473 0.122222 187.05 0.639048 187.05H351.766L131.44 1.34773C130.626 0.631602 129.373 0.780223 128.751 1.66862Z" fill="#C12F1B" fill-opacity="0.87"/>
<path d="M563.437 1.36441L351.769 187.05H701.673C702.683 187.05 703.261 185.898 702.659 185.091L566.119 1.61438C565.478 0.753004 564.231 0.634772 563.437 1.36441Z" fill="#C12F1B"/>
</svg>
