<svg width="220" height="245" viewBox="0 0 220 245" fill="none" xmlns="http://www.w3.org/2000/svg">
<path d="M71.6069 239.154L78.2529 236.829C78.2587 236.84 78.2646 236.851 78.2705 236.862C78.4045 237.118 78.5883 237.485 78.7857 237.922C79.1829 238.802 79.6255 239.948 79.8388 241.057L79.8388 241.057C80.0512 242.162 79.9483 242.882 79.6929 243.357C79.4437 243.821 79.0033 244.136 78.3444 244.335C78.22 244.373 77.9921 244.406 77.6556 244.422C77.3286 244.438 76.93 244.436 76.4819 244.418C75.5864 244.382 74.5161 244.283 73.4695 244.14C72.4213 243.996 71.4104 243.809 70.6303 243.6C70.239 243.496 69.9196 243.39 69.6873 243.287C69.5712 243.235 69.4874 243.189 69.4309 243.151C69.401 243.131 69.3848 243.116 69.3774 243.109C69.373 243.095 69.3633 243.049 69.3739 242.953C69.3885 242.82 69.4366 242.642 69.5235 242.423C69.6968 241.985 69.99 241.466 70.3168 240.956C70.6409 240.45 70.9856 239.971 71.2505 239.618C71.3826 239.442 71.4942 239.298 71.5724 239.198C71.5848 239.182 71.5963 239.168 71.6069 239.154Z" fill="white" stroke="#FA2609"/>
<path d="M71.8327 238.473L71.8327 238.473C71.9529 238.192 72.4289 237.335 72.8984 236.511C73.1283 236.107 73.35 235.723 73.5143 235.439C73.5716 235.34 73.622 235.253 73.6632 235.183L76.8217 234.739L76.4586 238.951C76.2668 238.997 76.0044 239.06 75.6938 239.133C75.0261 239.289 74.1385 239.489 73.2547 239.667C72.5456 239.809 72.1884 239.562 72.0039 239.299C71.9001 239.151 71.8373 238.977 71.8135 238.813C71.7886 238.642 71.8117 238.522 71.8327 238.473Z" fill="white" stroke="#FA2609"/>
<path d="M62.4686 115.191L62.4686 115.191C62.3933 113.902 62.1352 111.699 61.8984 109.833C61.7795 108.897 61.6654 108.04 61.5809 107.418C61.5618 107.277 61.5442 107.148 61.5284 107.032L66.8496 107.527C66.8521 107.715 66.8552 107.959 66.8584 108.254C66.8668 109.007 66.8766 110.093 66.8822 111.421C66.8934 114.076 66.8878 117.696 66.8207 121.559C66.7536 125.423 66.6251 129.526 66.3907 133.147C66.1556 136.778 65.8159 139.888 65.3357 141.787L65.8204 141.91L65.3357 141.787C64.3423 145.716 64.11 148.316 64.1677 150.22C64.207 151.517 64.3882 152.523 64.5363 153.345C64.6014 153.706 64.6601 154.032 64.6975 154.331C64.8185 155.299 64.6191 156.27 64.3048 157.219C64.1479 157.693 63.9658 158.152 63.7853 158.6C63.7684 158.642 63.7515 158.684 63.7346 158.726C63.5734 159.125 63.414 159.52 63.2875 159.891C63.2732 159.933 63.2598 159.969 63.2476 160C63.2197 159.979 63.1883 159.955 63.152 159.928L63.1218 159.905C62.9078 159.743 62.59 159.506 62.1722 159.375C61.738 159.239 61.228 159.225 60.6342 159.441C60.2283 159.589 59.9572 159.568 59.7757 159.504C59.5886 159.438 59.4355 159.305 59.3087 159.128C59.1806 158.949 59.0938 158.743 59.0388 158.573C59.0119 158.49 58.994 158.42 58.9831 158.372C58.9777 158.348 58.9741 158.33 58.972 158.32L58.9701 158.31L58.97 158.309L58.97 158.309L58.97 158.309L58.9699 158.308L58.9698 158.308L58.8811 157.753L58.3392 157.908L58.3392 157.908L58.3391 157.908L58.3386 157.908L58.3354 157.909L58.3217 157.913C58.3093 157.916 58.2906 157.921 58.2667 157.928C58.2188 157.94 58.1501 157.958 58.0683 157.978C57.9029 158.019 57.6917 158.065 57.4935 158.096C57.483 158.097 57.4726 158.099 57.4624 158.1C57.463 158.092 57.4636 158.083 57.4641 158.075C57.4736 157.904 57.4437 157.752 57.4215 157.641C57.4191 157.629 57.4166 157.617 57.4141 157.604C57.3733 157.403 57.3258 157.168 57.3624 156.729C57.4 156.277 57.5712 155.829 57.7643 155.352C57.7728 155.331 57.7813 155.31 57.79 155.289C57.8748 155.08 57.9639 154.86 58.0322 154.651C58.1072 154.421 58.1703 154.167 58.1703 153.911C58.1703 153.79 58.1629 153.631 58.1552 153.467C58.1509 153.375 58.1466 153.281 58.1434 153.191C58.1339 152.921 58.1319 152.638 58.157 152.367C58.2107 151.787 58.371 151.444 58.6262 151.304C58.9873 151.108 59.2429 150.788 59.4313 150.434C59.6196 150.081 59.7574 149.662 59.8683 149.218C60.0288 148.576 60.1473 147.817 60.2676 147.046C60.3117 146.764 60.3559 146.481 60.4025 146.201C60.5876 145.092 60.7902 142.057 60.975 138.668C61.1608 135.261 61.3305 131.453 61.4461 128.766C61.554 126.256 61.8176 123.692 62.0531 121.403C62.068 121.258 62.0829 121.114 62.0975 120.971C62.341 118.597 62.5455 116.511 62.4686 115.191ZM63.4062 160.104C63.4062 160.104 63.4056 160.104 63.4043 160.103L63.4062 160.104ZM57.0921 158.123C57.0815 158.121 57.0836 158.121 57.0943 158.124C57.0936 158.123 57.0929 158.123 57.0921 158.123Z" fill="white" stroke="#FA2609"/>
<path d="M92.1069 124.836V127.043C91.987 127.034 91.8484 127.024 91.6924 127.013C91.0855 126.971 90.2149 126.91 89.16 126.837C87.0503 126.692 84.2031 126.501 81.2535 126.317C78.3043 126.132 75.2509 125.954 72.7296 125.835C70.2229 125.717 68.206 125.655 67.355 125.709C65.7326 125.812 64.7554 125.811 64.1912 125.786C64.0787 125.781 63.983 125.775 63.9023 125.769V121.648L92.1069 122.6V124.836Z" fill="white" stroke="#FA2609"/>
<path d="M75.8957 126.517C76.2609 126.527 76.5654 126.537 76.796 126.544L75.7991 152.727L75.799 152.73L76.2987 152.746L75.799 152.73L75.799 152.73L75.799 152.73L75.7989 152.732L75.7987 152.738L75.798 152.763L75.7951 152.856L75.7849 153.2C75.7765 153.49 75.7653 153.891 75.7541 154.334C75.7317 155.218 75.7091 156.276 75.7091 156.955C75.7091 157.661 75.8254 158.767 75.9656 159.98C75.9981 160.261 76.0319 160.548 76.0663 160.84C76.1822 161.824 76.3035 162.853 76.3933 163.819C76.5082 165.054 76.8971 182.237 77.2574 199.158C77.4374 207.608 77.61 215.98 77.7376 222.238C77.8014 225.368 77.854 227.969 77.8906 229.788L77.933 231.898L77.9441 232.453L77.947 232.595L77.9477 232.631L77.9479 232.64L77.9479 232.643C77.9479 232.643 77.9479 232.644 78.4478 232.634L77.9479 232.644L77.9504 232.768C77.8618 232.92 77.6247 233.235 77.0312 233.791C76.7696 234.036 76.3819 234.199 75.8965 234.287C75.4149 234.373 74.878 234.378 74.3644 234.34C73.8534 234.303 73.3822 234.226 73.0376 234.157C72.9728 234.144 72.9127 234.131 72.8578 234.12V234.117V234.112V234.108V234.104V234.1V234.096V234.091V234.087V234.083V234.078V234.074V234.07V234.065V234.061V234.057V234.052V234.048V234.043V234.039V234.034V234.03V234.025V234.02V234.016V234.011V234.007V234.002V233.997V233.992V233.988V233.983V233.978V233.973V233.969V233.964V233.959V233.954V233.949V233.944V233.939V233.934V233.929V233.924V233.919V233.914V233.909V233.904V233.899V233.894V233.889V233.883V233.878V233.873V233.868V233.863V233.857V233.852V233.847V233.841V233.836V233.831V233.825V233.82V233.814V233.809V233.803V233.798V233.792V233.787V233.781V233.776V233.77V233.765V233.759V233.753V233.748V233.742V233.736V233.73V233.725V233.719V233.713V233.707V233.701V233.695V233.69V233.684V233.678V233.672V233.666V233.66V233.654V233.648V233.642V233.636V233.63V233.623V233.617V233.611V233.605V233.599V233.593V233.586V233.58V233.574V233.568V233.561V233.555V233.549V233.542V233.536V233.529V233.523V233.516V233.51V233.504V233.497V233.49V233.484V233.477V233.471V233.464V233.457V233.451V233.444V233.437V233.431V233.424V233.417V233.41V233.404V233.397V233.39V233.383V233.376V233.369V233.362V233.356V233.349V233.342V233.335V233.328V233.321V233.314V233.306V233.299V233.292V233.285V233.278V233.271V233.264V233.256V233.249V233.242V233.235V233.227V233.22V233.213V233.205V233.198V233.191V233.183V233.176V233.168V233.161V233.153V233.146V233.138V233.131V233.123V233.116V233.108V233.1V233.093V233.085V233.077V233.07V233.062V233.054V233.046V233.039V233.031V233.023V233.015V233.007V232.999V232.991V232.984V232.976V232.968V232.96V232.952V232.944V232.936V232.928V232.919V232.911V232.903V232.895V232.887V232.879V232.871V232.862V232.854V232.846V232.838V232.829V232.821V232.813V232.804V232.796V232.788V232.779V232.771V232.762V232.754V232.745V232.737V232.728V232.72V232.711V232.703V232.694V232.685V232.677V232.668V232.659V232.651V232.642V232.633V232.625V232.616V232.607V232.598V232.589V232.58V232.572V232.563V232.554V232.545V232.536V232.527V232.518V232.509V232.5V232.491V232.482V232.473V232.464V232.455V232.445V232.436V232.427V232.418V232.409V232.399V232.39V232.381V232.372V232.362V232.353V232.344V232.334V232.325V232.316V232.306V232.297V232.287V232.278V232.268V232.259V232.249V232.24V232.23V232.22V232.211V232.201V232.192V232.182V232.172V232.163V232.153V232.143V232.133V232.124V232.114V232.104V232.094V232.084V232.074V232.064V232.055V232.045V232.035V232.025V232.015V232.005V231.995V231.985V231.975V231.965V231.954V231.944V231.934V231.924V231.914V231.904V231.893V231.883V231.873V231.863V231.852V231.842V231.832V231.821V231.811V231.801V231.79V231.78V231.77V231.759V231.749V231.738C72.8578 231.201 72.6812 230.539 72.4439 229.856C72.2022 229.16 71.8766 228.383 71.541 227.6C71.4833 227.466 71.4253 227.331 71.3674 227.196C70.741 225.739 70.1252 224.307 69.8911 223.215C69.6266 221.98 69.1585 219.174 68.7788 216.247C68.3975 213.308 68.1133 210.307 68.2 208.658C68.2251 208.181 68.1354 207.162 67.9735 205.792C67.8091 204.401 67.5639 202.599 67.262 200.519C66.6583 196.358 65.8265 191.077 64.9587 185.736C63.2233 175.054 61.3419 164.124 60.8485 161.432C59.8661 156.073 58.7969 146.434 58.7969 143.163C58.7969 142.412 59.0954 141.003 59.5767 139.248C60.0519 137.516 60.6868 135.509 61.3236 133.601C61.9602 131.693 62.5969 129.888 63.0747 128.56C63.3135 127.896 63.5125 127.351 63.6517 126.973C63.6933 126.86 63.7296 126.761 63.76 126.679C66.4164 126.467 69.7178 126.434 72.4029 126.456C73.7968 126.468 75.0205 126.494 75.8957 126.517Z" fill="white" stroke="#FA2609"/>
<path d="M95.1083 107.697C94.9057 107.24 94.9057 107.24 94.9058 107.24L94.9061 107.24L94.9072 107.239L94.9115 107.237L94.9286 107.23L94.995 107.201L95.2474 107.089C95.4652 106.994 95.7772 106.857 96.1543 106.693C96.9083 106.365 97.9236 105.927 98.9675 105.49C100.01 105.052 101.086 104.613 101.959 104.283C102.395 104.118 102.786 103.977 103.1 103.878C103.257 103.828 103.4 103.787 103.523 103.757C103.619 103.734 103.729 103.712 103.832 103.706C103.81 103.65 103.781 103.583 103.744 103.503C103.722 103.454 103.698 103.401 103.672 103.345C103.597 103.182 103.51 102.991 103.424 102.785C103.347 102.6 103.267 102.273 103.185 101.892C103.1 101.495 103.003 100.988 102.897 100.41C102.769 99.7142 102.628 98.9066 102.478 98.0524C102.379 97.4893 102.277 96.9059 102.173 96.3211C101.91 94.844 101.634 93.3513 101.369 92.118C101.236 91.5011 101.107 90.9543 100.985 90.5094C100.86 90.0556 100.75 89.7378 100.662 89.5607C100.22 88.6781 99.8748 88.0789 99.2116 87.496C98.5339 86.9004 97.4964 86.2984 95.6281 85.4978L95.8242 85.0403L95.6281 85.4978C93.7282 84.6834 92.2116 83.8914 91.1681 83.3017C90.6463 83.0067 90.2425 82.7623 89.968 82.5908C89.8308 82.505 89.7258 82.4374 89.6545 82.3909C89.6189 82.3677 89.5917 82.3496 89.5731 82.3372L89.5517 82.3229L89.5458 82.3189L89.5441 82.3178L89.5436 82.3174L89.5434 82.3173C89.5433 82.3172 89.5432 82.3172 89.8243 81.9037L89.5432 82.3172L89.4708 82.268L89.4195 82.1971L86.2554 77.8311H85.979L74.0623 78.2002C74.019 78.2254 73.9629 78.2589 73.8971 78.3001C73.7312 78.4039 73.5071 78.5542 73.274 78.7398C72.786 79.1283 72.347 79.6026 72.2133 80.0706C72.1264 80.3745 71.8931 80.6243 71.6671 80.8176C71.4264 81.0237 71.1178 81.2284 70.7758 81.4284C70.0904 81.8292 69.2073 82.2471 68.3104 82.6507C67.9024 82.8343 67.4965 83.0128 67.1011 83.1867C66.6107 83.4024 66.1363 83.611 65.6937 83.8136C64.8894 84.1817 64.2797 84.4909 63.972 84.7217C63.6879 84.9348 63.3536 85.1449 62.9946 85.3704C61.3735 86.3891 59.2496 87.7236 58.9757 91.0796C58.7946 93.2978 58.2313 96.9674 57.7167 100.066C57.4589 101.619 57.2122 103.034 57.0301 104.061C56.9437 104.548 56.8719 104.947 56.8201 105.233L62.8639 106.309L63.2413 106.377L63.2743 106.759L62.7762 106.802C63.2743 106.759 63.2744 106.759 63.2744 106.759L63.2744 106.759L63.2745 106.76L63.2748 106.764L63.2762 106.78L63.2814 106.842C63.2859 106.896 63.2924 106.975 63.3005 107.076C63.3167 107.278 63.3392 107.567 63.3645 107.917C63.415 108.618 63.4769 109.566 63.5219 110.552C63.5669 111.535 63.5955 112.564 63.5784 113.424C63.5698 113.853 63.5498 114.249 63.5132 114.579C63.4784 114.894 63.4236 115.205 63.3199 115.43C63.0782 115.954 62.684 117.337 62.4287 118.746C62.3022 119.445 62.2141 120.127 62.1943 120.691C62.1843 120.974 62.192 121.216 62.2169 121.41C62.242 121.605 62.2805 121.717 62.3097 121.77C62.3142 121.774 62.3535 121.812 62.4887 121.856C62.6501 121.909 62.8825 121.948 63.1866 121.967C63.7923 122.007 64.583 121.965 65.4403 121.887C66.1068 121.827 66.7955 121.746 67.4507 121.669C67.6352 121.648 67.8171 121.626 67.995 121.606C68.791 121.514 69.5265 121.437 70.0309 121.437C70.2327 121.437 70.6025 121.436 71.104 121.433C72.9236 121.425 76.4784 121.409 80.0432 121.437C82.3174 121.454 84.6011 121.489 86.4469 121.555C87.3694 121.588 88.1868 121.629 88.8408 121.68C89.4799 121.73 90.0043 121.791 90.3142 121.876L90.3143 121.876C92.2191 122.398 92.7867 123.88 93.1124 124.73C93.1716 124.885 93.2229 125.019 93.2727 125.122C93.3133 125.122 93.3792 125.116 93.4738 125.091C93.7395 125.021 94.0988 124.842 94.462 124.57C94.822 124.302 95.1546 123.966 95.3831 123.611C95.6134 123.253 95.7152 122.912 95.6855 122.614C95.646 122.22 95.4926 121.632 95.2715 120.867C95.216 120.675 95.1567 120.473 95.095 120.263C94.9171 119.657 94.7193 118.984 94.5349 118.28C94.0397 116.389 93.613 114.18 93.8968 112.194C94.1659 110.311 94.3456 109.165 94.4584 108.488C94.5148 108.15 94.5545 107.928 94.5805 107.79C94.5934 107.721 94.603 107.672 94.6094 107.64L94.6169 107.604L94.6191 107.594L94.6197 107.591L94.62 107.59L94.6201 107.589L94.6201 107.589C94.6201 107.589 94.6202 107.589 95.1083 107.697ZM95.1083 107.697L94.9057 107.24L94.6749 107.342L94.6202 107.589L95.1083 107.697ZM62.3127 121.775L62.3126 121.775L62.3127 121.775Z" fill="white" stroke="#FA2609"/>
<path d="M97.6136 115.578C98.1098 115.64 98.1098 115.64 98.1098 115.64L98.1098 115.64L98.1098 115.639L98.11 115.638L98.1105 115.634L98.1121 115.62L98.1179 115.57C98.1228 115.526 98.1294 115.463 98.1367 115.385C98.1512 115.23 98.1687 115.012 98.1803 114.762C98.2032 114.271 98.2056 113.62 98.1056 113.071C98.0529 112.78 97.8902 112.266 97.6948 111.696C97.4945 111.111 97.2453 110.428 97.0028 109.778C96.7601 109.128 96.5231 108.509 96.3469 108.052C96.3055 107.945 96.2675 107.847 96.2335 107.76L102.529 105.168C102.568 105.508 102.621 105.97 102.683 106.523C102.82 107.756 103.003 109.444 103.185 111.264C103.551 114.914 103.91 119.055 103.9 121.128C103.896 122.105 103.651 122.623 103.344 122.908C103.031 123.198 102.552 123.34 101.873 123.34C101.196 123.34 100.401 123.2 99.534 123.01C99.2472 122.947 98.9504 122.879 98.6497 122.809C98.0652 122.674 97.4662 122.535 96.8984 122.43C96.1065 122.285 94.9469 121.868 93.6233 121.302C92.3102 120.741 90.8708 120.05 89.5322 119.375C88.1944 118.7 86.9619 118.045 86.0636 117.558C85.6146 117.315 85.2494 117.114 84.9966 116.974C84.8702 116.904 84.772 116.849 84.7054 116.811L84.6299 116.769L84.6108 116.758L84.6061 116.756L84.6049 116.755L84.6046 116.755L84.3588 117.19M97.6136 115.578C97.7409 116.062 97.7406 116.062 97.7404 116.062L97.7398 116.062L97.7385 116.062L97.7354 116.063L97.7274 116.065L97.7038 116.071C97.6848 116.075 97.6592 116.08 97.6271 116.086C97.563 116.098 97.4732 116.112 97.3594 116.124C97.1316 116.148 96.8078 116.163 96.401 116.133C95.5857 116.072 94.4453 115.83 93.0851 115.126C92.2097 114.674 91.0861 114.141 89.9347 113.594C89.3886 113.335 88.8361 113.073 88.3009 112.815C87.4747 112.417 86.6914 112.03 86.0495 111.684C85.4229 111.347 84.8841 111.025 84.5829 110.757L84.5828 110.757C84.0579 110.289 83.5893 109.778 83.2541 109.388C83.0858 109.192 82.9496 109.025 82.8551 108.906C82.8172 108.858 82.7859 108.818 82.7619 108.788L82.7008 108.749C82.6149 108.695 82.4929 108.618 82.3487 108.529C82.0596 108.349 81.6839 108.12 81.3322 107.917L81.332 107.917C81.1442 107.808 80.97 107.725 80.8182 107.661V108.323V108.702L80.4542 108.804L80.3182 108.323C80.4542 108.804 80.4542 108.804 80.4541 108.804L80.4539 108.805L80.4533 108.805L80.451 108.805L80.4428 108.808L80.4118 108.816C80.3849 108.824 80.3455 108.835 80.295 108.848C80.1941 108.875 80.0485 108.914 79.8685 108.959C79.5087 109.05 79.0097 109.17 78.4531 109.283C77.3609 109.507 75.9744 109.725 74.9946 109.627L74.9945 109.627C73.6143 109.489 72.9033 109.402 72.4665 109.324C72.4661 109.331 72.4658 109.339 72.4655 109.348C72.4615 109.468 72.476 109.6 72.5094 109.716C72.5437 109.836 72.5887 109.907 72.6216 109.94L72.8345 110.153L72.7464 110.439L72.7464 110.44L72.7463 110.44L72.746 110.441L72.7424 110.453C72.739 110.466 72.7336 110.486 72.7271 110.513C72.7141 110.567 72.6966 110.647 72.6807 110.747C72.6487 110.949 72.6256 111.217 72.6537 111.498C72.7083 112.044 72.9429 112.596 73.6929 112.869L74.1392 113.031L74.0007 113.484L74.0005 113.484L74.0005 113.484L74.0004 113.485L73.9981 113.493C73.9958 113.501 73.9919 113.516 73.9871 113.535C73.9775 113.574 73.9644 113.633 73.952 113.706C73.9269 113.854 73.9067 114.05 73.9202 114.253C73.947 114.659 74.0921 115.011 74.5192 115.188L74.8282 115.315L74.8282 115.647L74.8284 115.655C74.8288 115.665 74.8296 115.681 74.8313 115.703C74.8349 115.748 74.8423 115.815 74.8576 115.897C74.8885 116.063 74.9496 116.279 75.0671 116.49C75.183 116.698 75.3523 116.898 75.6048 117.049C75.8566 117.2 76.2187 117.317 76.7462 117.317C77.9275 117.317 79.8078 117.163 81.4106 117.006C82.2081 116.928 82.9306 116.85 83.4538 116.791C83.7153 116.762 83.9268 116.738 84.0729 116.721L84.2409 116.701L84.2844 116.696L84.2954 116.694L84.2981 116.694L84.2988 116.694L84.2989 116.694L84.3588 117.19M97.6136 115.578L97.7409 116.062L98.0678 115.976L98.1098 115.64L97.6136 115.578ZM84.3588 117.19L84.6046 116.755L84.4618 116.674L84.2989 116.694L84.3588 117.19Z" fill="white" stroke="#FA2609"/>
<path d="M77.7823 103.346L77.7821 103.345C77.7572 103.286 77.6892 103.257 77.6283 103.282C77.6283 103.282 77.6283 103.282 77.6282 103.282C77.6282 103.282 77.6282 103.282 77.6282 103.282L72.7649 105.229L77.7823 103.346ZM77.7823 103.346L80.1942 109.006M77.7823 103.346L80.1942 109.006M80.1942 109.006L75.2167 110.666L72.7013 105.392C72.7013 105.392 72.7013 105.392 72.7013 105.392C72.6716 105.329 72.7006 105.255 72.7648 105.229L80.1942 109.006Z" fill="white" stroke="#FA2609"/>
<path d="M75.4838 121.462C75.4838 121.462 75.4827 121.462 75.4801 121.463C75.4825 121.462 75.4837 121.462 75.4838 121.462Z" fill="white" stroke="#FA2609"/>
<path d="M82.4938 51.8358L82.4937 51.8358C81.4958 51.4887 80.0996 51.1396 78.7185 50.9873C77.3181 50.8329 76.0205 50.8914 75.1626 51.2812L82.4938 51.8358ZM82.4938 51.8358C83.3508 52.1338 84.1011 53.0096 84.6615 53.9117C84.9334 54.3495 85.1449 54.7675 85.2884 55.0766C85.327 55.1598 85.3606 55.2349 85.389 55.2999L74.1418 68.1793M82.4938 51.8358L74.1418 68.1793M74.1418 68.1793C73.9376 68.0451 73.6437 67.8421 73.2671 67.5565C72.4598 66.9442 71.2722 65.9522 69.7736 64.446L69.7736 64.446C68.3821 63.0476 68.1127 61.5621 68.1591 60.2714C68.1816 59.6457 68.2781 59.0709 68.3643 58.5573C68.3685 58.5322 68.3727 58.5073 68.3768 58.4826C68.4204 58.2223 68.462 57.9677 68.4829 57.7419C68.5032 57.5231 68.5096 57.2823 68.4549 57.0638C68.3463 56.6292 68.3773 56.1082 68.4827 55.5815C68.5868 55.0611 68.7549 54.5755 68.8859 54.2261C68.8859 54.2261 68.8859 54.2261 68.8859 54.226L68.8859 54.226C68.8861 54.2255 68.8862 54.2248 68.8862 54.2241C68.8866 54.2188 68.8873 54.209 68.9458 54.1879C69.0273 54.1585 69.1198 54.1442 69.2709 54.1208C69.314 54.1142 69.3619 54.1068 69.4157 54.0981C69.6245 54.0643 69.9048 54.011 70.1697 53.8656C70.4517 53.7109 70.6923 53.4664 70.8488 53.0965L70.8488 53.0964C70.9036 52.9668 71.0237 52.8312 71.2678 52.6872C71.5142 52.5418 71.8435 52.4129 72.2563 52.2779C72.4656 52.2094 72.6962 52.1399 72.9408 52.0661C73.6222 51.8605 74.4133 51.6218 75.1625 51.2812L74.1418 68.1793Z" fill="white" stroke="#FA2609"/>
<path d="M76.381 94.5762C77.7853 91.9033 82.9334 82.1263 83.5514 81.2764C84.0409 80.6034 84.9894 79.0084 85.5412 78.0653C85.4851 78.0742 85.4265 78.0794 85.366 78.0796C85.2404 78.0801 85.114 78.0587 84.9928 78.0121M76.381 94.5762L73.4768 81.6447C73.2725 80.3772 73.5584 79.3836 73.8911 78.7072C74.0581 78.3675 74.2371 78.1076 74.3722 77.9351C74.4395 77.8489 74.4956 77.785 74.533 77.7443C74.5517 77.724 74.5657 77.7095 74.5742 77.7009L74.5825 77.6926C74.5826 77.6925 74.5828 77.6923 74.5829 77.6922C74.5832 77.6919 74.5833 77.6918 74.5832 77.6919L74.7535 77.5301L74.7358 77.2937L74.3494 72.1184L84.1637 76.687C84.2255 77.0804 84.3364 77.3949 84.5072 77.6294C84.6455 77.8194 84.8136 77.9433 84.9928 78.0121M76.381 94.5762C76.333 94.3762 76.2733 94.1272 76.2042 93.838M76.381 94.5762L75.851 94.5101L75.8796 94.4556C75.9699 94.2836 76.0791 94.0759 76.2042 93.838M84.9928 78.0121C84.8726 78.2166 84.739 78.4429 84.5987 78.6783C84.0814 79.5462 83.4893 80.5117 83.147 80.9823L83.147 80.9824C83.0371 81.1335 82.8372 81.4724 82.5874 81.9131C82.3307 82.3661 82.0045 82.957 81.6346 83.636C80.8945 84.9943 79.9756 86.7117 79.0797 88.3971C78.1837 90.0827 77.3102 91.7373 76.6607 92.9705C76.4923 93.2903 76.339 93.5817 76.2042 93.838M84.9928 78.0121L73.4768 81.6447C73.6974 83.0119 74.4538 86.3728 75.1608 89.414C75.5132 90.9298 75.8516 92.359 76.1019 93.4094C76.1379 93.5604 76.1721 93.7035 76.2042 93.838" fill="white" stroke="#FA2609"/>
<path d="M86.371 57.3295L86.371 57.3294C86.2974 56.6665 85.9437 56.1113 85.5784 55.7054C85.3982 55.5052 85.2226 55.3497 85.0929 55.245C85.0284 55.1928 84.9759 55.1539 84.9409 55.1288C84.9387 55.1272 84.9366 55.1257 84.9346 55.1243C84.6204 55.0147 84.1505 54.9593 83.5609 54.967C82.9501 54.975 82.255 55.0498 81.5567 55.1698C80.1435 55.4127 78.7991 55.8263 78.1567 56.1875C77.8659 56.351 77.7996 56.478 77.7793 56.5416C77.7545 56.6195 77.7556 56.7347 77.8202 56.9534C77.8492 57.0515 77.8852 57.1529 77.9276 57.2723C77.9315 57.2833 77.9355 57.2944 77.9395 57.3058C77.9851 57.4343 78.0364 57.581 78.0788 57.7344C78.164 58.043 78.2236 58.4147 78.1303 58.8195C78.0447 59.1906 77.854 59.5594 77.6437 59.8976C77.4311 60.2396 77.1753 60.5861 76.9365 60.9082L76.9146 60.9377C76.6786 61.256 76.4617 61.5486 76.2902 61.8204C76.1087 62.1081 76.0125 62.3207 75.9856 62.4685L86.371 57.3295ZM86.371 57.3295C86.4073 57.6561 86.4417 58.0224 86.4769 58.3978C86.524 58.8991 86.5725 59.4165 86.6292 59.8766C86.6804 60.2924 86.7415 60.6939 86.8208 61.0483C86.8985 61.396 87.0006 61.731 87.1473 61.9952C87.2213 62.1282 87.3099 62.3966 87.3984 62.7988C87.4837 63.1868 87.5599 63.6557 87.6261 64.1575C87.7583 65.1604 87.847 66.2668 87.8913 67.064C87.933 67.8142 87.8281 68.9344 87.6194 70.0328C87.4089 71.1405 87.1074 72.1474 86.792 72.6993C86.0789 73.9474 85.1328 75.3075 84.3165 75.9603C83.9586 76.2467 83.0468 76.6678 81.9091 76.7942C80.7879 76.9188 79.51 76.75 78.3816 75.9439C77.203 75.1021 75.9234 73.5083 74.9176 72.0777C74.4206 71.3708 74.0004 70.7184 73.7045 70.2428C73.5567 70.0051 73.4402 69.812 73.3608 69.6788C73.3212 69.6121 73.2908 69.5605 73.2706 69.5258L73.2478 69.4866L73.2422 69.477L73.2409 69.4748L73.2407 69.4743L73.2407 69.4743L73.2406 69.4743M86.371 57.3295L73.2406 69.4743M73.2406 69.4743L72.9154 68.9077L72.4938 69.3293C72.4871 69.3296 72.4779 69.3294 72.466 69.3279C72.3848 69.3177 72.0875 69.2325 71.5856 68.6048L71.5856 68.6047C71.0888 67.9838 70.4674 66.8522 70.1376 65.8206C69.9719 65.302 69.8952 64.8548 69.918 64.5318C69.9403 64.216 70.0405 64.1319 70.1268 64.0974C70.161 64.0838 70.2896 64.0508 70.5985 64.3611C70.8856 64.6494 71.1863 65.1001 71.4934 65.6138C71.6092 65.8074 71.729 66.0158 71.8476 66.2221C72.0245 66.5297 72.1987 66.8326 72.3527 67.0751C72.4849 67.283 72.6245 67.4835 72.7667 67.6368C72.8381 67.7137 72.9234 67.7934 73.0224 67.8565C73.1201 67.9188 73.2611 67.9841 73.4339 67.9841C73.7538 67.9841 73.9788 67.7688 74.0962 67.6354C74.2344 67.4782 74.3607 67.2742 74.4746 67.059C74.7049 66.6242 74.933 66.0507 75.1373 65.466C75.5459 64.297 75.89 62.9946 75.9856 62.4687L73.2406 69.4743ZM72.5084 69.3272C72.5084 69.3272 72.5079 69.3274 72.5069 69.3277L72.5084 69.3272Z" fill="white" stroke="#FA2609"/>
<path d="M86.7363 225.712L86.7346 225.769L86.5286 225.809C86.1631 225.879 85.6674 225.974 85.1464 226.075C84.1089 226.276 82.9584 226.501 82.547 226.593C82.2089 226.668 81.5699 226.693 80.8726 226.682C80.1908 226.671 79.5127 226.627 79.1284 226.584C78.7453 226.541 78.2459 226.455 77.8339 226.377C77.7022 226.352 77.5808 226.328 77.4768 226.307L77.4739 226.276C77.4495 226.016 77.4136 225.633 77.3678 225.146C77.2761 224.171 77.1445 222.777 76.985 221.1C76.6659 217.747 76.2348 213.262 75.7869 208.739C75.3391 204.216 74.8743 199.651 74.4878 196.139C74.2946 194.383 74.1206 192.887 73.978 191.79C73.9067 191.242 73.8427 190.79 73.7877 190.453C73.7602 190.284 73.7342 190.14 73.7099 190.025C73.6884 189.924 73.6606 189.806 73.622 189.716L73.622 189.716C73.3654 189.117 72.8838 187.762 72.5891 186.288C72.2885 184.786 72.21 183.288 72.635 182.323L72.635 182.323C73.1506 181.151 73.4948 179.719 73.71 178.563C73.9079 177.501 74.0061 176.619 74.0192 176.351C74.02 176.347 74.0209 176.343 74.0219 176.339C74.0297 176.305 74.0422 176.254 74.0595 176.186C74.0941 176.05 74.1454 175.856 74.2114 175.61C74.3432 175.119 74.5318 174.43 74.7586 173.603C74.8026 173.442 74.8481 173.276 74.8948 173.106C75.3294 171.521 75.8756 169.529 76.4217 167.496C77.0265 165.245 77.6323 162.94 78.0871 161.079C78.3144 160.148 78.505 159.325 78.639 158.673C78.769 158.041 78.8571 157.519 78.8571 157.224C78.8571 156.139 78.2777 154.918 77.7593 154.028C77.4925 153.57 77.2265 153.174 77.0273 152.892C76.9376 152.765 76.8612 152.661 76.8038 152.585L77.7927 126.612L92.2671 128.048C92.3124 128.148 92.3695 128.273 92.4369 128.417C92.6184 128.807 92.8747 129.344 93.1736 129.933C93.7643 131.096 94.5457 132.508 95.2576 133.363C96.5247 134.883 97.6439 137.091 97.471 140.811C97.4292 141.708 97.0212 143.506 96.405 145.755C95.7947 147.983 94.9965 150.599 94.2026 153.098C93.4088 155.597 92.6205 157.976 92.0306 159.73C91.7356 160.608 91.4903 161.328 91.3188 161.83C91.233 162.081 91.1657 162.277 91.1199 162.41L91.0676 162.561L91.0542 162.6L91.0508 162.61L91.05 162.612L91.0498 162.613C91.0498 162.613 91.0497 162.613 91.5222 162.777L91.0497 162.613L91.0309 162.667L91.0249 162.725L91.0249 162.725L91.0248 162.726L91.0242 162.731L91.0222 162.75L91.0137 162.828C91.0062 162.897 90.9949 162.998 90.98 163.128C90.9501 163.387 90.9056 163.76 90.8472 164.214C90.7302 165.124 90.5577 166.356 90.3353 167.651C90.1127 168.948 89.8415 170.299 89.5285 171.449C89.2084 172.624 88.865 173.506 88.5312 173.932C87.7244 174.963 86.8814 176.078 86.2727 177.054C85.969 177.541 85.7129 178.011 85.5497 178.429C85.3964 178.821 85.2822 179.273 85.4008 179.668C85.4978 179.991 85.7456 180.345 85.9867 180.662C86.1148 180.831 86.2569 181.009 86.4005 181.189L86.4079 181.198C86.5504 181.376 86.6953 181.558 86.8377 181.743C87.1292 182.123 87.3971 182.502 87.5914 182.869C87.788 183.24 87.8873 183.559 87.8873 183.823C87.8873 184.575 87.5967 195.153 87.3054 205.561C87.1598 210.761 87.0143 215.913 86.9051 219.766L86.7732 224.413L86.7363 225.712ZM74.0154 176.369C74.0154 176.368 74.0156 176.368 74.0157 176.367C74.0144 176.376 74.0138 176.377 74.0154 176.369Z" fill="white" stroke="#FA2609"/>
<path d="M77.8152 234.844C77.828 234.684 77.8391 234.549 77.8477 234.444L84.7919 229.991C84.9038 230.145 85.0392 230.338 85.1779 230.551C85.5344 231.097 85.8535 231.685 85.9231 232.075C85.9787 232.387 86.0429 232.942 86.1181 233.593C86.1602 233.956 86.2057 234.35 86.2551 234.747C86.3226 235.29 86.3966 235.833 86.4772 236.289C86.5538 236.722 86.6469 237.145 86.7719 237.401C86.9329 237.732 87.1341 238.331 87.0183 238.889C86.9633 239.154 86.8356 239.418 86.5794 239.656C86.3188 239.898 85.9026 240.134 85.2407 240.299C83.8852 240.635 82.9588 240.953 82.2327 241.203C82.1732 241.223 82.1151 241.243 82.0582 241.262C81.304 241.52 80.801 241.678 80.2027 241.718C79.5197 241.764 78.8168 241.777 78.294 241.574C78.0476 241.478 77.8622 241.342 77.7347 241.151C77.6063 240.958 77.5077 240.667 77.5118 240.213C77.5212 239.171 77.6098 237.671 77.6969 236.423C77.7404 235.801 77.7832 235.245 77.8152 234.844Z" fill="white" stroke="#FA2609"/>
<path d="M84.4001 227.157C84.3962 227.318 84.3923 227.503 84.3894 227.699C84.3807 228.276 84.3797 228.977 84.4179 229.369C84.4341 229.535 84.476 229.789 84.5244 230.081C84.5344 230.141 84.5446 230.203 84.5548 230.266C84.6175 230.648 84.6898 231.107 84.7488 231.609C84.8677 232.619 84.9286 233.771 84.761 234.781C84.5963 235.774 84.2675 236.174 83.9577 236.369C83.6179 236.583 83.2067 236.624 82.6568 236.68C82.6402 236.682 82.6235 236.683 82.6066 236.685C82.5659 236.689 82.5225 236.694 82.4768 236.698C81.9088 236.756 80.9692 236.853 80.1091 236.845C79.6419 236.84 79.2291 236.805 78.925 236.729C78.612 236.65 78.5544 236.564 78.5529 236.565C78.5527 236.565 78.5531 236.566 78.5538 236.568C78.3934 236.167 78.2218 235.448 78.0866 234.794C78.0204 234.474 77.9652 234.182 77.9266 233.969C77.9072 233.863 77.8921 233.776 77.8818 233.717L77.8791 233.702L78.7707 227.451L84.4001 227.157Z" fill="white" stroke="#FA2609"/>
<path d="M131.344 160.332L131.83 160.218L131.501 158.818L130.891 160.12L131.344 160.332ZM131.344 160.332C131.83 160.218 131.83 160.218 131.83 160.218L131.83 160.218L131.831 160.22L131.832 160.225L131.837 160.245L131.855 160.322C131.865 160.366 131.878 160.423 131.894 160.494C131.903 160.532 131.913 160.574 131.923 160.62C131.983 160.88 132.068 161.26 132.174 161.739C132.385 162.698 132.676 164.054 132.994 165.646C133.63 168.829 134.377 172.963 134.814 176.751C135.253 180.547 135.605 189.071 135.717 197.199C135.772 201.268 135.768 205.246 135.684 208.494C135.6 211.721 135.437 214.284 135.161 215.482C134.654 217.678 134.781 219.314 135.076 220.792C135.189 221.358 135.326 221.894 135.465 222.442C135.511 222.622 135.557 222.804 135.603 222.988C135.785 223.723 135.956 224.483 136.047 225.305C136.077 225.574 136.215 225.882 136.488 226.226C136.759 226.569 137.144 226.922 137.62 227.276C138.572 227.985 139.832 228.658 141.118 229.243C142.4 229.826 143.689 230.314 144.685 230.655C145.184 230.825 145.606 230.958 145.916 231.048C145.979 231.066 146.037 231.083 146.089 231.097C146.154 230.849 146.226 230.47 146.299 229.954C146.449 228.888 146.593 227.29 146.68 225.186C146.853 220.981 146.794 214.78 146.094 206.824C145.388 198.791 146.403 187.35 147.652 177.185C148.277 172.097 148.962 167.316 149.524 163.427C149.55 163.241 149.577 163.058 149.603 162.877C150.127 159.247 150.528 156.474 150.651 155.031C150.913 151.978 151.088 148.048 151.11 144.576C151.121 142.84 151.093 141.225 151.02 139.893C150.946 138.548 150.827 137.536 150.669 136.982C150.481 136.325 150.31 135.206 150.157 133.932C150.003 132.646 149.864 131.166 149.747 129.766C149.63 128.366 149.536 127.043 149.47 126.071C149.437 125.587 149.412 125.19 149.395 124.913L117.532 122.683C117.514 122.791 117.494 122.917 117.47 123.06C117.384 123.589 117.26 124.348 117.112 125.27C116.815 127.115 116.42 129.613 116.025 132.225C115.629 134.838 115.234 137.563 114.938 139.864C114.64 142.177 114.448 144.026 114.448 144.908C114.448 146.621 114.197 148.995 113.946 151.37C113.922 151.592 113.899 151.815 113.875 152.037C113.6 154.657 113.354 157.199 113.439 158.905C113.528 160.678 113.527 167.707 113.396 174.758C113.33 178.288 113.231 181.832 113.094 184.736C112.958 187.619 112.782 189.925 112.551 190.941C112.166 192.635 110.998 195.723 109.711 199.124C109.5 199.683 109.285 200.251 109.07 200.822C107.532 204.908 105.971 209.207 105.367 212.14L104.877 212.039L105.367 212.14C104.771 215.035 105.119 216.951 105.583 218.121C105.816 218.708 106.081 219.116 106.281 219.372C106.379 219.497 106.462 219.586 106.518 219.642C109.175 220.247 111.494 222.38 113.123 224.291C113.961 225.274 114.636 226.222 115.101 226.924C115.124 226.958 115.146 226.992 115.167 227.025C115.266 226.59 115.392 226.053 115.543 225.438C115.962 223.742 116.579 221.45 117.373 219.067C118.955 214.319 120.363 210.801 121.942 206.942C122.696 205.097 123.175 201.628 123.572 197.205C123.786 194.814 123.973 192.185 124.17 189.422C124.336 187.089 124.509 184.661 124.71 182.201L125.209 182.242L124.71 182.201C125.154 176.796 126.702 171.274 128.132 167.115C128.848 165.033 129.537 163.287 130.047 162.06C130.302 161.447 130.512 160.963 130.659 160.632C130.732 160.467 130.79 160.34 130.83 160.253C130.849 160.21 130.864 160.177 130.875 160.155L130.887 160.129L130.89 160.123L130.891 160.121L130.891 160.12C130.891 160.12 130.891 160.12 131.344 160.332Z" fill="white" stroke="#FA2609"/>
<path d="M125.537 80.7657L125.309 80.9135L125.037 80.4936C125.309 80.9135 125.309 80.9135 125.309 80.9135L125.308 80.9138L125.307 80.9147L125.301 80.9186L125.277 80.9339L125.185 80.9936L124.834 81.2213C124.531 81.4178 124.098 81.6993 123.576 82.0394C122.533 82.7196 121.137 83.6336 119.724 84.5693C118.312 85.5054 116.885 86.4617 115.78 87.227C115.226 87.6099 114.757 87.9426 114.412 88.1999C114.239 88.3289 114.101 88.4358 114 88.5189C113.921 88.5848 113.883 88.6213 113.869 88.6339C113.864 88.6395 113.863 88.6405 113.865 88.6372C113.734 88.8122 113.526 89.0205 113.316 89.2321C113.272 89.2757 113.228 89.3194 113.185 89.3631C112.916 89.6361 112.615 89.9517 112.327 90.3245C111.754 91.0668 111.239 92.0253 111.16 93.2765C111.091 94.3583 110.569 98.7081 109.957 103.809C109.777 105.303 109.59 106.862 109.404 108.422C108.993 111.872 108.588 115.337 108.286 118.144C107.982 120.966 107.786 123.086 107.786 123.874C107.786 125.355 107.427 127.279 107.028 129.42C106.968 129.741 106.907 130.066 106.847 130.395C106.376 132.955 105.901 135.823 105.858 138.78C105.814 141.779 105.814 143.911 105.825 145.293C105.831 145.984 105.839 146.487 105.846 146.817C105.849 146.982 105.852 147.103 105.854 147.183L105.857 147.272L105.858 147.294L105.858 147.299L105.858 147.3L105.858 147.301L105.86 147.365L105.846 147.428L104.526 153.267C104.757 153.289 105.042 153.318 105.353 153.356C106.12 153.449 107.082 153.596 107.746 153.809C108.278 153.98 108.676 154.153 108.964 154.302L110.128 150.361L114.505 123.88L115.497 123.966C115.498 123.966 115.498 123.966 115.498 123.966L125.537 80.7657ZM125.537 80.7657V80.4936V76.4648M125.537 80.7657V76.4648M125.537 76.4648L125.648 76.4178C125.913 76.3055 126.292 76.1448 126.75 75.9515C127.665 75.5648 128.894 75.0474 130.147 74.5245C131.4 74.0016 132.676 73.4738 133.687 73.0661C134.193 72.8621 134.631 72.689 134.965 72.5619C135.317 72.4281 135.515 72.3609 135.57 72.3485C135.57 72.3485 135.57 72.3484 135.57 72.3484L135.461 71.8604C135.77 71.7918 135.964 71.7165 136.122 71.6555C136.367 71.5606 136.523 71.5003 136.88 71.5536M125.537 76.4648L136.732 72.0387M136.88 71.5536L136.806 72.0481C136.75 72.0398 136.715 72.0214 136.703 72.0142M136.88 71.5536L136.806 72.0481C136.779 72.0441 136.755 72.041 136.732 72.0387M136.88 71.5536C137.466 71.6415 139.449 75.7878 139.449 75.7878M136.703 72.0142C136.701 72.012 136.699 72.0112 136.699 72.0113C136.699 72.0114 136.701 72.0125 136.703 72.0142ZM136.703 72.0142C136.704 72.0144 136.704 72.0147 136.705 72.015C136.71 72.0193 136.719 72.0269 136.732 72.0387M136.732 72.0387C136.746 72.0521 136.765 72.0709 136.788 72.0964C136.874 72.1918 136.984 72.3379 137.113 72.5303C137.368 72.9121 137.663 73.4228 137.945 73.9423C138.226 74.4595 138.489 74.9751 138.683 75.3622C138.779 75.5556 138.858 75.7164 138.913 75.8287C138.94 75.8848 138.962 75.9288 138.976 75.9586L138.992 75.9925L138.997 76.0009L138.998 76.003L138.998 76.0035L138.998 76.0036L139.113 76.2455L139.379 76.2829L139.449 75.7878M139.449 75.7878L139.379 76.2829L139.379 76.283L139.38 76.2831L139.385 76.2838L139.404 76.2865L139.477 76.297C139.542 76.3063 139.638 76.3201 139.761 76.3381C140.007 76.3741 140.362 76.4268 140.798 76.4935C141.67 76.6268 142.865 76.8159 144.156 77.0391C146.756 77.4884 149.693 78.0669 151.202 78.5983C152.779 79.1537 153.231 79.4257 153.454 79.6759C153.564 79.7988 153.634 79.9322 153.761 80.1866L153.762 80.1886C153.887 80.4378 154.047 80.7582 154.33 81.17M139.449 75.7878L154.33 81.17M154.33 81.17C154.33 81.17 154.329 81.17 154.329 81.17L154.742 80.8873L154.33 81.17ZM154.33 81.17C154.363 81.2189 154.423 81.3347 154.508 81.5427C154.589 81.7419 154.681 81.999 154.784 82.31C154.99 82.9316 155.231 83.7475 155.496 84.7043C156.026 86.6169 156.647 89.0705 157.274 91.6113C157.685 93.2753 158.098 94.9785 158.489 96.5899C159.289 99.8866 159.996 102.799 160.395 104.204L160.876 104.068M154.33 81.17L117.443 130.447L117.538 129.956C118.117 130.068 119.264 130.144 120.755 130.202C122.004 130.251 123.464 130.285 124.978 130.322C125.255 130.328 125.533 130.335 125.813 130.342C129.4 130.429 133.182 130.538 134.942 130.876L134.942 130.876C136.64 131.203 139.87 131.728 143.021 132.134C144.596 132.336 146.145 132.508 147.47 132.611C148.807 132.714 149.879 132.743 150.518 132.672C150.992 132.619 151.436 132.287 151.845 131.645C152.251 131.006 152.573 130.136 152.82 129.18C153.312 127.272 153.476 125.153 153.497 124.213C153.518 123.285 153.358 121.291 153.187 119.496C153.102 118.605 153.016 117.775 152.951 117.166C152.919 116.862 152.892 116.614 152.873 116.442L152.85 116.243L152.845 116.192L152.843 116.179L152.843 116.175L152.843 116.174L152.843 116.174L152.731 115.193L153.587 115.683L153.587 115.684L153.587 115.684L153.588 115.684C153.588 115.684 153.588 115.684 153.339 116.118M160.876 104.068L160.395 104.204C160.968 106.22 161.025 107.846 160.699 109.398C160.371 110.963 159.647 112.485 158.603 114.29C158.12 115.125 157.57 115.605 157.034 115.875C156.495 116.146 155.939 116.22 155.425 116.194C154.909 116.167 154.445 116.038 154.107 115.914C153.939 115.852 153.805 115.792 153.715 115.749C153.67 115.727 153.636 115.71 153.614 115.698L153.591 115.686L153.588 115.684L153.339 116.118M160.876 104.068C162.059 108.23 161.139 110.903 159.036 114.54C157.427 117.322 154.947 116.771 153.869 116.359M160.876 104.068L153.869 116.359M153.339 116.118L153.836 116.062L153.836 116.062L153.836 116.063L153.837 116.066L153.838 116.08L153.844 116.132L153.867 116.332C153.867 116.341 153.868 116.35 153.869 116.359M153.339 116.118C153.091 116.552 153.091 116.552 153.091 116.552L153.092 116.552L153.093 116.553L153.097 116.555L153.108 116.561C153.118 116.567 153.13 116.574 153.147 116.582C153.179 116.599 153.224 116.622 153.281 116.65C153.318 116.667 153.359 116.687 153.405 116.707C153.577 118.297 154.032 122.66 153.997 124.225C153.953 126.153 153.334 132.862 150.573 133.169L153.869 116.359" fill="white" stroke="#FA2609"/>
<path d="M105.936 234.299C105.976 234.339 106.022 234.384 106.074 234.434C106.28 234.631 106.572 234.907 106.918 235.221C107.614 235.851 108.516 236.623 109.367 237.219L105.936 234.299ZM105.936 234.299C105.94 234.262 105.945 234.221 105.948 234.177C105.969 233.937 105.973 233.603 105.901 233.238C105.753 232.486 105.281 231.617 104.074 231.197C103.081 230.852 101.13 230.092 99.601 228.615C98.098 227.163 96.9885 225.009 97.6511 221.779L97.6511 221.779C97.9958 220.099 98.4879 219.398 98.9189 219.143C99.3168 218.907 99.8266 218.961 100.509 219.3C101.086 219.587 101.672 220.019 102.257 220.45C102.36 220.526 102.463 220.602 102.566 220.678C102.899 220.92 103.234 221.156 103.547 221.332C103.848 221.5 104.198 221.653 104.547 221.653C105.454 221.653 106.337 221.528 106.987 221.406C107.314 221.344 107.585 221.282 107.776 221.236C107.816 221.226 107.852 221.217 107.884 221.209C107.928 221.232 107.98 221.261 108.039 221.293C108.247 221.407 108.544 221.575 108.901 221.787C109.616 222.213 110.561 222.817 111.493 223.53C112.429 224.246 113.332 225.059 113.976 225.9C114.626 226.749 114.961 227.56 114.892 228.292L114.048 237.247C113.972 237.268 113.885 237.292 113.787 237.317C113.427 237.41 112.933 237.52 112.388 237.593C111.841 237.667 111.257 237.701 110.717 237.649C110.173 237.596 109.709 237.458 109.367 237.219L105.936 234.299Z" fill="white" stroke="#FA2609"/>
<path d="M135.975 226.264L142.74 230.964C142.774 231.024 142.822 231.113 142.882 231.227C143.007 231.466 143.186 231.816 143.398 232.259C143.821 233.144 144.375 234.398 144.893 235.868L144.893 235.868C145.408 237.326 145.393 238.208 145.137 238.72C144.901 239.192 144.373 239.503 143.395 239.585C142.352 239.672 140.109 239.8 138.161 239.61C137.18 239.514 136.322 239.341 135.734 239.07C135.142 238.797 134.975 238.508 134.996 238.21L135.975 226.264ZM135.975 226.264L135.908 227.062C135.823 228.073 135.708 229.446 135.587 230.896C135.346 233.796 135.084 236.996 134.996 238.21L135.975 226.264Z" fill="white" stroke="#FA2609"/>
<path d="M107.65 199.938L101.769 167.019L112.997 164.354L119.381 193.037L107.65 199.938Z" fill="white" stroke="#FA2609"/>
<path d="M99.5072 201.639L94.4016 168.199L100.788 167.211L106.705 200.331L99.5072 201.639Z" fill="white" stroke="#FA2609"/>
<path d="M103.01 160.664L107.578 159.224V166.142H107.527V159.976V159.294L106.877 159.499L103.411 160.59L103.062 160.701V161.067V166.142H103.01V160.664Z" fill="white" stroke="#FA2609"/>
<path d="M129.448 79.8963L129.448 79.8963C129.838 79.8623 130.497 79.9938 131.263 80.2776C131.814 80.4819 132.383 80.7512 132.892 81.0517L130.519 83.3016H128.123L127.297 82.1855C127.323 82.1467 127.352 82.1046 127.382 82.0599C127.554 81.8102 127.792 81.4785 128.058 81.1459C128.327 80.8109 128.614 80.4878 128.886 80.2479C129.181 79.9871 129.37 79.903 129.448 79.8963Z" fill="white" stroke="#FA2609"/>
<path d="M130.203 84.3018L128.965 122.326L126.361 124.594L123.953 122.186L123.963 121.934C123.975 121.631 123.993 121.191 124.015 120.643C124.061 119.548 124.127 118.023 124.21 116.307C124.375 112.871 124.604 108.672 124.864 105.6C125.165 102.033 126.037 96.6144 126.838 92.0724C127.238 89.8047 127.619 87.761 127.9 86.2842C128.04 85.5459 128.156 84.9494 128.236 84.5376C128.253 84.4506 128.268 84.3719 128.282 84.3018H130.203Z" fill="white" stroke="#FA2609"/>
<path d="M129.755 89.2134L129.496 89.6411L129.496 89.641L129.495 89.6408L129.494 89.6398L129.487 89.6358L129.461 89.6201L129.361 89.5598C129.274 89.5076 129.149 89.4324 128.996 89.3406C128.688 89.157 128.268 88.9073 127.815 88.6427C126.9 88.1076 125.882 87.5302 125.384 87.3017L129.755 89.2134ZM129.755 89.2134L129.496 89.6411L130.948 90.5205L130.204 88.9948L130.204 88.9947L130.204 88.9946L130.204 88.9946L130.204 88.9944L130.203 88.9924L130.198 88.9807C130.193 88.9697 130.185 88.9526 130.174 88.9297C130.153 88.8837 130.123 88.8146 130.085 88.7253C130.011 88.5466 129.91 88.2882 129.808 87.9744C129.603 87.3426 129.399 86.5062 129.378 85.6522C129.357 84.7576 129.517 84.4475 129.599 84.3571C129.634 84.3187 129.68 84.2916 129.804 84.3039C129.812 84.3176 129.822 84.3357 129.834 84.3593C129.896 84.4833 129.957 84.6708 130.014 84.9062C130.07 85.1363 130.117 85.3861 130.159 85.6238C130.169 85.6796 130.179 85.7358 130.189 85.7912C130.219 85.9623 130.247 86.126 130.274 86.2506L130.274 86.2507C130.304 86.3916 130.371 86.5443 130.438 86.6791C130.509 86.8234 130.6 86.9867 130.701 87.1593C130.904 87.5044 131.164 87.9123 131.426 88.3216C131.447 88.3541 131.468 88.3867 131.489 88.4192C131.732 88.7998 131.975 89.1797 132.184 89.5232C132.414 89.903 132.584 90.2098 132.666 90.4104C132.873 90.9157 133.542 92.2636 134.145 93.459C134.45 94.0626 134.742 94.6359 134.958 95.0582C135.066 95.2693 135.155 95.4428 135.217 95.5635L135.248 95.6239C135.103 97.1508 134.587 98.5357 134.092 99.5559C133.838 100.08 133.593 100.502 133.411 100.792C133.378 100.846 133.346 100.895 133.318 100.94C133.175 100.898 132.997 100.847 132.799 100.796C132.304 100.669 131.649 100.526 131.091 100.502C131.092 100.502 131.089 100.502 131.081 100.501C131.073 100.5 131.063 100.498 131.049 100.496C131.022 100.49 130.986 100.482 130.941 100.47C130.851 100.446 130.736 100.41 130.597 100.361C130.319 100.264 129.967 100.123 129.559 99.9507C128.745 99.6056 127.735 99.1408 126.71 98.6543C124.811 97.7528 122.878 96.7851 122.082 96.3866C122.019 96.3552 121.964 96.3274 121.916 96.3035C121.283 95.9867 120.701 95.6217 120.286 95.2875C120.077 95.1195 119.924 94.9703 119.828 94.8497C119.773 94.7805 119.751 94.738 119.742 94.7196C119.743 94.7181 119.744 94.7164 119.745 94.7145C119.755 94.7011 119.778 94.6777 119.822 94.6539C119.865 94.6303 119.916 94.6138 119.962 94.6065C119.997 94.601 120.017 94.6026 120.023 94.603C120.03 94.6056 120.047 94.612 120.079 94.6246C120.124 94.6424 120.185 94.6671 120.259 94.6983C120.408 94.7605 120.607 94.8454 120.839 94.9459C121.137 95.0747 121.487 95.2274 121.857 95.3885C122.064 95.4787 122.277 95.5716 122.49 95.6643C123.081 95.9217 123.673 96.1777 124.131 96.3695C124.36 96.4652 124.559 96.5465 124.71 96.6045C124.784 96.6332 124.852 96.6583 124.909 96.6768C124.936 96.6859 124.967 96.6954 124.997 96.7031L124.999 96.7035C125.017 96.7083 125.08 96.7246 125.154 96.7246C125.236 96.7246 125.342 96.7172 125.45 96.6811C125.564 96.6433 125.706 96.5637 125.802 96.405C125.896 96.2481 125.9 96.0851 125.882 95.9649C125.865 95.8482 125.821 95.741 125.776 95.6506C125.722 95.5417 125.642 95.4764 125.615 95.4551C125.576 95.4241 125.536 95.3987 125.504 95.3793C125.438 95.34 125.358 95.3004 125.276 95.2622C125.108 95.1846 124.884 95.092 124.627 94.9901C124.315 94.8668 123.939 94.7231 123.534 94.5688C123.272 94.4685 122.997 94.3638 122.721 94.2572C122.013 93.9839 121.285 93.6946 120.671 93.4208C120.037 93.1383 119.585 92.8976 119.383 92.7292C119.019 92.4257 119.031 92.1417 119.103 91.9683C119.146 91.865 119.215 91.7878 119.279 91.7458C119.311 91.7255 119.336 91.7167 119.352 91.7134C119.366 91.7104 119.372 91.7122 119.372 91.7122C119.495 91.745 119.937 91.9187 120.591 92.1916C121.223 92.4558 122.011 92.7943 122.791 93.1335C124.358 93.8154 125.863 94.4873 126.025 94.5681C126.025 94.5682 126.026 94.5683 126.026 94.5683L126.249 94.121L129.755 89.2134ZM128.268 91.4072L128.268 91.4073C128.296 91.445 128.342 91.5095 128.373 91.5921C128.398 91.6584 128.467 91.8834 128.308 92.0995C128.16 92.3001 127.943 92.3129 127.887 92.3145C127.807 92.3169 127.737 92.3029 127.694 92.2927C127.529 92.2538 127.3 92.1532 127.071 92.0438C126.584 91.8115 125.883 91.4335 125.16 91.0377C124.96 90.9283 124.758 90.8173 124.557 90.7072C124.026 90.4152 123.505 90.1288 123.057 89.8911C122.749 89.7274 122.483 89.5903 122.277 89.4923C122.174 89.4432 122.092 89.4065 122.03 89.3818C121.984 89.3635 121.963 89.3573 121.959 89.356C121.946 89.3541 121.932 89.3521 121.918 89.3502C121.6 89.3045 121.3 89.2614 121.039 89.3133C120.914 89.3381 120.822 89.3816 120.751 89.4434C120.691 89.4965 120.624 89.5829 120.571 89.7349L128.268 91.4072ZM128.268 91.4072C127.963 91.009 127.319 90.3106 126.73 89.6989C126.431 89.3895 126.14 89.0955 125.903 88.8639C125.68 88.6466 125.472 88.4507 125.357 88.3685M128.268 91.4072L123.781 87.1561M123.781 87.1561C123.863 87.0311 123.935 86.9751 123.99 86.9472C124.044 86.9193 124.117 86.9013 124.231 86.9081C124.491 86.9236 124.846 87.0554 125.384 87.3017L123.781 87.1561ZM123.781 87.1561C123.784 87.1671 123.792 87.187 123.809 87.2165C123.874 87.3279 124.014 87.4726 124.223 87.6361C124.425 87.7933 124.654 87.9402 124.861 88.0656C124.917 88.0998 124.977 88.1354 125.036 88.1702C125.166 88.2473 125.29 88.3209 125.357 88.3685M125.357 88.3685L125.066 88.7753L125.356 88.3682C125.356 88.3683 125.357 88.3684 125.357 88.3685ZM127.472 92.0135C127.473 92.0139 127.473 92.0143 127.473 92.0147L127.472 92.0135ZM127.923 91.3194C127.923 91.3194 127.923 91.3193 127.922 91.3192L127.923 91.3194ZM129.777 84.2664C129.777 84.2663 129.779 84.2675 129.781 84.2705C129.779 84.2681 129.777 84.2666 129.777 84.2664ZM120.555 89.7038C120.555 89.7038 120.556 89.7053 120.557 89.7081C120.555 89.7052 120.555 89.7037 120.555 89.7038Z" fill="white" stroke="#FA2609"/>
<path d="M119.761 53.7444L119.458 54.1422C119.761 53.7444 119.761 53.7445 119.761 53.7446L119.762 53.7449L119.763 53.7463L119.77 53.7517L119.798 53.773L119.908 53.8563L120.324 54.1738C120.683 54.448 121.197 54.8412 121.82 55.3177C123.064 56.2705 124.739 57.556 126.46 58.887C128.181 60.2177 129.95 61.5946 131.383 62.7298C132.803 63.8555 133.921 64.7653 134.316 65.149C134.316 65.149 134.316 65.1491 134.316 65.1491L133.967 65.5078C134.806 66.3219 135.395 68.1089 135.758 69.2488L119.761 53.7444ZM119.761 53.7444L119.62 53.6373L119.445 53.6423L119.445 53.6423L119.445 53.6423L119.444 53.6424L119.444 53.6424L119.444 53.6424L119.433 53.6425C119.422 53.6425 119.405 53.6424 119.382 53.6418C119.336 53.6406 119.269 53.6375 119.19 53.6294C119.026 53.6128 118.833 53.5778 118.667 53.511C118.497 53.4428 118.408 53.3632 118.369 53.2899C118.337 53.2319 118.292 53.0948 118.4 52.7942C118.631 52.1566 119.115 51.6844 119.848 51.2164C120.214 50.9823 120.629 50.758 121.09 50.5159C121.174 50.4717 121.259 50.427 121.346 50.3816C121.73 50.1805 122.14 49.9659 122.558 49.7296L122.558 49.7296C123.518 49.1868 124.844 48.6818 126.157 48.462C127.487 48.2395 128.708 48.3246 129.541 48.8425C130.527 49.4561 132.033 50.4036 133.383 51.5393C134.752 52.6908 135.871 53.9641 136.201 55.2069L136.201 55.207C136.371 55.8457 136.525 56.3818 136.66 56.8518C136.83 57.4449 136.97 57.9326 137.073 58.3879C137.249 59.1654 137.294 59.7602 137.158 60.4606C137.003 61.2566 136.651 63.2452 136.333 65.2199C136.172 66.2218 136.016 67.2347 135.9 68.0903L119.761 53.7444Z" fill="white" stroke="#FA2609"/>
<path d="M125.604 76.3631L125.227 74.7398V65.5254H135.122L135.519 72.3644L129.211 78.5502L125.604 76.3631Z" fill="white" stroke="#FA2609"/>
<path d="M120.204 53.995L120.204 53.9951L120.203 53.9959L120.199 54.0006L120.182 54.0219C120.167 54.0412 120.143 54.0706 120.113 54.1092C120.053 54.1865 119.965 54.3008 119.86 54.4459C119.649 54.7366 119.367 55.1484 119.084 55.632C118.508 56.6172 117.972 57.8281 117.952 58.8997C117.931 60.0935 117.952 60.9612 117.969 61.5833L117.97 61.6301C117.978 61.9181 117.984 62.1608 117.983 62.3555C117.983 62.533 117.977 62.7059 117.95 62.8531C117.95 62.8537 117.95 62.8543 117.95 62.855C117.959 62.8885 117.977 62.9409 118.009 63.013C118.073 63.1568 118.172 63.3301 118.282 63.5054C118.39 63.6782 118.502 63.8409 118.587 63.9614C118.63 64.0213 118.665 64.07 118.69 64.1035L118.718 64.1416L118.725 64.151L118.727 64.1531L118.727 64.1534L118.727 64.1535L118.727 64.1535L118.727 64.1535L118.882 64.3573L118.807 64.6015L118.807 64.6016L118.807 64.6017L118.807 64.6018L118.807 64.602L118.806 64.6045L118.802 64.6188C118.798 64.6322 118.792 64.653 118.785 64.6807C118.77 64.736 118.749 64.8181 118.726 64.9212C118.679 65.1282 118.624 65.4159 118.591 65.7389C118.522 66.4101 118.559 67.1285 118.848 67.6207L120.204 53.995ZM120.204 53.995L120.204 53.995M120.204 53.995L120.204 53.995M120.204 53.995L120.204 53.9949L120.214 53.9827L120.224 53.9698C120.584 53.4725 120.96 53.1881 121.329 53.0426C121.698 52.8973 122.1 52.8755 122.54 52.9663C123.442 53.1527 124.45 53.8029 125.468 54.7072C127.088 56.1472 128.563 58.0725 129.488 59.2794C129.722 59.5846 129.921 59.8439 130.078 60.0377L130.078 60.0377C130.896 61.0479 131.929 61.6093 132.743 61.9179C133.152 62.0727 133.511 62.1661 133.77 62.221C133.9 62.2485 134.005 62.2666 134.08 62.2779C134.117 62.2835 134.147 62.2875 134.168 62.2902L134.194 62.2932L134.202 62.2941L134.204 62.2944L134.205 62.2945L134.206 62.2945C134.206 62.2946 134.206 62.2946 134.257 61.7971L134.206 62.2946L134.739 62.3486L134.756 61.8154L134.756 61.8153L134.756 61.8149L134.756 61.8148L134.756 61.8144L134.756 61.8141L134.756 61.8138L134.757 61.8087C134.757 61.8022 134.758 61.7912 134.759 61.7763C134.761 61.7464 134.766 61.7016 134.773 61.6468C134.789 61.5351 134.817 61.3925 134.864 61.2543C134.971 60.9454 135.102 60.8449 135.234 60.8355C135.681 60.8038 135.913 60.8873 136.04 60.9811C136.164 61.0727 136.268 61.2332 136.33 61.5337C136.393 61.8394 136.402 62.2363 136.376 62.7294C136.355 63.1041 136.317 63.5081 136.275 63.9459C136.262 64.0825 136.248 64.2224 136.235 64.3657C136.142 65.3632 135.666 65.7861 135.249 65.9887C135.026 66.0969 134.804 66.1484 134.636 66.1721C134.553 66.1838 134.485 66.1883 134.44 66.19C134.418 66.1908 134.402 66.1909 134.393 66.1909L134.385 66.1908L134.384 66.1908L134.384 66.1908C134.384 66.1908 134.384 66.1908 134.384 66.1908L133.969 66.1739L133.878 66.5819C133.878 66.5818 133.878 66.5818 133.878 66.5819L133.878 66.582L133.878 66.582L133.878 66.5821L133.878 66.5829L133.877 66.5884L133.871 66.6146C133.865 66.6389 133.856 66.6771 133.843 66.7309C133.816 66.8385 133.773 67.008 133.708 67.2519C133.578 67.7396 133.36 68.5238 133.011 69.7034L133.011 69.7035C132.873 70.1694 132.467 70.7311 131.845 71.3384C131.235 71.9344 130.465 72.528 129.676 73.0634C128.89 73.5977 128.096 74.0665 127.444 74.4141C127.118 74.5879 126.831 74.7297 126.601 74.8336C126.36 74.9419 126.209 74.9962 126.144 75.0117L126.144 75.0117C125.284 75.2168 123.451 75.3472 122.219 75.2623C122.006 75.2476 121.918 75.184 121.87 75.131C121.808 75.0631 121.749 74.9444 121.705 74.7333C121.664 74.5379 121.646 74.318 121.623 74.0569C121.621 74.0339 121.619 74.0105 121.617 73.9868C121.594 73.7116 121.564 73.3921 121.486 73.0935L120.204 53.995ZM120.338 70.4234C120.853 71.4637 121.339 72.5304 121.486 73.0935L120.338 70.4234ZM120.338 70.4234C119.814 69.3647 119.228 68.2692 118.848 67.6208L120.338 70.4234ZM117.946 62.8338C117.946 62.8338 117.946 62.835 117.947 62.8372C117.946 62.8349 117.946 62.8338 117.946 62.8338Z" fill="white" stroke="#FA2609"/>
<mask id="path-29-inside-1_287_24309" fill="white">
<path d="M133.977 61.1914L133.935 60.9204L127.741 61.8089H126.434C125.947 61.3488 125.238 61.051 124.439 61.051C123.242 61.051 122.239 61.7098 121.91 62.6063C121.672 62.5698 120.45 62.427 120.059 62.9972C119.662 62.5059 119.061 62.1848 118.382 62.1848C117.188 62.1848 116.217 63.1553 116.217 64.3499C116.217 65.5445 117.188 66.515 118.382 66.515C119.576 66.515 120.547 65.5445 120.547 64.3499C120.547 63.9437 120.428 63.5684 120.233 63.2432C120.385 62.7821 121.375 62.8124 121.829 62.8728C121.806 62.9899 121.786 63.108 121.786 63.2304C121.786 64.4319 122.976 65.4097 124.439 65.4097C125.902 65.4097 127.092 64.4319 127.092 63.2304C127.092 62.8089 126.939 62.418 126.686 62.0837L127.762 62.082L133.977 61.1914ZM118.382 66.2683C117.325 66.2683 116.465 65.4076 116.465 64.3499C116.465 64.0907 116.517 63.8436 116.611 63.6174H117.796L117.61 63.3422H116.757C117.096 62.7981 117.695 62.4312 118.382 62.4312C119.44 62.4312 120.3 63.2919 120.3 64.3495C120.3 65.4072 119.44 66.2683 118.382 66.2683ZM124.439 65.1341C123.127 65.1341 122.059 64.2797 122.059 63.23C122.059 62.1803 123.127 61.3259 124.439 61.3259C125.75 61.3259 126.818 62.1803 126.818 63.23C126.818 64.2797 125.75 65.1341 124.439 65.1341Z"/>
</mask>
<path d="M133.977 61.1914L133.935 60.9204L127.741 61.8089H126.434C125.947 61.3488 125.238 61.051 124.439 61.051C123.242 61.051 122.239 61.7098 121.91 62.6063C121.672 62.5698 120.45 62.427 120.059 62.9972C119.662 62.5059 119.061 62.1848 118.382 62.1848C117.188 62.1848 116.217 63.1553 116.217 64.3499C116.217 65.5445 117.188 66.515 118.382 66.515C119.576 66.515 120.547 65.5445 120.547 64.3499C120.547 63.9437 120.428 63.5684 120.233 63.2432C120.385 62.7821 121.375 62.8124 121.829 62.8728C121.806 62.9899 121.786 63.108 121.786 63.2304C121.786 64.4319 122.976 65.4097 124.439 65.4097C125.902 65.4097 127.092 64.4319 127.092 63.2304C127.092 62.8089 126.939 62.418 126.686 62.0837L127.762 62.082L133.977 61.1914ZM118.382 66.2683C117.325 66.2683 116.465 65.4076 116.465 64.3499C116.465 64.0907 116.517 63.8436 116.611 63.6174H117.796L117.61 63.3422H116.757C117.096 62.7981 117.695 62.4312 118.382 62.4312C119.44 62.4312 120.3 63.2919 120.3 64.3495C120.3 65.4072 119.44 66.2683 118.382 66.2683ZM124.439 65.1341C123.127 65.1341 122.059 64.2797 122.059 63.23C122.059 62.1803 123.127 61.3259 124.439 61.3259C125.75 61.3259 126.818 62.1803 126.818 63.23C126.818 64.2797 125.75 65.1341 124.439 65.1341Z" fill="white"/>
<path d="M133.977 61.1914L134.119 62.1813L135.12 62.0378L134.965 61.0382L133.977 61.1914ZM133.935 60.9204L134.923 60.7672L134.771 59.7902L133.793 59.9305L133.935 60.9204ZM127.741 61.8089V62.8089H127.813L127.883 62.7987L127.741 61.8089ZM126.434 61.8089L125.747 62.5357L126.036 62.8089H126.434V61.8089ZM121.91 62.6063L121.758 63.5948L122.566 63.7186L122.848 62.9512L121.91 62.6063ZM120.059 62.9972L119.281 63.6259L120.125 64.6691L120.884 63.563L120.059 62.9972ZM120.233 63.2432L119.283 62.9304L119.14 63.3649L119.375 63.7573L120.233 63.2432ZM121.829 62.8728L122.81 63.0706L123.021 62.0225L121.961 61.8816L121.829 62.8728ZM126.686 62.0837L126.684 61.0837L124.676 61.087L125.889 62.6877L126.686 62.0837ZM127.762 62.082L127.764 63.082L127.834 63.0819L127.904 63.0719L127.762 62.082ZM116.611 63.6174V62.6174H115.943L115.687 63.2343L116.611 63.6174ZM117.796 63.6174V64.6174H119.678L118.625 63.0577L117.796 63.6174ZM117.61 63.3422L118.439 62.7825L118.141 62.3422H117.61V63.3422ZM116.757 63.3422L115.909 62.8137L114.957 64.3422H116.757V63.3422ZM134.965 61.0382L134.923 60.7672L132.947 61.0737L132.989 61.3447L134.965 61.0382ZM133.793 59.9305L127.599 60.819L127.883 62.7987L134.077 61.9103L133.793 59.9305ZM127.741 60.8089H126.434V62.8089H127.741V60.8089ZM127.121 61.0821C126.441 60.4403 125.484 60.051 124.439 60.051V62.051C124.991 62.051 125.452 62.2573 125.747 62.5357L127.121 61.0821ZM124.439 60.051C122.905 60.051 121.472 60.8988 120.971 62.2614L122.848 62.9512C123.006 62.5209 123.578 62.051 124.439 62.051V60.051ZM122.061 61.6179C121.905 61.5939 121.454 61.5377 120.961 61.5775C120.714 61.5975 120.415 61.6445 120.123 61.7564C119.831 61.8681 119.484 62.0684 119.235 62.4314L120.884 63.563C120.83 63.6409 120.783 63.6453 120.837 63.6245C120.891 63.6039 120.986 63.5821 121.122 63.571C121.397 63.5488 121.677 63.5823 121.758 63.5948L122.061 61.6179ZM120.837 62.3686C120.265 61.6614 119.387 61.1848 118.382 61.1848V63.1848C118.736 63.1848 119.059 63.3504 119.281 63.6259L120.837 62.3686ZM118.382 61.1848C116.636 61.1848 115.217 62.6028 115.217 64.3499H117.217C117.217 63.7078 117.74 63.1848 118.382 63.1848V61.1848ZM115.217 64.3499C115.217 66.097 116.636 67.515 118.382 67.515V65.515C117.74 65.515 117.217 64.992 117.217 64.3499H115.217ZM118.382 67.515C120.128 67.515 121.547 66.0972 121.547 64.3499H119.547C119.547 64.9918 119.024 65.515 118.382 65.515V67.515ZM121.547 64.3499C121.547 63.7431 121.368 63.192 121.091 62.7291L119.375 63.7573C119.488 63.9449 119.547 64.1443 119.547 64.3499H121.547ZM121.183 63.556C121.11 63.7762 120.956 63.8634 120.932 63.8755C120.914 63.8848 120.943 63.8677 121.048 63.8539C121.254 63.8268 121.52 63.8405 121.698 63.8641L121.961 61.8816C121.684 61.8446 121.228 61.813 120.787 61.871C120.569 61.8997 120.294 61.9578 120.033 62.0892C119.766 62.2234 119.432 62.4797 119.283 62.9304L121.183 63.556ZM120.849 62.675C120.823 62.8049 120.786 63.0038 120.786 63.2304H122.786C122.786 63.2123 122.789 63.1749 122.81 63.0706L120.849 62.675ZM120.786 63.2304C120.786 65.1592 122.617 66.4097 124.439 66.4097V64.4097C123.335 64.4097 122.786 63.7046 122.786 63.2304H120.786ZM124.439 66.4097C126.261 66.4097 128.092 65.1592 128.092 63.2304H126.092C126.092 63.7046 125.542 64.4097 124.439 64.4097V66.4097ZM128.092 63.2304C128.092 62.557 127.846 61.9588 127.483 61.4798L125.889 62.6877C126.032 62.8771 126.092 63.0607 126.092 63.2304H128.092ZM126.687 63.0837L127.764 63.082L127.761 61.082L126.684 61.0837L126.687 63.0837ZM127.904 63.0719L134.119 62.1813L133.835 60.2015L127.621 61.0921L127.904 63.0719ZM118.382 65.2683C117.877 65.2683 117.465 64.8559 117.465 64.3499H115.465C115.465 65.9593 116.772 67.2683 118.382 67.2683V65.2683ZM117.465 64.3499C117.465 64.2279 117.489 64.1107 117.535 64.0005L115.687 63.2343C115.546 63.5765 115.465 63.9534 115.465 64.3499H117.465ZM116.611 64.6174H117.796V62.6174H116.611V64.6174ZM118.625 63.0577L118.439 62.7825L116.781 63.902L116.967 64.1772L118.625 63.0577ZM117.61 62.3422H116.757V64.3422H117.61V62.3422ZM117.606 63.8708C117.775 63.6005 118.063 63.4312 118.382 63.4312V61.4312C117.327 61.4312 116.418 61.9958 115.909 62.8137L117.606 63.8708ZM118.382 63.4312C118.887 63.4312 119.3 63.8439 119.3 64.3495H121.3C121.3 62.7398 119.992 61.4312 118.382 61.4312V63.4312ZM119.3 64.3495C119.3 64.8555 118.887 65.2683 118.382 65.2683V67.2683C119.993 67.2683 121.3 65.9589 121.3 64.3495H119.3ZM124.439 64.1341C123.46 64.1341 123.059 63.531 123.059 63.23H121.059C121.059 65.0284 122.794 66.1341 124.439 66.1341V64.1341ZM123.059 63.23C123.059 62.929 123.46 62.3259 124.439 62.3259V60.3259C122.794 60.3259 121.059 61.4317 121.059 63.23H123.059ZM124.439 62.3259C125.417 62.3259 125.818 62.929 125.818 63.23H127.818C127.818 61.4317 126.083 60.3259 124.439 60.3259V62.3259ZM125.818 63.23C125.818 63.5311 125.417 64.1341 124.439 64.1341V66.1341C126.083 66.1341 127.818 65.0283 127.818 63.23H125.818Z" fill="#FA2609" mask="url(#path-29-inside-1_287_24309)"/>
<path d="M108.736 155.152C108.745 155.169 108.753 155.184 108.76 155.197C108.776 156.306 108.439 156.796 108.108 157.101C107.949 157.247 107.785 157.357 107.6 157.481C107.559 157.509 107.516 157.538 107.472 157.568C107.259 157.713 106.982 157.911 106.809 158.21C106.726 158.352 106.666 158.513 106.658 158.688C106.65 158.871 106.699 159.03 106.775 159.162C106.891 159.366 107.091 159.529 107.217 159.632C107.23 159.642 107.241 159.651 107.252 159.661C107.544 159.9 107.765 160.105 107.794 160.54L107.794 160.541C107.83 161.071 107.63 161.724 107.296 162.187C106.95 162.668 106.617 162.765 106.37 162.67C105.849 162.469 104.745 161.878 103.687 161.166C103.162 160.812 102.662 160.438 102.26 160.077C101.847 159.707 101.582 159.39 101.473 159.156C100.984 158.109 101.462 157.154 102.223 156.739C102.543 156.565 102.831 156.284 103.073 155.998C103.32 155.706 103.545 155.377 103.733 155.075C103.922 154.771 104.079 154.486 104.189 154.277C104.236 154.188 104.274 154.112 104.303 154.054C105.087 153.532 105.735 153.366 106.255 153.374C106.799 153.382 107.256 153.582 107.636 153.861C108.019 154.142 108.314 154.498 108.514 154.792C108.614 154.938 108.688 155.064 108.736 155.152Z" fill="white" stroke="#FA2609"/>
<path d="M131.048 16.8636L131.048 16.8638L118.789 27.518C118.486 27.7813 118.454 28.2397 118.717 28.5424L131.048 16.8636ZM131.048 16.8636C131.304 16.6405 131.682 16.6258 131.955 16.8281L131.955 16.8282M131.048 16.8636L131.955 16.8282M131.955 16.8282L145.558 26.8898L145.885 27.1315M131.955 16.8282L145.885 27.1315M145.885 27.1315L146.188 26.8611M145.885 27.1315L146.188 26.8611M146.188 26.8611L157.397 16.8697C157.696 16.6029 158.155 16.6291 158.421 16.9284L158.422 16.9285M146.188 26.8611L158.422 16.9285M158.422 16.9285C158.688 17.2275 158.662 17.6863 158.363 17.9533C158.363 17.9534 158.363 17.9534 158.363 17.9534L146.411 28.6074C146.154 28.8362 145.772 28.8533 145.497 28.6494L145.496 28.6491M158.422 16.9285L145.496 28.6491M145.496 28.6491L131.883 18.5795L131.56 18.341M145.496 28.6491L131.56 18.341M131.56 18.341L131.257 18.6042M131.56 18.341L131.257 18.6042M131.257 18.6042L119.741 28.6136L119.741 28.6138M131.257 18.6042L119.741 28.6138M119.741 28.6138C119.603 28.734 119.434 28.7922 119.266 28.7922C119.062 28.7922 118.861 28.7076 118.717 28.5425L119.741 28.6138Z" fill="white" stroke="#FA2609"/>
<path d="M159.197 16.4249V15.9249H158.697H153.589C153.188 15.9249 152.863 15.5997 152.863 15.199C152.863 14.7983 153.188 14.4731 153.589 14.4731H159.923C160.324 14.4731 160.649 14.7983 160.649 15.199V21.5284C160.649 21.9291 160.324 22.2543 159.923 22.2543C159.522 22.2543 159.197 21.9292 159.197 21.5284V16.4249Z" fill="white" stroke="#FA2609"/>
<path d="M45.3892 22.9438C45.3892 28.9617 43.0212 34.4257 39.1653 38.4563L23.6524 22.9438L39.1653 7.43123C43.0212 11.4618 45.3892 16.9258 45.3892 22.9438Z" fill="white" stroke="#FA2609"/>
<path d="M26.8027 33.8009L41.8153 48.8134C37.8966 52.5622 32.623 54.9046 26.8027 55.0318V33.8009Z" fill="white" stroke="#FA2609"/>
<path d="M23.4453 21.7368V0.505458C29.2659 0.632643 34.5395 2.97503 38.4582 6.7239L23.4453 21.7368Z" fill="white" stroke="#FA2609"/>
<path d="M0.505459 22.4439C0.767715 10.4454 10.4457 0.767714 22.4439 0.505459V22.4439H0.505459Z" fill="white" stroke="#FA2609"/>
<path d="M0.505473 23.4434H22.4439V45.3818C10.4458 45.1195 0.768049 35.4418 0.505473 23.4434Z" fill="white" stroke="#FA2609"/>
<path d="M209.67 102.621V77.6709H216.196V102.621H209.67Z" fill="white" stroke="#FA2609"/>
<path d="M197.807 102.621V87.1807H204.333V102.621H197.807Z" fill="white" stroke="#FA2609"/>
<path d="M185.949 102.621V95.4009H192.476V102.621H185.949Z" fill="white" stroke="#FA2609"/>
<path d="M182.193 105.452V103.032H219.5V105.452H182.193Z" fill="white" stroke="#FA2609"/>
</svg>
