<svg width="613" height="613" viewBox="0 0 613 613" fill="none" xmlns="http://www.w3.org/2000/svg">
<path d="M405.037 207.98H207.979L306.513 10.9216L405.037 207.98Z" fill="url(#paint0_linear_6_3043)" fill-opacity="0.6" stroke="url(#paint1_linear_6_3043)" stroke-miterlimit="10" stroke-linecap="round" stroke-linejoin="round"/>
<path d="M207.979 405.04H405.037L306.513 602.088L207.979 405.04Z" fill="url(#paint2_linear_6_3043)" fill-opacity="0.6" stroke="url(#paint3_linear_6_3043)" stroke-miterlimit="10" stroke-linecap="round" stroke-linejoin="round"/>
<path d="M405.037 207.976H207.979L306.513 405.034L405.037 207.976Z" fill="url(#paint4_linear_6_3043)" fill-opacity="0.6" stroke="url(#paint5_linear_6_3043)" stroke-miterlimit="10" stroke-linecap="round" stroke-linejoin="round"/>
<path d="M405.046 207.976V405.034L602.104 306.5L405.046 207.976Z" fill="url(#paint6_linear_6_3043)" fill-opacity="0.6" stroke="url(#paint7_linear_6_3043)" stroke-miterlimit="10" stroke-linecap="round" stroke-linejoin="round"/>
<path d="M207.984 207.976V405.034L10.936 306.5L207.984 207.976Z" fill="url(#paint8_linear_6_3043)" fill-opacity="0.6" stroke="url(#paint9_linear_6_3043)" stroke-miterlimit="10" stroke-linecap="round" stroke-linejoin="round"/>
<path d="M207.979 405.034H306.513L207.979 207.976V405.034Z" fill="url(#paint10_linear_6_3043)" fill-opacity="0.6" stroke="url(#paint11_linear_6_3043)" stroke-miterlimit="10" stroke-linecap="round" stroke-linejoin="round"/>
<path d="M306.519 405.034L405.043 207.976V405.034H306.519Z" fill="url(#paint12_linear_6_3043)" fill-opacity="0.6" stroke="url(#paint13_linear_6_3043)" stroke-miterlimit="10" stroke-linecap="round" stroke-linejoin="round"/>
<path d="M306.519 602.088L503.566 503.564L405.043 405.04L306.519 602.088Z" fill="url(#paint14_linear_6_3043)" fill-opacity="0.6" stroke="url(#paint15_linear_6_3043)" stroke-miterlimit="10" stroke-linecap="round" stroke-linejoin="round"/>
<path d="M503.57 503.561L602.104 306.503L405.046 405.037L503.57 503.561Z" fill="url(#paint16_linear_6_3043)" fill-opacity="0.6" stroke="url(#paint17_linear_6_3043)" stroke-miterlimit="10" stroke-linecap="round" stroke-linejoin="round"/>
<path d="M306.518 602.088L109.459 503.564L207.984 405.04L306.518 602.088Z" fill="url(#paint18_linear_6_3043)" fill-opacity="0.6" stroke="url(#paint19_linear_6_3043)" stroke-miterlimit="10" stroke-linecap="round" stroke-linejoin="round"/>
<path d="M109.46 503.561L10.936 306.503L207.984 405.037L109.46 503.561Z" fill="url(#paint20_linear_6_3043)" fill-opacity="0.6" stroke="url(#paint21_linear_6_3043)" stroke-miterlimit="10" stroke-linecap="round" stroke-linejoin="round"/>
<path d="M306.519 10.9216L503.566 109.446L405.043 207.98L306.519 10.9216Z" fill="url(#paint22_linear_6_3043)" fill-opacity="0.6" stroke="url(#paint23_linear_6_3043)" stroke-miterlimit="10" stroke-linecap="round" stroke-linejoin="round"/>
<path d="M503.57 109.449L602.104 306.508L405.046 207.984L503.57 109.449Z" fill="url(#paint24_linear_6_3043)" fill-opacity="0.6" stroke="url(#paint25_linear_6_3043)" stroke-miterlimit="10" stroke-linecap="round" stroke-linejoin="round"/>
<path d="M306.518 10.9216L109.459 109.446L207.984 207.98L306.518 10.9216Z" fill="url(#paint26_linear_6_3043)" fill-opacity="0.6" stroke="url(#paint27_linear_6_3043)" stroke-miterlimit="10" stroke-linecap="round" stroke-linejoin="round"/>
<path d="M109.46 109.449L10.936 306.508L207.984 207.984L109.46 109.449Z" fill="url(#paint28_linear_6_3043)" fill-opacity="0.6" stroke="url(#paint29_linear_6_3043)" stroke-miterlimit="10" stroke-linecap="round" stroke-linejoin="round"/>
<path d="M317.42 10.9189C317.42 16.9439 312.536 21.8378 306.501 21.8378C300.476 21.8378 295.582 16.9544 295.582 10.9189C295.582 4.89393 300.465 0 306.501 0C312.536 0 317.42 4.89393 317.42 10.9189Z" fill="#FA2609" fill-opacity="0.4"/>
<path d="M109.454 120.366C115.485 120.366 120.374 115.477 120.374 109.447C120.374 103.416 115.485 98.5278 109.454 98.5278C103.424 98.5278 98.5356 103.416 98.5356 109.447C98.5356 115.477 103.424 120.366 109.454 120.366Z" fill="#FA2609" fill-opacity="0.4"/>
<path d="M512.305 109.447C512.305 115.472 507.422 120.366 501.386 120.366C495.361 120.366 490.467 115.482 490.467 109.447C490.467 103.422 495.351 98.5278 501.386 98.5278C507.411 98.5384 512.305 103.422 512.305 109.447Z" fill="#FA2609" fill-opacity="0.4"/>
<path d="M218.892 207.973C218.892 213.998 214.009 218.892 207.973 218.892C201.949 218.892 197.055 214.008 197.055 207.973C197.055 201.948 201.938 197.054 207.973 197.054C214.009 197.054 218.892 201.948 218.892 207.973Z" fill="#FA2609" fill-opacity="0.4"/>
<path d="M415.96 207.973C415.96 213.998 411.077 218.892 405.041 218.892C399.016 218.892 394.122 214.008 394.122 207.973C394.122 201.948 399.006 197.054 405.041 197.054C411.066 197.054 415.96 201.948 415.96 207.973Z" fill="#FA2609" fill-opacity="0.4"/>
<path d="M317.42 602.081C317.42 596.056 312.536 591.162 306.501 591.162C300.476 591.162 295.582 596.045 295.582 602.081C295.582 608.106 300.465 613 306.501 613C312.536 613 317.42 608.116 317.42 602.081Z" fill="#FA2609" fill-opacity="0.4"/>
<path d="M120.374 503.564C120.374 497.539 115.49 492.646 109.454 492.646C103.429 492.646 98.5356 497.529 98.5356 503.564C98.5356 509.589 103.419 514.483 109.454 514.483C115.479 514.473 120.374 509.589 120.374 503.564Z" fill="#FA2609" fill-opacity="0.4"/>
<path d="M512.305 503.564C512.305 497.539 507.422 492.646 501.386 492.646C495.361 492.646 490.467 497.529 490.467 503.564C490.467 509.589 495.351 514.483 501.386 514.483C507.411 514.473 512.305 509.589 512.305 503.564Z" fill="#FA2609" fill-opacity="0.4"/>
<path d="M218.892 405.037C218.892 399.013 214.009 394.119 207.973 394.119C201.949 394.119 197.055 399.002 197.055 405.037C197.055 411.062 201.938 415.946 207.973 415.946C214.009 415.946 218.892 411.062 218.892 405.037Z" fill="#FA2609" fill-opacity="0.4"/>
<path d="M415.96 405.037C415.96 399.013 411.077 394.119 405.041 394.119C399.016 394.119 394.122 399.002 394.122 405.037C394.122 411.062 399.006 415.946 405.041 415.946C411.066 415.946 415.96 411.062 415.96 405.037Z" fill="#FA2609" fill-opacity="0.4"/>
<path d="M317.42 405.037C317.42 399.013 312.536 394.119 306.501 394.119C300.476 394.119 295.582 399.002 295.582 405.037C295.582 411.062 300.465 415.946 306.501 415.946C312.536 415.946 317.42 411.062 317.42 405.037Z" fill="#FA2609" fill-opacity="0.4"/>
<path d="M613.002 306.5C613.002 312.525 608.119 317.419 602.084 317.419C596.059 317.419 591.165 312.536 591.165 306.5C591.165 300.465 596.048 295.581 602.084 295.581C608.119 295.592 613.002 300.475 613.002 306.5Z" fill="#FA2609" fill-opacity="0.4"/>
<path d="M21.8376 306.5C21.8376 312.525 16.9543 317.419 10.9188 317.419C4.89385 317.419 0 312.536 0 306.5C0 300.465 4.88328 295.581 10.9188 295.581C16.9543 295.592 21.8376 300.475 21.8376 306.5Z" fill="#FA2609" fill-opacity="0.4"/>
<defs>
<linearGradient id="paint0_linear_6_3043" x1="207.984" y1="109.447" x2="405.039" y2="109.447" gradientUnits="userSpaceOnUse">
<stop stop-color="#FA2609" stop-opacity="0.1"/>
<stop offset="1" stop-color="#FA2609" stop-opacity="0.4"/>
</linearGradient>
<linearGradient id="paint1_linear_6_3043" x1="206.12" y1="109.45" x2="406.903" y2="109.45" gradientUnits="userSpaceOnUse">
<stop stop-color="#C7F7FF"/>
<stop offset="0.2374" stop-color="white"/>
<stop offset="0.4246" stop-color="#C7F7FF"/>
<stop offset="0.6006" stop-color="white"/>
<stop offset="0.7374" stop-color="#C7F7FF"/>
<stop offset="0.8855" stop-color="white"/>
<stop offset="1" stop-color="#C7F7FF"/>
</linearGradient>
<linearGradient id="paint2_linear_6_3043" x1="207.984" y1="503.56" x2="405.039" y2="503.56" gradientUnits="userSpaceOnUse">
<stop stop-color="#FA2609" stop-opacity="0.1"/>
<stop offset="1" stop-color="#FA2609" stop-opacity="0.4"/>
</linearGradient>
<linearGradient id="paint3_linear_6_3043" x1="406.902" y1="503.563" x2="206.118" y2="503.563" gradientUnits="userSpaceOnUse">
<stop stop-color="#C7F7FF"/>
<stop offset="0.2374" stop-color="white"/>
<stop offset="0.4246" stop-color="#C7F7FF"/>
<stop offset="0.6006" stop-color="white"/>
<stop offset="0.7374" stop-color="#C7F7FF"/>
<stop offset="0.8855" stop-color="white"/>
<stop offset="1" stop-color="#C7F7FF"/>
</linearGradient>
<linearGradient id="paint4_linear_6_3043" x1="207.984" y1="306.501" x2="405.039" y2="306.501" gradientUnits="userSpaceOnUse">
<stop stop-color="#FA2609" stop-opacity="0.1"/>
<stop offset="1" stop-color="#FA2609" stop-opacity="0.4"/>
</linearGradient>
<linearGradient id="paint5_linear_6_3043" x1="206.12" y1="306.501" x2="406.903" y2="306.501" gradientUnits="userSpaceOnUse">
<stop stop-color="#C7F7FF"/>
<stop offset="0.2374" stop-color="white"/>
<stop offset="0.4246" stop-color="#C7F7FF"/>
<stop offset="0.6006" stop-color="white"/>
<stop offset="0.7374" stop-color="#C7F7FF"/>
<stop offset="0.8855" stop-color="white"/>
<stop offset="1" stop-color="#C7F7FF"/>
</linearGradient>
<linearGradient id="paint6_linear_6_3043" x1="405.051" y1="306.501" x2="602.107" y2="306.501" gradientUnits="userSpaceOnUse">
<stop stop-color="#FA2609" stop-opacity="0.1"/>
<stop offset="1" stop-color="#FA2609" stop-opacity="0.4"/>
</linearGradient>
<linearGradient id="paint7_linear_6_3043" x1="503.576" y1="406.894" x2="503.576" y2="206.111" gradientUnits="userSpaceOnUse">
<stop stop-color="#C7F7FF"/>
<stop offset="0.2374" stop-color="white"/>
<stop offset="0.4246" stop-color="#C7F7FF"/>
<stop offset="0.6006" stop-color="white"/>
<stop offset="0.7374" stop-color="#C7F7FF"/>
<stop offset="0.8855" stop-color="white"/>
<stop offset="1" stop-color="#C7F7FF"/>
</linearGradient>
<linearGradient id="paint8_linear_6_3043" x1="10.9413" y1="306.501" x2="207.986" y2="306.501" gradientUnits="userSpaceOnUse">
<stop stop-color="#FA2609" stop-opacity="0.1"/>
<stop offset="1" stop-color="#FA2609" stop-opacity="0.4"/>
</linearGradient>
<linearGradient id="paint9_linear_6_3043" x1="109.461" y1="406.894" x2="109.461" y2="206.111" gradientUnits="userSpaceOnUse">
<stop stop-color="#C7F7FF"/>
<stop offset="0.2374" stop-color="white"/>
<stop offset="0.4246" stop-color="#C7F7FF"/>
<stop offset="0.6006" stop-color="white"/>
<stop offset="0.7374" stop-color="#C7F7FF"/>
<stop offset="0.8855" stop-color="white"/>
<stop offset="1" stop-color="#C7F7FF"/>
</linearGradient>
<linearGradient id="paint10_linear_6_3043" x1="207.981" y1="306.501" x2="306.514" y2="306.501" gradientUnits="userSpaceOnUse">
<stop stop-color="#FA2609" stop-opacity="0.1"/>
<stop offset="1" stop-color="#FA2609" stop-opacity="0.4"/>
</linearGradient>
<linearGradient id="paint11_linear_6_3043" x1="206.12" y1="306.502" x2="308.374" y2="306.502" gradientUnits="userSpaceOnUse">
<stop stop-color="#C7F7FF"/>
<stop offset="0.2374" stop-color="white"/>
<stop offset="0.4246" stop-color="#C7F7FF"/>
<stop offset="0.6006" stop-color="white"/>
<stop offset="0.7374" stop-color="#C7F7FF"/>
<stop offset="0.8855" stop-color="white"/>
<stop offset="1" stop-color="#C7F7FF"/>
</linearGradient>
<linearGradient id="paint12_linear_6_3043" x1="306.521" y1="306.501" x2="405.044" y2="306.501" gradientUnits="userSpaceOnUse">
<stop stop-color="#FA2609" stop-opacity="0.1"/>
<stop offset="1" stop-color="#FA2609" stop-opacity="0.4"/>
</linearGradient>
<linearGradient id="paint13_linear_6_3043" x1="304.652" y1="306.502" x2="406.908" y2="306.502" gradientUnits="userSpaceOnUse">
<stop stop-color="#C7F7FF"/>
<stop offset="0.2374" stop-color="white"/>
<stop offset="0.4246" stop-color="#C7F7FF"/>
<stop offset="0.6006" stop-color="white"/>
<stop offset="0.7374" stop-color="#C7F7FF"/>
<stop offset="0.8855" stop-color="white"/>
<stop offset="1" stop-color="#C7F7FF"/>
</linearGradient>
<linearGradient id="paint14_linear_6_3043" x1="306.524" y1="503.56" x2="503.569" y2="503.56" gradientUnits="userSpaceOnUse">
<stop stop-color="#FA2609" stop-opacity="0.1"/>
<stop offset="1" stop-color="#FA2609" stop-opacity="0.4"/>
</linearGradient>
<linearGradient id="paint15_linear_6_3043" x1="304.652" y1="503.562" x2="505.435" y2="503.562" gradientUnits="userSpaceOnUse">
<stop stop-color="#C7F7FF"/>
<stop offset="0.2374" stop-color="white"/>
<stop offset="0.4246" stop-color="#C7F7FF"/>
<stop offset="0.6006" stop-color="white"/>
<stop offset="0.7374" stop-color="#C7F7FF"/>
<stop offset="0.8855" stop-color="white"/>
<stop offset="1" stop-color="#C7F7FF"/>
</linearGradient>
<linearGradient id="paint16_linear_6_3043" x1="405.051" y1="405.028" x2="602.107" y2="405.028" gradientUnits="userSpaceOnUse">
<stop stop-color="#FA2609" stop-opacity="0.1"/>
<stop offset="1" stop-color="#FA2609" stop-opacity="0.4"/>
</linearGradient>
<linearGradient id="paint17_linear_6_3043" x1="403.185" y1="405.031" x2="603.967" y2="405.031" gradientUnits="userSpaceOnUse">
<stop stop-color="#C7F7FF"/>
<stop offset="0.2374" stop-color="white"/>
<stop offset="0.4246" stop-color="#C7F7FF"/>
<stop offset="0.6006" stop-color="white"/>
<stop offset="0.7374" stop-color="#C7F7FF"/>
<stop offset="0.8855" stop-color="white"/>
<stop offset="1" stop-color="#C7F7FF"/>
</linearGradient>
<linearGradient id="paint18_linear_6_3043" x1="109.465" y1="503.56" x2="306.52" y2="503.56" gradientUnits="userSpaceOnUse">
<stop stop-color="#FA2609" stop-opacity="0.1"/>
<stop offset="1" stop-color="#FA2609" stop-opacity="0.4"/>
</linearGradient>
<linearGradient id="paint19_linear_6_3043" x1="308.378" y1="503.562" x2="107.595" y2="503.562" gradientUnits="userSpaceOnUse">
<stop stop-color="#C7F7FF"/>
<stop offset="0.2374" stop-color="white"/>
<stop offset="0.4246" stop-color="#C7F7FF"/>
<stop offset="0.6006" stop-color="white"/>
<stop offset="0.7374" stop-color="#C7F7FF"/>
<stop offset="0.8855" stop-color="white"/>
<stop offset="1" stop-color="#C7F7FF"/>
</linearGradient>
<linearGradient id="paint20_linear_6_3043" x1="10.9413" y1="405.028" x2="207.986" y2="405.028" gradientUnits="userSpaceOnUse">
<stop stop-color="#FA2609" stop-opacity="0.1"/>
<stop offset="1" stop-color="#FA2609" stop-opacity="0.4"/>
</linearGradient>
<linearGradient id="paint21_linear_6_3043" x1="209.852" y1="405.031" x2="9.06724" y2="405.031" gradientUnits="userSpaceOnUse">
<stop stop-color="#C7F7FF"/>
<stop offset="0.2374" stop-color="white"/>
<stop offset="0.4246" stop-color="#C7F7FF"/>
<stop offset="0.6006" stop-color="white"/>
<stop offset="0.7374" stop-color="#C7F7FF"/>
<stop offset="0.8855" stop-color="white"/>
<stop offset="1" stop-color="#C7F7FF"/>
</linearGradient>
<linearGradient id="paint22_linear_6_3043" x1="306.524" y1="109.447" x2="503.569" y2="109.447" gradientUnits="userSpaceOnUse">
<stop stop-color="#FA2609" stop-opacity="0.1"/>
<stop offset="1" stop-color="#FA2609" stop-opacity="0.4"/>
</linearGradient>
<linearGradient id="paint23_linear_6_3043" x1="304.652" y1="109.45" x2="505.435" y2="109.45" gradientUnits="userSpaceOnUse">
<stop stop-color="#C7F7FF"/>
<stop offset="0.2374" stop-color="white"/>
<stop offset="0.4246" stop-color="#C7F7FF"/>
<stop offset="0.6006" stop-color="white"/>
<stop offset="0.7374" stop-color="#C7F7FF"/>
<stop offset="0.8855" stop-color="white"/>
<stop offset="1" stop-color="#C7F7FF"/>
</linearGradient>
<linearGradient id="paint24_linear_6_3043" x1="405.051" y1="207.974" x2="602.107" y2="207.974" gradientUnits="userSpaceOnUse">
<stop stop-color="#FA2609" stop-opacity="0.1"/>
<stop offset="1" stop-color="#FA2609" stop-opacity="0.4"/>
</linearGradient>
<linearGradient id="paint25_linear_6_3043" x1="403.185" y1="207.98" x2="603.967" y2="207.98" gradientUnits="userSpaceOnUse">
<stop stop-color="#C7F7FF"/>
<stop offset="0.2374" stop-color="white"/>
<stop offset="0.4246" stop-color="#C7F7FF"/>
<stop offset="0.6006" stop-color="white"/>
<stop offset="0.7374" stop-color="#C7F7FF"/>
<stop offset="0.8855" stop-color="white"/>
<stop offset="1" stop-color="#C7F7FF"/>
</linearGradient>
<linearGradient id="paint26_linear_6_3043" x1="109.465" y1="109.447" x2="306.52" y2="109.447" gradientUnits="userSpaceOnUse">
<stop stop-color="#FA2609" stop-opacity="0.1"/>
<stop offset="1" stop-color="#FA2609" stop-opacity="0.4"/>
</linearGradient>
<linearGradient id="paint27_linear_6_3043" x1="308.378" y1="109.45" x2="107.595" y2="109.45" gradientUnits="userSpaceOnUse">
<stop stop-color="#C7F7FF"/>
<stop offset="0.2374" stop-color="white"/>
<stop offset="0.4246" stop-color="#C7F7FF"/>
<stop offset="0.6006" stop-color="white"/>
<stop offset="0.7374" stop-color="#C7F7FF"/>
<stop offset="0.8855" stop-color="white"/>
<stop offset="1" stop-color="#C7F7FF"/>
</linearGradient>
<linearGradient id="paint28_linear_6_3043" x1="10.9413" y1="207.974" x2="207.986" y2="207.974" gradientUnits="userSpaceOnUse">
<stop stop-color="#FA2609" stop-opacity="0.1"/>
<stop offset="1" stop-color="#FA2609" stop-opacity="0.4"/>
</linearGradient>
<linearGradient id="paint29_linear_6_3043" x1="209.852" y1="207.98" x2="9.06724" y2="207.98" gradientUnits="userSpaceOnUse">
<stop stop-color="#C7F7FF"/>
<stop offset="0.2374" stop-color="white"/>
<stop offset="0.4246" stop-color="#C7F7FF"/>
<stop offset="0.6006" stop-color="white"/>
<stop offset="0.7374" stop-color="#C7F7FF"/>
<stop offset="0.8855" stop-color="white"/>
<stop offset="1" stop-color="#C7F7FF"/>
</linearGradient>
</defs>
</svg>
