<svg width="116" height="116" viewBox="0 0 116 116" fill="none" xmlns="http://www.w3.org/2000/svg">
<circle cx="85.1892" cy="11.3437" r="4" transform="rotate(30 85.1892 11.3437)" fill="white"/>
<circle cx="96.3376" cy="19.9698" r="4" transform="rotate(45 96.3376 19.9698)" fill="white"/>
<circle cx="104.875" cy="31.1882" r="4" transform="rotate(60 104.875 31.1882)" fill="white"/>
<circle cx="110.216" cy="44.2335" r="4" transform="rotate(75 110.216 44.2335)" fill="white"/>
<circle cx="112" cy="58.2175" r="4" transform="rotate(90 112 58.2175)" fill="white"/>
<circle cx="110.104" cy="72.1859" r="4" transform="rotate(105 110.104 72.1859)" fill="white"/>
<circle cx="104.657" cy="85.1885" r="4" transform="rotate(120 104.657 85.1885)" fill="white"/>
<circle cx="96.0306" cy="96.3379" r="4" transform="rotate(135 96.0306 96.3379)" fill="white"/>
<circle cx="84.8119" cy="104.875" r="4" transform="rotate(150 84.8119 104.875)" fill="white"/>
<circle cx="71.7671" cy="110.216" r="4" transform="rotate(165 71.7671 110.216)" fill="white"/>
<circle cx="57.7826" cy="112" r="4" transform="rotate(180 57.7826 112)" fill="white"/>
<circle cx="43.8137" cy="110.104" r="4" transform="rotate(-165 43.8137 110.104)" fill="white"/>
<circle cx="30.8117" cy="104.657" r="4" transform="rotate(-150 30.8117 104.657)" fill="white"/>
<circle cx="19.6624" cy="96.0302" r="4" transform="rotate(-135 19.6624 96.0302)" fill="white"/>
<circle cx="11.1262" cy="84.8118" r="4" transform="rotate(-120 11.1262 84.8118)" fill="white"/>
<circle cx="5.78393" cy="71.7661" r="4" transform="rotate(-105 5.78393 71.7661)" fill="white"/>
<circle cx="4" cy="57.7825" r="4" transform="rotate(-90 4 57.7825)" fill="white"/>
<circle cx="5.89635" cy="43.8142" r="4" transform="rotate(-75 5.89635 43.8142)" fill="white"/>
<circle cx="11.3437" cy="30.8118" r="4" transform="rotate(-60 11.3437 30.8118)" fill="white"/>
<circle cx="19.9695" cy="19.6624" r="4" transform="rotate(-45 19.9695 19.6624)" fill="white"/>
<circle cx="31.1883" cy="11.1257" r="4" transform="rotate(-30 31.1883 11.1257)" fill="white"/>
<circle cx="44.2331" cy="5.7835" r="4" transform="rotate(-15 44.2331 5.7835)" fill="white"/>
<circle cx="58.2175" cy="4" r="4" fill="white"/>
<circle cx="72.1864" cy="5.89629" r="4" transform="rotate(15 72.1864 5.89629)" fill="white"/>
</svg>
