<svg width="24" height="19" viewBox="0 0 24 19" fill="none" xmlns="http://www.w3.org/2000/svg">
<path d="M20.6918 13.5509H19.9943V12.6208H21.6219C21.7505 12.6208 21.8545 12.5168 21.8545 12.3883V9.598C21.8545 9.46946 21.7505 9.36547 21.6219 9.36547H16.7389V7.27323C16.7389 6.96258 16.6181 6.67057 16.3983 6.45075C16.1785 6.23138 15.887 6.11061 15.5768 6.11061H15.5759L11.7497 6.11289C11.742 6.11289 11.7356 6.11759 11.7281 6.11833C10.9367 5.25344 7.02802 0.978494 6.77499 0.671749C6.26497 0.0527256 5.77495 0.056818 5.1037 0.0659329C4.91978 0.0682116 4.71497 0.0704902 4.48245 0.0609568C4.16408 0.0523069 3.99922 0.182194 3.90612 0.295294C3.70117 0.544605 3.7128 0.914829 3.73995 1.12303C3.49785 1.86776 1.84391 7.20012 1.45964 8.61075L1.46462 8.6121C1.43174 8.71055 1.41081 8.81388 1.40649 8.92224C0.829318 9.07454 0 9.54954 0 10.5686C0 11.5627 0 13.2267 2.17219 13.7113C2.4415 13.7712 2.70262 13.8008 2.95333 13.8008C3.52599 13.8008 4.04419 13.6459 4.47924 13.3403C5.10008 12.9043 5.50332 12.1822 5.61507 11.307C5.62372 11.2398 5.60237 11.1717 5.55647 11.1218C5.51104 11.0714 5.44519 11.0441 5.37799 11.045C5.29963 11.045 3.66555 11.0715 3.25268 9.82857C3.41321 9.69398 3.53426 9.51736 3.60058 9.31385L3.60542 9.31609L5.80532 4.52652L9.36353 10.16C9.32433 10.2763 9.29815 10.3987 9.29815 10.5282V12.3884C9.29815 12.5169 9.40213 12.6209 9.53067 12.6209H11.1583V13.551H10.9258C9.5157 13.551 8.36805 14.6986 8.36805 16.1087C8.36805 17.5189 9.5157 18.6665 10.9258 18.6665H20.6918C22.1019 18.6665 23.2496 17.5189 23.2496 16.1087C23.2496 14.6986 22.102 13.5509 20.6918 13.5509ZM5.11049 11.5036C4.97786 12.1308 4.66451 12.6417 4.21221 12.9596C3.69629 13.3216 3.0269 13.4251 2.27301 13.2571C0.601306 12.8842 0.465047 11.8188 0.465047 10.5686C0.465047 9.78388 1.13871 9.48573 1.4841 9.38417C1.65073 9.80043 2.05644 10.0962 2.53139 10.0962C2.64091 10.0962 2.74471 10.0756 2.84492 10.0463C3.24147 11.0942 4.35847 11.4506 5.11049 11.5036ZM3.50906 8.41194C3.31448 8.07064 2.95147 7.83728 2.53139 7.83728C2.39439 7.83728 2.26464 7.86551 2.14303 7.91039C2.66779 6.11898 3.65122 2.96122 4.03721 1.72708L5.50913 4.05748L3.50906 8.41194ZM5.59554 1.93375C5.37636 1.93375 5.19871 1.7561 5.19871 1.53692C5.19871 1.31775 5.37641 1.1401 5.59554 1.1401C5.81467 1.1401 5.99236 1.31779 5.99236 1.53692C5.99236 1.75605 5.81471 1.93375 5.59554 1.93375ZM11.8764 6.57794L15.5759 6.57566H15.5768C15.7626 6.57566 15.9379 6.6483 16.0696 6.78005C16.2013 6.91179 16.274 7.08707 16.274 7.27323V9.36547H10.4983C10.6741 8.85234 11.0856 7.81105 11.8764 6.57794ZM11.6235 12.6208H19.5293V13.5509H11.6235V12.6208ZM20.6919 18.2014H10.9259C9.77189 18.2014 8.83315 17.2626 8.83315 16.1087C8.83315 14.9547 9.77189 14.0159 10.9259 14.0159H20.6918C21.8458 14.0159 22.7846 14.9547 22.7846 16.1087C22.7846 17.2626 21.8459 18.2014 20.6919 18.2014ZM12.321 16.1087C12.321 16.8792 11.6964 17.5038 10.9259 17.5038C10.1554 17.5038 9.53076 16.8792 9.53076 16.1087C9.53076 15.3381 10.1554 14.7135 10.9259 14.7135C11.6964 14.7135 12.321 15.3381 12.321 16.1087ZM17.204 16.1087C17.204 16.8792 16.5794 17.5038 15.8089 17.5038C15.0384 17.5038 14.4138 16.8792 14.4138 16.1087C14.4138 15.3381 15.0384 14.7135 15.8089 14.7135C16.5794 14.7135 17.204 15.3381 17.204 16.1087ZM22.087 16.1087C22.087 16.8792 21.4624 17.5038 20.6919 17.5038C19.9214 17.5038 19.2967 16.8792 19.2967 16.1087C19.2967 15.3381 19.9214 14.7135 20.6919 14.7135C21.4624 14.7135 22.087 15.3381 22.087 16.1087Z" fill="#FA2609"/>
</svg>
