<svg width="22" height="20" viewBox="0 0 22 20" fill="none" xmlns="http://www.w3.org/2000/svg">
<path d="M0.680176 0.77002H4.18018L7.34018 14.48H20.0002L21.3202 4.72002H5.09018" stroke="#FA2609" stroke-linecap="round" stroke-linejoin="round"/>
<path d="M9.61029 16.6201H9.60029C8.88232 16.6201 8.30029 17.2021 8.30029 17.9201V17.9301C8.30029 18.6481 8.88232 19.2301 9.60029 19.2301H9.61029C10.3283 19.2301 10.9103 18.6481 10.9103 17.9301V17.9201C10.9103 17.2021 10.3283 16.6201 9.61029 16.6201Z" stroke="#FA2609" stroke-linecap="round" stroke-linejoin="round"/>
<path d="M9.61029 16.6201H9.60029C8.88232 16.6201 8.30029 17.2021 8.30029 17.9201V17.9301C8.30029 18.6481 8.88232 19.2301 9.60029 19.2301H9.61029C10.3283 19.2301 10.9103 18.6481 10.9103 17.9301V17.9201C10.9103 17.2021 10.3283 16.6201 9.61029 16.6201Z" stroke="#FA2609" stroke-linecap="round" stroke-linejoin="round"/>
<path d="M16.4702 16.6201H16.4602C15.7422 16.6201 15.1602 17.2021 15.1602 17.9201V17.9301C15.1602 18.6481 15.7422 19.2301 16.4602 19.2301H16.4702C17.1881 19.2301 17.7702 18.6481 17.7702 17.9301V17.9201C17.7702 17.2021 17.1881 16.6201 16.4702 16.6201Z" stroke="#FA2609" stroke-linecap="round" stroke-linejoin="round"/>
</svg>
