<svg width="24" height="24" viewBox="0 0 24 24" fill="none" xmlns="http://www.w3.org/2000/svg">
<path d="M4.50223 17.8354C5.38169 17.8354 6.2054 17.5235 6.87943 16.9837C7.76129 17.6925 8.83478 18.0976 9.98062 18.0976C11.3243 18.0976 12.5832 17.5684 13.5288 16.6116C15.4518 14.6557 15.4258 11.4983 13.4699 9.57534C12.5349 8.65352 11.2941 8.14555 9.98062 8.14555C9.4061 8.14555 8.85317 8.26065 8.32941 8.44549V3.82818C8.32921 1.71735 6.61165 0 4.50223 0C2.39081 0 0.672852 1.71735 0.672852 3.82818V14.0086C0.672852 16.1182 2.39081 17.8354 4.50223 17.8354ZM1.88243 14.0074V9.35173H6.76772C6.65662 9.44745 6.53692 9.52718 6.4328 9.63109C4.68168 11.414 4.56657 14.1855 6.03594 16.1192C5.59371 16.4428 5.06496 16.6246 4.50223 16.6246C3.05605 16.626 1.88243 15.452 1.88243 14.0074ZM12.6664 15.7615C11.3978 17.0489 9.27401 17.1883 7.81424 16.1832L13.0089 10.9032C14.0814 12.3668 13.9775 14.4303 12.6664 15.7615ZM12.149 10.0545L6.94937 15.3385C5.87867 13.8763 5.98258 11.8133 7.29368 10.4804C8.00768 9.75459 8.96148 9.35413 9.98022 9.35413C10.769 9.35413 11.5189 9.60452 12.149 10.0545ZM4.50223 1.20838C5.94561 1.20838 7.11982 2.38239 7.11982 3.82698V8.14235H1.88243V3.82698C1.88243 2.38239 3.05605 1.20838 4.50223 1.20838ZM23.3276 11.2457C23.3276 11.5795 23.0582 11.8504 22.7229 11.8504H18.4895L15.0593 19.6922C14.9626 19.913 14.7452 20.0559 14.5044 20.0559H1.55651C1.22339 20.0559 0.951817 19.7843 0.951817 19.4512C0.951817 19.1169 1.22339 18.8465 1.55651 18.8465H14.1097L17.5399 11.0037C17.6366 10.7839 17.854 10.6412 18.095 10.6412H22.7227C23.0582 10.641 23.3276 10.9122 23.3276 11.2457ZM6.10868 22.2697C6.10868 23.2263 5.33313 24 4.37953 24C3.42274 24 2.64739 23.2251 2.64739 22.2697C2.64739 21.3141 3.42274 20.5381 4.37953 20.5381C5.33313 20.5405 6.10868 21.3153 6.10868 22.2697ZM12.2625 22.2697C12.2625 23.2263 11.4877 24 10.531 24C9.57656 24 8.79881 23.2251 8.79881 22.2697C8.79881 21.3141 9.57656 20.5381 10.531 20.5381C11.4875 20.5405 12.2625 21.3153 12.2625 22.2697Z" fill="#FA2609"/>
</svg>
