<svg width="24" height="24" viewBox="0 0 24 24" fill="none" xmlns="http://www.w3.org/2000/svg">
<path d="M18.4499 3.71338H5.55988C4.3559 3.71338 3.37988 4.6894 3.37988 5.89338V18.7834C3.37988 19.9874 4.3559 20.9634 5.55988 20.9634H18.4499C19.6539 20.9634 20.6299 19.9874 20.6299 18.7834V5.89338C20.6299 4.6894 19.6539 3.71338 18.4499 3.71338Z" stroke="#FA2609" stroke-miterlimit="10"/>
<path d="M14.87 7.54346H9.12996C8.06957 7.54346 7.20996 8.40307 7.20996 9.46346V15.2035C7.20996 16.2638 8.06957 17.1235 9.12996 17.1235H14.87C15.9303 17.1235 16.79 16.2638 16.79 15.2035V9.46346C16.79 8.40307 15.9303 7.54346 14.87 7.54346Z" stroke="#FA2609" stroke-miterlimit="10"/>
<path d="M7.20996 0.833496V2.7535" stroke="#FA2609" stroke-miterlimit="10"/>
<path d="M12 0.833496V2.7535" stroke="#FA2609" stroke-miterlimit="10"/>
<path d="M16.79 0.833496V2.7535" stroke="#FA2609" stroke-miterlimit="10"/>
<path d="M7.20996 21.9136V23.8336" stroke="#FA2609" stroke-miterlimit="10"/>
<path d="M12 21.9136V23.8336" stroke="#FA2609" stroke-miterlimit="10"/>
<path d="M16.79 21.9136V23.8336" stroke="#FA2609" stroke-miterlimit="10"/>
<path d="M0.5 17.1235H2.42" stroke="#FA2609" stroke-miterlimit="10"/>
<path d="M0.5 12.3335H2.42" stroke="#FA2609" stroke-miterlimit="10"/>
<path d="M0.5 7.54346H2.42" stroke="#FA2609" stroke-miterlimit="10"/>
<path d="M21.5801 17.1235H23.5001" stroke="#FA2609" stroke-miterlimit="10"/>
<path d="M21.5801 12.3335H23.5001" stroke="#FA2609" stroke-miterlimit="10"/>
<path d="M21.5801 7.54346H23.5001" stroke="#FA2609" stroke-miterlimit="10"/>
</svg>
