<svg width="24" height="19" viewBox="0 0 24 19" fill="none" xmlns="http://www.w3.org/2000/svg">
<path d="M4.63527 15.557L6.05727 8.8339C6.11214 8.57454 5.94634 8.31983 5.68698 8.26496C5.42762 8.21009 5.1729 8.37589 5.11804 8.63525L3.69604 15.3584C3.64117 15.6177 3.80697 15.8724 4.06633 15.9273C4.32569 15.9822 4.5804 15.8164 4.63527 15.557ZM18.0196 8.83547L19.4675 15.5636C19.5233 15.8228 19.7786 15.9877 20.0377 15.9319C20.2969 15.8761 20.4618 15.6208 20.406 15.3617L18.9581 8.63351C18.9023 8.37434 18.647 8.20946 18.3878 8.26524C18.1287 8.32102 17.9638 8.57633 18.0196 8.83547Z" fill="#FA2609"/>
<path d="M22.6747 6.06786L12.5602 1.8778C12.3116 1.7747 11.8437 1.77369 11.5944 1.87573L1.35523 6.06784L11.5946 10.2598C11.8436 10.3619 12.3114 10.3609 12.5604 10.2578L22.6747 6.06784V6.06786ZM12.9278 11.1448C12.4448 11.3447 11.714 11.3463 11.2307 11.1481L0.572792 6.78486C-0.190966 6.47176 -0.190966 5.66345 0.573003 5.35077L11.2307 0.987313C11.7145 0.789313 12.4452 0.79086 12.9278 0.990969L23.4474 5.34884C24.2083 5.66389 24.2083 6.47181 23.4475 6.78683L12.9278 11.1448ZM19.6936 15.0487C17.3967 16.3979 14.7794 17.1196 12.0555 17.1196C9.32829 17.1196 6.708 16.3961 4.40916 15.0438C4.18067 14.9094 3.88648 14.9857 3.75207 15.2142C3.61765 15.4427 3.69392 15.7369 3.92241 15.8713C6.36778 17.3098 9.15593 18.0796 12.0555 18.0796C14.9516 18.0796 17.7365 17.3117 20.1798 15.8765C20.4084 15.7422 20.4848 15.4481 20.3506 15.2195C20.2163 14.9909 19.9221 14.9144 19.6936 15.0487Z" fill="#FA2609"/>
<path d="M23.0605 5.97756V12.9205C23.0605 13.1856 23.2754 13.4005 23.5405 13.4005C23.8056 13.4005 24.0205 13.1856 24.0205 12.9205V5.97756C24.0205 5.71246 23.8056 5.49756 23.5405 5.49756C23.2754 5.49756 23.0605 5.71246 23.0605 5.97756Z" fill="#FA2609"/>
</svg>
