<svg width="24" height="24" viewBox="0 0 24 24" fill="none" xmlns="http://www.w3.org/2000/svg">
<path d="M22.8 12H21.624C22.08 11.112 22.32 10.128 22.32 9.11996C22.32 5.68796 19.536 2.87996 16.104 2.87996C14.664 2.87996 13.248 3.38396 12.144 4.31996H7.43996V3.83996C7.43996 2.25596 6.14396 0.959961 4.55996 0.959961C2.97596 0.959961 1.67996 2.25596 1.67996 3.83996V12H1.19996C1.05596 12 0.959961 12.096 0.959961 12.24V13.68C0.959961 13.824 1.05596 13.92 1.19996 13.92H1.46396L2.63996 22.824C2.66396 22.944 2.75996 23.04 2.87996 23.04H21.12C21.24 23.04 21.336 22.944 21.36 22.824L22.536 13.92H22.8C22.944 13.92 23.04 13.824 23.04 13.68V12.24C23.04 12.096 22.944 12 22.8 12ZM16.104 3.35996C19.272 3.35996 21.84 5.95196 21.84 9.11996C21.84 10.128 21.576 11.136 21.072 12H14.16V10.104C14.52 10.8 15.24 11.28 16.08 11.28C17.28 11.28 18.24 10.32 18.24 9.11996C18.24 7.91996 17.28 6.95996 16.08 6.95996C15.24 6.95996 14.52 7.43996 14.16 8.13596V7.63196C14.16 7.41596 14.232 7.22396 14.376 7.07996L14.976 6.47996C15.216 6.23996 15.336 5.92796 15.336 5.59196C15.336 4.89596 14.76 4.34396 14.088 4.34396H12.96C13.896 3.69596 14.976 3.35996 16.104 3.35996ZM14.4 9.11996C14.4 8.18396 15.144 7.43996 16.08 7.43996C17.016 7.43996 17.76 8.18396 17.76 9.11996C17.76 10.056 17.016 10.8 16.08 10.8C15.144 10.8 14.4 10.056 14.4 9.11996ZM14.112 4.79996C14.544 4.79996 14.88 5.15996 14.88 5.56796C14.88 5.78396 14.808 5.97596 14.664 6.11996L14.064 6.71996C13.824 6.95996 13.704 7.27196 13.704 7.60796V12H7.43996V4.79996H14.112ZM2.15996 3.83996C2.15996 2.51996 3.23996 1.43996 4.55996 1.43996C5.87996 1.43996 6.95996 2.51996 6.95996 3.83996V12H2.15996V3.83996ZM19.704 13.92L19.968 15.6H17.808L17.544 13.92H19.704ZM21.504 18H20.832L20.52 16.08H21.744L21.504 18ZM15.072 18H12.912L12.6 16.08H14.76L15.072 18ZM15.264 16.08H17.424L17.736 18H15.576L15.264 16.08ZM10.368 18.48H12.528L12.84 20.4H10.68L10.368 18.48ZM10.176 20.4H8.01596L7.70396 18.48H9.86396L10.176 20.4ZM13.008 18.48H15.168L15.48 20.4H13.32L13.008 18.48ZM12.432 18H10.272L9.95996 16.08H12.12L12.432 18ZM9.79196 18H7.63196L7.31996 16.08H9.47996L9.79196 18ZM7.15196 18H4.99196L4.67996 16.08H6.83996L7.15196 18ZM4.51196 18H2.47196L2.20796 16.08H4.17596L4.51196 18ZM2.54396 18.48H4.58396L4.89596 20.4H2.80796L2.54396 18.48ZM5.08796 18.48H7.24796L7.55996 20.4H5.39996L5.08796 18.48ZM7.60796 20.88L7.87196 22.56H5.71196L5.44796 20.88H7.60796ZM8.08796 20.88H10.248L10.512 22.56H8.35196L8.08796 20.88ZM10.728 20.88H12.888L13.152 22.56H10.992L10.728 20.88ZM13.368 20.88H15.528L15.792 22.56H13.632L13.368 20.88ZM16.008 20.88H18.168L18.432 22.56H16.272L16.008 20.88ZM15.936 20.4L15.624 18.48H17.784L18.096 20.4H15.936ZM18.288 18.48H20.448L20.76 20.4H18.6L18.288 18.48ZM21.216 20.304L20.928 18.48H21.456L21.216 20.304ZM20.352 18H18.192L17.88 16.08H20.04L20.352 18ZM17.064 13.92L17.328 15.6H15.168L14.904 13.92H17.064ZM14.424 13.92L14.688 15.6H12.528L12.264 13.92H14.424ZM11.784 13.92L12.048 15.6H9.88796L9.62396 13.92H11.784ZM9.14396 13.92L9.40796 15.6H7.24796L6.98396 13.92H9.14396ZM6.50396 13.92L6.76796 15.6H4.60796L4.34396 13.92H6.50396ZM3.86396 13.92L4.12796 15.6H2.18396L1.96796 13.92H3.86396ZM2.87996 20.88H4.99196L5.25596 22.56H3.09596L2.87996 20.88ZM18.936 22.56L18.672 20.88H20.832L21 21.984L20.904 22.56H18.936ZM21.816 15.6H20.448L20.184 13.92H22.032L21.816 15.6ZM22.56 13.44H22.32H1.67996H1.43996V12.48H1.91996H7.19996H22.56V13.44Z" fill="#FA2609"/>
<path d="M4.5599 3.35986C4.1999 3.35986 2.3999 3.38386 2.3999 4.07986C2.3999 4.77586 4.1999 4.79986 4.5599 4.79986C4.9199 4.79986 6.7199 4.77586 6.7199 4.07986C6.7199 3.38386 4.9199 3.35986 4.5599 3.35986ZM4.5599 4.31986C3.7199 4.31986 3.1439 4.17586 2.9519 4.07986C3.1679 3.98386 3.7199 3.83986 4.5599 3.83986C5.3999 3.83986 5.9759 3.98386 6.1679 4.07986C5.9759 4.17586 5.3999 4.31986 4.5599 4.31986Z" fill="#FA2609"/>
<path d="M4.5599 6.23975C4.1999 6.23975 2.3999 6.26375 2.3999 6.95975C2.3999 7.65575 4.1999 7.67975 4.5599 7.67975C4.9199 7.67975 6.7199 7.65575 6.7199 6.95975C6.7199 6.26375 4.9199 6.23975 4.5599 6.23975ZM4.5599 7.19975C3.7199 7.19975 3.1439 7.05575 2.9519 6.95975C3.1679 6.86375 3.7199 6.71975 4.5599 6.71975C5.3999 6.71975 5.9759 6.86375 6.1679 6.95975C5.9759 7.05575 5.3999 7.19975 4.5599 7.19975Z" fill="#FA2609"/>
<path d="M4.5599 9.12012C4.1999 9.12012 2.3999 9.14412 2.3999 9.84012C2.3999 10.5361 4.1999 10.5601 4.5599 10.5601C4.9199 10.5601 6.7199 10.5361 6.7199 9.84012C6.7199 9.14412 4.9199 9.12012 4.5599 9.12012ZM4.5599 10.0801C3.7199 10.0801 3.1439 9.93612 2.9519 9.84012C3.1679 9.74412 3.7199 9.60012 4.5599 9.60012C5.3999 9.60012 5.9759 9.74412 6.1679 9.84012C5.9759 9.93612 5.3999 10.0801 4.5599 10.0801Z" fill="#FA2609"/>
</svg>
