<svg width="23" height="23" viewBox="0 0 23 23" fill="none" xmlns="http://www.w3.org/2000/svg">
<path d="M8.45557 0.47998C7.47957 0.47998 6.67994 1.27961 6.67994 2.25561V7.39217C6.67994 8.36817 7.47957 9.16779 8.45557 9.16779H13.5921C14.5681 9.16779 15.3678 8.36817 15.3678 7.39217V2.25561C15.3678 2.24497 15.3675 2.23434 15.3668 2.22373C15.303 1.26638 14.5203 0.47998 13.5443 0.47998H8.45557ZM8.45557 1.43998H13.5443C14.0076 1.43998 14.3746 1.80409 14.4078 2.28561V7.39217C14.4078 7.85617 14.0561 8.20779 13.5921 8.20779H8.45557C7.99157 8.20779 7.63994 7.85617 7.63994 7.39217V2.25561C7.63994 1.79161 7.99157 1.43998 8.45557 1.43998ZM10.5199 2.87998V4.31998H9.07994V5.27998H10.5199V6.71998H11.4799V5.27998H12.9199V4.31998H11.4799V2.87998H10.5199ZM2.21557 4.31998C1.23957 4.31998 0.439941 5.11961 0.439941 6.09561V22.08H22.0399V6.09561C22.0399 5.11961 21.2403 4.31998 20.2643 4.31998H16.2799V5.27998H20.2643C20.7283 5.27998 21.0799 5.63161 21.0799 6.09561V21.12H13.3999V15.84H12.9199H11.1921H8.59994V21.12H1.39994V6.09561C1.39994 5.63161 1.75157 5.27998 2.21557 5.27998H5.71994V4.31998H2.21557ZM2.34025 10.5403V14.4197H6.69963V10.5403H6.19994H4.23213H2.34025ZM8.58025 10.5403V14.4197H13.4196V10.5403H12.9199H10.9521H8.58025ZM15.3003 10.5403V14.4197H19.6596V10.5403H19.1599H17.6721H15.3003ZM3.33963 11.5397H4.23213H5.70025V13.4203H3.33963V11.5397ZM9.57963 11.5397H10.9521H12.4203V13.4203H9.57963V11.5397ZM16.2996 11.5397H17.6721H18.6603V13.4203H16.2996V11.5397ZM2.34025 15.8203V19.6997H6.69963V15.8203H6.19994H4.23213H2.34025ZM15.3003 15.8203V19.6997H19.6596V15.8203H19.1599H17.6721H15.3003ZM9.55994 16.8H11.1921H12.4399V21.12H9.55994V16.8ZM3.33963 16.8197H4.23213H5.70025V18.7003H3.33963V16.8197ZM16.2996 16.8197H17.6721H18.6603V18.7003H16.2996V16.8197Z" fill="#FA2609"/>
</svg>
