<svg width="24" height="24" viewBox="0 0 24 24" fill="none" xmlns="http://www.w3.org/2000/svg">
<path d="M12.8433 1.85498C12.6378 1.85498 12.4712 2.02153 12.4712 2.22712V3.03356H11.5285V2.22712C11.5285 2.02157 11.3619 1.85498 11.1563 1.85498C10.9508 1.85498 10.7842 2.02153 10.7842 2.22712V4.58428C10.7842 4.78982 10.9508 4.95642 11.1563 4.95642C11.3618 4.95642 11.5285 4.78987 11.5285 4.58428V3.77779H12.4712V4.58423C12.4712 4.78978 12.6377 4.95637 12.8433 4.95637C13.0489 4.95637 13.2154 4.78982 13.2154 4.58423V2.22712C13.2154 2.02157 13.0489 1.85498 12.8433 1.85498Z" fill="#FA2609"/>
<path d="M23.4275 21.4523H21.5796V7.70454C21.9799 7.62743 22.2835 7.27493 22.2835 6.85236V6.24837C22.2835 5.76964 21.894 5.38011 21.4153 5.38011H20.7899L18.832 1.55042C18.5839 1.06517 17.9626 0.685059 17.4177 0.685059H6.58233C6.03736 0.685059 5.41612 1.06517 5.16797 1.55042L3.21023 5.3802H2.58478C2.10605 5.3802 1.71652 5.76973 1.71652 6.24846V6.85245C1.71652 7.27498 2.02003 7.62748 2.42039 7.70464V21.4524H0.572531C0.256828 21.4523 0 21.7092 0 22.0249V22.7422C0 23.0578 0.256828 23.3147 0.572531 23.3147H23.4275C23.7432 23.3147 24 23.0578 24 22.7422V22.0249C24 21.7092 23.7431 21.4523 23.4275 21.4523ZM4.93383 3.64348H9.72234V2.89925H5.31427L5.83064 1.88923C5.95369 1.64848 6.31195 1.42929 6.58233 1.42929H17.4177C17.688 1.42929 18.0463 1.64848 18.1694 1.88923L18.6857 2.89925H14.2777V3.64348H19.0662L19.9539 5.38015H4.04606L4.93383 3.64348ZM2.46075 6.24842C2.46075 6.1812 2.51756 6.12439 2.58478 6.12439H21.4152C21.4824 6.12439 21.5392 6.1812 21.5392 6.24842V6.8524C21.5392 6.91962 21.4824 6.97643 21.4152 6.97643H2.58478C2.51756 6.97643 2.46075 6.91962 2.46075 6.8524V6.24842ZM14.6542 16.3033H9.34575C9.14025 16.3033 8.97361 16.4698 8.97361 16.6754V21.4523H3.16458V7.72062H20.8353V21.4523H15.0262V16.6754C15.0263 16.4699 14.8597 16.3033 14.6542 16.3033ZM14.2821 17.0475V21.4523H12.3721V17.0475H14.2821ZM11.6278 17.0475V21.4523H9.71784V17.0475H11.6278ZM7.39655 22.5705H0.744234V22.1965H7.39655V22.5705ZM15.8593 22.5705H8.14078V22.1965H15.8593V22.5705ZM23.2558 22.5705H16.6035V22.1965H23.2558V22.5705Z" fill="#FA2609"/>
<path d="M16.3673 13.7533H19.5852C19.7907 13.7533 19.9573 13.5867 19.9573 13.3811V9.74421C19.9573 9.53866 19.7908 9.37207 19.5852 9.37207H16.3673C16.1617 9.37207 15.9951 9.53862 15.9951 9.74421V13.3811C15.9952 13.5867 16.1617 13.7533 16.3673 13.7533ZM16.7394 10.1164H19.2131V11.1906H16.7394V10.1164ZM16.7394 11.9349H19.2131V13.0091H16.7394V11.9349Z" fill="#FA2609"/>
<path d="M16.3673 18.866H19.5852C19.7907 18.866 19.9573 18.6994 19.9573 18.4939V14.857C19.9573 14.6515 19.7908 14.4849 19.5852 14.4849H16.3673C16.1617 14.4849 15.9951 14.6514 15.9951 14.857V18.4939C15.9952 18.6995 16.1617 18.866 16.3673 18.866ZM16.7394 15.2291H19.2131V16.3033H16.7394V15.2291ZM16.7394 17.0476H19.2131V18.1218H16.7394V17.0476Z" fill="#FA2609"/>
<path d="M13.6092 9.37207H10.3912C10.1857 9.37207 10.019 9.53862 10.019 9.74421V13.3811C10.019 13.5867 10.1856 13.7533 10.3912 13.7533H13.6092C13.8147 13.7533 13.9813 13.5867 13.9813 13.3811V9.74421C13.9813 9.53866 13.8147 9.37207 13.6092 9.37207ZM13.2371 13.009H10.7633V11.9348H13.2371V13.009ZM13.2371 11.1906H10.7633V10.1164H13.2371V11.1906Z" fill="#FA2609"/>
<path d="M7.63264 14.4849H4.41462C4.20912 14.4849 4.04248 14.6514 4.04248 14.857V18.4939C4.04248 18.6994 4.20907 18.8661 4.41462 18.8661H7.63264C7.83814 18.8661 8.00478 18.6995 8.00478 18.4939V14.857C8.00473 14.6515 7.83814 14.4849 7.63264 14.4849ZM7.2605 18.1218H4.78676V17.0476H7.2605V18.1218ZM7.2605 16.3034H4.78676V15.2291H7.2605V16.3034Z" fill="#FA2609"/>
<path d="M7.63264 9.37207H4.41462C4.20912 9.37207 4.04248 9.53862 4.04248 9.74421V13.3811C4.04248 13.5867 4.20907 13.7533 4.41462 13.7533H7.63264C7.83814 13.7533 8.00478 13.5867 8.00478 13.3811V9.74421C8.00473 9.53866 7.83814 9.37207 7.63264 9.37207ZM7.2605 13.009H4.78676V11.9348H7.2605V13.009ZM7.2605 11.1906H4.78676V10.1164H7.2605V11.1906Z" fill="#FA2609"/>
</svg>
