<svg width="24" height="24" viewBox="0 0 24 24" fill="none" xmlns="http://www.w3.org/2000/svg">
<mask id="path-1-inside-1_577_22667" fill="white">
<path d="M21.4755 3.71825C19.4923 1.40699 16.6082 0.081543 13.5622 0.081543C10.5129 0.081543 7.62847 1.40735 5.65027 3.71695C4.01965 5.60731 3.12145 8.02405 3.12145 10.5224C3.12145 10.9755 3.15188 11.4257 3.20996 11.8707H4.594C4.55212 11.5927 4.51867 11.313 4.50275 11.0306H7.70988C7.71745 11.3155 7.73804 11.593 7.75812 11.8707H8.7818C8.75941 11.5932 8.73847 11.3147 8.72992 11.0306H13.0514V13.4275C13.2803 13.5283 13.4919 13.6694 13.675 13.8503L14.0703 14.2415V11.0305H18.3921C18.3491 12.4614 18.1261 13.8166 17.7676 15.0151C16.6905 14.7397 15.5483 14.5813 14.3624 14.5305L15.502 15.6581C16.1655 15.7324 16.8149 15.8408 17.4327 15.9927C17.2801 16.3822 17.1098 16.7448 16.9283 17.0852C17.2163 17.4364 17.3826 17.8793 17.3978 18.3348C17.7973 17.7353 18.1495 17.0436 18.4421 16.2727C19.0036 16.4568 19.5232 16.6737 19.9986 16.9202C19.2402 17.6841 18.36 18.3002 17.4013 18.7482V20.2294C18.9563 19.6144 20.358 18.6271 21.4745 17.3281C23.1031 15.4401 24 13.0233 24 10.5223C24 8.02166 23.1031 5.60495 21.4755 3.71825ZM7.70988 10.0115H4.5029C4.60804 8.15268 5.28286 6.37288 6.43835 4.91005C7.01957 5.22939 7.6631 5.50327 8.35796 5.73299C7.98035 7.01566 7.7511 8.46299 7.70988 10.0115ZM8.67969 4.77052C8.12012 4.58586 7.60157 4.36899 7.12631 4.12296C8.00043 3.24029 9.03729 2.55378 10.1716 2.09711C9.58365 2.81743 9.07741 3.72237 8.67969 4.77052ZM13.0514 10.0115H8.72992C8.7729 8.58111 8.9958 7.22625 9.35412 6.02809C10.5229 6.32484 11.7622 6.49182 13.0514 6.52672V10.0115H13.0514ZM13.0514 5.48833C11.8904 5.45519 10.7473 5.30927 9.6889 5.05064C10.3757 3.29695 11.3756 2.00405 12.5133 1.50209C12.6917 1.48143 12.871 1.46495 13.0514 1.45484L13.0514 5.48833ZM22.6185 10.0115H19.4122C19.371 8.46331 19.1418 7.01613 18.7643 5.73362C19.4613 5.50303 20.1056 5.22903 20.6862 4.91021C21.8395 6.37021 22.5136 8.15037 22.6185 10.0115ZM14.0704 1.45468C14.2506 1.46472 14.4297 1.48123 14.608 1.5019C15.7462 2.00366 16.7464 3.29699 17.4334 5.05131C16.3753 5.30974 15.2319 5.45554 14.0704 5.48844V1.45468ZM14.0704 10.0115V6.52676C15.3597 6.49205 16.5995 6.32527 17.7682 6.02884C18.1264 7.22684 18.3492 8.58143 18.3922 10.0115H14.0704ZM16.9505 2.09727C18.0845 2.55397 19.1219 3.24056 19.9976 4.12343C19.5227 4.3688 19.0036 4.58562 18.4426 4.77096C18.0448 3.72264 17.5385 2.81766 16.9505 2.09727ZM20.6871 16.1338C20.1056 15.8133 19.4607 15.5392 18.7638 15.3102C19.1416 14.0273 19.3709 12.5795 19.4122 11.0305H22.6187C22.5142 12.8921 21.8406 14.6728 20.6871 16.1338ZM16.3821 18.9812V18.4029C16.3821 18.1209 16.2694 17.8507 16.0689 17.6524L12.9587 14.5751C12.761 14.3795 12.4942 14.2699 12.2162 14.2699H10.6469V13.6813C10.6469 13.244 10.2924 12.8895 9.8551 12.8895H0.791765C0.354471 12.8895 0 13.244 0 13.6813V18.9812H16.3821V18.9812ZM11.5786 15.3071C11.5786 15.2385 11.6341 15.1831 11.7027 15.1831H12.2754C12.3071 15.1831 12.3387 15.1963 12.3625 15.2174L14.7985 17.5426C14.8804 17.6192 14.8249 17.7564 14.7141 17.7564H11.7027C11.634 17.7564 11.5786 17.701 11.5786 17.6323V15.3071ZM16.3821 19.4187V21.1716C16.3821 21.6089 16.0276 21.9634 15.5904 21.9634H14.7431C14.5901 20.913 13.6848 20.1053 12.5921 20.1053C11.5021 20.1053 10.5968 20.913 10.4437 21.9634H6.14957C5.99651 20.913 5.09118 20.1053 4.00118 20.1053C2.91118 20.1053 2.00588 20.913 1.85278 21.9634H0.791765C0.354471 21.9634 0 21.6089 0 21.1716V19.4187H16.3821ZM12.5933 20.6342C11.6863 20.6342 10.9511 21.3695 10.9511 22.2765C10.9511 23.1835 11.6863 23.9187 12.5933 23.9187C13.5002 23.9187 14.2355 23.1835 14.2355 22.2765C14.2355 21.3695 13.5002 20.6342 12.5933 20.6342ZM12.5933 23.0976C12.1398 23.0976 11.7722 22.7299 11.7722 22.2765C11.7722 21.823 12.1398 21.4554 12.5933 21.4554C13.0467 21.4554 13.4144 21.823 13.4144 22.2765C13.4144 22.73 13.0467 23.0976 12.5933 23.0976ZM4.00086 20.6342C3.09392 20.6342 2.35867 21.3695 2.35867 22.2765C2.35867 23.1835 3.09392 23.9187 4.00086 23.9187C4.90784 23.9187 5.6431 23.1835 5.6431 22.2765C5.6431 21.3695 4.90784 20.6342 4.00086 20.6342ZM4.00086 23.0976C3.54741 23.0976 3.17976 22.7299 3.17976 22.2765C3.17976 21.823 3.54741 21.4554 4.00086 21.4554C4.45435 21.4554 4.82196 21.823 4.82196 22.2765C4.82196 22.73 4.45435 23.0976 4.00086 23.0976Z"/>
</mask>
<path d="M21.4755 3.71825C19.4923 1.40699 16.6082 0.081543 13.5622 0.081543C10.5129 0.081543 7.62847 1.40735 5.65027 3.71695C4.01965 5.60731 3.12145 8.02405 3.12145 10.5224C3.12145 10.9755 3.15188 11.4257 3.20996 11.8707H4.594C4.55212 11.5927 4.51867 11.313 4.50275 11.0306H7.70988C7.71745 11.3155 7.73804 11.593 7.75812 11.8707H8.7818C8.75941 11.5932 8.73847 11.3147 8.72992 11.0306H13.0514V13.4275C13.2803 13.5283 13.4919 13.6694 13.675 13.8503L14.0703 14.2415V11.0305H18.3921C18.3491 12.4614 18.1261 13.8166 17.7676 15.0151C16.6905 14.7397 15.5483 14.5813 14.3624 14.5305L15.502 15.6581C16.1655 15.7324 16.8149 15.8408 17.4327 15.9927C17.2801 16.3822 17.1098 16.7448 16.9283 17.0852C17.2163 17.4364 17.3826 17.8793 17.3978 18.3348C17.7973 17.7353 18.1495 17.0436 18.4421 16.2727C19.0036 16.4568 19.5232 16.6737 19.9986 16.9202C19.2402 17.6841 18.36 18.3002 17.4013 18.7482V20.2294C18.9563 19.6144 20.358 18.6271 21.4745 17.3281C23.1031 15.4401 24 13.0233 24 10.5223C24 8.02166 23.1031 5.60495 21.4755 3.71825ZM7.70988 10.0115H4.5029C4.60804 8.15268 5.28286 6.37288 6.43835 4.91005C7.01957 5.22939 7.6631 5.50327 8.35796 5.73299C7.98035 7.01566 7.7511 8.46299 7.70988 10.0115ZM8.67969 4.77052C8.12012 4.58586 7.60157 4.36899 7.12631 4.12296C8.00043 3.24029 9.03729 2.55378 10.1716 2.09711C9.58365 2.81743 9.07741 3.72237 8.67969 4.77052ZM13.0514 10.0115H8.72992C8.7729 8.58111 8.9958 7.22625 9.35412 6.02809C10.5229 6.32484 11.7622 6.49182 13.0514 6.52672V10.0115H13.0514ZM13.0514 5.48833C11.8904 5.45519 10.7473 5.30927 9.6889 5.05064C10.3757 3.29695 11.3756 2.00405 12.5133 1.50209C12.6917 1.48143 12.871 1.46495 13.0514 1.45484L13.0514 5.48833ZM22.6185 10.0115H19.4122C19.371 8.46331 19.1418 7.01613 18.7643 5.73362C19.4613 5.50303 20.1056 5.22903 20.6862 4.91021C21.8395 6.37021 22.5136 8.15037 22.6185 10.0115ZM14.0704 1.45468C14.2506 1.46472 14.4297 1.48123 14.608 1.5019C15.7462 2.00366 16.7464 3.29699 17.4334 5.05131C16.3753 5.30974 15.2319 5.45554 14.0704 5.48844V1.45468ZM14.0704 10.0115V6.52676C15.3597 6.49205 16.5995 6.32527 17.7682 6.02884C18.1264 7.22684 18.3492 8.58143 18.3922 10.0115H14.0704ZM16.9505 2.09727C18.0845 2.55397 19.1219 3.24056 19.9976 4.12343C19.5227 4.3688 19.0036 4.58562 18.4426 4.77096C18.0448 3.72264 17.5385 2.81766 16.9505 2.09727ZM20.6871 16.1338C20.1056 15.8133 19.4607 15.5392 18.7638 15.3102C19.1416 14.0273 19.3709 12.5795 19.4122 11.0305H22.6187C22.5142 12.8921 21.8406 14.6728 20.6871 16.1338ZM16.3821 18.9812V18.4029C16.3821 18.1209 16.2694 17.8507 16.0689 17.6524L12.9587 14.5751C12.761 14.3795 12.4942 14.2699 12.2162 14.2699H10.6469V13.6813C10.6469 13.244 10.2924 12.8895 9.8551 12.8895H0.791765C0.354471 12.8895 0 13.244 0 13.6813V18.9812H16.3821V18.9812ZM11.5786 15.3071C11.5786 15.2385 11.6341 15.1831 11.7027 15.1831H12.2754C12.3071 15.1831 12.3387 15.1963 12.3625 15.2174L14.7985 17.5426C14.8804 17.6192 14.8249 17.7564 14.7141 17.7564H11.7027C11.634 17.7564 11.5786 17.701 11.5786 17.6323V15.3071ZM16.3821 19.4187V21.1716C16.3821 21.6089 16.0276 21.9634 15.5904 21.9634H14.7431C14.5901 20.913 13.6848 20.1053 12.5921 20.1053C11.5021 20.1053 10.5968 20.913 10.4437 21.9634H6.14957C5.99651 20.913 5.09118 20.1053 4.00118 20.1053C2.91118 20.1053 2.00588 20.913 1.85278 21.9634H0.791765C0.354471 21.9634 0 21.6089 0 21.1716V19.4187H16.3821ZM12.5933 20.6342C11.6863 20.6342 10.9511 21.3695 10.9511 22.2765C10.9511 23.1835 11.6863 23.9187 12.5933 23.9187C13.5002 23.9187 14.2355 23.1835 14.2355 22.2765C14.2355 21.3695 13.5002 20.6342 12.5933 20.6342ZM12.5933 23.0976C12.1398 23.0976 11.7722 22.7299 11.7722 22.2765C11.7722 21.823 12.1398 21.4554 12.5933 21.4554C13.0467 21.4554 13.4144 21.823 13.4144 22.2765C13.4144 22.73 13.0467 23.0976 12.5933 23.0976ZM4.00086 20.6342C3.09392 20.6342 2.35867 21.3695 2.35867 22.2765C2.35867 23.1835 3.09392 23.9187 4.00086 23.9187C4.90784 23.9187 5.6431 23.1835 5.6431 22.2765C5.6431 21.3695 4.90784 20.6342 4.00086 20.6342ZM4.00086 23.0976C3.54741 23.0976 3.17976 22.7299 3.17976 22.2765C3.17976 21.823 3.54741 21.4554 4.00086 21.4554C4.45435 21.4554 4.82196 21.823 4.82196 22.2765C4.82196 22.73 4.45435 23.0976 4.00086 23.0976Z" stroke="#FA2609" stroke-width="2" mask="url(#path-1-inside-1_577_22667)"/>
</svg>
