<svg width="22" height="22" viewBox="0 0 22 22" fill="none" xmlns="http://www.w3.org/2000/svg">
<path d="M6.14448 0.938816C6.13551 1.00995 6.13179 1.08143 6.13304 1.15269L6.63296 1.14396L6.83352 0.696759L6.83357 0.696634L6.83757 0.687736C6.81098 0.675814 6.78436 0.663996 6.75771 0.652282C7.06087 0.127636 7.81963 -0.0019457 8.45246 0.363206C9.08496 0.72817 9.35204 1.44957 9.05017 1.97522C9.02652 1.95796 9.00282 1.9408 8.97907 1.92372L8.97289 1.93232L8.97281 1.93244L8.68721 2.32971L8.93078 2.76637C8.99314 2.73159 9.05337 2.69229 9.11075 2.6485C10.6502 3.86112 11.8985 5.45285 12.5169 7.21552L6.14448 0.938816ZM11.6666 6.48523C8.79263 4.09075 5.57424 2.14923 1.86719 0.865271C3.2886 0.628679 4.88751 0.90914 6.42836 1.60018L7.14663 1.92231L7.13288 1.13522C7.13135 1.04768 7.15124 0.97045 7.19013 0.903309L7.19051 0.902638C7.31385 0.688937 7.72956 0.523346 8.20257 0.796282C8.67495 1.06885 8.74016 1.51179 8.61625 1.72679L8.61587 1.72746C8.57772 1.79389 8.52045 1.8502 8.44364 1.89304L7.75642 2.27637L8.39536 2.73569C9.78409 3.73403 10.9493 5.03667 11.6666 6.48523ZM17.3971 20.7918L8.15246 14.0781L9.84271 10.7687L17.9142 8.27651L21.1776 10.0587L17.3971 20.7918ZM8.26409 7.78034L9.22056 8.09651L8.07471 8.16003L7.93046 7.98635L8.26409 7.78034ZM5.6777 4.13171C6.05413 4.32266 6.41431 4.52906 6.75699 4.75293L1.86888 13.2248C1.61 13.1992 1.40505 13.1182 1.23486 13.007C1.07288 12.9013 0.929327 12.7594 0.798988 12.5873L5.6777 4.13171ZM14.6806 5.18731L14.3219 5.74102L14.4122 5.15189L14.594 5.03929L14.6806 5.18731Z" stroke="#FA2609"/>
</svg>
