<svg width="20" height="20" viewBox="0 0 20 20" fill="none" xmlns="http://www.w3.org/2000/svg">
<path d="M10 19.3335C14.9706 19.3335 19 15.3041 19 10.3335C19 5.36293 14.9706 1.3335 10 1.3335C5.02944 1.3335 1 5.36293 1 10.3335C1 15.3041 5.02944 19.3335 10 19.3335Z" stroke="#FA2609" stroke-miterlimit="10" stroke-linecap="round"/>
<path d="M10 13.3335C11.6569 13.3335 13 11.9904 13 10.3335C13 8.67664 11.6569 7.3335 10 7.3335C8.34315 7.3335 7 8.67664 7 10.3335C7 11.9904 8.34315 13.3335 10 13.3335Z" stroke="#FA2609" stroke-miterlimit="10"/>
<path d="M8.5 7.3335L6.01562 2.31787" stroke="#FA2609" stroke-miterlimit="10" stroke-linecap="round"/>
<path d="M11.5 7.3335L13.9844 2.31787" stroke="#FA2609" stroke-miterlimit="10" stroke-linecap="round"/>
<path d="M13.354 10.3247L18.9513 10.3308" stroke="#FA2609" stroke-miterlimit="10" stroke-linecap="round"/>
<path d="M12.02 13.0112L15.4067 17.4672" stroke="#FA2609" stroke-miterlimit="10" stroke-linecap="round"/>
<path d="M6.64617 10.3247L1.04883 10.3308" stroke="#FA2609" stroke-miterlimit="10" stroke-linecap="round"/>
<path d="M7.97998 13.0112L4.59326 17.4672" stroke="#FA2609" stroke-miterlimit="10" stroke-linecap="round"/>
</svg>
