<svg width="22" height="22" viewBox="0 0 22 22" fill="none" xmlns="http://www.w3.org/2000/svg">
<path d="M21.5 6.5V3.5C21.5 3.086 21.164 2.75 20.75 2.75H19.25V1.25C19.25 0.836 18.914 0.5 18.5 0.5H15.5C15.086 0.5 14.75 0.836 14.75 1.25V2.75H13.25V1.25C13.25 0.836 12.914 0.5 12.5 0.5H9.5C9.086 0.5 8.75 0.836 8.75 1.25V2.75H7.25V1.25C7.25 0.836 6.914 0.5 6.5 0.5H3.5C3.086 0.5 2.75 0.836 2.75 1.25V2.75H1.25C0.836 2.75 0.5 3.086 0.5 3.5V6.5C0.5 6.914 0.836 7.25 1.25 7.25H2.75V8.75H1.25C0.836 8.75 0.5 9.086 0.5 9.5V12.5C0.5 12.914 0.836 13.25 1.25 13.25H2.75V14.75H1.25C0.836 14.75 0.5 15.086 0.5 15.5V18.5C0.5 18.914 0.836 19.25 1.25 19.25H2.75V20.75C2.75 21.164 3.086 21.5 3.5 21.5H6.5C6.914 21.5 7.25 21.164 7.25 20.75V19.25H8.75V20.75C8.75 21.164 9.086 21.5 9.5 21.5H12.5C12.914 21.5 13.25 21.164 13.25 20.75V19.25H14.75V20.75C14.75 21.164 15.086 21.5 15.5 21.5H18.5C18.914 21.5 19.25 21.164 19.25 20.75V19.25H20.75C21.164 19.25 21.5 18.914 21.5 18.5V15.5C21.5 15.086 21.164 14.75 20.75 14.75H19.25V13.25H20.75C21.164 13.25 21.5 12.914 21.5 12.5V9.5C21.5 9.086 21.164 8.75 20.75 8.75H19.25V7.25H20.75C21.164 7.25 21.5 6.914 21.5 6.5ZM20.75 3.5V6.5H19.25V3.5H20.75ZM9.5 1.25H12.5V2.75H9.5V1.25ZM14.75 3.5V6.5H7.25V3.5H14.75ZM12.5 14.75H9.5V7.25H12.5V14.75ZM13.25 13.25H14.75V14.75H13.25V13.25ZM8.75 14.75H7.25V13.25H8.75V14.75ZM8.75 8.75H7.25V7.25H8.75V8.75ZM13.25 7.25H14.75V8.75H13.25V7.25ZM1.25 6.5V3.5H2.75V6.5H1.25ZM3.5 1.25H6.5V8.75H3.5V1.25ZM1.25 12.5V9.5H8.75V12.5H1.25ZM1.25 18.5V15.5H2.75V18.5H1.25ZM6.5 20.75H3.5V13.25H6.5V20.75ZM12.5 20.75H9.5V19.25H12.5V20.75ZM7.25 18.5V15.5H14.75V18.5H7.25ZM20.75 15.5V18.5H19.25V15.5H20.75ZM18.5 20.75H15.5V13.25H18.5V20.75ZM20.75 9.5V12.5H13.25V9.5H20.75ZM18.5 8.75H15.5V1.25H18.5V8.75Z" fill="#FA2609"/>
</svg>
